<?xml version="1.0" encoding="utf-8" ?>
<svg baseProfile="full" height="1181" version="1.1" width="1181" xmlns="http://www.w3.org/2000/svg" xmlns:ev="http://www.w3.org/2001/xml-events" xmlns:xlink="http://www.w3.org/1999/xlink"><defs><clipPath id="plot_clip"><rect height="1069.4" width="1181.0" x="0" y="111.60000000000001" /></clipPath></defs><g clip-path="url(#plot_clip)" id="grid"><circle cx="464.96881252013674" cy="160.2239258421463" fill="none" r="220.72700199662813" stroke="black" stroke-width="3.0" /><text font-family="Arial" font-size="42.0" text-anchor="start" x="472.96881252013674" y="420.9509278387744">200</text><circle cx="464.96881252013674" cy="160.2239258421463" fill="none" r="441.45400399325626" stroke="black" stroke-width="3.0" /><text font-family="Arial" font-size="42.0" text-anchor="start" x="472.9688125201368" y="641.6779298354026">400</text><circle cx="464.96881252013674" cy="160.2239258421463" fill="none" r="662.1810059898844" stroke="black" stroke-width="3.0" /><text font-family="Arial" font-size="42.0" text-anchor="start" x="472.9688125201368" y="862.4049318320307">600</text><circle cx="464.96881252013674" cy="160.2239258421463" fill="none" r="882.9080079865125" stroke="black" stroke-width="3.0" /><text font-family="Arial" font-size="42.0" text-anchor="start" x="472.9688125201369" y="1083.1319338286587">800</text><circle cx="464.96881252013674" cy="160.2239258421463" fill="none" r="1103.6350099831407" stroke="black" stroke-width="3.0" /><text font-family="Arial" font-size="42.0" text-anchor="start" x="472.9688125201369" y="1303.8589358252868">1000</text><line stroke="black" stroke-width="3.0" x1="-4707.8236610213435" x2="5637.761286061617" y1="160.22392584214595" y2="160.22392584214663" /><line stroke="black" stroke-width="3.0" x1="-4014.8008780717278" x2="4944.738503112001" y1="-2426.172310928594" y2="2746.620162612887" /><line stroke="black" stroke-width="3.0" x1="-2121.4274242506026" x2="3051.365049290876" y1="-4319.545764749719" y2="4639.9936164340115" /><line stroke="black" stroke-width="3.0" x1="464.96881252013674" x2="464.96881252013674" y1="-5012.568547699333" y2="5333.016399383626" /><line stroke="black" stroke-width="3.0" x1="3051.3650492908764" x2="-2121.427424250603" y1="-4319.545764749719" y2="4639.9936164340115" /><line stroke="black" stroke-width="3.0" x1="4944.738503112002" x2="-4014.8008780717287" y1="-2426.172310928594" y2="2746.620162612887" /><line stroke="black" stroke-width="3.0" x1="5637.761286061616" x2="-4707.823661021343" y1="160.22392584214595" y2="160.22392584214663" /></g><g clip-path="url(#plot_clip)" id="curves"><polyline fill="none" points="464.9688125201368,638.7600661708361 473.75814203219437,663.7642763480316 483.4236130513145,688.7002681386339 493.9723998373455,713.6453398762666 505.4181391128164,738.6762457527983 517.7809047571401,763.8689023293508 531.0888394169151,789.313959461094 545.3853231943328,815.1638473017157 560.7277717247108,841.584324813398 577.1864162429666,868.7379913203669 594.8441760382177,896.7837137784805 613.7733692908698,925.7570059717021 633.9495271650208,955.2156838816542 655.2917987175748,984.6033488780647 677.6822146298517,1013.3707833313343 700.9660341575243,1040.9775474379687 724.9260818035165,1066.8026615224453 749.1923478422133,1089.8772205851808 773.2987694236547,1109.1659582220589 796.7072075207216,1123.6621811455636 818.8086571590563,1132.390909090909 835.721418953421,1126.0674865682201 852.5212459123055,1119.4498587405972 869.2030206456735,1112.5400414015835 885.7616617233423,1105.3401393484764 897.1035232860199,1086.9398036719792 905.4795365252312,1063.4047555266686 911.3367661810189,1036.2703610178298 914.7091926705328,1006.0625613259165 915.6632357864148,973.298188449024 914.2972523096226,938.4836128431892 910.7445882120505,902.1194030550848 905.1846189796061,864.7164811488873 897.8327352407753,826.7759145390005 888.9362013657058,788.7814284668506 878.7733563915004,751.1980603528642 867.6414967174074,714.4553282388681 855.8200169218403,678.9009926675276 843.5996196896369,644.8492591692592 831.2922774848797,612.5957310991748 819.2304377326376,582.4164904074075 807.7241226222663,554.5188059908763 796.9271445557932,528.9010038027708 786.9510556870357,505.50760859788727 777.905388885268,484.27923696207733 769.8975413022223,465.1526546242318 762.97788965905,448.00794642581036 756.9680498304006,432.51761977465844 751.6127258721878,418.3192646976927 746.633524358788,405.0713243543149 741.7299121558528,392.4540624706942 736.6353607334459,380.2151589384856 731.2899981573001,368.2968402146894 725.6865363082812,356.6888225362843 719.8167564251584,345.3817952638691 713.6715575161571,334.36746266180694 707.058974358216,323.5158018456923 699.041212218424,312.2323195641767 688.4526979185462,299.87215647322864 674.0811727908251,285.8713080807064 654.6712240985653,269.74866423287324 629.5889574118589,251.47436220709415 600.8592326398799,232.4781438922546 571.2688199205877,214.38648489412208 543.7100035434864,198.62857076672367 521.1719049920831,186.43185827380853 505.92885423685175,178.4605113658621 497.07409167990943,173.8518083128489 492.8401026750848,171.4846580126066 491.3941231917062,170.3676522235994 490.8439005094441,169.6416876792731 489.62688246854225,168.71438021581037 487.6841328848681,167.604580834888 485.3445701073078,166.4534200945086 482.9454489701859,165.37864339566158 480.83133235715667,164.47427522239843 479.26748958461167,163.78898643793138 478.179286355258,163.2738040403724 477.4034894690882,162.8669980198929 476.77354263477554,162.5185329311172 476.12008142513287,162.1901954192325 475.30476929529823,161.86098057119887 474.32146726769747,161.5383557470518 473.1977519830936,161.23431256080198 471.9617191452071,160.9589099452587 470.64189890329675,160.72025658787618 469.2766411216158,160.52515856264677 467.94252194659646,160.37977134942014 466.72591037135203,160.285285051183 465.71326719942965,160.23692034690953 464.9908852203364,160.2239258421463 464.96881252013674,160.2239258421463 464.96881252013674,160.2239258421463 464.96881252013674,160.2239258421463 464.96881252013674,160.2239258421463 464.96881252013674,160.2239258421463 465.0662292786387,160.21368692824194 465.08963335417656,160.20909090909083 465.0643994516035,160.21049197501134 465.01577674550657,160.21648743959588 464.96881252013674,160.2239258421463 464.96881252013674,160.2239258421463 464.96881252013674,160.2239258421463 464.96881252013674,160.2239258421463 464.96881252013674,160.2239258421463 464.96881252013674,160.2239258421463 464.9755728185578,160.22198735776772 464.97717032717566,160.2213706041049 464.9754036060888,160.22178426850098 464.97204043600414,160.22281438157984 464.96881252013674,160.2239258421463 464.96881252013674,160.2239258421463 464.96881252013674,160.2239258421463 464.96881252013674,160.2239258421463 464.96881252013674,160.2239258421463 464.96881252013674,160.2239258421463 464.96926634608354,160.22370449644256 464.9693716102514,160.22364097150444 464.9692518497534,160.22369224644558 464.9690268962067,160.22380701155032 464.96881252013674,160.2239258421463 464.96881252013674,160.2239258421463 464.96881252013674,160.2239258421463 464.96881252013674,160.2239258421463 464.96881252013674,160.2239258421463 464.96881252013674,160.2239258421463 464.9688418487605,160.22390453365392 464.96884849958104,160.2238987296904 464.9688406710575,160.22390384823655 464.9688261963085,160.22391476740086 464.96881252013674,160.2239258421463 464.96881252013674,160.2239258421463 464.96881252013674,160.2239258421463 464.96881252013674,160.2239258421463 464.96881252013674,160.2239258421463 464.96881252013674,160.2239258421463 464.96881432818583,160.22392396985674 464.9688147260787,160.2239234765632 464.9688142363698,160.2239239360764 464.9688133490513,160.22392488858918 464.96881252013674,160.2239258421463 464.96881252013674,160.2239258421463 464.96881252013674,160.2239258421463 464.96881252013674,160.2239258421463 464.96881252013674,160.2239258421463 464.96881252013674,160.2239258421463 464.96881262463415,160.2239256872225 464.9688126466175,160.223925647383 464.968812617721,160.22392568597877 464.96881256685765,160.22392576438972 464.96881252013674,160.2239258421463 464.96881252013674,160.2239258421463 464.96881252013674,160.2239258421463 464.96881252013674,160.2239258421463 464.96881252013674,160.2239258421463 464.96881252013674,160.2239258421463 464.9688125255939,160.22392582988937 464.96881252665156,160.22392582679845 464.96881252508956,160.22392582988766 464.9688125224708,160.22392583606586 464.96881252013674,160.2239258421463 464.96881252013674,160.2239258421463 464.96881252013674,160.2239258421463 464.96881252013674,160.2239258421463 464.96881252013674,160.2239258421463 464.96881252013674,160.2239258421463 464.96881252036997,160.2239258412111 464.96881252040635,160.2239258409786 464.96881252033444,160.22392584121621 464.9688125202262,160.22392584168597 464.96881252013674,160.2239258421463 464.96881252013674,160.2239258421463 464.96881252013674,160.2239258421463 464.96881252013674,160.2239258421463 464.96881252013674,160.2239258421463 464.96881252013674,160.2239258421463 464.9688125201422,160.2239258420684 464.9688125201422,160.22392584204226 464.96881252014,160.22392584205522 464.96881252013765,160.22392584209422 464.96881252013674,160.2239258421463" stroke="black" stroke-width="9.0" /><polyline fill="none" points="464.9688125201368,638.7600661708361 456.95701459671824,619.2195214681882 449.62264395478724,599.6806958018141 442.9540449393681,580.2907151993638 436.93011773817284,561.1959421928235 431.5203525356263,542.5415729119222 426.68383098164645,524.4811933225267 422.3647592810831,507.206094656873 418.49326307257866,490.914643212471 414.9862009318992,475.80171546479585 411.74729943508856,462.05812541392595 408.68996058673355,449.7535195703342 405.82163713697423,438.4895080403754 403.20429206846825,427.75545606527885 400.9355526841156,417.04730350460704 399.1483818957078,405.8691171085775 397.965281739206,393.8930068759033 397.3395587041813,381.429247772193 397.15287167783566,368.9399305305475 397.2554790059028,356.8777255978754 397.4666742703016,345.6845264484725 397.6092433532239,335.7016028813566 397.6242322323218,326.9076111613555 397.4908602073861,319.1920194390824 397.1955990847134,312.4450555037663 396.7321064380551,306.5580142679472 396.11284000731064,301.39959080087203 395.40737765356056,296.7459286893012 394.7129768051972,292.35593541625724 394.1433894027207,287.9963714332696 393.82849977662346,283.44256198025096 393.878647683853,278.5378285760896 394.2701894887787,273.36537343488544 394.93695745468403,268.0635258083778 395.80370259600136,262.76541819856266 396.78633214628854,257.59859928279104 397.8055075128235,252.6662845733033 398.82949827350296,247.99376031866677 399.83876504053495,243.58658511800058 400.81329515225906,239.44939181577354 401.7326371197557,235.58586505746814 402.58603233512713,231.9871053215943 403.40434977675636,228.59818863368014 404.2325651076448,225.3555771316203 405.1199214311645,222.1992668115273 406.1197685587889,219.07296980349417 407.2764136596172,215.9368278134425 408.58426653865314,212.80336559490252 410.02368077045463,209.69674468403775 411.5735510420897,206.63971850724226 413.2113756931006,203.6535719943937 414.9199315390302,200.75271053992367 416.70791045745483,197.92947494596808 418.5913958060716,195.1718160403351 420.5873891766667,192.46891735458712 422.71375508242687,189.81123558751506 424.99026639798103,187.18979569251815 427.4419552243818,184.59415191884898 430.0959171821821,182.01492935117585 432.9801546913855,179.44465058699063 436.12349419367075,176.87777814279195 439.51653863377726,174.3323516374104 442.9917240853479,171.909351043382 446.33525192452555,169.71819918030678 449.32591171578014,167.85347834413415 451.73572988258826,166.3946136170331 453.39928637233777,165.37501075857358 454.4245400168943,164.69970397502425 454.99428963399987,164.2538946783386 455.29803981776405,163.93618767358942 455.53140567834527,163.65886102121863 455.8549121689887,163.36209339781692 456.26968995978615,163.0504421019483 456.7356517767729,162.74105568677362 457.21169965351686,162.4482421634599 457.65584974581174,162.18342831180553 458.04043412937074,161.95136458925788 458.3979615166487,161.74092632747715 458.776780511555,161.54008287564113 459.2259959504344,161.3402163022863 459.79531934393975,161.13615227362095 460.51480823201825,160.929370818523 461.3339643415982,160.73477043917455 462.1813421385191,160.5661841689831 462.9847521644685,160.4324589885498 463.67147881235985,160.33742783438686 464.1858025874687,160.278679230458 464.5412780954156,160.24633197191304 464.7691591379301,160.23089789188452 464.9010508815512,160.22510862594754 464.96881252013674,160.2239258421463 464.96881252013674,160.2239258421463 464.96881252013674,160.2239258421463 464.96881252013674,160.2239258421463 464.96881252013674,160.2239258421463 464.96881252013674,160.2239258421463 464.9603762131426,160.22303915055124 464.9583494164272,160.22264113455174 464.9605346764589,160.22276246708623 464.96474541064697,160.223281675286 464.96881252013674,160.2239258421463 464.96881252013674,160.2239258421463 464.96881252013674,160.2239258421463 464.96881252013674,160.2239258421463 464.96881252013674,160.2239258421463 464.96881252013674,160.2239258421463 464.9682270772035,160.2237579690866 464.9680887326995,160.22370455811983 464.96824173103056,160.22374038152327 464.96853298210215,160.22382958948197 464.96881252013674,160.2239258421463 464.96881252013674,160.2239258421463 464.96881252013674,160.2239258421463 464.96881252013674,160.2239258421463 464.96881252013674,160.2239258421463 464.96881252013674,160.2239258421463 464.9687732187366,160.22390667357263 464.9687641028427,160.22390117230282 464.9687744741211,160.22390561272096 464.9687939551345,160.22391555139757 464.96881252013674,160.2239258421463 464.96881252013674,160.2239258421463 464.96881252013674,160.2239258421463 464.96881252013674,160.2239258421463 464.96881252013674,160.2239258421463 464.96881252013674,160.2239258421463 464.96880998027325,160.22392399682747 464.9688094043111,160.22392349420318 464.96881008226245,160.2239239374702 464.96881133577807,160.2239248830715 464.96881252013674,160.2239258421463 464.96881252013674,160.2239258421463 464.96881252013674,160.2239258421463 464.96881252013674,160.2239258421463 464.96881252013674,160.2239258421463 464.96881252013674,160.2239258421463 464.96881236355944,160.22392568000578 464.9688123291018,160.22392563728647 464.9688123715107,160.2239256770804 464.9688124483526,160.22392575956815 464.96881252013674,160.2239258421463 464.96881252013674,160.2239258421463 464.96881252013674,160.2239258421463 464.96881252013674,160.2239258421463 464.96881252013674,160.2239258421463 464.96881252013674,160.2239258421463 464.96881251108726,160.22392582873 464.9688125091835,160.22392582527982 464.96881251168594,160.2239258286222 464.9688125160907,160.2239258354125 464.96881252013674,160.2239258421463 464.96881252013674,160.2239258421463 464.96881252013674,160.2239258421463 464.96881252013674,160.2239258421463 464.96881252013674,160.2239258421463 464.96881252013674,160.2239258421463 464.9688125196642,160.2239258410849 464.96881251957257,160.2239258408173 464.96881251970785,160.22392584108468 464.9688125199346,160.2239258416197 464.96881252013674,160.2239258421463 464.96881252013674,160.2239258421463 464.96881252013674,160.2239258421463 464.96881252013674,160.2239258421463 464.96881252013674,160.2239258421463 464.96881252013674,160.2239258421463 464.96881252011656,160.22392584206523 464.96881252011343,160.22392584204522 464.9688125201196,160.2239258420658 464.968812520129,160.22392584210638 464.96881252013674,160.2239258421463 464.96881252013674,160.2239258421463 464.96881252013674,160.2239258421463 464.96881252013674,160.2239258421463 464.96881252013674,160.2239258421463 464.96881252013674,160.2239258421463 464.9688125201363,160.22392584213958 464.9688125201363,160.2239258421373 464.9688125201365,160.22392584213844 464.9688125201367,160.22392584214185 464.96881252013674,160.2239258421463" stroke="black" stroke-width="9.0" /><polyline fill="none" points="464.9688125201368,638.7600661708361 473.3105990907801,638.1245584062915 481.6279808023115,637.2800882532144 489.91175907207173,636.1636983943174 498.1483112361131,634.7128635443241 506.31960824407184,632.8656837275242 514.4053689663461,630.5813412331279 522.392307650992,627.9007632929435 530.2727084882179,624.8852899671589 538.0429969684722,621.5961685864671 545.703726368769,618.0943749602964 553.2569025203518,614.4267738151002 560.6960872066369,610.5853446305695 568.0110241587882,606.5487795878469 575.1898352170871,602.2963021498962 582.2190419291356,597.8077391956361 589.0845322471621,593.0668795258845 595.7748726627614,588.0712701732446 602.2793025616747,582.8221605244545 608.5869192276003,577.3211935731692 614.686690479174,571.5704148232637 620.5648321411996,565.5654150668595 626.1959594425506,559.2751176036301 631.5493579692726,552.6630979387041 636.5914444619408,545.6946684176663 641.2858379246408,538.3370070257649 645.5979811089917,530.5686041011502 649.5101538925229,522.4067011196039 653.0101491512322,513.8782442233463 656.0870548171209,505.01036184944064 658.7312521353518,495.8303158541954 660.9300010917386,486.35811131888386 662.6531821239015,476.58504837076407 663.8647763668682,466.49685201386 664.5270952588658,456.08124677401577 664.600860826688,445.32803771299314 664.0542970612368,434.2415873927597 662.8919605586103,422.87681452541256 661.1307393202108,411.2997426047724 658.7912019446626,399.57464341532295 655.8975117265377,387.76388905071383 652.3906054045337,375.828035201076 647.8540818493152,363.33859473703944 641.7508276702778,349.7994273842669 633.5077555113419,334.75111036376006 622.5174034250128,317.77251674702245 608.4624590947674,298.7941295954006 592.3292157861279,278.98942326425936 575.5135149157877,259.75882295489157 559.5046669902794,242.40269038116617 545.8810224438789,228.117331346897 535.8802406967613,217.64686815063146 529.0715459882092,210.30647012054249 524.5467251332669,205.11910318844093 521.3360541537808,201.17712407534304 518.4114252807319,197.64484615873755 514.9121803803806,193.91115282367502 510.8369605975414,190.0110494895207 506.4135875442306,186.1214955514797 501.8811120222382,182.40307297070967 497.4890893941595,178.99951644948453 493.50431381247347,176.0414124962307 490.2330562749353,173.65716253036726 487.9988045113299,171.95829286331218 487.1340145485709,171.03461720355983 487.9791727678165,170.95383304254483 490.64958283001715,171.6577414449248 494.3234625776426,172.6842355302034 497.9149031380313,173.53501049051738 500.30569908700465,173.78848570529306 500.34871740010556,173.10115810962452 497.29331163984864,171.3541434748206 492.0745505866285,169.0311140208796 486.0818273765818,166.67882226185407 480.73791775923587,164.74564400700297 477.494659837676,163.5802165153965 477.3817301021122,163.3188137923172 479.646650797354,163.61257181484098 483.06834457557306,164.07110014368618 486.4035922478846,164.39042495192484 488.39082469388586,164.3538585308604 488.08083120132886,163.88450998573717 485.8280988736606,163.15550735756676 482.3232691359022,162.3547851774216 478.2661315160303,161.62153038629356 474.36348754806346,161.04585340460005 471.19131778664,160.65904579773462 468.7844078575014,160.42389272042033 467.040338510992,160.2962651237691 465.8550811016839,160.23939571778112 465.1233214215344,160.2239258421463 464.96881252013674,160.2239258421463 464.96881252013674,160.2239258421463 464.96881252013674,160.2239258421463 464.96881252013674,160.2239258421463 464.96881252013674,160.2239258421463 465.0499947065273,160.21539325052856 465.0692686736108,160.211591377452 465.04801127112074,160.21279518357574 465.007492768148,160.21779949271343 464.96881252013674,160.2239258421463 464.96881252013674,160.2239258421463 464.96881252013674,160.2239258421463 464.96881252013674,160.2239258421463 464.96881252013674,160.2239258421463 464.97414266793146,160.22249763334924 464.9793557037594,160.22090263289135 464.979629345039,160.22061880689773 464.9767798033428,160.22133711490721 464.9725916617654,160.22262457932902 464.96881252013674,160.2239258421463 464.96881252013674,160.2239258421463 464.96881252013674,160.2239258421463 464.96881252013674,160.2239258421463 464.96881252013674,160.2239258421463 464.96881252013674,160.2239258421463 464.9693379767372,160.2236695598384 464.96945985551514,160.22359600829657 464.9693211923457,160.22365537633527 464.96906073274283,160.22378825565215 464.96881252013674,160.2239258421463 464.96881252013674,160.2239258421463 464.96881252013674,160.2239258421463 464.96881252013674,160.2239258421463 464.96881252013674,160.2239258421463 464.96881252013674,160.2239258421463 464.96884647791086,160.22390117037935 464.9688541784787,160.223894450334 464.9688451143223,160.2239003767777 464.9688283549183,160.22391301939308 464.96881252013674,160.2239258421463 464.96881252013674,160.2239258421463 464.96881252013674,160.2239258421463 464.96881252013674,160.2239258421463 464.96881252013674,160.2239258421463 464.96881252013674,160.2239258421463 464.96881461356344,160.22392367433963 464.96881507425854,160.22392310318605 464.9688145072554,160.2239236352275 464.96881347988494,160.22392473808236 464.96881252013674,160.2239258421463 464.96881252013674,160.2239258421463 464.96881252013674,160.2239258421463 464.96881252013674,160.2239258421463 464.96881252013674,160.2239258421463 464.96881252013674,160.2239258421463 464.9688126411277,160.22392566276972 464.9688126665809,160.2239256166422 464.96881263312355,160.22392566132976 464.96881257423195,160.22392575211688 464.96881252013674,160.2239258421463 464.96881252013674,160.2239258421463 464.96881252013674,160.2239258421463 464.96881252013674,160.2239258421463 464.96881252013674,160.2239258421463 464.96881252013674,160.2239258421463 464.9688125264552,160.22392582795476 464.9688125276798,160.2239258243759 464.9688125258714,160.2239258279527 464.96881252283924,160.22392583510612 464.96881252013674,160.2239258421463 464.96881252013674,160.2239258421463 464.96881252013674,160.2239258421463 464.96881252013674,160.2239258421463 464.96881252013674,160.2239258421463 464.96881252013674,160.2239258421463 464.96881252040674,160.22392584106342 464.96881252044886,160.22392584079444 464.9688125203657,160.22392584106944 464.9688125202403,160.22392584161332 464.96881252013674,160.2239258421463 464.96881252013674,160.2239258421463 464.96881252013674,160.2239258421463 464.96881252013674,160.2239258421463 464.96881252013674,160.2239258421463 464.96881252013674,160.2239258421463 464.9688125201431,160.22392584205613 464.9688125201431,160.2239258420259 464.96881252014043,160.22392584204079 464.9688125201378,160.22392584208592 464.96881252013674,160.2239258421463" stroke="black" stroke-dasharray="8.0,8.0" stroke-width="7.0" /><polyline fill="none" points="464.9688125201368,638.7600661708361 456.62702594949326,638.1245584062915 448.3096442379621,637.2800882532144 440.0258659682019,636.1636983943174 431.78931380416054,634.7128635443241 423.61801679620174,632.8656837275242 415.5322560739275,630.5813412331279 407.54531738928165,627.9007632929436 399.6649165520556,624.8852899671588 391.8946280718015,621.5961685864671 384.23389867150445,618.0943749602964 376.6807225199219,614.4267738151002 369.2415378336366,610.5853446305694 361.92660088148534,606.5487795878469 354.74778982318657,602.2963021498962 347.71858311113806,597.8077391956361 340.8530927931115,593.0668795258845 334.162752377512,588.0712701732446 327.6583224785988,582.8221605244545 321.3507058126731,577.3211935731691 315.25093456109965,571.5704148232638 309.3727928990738,565.5654150668595 303.74166559772306,559.2751176036301 298.38826707100105,552.6630979387041 293.3461805783328,545.6946684176663 288.6517871156328,538.3370070257649 284.3396439312817,530.5686041011501 280.42747114775057,522.4067011196039 276.92747588904126,513.8782442233462 273.8505702231527,505.01036184944064 271.2063729049217,495.8303158541953 269.007623948535,486.35811131888397 267.2844429163721,476.58504837076407 266.07284867340525,466.49685201386 265.4105297814078,456.08124677401577 265.3367642135854,445.32803771299314 265.8833279790368,434.2415873927597 267.0456644816631,422.87681452541256 268.8068857200627,411.2997426047724 271.14642309561077,399.57464341532284 274.04011331373596,387.76388905071383 277.54701963573984,375.8280352010761 282.08354319095827,363.33859473703956 288.1867973699958,349.7994273842669 296.42986952893153,334.75111036375995 307.42022161526063,317.77251674702256 321.47516594550615,298.7941295954006 337.60840925414556,278.98942326425936 354.42411012448576,259.75882295489157 370.43295804999417,242.40269038116617 384.05660259639467,228.117331346897 394.0573843435121,217.64686815063146 400.8660790520643,210.30647012054249 405.3908999070065,205.11910318844093 408.60157088649277,201.17712407534304 411.52619975954156,197.64484615873755 415.0254446598929,193.91115282367502 419.10066444273207,190.0110494895207 423.52403749604287,186.1214955514797 428.05651301803533,182.40307297070967 432.44853564611407,178.99951644948453 436.43331122780006,176.0414124962307 439.7045687653382,173.65716253036726 441.9388205289436,171.95829286331218 442.8036104917026,171.03461720355983 441.958452272457,170.95383304254483 439.2880422102564,171.6577414449248 435.6141624626309,172.6842355302034 432.02272190224215,173.53501049051738 429.6319259532688,173.78848570529306 429.588907640168,173.10115810962452 432.6443134004249,171.3541434748206 437.863074453645,169.0311140208796 443.8557976636917,166.67882226185407 449.19970728103766,164.74564400700297 452.4429652025975,163.5802165153965 452.5558949381613,163.3188137923172 450.2909742429195,163.61257181484098 446.86928046470047,164.07110014368618 443.5340327923889,164.39042495192484 441.54680034638767,164.3538585308604 441.85679383894467,163.88450998573717 444.1095261666129,163.15550735756676 447.61435590437134,162.3547851774216 451.6714935242432,161.62153038629356 455.57413749221007,161.04585340460005 458.74630725363346,160.65904579773462 461.1532171827721,160.42389272042033 462.89728652928153,160.2962651237691 464.08254393858965,160.23939571778112 464.81430361873913,160.2239258421463 464.96881252013674,160.2239258421463 464.96881252013674,160.2239258421463 464.96881252013674,160.2239258421463 464.96881252013674,160.2239258421463 464.96881252013674,160.2239258421463 464.88763033374624,160.21539325052856 464.86835636666274,160.211591377452 464.8896137691528,160.21279518357574 464.93013227212555,160.21779949271343 464.96881252013674,160.2239258421463 464.96881252013674,160.2239258421463 464.96881252013674,160.2239258421463 464.96881252013674,160.2239258421463 464.96881252013674,160.2239258421463 464.96348237234207,160.22249763334924 464.95826933651415,160.22090263289135 464.95799569523456,160.22061880689773 464.9608452369307,160.22133711490721 464.9650333785081,160.22262457932902 464.96881252013674,160.2239258421463 464.96881252013674,160.2239258421463 464.96881252013674,160.2239258421463 464.96881252013674,160.2239258421463 464.96881252013674,160.2239258421463 464.96881252013674,160.2239258421463 464.9682870635363,160.2236695598384 464.96816518475833,160.22359600829657 464.9683038479278,160.22365537633527 464.9685643075307,160.22378825565215 464.96881252013674,160.2239258421463 464.96881252013674,160.2239258421463 464.96881252013674,160.2239258421463 464.96881252013674,160.2239258421463 464.96881252013674,160.2239258421463 464.96881252013674,160.2239258421463 464.9687785623627,160.22390117037935 464.96877086179484,160.223894450334 464.96877992595125,160.2239003767777 464.96879668535524,160.22391301939308 464.96881252013674,160.2239258421463 464.96881252013674,160.2239258421463 464.96881252013674,160.2239258421463 464.96881252013674,160.2239258421463 464.96881252013674,160.2239258421463 464.96881252013674,160.2239258421463 464.9688104267101,160.22392367433963 464.968809966015,160.22392310318605 464.96881053301814,160.2239236352275 464.9688115603886,160.22392473808236 464.96881252013674,160.2239258421463 464.96881252013674,160.2239258421463 464.96881252013674,160.2239258421463 464.96881252013674,160.2239258421463 464.96881252013674,160.2239258421463 464.96881252013674,160.2239258421463 464.9688123991458,160.22392566276972 464.96881237369263,160.2239256166422 464.96881240715,160.22392566132976 464.9688124660416,160.22392575211688 464.96881252013674,160.2239258421463 464.96881252013674,160.2239258421463 464.96881252013674,160.2239258421463 464.96881252013674,160.2239258421463 464.96881252013674,160.2239258421463 464.96881252013674,160.2239258421463 464.96881251381825,160.22392582795476 464.96881251259373,160.2239258243759 464.96881251440215,160.2239258279527 464.9688125174343,160.22392583510612 464.96881252013674,160.2239258421463 464.96881252013674,160.2239258421463 464.96881252013674,160.2239258421463 464.96881252013674,160.2239258421463 464.96881252013674,160.2239258421463 464.96881252013674,160.2239258421463 464.96881251986673,160.22392584106342 464.96881251982467,160.22392584079444 464.96881251990783,160.22392584106944 464.96881252003317,160.22392584161332 464.96881252013674,160.2239258421463 464.96881252013674,160.2239258421463 464.96881252013674,160.2239258421463 464.96881252013674,160.2239258421463 464.96881252013674,160.2239258421463 464.96881252013674,160.2239258421463 464.9688125201304,160.22392584205613 464.9688125201304,160.2239258420259 464.96881252013304,160.22392584204079 464.9688125201357,160.22392584208592 464.96881252013674,160.2239258421463" stroke="black" stroke-dasharray="8.0,8.0" stroke-width="7.0" /></g><rect fill="white" height="111.60000000000001" stroke="none" width="1181" x="0" y="0" /><line stroke="black" stroke-width="3.0" x1="0" x2="1181" y1="111.60000000000001" y2="111.60000000000001" /><text font-family="Arial" font-size="62.0" text-anchor="start" x="40.0" y="77.5">LED</text><text font-family="Arial" font-size="62.0" text-anchor="middle" x="590.5" y="77.5" /><text font-family="Arial" font-size="62.0" text-anchor="end" x="1141.0" y="77.5">cd / klm</text><rect fill="none" height="1178.0" stroke="black" stroke-width="3.0" width="1178.0" x="1.5" y="1.5" /></svg>