<?xml version="1.0" encoding="utf-8" ?>
<svg baseProfile="full" height="1181" version="1.1" width="1181" xmlns="http://www.w3.org/2000/svg" xmlns:ev="http://www.w3.org/2001/xml-events" xmlns:xlink="http://www.w3.org/1999/xlink"><defs><clipPath id="plot_clip"><rect height="1069.4" width="1181.0" x="0" y="111.60000000000001" /></clipPath></defs><g clip-path="url(#plot_clip)" id="grid"><circle cx="590.4999999999999" cy="160.248256055507" fill="none" r="180.8974047330484" stroke="black" stroke-width="3.0" /><text font-family="Arial" font-size="42.0" text-anchor="start" x="598.4999999999999" y="381.14566078855546">50</text><circle cx="590.4999999999999" cy="160.248256055507" fill="none" r="361.7948094660968" stroke="black" stroke-width="3.0" /><text font-family="Arial" font-size="42.0" text-anchor="start" x="598.4999999999999" y="562.0430655216038">100</text><circle cx="590.4999999999999" cy="160.248256055507" fill="none" r="542.6922141991453" stroke="black" stroke-width="3.0" /><text font-family="Arial" font-size="42.0" text-anchor="start" x="598.5" y="742.9404702546523">150</text><circle cx="590.4999999999999" cy="160.248256055507" fill="none" r="723.5896189321936" stroke="black" stroke-width="3.0" /><text font-family="Arial" font-size="42.0" text-anchor="start" x="598.5" y="923.8378749877007">200</text><circle cx="590.4999999999999" cy="160.248256055507" fill="none" r="904.4870236652421" stroke="black" stroke-width="3.0" /><text font-family="Arial" font-size="42.0" text-anchor="start" x="598.5" y="1104.735279720749">250</text><circle cx="590.4999999999999" cy="160.248256055507" fill="none" r="1085.3844283982905" stroke="black" stroke-width="3.0" /><text font-family="Arial" font-size="42.0" text-anchor="start" x="598.5" y="1285.6326844537973">300</text><line stroke="black" stroke-width="3.0" x1="-4270.213265177011" x2="5451.213265177011" y1="160.24825605550677" y2="160.24825605550723" /><line stroke="black" stroke-width="3.0" x1="-3619.001168155298" x2="4800.001168155298" y1="-2270.108376532999" y2="2590.604888644013" /><line stroke="black" stroke-width="3.0" x1="-1839.8566325885051" x2="3020.856632588505" y1="-4049.25291209979" y2="4369.749424210804" /><line stroke="black" stroke-width="3.0" x1="590.4999999999999" x2="590.4999999999999" y1="-4700.465009121503" y2="5020.961521232517" /><line stroke="black" stroke-width="3.0" x1="3020.856632588505" x2="-1839.8566325885051" y1="-4049.25291209979" y2="4369.749424210804" /><line stroke="black" stroke-width="3.0" x1="4800.001168155298" x2="-3619.001168155298" y1="-2270.108376532999" y2="2590.604888644013" /><line stroke="black" stroke-width="3.0" x1="5451.213265177011" x2="-4270.213265177011" y1="160.24825605550677" y2="160.24825605550723" /></g><g clip-path="url(#plot_clip)" id="curves"><polyline fill="none" points="590.5,1132.390909090909 607.4168849766584,1129.415947280245 624.2349784602435,1126.2916437367417 640.964298334883,1123.164430433706 657.6249629611417,1120.1799488569409 674.247154376866,1117.4826107905146 690.8628565561238,1115.1370509973299 707.470263549409,1112.8946041733836 724.0393372805569,1110.430013288835 740.5173882783399,1107.4207685254694 756.8292122624433,1103.5480936308372 772.8920850166081,1098.5741895088963 788.6710689430428,1092.5698338324771 804.1532494765555,1085.6821516256207 819.3355352211217,1078.0574576358526 834.2245967674709,1069.840834245945 848.8278302362988,1061.144462467658 863.1220328513501,1051.9547460638157 877.0726421709437,1042.228159069835 890.6416652775025,1031.922945198166 903.7877488504946,1020.9992718140113 916.4828354880594,1009.4625760633296 928.7679976069882,997.4909298640181 940.7141571048452,985.3011066159282 952.406783058508,973.1041995302911 963.9456307237814,961.1049955767132 975.3881113985502,949.3858294341551 986.5638845062371,937.5673966386264 997.2159472315504,925.1697018922864 1007.0536727708453,911.7309743678176 1015.7536190464501,896.8091303464988 1023.0379858319186,880.1123512127878 1028.9262534196546,861.8769278410824 1033.5340805553449,842.4609144784898 1036.9997680539739,822.2113846223202 1039.483732527372,801.4634787241083 1040.9520452474826,780.242307173405 1040.4869076802595,757.4010516895772 1036.863407626517,731.5673645642559 1028.7583994541963,701.452307369097 1014.7541378574779,665.8546490201154 993.9667412019336,624.3836484986266 968.0237314077661,579.5308368019869 939.363074159495,534.3581008671698 910.6262989830736,491.74874289406307 884.6505321346734,454.3987881901804 863.7157163295246,424.0896064158028 847.2030370056925,399.6277107206696 833.6517724245454,379.18309532475575 821.483210598616,361.0388976870963 809.0057721938811,343.59636891349953 794.8764454050595,325.7490383056753 779.525685931143,307.93130751408216 763.8800785409026,290.89951644714483 748.9165629195627,275.3446261570065 735.6595563242192,261.89007163690235 724.9126930730827,250.91076230502847 716.4352123819737,242.0315392273019 709.6938466786082,234.72883778114874 704.1235310557624,228.52016126176977 699.1292560475952,222.96538627645486 694.2071435073461,217.73406440194037 689.3130011644652,212.7880607454299 684.5216604370839,208.1546848519248 679.9099720289081,203.85641315676764 675.5565993415496,199.91079970509293 671.5152361978165,196.31856315782147 667.7330570778773,193.03174376394486 664.1276057647198,189.9957397299055 660.613214013077,187.1621972958685 657.1012812967417,184.48914001151127 653.5260629764246,181.9498698952234 649.9226657604263,179.55585056373423 646.3527072314877,177.32414229870074 642.8789572807954,175.26768036663282 639.5651598194012,173.39522600561952 636.4462862056827,171.70395183323114 633.438660741363,170.16142699021987 630.4269838731493,168.73499846543814 627.2939844581421,167.4002821288891 623.9207836693355,166.1412419328317 620.2286916250171,164.95681824011615 616.3047321735046,163.87487465444303 612.2788962960052,162.92236827416184 608.2825772099101,162.11728023420756 604.4481793472061,161.46856362521396 600.9002309144287,160.9755110468294 597.7294330481595,160.6271345870365 595.0176926106702,160.40601735779887 592.846351719621,160.28921177711743 591.2959485808253,160.248256055507 590.4999999999999,160.248256055507 590.4999999999999,160.248256055507 590.4999999999999,160.248256055507 590.4999999999999,160.248256055507 590.4999999999999,160.248256055507 590.6338895843965,160.2341836931289 590.6660561437764,160.22786692480815 590.6313746702787,160.22979254968732 590.5645476272559,160.23803271568966 590.4999999999999,160.248256055507 590.4999999999999,160.248256055507 590.4999999999999,160.248256055507 590.4999999999999,160.248256055507 590.4999999999999,160.248256055507 590.4999999999999,160.248256055507 590.5092913535607,160.24559180274605 590.5114869692659,160.2447441365656 590.5090587879581,160.2453126768753 590.5044364472867,160.24672846420128 590.4999999999999,160.248256055507 590.4999999999999,160.248256055507 590.4999999999999,160.248256055507 590.4999999999999,160.248256055507 590.4999999999999,160.248256055507 590.4999999999999,160.248256055507 590.5006237383416,160.24795183799097 590.5007684134048,160.24786452932153 590.5006038145867,160.24793500159637 590.5002946384518,160.24809273474614 590.4999999999999,160.248256055507 590.4999999999999,160.248256055507 590.4999999999999,160.248256055507 590.4999999999999,160.248256055507 590.4999999999999,160.248256055507 590.4999999999999,160.248256055507 590.5000403092579,160.24822676911674 590.500049450145,160.24821879214994 590.5000386906229,160.2482258270794 590.5000187965292,160.24824083437773 590.4999999999999,160.248256055507 590.4999999999999,160.248256055507 590.4999999999999,160.248256055507 590.4999999999999,160.248256055507 590.4999999999999,160.248256055507 590.4999999999999,160.248256055507 590.5000024849825,160.24825348223226 590.5000030318463,160.2482528042499 590.5000023587904,160.2482534358047 590.50000113926,160.2482547449381 590.4999999999999,160.248256055507 590.4999999999999,160.248256055507 590.4999999999999,160.248256055507 590.4999999999999,160.248256055507 590.4999999999999,160.248256055507 590.4999999999999,160.248256055507 590.5000001436212,160.24825584257974 590.500000173835,160.24825578782452 590.5000001341198,160.24825584087023 590.500000064213,160.24825594863842 590.4999999999999,160.248256055507 590.4999999999999,160.248256055507 590.4999999999999,160.248256055507 590.4999999999999,160.248256055507 590.4999999999999,160.248256055507 590.4999999999999,160.248256055507 590.5000000075003,160.2482560386611 590.5000000089539,160.24825603441286 590.5000000068071,160.2482560386586 590.5000000032079,160.24825604715022 590.4999999999999,160.248256055507 590.4999999999999,160.248256055507 590.4999999999999,160.248256055507 590.4999999999999,160.248256055507 590.4999999999999,160.248256055507 590.4999999999999,160.248256055507 590.5000000003205,160.24825605422143 590.5000000003704,160.24825605390208 590.5000000002717,160.2482560542287 590.5000000001229,160.24825605487445 590.4999999999999,160.248256055507 590.4999999999999,160.248256055507 590.4999999999999,160.248256055507 590.4999999999999,160.248256055507 590.4999999999999,160.248256055507 590.4999999999999,160.248256055507 590.5000000000074,160.2482560553999 590.5000000000074,160.2482560553641 590.5000000000043,160.24825605538183 590.5000000000011,160.2482560554355 590.4999999999999,160.248256055507" stroke="black" stroke-width="9.0" /><polyline fill="none" points="590.5,1132.390909090909 573.5831150233413,1129.415947280245 556.7650215397565,1126.2916437367417 540.0357016651171,1123.164430433706 523.3750370388585,1120.1799488569409 506.7528456231341,1117.4826107905146 490.13714344387625,1115.1370509973299 473.52973645059103,1112.8946041733836 456.96066271944284,1110.430013288835 440.48261172166013,1107.4207685254696 424.1707877375564,1103.5480936308372 408.1079149833919,1098.5741895088963 392.32893105695683,1092.569833832477 376.8467505234445,1085.6821516256207 361.6644647788783,1078.0574576358526 346.77540323252913,1069.8408342459452 332.17216976370116,1061.144462467658 317.8779671486496,1051.9547460638155 303.92735782905635,1042.2281590698353 290.35833472249715,1031.922945198166 277.2122511495055,1020.9992718140114 264.51716451194017,1009.4625760633296 252.23200239301184,997.4909298640183 240.2858428951549,985.3011066159282 228.59321694149193,973.1041995302912 217.05436927621867,961.1049955767133 205.61188860144944,949.385829434155 194.43611549376303,937.5673966386265 183.7840527684493,925.1697018922863 173.9463272291547,911.7309743678178 165.2463809535496,896.8091303464988 157.96201416808157,880.1123512127879 152.0737465803453,861.8769278410824 147.46591944465516,842.46091447849 144.0002319460263,822.2113846223202 141.51626747262773,801.4634787241082 140.04795475251728,780.2423071734053 140.5130923197401,757.4010516895772 144.1365923734828,731.5673645642561 152.2416005458034,701.4523073690968 166.24586214252207,665.8546490201155 187.0332587980665,624.3836484986267 212.9762685922338,579.530836801987 241.636925840505,534.3581008671699 270.3737010169262,491.74874289406307 296.3494678653265,454.39878819018054 317.28428367047525,424.0896064158027 333.7969629943075,399.6277107206697 347.3482275754545,379.18309532475564 359.5167894013839,361.0388976870963 371.99422780611883,343.59636891349953 386.1235545949404,325.7490383056755 401.47431406885676,307.93130751408205 417.1199214590972,290.8995164471447 432.08343708043714,275.3446261570065 445.3404436757807,261.89007163690235 456.0873069269171,250.91076230502847 464.5647876180262,242.0315392273019 471.3061533213916,234.72883778114874 476.8764689442374,228.52016126176977 481.8707439524047,222.9653862764551 486.79285649265375,217.73406440194015 491.6869988355347,212.7880607454299 496.4783395629159,208.1546848519248 501.09002797109184,203.85641315676764 505.4434006584502,199.91079970509293 509.48476380218324,196.31856315782147 513.2669429221226,193.03174376394486 516.8723942352801,189.99573972990572 520.3867859869229,187.1621972958685 523.898718703258,184.48914001151127 527.4739370235752,181.9498698952234 531.0773342395736,179.55585056373423 534.6472927685121,177.32414229870074 538.1210427192045,175.26768036663282 541.4348401805987,173.39522600561952 544.5537137943171,171.70395183323114 547.5613392586367,170.16142699021987 550.5730161268506,168.73499846543814 553.7060155418578,167.4002821288891 557.0792163306643,166.1412419328317 560.7713083749828,164.95681824011615 564.6952678264953,163.87487465444303 568.7211037039946,162.92236827416184 572.7174227900897,162.11728023420756 576.5518206527937,161.46856362521396 580.0997690855711,160.9755110468294 583.2705669518402,160.6271345870365 585.9823073893297,160.40601735779887 588.1536482803788,160.28921177711743 589.7040514191744,160.248256055507 590.4999999999999,160.248256055507 590.4999999999999,160.248256055507 590.4999999999999,160.248256055507 590.4999999999999,160.248256055507 590.4999999999999,160.248256055507 590.3661104156034,160.2341836931289 590.3339438562234,160.22786692480815 590.3686253297212,160.22979254968732 590.435452372744,160.23803271568966 590.4999999999999,160.248256055507 590.4999999999999,160.248256055507 590.4999999999999,160.248256055507 590.4999999999999,160.248256055507 590.4999999999999,160.248256055507 590.4999999999999,160.248256055507 590.4907086464391,160.24559180274605 590.488513030734,160.2447441365656 590.4909412120418,160.2453126768753 590.4955635527132,160.24672846420128 590.4999999999999,160.248256055507 590.4999999999999,160.248256055507 590.4999999999999,160.248256055507 590.4999999999999,160.248256055507 590.4999999999999,160.248256055507 590.4999999999999,160.248256055507 590.4993762616582,160.24795183799097 590.4992315865951,160.24786452932153 590.4993961854132,160.24793500159637 590.4997053615481,160.24809273474614 590.4999999999999,160.248256055507 590.4999999999999,160.248256055507 590.4999999999999,160.248256055507 590.4999999999999,160.248256055507 590.4999999999999,160.248256055507 590.4999999999999,160.248256055507 590.4999596907419,160.24822676911674 590.4999505498549,160.24821879214994 590.4999613093769,160.2482258270794 590.4999812034707,160.24824083437773 590.4999999999999,160.248256055507 590.4999999999999,160.248256055507 590.4999999999999,160.248256055507 590.4999999999999,160.248256055507 590.4999999999999,160.248256055507 590.4999999999999,160.248256055507 590.4999975150174,160.24825348223226 590.4999969681535,160.2482528042499 590.4999976412093,160.2482534358047 590.4999988607398,160.2482547449381 590.4999999999999,160.248256055507 590.4999999999999,160.248256055507 590.4999999999999,160.248256055507 590.4999999999999,160.248256055507 590.4999999999999,160.248256055507 590.4999999999999,160.248256055507 590.4999998563786,160.24825584257974 590.4999998261649,160.24825578782452 590.4999998658801,160.24825584087023 590.4999999357867,160.24825594863842 590.4999999999999,160.248256055507 590.4999999999999,160.248256055507 590.4999999999999,160.248256055507 590.4999999999999,160.248256055507 590.4999999999999,160.248256055507 590.4999999999999,160.248256055507 590.4999999924996,160.2482560386611 590.4999999910459,160.24825603441286 590.4999999931927,160.2482560386586 590.499999996792,160.24825604715022 590.4999999999999,160.248256055507 590.4999999999999,160.248256055507 590.4999999999999,160.248256055507 590.4999999999999,160.248256055507 590.4999999999999,160.248256055507 590.4999999999999,160.248256055507 590.4999999996794,160.24825605422143 590.4999999996294,160.24825605390208 590.4999999997282,160.2482560542287 590.4999999998769,160.24825605487445 590.4999999999999,160.248256055507 590.4999999999999,160.248256055507 590.4999999999999,160.248256055507 590.4999999999999,160.248256055507 590.4999999999999,160.248256055507 590.4999999999999,160.248256055507 590.4999999999924,160.2482560553999 590.4999999999924,160.2482560553641 590.4999999999955,160.24825605538183 590.4999999999986,160.2482560554355 590.4999999999999,160.248256055507" stroke="black" stroke-width="9.0" /><polyline fill="none" points="590.5,1132.390909090909 607.4114475913821,1129.1044396863952 624.2120994409552,1125.6364743455347 640.9085867221312,1122.1013895356944 657.5153890222588,1118.612968526543 674.0548061552843,1115.2840605574927 690.5514962346456,1112.1746554222018 707.008962428658,1109.1376080383743 723.4132143270627,1105.9749169830534 739.7364427114923,1102.490072269906 755.9370971296286,1098.4886572971 771.9635101295236,1093.7970858444162 787.7671218680397,1088.3170972060427 803.2964358622929,1081.970884126684 818.4942132924655,1074.6830996854326 833.2975668350912,1066.381111438167 847.6504172645363,1057.0383354635678 861.5466667438297,1046.8019557059617 875.0036500908172,1035.860456206284 888.0511678277838,1024.3995943261014 900.731343369569,1012.6018667704711 913.0812184963843,1000.6010608360399 925.0745933018707,988.3494334240708 936.6627678622309,975.7566316838426 947.7903354243659,962.7354883792049 958.3953210303351,949.2023180281464 968.410486840852,935.0795789984084 977.7672899496881,920.3031077492741 986.393149583017,904.8149799256017 994.2105307056036,888.5613327543864 1001.1371087440197,871.4925918733356 1007.1009666747836,853.588697219741 1012.0893214316686,834.9322042175924 1016.109589714014,815.6295515196163 1019.1751510677378,795.7853031998376 1021.3052452980328,775.5019084219408 1022.3883764859637,754.691609112435 1021.7466763753499,732.5319247804283 1018.5007748969067,708.0642664569563 1011.7021250618175,680.3895626208667 1000.3355901695078,648.6712930129862 983.7122126547631,612.587162827016 962.704413877556,573.6231361825853 938.6841987478385,533.6300961177043 913.1445601574287,494.35647867814976 887.694880136415,457.4431361919221 863.7680541376216,424.1401484495801 841.7127495537751,394.50793484452447 821.5876419337926,368.3205034399451 803.4397978562025,345.3539982851721 787.3048564622969,325.38713852691797 773.1633070204268,308.16608553124615 760.804032310998,293.30434863622554 749.9480559284941,280.4009843814407 740.2922532923521,269.07869843815195 731.510446915197,258.98483395184815 723.3147019430281,249.83290367796792 715.642580750547,241.51679822724498 708.4871195459366,233.9747909798249 701.8382097831213,227.1470017072137 695.6826975920902,220.9755148243912 689.9916442475023,215.39737500581634 684.6809265490559,210.32514298425713 679.6482699932131,205.67156839544964 674.7861880863501,201.35737675121175 669.982342638364,197.31148111587572 665.170462723293,193.4936880051789 660.485454350085,189.95531892810504 656.1170983625312,186.75928465717493 652.2597635094088,183.9556080790618 649.1118473484343,181.58122386569153 646.7892773268162,179.63020857124968 645.063113226763,177.97688623066847 643.6104323540553,176.4857447316764 642.1001827290365,175.04437035736953 640.1942003299063,173.56377690241584 637.6389022777271,172.0013044166326 634.5413655981142,170.41600646584322 631.1029597575653,168.87868157520143 627.5289095006171,167.44594693126965 624.027673169344,166.1600894356377 620.7547588870007,165.04013910897834 617.6442610302466,164.06313315807756 614.5733249365682,163.20408868731647 611.4177469563267,162.44679985283267 608.0523600570785,161.7838885786266 604.4174063037658,161.2214559088519 600.7174449336947,160.78372965442873 597.2242289162323,160.48307130350054 594.2101020988388,160.31301612853247 591.9471792378644,160.248256055507 590.6209236909593,160.24614532462988 590.4999999999999,160.248256055507 590.4999999999999,160.248256055507 590.4999999999999,160.248256055507 590.6441672283947,160.23564305737057 590.8058599343177,160.21610888101213 590.8189745203152,160.20909090909095 590.7369811026056,160.21495053353806 590.6130718335345,160.23034723643627 590.4999999999999,160.248256055507 590.4999999999999,160.248256055507 590.4999999999999,160.248256055507 590.4999999999999,160.248256055507 590.4999999999999,160.248256055507 590.4999999999999,160.248256055507 590.5161116041089,160.2436361273717 590.5199188955639,160.24216623799236 590.515708325416,160.2431521111846 590.5076929891718,160.2456071469063 590.4999999999999,160.248256055507 590.4999999999999,160.248256055507 590.4999999999999,160.248256055507 590.4999999999999,160.248256055507 590.4999999999999,160.248256055507 590.4999999999999,160.248256055507 590.5010815889378,160.24772852933472 590.5013324616795,160.2475771323709 590.5010470402954,160.2476993343065 590.5005109156658,160.24797285032878 590.4999999999999,160.248256055507 590.4999999999999,160.248256055507 590.4999999999999,160.248256055507 590.4999999999999,160.248256055507 590.4999999999999,160.248256055507 590.4999999999999,160.248256055507 590.5000698979758,160.2482052716549 590.5000857486646,160.24819143925345 590.5000670911935,160.24820363812194 590.5000325939848,160.24822966141846 590.4999999999999,160.248256055507 590.4999999999999,160.248256055507 590.4999999999999,160.248256055507 590.4999999999999,160.248256055507 590.4999999999999,160.248256055507 590.4999999999999,160.248256055507 590.5000043090657,160.24825159333864 590.5000052573511,160.24825041768827 590.5000040902435,160.2482515128313 590.5000019755256,160.24825378292473 590.4999999999999,160.248256055507 590.4999999999999,160.248256055507 590.4999999999999,160.248256055507 590.4999999999999,160.248256055507 590.4999999999999,160.248256055507 590.4999999999999,160.248256055507 590.5000002490452,160.24825568628216 590.5000003014375,160.24825559133387 590.5000002325695,160.2482556833179 590.5000001113483,160.24825587019222 590.4999999999999,160.248256055507 590.4999999999999,160.248256055507 590.4999999999999,160.248256055507 590.4999999999999,160.248256055507 590.4999999999999,160.248256055507 590.4999999999999,160.248256055507 590.5000000130058,160.24825602629562 590.5000000155264,160.24825601892894 590.5000000118039,160.2482560262913 590.5000000055626,160.24825604101568 590.4999999999999,160.248256055507 590.4999999999999,160.248256055507 590.4999999999999,160.248256055507 590.4999999999999,160.248256055507 590.4999999999999,160.248256055507 590.4999999999999,160.248256055507 590.5000000005557,160.24825605327794 590.5000000006423,160.24825605272406 590.5000000004711,160.24825605329022 590.5000000002132,160.24825605441004 590.4999999999999,160.248256055507 590.4999999999999,160.248256055507 590.4999999999999,160.248256055507 590.4999999999999,160.248256055507 590.4999999999999,160.248256055507 590.4999999999999,160.248256055507 590.5000000000128,160.24825605532112 590.5000000000128,160.24825605525905 590.5000000000075,160.24825605528986 590.500000000002,160.24825605538285 590.4999999999999,160.248256055507" stroke="black" stroke-dasharray="8.0,8.0" stroke-width="7.0" /><polyline fill="none" points="590.5,1132.390909090909 573.5885524086176,1129.1044396863952 556.7879005590449,1125.6364743455347 540.0914132778689,1122.1013895356944 523.4846109777415,1118.612968526543 506.9451938447158,1115.2840605574927 490.44850376535453,1112.1746554222018 473.99103757134196,1109.1376080383745 457.5867856729369,1105.9749169830534 441.26355728850785,1102.4900722699062 425.06290287037103,1098.4886572971 409.0364898704765,1093.7970858444162 393.2328781319599,1088.3170972060427 377.7035641377071,1081.970884126684 362.5057867075345,1074.6830996854326 347.7024331649088,1066.381111438167 333.3495827354637,1057.0383354635678 319.45333325616986,1046.8019557059617 305.9963499091828,1035.860456206284 292.94883217221593,1024.3995943261014 280.268656630431,1012.6018667704712 267.9187815036154,1000.6010608360399 255.9254066981293,988.3494334240709 244.33723213776906,975.7566316838426 233.20966457563406,962.7354883792049 222.60467896966495,949.2023180281465 212.5895131591477,935.0795789984082 203.23271005031194,920.3031077492742 194.60685041698258,904.8149799256017 186.78946929439633,888.5613327543866 179.86289125597992,871.4925918733355 173.89903332521646,853.5886972197411 168.91067856833146,834.9322042175925 164.8904102859861,815.6295515196164 161.82484893226214,795.7853031998378 159.69475470196676,775.5019084219408 158.61162351403618,754.691609112435 159.2533236246497,732.5319247804282 162.49922510309335,708.0642664569563 169.2978749381822,680.3895626208666 180.66440983049208,648.6712930129862 197.28778734523678,612.5871628270161 218.29558612244384,573.6231361825853 242.3158012521614,533.6300961177044 267.855439842571,494.35647867814964 293.30511986358476,457.44313619192224 317.2319458623782,424.1401484495801 339.28725044622473,394.5079348445246 359.41235806620705,368.3205034399451 377.56020214379726,345.3539982851721 393.6951435377029,325.3871385269181 407.836692979573,308.16608553124627 420.19596768900175,293.3043486362254 431.05194407150566,280.4009843814407 440.70774670764763,269.07869843815206 449.4895530848029,258.98483395184815 457.68529805697165,249.83290367796792 465.3574192494526,241.51679822724498 472.51288045406324,233.9747909798249 479.16179021687844,227.1470017072137 485.31730240790966,220.97551482439144 491.0083557524975,215.39737500581634 496.31907345094385,210.32514298425713 501.3517300067867,205.67156839544964 506.21381191364975,201.35737675121175 511.01765736163577,197.31148111587572 515.8295372767069,193.4936880051789 520.5145456499149,189.95531892810504 524.8829016374686,186.75928465717493 528.740236490591,183.9556080790618 531.8881526515656,181.58122386569153 534.2107226731837,179.63020857124968 535.9368867732368,177.97688623066847 537.3895676459446,176.4857447316764 538.8998172709634,175.04437035736953 540.8057996700935,173.56377690241584 543.3610977222727,172.0013044166326 546.4586344018855,170.41600646584322 549.8970402424346,168.87868157520143 553.4710904993826,167.44594693126965 556.9723268306558,166.1600894356377 560.2452411129992,165.04013910897834 563.3557389697531,164.06313315807756 566.4266750634317,163.20408868731647 569.5822530436731,162.44679985283267 572.9476399429213,161.7838885786266 576.5825936962341,161.2214559088519 580.2825550663051,160.78372965442873 583.7757710837676,160.48307130350054 586.789897901161,160.31301612853247 589.0528207621355,160.248256055507 590.3790763090404,160.24614532462988 590.4999999999999,160.248256055507 590.4999999999999,160.248256055507 590.4999999999999,160.248256055507 590.355832771605,160.23564305737057 590.1941400656821,160.21610888101213 590.1810254796845,160.20909090909095 590.2630188973943,160.21495053353806 590.3869281664653,160.23034723643627 590.4999999999999,160.248256055507 590.4999999999999,160.248256055507 590.4999999999999,160.248256055507 590.4999999999999,160.248256055507 590.4999999999999,160.248256055507 590.4999999999999,160.248256055507 590.483888395891,160.2436361273717 590.4800811044358,160.24216623799236 590.4842916745838,160.2431521111846 590.492307010828,160.2456071469063 590.4999999999999,160.248256055507 590.4999999999999,160.248256055507 590.4999999999999,160.248256055507 590.4999999999999,160.248256055507 590.4999999999999,160.248256055507 590.4999999999999,160.248256055507 590.498918411062,160.24772852933472 590.4986675383204,160.2475771323709 590.4989529597044,160.2476993343065 590.499489084334,160.24797285032878 590.4999999999999,160.248256055507 590.4999999999999,160.248256055507 590.4999999999999,160.248256055507 590.4999999999999,160.248256055507 590.4999999999999,160.248256055507 590.4999999999999,160.248256055507 590.4999301020241,160.2482052716549 590.4999142513353,160.24819143925345 590.4999329088064,160.24820363812194 590.499967406015,160.24822966141846 590.4999999999999,160.248256055507 590.4999999999999,160.248256055507 590.4999999999999,160.248256055507 590.4999999999999,160.248256055507 590.4999999999999,160.248256055507 590.4999999999999,160.248256055507 590.499995690934,160.24825159333864 590.4999947426488,160.24825041768827 590.4999959097563,160.2482515128313 590.4999980244742,160.24825378292473 590.4999999999999,160.248256055507 590.4999999999999,160.248256055507 590.4999999999999,160.248256055507 590.4999999999999,160.248256055507 590.4999999999999,160.248256055507 590.4999999999999,160.248256055507 590.4999997509545,160.24825568628216 590.4999996985623,160.24825559133387 590.4999997674304,160.2482556833179 590.4999998886515,160.24825587019222 590.4999999999999,160.248256055507 590.4999999999999,160.248256055507 590.4999999999999,160.248256055507 590.4999999999999,160.248256055507 590.4999999999999,160.248256055507 590.4999999999999,160.248256055507 590.4999999869941,160.24825602629562 590.4999999844733,160.24825601892894 590.4999999881959,160.2482560262913 590.4999999944372,160.24825604101568 590.4999999999999,160.248256055507 590.4999999999999,160.248256055507 590.4999999999999,160.248256055507 590.4999999999999,160.248256055507 590.4999999999999,160.248256055507 590.4999999999999,160.248256055507 590.4999999994441,160.24825605327794 590.4999999993574,160.24825605272406 590.4999999995288,160.24825605329022 590.4999999997866,160.24825605441004 590.4999999999999,160.248256055507 590.4999999999999,160.248256055507 590.4999999999999,160.248256055507 590.4999999999999,160.248256055507 590.4999999999999,160.248256055507 590.4999999999999,160.248256055507 590.4999999999869,160.24825605532112 590.4999999999869,160.24825605525905 590.4999999999923,160.24825605528986 590.4999999999977,160.24825605538285 590.4999999999999,160.248256055507" stroke="black" stroke-dasharray="8.0,8.0" stroke-width="7.0" /></g><rect fill="white" height="111.60000000000001" stroke="none" width="1181" x="0" y="0" /><line stroke="black" stroke-width="3.0" x1="0" x2="1181" y1="111.60000000000001" y2="111.60000000000001" /><text font-family="Arial" font-size="62.0" text-anchor="start" x="40.0" y="77.5">LED</text><text font-family="Arial" font-size="62.0" text-anchor="middle" x="590.5" y="77.5" /><text font-family="Arial" font-size="62.0" text-anchor="end" x="1141.0" y="77.5">cd / klm</text><rect fill="none" height="1178.0" stroke="black" stroke-width="3.0" width="1178.0" x="1.5" y="1.5" /></svg>