<?xml version="1.0" encoding="utf-8" ?>
<svg baseProfile="full" height="1181" version="1.1" width="1181" xmlns="http://www.w3.org/2000/svg" xmlns:ev="http://www.w3.org/2001/xml-events" xmlns:xlink="http://www.w3.org/1999/xlink"><defs><clipPath id="plot_clip"><rect height="1069.4" width="1181.0" x="0" y="111.60000000000001" /></clipPath></defs><g clip-path="url(#plot_clip)" id="grid"><circle cx="590.4999999999999" cy="188.83886202540327" fill="none" r="161.8498142415702" stroke="black" stroke-width="3.0" /><text font-family="Arial" font-size="42.0" text-anchor="start" x="598.4999999999999" y="390.6886762669735">50</text><circle cx="590.4999999999999" cy="188.83886202540327" fill="none" r="323.6996284831404" stroke="black" stroke-width="3.0" /><text font-family="Arial" font-size="42.0" text-anchor="start" x="598.4999999999999" y="552.5384905085436">100</text><circle cx="590.4999999999999" cy="188.83886202540327" fill="none" r="485.54944272471056" stroke="black" stroke-width="3.0" /><text font-family="Arial" font-size="42.0" text-anchor="start" x="598.5" y="714.3883047501139">150</text><circle cx="590.4999999999999" cy="188.83886202540327" fill="none" r="647.3992569662807" stroke="black" stroke-width="3.0" /><text font-family="Arial" font-size="42.0" text-anchor="start" x="598.5" y="876.238118991684">200</text><circle cx="590.4999999999999" cy="188.83886202540327" fill="none" r="809.249071207851" stroke="black" stroke-width="3.0" /><text font-family="Arial" font-size="42.0" text-anchor="start" x="598.5" y="1038.0879332332543">250</text><circle cx="590.4999999999999" cy="188.83886202540327" fill="none" r="971.0988854494211" stroke="black" stroke-width="3.0" /><text font-family="Arial" font-size="42.0" text-anchor="start" x="598.5" y="1199.9377474748244">300</text><line stroke="black" stroke-width="3.0" x1="-4127.26023532753" x2="5308.26023532753" y1="188.83886202540293" y2="188.8388620254036" /><line stroke="black" stroke-width="3.0" x1="-3495.2002127576916" x2="4676.200212757692" y1="-2170.041255638362" y2="2547.718979689169" /><line stroke="black" stroke-width="3.0" x1="-1768.3801176637646" x2="2949.3801176637644" y1="-3896.86135073229" y2="4274.539074783096" /><line stroke="black" stroke-width="3.0" x1="590.4999999999999" x2="590.4999999999999" y1="-4528.921373302126" y2="4906.599097352932" /><line stroke="black" stroke-width="3.0" x1="2949.3801176637644" x2="-1768.3801176637646" y1="-3896.86135073229" y2="4274.539074783096" /><line stroke="black" stroke-width="3.0" x1="4676.200212757692" x2="-3495.2002127576916" y1="-2170.041255638362" y2="2547.718979689169" /><line stroke="black" stroke-width="3.0" x1="5308.26023532753" x2="-4127.26023532753" y1="188.83886202540293" y2="188.8388620254036" /></g><g clip-path="url(#plot_clip)" id="curves"><polyline fill="none" points="590.5,1132.3909090909092 606.9609924153174,1131.8884859031677 623.4028399605992,1131.0529208643568 639.8157126026787,1129.8387150498395 656.1865812114117,1128.2007374742052 672.499231326373,1126.0943648720734 688.7345061709505,1123.4777557164025 704.8713010397213,1120.3183591110642 720.8864375062174,1116.5865716666844 736.754541412739,1112.2536943981875 752.4480740309496,1107.292029999231 767.9391357302536,1101.6840803367802 783.206079764243,1095.4496871638182 798.2304504149765,1088.6182963520544 812.9955391302353,1081.2197281657297 827.4863885829269,1073.2841049191468 841.6880364947554,1064.8356486172504 855.5793877195463,1055.8744714540549 869.137005557398,1046.3953868772164 882.336684795793,1036.3941365141961 895.1534834177204,1025.8674284737829 907.5624549275493,1014.8147961821336 919.5410339428681,1003.2439993719008 931.0674119630891,991.1654052211196 942.1199253898345,978.5901448884281 952.6770789108906,965.5301141997447 962.7183575850215,951.9995904883093 972.2268409559287,938.0199703188026 981.1872477158463,923.614708477914 989.5852124167483,908.8076436478574 997.407292898457,893.6229672958415 1004.6414231159285,878.0859353086876 1011.2783608830634,862.2250020198661 1017.3105301965625,846.0694436622157 1022.7315961040578,829.6485557672427 1027.536458317479,812.9916088451446 1031.722492922033,796.1295241885099 1035.2935302721917,779.0998130633766 1038.2565030208189,761.9410513269352 1040.6202216233028,744.691043806947 1042.3953361548547,727.3867523645196 1043.5799797103618,710.0477566285396 1044.1144954536555,692.6287975841631 1043.9204664654599,675.0727827477582 1042.914673020733,657.327970342021 1041.009325211132,639.3481872365353 1038.1467453521568,621.1262990909019 1034.4075438306452,602.7893434977951 1029.9153129847564,584.4901869632791 1024.8029783568047,566.3726813050613 1019.2123967039909,548.5712759808499 1013.2657702870367,531.1878325852339 1006.9775566235841,514.2267907780471 1000.3332613337718,497.6703759703041 993.3168726053233,481.5024509712882 985.9109408085353,465.70858347013325 978.1115943752825,450.2861836584033 969.974813969343,435.27268764430744 961.574022176625,420.7116457732984 952.9853194564593,406.6420154624144 944.2872893324239,393.0980487573462 935.5480463130413,380.1021172828164 926.7858018392391,367.64519459716985 918.0053246749194,355.71115979221054 909.2104683816726,344.2843437722347 900.4042009986426,333.34956424547624 891.5995296627116,322.897009764151 882.8528778716751,312.93529612833174 874.2325084698932,303.47423656923604 865.8076375485911,294.51956265087324 857.648264428826,286.07287841337256 849.7902181269944,278.119643982428 842.1290088750821,270.59808315248233 834.5214348798113,263.4437016017282 826.8203923394512,256.60264408945216 818.875348477431,250.03185222110721 810.6032784785754,243.71677286770296 802.2028913995704,237.71432561887366 793.9473013234843,232.08292087576797 786.1134173102249,226.86225855365046 778.9811299289075,222.07317058628746 772.6508161298209,217.68871709278255 766.493690759655,213.57316222711984 759.6908640848286,209.61288798084195 751.4164107788919,205.75185832201635 740.8398889196886,201.99189798162263 727.5660422400978,198.42345338496784 712.9525928629957,195.25633048480336 698.8041933473672,192.62092779627642 686.9311192185058,190.52207347246315 679.1437934326572,188.83886202540327 676.6448317220865,187.335198394464 678.218341325216,185.775670047787 682.0406865826812,184.04141792756013 686.2885078468172,182.1406770508495 689.1442611283495,180.20860745478183 689.241634890165,178.4606980013898 686.9837335998018,176.99214916107883 683.2130662460345,175.8088903073674 678.767775493238,174.85861980521486 674.4791077763502,174.03107950860874 670.9939474077814,173.1924236445634 668.2524310646924,172.31207261680686 666.0204181284305,171.40359969904637 664.0662239073686,170.4967423418649 662.1613207511867,169.6372690015752 660.1310139187667,168.8724900784896 658.0030095656646,168.2011209103822 655.8541409470657,167.60401440132 653.7596908518841,167.05680365693206 651.7931660985993,166.5299740015788 650.0088430875107,165.99555739754192 648.3907975981285,165.44946156124445 646.906176224736,164.89586073932185 645.5227452147502,164.34115751137347 644.2089862558373,163.79395042256476 642.9375535213564,163.26335830837127 641.6952212967433,162.7535938822133 640.4724529789197,162.26803745325185 639.2600132671463,161.81074532246691 638.0489975440838,161.3864354936295 636.8279910400094,161.0021966508 635.5747322956436,160.67304326833812 634.265200732961,160.4174083516051 632.8766231971053,160.25546876393332 631.3875505532443,160.20909090909095 629.7878347876369,160.29457921893652 628.1073923822919,160.4996591819223 626.3847083461014,160.80265518320869 624.6565809653256,161.17940813115 622.9580166567517,161.60335221997684 621.3177116039897,162.04943403820982 619.7452456608308,162.50632455590733 618.2452167945382,162.96602879633645 616.8217730397934,163.42022126785537 615.4785978055512,163.86026421985207 614.218833820762,164.27729059624312 613.0448927931341,164.66242442318526 611.9586448614587,165.00662249099207 610.9614717340809,165.30063137727086 610.0542562818146,165.5350068510428 609.233633742999,165.70475098460463 608.4814147408623,165.8237006928431 607.7769601828151,165.9115614814565 607.1011367599457,165.98935752974444 606.4363721922886,166.0793638442858 605.7694764887416,166.2009321735719 605.0994211718662,166.35772487087354 604.428050922642,166.54932121165712 603.7571709176985,166.77522447306342 603.0885442163634,167.03486384933444 602.4245709008687,167.32636665911582 601.770158121651,167.64277737737643 601.1303652953915,167.97559541931048 600.5096659358768,168.31600550414953 599.911934552917,168.65490324128962 599.3412811400725,168.9810194563745 598.8043134111714,169.27512562915308 598.307113202443,169.51557877490347 597.8543002340683,169.68025490715672 597.4490105969436,169.74661232274968 597.0901829749058,169.69958094380763 596.7655540026861,169.5554696200535 596.4616656033953,169.33913247601083 596.16686257105,169.07616364386172 595.8713214478527,168.79281747823256 595.5675599875569,168.51398904776022 595.2516392909527,168.25725107334085 594.9212555602414,168.03848999499212 594.5751992377811,167.87377942079695 594.2133632551012,167.7793325071109 593.8377088419822,167.76539776879304 593.4543013659116,167.81791553559708 593.0689470878973,167.91646698643058 592.6860110642164,168.04035605948525 592.3084072472004,168.1686726052094 591.9372924964988,168.28462171969534 591.5717621720325,168.3884215241127 591.2107865612696,168.484598026792 590.8536595830699,168.57771808097073 590.4999999999999,168.6723751709036" stroke="black" stroke-width="9.0" /><polyline fill="none" points="590.5,1132.3909090909092 574.0390075846823,1131.8884859031677 557.5971600394008,1131.0529208643568 541.1842873973213,1129.8387150498395 524.8134187885883,1128.2007374742052 508.5007686736271,1126.0943648720734 492.26549382904955,1123.4777557164025 476.12869896027877,1120.3183591110642 460.1135624937823,1116.5865716666842 444.24545858726106,1112.2536943981875 428.55192596905005,1107.292029999231 413.06086426974645,1101.6840803367802 397.7939202357567,1095.449687163818 382.7695495850236,1088.6182963520544 368.0044608697647,1081.2197281657297 353.5136114170731,1073.2841049191468 339.31196350524476,1064.8356486172504 325.4206122804533,1055.8744714540546 311.86299444260203,1046.3953868772167 298.6633152042067,1036.3941365141961 285.84651658227966,1025.8674284737829 273.4375450724504,1014.8147961821336 261.45896605713205,1003.2439993719009 249.93258803691094,991.1654052211196 238.88007461016545,978.5901448884282 228.32292108910943,965.5301141997448 218.28164241497822,951.9995904883093 208.77315904407138,938.0199703188027 199.81275228415345,923.614708477914 191.4147875832517,908.8076436478576 183.59270710154283,893.6229672958415 176.35857688407143,878.0859353086877 169.72163911693636,862.2250020198662 163.68946980343753,846.0694436622157 158.26840389594227,829.6485557672428 153.4635416825206,812.9916088451445 149.27750707796696,796.1295241885099 145.706469727808,779.0998130633765 142.7434969791813,761.9410513269353 140.37977837669706,744.691043806947 138.60466384514513,727.3867523645198 137.4200202896384,710.0477566285396 136.88550454634438,692.6287975841632 137.07953353454022,675.0727827477584 138.08532697926688,657.3279703420209 139.99067478886798,639.3481872365354 142.85325464784316,621.1262990909019 146.59245616935485,602.7893434977952 151.08468701524333,584.4901869632791 156.1970216431952,566.3726813050613 161.78760329600897,548.5712759808499 167.73422971296324,531.1878325852341 174.02244337641562,514.2267907780471 180.6667386662279,497.6703759703041 187.68312739467666,481.50245097128834 195.0890591914646,465.70858347013325 202.88840562471736,450.2861836584033 211.02518603065676,435.2726876443073 219.42597782337472,420.7116457732985 228.01468054354072,406.6420154624145 236.71271066757598,393.09804875734653 245.45195368695855,380.10211728281627 254.21419816076084,367.64519459716973 262.99467532508055,355.71115979221054 271.7895316183273,344.2843437722347 280.5957990013572,333.34956424547624 289.40047033728825,322.897009764151 298.1471221283247,312.93529612833174 306.7674915301067,303.47423656923604 315.1923624514088,294.51956265087324 323.35173557117383,286.07287841337256 331.2097818730054,278.119643982428 338.87099112491774,270.59808315248233 346.47856512018865,263.4437016017282 354.1796076605485,256.6026440894519 362.1246515225688,250.03185222110721 370.39672152142447,243.71677286770296 378.7971086004296,237.71432561887366 387.05269867651555,232.0829208757682 394.8865826897749,226.86225855365046 402.01887007109235,222.07317058628746 408.34918387017893,217.68871709278255 414.5063092403449,213.57316222711984 421.3091359151712,209.61288798084195 429.58358922110796,205.75185832201612 440.16011108031114,201.99189798162286 453.4339577599021,198.42345338496784 468.04740713700414,195.25633048480336 482.19580665263265,192.62092779627642 494.06888078149393,190.52207347246315 501.8562065673427,188.83886202540327 504.3551682779134,187.335198394464 502.7816586747838,185.775670047787 498.9593134173186,184.04141792756013 494.71149215318263,182.1406770508495 491.8557388716504,180.20860745478183 491.7583651098349,178.46069800139003 494.01626640019805,176.99214916107883 497.7869337539653,175.8088903073674 502.2322245067619,174.85861980521508 506.5208922236495,174.03107950860874 510.0060525922184,173.1924236445634 512.7475689353074,172.31207261680686 514.9795818715693,171.40359969904637 516.9337760926312,170.4967423418649 518.8386792488132,169.6372690015752 520.8689860812332,168.8724900784896 522.9969904343353,168.2011209103822 525.145859052934,167.60401440132023 527.2403091481157,167.05680365693206 529.2068339014005,166.5299740015788 530.9911569124891,165.99555739754192 532.6092024018712,165.44946156124445 534.0938237752638,164.89586073932185 535.4772547852497,164.34115751137358 536.7910137441626,163.79395042256476 538.0624464786434,163.26335830837127 539.3047787032566,162.7535938822133 540.5275470210801,162.26803745325185 541.7399867328535,161.81074532246691 542.951002455916,161.3864354936295 544.1720089599905,161.0021966508 545.4252677043562,160.67304326833812 546.7347992670389,160.4174083516051 548.1233768028945,160.25546876393332 549.6124494467555,160.20909090909095 551.2121652123628,160.29457921893652 552.892607617708,160.4996591819223 554.6152916538985,160.80265518320869 556.3434190346743,161.17940813115 558.041983343248,161.60335221997684 559.6822883960102,162.04943403820982 561.2547543391689,162.50632455590733 562.7547832054616,162.96602879633645 564.1782269602065,163.42022126785537 565.5214021944486,163.86026421985207 566.7811661792379,164.27729059624312 567.9551072068657,164.66242442318526 569.0413551385411,165.00662249099207 570.0385282659189,165.30063137727086 570.9457437181853,165.5350068510428 571.7663662570008,165.70475098460463 572.5185852591375,165.8237006928431 573.2230398171847,165.9115614814565 573.8988632400541,165.98935752974444 574.5636278077112,166.0793638442858 575.2305235112583,166.2009321735719 575.9005788281336,166.35772487087354 576.5719490773579,166.54932121165712 577.2428290823012,166.77522447306342 577.9114557836364,167.03486384933444 578.575429099131,167.32636665911582 579.2298418783489,167.64277737737643 579.8696347046083,167.97559541931048 580.490334064123,168.31600550414953 581.0880654470828,168.65490324128962 581.6587188599274,168.9810194563745 582.1956865888285,169.27512562915308 582.6928867975568,169.51557877490347 583.1456997659315,169.68025490715672 583.5509894030562,169.74661232274968 583.9098170250941,169.69958094380763 584.2344459973137,169.5554696200535 584.5383343966046,169.33913247601083 584.8331374289498,169.07616364386172 585.1286785521472,168.79281747823256 585.4324400124428,168.51398904776022 585.7483607090472,168.25725107334085 586.0787444397583,168.03848999499212 586.4248007622188,167.87377942079695 586.7866367448986,167.7793325071109 587.1622911580175,167.76539776879304 587.5456986340882,167.81791553559708 587.9310529121026,167.91646698643058 588.3139889357835,168.04035605948525 588.6915927527995,168.1686726052094 589.062707503501,168.28462171969534 589.4282378279673,168.3884215241127 589.7892134387303,168.484598026792 590.1463404169299,168.57771808097073 590.4999999999999,168.6723751709036" stroke="black" stroke-width="9.0" /><polyline fill="none" points="590.5,1132.3909090909092 606.9609924153174,1131.8884859031677 623.4028399605992,1131.0529208643568 639.8157126026787,1129.8387150498395 656.1865812114117,1128.2007374742052 672.499231326373,1126.0943648720734 688.7345061709505,1123.4777557164025 704.8713010397213,1120.3183591110642 720.8864375062174,1116.5865716666844 736.754541412739,1112.2536943981875 752.4480740309496,1107.292029999231 767.9391357302536,1101.6840803367802 783.206079764243,1095.4496871638182 798.2304504149765,1088.6182963520544 812.9955391302353,1081.2197281657297 827.4863885829269,1073.2841049191468 841.6880364947554,1064.8356486172504 855.5793877195463,1055.8744714540549 869.137005557398,1046.3953868772164 882.336684795793,1036.3941365141961 895.1534834177204,1025.8674284737829 907.5624549275493,1014.8147961821336 919.5410339428681,1003.2439993719008 931.0674119630891,991.1654052211196 942.1199253898345,978.5901448884281 952.6770789108906,965.5301141997447 962.7183575850215,951.9995904883093 972.2268409559287,938.0199703188026 981.1872477158463,923.614708477914 989.5852124167483,908.8076436478574 997.407292898457,893.6229672958415 1004.6414231159285,878.0859353086876 1011.2783608830634,862.2250020198661 1017.3105301965625,846.0694436622157 1022.7315961040578,829.6485557672427 1027.536458317479,812.9916088451446 1031.722492922033,796.1295241885099 1035.2935302721917,779.0998130633766 1038.2565030208189,761.9410513269352 1040.6202216233028,744.691043806947 1042.3953361548547,727.3867523645196 1043.5799797103618,710.0477566285396 1044.1144954536555,692.6287975841631 1043.9204664654599,675.0727827477582 1042.914673020733,657.327970342021 1041.009325211132,639.3481872365353 1038.1467453521568,621.1262990909019 1034.4075438306452,602.7893434977951 1029.9153129847564,584.4901869632791 1024.8029783568047,566.3726813050613 1019.2123967039909,548.5712759808499 1013.2657702870367,531.1878325852339 1006.9775566235841,514.2267907780471 1000.3332613337718,497.6703759703041 993.3168726053233,481.5024509712882 985.9109408085353,465.70858347013325 978.1115943752825,450.2861836584033 969.974813969343,435.27268764430744 961.574022176625,420.7116457732984 952.9853194564593,406.6420154624144 944.2872893324239,393.0980487573462 935.5480463130413,380.1021172828164 926.7858018392391,367.64519459716985 918.0053246749194,355.71115979221054 909.2104683816726,344.2843437722347 900.4042009986426,333.34956424547624 891.5995296627116,322.897009764151 882.8528778716751,312.93529612833174 874.2325084698932,303.47423656923604 865.8076375485911,294.51956265087324 857.648264428826,286.07287841337256 849.7902181269944,278.119643982428 842.1290088750821,270.59808315248233 834.5214348798113,263.4437016017282 826.8203923394512,256.60264408945216 818.875348477431,250.03185222110721 810.6032784785754,243.71677286770296 802.2028913995704,237.71432561887366 793.9473013234843,232.08292087576797 786.1134173102249,226.86225855365046 778.9811299289075,222.07317058628746 772.6508161298209,217.68871709278255 766.493690759655,213.57316222711984 759.6908640848286,209.61288798084195 751.4164107788919,205.75185832201635 740.8398889196886,201.99189798162263 727.5660422400978,198.42345338496784 712.9525928629957,195.25633048480336 698.8041933473672,192.62092779627642 686.9311192185058,190.52207347246315 679.1437934326572,188.83886202540327 676.6448317220865,187.335198394464 678.218341325216,185.775670047787 682.0406865826812,184.04141792756013 686.2885078468172,182.1406770508495 689.1442611283495,180.20860745478183 689.241634890165,178.4606980013898 686.9837335998018,176.99214916107883 683.2130662460345,175.8088903073674 678.767775493238,174.85861980521486 674.4791077763502,174.03107950860874 670.9939474077814,173.1924236445634 668.2524310646924,172.31207261680686 666.0204181284305,171.40359969904637 664.0662239073686,170.4967423418649 662.1613207511867,169.6372690015752 660.1310139187667,168.8724900784896 658.0030095656646,168.2011209103822 655.8541409470657,167.60401440132 653.7596908518841,167.05680365693206 651.7931660985993,166.5299740015788 650.0088430875107,165.99555739754192 648.3907975981285,165.44946156124445 646.906176224736,164.89586073932185 645.5227452147502,164.34115751137347 644.2089862558373,163.79395042256476 642.9375535213564,163.26335830837127 641.6952212967433,162.7535938822133 640.4724529789197,162.26803745325185 639.2600132671463,161.81074532246691 638.0489975440838,161.3864354936295 636.8279910400094,161.0021966508 635.5747322956436,160.67304326833812 634.265200732961,160.4174083516051 632.8766231971053,160.25546876393332 631.3875505532443,160.20909090909095 629.7878347876369,160.29457921893652 628.1073923822919,160.4996591819223 626.3847083461014,160.80265518320869 624.6565809653256,161.17940813115 622.9580166567517,161.60335221997684 621.3177116039897,162.04943403820982 619.7452456608308,162.50632455590733 618.2452167945382,162.96602879633645 616.8217730397934,163.42022126785537 615.4785978055512,163.86026421985207 614.218833820762,164.27729059624312 613.0448927931341,164.66242442318526 611.9586448614587,165.00662249099207 610.9614717340809,165.30063137727086 610.0542562818146,165.5350068510428 609.233633742999,165.70475098460463 608.4814147408623,165.8237006928431 607.7769601828151,165.9115614814565 607.1011367599457,165.98935752974444 606.4363721922886,166.0793638442858 605.7694764887416,166.2009321735719 605.0994211718662,166.35772487087354 604.428050922642,166.54932121165712 603.7571709176985,166.77522447306342 603.0885442163634,167.03486384933444 602.4245709008687,167.32636665911582 601.770158121651,167.64277737737643 601.1303652953915,167.97559541931048 600.5096659358768,168.31600550414953 599.911934552917,168.65490324128962 599.3412811400725,168.9810194563745 598.8043134111714,169.27512562915308 598.307113202443,169.51557877490347 597.8543002340683,169.68025490715672 597.4490105969436,169.74661232274968 597.0901829749058,169.69958094380763 596.7655540026861,169.5554696200535 596.4616656033953,169.33913247601083 596.16686257105,169.07616364386172 595.8713214478527,168.79281747823256 595.5675599875569,168.51398904776022 595.2516392909527,168.25725107334085 594.9212555602414,168.03848999499212 594.5751992377811,167.87377942079695 594.2133632551012,167.7793325071109 593.8377088419822,167.76539776879304 593.4543013659116,167.81791553559708 593.0689470878973,167.91646698643058 592.6860110642164,168.04035605948525 592.3084072472004,168.1686726052094 591.9372924964988,168.28462171969534 591.5717621720325,168.3884215241127 591.2107865612696,168.484598026792 590.8536595830699,168.57771808097073 590.4999999999999,168.6723751709036" stroke="black" stroke-dasharray="8.0,8.0" stroke-width="7.0" /><polyline fill="none" points="590.5,1132.3909090909092 574.0390075846823,1131.8884859031677 557.5971600394008,1131.0529208643568 541.1842873973213,1129.8387150498395 524.8134187885883,1128.2007374742052 508.5007686736271,1126.0943648720734 492.26549382904955,1123.4777557164025 476.12869896027877,1120.3183591110642 460.1135624937823,1116.5865716666842 444.24545858726106,1112.2536943981875 428.55192596905005,1107.292029999231 413.06086426974645,1101.6840803367802 397.7939202357567,1095.449687163818 382.7695495850236,1088.6182963520544 368.0044608697647,1081.2197281657297 353.5136114170731,1073.2841049191468 339.31196350524476,1064.8356486172504 325.4206122804533,1055.8744714540546 311.86299444260203,1046.3953868772167 298.6633152042067,1036.3941365141961 285.84651658227966,1025.8674284737829 273.4375450724504,1014.8147961821336 261.45896605713205,1003.2439993719009 249.93258803691094,991.1654052211196 238.88007461016545,978.5901448884282 228.32292108910943,965.5301141997448 218.28164241497822,951.9995904883093 208.77315904407138,938.0199703188027 199.81275228415345,923.614708477914 191.4147875832517,908.8076436478576 183.59270710154283,893.6229672958415 176.35857688407143,878.0859353086877 169.72163911693636,862.2250020198662 163.68946980343753,846.0694436622157 158.26840389594227,829.6485557672428 153.4635416825206,812.9916088451445 149.27750707796696,796.1295241885099 145.706469727808,779.0998130633765 142.7434969791813,761.9410513269353 140.37977837669706,744.691043806947 138.60466384514513,727.3867523645198 137.4200202896384,710.0477566285396 136.88550454634438,692.6287975841632 137.07953353454022,675.0727827477584 138.08532697926688,657.3279703420209 139.99067478886798,639.3481872365354 142.85325464784316,621.1262990909019 146.59245616935485,602.7893434977952 151.08468701524333,584.4901869632791 156.1970216431952,566.3726813050613 161.78760329600897,548.5712759808499 167.73422971296324,531.1878325852341 174.02244337641562,514.2267907780471 180.6667386662279,497.6703759703041 187.68312739467666,481.50245097128834 195.0890591914646,465.70858347013325 202.88840562471736,450.2861836584033 211.02518603065676,435.2726876443073 219.42597782337472,420.7116457732985 228.01468054354072,406.6420154624145 236.71271066757598,393.09804875734653 245.45195368695855,380.10211728281627 254.21419816076084,367.64519459716973 262.99467532508055,355.71115979221054 271.7895316183273,344.2843437722347 280.5957990013572,333.34956424547624 289.40047033728825,322.897009764151 298.1471221283247,312.93529612833174 306.7674915301067,303.47423656923604 315.1923624514088,294.51956265087324 323.35173557117383,286.07287841337256 331.2097818730054,278.119643982428 338.87099112491774,270.59808315248233 346.47856512018865,263.4437016017282 354.1796076605485,256.6026440894519 362.1246515225688,250.03185222110721 370.39672152142447,243.71677286770296 378.7971086004296,237.71432561887366 387.05269867651555,232.0829208757682 394.8865826897749,226.86225855365046 402.01887007109235,222.07317058628746 408.34918387017893,217.68871709278255 414.5063092403449,213.57316222711984 421.3091359151712,209.61288798084195 429.58358922110796,205.75185832201612 440.16011108031114,201.99189798162286 453.4339577599021,198.42345338496784 468.04740713700414,195.25633048480336 482.19580665263265,192.62092779627642 494.06888078149393,190.52207347246315 501.8562065673427,188.83886202540327 504.3551682779134,187.335198394464 502.7816586747838,185.775670047787 498.9593134173186,184.04141792756013 494.71149215318263,182.1406770508495 491.8557388716504,180.20860745478183 491.7583651098349,178.46069800139003 494.01626640019805,176.99214916107883 497.7869337539653,175.8088903073674 502.2322245067619,174.85861980521508 506.5208922236495,174.03107950860874 510.0060525922184,173.1924236445634 512.7475689353074,172.31207261680686 514.9795818715693,171.40359969904637 516.9337760926312,170.4967423418649 518.8386792488132,169.6372690015752 520.8689860812332,168.8724900784896 522.9969904343353,168.2011209103822 525.145859052934,167.60401440132023 527.2403091481157,167.05680365693206 529.2068339014005,166.5299740015788 530.9911569124891,165.99555739754192 532.6092024018712,165.44946156124445 534.0938237752638,164.89586073932185 535.4772547852497,164.34115751137358 536.7910137441626,163.79395042256476 538.0624464786434,163.26335830837127 539.3047787032566,162.7535938822133 540.5275470210801,162.26803745325185 541.7399867328535,161.81074532246691 542.951002455916,161.3864354936295 544.1720089599905,161.0021966508 545.4252677043562,160.67304326833812 546.7347992670389,160.4174083516051 548.1233768028945,160.25546876393332 549.6124494467555,160.20909090909095 551.2121652123628,160.29457921893652 552.892607617708,160.4996591819223 554.6152916538985,160.80265518320869 556.3434190346743,161.17940813115 558.041983343248,161.60335221997684 559.6822883960102,162.04943403820982 561.2547543391689,162.50632455590733 562.7547832054616,162.96602879633645 564.1782269602065,163.42022126785537 565.5214021944486,163.86026421985207 566.7811661792379,164.27729059624312 567.9551072068657,164.66242442318526 569.0413551385411,165.00662249099207 570.0385282659189,165.30063137727086 570.9457437181853,165.5350068510428 571.7663662570008,165.70475098460463 572.5185852591375,165.8237006928431 573.2230398171847,165.9115614814565 573.8988632400541,165.98935752974444 574.5636278077112,166.0793638442858 575.2305235112583,166.2009321735719 575.9005788281336,166.35772487087354 576.5719490773579,166.54932121165712 577.2428290823012,166.77522447306342 577.9114557836364,167.03486384933444 578.575429099131,167.32636665911582 579.2298418783489,167.64277737737643 579.8696347046083,167.97559541931048 580.490334064123,168.31600550414953 581.0880654470828,168.65490324128962 581.6587188599274,168.9810194563745 582.1956865888285,169.27512562915308 582.6928867975568,169.51557877490347 583.1456997659315,169.68025490715672 583.5509894030562,169.74661232274968 583.9098170250941,169.69958094380763 584.2344459973137,169.5554696200535 584.5383343966046,169.33913247601083 584.8331374289498,169.07616364386172 585.1286785521472,168.79281747823256 585.4324400124428,168.51398904776022 585.7483607090472,168.25725107334085 586.0787444397583,168.03848999499212 586.4248007622188,167.87377942079695 586.7866367448986,167.7793325071109 587.1622911580175,167.76539776879304 587.5456986340882,167.81791553559708 587.9310529121026,167.91646698643058 588.3139889357835,168.04035605948525 588.6915927527995,168.1686726052094 589.062707503501,168.28462171969534 589.4282378279673,168.3884215241127 589.7892134387303,168.484598026792 590.1463404169299,168.57771808097073 590.4999999999999,168.6723751709036" stroke="black" stroke-dasharray="8.0,8.0" stroke-width="7.0" /></g><rect fill="white" height="111.60000000000001" stroke="none" width="1181" x="0" y="0" /><line stroke="black" stroke-width="3.0" x1="0" x2="1181" y1="111.60000000000001" y2="111.60000000000001" /><text font-family="Arial" font-size="62.0" text-anchor="start" x="40.0" y="77.5">LED</text><text font-family="Arial" font-size="62.0" text-anchor="middle" x="590.5" y="77.5" /><text font-family="Arial" font-size="62.0" text-anchor="end" x="1141.0" y="77.5">cd / klm</text><rect fill="none" height="1178.0" stroke="black" stroke-width="3.0" width="1178.0" x="1.5" y="1.5" /></svg>