<?xml version="1.0" encoding="utf-8" ?>
<svg baseProfile="full" height="1181" version="1.1" width="1181" xmlns="http://www.w3.org/2000/svg" xmlns:ev="http://www.w3.org/2001/xml-events" xmlns:xlink="http://www.w3.org/1999/xlink"><defs><clipPath id="plot_clip"><rect height="1069.4" width="1181.0" x="0" y="111.60000000000001" /></clipPath></defs><g clip-path="url(#plot_clip)" id="grid"><circle cx="817.4194392421045" cy="358.5015877541341" fill="none" r="157.50060312478743" stroke="black" stroke-width="3.0" /><text font-family="Arial" font-size="42.0" text-anchor="start" x="825.4194392421045" y="556.0021908789215">100</text><circle cx="817.4194392421045" cy="358.5015877541341" fill="none" r="315.00120624957486" stroke="black" stroke-width="3.0" /><text font-family="Arial" font-size="42.0" text-anchor="start" x="825.4194392421045" y="713.502794003709">200</text><circle cx="817.4194392421045" cy="358.5015877541341" fill="none" r="472.50180937436227" stroke="black" stroke-width="3.0" /><text font-family="Arial" font-size="42.0" text-anchor="start" x="825.4194392421045" y="871.0033971284964">300</text><circle cx="817.4194392421045" cy="358.5015877541341" fill="none" r="630.0024124991497" stroke="black" stroke-width="3.0" /><text font-family="Arial" font-size="42.0" text-anchor="start" x="825.4194392421045" y="1028.5040002532837">400</text><circle cx="817.4194392421045" cy="358.5015877541341" fill="none" r="787.5030156239371" stroke="black" stroke-width="3.0" /><text font-family="Arial" font-size="42.0" text-anchor="start" x="825.4194392421047" y="1186.0046033780711">500</text><circle cx="817.4194392421045" cy="358.5015877541341" fill="none" r="945.0036187487245" stroke="black" stroke-width="3.0" /><text font-family="Arial" font-size="42.0" text-anchor="start" x="825.4194392421047" y="1343.5052065028585">600</text><line stroke="black" stroke-width="3.0" x1="-3418.874283005303" x2="5053.713161489512" y1="358.5015877541339" y2="358.50158775413433" /><line stroke="black" stroke-width="3.0" x1="-2851.3185421166886" x2="4486.157420600897" y1="-1759.64527336957" y2="2476.6484488778383" /><line stroke="black" stroke-width="3.0" x1="-1300.727421881599" x2="2935.5663003658083" y1="-3310.2363936046604" y2="4027.2395691129286" /><line stroke="black" stroke-width="3.0" x1="817.4194392421045" x2="817.4194392421045" y1="-3877.792134493274" y2="4594.795310001542" /><line stroke="black" stroke-width="3.0" x1="2935.566300365808" x2="-1300.7274218815987" y1="-3310.2363936046604" y2="4027.2395691129286" /><line stroke="black" stroke-width="3.0" x1="4486.157420600898" x2="-2851.318542116689" y1="-1759.64527336957" y2="2476.6484488778383" /><line stroke="black" stroke-width="3.0" x1="5053.7131614895125" x2="-3418.8742830053034" y1="358.5015877541339" y2="358.50158775413433" /></g><g clip-path="url(#plot_clip)" id="curves"><polyline fill="none" points="817.4194392421045,837.0671703488007 825.8683794887027,842.5410503023212 834.50799386175,847.853766081239 843.3344792129592,852.990007705953 852.3431960090705,857.9345777090988 861.528671988694,862.6724250823264 870.8823301071993,867.1670162209726 880.3826421236133,871.2957242359897 889.9966999902582,874.9156314151315 899.6817989344571,877.8856858624681 909.3855159624086,880.0671266795622 919.0534844944243,881.3634234162643 928.6580543570817,881.8381257607406 938.1849405385487,881.5944430655142 947.6268972839747,880.7351778726351 956.9836791253025,879.3624219179593 966.2566043213881,877.5584670319612 975.429717277235,875.3299194127478 984.4813475089721,872.6652725161547 993.3888674113928,869.5539151817759 1002.1287234967078,865.9861754072818 1010.7005340798812,862.0160543280721 1019.2080418431846,857.9459052213123 1027.8020143723234,854.1318751027534 1036.657939593848,850.9193217997619 1045.975545704116,848.6417397866372 1055.8921354154074,847.4430728300296 1066.1990306946689,846.7590274942162 1076.5571880252407,845.8688100608475 1086.5781899744488,844.0768278244803 1095.825380355635,840.7148228917979 1103.9023399759883,835.2892014897969 1110.7361397722857,827.9064315569764 1116.3514555531726,818.8165262339971 1120.788159722687,808.2642118062971 1124.101036197605,796.4882991506207 1126.3193128496077,783.665789023332 1127.318181818182,769.7511093163943 1126.9258529936856,754.6517321455591 1124.962162390892,738.2852220836186 1121.2389872986228,720.5796256508385 1115.5867430208823,701.5038340875095 1107.9371834864548,681.1542302918564 1098.2527066881457,659.6583964972621 1086.501322535236,637.1440347960281 1072.6566197112875,613.738768223317 1056.6702531666872,589.5434131245596 1038.38580839723,564.5560605203523 1017.614975700584,538.7584584317245 994.1645421646043,512.1437616986273 967.8368633826648,484.71679287311474 938.7984392021028,456.7923638869181 908.7258559888103,429.83797876616757 879.7709793857937,405.48684335955807 854.197081808819,385.2221091586324 834.3722652929758,370.37208434891215 822.0579024603849,361.6302706999245 817.4194392421045,358.5015877541341 817.4194392421045,358.5015877541341 817.4194392421045,358.5015877541341 818.8107143809624,359.3048408300705 820.0523189033825,359.9610167817664 820.2272433826608,359.99452369792607 819.690282477949,359.6586401746092 818.8117135042186,359.1806452839887 817.9761409320969,358.76118201548525 817.4961328318907,358.53573394028626 817.4194392421045,358.5015877541341 817.4291218611672,358.50549978617016 817.6193824714074,358.5783387689123 817.8042448438713,358.6416455391561 817.8891432776066,358.6633198236311 817.879495101525,358.6510689642271 817.8067525766284,358.62000132383616 817.7032292074451,358.58296321722014 817.6019999223618,358.5505047409787 817.5298802159687,358.52912378157976 817.4863319830482,358.5170311602352 817.4637707809867,358.51101071361234 817.4544451730906,358.50839221782076 817.4504608051168,358.507057692677 817.4453276918548,358.50568808175876 817.4385855221694,358.50427858831586 817.4313023546916,358.50304436120405 817.4245576985659,358.5021257255862 817.4194392421045,358.5015877541341 817.4194392421045,358.5015877541341 817.4194392421045,358.5015877541341 817.4194392421045,358.5015877541341 817.4194392421045,358.5015877541341 817.4194392421045,358.5015877541341 817.4201630651924,358.501575119755 817.4203383374199,358.5015563570339 817.4201516511208,358.50155041835956 817.4197898060778,358.5015632403132 817.4194392421045,358.5015877541341 817.4194392421045,358.5015877541341 817.4194392421045,358.5015877541341 817.4194392421045,358.5015877541341 817.4194392421045,358.5015877541341 817.4194392421045,358.5015877541341 817.4194902632333,358.50157783663144 817.4195024221123,358.50157432480887 817.4194891482283,358.5015762323976 817.4194637234631,358.5015816502457 817.4194392421045,358.5015877541341 817.4194392421045,358.5015877541341 817.4194392421045,358.5015877541341 817.4194392421045,358.5015877541341 817.4194392421045,358.5015877541341 817.4194392421045,358.5015877541341 817.41944272596,358.5015864168073 817.4194435418826,358.501586016911 817.4194426271218,358.5015863172795 817.4194408969843,358.50158701733415 817.4194392421045,358.5015877541341 817.4194392421045,358.5015877541341 817.4194392421045,358.5015877541341 817.4194392421045,358.5015877541341 817.4194392421045,358.5015877541341 817.4194392421045,358.5015877541341 817.419439471761,358.5015876161426 817.4194395244662,358.501587577695 817.4194394635318,358.50158761033754 817.4194393499284,358.501587681406 817.4194392421045,358.5015877541341 817.4194392421045,358.5015877541341 817.4194392421045,358.5015877541341 817.4194392421045,358.5015877541341 817.4194392421045,358.5015877541341 817.4194392421045,358.5015877541341 817.4194392566221,358.5015877415142 817.4194392598695,358.5015877381386 817.4194392559681,358.5015877412062 817.4194392488217,358.5015877476476 817.4194392421045,358.5015877541341 817.4194392421045,358.5015877541341 817.4194392421045,358.5015877541341 817.4194392421045,358.5015877541341 817.4194392421045,358.5015877541341 817.4194392421045,358.5015877541341 817.4194392429737,358.5015877530608 817.4194392431612,358.5015877527817 817.4194392429235,358.50158775304726 817.4194392424986,358.5015877535917 817.4194392421045,358.5015877541341 817.4194392421045,358.5015877541341 817.4194392421045,358.5015877541341 817.4194392421045,358.5015877541341 817.4194392421045,358.5015877541341 817.4194392421045,358.5015877541341 817.4194392421525,358.5015877540475 817.4194392421623,358.5015877540252 817.4194392421489,358.50158775404714 817.4194392421257,358.5015877540908 817.4194392421045,358.5015877541341 817.4194392421045,358.5015877541341 817.4194392421045,358.5015877541341 817.4194392421045,358.5015877541341 817.4194392421045,358.5015877541341 817.4194392421045,358.5015877541341 817.4194392421068,358.5015877541273 817.4194392421072,358.5015877541257 817.4194392421065,358.5015877541275 817.4194392421055,358.5015877541307 817.4194392421045,358.5015877541341 817.4194392421045,358.5015877541341 817.4194392421045,358.5015877541341 817.4194392421045,358.5015877541341 817.4194392421045,358.5015877541341 817.4194392421045,358.5015877541341 817.4194392421045,358.50158775413354 817.4194392421047,358.5015877541334 817.4194392421045,358.50158775413354 817.4194392421045,358.5015877541339 817.4194392421045,358.5015877541341 817.4194392421045,358.5015877541341 817.4194392421045,358.5015877541341 817.4194392421045,358.5015877541341 817.4194392421045,358.5015877541341 817.4194392421045,358.5015877541341" stroke="black" stroke-width="9.0" /><polyline fill="none" points="817.4194392421045,837.0671703488007 809.0980010006099,835.2364653220916 800.8341843008043,833.4411490149366 792.6116773993909,831.8618823915634 784.4016287837745,830.6782756460842 776.1626941452026,830.0683420534159 767.8475395486115,830.1467081261916 759.4307810942644,830.781308603537 750.9046662414135,831.7787896545098 742.274744109783,832.9465204656243 733.5598114422482,834.0931702953665 724.7861404983755,835.0585968187629 715.9662051546413,835.801527545979 707.1085618178182,836.3104919885471 698.222509942441,836.5743591252452 689.3180799428231,836.5823691776878 680.4008887930607,836.3420596642737 671.4542399260826,835.9322421445041 662.4501849555594,835.44791044016 653.3541159696725,834.981884251331 644.1248644667951,834.6245188632876 634.728987907275,834.4264847504732 625.1885606509225,834.2897081758329 615.547642388066,834.0817379658131 605.8592544021978,833.6735427985376 596.1852222028213,832.9398972483913 586.5521942997248,831.8495869543236 576.8075389092819,830.72903109689 566.7290978684151,829.9815473823381 556.0664833889871,829.9948010945023 544.541769298254,831.1395763478938 531.9217189601686,833.6495858772074 518.2495686838802,837.2734616572023 503.6596778328798,841.6492514030222 488.309706722475,846.4268315454051 472.38005800850067,851.268892310438 456.0597624288114,855.8705137072571 439.50270561647005,860.0140321157321 422.8631312526852,863.5106325941867 406.30807443894423,866.1818431688008 390.016911407982,867.8600857842965 374.1558946218405,868.4179655580864 358.7986940093682,867.851526969902 343.99411506260185,866.1880919375246 329.79002704629175,863.4566259787749 316.23331499591507,859.6877120003238 303.3347632830009,854.9473886281725 290.9591161025367,849.4337813346895 278.92233224210685,843.3665607396186 267.0260678448723,836.9512460917091 255.05831473809275,830.3785999138911 242.77193382973624,823.8419623524119 229.81648263798937,817.5873318417795 215.8011444696021,811.85349039589 200.3173476801795,806.8525013949309 182.93992666238242,802.7689253020782 163.4727169138069,799.5942215257601 142.70570870463834,796.6658075997835 121.72079118444488,793.2223510901193 101.6499415949465,788.5792911914516 83.67184297034593,782.1309599788752 76.39024430040679,769.2607779010754 69.334370301758,756.2654745948438 62.506370261971405,743.1490085554552 55.908324056003224,729.9153751855275 53.681818181818265,714.6382892756257 63.66925158714361,694.0927928548147 80.50902524978264,671.3015002964688 105.00045496922314,646.3375411832225 137.94949867384696,619.32566082594 180.16656250082934,590.4426665884672 231.93462885514734,560.1001751320272 291.3932307730291,529.4178636204537 356.08614144990827,499.54533126771355 423.4918853738998,471.45849614909594 491.0313697222661,445.95700740112795 556.2217223974078,423.625492842221 617.1273590748341,404.74265799912814 671.936861232459,389.4248643187551 718.8234430549854,377.6667079727275 755.9502121332758,369.34027097671685 782.1412684659961,364.08910108818145 798.8983599195005,361.1045557017221 808.4276278348372,359.6056433694972 812.9709871989639,358.96913890424446 814.7991881035924,358.73083002434487 815.8333576450441,358.61249738369884 816.5203729038906,358.5487058243481 816.9377853817077,358.51840747756785 817.163930859489,358.50604766954234 817.2776886992922,358.5015877541341 817.3461191987315,358.5003079480166 817.3879021795514,358.5004864556423 817.4096367239542,358.5010740259265 817.4179424240583,358.5014830864202 817.4194392421045,358.5015877541341 817.4194392421045,358.5015877541341 817.4194392421045,358.5015877541341 817.4194392421045,358.5015877541341 817.4194392421045,358.5015877541341 817.4194392421045,358.5015877541341 817.4193860361114,358.50157741193664 817.4193733565561,358.50157374972844 817.4193871988641,358.5015757390054 817.4194137123872,358.5015813888607 817.4194392421045,358.5015877541341 817.4194392421045,358.5015877541341 817.4194392421045,358.5015877541341 817.4194392421045,358.5015877541341 817.4194392421045,358.5015877541341 817.4194392421045,358.5015877541341 817.4194356090608,358.50158635953926 817.419434758198,358.5015859425183 817.4194357121314,358.50158625574943 817.4194375163582,358.5015869857823 817.4194392421045,358.5015877541341 817.4194392421045,358.5015877541341 817.4194392421045,358.5015877541341 817.4194392421045,358.5015877541341 817.4194392421045,358.5015877541341 817.4194392421045,358.5015877541341 817.4194390026133,358.5015876102333 817.4194389476515,358.50158757013946 817.4194390111951,358.5015876041798 817.4194391296633,358.50158767829146 817.4194392421045,358.5015877541341 817.4194392421045,358.5015877541341 817.4194392421045,358.5015877541341 817.4194392421045,358.5015877541341 817.4194392421045,358.5015877541341 817.4194392421045,358.5015877541341 817.4194392269652,358.5015877409736 817.4194392235788,358.5015877374535 817.4194392276474,358.50158774065255 817.4194392350998,358.5015877473696 817.4194392421045,358.5015877541341 817.4194392421045,358.5015877541341 817.4194392421045,358.5015877541341 817.4194392421045,358.5015877541341 817.4194392421045,358.5015877541341 817.4194392421045,358.5015877541341 817.4194392411981,358.50158775301486 817.4194392410026,358.5015877527237 817.4194392412504,358.50158775300065 817.4194392416936,358.5015877535685 817.4194392421045,358.5015877541341 817.4194392421045,358.5015877541341 817.4194392421045,358.5015877541341 817.4194392421045,358.5015877541341 817.4194392421045,358.5015877541341 817.4194392421045,358.5015877541341 817.4194392420544,358.5015877540437 817.4194392420442,358.50158775402053 817.4194392420583,358.5015877540434 817.4194392420825,358.501587754089 817.4194392421045,358.5015877541341 817.4194392421045,358.5015877541341 817.4194392421045,358.5015877541341 817.4194392421045,358.5015877541341 817.4194392421045,358.5015877541341 817.4194392421045,358.5015877541341 817.4194392421022,358.5015877541272 817.4194392421017,358.50158775412535 817.4194392421024,358.5015877541272 817.4194392421034,358.5015877541307 817.4194392421045,358.5015877541341 817.4194392421045,358.5015877541341 817.4194392421045,358.5015877541341 817.4194392421045,358.5015877541341 817.4194392421045,358.5015877541341 817.4194392421045,358.5015877541341 817.4194392421045,358.50158775413354 817.4194392421043,358.5015877541334 817.4194392421045,358.50158775413354 817.4194392421045,358.5015877541339 817.4194392421045,358.5015877541341 817.4194392421045,358.5015877541341 817.4194392421045,358.5015877541341 817.4194392421045,358.5015877541341 817.4194392421045,358.5015877541341 817.4194392421045,358.5015877541341" stroke="black" stroke-width="9.0" /><polyline fill="none" points="817.4194392421045,837.0671703488007 825.9143361562335,845.1739060218346 834.6945147341955,853.1950250271396 843.7642503012952,861.1905285869249 853.1323536725355,869.2200580782365 862.8121541602331,877.3426934326784 872.8169325715869,885.5735291411933 883.1402320607565,893.7544919903798 893.7589411244759,901.685368069852 904.6363906565407,909.1677468523701 915.7224397642567,916.0056074292862 926.9538875953984,922.0074739171638 938.2557358757053,926.9916672144429 949.5407993745791,930.7820716455561 960.7096153367613,933.2070939975773 971.6506223475401,934.1001992150777 981.67271310327,931.3208274657187 991.6447707206246,928.3669694269189 1001.5637576142523,925.2395248724515 1011.4266523646575,921.9394464522243 1020.8964666896572,917.5501260440332 1029.6367162602105,911.3464954530972 1037.9796310191532,904.4072188084841 1045.8647411777622,896.6849927805748 1053.2276780770524,888.1355637670152 1060.000292080196,878.717905448532 1066.112378944604,868.3976773998171 1071.4970734199183,857.1570218054059 1076.0869647511515,844.9844487046463 1079.8127211731082,831.8715990200631 1082.603204723309,817.8133429100102 1084.4031110506164,802.8370348676445 1085.229705451151,787.0876040001469 1085.127323590166,770.7355793986402 1084.1506687174303,753.9468976576671 1082.3645869830882,736.8824723964152 1079.8484209490284,719.7040935832043 1076.7104113827522,702.5923296263028 1073.0751471338376,685.7259717925559 1069.078826269025,669.2750492090323 1064.8688692186927,653.4003349141225 1060.5515979526374,638.1931419141754 1056.0277893074463,623.5030074794475 1051.133943107075,609.1297087778713 1045.6926173457603,594.8853835057834 1039.5129837449601,580.5951322569897 1032.4445344376036,566.1489084862501 1024.5441682397097,551.6485222565758 1015.9293944083574,537.240754219211 1006.726657210393,523.0638417068529 997.070954879623,509.2471082660152 987.093333485153,495.90079816217303 976.882788890032,483.08801078867486 966.5199172068474,470.8568567967285 956.0884764298211,459.2505405885671 945.6751803164674,448.30722447307573 935.3716396847792,438.0613515330232 925.2808035026857,428.5475767175982 915.5106151928724,419.7957572985142 906.1716486745926,411.82929525380257 897.3768398694058,404.66501453000933 889.2226212869105,398.30274148468106 881.7314511861664,392.6968910739175 874.9049861861287,387.7919369002211 868.7423645358806,383.53345096043984 863.2402706491679,379.86819234227687 858.3645992849798,376.7315475297711 853.9635852371456,374.0136574089163 849.8502910324394,371.6045024036025 845.8311530414944,369.40782285543924 841.7065927997708,367.341388724177 837.3491619366735,365.36394160308 832.9403772021931,363.54464620137594 828.7444983932609,361.96400580597674 825.0311927510647,360.6842229503619 822.0747365886633,359.74897091867126 820.0714008510563,359.1627960457108 818.8904649703745,358.841200803119 818.3146892921633,358.6918790266095 818.122044836064,358.63816044668977 818.0864028468684,358.61919143280454 818.0207744279728,358.5968298909953 817.9065328564435,358.57004429727147 817.7676897823069,358.544347543797 817.628538480965,358.52356496972914 817.5135800015721,358.5098240033633 817.441503842079,358.50313066126716 817.4194392421045,358.5015877541341 817.4194392421045,358.5015877541341 817.4194392421045,358.5015877541341 817.4194392421045,358.5015877541341 817.4264760448601,358.50146492628517 817.4281799917425,358.5012825204308 817.4263650804949,358.5012247863244 817.4228473256198,358.501349437719 817.4194392421045,358.5015877541341 817.4194392421045,358.5015877541341 817.4194392421045,358.5015877541341 817.4194392421045,358.5015877541341 817.4194392421045,358.5015877541341 817.4194392421045,358.5015877541341 817.4199352550477,358.5014913389849 817.4200534602195,358.50145719804345 817.419924415284,358.5014757430798 817.4196772429294,358.50152841386375 817.4194392421045,358.5015877541341 817.4194392421045,358.5015877541341 817.4194392421045,358.5015877541341 817.4194392421045,358.5015877541341 817.4194392421045,358.5015877541341 817.4194392421045,358.5015877541341 817.4194731111592,358.50157475302206 817.4194810433279,358.50157086534364 817.4194721502826,358.5015737854412 817.4194553303769,358.5015805911737 817.4194392421045,358.5015877541341 817.4194392421045,358.5015877541341 817.4194392421045,358.5015877541341 817.4194392421045,358.5015877541341 817.4194392421045,358.5015877541341 817.4194392421045,358.5015877541341 817.4194414747607,358.50158641261896 817.4194419871436,358.50158603884336 817.4194413947578,358.5015863561847 817.4194402903387,358.5015870470912 817.4194392421045,358.5015877541341 817.4194392421045,358.5015877541341 817.4194392421045,358.5015877541341 817.4194392421045,358.5015877541341 817.4194392421045,358.5015877541341 817.4194392421045,358.5015877541341 817.4194393832415,358.50158763144555 817.4194394148101,358.5015875986294 817.4194393768812,358.50158762845274 817.419439307406,358.50158769107315 817.4194392421045,358.5015877541341 817.4194392421045,358.5015877541341 817.4194392421045,358.5015877541341 817.4194392421045,358.5015877541341 817.4194392421045,358.5015877541341 817.4194392421045,358.5015877541341 817.4194392505542,358.5015877436997 817.4194392523771,358.50158774098577 817.4194392500672,358.50158774356737 817.4194392459355,358.5015877488612 817.4194392421045,358.5015877541341 817.4194392421045,358.5015877541341 817.4194392421045,358.5015877541341 817.4194392421045,358.5015877541341 817.4194392421045,358.5015877541341 817.4194392421045,358.5015877541341 817.4194392425719,358.5015877532909 817.419439242667,358.50158775307636 817.4194392425359,358.5015877532877 817.4194392423097,358.50158775371347 817.4194392421045,358.5015877541341 817.4194392421045,358.5015877541341 817.4194392421045,358.5015877541341 817.4194392421045,358.5015877541341 817.4194392421045,358.5015877541341 817.4194392421045,358.5015877541341 817.419439242127,358.50158775406874 817.419439242131,358.50158775405225 817.4194392421244,358.50158775406896 817.4194392421139,358.50158775410193 817.4194392421045,358.5015877541341 817.4194392421045,358.5015877541341 817.4194392421045,358.5015877541341 817.4194392421045,358.5015877541341 817.4194392421045,358.5015877541341 817.4194392421045,358.5015877541341 817.4194392421052,358.5015877541291 817.4194392421055,358.50158775412785 817.419439242105,358.5015877541291 817.4194392421047,358.5015877541316 817.4194392421045,358.5015877541341 817.4194392421045,358.5015877541341 817.4194392421045,358.5015877541341 817.4194392421045,358.5015877541341 817.4194392421045,358.5015877541341 817.4194392421045,358.5015877541341" stroke="black" stroke-dasharray="8.0,8.0" stroke-width="7.0" /><polyline fill="none" points="817.4194392421045,837.0671703488007 809.199487113104,829.4223298312454 801.2447932156953,821.6828481278952 793.5530320309828,813.8997659945336 786.1186385253636,806.1238923720954 778.9328193025991,798.4056666191802 771.9845029247803,790.786130831551 765.2644039233917,783.2702633529824 758.7644061974944,775.8538339451981 752.4769467828938,768.5323478852484 746.3950222329574,761.3010726870564 740.5136416918241,754.1476173928291 734.8352123739106,747.0298280462383 729.3670036989537,739.8985879812525 724.1199317522739,732.7054735026317 719.1085249311811,725.4029149010504 714.3454729130614,717.9632267140108 709.8227198471338,710.4345991274773 705.5230943805145,702.8831262047345 701.4251130726067,695.3735715642671 697.503041073837,687.9691839437787 693.7312936022067,680.720223392886 690.0990838106553,673.630525654804 686.6002115071824,666.692374908687 683.2291248112176,659.8979686676756 679.9809185143878,653.2394465993193 676.8582820736547,646.694668273438 673.894329112513,640.1854766982544 671.1351488415341,633.6223241748951 668.6332153546954,626.9190409735261 666.4472361168395,619.9931140977019 664.6278863825084,612.7894342548345 663.1720651639987,605.3489865052384 662.0594422654815,597.7350038767754 661.2658181558999,590.0088514684692 660.7632128722054,582.2298651880469 660.5147411157693,574.4623774922092 660.4580575115958,566.7963765739901 660.5194194117895,559.324455226874 660.6188624483959,552.1341741797407 660.6704201631619,545.3077943770822 660.6046086362544,538.8964146668184 660.4389790761702,532.8460513980664 660.2176186335165,527.0799013336972 659.9896340938317,521.5249232793133 659.8089768108331,516.1120501854055 659.7221643248679,510.78807595937474 659.7301866352545,505.5491947317943 659.821871073369,500.403075504768 659.9855888911881,495.35674594753027 660.2092815015494,490.416573131556 660.499541948595,485.57281507301866 660.9409372673938,480.7559922042785 661.6424434930981,475.8879738136436 662.7186120652444,470.8983178157305 664.2892319378481,465.7245132361901 666.4672931974908,460.32009589686777 669.3224757910925,454.6768803487155 672.9140534554623,448.7985745180406 677.3021508137963,442.69254841563065 682.5475904869431,436.36988593902913 688.6778014480852,429.8642428822128 695.582266970664,423.2835613778234 703.1099341281897,416.7451897287873 711.102945101093,410.35560664877687 719.3971185965269,404.2101465412918 727.84370134149,398.3832757751668 736.3749457928657,392.9029342158003 744.9429259036397,387.78399989996547 753.4987399206844,383.03844531793993 761.9926323722326,378.67529563518895 770.353522046834,374.70768268927065 778.4263753664014,371.171202223818 786.0326002064229,368.09750744134635 792.9908889572482,365.50636182909363 799.1177310463198,363.40551568530464 804.2684935699485,361.78048677407185 808.4609959156741,360.56980736020796 811.7563918835929,359.70530562923386 814.2187627798556,359.12373623431597 815.9148934360092,358.76687977346046 816.9285706547385,358.579333700617 817.4042332039883,358.50372482342345 817.4194392421045,358.5015877541341 817.3906079522118,358.50461804481006 817.2311577231696,358.51806025259225 817.158965930479,358.51980182241255 817.1747217897357,358.51441285236456 817.24550243738,358.50766176119805 817.3381633314955,358.5030064304309 817.4194392421045,358.5015877541341 817.4194392421045,358.5015877541341 817.4194392421045,358.5015877541341 817.4194392421045,358.5015877541341 817.4194392421045,358.5015877541341 817.4194392421045,358.5015877541341 817.407704726855,358.5003544068825 817.4048855457867,358.4998007849222 817.407925142044,358.49996955290067 817.4137820797511,358.500691747641 817.4194392421045,358.5015877541341 817.4194392421045,358.5015877541341 817.4194392421045,358.5015877541341 817.4194392421045,358.5015877541341 817.4194392421045,358.5015877541341 817.4194392421045,358.5015877541341 817.4186249178944,358.50135425042436 817.4184324870486,358.5012799582248 817.4186453006944,358.5013297869324 817.4190504175475,358.5014538711024 817.4194392421045,358.5015877541341 817.4194392421045,358.5015877541341 817.4194392421045,358.5015877541341 817.4194392421045,358.5015877541341 817.4194392421045,358.5015877541341 817.4194392421045,358.5015877541341 817.4193845756635,358.5015610915293 817.419371895874,358.50155343951576 817.4193863218455,358.5015596159333 817.4194134190398,358.50157344017555 817.4194392421045,358.5015877541341 817.4194392421045,358.5015877541341 817.4194392421045,358.5015877541341 817.4194392421045,358.5015877541341 817.4194392421045,358.5015877541341 817.4194392421045,358.5015877541341 817.419435709271,358.50158518738044 817.4194349081343,358.50158448825323 817.4194358511334,358.5015851048172 817.4194375947161,358.50158642010524 817.4194392421045,358.5015877541341 817.4194392421045,358.5015877541341 817.4194392421045,358.5015877541341 817.4194392421045,358.5015877541341 817.4194392421045,358.5015877541341 817.4194392421045,358.5015877541341 817.4194390243126,358.5015875286041 817.4194389763838,358.5015874691835 817.4194390353725,358.501587524535 817.4194391422561,358.50158763927163 817.4194392421045,358.5015877541341 817.4194392421045,358.5015877541341 817.4194392421045,358.5015877541341 817.4194392421045,358.5015877541341 817.4194392421045,358.5015877541341 817.4194392421045,358.5015877541341 817.4194392295171,358.5015877354725 817.419439226869,358.50158773067346 817.4194392303498,358.5015877353227 817.4194392364767,358.5015877447678 817.4194392421045,358.5015877541341 817.4194392421045,358.5015877541341 817.4194392421045,358.5015877541341 817.4194392421045,358.5015877541341 817.4194392421045,358.5015877541341 817.4194392421045,358.5015877541341 817.4194392414472,358.50158775265766 817.4194392413198,358.50158775228533 817.4194392415079,358.50158775265743 817.4194392418234,358.50158775340174 817.4194392421045,358.5015877541341 817.4194392421045,358.5015877541341 817.4194392421045,358.5015877541341 817.4194392421045,358.5015877541341 817.4194392421045,358.5015877541341 817.4194392421045,358.5015877541341 817.4194392420764,358.50158775402144 817.4194392420721,358.50158775399336 817.4194392420807,358.501587754022 817.4194392420937,358.5015877540786 817.4194392421045,358.5015877541341 817.4194392421045,358.5015877541341 817.4194392421045,358.5015877541341 817.4194392421045,358.5015877541341 817.4194392421045,358.5015877541341 817.4194392421045,358.5015877541341 817.4194392421037,358.5015877541248 817.4194392421037,358.5015877541216 817.4194392421042,358.5015877541232 817.4194392421043,358.50158775412785 817.4194392421045,358.5015877541341" stroke="black" stroke-dasharray="8.0,8.0" stroke-width="7.0" /></g><rect fill="white" height="111.60000000000001" stroke="none" width="1181" x="0" y="0" /><line stroke="black" stroke-width="3.0" x1="0" x2="1181" y1="111.60000000000001" y2="111.60000000000001" /><text font-family="Arial" font-size="62.0" text-anchor="start" x="40.0" y="77.5">LED</text><text font-family="Arial" font-size="62.0" text-anchor="middle" x="590.5" y="77.5" /><text font-family="Arial" font-size="62.0" text-anchor="end" x="1141.0" y="77.5">cd / klm</text><rect fill="none" height="1178.0" stroke="black" stroke-width="3.0" width="1178.0" x="1.5" y="1.5" /></svg>