<?xml version="1.0" encoding="utf-8" ?>
<svg baseProfile="full" height="1181" version="1.1" width="1181" xmlns="http://www.w3.org/2000/svg" xmlns:ev="http://www.w3.org/2001/xml-events" xmlns:xlink="http://www.w3.org/1999/xlink"><defs><clipPath id="plot_clip"><rect height="1069.4" width="1181.0" x="0" y="111.60000000000001" /></clipPath></defs><g clip-path="url(#plot_clip)" id="grid"><circle cx="590.5000000000001" cy="162.76525997566478" fill="none" r="217.40598126764422" stroke="black" stroke-width="3.0" /><text font-family="Arial" font-size="42.0" text-anchor="start" x="598.5000000000001" y="420.17124124330894">80</text><circle cx="590.5000000000001" cy="162.76525997566478" fill="none" r="434.81196253528844" stroke="black" stroke-width="3.0" /><text font-family="Arial" font-size="42.0" text-anchor="start" x="598.5000000000002" y="637.5772225109531">160</text><circle cx="590.5000000000001" cy="162.76525997566478" fill="none" r="652.2179438029326" stroke="black" stroke-width="3.0" /><text font-family="Arial" font-size="42.0" text-anchor="start" x="598.5000000000002" y="854.9832037785974">240</text><circle cx="590.5000000000001" cy="162.76525997566478" fill="none" r="869.6239250705769" stroke="black" stroke-width="3.0" /><text font-family="Arial" font-size="42.0" text-anchor="start" x="598.5000000000002" y="1072.3891850462414">320</text><circle cx="590.5000000000001" cy="162.76525997566478" fill="none" r="1087.029906338221" stroke="black" stroke-width="3.0" /><text font-family="Arial" font-size="42.0" text-anchor="start" x="598.5000000000002" y="1289.7951663138856">400</text><line stroke="black" stroke-width="3.0" x1="-4245.152538345576" x2="5426.152538345576" y1="162.76525997566443" y2="162.76525997566512" /><line stroke="black" stroke-width="3.0" x1="-3597.2979420819734" x2="4778.297942081974" y1="-2255.0610091971243" y2="2580.591529148454" /><line stroke="black" stroke-width="3.0" x1="-1827.3262691727878" x2="3008.3262691727878" y1="-4025.0326821063086" y2="4350.563202057638" /><line stroke="black" stroke-width="3.0" x1="590.5000000000001" x2="590.5000000000001" y1="-4672.887278369912" y2="4998.417798321241" /><line stroke="black" stroke-width="3.0" x1="3008.326269172788" x2="-1827.326269172788" y1="-4025.0326821063086" y2="4350.563202057638" /><line stroke="black" stroke-width="3.0" x1="4778.297942081973" x2="-3597.297942081973" y1="-2255.0610091971243" y2="2580.591529148454" /><line stroke="black" stroke-width="3.0" x1="5426.152538345576" x2="-4245.152538345576" y1="162.76525997566443" y2="162.76525997566512" /></g><g clip-path="url(#plot_clip)" id="curves"><polyline fill="none" points="590.5000000000002,1129.8957676447799 607.3081081179579,1125.701129139129 623.9775435738646,1121.4366770466877 640.5264405144849,1117.3266094330525 656.9884129827282,1113.5938639800881 673.4124976511783,1110.4594446812087 689.8540208713301,1108.0556245379332 706.3353240519147,1106.1682676511546 722.8518554803484,1104.4976451619063 739.3782809202933,1102.7457316383814 755.8685848364283,1100.6171086944091 772.2657998530728,1097.8692355758444 788.5378425444893,1094.4600568266221 804.6608748298369,1090.3979225166909 820.611455406036,1085.691897906377 836.3665586152068,1080.3517486097262 851.9087444042724,1074.4058909574403 867.2441330094115,1067.954532079622 882.3913013472162,1061.1143127766525 897.3766729259179,1053.999831592081 912.2344173724371,1046.7233067678237 926.9972842668392,1039.370655518369 941.6660353365777,1031.9316974035498 956.2308053415725,1024.3730429942343 970.679361235138,1016.6620859891988 984.9971396209776,1008.7671060140763 999.141924236364,1000.6053670678377 1012.9605701676436,991.8908131483773 1026.2527065223014,982.2969074784502 1038.7948175114643,971.510519207034 1050.340826128726,959.2329342250644 1060.7277134378694,945.3555954829089 1070.2154437712738,930.4704487570847 1079.2142357831046,915.3191889754859 1088.1844159813559,900.612749746681 1097.6350340535457,887.0291480083305 1107.761554764591,874.7147121084571 1117.292874565757,861.8430162346832 1124.454720771908,846.19613679766 1127.3181818181818,825.6805062792536 1123.8051803204723,798.3336245716904 1112.3049967695324,763.0332429893957 1093.610017155067,721.5255413640117 1069.2546914780526,676.1668108942488 1040.9243736191338,629.1933529284073 1010.4498612722298,582.7151212478944 979.5558460194137,538.4721232496819 949.0845557584073,497.150767876351 919.6718463700084,459.1529217162074 891.9829892135165,424.84042417616706 866.7109748267302,394.5337870798909 844.3960589355457,368.36623459280804 824.8678526683783,345.87349458071265 807.7461435415537,326.47197131061534 792.6159371865687,309.6110839293668 779.0289954740632,294.7746837777079 766.583854370229,281.5353194268257 755.1700428499895,269.70323617460724 744.7465673708044,259.14921256289756 735.2656245890043,249.74922278012525 726.6728610367895,241.38469795157653 718.8909275330515,233.93351323165166 711.7683411829455,227.24478074457897 705.1278212638687,221.17105212970432 698.7832721237519,215.57854058696375 692.5403985017655,210.3474792382258 686.2748769561105,205.4069825284206 680.1703527451166,200.82806647659845 674.4940840745015,196.70107275676628 669.5198707081546,193.0981463936738 665.5272639455544,190.0729508102803 662.6879470977717,187.62156350812108 660.7211813134846,185.58150487715795 659.2231299079583,183.77602931439685 657.7795147653212,182.05735039071214 655.9668927409701,180.30706101658257 653.460245545969,178.4630122561574 650.3567522484134,176.58428009390684 646.8635752824389,174.74570774112942 643.1919155588245,173.00753081104767 639.556371848913,171.41522190829528 636.0963875494393,169.98701829850324 632.6402499751741,168.68768588174316 628.9359534949008,167.4846016484206 624.7294036020256,166.36291526485593 619.7651949284892,165.32563276778387 613.9269210734453,164.40342987998292 607.6577367918826,163.6644588584502 601.5434917220598,163.15090720447483 596.1718557248693,162.86426258560573 592.1305448595074,162.76525997566478 590.5000000000001,162.76525997566478 590.5000000000001,162.76525997566478 590.5000000000001,162.76525997566478 590.5000000000001,162.76525997566478 590.5000000000001,162.76525997566478 590.9007509127642,162.7231393574466 590.9970300825747,162.70423235522014 590.8932234106604,162.709996029306 590.6932003946101,162.73466003929389 590.5000000000001,162.76525997566478 590.5000000000001,162.76525997566478 590.5000000000001,162.76525997566478 590.5000000000001,162.76525997566478 590.5000000000001,162.76525997566478 590.5000000000001,162.76525997566478 590.5278103665576,162.75728548137806 590.5343821622794,162.75474829376105 590.5271142640344,162.75645001723115 590.513278929109,162.7606876736976 590.5000000000001,162.76525997566478 590.5000000000001,162.76525997566478 590.5000000000001,162.76525997566478 590.5000000000001,162.76525997566478 590.5000000000001,162.76525997566478 590.5000000000001,162.76525997566478 590.5018669391716,162.76434940858985 590.5022999725838,162.7640880811001 590.5018073044884,162.76429901482243 590.500881895549,162.7647711329796 590.5000000000001,162.76525997566478 590.5000000000001,162.76525997566478 590.5000000000001,162.76525997566478 590.5000000000001,162.76525997566478 590.5000000000001,162.76525997566478 590.5000000000001,162.76525997566478 590.500120651446,162.76517231725825 590.5001480114445,162.76514844104145 590.5001158066369,162.7651694976039 590.5000562607338,162.7652144166209 590.5000000000001,162.76525997566478 590.5000000000001,162.76525997566478 590.5000000000001,162.76525997566478 590.5000000000001,162.76525997566478 590.5000000000001,162.76525997566478 590.5000000000001,162.76525997566478 590.5000074379126,162.76525227348088 590.5000090747552,162.76525024418117 590.5000070602017,162.76525213451634 590.5000034099705,162.7652560529425 590.5000000000001,162.76525997566478 590.5000000000001,162.76525997566478 590.5000000000001,162.76525997566478 590.5000000000001,162.76525997566478 590.5000000000001,162.76525997566478 590.5000000000001,162.76525997566478 590.5000004298793,162.76525933834273 590.5000005203137,162.7652591744519 590.5000004014403,162.76525933322614 590.5000001921994,162.76525965579128 590.5000000000001,162.76525997566478 590.5000000000001,162.76525997566478 590.5000000000001,162.76525997566478 590.5000000000001,162.76525997566478 590.5000000000001,162.76525997566478 590.5000000000001,162.76525997566478 590.5000000224495,162.76525992524262 590.5000000268005,162.76525991252686 590.500000020375,162.765259925235 590.5000000096019,162.76525995065117 590.5000000000001,162.76525997566478 590.5000000000001,162.76525997566478 590.5000000000001,162.76525997566478 590.5000000000001,162.76525997566478 590.5000000000001,162.76525997566478 590.5000000000001,162.76525997566478 590.5000000009594,162.76525997181716 590.5000000011091,162.76525997086117 590.5000000008134,162.7652599718383 590.5000000003682,162.76525997377098 590.5000000000001,162.76525997566478 590.5000000000001,162.76525997566478 590.5000000000001,162.76525997566478 590.5000000000001,162.76525997566478 590.5000000000001,162.76525997566478 590.5000000000001,162.76525997566478 590.5000000000225,162.76525997534407 590.5000000000225,162.76525997523663 590.5000000000132,162.76525997528984 590.5000000000039,162.76525997545048 590.5000000000001,162.76525997566478" stroke="black" stroke-width="9.0" /><polyline fill="none" points="590.5000000000002,1129.8957676447799 573.6918918820421,1125.701129139129 557.0224564261358,1121.4366770466877 540.4735594855156,1117.3266094330525 524.0115870172723,1113.5938639800881 507.5875023488221,1110.4594446812087 491.1459791286703,1108.0556245379332 474.6646759480857,1106.1682676511548 458.1481445196516,1104.4976451619061 441.6217190797072,1102.7457316383814 425.1314151635717,1100.6171086944091 408.7342001469277,1097.8692355758444 392.4621574555107,1094.460056826622 376.3391251701635,1090.3979225166909 360.3885445939644,1085.691897906377 344.6334413847937,1080.3517486097264 329.09125559572794,1074.4058909574403 313.7558669905886,1067.9545320796217 298.60869865278414,1061.1143127766527 283.62332707408217,1053.999831592081 268.76558262756333,1046.7233067678237 254.00271573316084,1039.370655518369 239.33396466342268,1031.93169740355 224.76919465842803,1024.3730429942343 210.3206387648624,1016.662085989199 196.00286037902285,1008.7671060140764 181.85807576363598,1000.6053670678376 168.0394298323568,991.8908131483776 154.74729347769872,982.29690747845 142.2051824885361,971.5105192070342 130.65917387127405,959.2329342250642 120.27228656213114,945.355595482909 110.78455622872644,930.4704487570848 101.78576421689591,915.3191889754861 92.81558401864451,900.612749746681 83.36496594645435,887.0291480083303 73.23844523540949,874.7147121084571 63.70712543424279,861.843016234683 56.545279228092426,846.19613679766 53.68181818181819,825.6805062792536 57.19481967952799,798.3336245716904 68.69500323046796,763.0332429893958 87.38998284493329,721.5255413640118 111.74530852194768,676.1668108942489 140.0756263808662,629.1933529284072 170.5501387277704,582.7151212478946 201.44415398058655,538.4721232496819 231.9154442415929,497.150767876351 261.32815362999173,459.1529217162074 289.0170107864837,424.84042417616706 314.2890251732701,394.5337870798909 336.6039410644546,368.36623459280827 356.13214733162187,345.87349458071253 373.25385645844653,326.47197131061534 388.3840628134316,309.61108392936694 401.97100452593696,294.7746837777081 414.4161456297711,281.5353194268257 425.8299571500107,269.70323617460724 436.2534326291958,259.14921256289756 445.73437541099594,249.74922278012525 454.32713896321076,241.38469795157653 462.1090724669487,233.93351323165166 469.23165881705467,227.24478074457897 475.8721787361315,221.17105212970455 482.2167278762483,215.57854058696387 488.45960149823475,210.34747923822567 494.7251230438897,205.4069825284206 500.82964725488364,200.82806647659845 506.5059159254987,196.70107275676628 511.4801292918456,193.0981463936738 515.4727360544458,190.0729508102803 518.3120529022285,187.62156350812108 520.2788186865155,185.58150487715807 521.7768700920419,183.77602931439685 523.220485234679,182.05735039071214 525.0331072590301,180.30706101658257 527.5397544540311,178.4630122561574 530.6432477515867,176.58428009390684 534.1364247175613,174.74570774112942 537.8080844411758,173.00753081104767 541.4436281510872,171.41522190829528 544.9036124505609,169.98701829850324 548.3597500248262,168.68768588174316 552.0640465050994,167.4846016484206 556.2705963979746,166.36291526485593 561.2348050715109,165.32563276778387 567.0730789265549,164.40342987998304 573.3422632081176,163.6644588584502 579.4565082779404,163.15090720447483 584.8281442751309,162.86426258560573 588.8694551404928,162.76525997566478 590.5000000000001,162.76525997566478 590.5000000000001,162.76525997566478 590.5000000000001,162.76525997566478 590.5000000000001,162.76525997566478 590.5000000000001,162.76525997566478 590.099249087236,162.7231393574466 590.0029699174255,162.70423235522014 590.1067765893398,162.709996029306 590.3067996053901,162.73466003929389 590.5000000000001,162.76525997566478 590.5000000000001,162.76525997566478 590.5000000000001,162.76525997566478 590.5000000000001,162.76525997566478 590.5000000000001,162.76525997566478 590.5000000000001,162.76525997566478 590.4721896334427,162.75728548137806 590.4656178377209,162.75474829376105 590.4728857359659,162.75645001723115 590.4867210708911,162.7606876736976 590.5000000000001,162.76525997566478 590.5000000000001,162.76525997566478 590.5000000000001,162.76525997566478 590.5000000000001,162.76525997566478 590.5000000000001,162.76525997566478 590.5000000000001,162.76525997566478 590.4981330608286,162.76434940858985 590.4977000274164,162.7640880811001 590.4981926955119,162.76429901482243 590.4991181044511,162.7647711329796 590.5000000000001,162.76525997566478 590.5000000000001,162.76525997566478 590.5000000000001,162.76525997566478 590.5000000000001,162.76525997566478 590.5000000000001,162.76525997566478 590.5000000000001,162.76525997566478 590.4998793485543,162.76517231725825 590.4998519885557,162.76514844104145 590.4998841933633,162.7651694976039 590.4999437392664,162.7652144166209 590.5000000000001,162.76525997566478 590.5000000000001,162.76525997566478 590.5000000000001,162.76525997566478 590.5000000000001,162.76525997566478 590.5000000000001,162.76525997566478 590.5000000000001,162.76525997566478 590.4999925620876,162.76525227348088 590.499990925245,162.76525024418117 590.4999929397984,162.76525213451634 590.4999965900296,162.7652560529425 590.5000000000001,162.76525997566478 590.5000000000001,162.76525997566478 590.5000000000001,162.76525997566478 590.5000000000001,162.76525997566478 590.5000000000001,162.76525997566478 590.5000000000001,162.76525997566478 590.499999570121,162.76525933834273 590.4999994796864,162.7652591744519 590.49999959856,162.76525933322614 590.4999998078008,162.76525965579128 590.5000000000001,162.76525997566478 590.5000000000001,162.76525997566478 590.5000000000001,162.76525997566478 590.5000000000001,162.76525997566478 590.5000000000001,162.76525997566478 590.5000000000001,162.76525997566478 590.4999999775507,162.76525992524262 590.4999999731997,162.76525991252686 590.4999999796253,162.765259925235 590.4999999903984,162.76525995065117 590.5000000000001,162.76525997566478 590.5000000000001,162.76525997566478 590.5000000000001,162.76525997566478 590.5000000000001,162.76525997566478 590.5000000000001,162.76525997566478 590.5000000000001,162.76525997566478 590.4999999990408,162.76525997181716 590.4999999988911,162.76525997086117 590.4999999991868,162.7652599718383 590.499999999632,162.76525997377098 590.5000000000001,162.76525997566478 590.5000000000001,162.76525997566478 590.5000000000001,162.76525997566478 590.5000000000001,162.76525997566478 590.5000000000001,162.76525997566478 590.5000000000001,162.76525997566478 590.4999999999777,162.76525997534407 590.4999999999777,162.76525997523663 590.499999999987,162.76525997528984 590.4999999999964,162.76525997545048 590.5000000000001,162.76525997566478" stroke="black" stroke-width="9.0" /><polyline fill="none" points="590.5000000000002,1129.8957676447799 607.3047558260454,1125.5090764640815 623.9587466107939,1120.8984024512454 640.4639513230503,1116.1342446297845 656.8270860631251,1111.2867815446218 673.0595878028658,1106.4256666568378 689.175251127421,1101.5975618138825 705.1800726818173,1096.759500281689 721.0738212490008,1091.8462742268127 736.8516116470672,1086.7929696874683 752.5039242483401,1081.5351702720006 768.0123115440767,1075.9869352139158 783.333373915037,1069.9749570086647 798.4063782341452,1063.30672140666 813.1569405012481,1055.793471657495 827.4971876799231,1047.2508056480729 841.3431704911528,1037.5593558853584 854.6751256290834,1026.843161377929 867.5005038206889,1015.2851503738492 879.8387382856994,1003.0659710379911 891.7211179605935,990.3634798352715 903.1888536406187,977.347573246481 914.2868990959832,964.1659572365608 925.0680203621108,950.9581222747129 935.5942607219531,937.85966002046 945.9367660482114,925.0018645695907 956.1340762883153,912.426211201895 966.0555282123588,899.8344850457758 975.5052424665239,886.8548087795378 984.2612313875119,873.1293255732168 992.0760231489975,858.3153351711838 998.737857052315,842.1871493865759 1004.2669726395765,824.9308332675622 1008.7587285104426,806.8272218185301 1012.3262313403667,788.1483660557178 1015.0999178613365,769.1567863321981 1017.1299001821068,749.9709413187376 1018.0753012360682,730.1768493337761 1017.4637291664593,709.2539123722261 1014.7851034615076,686.7137278004603 1009.4930578174533,662.1017419016481 1001.1788834148578,635.1972729689171 990.1179867836796,606.5859972484659 976.8006784447363,577.0220202011061 961.7650671277303,547.2214914379201 945.5953366179892,517.8605965936537 928.8199516450895,489.4770395725999 911.5964309123518,462.192525906392 893.9868854494769,436.0260790257289 876.0544925748003,410.9939932947806 857.8633968721507,387.109787681391 839.551851827353,364.4434730231038 821.5600361585459,343.2891450864589 804.4239477914662,323.9685172479026 788.7027954294733,306.76802002472357 774.9774808706533,291.9377827112337 763.6622209143356,279.5646527777337 754.4251190235096,269.21947698533756 746.7181840594479,260.38121540534394 739.9614866043297,252.5707813375218 733.5450482857943,245.35235710971108 726.9761794811072,238.41524156973503 720.3287434346651,231.7964273606343 713.8271353979746,225.60357407417803 707.7031264550188,219.92904422958293 702.1951984565547,214.84958639509853 697.4650045754543,210.38914833681577 693.343042660652,206.4195416074815 689.5683992866257,202.7914914389704 685.871107954097,199.37479830072255 681.9729950486644,196.0587074125582 677.661137355342,192.77724637284234 673.0099311866503,189.57436175302917 668.1695272527816,186.51121747122954 663.2936957748324,183.63851635142828 658.5393688791479,180.99635392035555 654.0226204923079,178.60322807837713 649.6860633474773,176.42943936053973 645.4268504773568,174.4403224564951 641.1401558635924,172.60870912721202 636.7195058281903,170.91500588818678 632.0824006354155,169.35126522765563 627.2470420400178,167.9297199368126 622.257524169194,166.66459363614263 617.1585758327808,165.56718920184107 611.995434572822,164.64586681834987 606.8491627268078,163.9085048030961 601.9431511471096,163.36497011528502 597.5369018920705,163.01099400457383 593.8899169666239,162.82443119641835 591.2609209344369,162.76525997566478 590.5000000000001,162.76525997566478 590.5000000000001,162.76525997566478 590.5000000000001,162.76525997566478 590.5000000000001,162.76525997566478 590.5000000000001,162.76525997566478 590.7870722272451,162.73508746875416 590.8560404437468,162.72154370611565 590.7816800079745,162.7256724322251 590.6383963599803,162.74334014564636 590.5000000000001,162.76525997566478 590.5000000000001,162.76525997566478 590.5000000000001,162.76525997566478 590.5000000000001,162.76525997566478 590.5000000000001,162.76525997566478 590.5000000000001,162.76525997566478 590.5199215612839,162.75954755988948 590.524629173855,162.7577300815583 590.5194229181233,162.7589490870082 590.5095121723579,162.7619846720596 590.5000000000001,162.76525997566478 590.5000000000001,162.76525997566478 590.5000000000001,162.76525997566478 590.5000000000001,162.76525997566478 590.5000000000001,162.76525997566478 590.5000000000001,162.76525997566478 590.5013373553724,162.76460770386723 590.5016475527098,162.7644205056298 590.5012946369135,162.7645716050073 590.5006317333572,162.76490980014682 590.5000000000001,162.76525997566478 590.5000000000001,162.76525997566478 590.5000000000001,162.76525997566478 590.5000000000001,162.76525997566478 590.5000000000001,162.76525997566478 590.5000000000001,162.76525997566478 590.5000864269506,162.76519718280963 590.500106025897,162.7651800794207 590.5000829564403,162.76519516299038 590.500040301578,162.76522734009052 590.5000000000001,162.76525997566478 590.5000000000001,162.76525997566478 590.5000000000001,162.76525997566478 590.5000000000001,162.76525997566478 590.5000000000001,162.76525997566478 590.5000000000001,162.76525997566478 590.5000053280431,162.76525445831464 590.5000065005721,162.7652530046546 590.5000050574753,162.76525435876943 590.500002442684,162.76525716567824 590.5000000000001,162.76525997566478 590.5000000000001,162.76525997566478 590.5000000000001,162.76525997566478 590.5000000000001,162.76525997566478 590.5000000000001,162.76525997566478 590.5000000000001,162.76525997566478 590.500000307938,162.7652595191281 590.5000003727195,162.76525940172723 590.5000002875661,162.76525951546296 590.5000001376794,162.76525974652793 590.5000000000001,162.76525997566478 590.5000000000001,162.76525997566478 590.5000000000001,162.76525997566478 590.5000000000001,162.76525997566478 590.5000000000001,162.76525997566478 590.5000000000001,162.76525997566478 590.5000000160813,162.76525993954556 590.5000000191982,162.76525993043686 590.5000000145955,162.7652599395401 590.5000000068783,162.7652599577466 590.5000000000001,162.76525997566478 590.5000000000001,162.76525997566478 590.5000000000001,162.76525997566478 590.5000000000001,162.76525997566478 590.5000000000001,162.76525997566478 590.5000000000001,162.76525997566478 590.5000000006872,162.76525997290855 590.5000000007944,162.76525997222382 590.5000000005828,162.7652599729239 590.5000000002638,162.76525997430826 590.5000000000001,162.76525997566478 590.5000000000001,162.76525997566478 590.5000000000001,162.76525997566478 590.5000000000001,162.76525997566478 590.5000000000001,162.76525997566478 590.5000000000001,162.76525997566478 590.5000000000161,162.76525997543501 590.5000000000161,162.76525997535805 590.5000000000094,162.76525997539625 590.5000000000028,162.76525997551119 590.5000000000001,162.76525997566478" stroke="black" stroke-dasharray="8.0,8.0" stroke-width="7.0" /><polyline fill="none" points="590.5000000000002,1129.8957676447799 573.6952441739546,1125.5090764640815 557.0412533892065,1120.8984024512454 540.5360486769501,1116.1342446297845 524.1729139368754,1111.2867815446218 507.94041219713455,1106.4256666568378 491.8247488725795,1101.5975618138825 475.8199273181831,1096.759500281689 459.9261787509992,1091.8462742268127 444.1483883529331,1086.7929696874683 428.4960757516599,1081.5351702720006 412.98768845592383,1075.9869352139158 397.66662608496307,1069.9749570086644 382.5936217658551,1063.30672140666 367.8430594987523,1055.793471657495 353.5028123200774,1047.250805648073 339.65682950884747,1037.5593558853584 326.3248743709167,1026.8431613779287 313.4994961793115,1015.2851503738492 301.1612617143006,1003.065971037991 289.278882039407,990.3634798352717 277.81114635938127,977.347573246481 266.7131009040172,964.1659572365608 255.93197963788953,950.9581222747129 245.4057392780473,937.8596600204601 235.06323395178902,925.0018645695907 224.86592371168481,912.426211201895 214.94447178764165,899.8344850457758 205.4947575334762,886.8548087795376 196.73876861248863,873.1293255732168 188.9239768510027,858.3153351711836 182.2621429476853,842.1871493865762 176.7330273604239,824.9308332675623 172.24127148955793,806.8272218185302 168.67376865963357,788.1483660557179 165.90008213866358,769.156786332198 163.87009981789362,749.9709413187376 162.92469876393173,730.176849333776 163.536270833541,709.2539123722262 166.21489653849252,686.7137278004603 171.50694218254696,662.1017419016481 179.82111658514265,635.1972729689172 190.8820132163208,606.5859972484659 204.199321555264,577.0220202011062 219.2349328722699,547.22149143792 235.4046633820111,517.8605965936539 252.18004835491055,489.47703957259967 269.4035690876484,462.1925259063921 287.0131145505233,436.0260790257289 304.94550742520005,410.9939932947806 323.1366031278495,387.10978768139114 341.44814817264734,364.44347302310393 359.43996384145436,343.2891450864589 376.57605220853407,323.9685172479026 392.297204570527,306.76802002472357 406.02251912934696,291.9377827112337 417.3377790856645,279.5646527777337 426.57488097649065,269.21947698533756 434.28181594055235,260.38121540534394 441.03851339567046,252.5707813375218 447.45495171420583,245.3523571097112 454.02382051889293,238.41524156973503 460.6712565653352,231.7964273606343 467.1728646020256,225.60357407417803 473.29687354498134,219.92904422958316 478.80480154344536,214.84958639509853 483.5349954245459,210.38914833681565 487.65695733934814,206.4195416074815 491.43160071337456,202.7914914389704 495.1288920459032,199.37479830072255 499.0270049513358,196.0587074125582 503.3388626446582,192.77724637284234 507.99006881334986,189.57436175302917 512.8304727472187,186.51121747122966 517.7063042251679,183.63851635142828 522.4606311208523,180.99635392035555 526.9773795076924,178.60322807837713 531.3139366525229,176.42943936053973 535.5731495226435,174.4403224564951 539.8598441364078,172.60870912721202 544.2804941718099,170.91500588818678 548.9175993645847,169.35126522765563 553.7529579599823,167.9297199368126 558.7424758308063,166.66459363614263 563.8414241672194,165.56718920184107 569.0045654271782,164.64586681834987 574.1508372731923,163.9085048030961 579.0568488528907,163.36497011528502 583.4630981079297,163.01099400457383 587.1100830333763,162.82443119641835 589.7390790655634,162.76525997566478 590.5000000000001,162.76525997566478 590.5000000000001,162.76525997566478 590.5000000000001,162.76525997566478 590.5000000000001,162.76525997566478 590.5000000000001,162.76525997566478 590.2129277727552,162.73508746875416 590.1439595562534,162.72154370611565 590.2183199920257,162.7256724322251 590.3616036400199,162.74334014564636 590.5000000000001,162.76525997566478 590.5000000000001,162.76525997566478 590.5000000000001,162.76525997566478 590.5000000000001,162.76525997566478 590.5000000000001,162.76525997566478 590.5000000000001,162.76525997566478 590.4800784387163,162.75954755988948 590.4753708261451,162.7577300815583 590.480577081877,162.7589490870082 590.4904878276424,162.7619846720596 590.5000000000001,162.76525997566478 590.5000000000001,162.76525997566478 590.5000000000001,162.76525997566478 590.5000000000001,162.76525997566478 590.5000000000001,162.76525997566478 590.5000000000001,162.76525997566478 590.4986626446279,162.76460770386723 590.4983524472905,162.7644205056298 590.4987053630867,162.7645716050073 590.499368266643,162.76490980014682 590.5000000000001,162.76525997566478 590.5000000000001,162.76525997566478 590.5000000000001,162.76525997566478 590.5000000000001,162.76525997566478 590.5000000000001,162.76525997566478 590.5000000000001,162.76525997566478 590.4999135730496,162.76519718280963 590.4998939741032,162.7651800794207 590.4999170435599,162.76519516299038 590.4999596984222,162.76522734009052 590.5000000000001,162.76525997566478 590.5000000000001,162.76525997566478 590.5000000000001,162.76525997566478 590.5000000000001,162.76525997566478 590.5000000000001,162.76525997566478 590.5000000000001,162.76525997566478 590.4999946719571,162.76525445831464 590.4999934994281,162.7652530046546 590.499994942525,162.76525435876943 590.4999975573161,162.76525716567824 590.5000000000001,162.76525997566478 590.5000000000001,162.76525997566478 590.5000000000001,162.76525997566478 590.5000000000001,162.76525997566478 590.5000000000001,162.76525997566478 590.5000000000001,162.76525997566478 590.4999996920623,162.7652595191281 590.4999996272808,162.76525940172723 590.4999997124341,162.76525951546296 590.4999998623208,162.76525974652793 590.5000000000001,162.76525997566478 590.5000000000001,162.76525997566478 590.5000000000001,162.76525997566478 590.5000000000001,162.76525997566478 590.5000000000001,162.76525997566478 590.5000000000001,162.76525997566478 590.4999999839188,162.76525993954556 590.499999980802,162.76525993043686 590.4999999854048,162.7652599395401 590.499999993122,162.7652599577466 590.5000000000001,162.76525997566478 590.5000000000001,162.76525997566478 590.5000000000001,162.76525997566478 590.5000000000001,162.76525997566478 590.5000000000001,162.76525997566478 590.5000000000001,162.76525997566478 590.4999999993129,162.76525997290855 590.4999999992057,162.76525997222382 590.4999999994175,162.7652599729239 590.4999999997364,162.76525997430826 590.5000000000001,162.76525997566478 590.5000000000001,162.76525997566478 590.5000000000001,162.76525997566478 590.5000000000001,162.76525997566478 590.5000000000001,162.76525997566478 590.5000000000001,162.76525997566478 590.4999999999841,162.76525997543501 590.4999999999841,162.76525997535805 590.4999999999908,162.76525997539625 590.4999999999974,162.76525997551119 590.5000000000001,162.76525997566478" stroke="black" stroke-dasharray="8.0,8.0" stroke-width="7.0" /></g><rect fill="white" height="111.60000000000001" stroke="none" width="1181" x="0" y="0" /><line stroke="black" stroke-width="3.0" x1="0" x2="1181" y1="111.60000000000001" y2="111.60000000000001" /><text font-family="Arial" font-size="62.0" text-anchor="start" x="40.0" y="77.5">LED</text><text font-family="Arial" font-size="62.0" text-anchor="middle" x="590.5" y="77.5" /><text font-family="Arial" font-size="62.0" text-anchor="end" x="1141.0" y="77.5">cd / klm</text><rect fill="none" height="1178.0" stroke="black" stroke-width="3.0" width="1178.0" x="1.5" y="1.5" /></svg>