<?xml version="1.0" encoding="utf-8" ?>
<svg baseProfile="full" height="1181" version="1.1" width="1181" xmlns="http://www.w3.org/2000/svg" xmlns:ev="http://www.w3.org/2001/xml-events" xmlns:xlink="http://www.w3.org/1999/xlink"><defs><clipPath id="plot_clip"><rect height="1069.4" width="1181.0" x="0" y="111.60000000000001" /></clipPath></defs><g clip-path="url(#plot_clip)" id="grid"><circle cx="590.5" cy="160.20938614749582" fill="none" r="409.7154537139371" stroke="black" stroke-width="3.0" /><text font-family="Arial" font-size="42.0" text-anchor="start" x="598.5" y="609.9248398614329">250</text><circle cx="590.5" cy="160.20938614749582" fill="none" r="819.4309074278742" stroke="black" stroke-width="3.0" /><text font-family="Arial" font-size="42.0" text-anchor="start" x="598.5" y="1019.64029357537">500</text><circle cx="590.5" cy="160.20938614749582" fill="none" r="1229.1463611418112" stroke="black" stroke-width="3.0" /><text font-family="Arial" font-size="42.0" text-anchor="start" x="598.5000000000001" y="1429.355747289307">750</text><line stroke="black" stroke-width="3.0" x1="-4538.809708135521" x2="5719.809708135521" y1="160.20938614749548" y2="160.20938614749616" /><line stroke="black" stroke-width="3.0" x1="-3851.612511123506" x2="5032.612511123506" y1="-2404.445467920266" y2="2724.8642402152573" /><line stroke="black" stroke-width="3.0" x1="-1974.1548540677604" x2="3155.1548540677604" y1="-4281.90312497601" y2="4602.321897271002" /><line stroke="black" stroke-width="3.0" x1="590.5" x2="590.5" y1="-4969.100321988026" y2="5289.519094283018" /><line stroke="black" stroke-width="3.0" x1="3155.15485406776" x2="-1974.15485406776" y1="-4281.90312497601" y2="4602.321897271002" /><line stroke="black" stroke-width="3.0" x1="5032.612511123506" x2="-3851.612511123506" y1="-2404.445467920266" y2="2724.8642402152573" /><line stroke="black" stroke-width="3.0" x1="5719.809708135522" x2="-4538.809708135522" y1="160.20938614749548" y2="160.20938614749616" /></g><g clip-path="url(#plot_clip)" id="curves"><polyline fill="none" points="590.5,1046.1616946403649 605.9694152077208,1046.451589848116 621.4699481768662,1047.072666299003 637.0598487762064,1048.6242248062474 652.839235360445,1051.7019857358318 668.9499364155647,1056.8962625257022 685.5495475726286,1064.5454229624495 702.6998472595807,1074.003811395357 720.3841191209807,1084.3829147594674 738.5245307014525,1094.7994910728532 756.982440044607,1104.378221658071 775.5911093157595,1112.4205958982848 794.2763114055479,1118.9015563844948 813.0002284960603,1123.9637579008922 831.7349354327736,1127.7498656840148 850.46236135401,1130.40212677624 869.156995141487,1132.0018158812231 887.7257195110078,1132.3909090909092 906.0449481397375,1131.3568782759846 923.976013940101,1128.694053276312 941.3654483076511,1124.20428263959 958.0270594342975,1117.6501096588536 973.6809791373397,1108.615590089509 987.9972782562915,1096.6542895360826 1000.6132556085948,1081.3388397099786 1011.1342224499191,1062.2623871945043 1019.2291449533625,1039.2343990423824 1024.9429753036402,1012.8517335213345 1028.4596491468833,983.8916890518335 1030.0132469333369,953.1122726896372 1029.8870468719003,921.2500755172751 1028.2382971687869,888.7282527645614 1024.5342332551133,854.8093564115114 1018.0045446769328,818.5086563670105 1007.8074934560761,778.89318781336 993.0321610732126,735.0848896338006 973.0450786662977,686.7375161890108 948.5912510823247,635.4125265638689 920.8760490440363,583.0714455984203 891.233762301033,531.5846540871297 861.1234864172606,482.7258983256364 831.8666326988638,437.8699349615863 803.8267237368649,397.1327152771678 777.1094387525563,360.3235092610048 751.8103441224024,327.25113741423206 728.0149711713422,297.724357318838 705.8302885987542,271.58255124257323 685.4831445578266,248.7826013764635 667.2333099464811,229.30036875566714 651.3427069305235,213.09914437503937 638.0749361762223,200.12949754624663 627.5853324778051,190.24049625375062 619.5798409817594,182.92904792764546 613.6224105809885,177.6333722889393 609.2428596231556,173.82687076015293 605.9384855683819,171.01953012101865 603.2537218854258,168.81188018065518 601.023090975221,167.04316133071256 599.1509895542471,165.61512438363263 597.5359016865272,164.4369823902797 596.0707366624575,163.42565245915023 594.671716663607,162.5218064542296 593.366529653973,161.73354700065056 592.2126331289824,161.08201631235966 591.269118573629,160.584510340326 590.5965453596042,160.25440598803857 590.5,160.20938614749582 590.5,160.20938614749582 590.5,160.20938614749582 590.5,160.20938614749582 590.5,160.20938614749582 590.5888486859761,160.23997920348177 590.6123749850957,160.24589899351736 590.5919804733936,160.23750740030732 590.5496562910973,160.22362485984195 590.5079150947633,160.21150699074565 590.5,160.20938614749582 590.5,160.20938614749582 590.5,160.20938614749582 590.5,160.20938614749582 590.5080698191069,160.21080907433372 590.5131456572354,160.21146821505977 590.5129686726451,160.21120877557428 590.5094348368242,160.21054459979246 590.5044651973085,160.20985545864426 590.5,160.20938614749582 590.5,160.20938614749582 590.5,160.20938614749582 590.5,160.20938614749582 590.5,160.20938614749582 590.5,160.20938614749582 590.5006542584853,160.20937472737148 590.5008126857917,160.2093577678827 590.5006439413881,160.20935239995765 590.5003168722551,160.2093639896292 590.5,160.20938614749582 590.5,160.20938614749582 590.5,160.20938614749582 590.5,160.20938614749582 590.5,160.20938614749582 590.5,160.20938614749582 590.5000461176314,160.20937718313633 590.5000571079547,160.2093740088253 590.5000451097864,160.20937573308106 590.500022128524,160.20938063023516 590.5,160.20938614749582 590.5,160.20938614749582 590.5,160.20938614749582 590.5,160.20938614749582 590.5,160.20938614749582 590.5,160.20938614749582 590.5000031490318,160.20938493869585 590.5000038865385,160.2093845772324 590.5000030596927,160.2093848487334 590.5000014958339,160.20938548150775 590.5,160.20938614749582 590.5,160.20938614749582 590.5,160.20938614749582 590.5,160.20938614749582 590.5,160.20938614749582 590.5,160.20938614749582 590.5000002075849,160.20938602276624 590.5000002552246,160.20938598801388 590.5000002001465,160.20938601751925 590.5000000974612,160.20938608175743 590.5,160.20938614749582 590.5,160.20938614749582 590.5,160.20938614749582 590.5,160.20938614749582 590.5,160.20938614749582 590.5,160.20938614749582 590.5000000131224,160.2093861360886 590.5000000160575,160.20938613303747 590.500000012531,160.2093861358104 590.5000000060714,160.20938614163265 590.5,160.20938614749582 590.5,160.20938614749582 590.5,160.20938614749582 590.5,160.20938614749582 590.5,160.20938614749582 590.5,160.20938614749582 590.5000000007856,160.20938614652562 590.5000000009551,160.20938614627335 590.5000000007403,160.20938614651334 590.5000000003562,160.2093861470056 590.5,160.20938614749582 590.5,160.20938614749582 590.5,160.20938614749582 590.5,160.20938614749582 590.5,160.20938614749582 590.5,160.20938614749582 590.5000000000433,160.20938614741738 590.5000000000522,160.20938614739748 590.50000000004,160.20938614741715 590.5000000000191,160.2093861474567 590.5,160.20938614749582 590.5,160.20938614749582 590.5,160.20938614749582 590.5,160.20938614749582 590.5,160.20938614749582 590.5,160.20938614749582 590.500000000002,160.20938614748968 590.5000000000025,160.2093861474882 590.5000000000018,160.20938614748968 590.5000000000008,160.20938614749286 590.5,160.20938614749582 590.5,160.20938614749582 590.5,160.20938614749582 590.5,160.20938614749582 590.5,160.20938614749582 590.5,160.20938614749582 590.5,160.20938614749548 590.5,160.20938614749525 590.5,160.20938614749548 590.5,160.2093861474956 590.5,160.20938614749582 590.5,160.20938614749582 590.5,160.20938614749582 590.5,160.20938614749582 590.5,160.20938614749582 590.5,160.20938614749582" stroke="black" stroke-width="9.0" /><polyline fill="none" points="590.5,1046.1616946403649 575.0305847922789,1046.451589848116 559.5300518231339,1047.072666299003 543.9401512237937,1048.6242248062474 528.1607646395552,1051.7019857358318 512.0500635844355,1056.8962625257022 495.4504524273716,1064.5454229624495 478.3001527404194,1074.003811395357 460.61588087901896,1084.3829147594674 442.4754692985477,1094.7994910728532 424.01755995539276,1104.378221658071 405.40889068424076,1112.4205958982848 386.7236885944518,1118.9015563844946 367.9997715039398,1123.9637579008922 349.26506456722655,1127.7498656840148 330.5376386459902,1130.40212677624 311.84300485851327,1132.0018158812231 293.2742804889919,1132.390909090909 274.9550518602627,1131.3568782759846 257.02398605989873,1128.6940532763117 239.634551692349,1124.20428263959 222.9729405657021,1117.6501096588536 207.31902086266032,1108.615590089509 193.00272174370872,1096.6542895360826 180.38674439140524,1081.3388397099789 169.86577755008094,1062.2623871945045 161.7708550466372,1039.2343990423822 156.05702469636,1012.8517335213345 152.5403508531165,983.8916890518334 150.98675306666317,953.1122726896373 151.1129531280994,921.250075517275 152.76170283121317,888.7282527645615 156.46576674488654,854.8093564115114 162.99545532306723,818.5086563670105 173.19250654392394,778.89318781336 187.9678389267871,735.0848896338006 207.95492133370226,686.7375161890109 232.40874891767513,635.4125265638689 260.1239509559637,583.0714455984203 289.7662376989668,531.5846540871296 319.8765135827394,482.7258983256364 349.1333673011362,437.8699349615863 377.17327626313505,397.1327152771678 403.89056124744354,360.3235092610048 429.18965587759743,327.25113741423195 452.9850288286577,297.7243573188382 475.1697114012456,271.58255124257323 495.5168554421733,248.7826013764635 513.7666900535188,229.30036875566714 529.6572930694764,213.09914437503937 542.9250638237776,200.12949754624663 553.4146675221948,190.24049625375073 561.4201590182405,182.92904792764546 567.3775894190114,177.6333722889393 571.7571403768443,173.82687076015293 575.061514431618,171.01953012101865 577.7462781145741,168.81188018065518 579.9769090247789,167.04316133071256 581.8490104457528,165.61512438363263 583.4640983134727,164.4369823902797 584.9292633375424,163.42565245915023 586.3282833363929,162.5218064542296 587.6334703460269,161.73354700065056 588.7873668710175,161.08201631235966 589.7308814263708,160.584510340326 590.4034546403957,160.25440598803857 590.5,160.20938614749582 590.5,160.20938614749582 590.5,160.20938614749582 590.5,160.20938614749582 590.5,160.20938614749582 590.4111513140238,160.23997920348177 590.3876250149042,160.24589899351736 590.4080195266063,160.23750740030732 590.4503437089026,160.22362485984195 590.4920849052365,160.21150699074565 590.5,160.20938614749582 590.5,160.20938614749582 590.5,160.20938614749582 590.5,160.20938614749582 590.491930180893,160.21080907433372 590.4868543427644,160.21146821505977 590.4870313273548,160.21120877557428 590.4905651631757,160.21054459979246 590.4955348026914,160.20985545864426 590.5,160.20938614749582 590.5,160.20938614749582 590.5,160.20938614749582 590.5,160.20938614749582 590.5,160.20938614749582 590.5,160.20938614749582 590.4993457415146,160.20937472737148 590.4991873142081,160.2093577678827 590.4993560586117,160.20935239995765 590.4996831277448,160.2093639896292 590.5,160.20938614749582 590.5,160.20938614749582 590.5,160.20938614749582 590.5,160.20938614749582 590.5,160.20938614749582 590.5,160.20938614749582 590.4999538823685,160.20937718313633 590.4999428920452,160.2093740088253 590.4999548902135,160.20937573308106 590.4999778714758,160.20938063023516 590.5,160.20938614749582 590.5,160.20938614749582 590.5,160.20938614749582 590.5,160.20938614749582 590.5,160.20938614749582 590.5,160.20938614749582 590.499996850968,160.20938493869585 590.4999961134614,160.2093845772324 590.4999969403071,160.2093848487334 590.499998504166,160.20938548150775 590.5,160.20938614749582 590.5,160.20938614749582 590.5,160.20938614749582 590.5,160.20938614749582 590.5,160.20938614749582 590.5,160.20938614749582 590.499999792415,160.20938602276624 590.4999997447753,160.20938598801388 590.4999997998534,160.20938601751925 590.4999999025387,160.20938608175743 590.5,160.20938614749582 590.5,160.20938614749582 590.5,160.20938614749582 590.5,160.20938614749582 590.5,160.20938614749582 590.5,160.20938614749582 590.4999999868775,160.2093861360886 590.4999999839424,160.20938613303747 590.4999999874689,160.2093861358104 590.4999999939284,160.20938614163265 590.5,160.20938614749582 590.5,160.20938614749582 590.5,160.20938614749582 590.5,160.20938614749582 590.5,160.20938614749582 590.5,160.20938614749582 590.4999999992143,160.20938614652562 590.4999999990448,160.20938614627335 590.4999999992597,160.20938614651334 590.4999999996437,160.2093861470056 590.5,160.20938614749582 590.5,160.20938614749582 590.5,160.20938614749582 590.5,160.20938614749582 590.5,160.20938614749582 590.5,160.20938614749582 590.4999999999566,160.20938614741738 590.4999999999477,160.20938614739748 590.4999999999599,160.20938614741715 590.4999999999809,160.2093861474567 590.5,160.20938614749582 590.5,160.20938614749582 590.5,160.20938614749582 590.5,160.20938614749582 590.5,160.20938614749582 590.5,160.20938614749582 590.4999999999978,160.20938614748968 590.4999999999974,160.2093861474882 590.4999999999981,160.20938614748968 590.4999999999991,160.20938614749286 590.5,160.20938614749582 590.5,160.20938614749582 590.5,160.20938614749582 590.5,160.20938614749582 590.5,160.20938614749582 590.5,160.20938614749582 590.4999999999999,160.20938614749548 590.4999999999999,160.20938614749525 590.4999999999999,160.20938614749548 590.5,160.2093861474956 590.5,160.20938614749582 590.5,160.20938614749582 590.5,160.20938614749582 590.5,160.20938614749582 590.5,160.20938614749582 590.5,160.20938614749582" stroke="black" stroke-width="9.0" /><polyline fill="none" points="590.5,1046.1616946403649 606.0054880177111,1048.5181997483699 621.5974849791535,1050.724842472197 637.2840029352441,1052.9013409539662 653.0815155064116,1055.1667532439276 669.0149268950888,1057.6391071058454 685.1144999890561,1060.4062216974123 701.4026969737403,1063.439370098326 717.8961900242501,1066.6803793931515 734.6078732537657,1070.0706891800573 751.5468595234925,1073.5515126696062 768.7038801111805,1076.9888732349607 785.9970135087789,1079.9505222140133 803.2973135594796,1081.9358159428612 820.441115059191,1082.4528262628712 837.2304203180101,1081.0198505471333 853.2632005563362,1076.573567077528 868.9399950565577,1070.9455730689494 883.5403835952093,1062.0949504659923 897.0916618932355,1050.6162256225389 909.4268048726552,1036.4535809939264 920.4112392018346,1019.6575477117766 930.0711368089619,1000.6774426629834 938.5032636285105,980.0536980811092 945.8398946747824,958.3158568223075 952.2482710199491,935.9810568321444 957.8655939096631,913.4204746045381 962.5867862097863,890.4708217224714 966.2254455022302,866.8461752075813 968.5741194390083,842.2731526476588 969.4048515946489,816.4918403437732 968.4294310903664,789.1895840875962 965.1696948623974,759.8062358210648 959.0631831397106,727.7469188163136 949.5025525908379,692.4525582151147 935.8370993280826,653.4018762070007 917.6603829750316,610.5070223687543 895.724599123918,565.256109846057 871.1773871577079,519.4600591858211 845.2860307148375,474.84393100210104 819.4335957032993,433.04182129241303 794.8388954930848,395.2743958891763 771.6802977328618,361.43049225009133 749.8446682257173,331.0856224620194 729.1928248734214,303.8300106091706 709.5602801006505,279.26966624814634 690.8505112773378,257.11674843417177 673.3256079420759,237.4455150720048 657.350497433429,220.40184439987786 643.3027619221971,206.11012680652948 631.5717518671358,194.67267799101433 622.4252607516293,186.0619525597525 615.596534301552,179.81694767243107 610.6557636299219,175.39784346373813 607.140202007469,172.29920058052232 604.5557342522571,170.0513172259988 602.4556881955557,168.27359966011068 600.681258717943,166.82117286723633 599.1435353154512,165.61046645826718 597.7484683202881,164.5647053094258 596.3971747343977,163.61412156785866 595.0178705314055,162.71368267634557 593.6634569883922,161.8914260648794 592.420941370175,161.18815466258673 591.380192166777,160.63868455143336 590.6336781902213,160.2717213113243 590.5,160.20938614749582 590.5,160.20938614749582 590.5,160.20938614749582 590.5,160.20938614749582 590.6694028989298,160.2710437603048 590.786975305695,160.30819966957893 590.8215465764482,160.3138629634401 590.7990344804667,160.30081016298857 590.7460795021316,160.27994830926184 590.6899622743225,160.26028638549292 590.6527030096256,160.24745928391394 590.6333305391331,160.24016792788723 590.6249544975791,160.2359460458664 590.6205496446473,160.23281862468878 590.6129774674969,160.22930712322773 590.5968764916358,160.22472987640424 590.5743288616768,160.2198323877583 590.5493296684983,160.2154430691818 590.5259176873165,160.21211020620103 590.5081631272542,160.21010032858942 590.5,160.20938614749582 590.5,160.20938614749582 590.5,160.20938614749582 590.5042933474789,160.20946108815485 590.5081943090743,160.20938614749582 590.5093864822043,160.2092223058395 590.5082176708996,160.20909918010466 590.5056334843649,160.2090909090906 590.5025798215936,160.20920574879642 590.5,160.20938614749582 590.5,160.20938614749582 590.5,160.20938614749582 590.5,160.20938614749582 590.5,160.20938614749582 590.5,160.20938614749582 590.5003659500233,160.2093150140172 590.5004531598148,160.20928982540363 590.5003579526274,160.20930350762023 590.5001755930134,160.20934236724054 590.5,160.20938614749582 590.5,160.20938614749582 590.5,160.20938614749582 590.5,160.20938614749582 590.5,160.20938614749582 590.5,160.20938614749582 590.50002498802,160.2093765554937 590.5000308402408,160.2093736872297 590.5000242791014,160.20937584162857 590.5000118696572,160.20938086278397 590.5,160.20938614749582 590.5,160.20938614749582 590.5,160.20938614749582 590.5,160.20938614749582 590.5,160.20938614749582 590.5,160.20938614749582 590.5000016472161,160.20938515774856 590.5000020252437,160.20938488198317 590.5000015881914,160.20938511611223 590.5000007733696,160.20938562585138 590.5,160.20938614749582 590.5,160.20938614749582 590.5,160.20938614749582 590.5,160.20938614749582 590.5,160.20938614749582 590.5,160.20938614749582 590.5000001041285,160.20938605697813 590.5000001274193,160.20938603276704 590.500000099436,160.2093860547701 590.5000000481783,160.20938610097062 590.5,160.20938614749582 590.5,160.20938614749582 590.5,160.20938614749582 590.5,160.20938614749582 590.5,160.20938614749582 590.5,160.20938614749582 590.5000000062339,160.2093861397974 590.5000000075788,160.20938613779526 590.5000000058747,160.20938613969997 590.5000000028264,160.20938614360557 590.5,160.20938614749582 590.5,160.20938614749582 590.5,160.20938614749582 590.5,160.20938614749582 590.5,160.20938614749582 590.5,160.20938614749582 590.5000000003447,160.20938614687373 590.5000000004148,160.20938614671547 590.5000000003181,160.20938614687134 590.5000000001513,160.20938614718557 590.5,160.20938614749582 590.5,160.20938614749582 590.5,160.20938614749582 590.5,160.20938614749582 590.5,160.20938614749582 590.5,160.20938614749582 590.5000000000165,160.20938614744762 590.5000000000196,160.20938614743545 590.5000000000147,160.20938614744773 590.5000000000067,160.20938614747195 590.5,160.20938614749582 590.5,160.20938614749582 590.5,160.20938614749582 590.5,160.20938614749582 590.5,160.20938614749582 590.5,160.20938614749582 590.5000000000005,160.20938614749207 590.5000000000006,160.20938614749116 590.5000000000005,160.20938614749207 590.5000000000001,160.209386147494 590.5,160.20938614749582 590.5,160.20938614749582 590.5,160.20938614749582 590.5,160.20938614749582 590.5,160.20938614749582 590.5,160.20938614749582" stroke="black" stroke-dasharray="8.0,8.0" stroke-width="7.0" /><polyline fill="none" points="590.5,1046.1616946403649 574.9945119822886,1048.5181997483699 559.4025150208466,1050.724842472197 543.7159970647562,1052.9013409539662 527.9184844935886,1055.1667532439276 511.98507310491124,1057.6391071058454 495.88550001094404,1060.4062216974123 479.59730302625985,1063.439370098326 463.1038099757496,1066.6803793931513 446.39212674623445,1070.0706891800576 429.45314047650726,1073.5515126696062 412.29611988881965,1076.9888732349607 395.00298649122084,1079.950522214013 377.70268644052055,1081.9358159428614 360.5588849408091,1082.4528262628712 343.76957968198997,1081.0198505471335 327.7367994436639,1076.573567077528 312.06000494344204,1070.9455730689494 297.45961640479095,1062.0949504659923 283.90833810676423,1050.6162256225386 271.5731951273448,1036.4535809939266 260.58876079816497,1019.6575477117766 250.92886319103823,1000.6774426629836 242.49673637148976,980.0536980811092 235.16010532521764,958.3158568223078 228.75172898005084,935.9810568321445 223.1344060903367,913.420474604538 218.41321379021375,890.4708217224714 214.77455449776966,866.8461752075812 212.4258805609918,842.2731526476589 211.59514840535087,816.4918403437732 212.5705689096337,789.1895840875964 215.83030513760255,759.8062358210649 221.93681686028938,727.7469188163137 231.49744740916196,692.4525582151147 245.16290067191724,653.4018762070007 263.33961702496845,610.5070223687544 285.2754008760817,565.2561098460569 309.82261284229213,519.4600591858211 335.7139692851623,474.84393100210104 361.5664042967007,433.04182129241315 386.16110450691514,395.2743958891763 409.31970226713815,361.43049225009133 431.1553317742826,331.0856224620194 451.8071751265785,303.83001060917036 471.43971989934937,279.26966624814645 490.1494887226621,257.11674843417177 507.674392057924,237.44551507200504 523.6495025665708,220.40184439987786 537.6972380778028,206.11012680652948 549.428248132864,194.67267799101433 558.5747392483706,186.0619525597525 565.4034656984479,179.81694767243107 570.344236370078,175.39784346373813 573.8597979925308,172.29920058052232 576.4442657477427,170.0513172259988 578.5443118044442,168.27359966011068 580.3187412820569,166.82117286723633 581.8564646845487,165.61046645826718 583.2515316797118,164.5647053094258 584.6028252656022,163.61412156785866 585.9821294685944,162.71368267634557 587.3365430116077,161.8914260648794 588.5790586298249,161.18815466258673 589.6198078332229,160.63868455143336 590.3663218097787,160.2717213113243 590.5,160.20938614749582 590.5,160.20938614749582 590.5,160.20938614749582 590.5,160.20938614749582 590.3305971010701,160.2710437603048 590.2130246943049,160.30819966957893 590.1784534235517,160.3138629634401 590.2009655195332,160.30081016298857 590.2539204978683,160.27994830926184 590.3100377256774,160.26028638549292 590.3472969903743,160.24745928391394 590.3666694608668,160.24016792788723 590.3750455024208,160.2359460458664 590.3794503553526,160.23281862468878 590.387022532503,160.22930712322773 590.403123508364,160.22472987640424 590.4256711383231,160.2198323877583 590.4506703315016,160.2154430691818 590.4740823126834,160.21211020620103 590.4918368727457,160.21010032858942 590.5,160.20938614749582 590.5,160.20938614749582 590.5,160.20938614749582 590.4957066525211,160.20946108815485 590.4918056909257,160.20938614749582 590.4906135177956,160.2092223058395 590.4917823291003,160.20909918010466 590.4943665156351,160.2090909090906 590.4974201784063,160.20920574879642 590.5,160.20938614749582 590.5,160.20938614749582 590.5,160.20938614749582 590.5,160.20938614749582 590.5,160.20938614749582 590.5,160.20938614749582 590.4996340499766,160.2093150140172 590.4995468401851,160.20928982540363 590.4996420473725,160.20930350762023 590.4998244069865,160.20934236724054 590.5,160.20938614749582 590.5,160.20938614749582 590.5,160.20938614749582 590.5,160.20938614749582 590.5,160.20938614749582 590.5,160.20938614749582 590.4999750119799,160.2093765554937 590.4999691597591,160.2093736872297 590.4999757208985,160.20937584162857 590.4999881303427,160.20938086278397 590.5,160.20938614749582 590.5,160.20938614749582 590.5,160.20938614749582 590.5,160.20938614749582 590.5,160.20938614749582 590.5,160.20938614749582 590.4999983527838,160.20938515774856 590.4999979747562,160.20938488198317 590.4999984118085,160.20938511611223 590.4999992266303,160.20938562585138 590.5,160.20938614749582 590.5,160.20938614749582 590.5,160.20938614749582 590.5,160.20938614749582 590.5,160.20938614749582 590.5,160.20938614749582 590.4999998958714,160.20938605697813 590.4999998725806,160.20938603276704 590.4999999005639,160.2093860547701 590.4999999518217,160.20938610097062 590.5,160.20938614749582 590.5,160.20938614749582 590.5,160.20938614749582 590.5,160.20938614749582 590.5,160.20938614749582 590.5,160.20938614749582 590.499999993766,160.2093861397974 590.4999999924211,160.20938613779526 590.4999999941252,160.20938613969997 590.4999999971735,160.20938614360557 590.5,160.20938614749582 590.5,160.20938614749582 590.5,160.20938614749582 590.5,160.20938614749582 590.5,160.20938614749582 590.5,160.20938614749582 590.4999999996552,160.20938614687373 590.499999999585,160.20938614671547 590.4999999996818,160.20938614687134 590.4999999998486,160.20938614718557 590.5,160.20938614749582 590.5,160.20938614749582 590.5,160.20938614749582 590.5,160.20938614749582 590.5,160.20938614749582 590.5,160.20938614749582 590.4999999999834,160.20938614744762 590.4999999999803,160.20938614743545 590.4999999999852,160.20938614744773 590.4999999999932,160.20938614747195 590.5,160.20938614749582 590.5,160.20938614749582 590.5,160.20938614749582 590.5,160.20938614749582 590.5,160.20938614749582 590.5,160.20938614749582 590.4999999999994,160.20938614749207 590.4999999999993,160.20938614749116 590.4999999999994,160.20938614749207 590.4999999999998,160.209386147494 590.5,160.20938614749582 590.5,160.20938614749582 590.5,160.20938614749582 590.5,160.20938614749582 590.5,160.20938614749582 590.5,160.20938614749582" stroke="black" stroke-dasharray="8.0,8.0" stroke-width="7.0" /></g><rect fill="white" height="111.60000000000001" stroke="none" width="1181" x="0" y="0" /><line stroke="black" stroke-width="3.0" x1="0" x2="1181" y1="111.60000000000001" y2="111.60000000000001" /><text font-family="Arial" font-size="62.0" text-anchor="start" x="40.0" y="77.5">LED</text><text font-family="Arial" font-size="62.0" text-anchor="middle" x="590.5" y="77.5" /><text font-family="Arial" font-size="62.0" text-anchor="end" x="1141.0" y="77.5">cd / klm</text><rect fill="none" height="1178.0" stroke="black" stroke-width="3.0" width="1178.0" x="1.5" y="1.5" /></svg>