<?xml version="1.0" encoding="utf-8" ?>
<svg baseProfile="full" height="1181" version="1.1" width="1181" xmlns="http://www.w3.org/2000/svg" xmlns:ev="http://www.w3.org/2001/xml-events" xmlns:xlink="http://www.w3.org/1999/xlink"><defs><clipPath id="plot_clip"><rect height="1069.4" width="1181.0" x="0" y="111.60000000000001" /></clipPath></defs><g clip-path="url(#plot_clip)" id="grid"><circle cx="590.5000000000001" cy="167.5282443626271" fill="none" r="163.45639450747" stroke="black" stroke-width="3.0" /><text font-family="Arial" font-size="42.0" text-anchor="start" x="598.5000000000001" y="370.9846388700971">80</text><circle cx="590.5000000000001" cy="167.5282443626271" fill="none" r="326.91278901494" stroke="black" stroke-width="3.0" /><text font-family="Arial" font-size="42.0" text-anchor="start" x="598.5000000000001" y="534.4410333775671">160</text><circle cx="590.5000000000001" cy="167.5282443626271" fill="none" r="490.36918352241" stroke="black" stroke-width="3.0" /><text font-family="Arial" font-size="42.0" text-anchor="start" x="598.5000000000002" y="697.8974278850371">240</text><circle cx="590.5000000000001" cy="167.5282443626271" fill="none" r="653.82557802988" stroke="black" stroke-width="3.0" /><text font-family="Arial" font-size="42.0" text-anchor="start" x="598.5000000000002" y="861.3538223925071">320</text><circle cx="590.5000000000001" cy="167.5282443626271" fill="none" r="817.28197253735" stroke="black" stroke-width="3.0" /><text font-family="Arial" font-size="42.0" text-anchor="start" x="598.5000000000002" y="1024.8102168999771">400</text><circle cx="590.5000000000001" cy="167.5282443626271" fill="none" r="980.73836704482" stroke="black" stroke-width="3.0" /><text font-family="Arial" font-size="42.0" text-anchor="start" x="598.5000000000002" y="1188.266611407447">480</text><line stroke="black" stroke-width="3.0" x1="-4233.81332364141" x2="5414.81332364141" y1="167.52824436262676" y2="167.52824436262745" /><line stroke="black" stroke-width="3.0" x1="-3587.477894089199" x2="4768.477894089199" y1="-2244.6284174580787" y2="2579.6849061833327" /><line stroke="black" stroke-width="3.0" x1="-1821.6566618207046" x2="3002.656661820705" y1="-4010.4496497265723" y2="4345.506138451827" /><line stroke="black" stroke-width="3.0" x1="590.5000000000001" x2="590.5000000000001" y1="-4656.785079278783" y2="4991.841568004037" /><line stroke="black" stroke-width="3.0" x1="3002.656661820705" x2="-1821.6566618207046" y1="-4010.4496497265723" y2="4345.506138451827" /><line stroke="black" stroke-width="3.0" x1="4768.477894089199" x2="-3587.4778940891993" y1="-2244.6284174580787" y2="2579.6849061833327" /><line stroke="black" stroke-width="3.0" x1="5414.8133236414105" x2="-4233.8133236414105" y1="167.52824436262676" y2="167.52824436262745" /></g><g clip-path="url(#plot_clip)" id="curves"><polyline fill="none" points="590.5000000000002,1132.3909090909092 607.3340620548952,1131.9510135773994 624.1477867738223,1131.0747888273352 640.9211100101691,1129.6203364136427 657.6240384809587,1127.4467164815019 674.2166892471361,1124.414381071409 690.6542182798793,1120.4319787051568 706.907980612437,1115.5951654512617 722.9622664176862,1110.046244189422 738.8110294325468,1103.9272310853826 754.4578534361593,1097.3794377386619 769.9081053151035,1090.502933059066 785.1398835927782,1083.236901218593 800.1176216467017,1075.481915350138 814.7985584787349,1067.1406261287116 829.1328267139198,1058.118078012754 843.0699471597355,1048.3443261676236 856.5812315754298,1037.840737390607 869.6460971718516,1026.6515920951576 882.2464539729168,1014.8214695141205 894.3667019744835,1002.3951465616673 905.9834594317214,989.3907546199747 917.0310355714885,975.7209177380262 927.4257900504476,961.2756639600107 937.0756470789138,945.9498926415159 945.8802970680732,929.6437508378524 953.7534835194665,912.308257089651 960.695738428876,894.0782896963756 966.7392290923259,875.1313198180661 971.9271001894609,855.6409482591124 976.3132791732412,835.7764461254361 979.9422811765875,815.6690424846025 982.7844094359199,795.3145299874064 984.7875538960325,774.6778342752813 985.8961334480923,753.7271189136233 986.0512322825657,732.4339483113606 985.1726332866816,710.7485213231648 983.1011816546944,688.5276094395433 979.6473658978297,665.6141590335324 974.6090512466405,641.8634195464798 967.7720057660728,617.1435126195676 958.9899965348467,591.427494753294 948.4366851953782,565.057206457091 936.3890851692807,538.4488764372262 923.1503455228201,511.9977610444146 909.0488042776917,486.0770486403187 894.4219215944988,461.0222324642302 879.5679958814062,437.0885114416178 864.7869560818755,414.49732891689166 850.3941220671578,393.45075791199883 836.7193756509758,374.1308316600612 824.0313342424674,356.6381900829035 812.3031685708186,340.8198718806541 801.4225798807423,326.46980868989067 791.2651010378257,313.3926284059007 781.694605032542,301.4041480714411 772.585798698901,290.3466663810914 763.892711983429,280.1307881297748 755.586738557876,270.68588769411156 747.6353575240714,261.94469255565764 740.0022985712881,253.84343668722806 732.6506057345524,246.3236117907834 725.5517135736222,239.3365142317666 718.6773076794192,232.8378446729688 711.9966189503098,226.78610482526187 705.4765569954485,221.1426933978994 699.0892264905297,215.87528291167644 692.8346559219821,210.96672862698358 686.7195263211611,206.40345643381227 680.7499186795978,202.1719423085956 674.9313226414987,198.2587326438586 669.2723665231109,194.65174532070853 663.7961637134855,191.34361161145023 658.5294352444503,188.32692995916068 653.4987782602608,185.59285333719924 648.7306080638376,183.13108876810566 644.2451970663238,180.9284270095867 640.0387094217559,178.96515659752276 636.1005535735883,177.22094124047862 632.419280961219,175.67652715469978 628.9826375973876,174.3137716598725 625.7796025253738,173.11598446348057 622.8064406429788,172.06861849685458 620.0608547090726,171.15786092799522 617.5400295663253,170.37026599175704 615.2406506741868,169.69277082487338 613.1657734688272,169.113189641536 611.3454524599485,168.62070823420322 609.8162558320855,168.20278287998303 608.6143306328144,167.84443117995409 607.7752976945083,167.5282443626271 607.3119447834545,167.2347907748624 607.1475971359747,166.94689746045026 607.1829446099629,166.65392828371705 607.3185460122663,166.352177058464 607.4551312312608,166.0448625912975 607.5131480061391,165.7400904519801 607.4904921917916,165.4420742393338 607.4043793608148,165.15248877713236 607.2719892563538,164.8718222311304 607.1104142936698,164.59938016190767 606.9340094228803,164.3337965306356 606.7466182729921,164.07491904375456 606.5494691555285,163.82293245016479 606.3437866855812,163.57794467083784 606.1307885397592,163.339987196337 605.911980869274,163.1089299629598 605.6900386885372,162.88418348299717 605.4678827842337,162.66488443512424 605.2483697230349,162.44997341598093 605.0342833972973,162.23819782962153 604.8262046616973,162.0289296344448 604.6162533715507,161.8249077899868 604.3946671863853,161.63030806239271 604.1519809694781,161.4499908237293 603.8790565999698,161.2894878111722 603.5711116469778,161.15303724361343 603.2394689927503,161.0371606977758 602.899069401265,160.9355422181493 602.5643624801846,160.84085903985374 602.2492633745219,160.7448039905671 601.9624889460881,160.6408861588841 601.6940454857647,160.53342841469384 601.4297778328197,160.43036364603233 601.1561276087117,160.3405955339914 600.8601751227859,160.27397164447984 600.5338739052123,160.23820824984716 600.186240906783,160.22913829704953 599.8300271977768,160.23882821808752 599.4773837524486,160.25850234003008 599.1398255266251,160.27856994980004 598.8248206825255,160.29158814860966 598.5260430133527,160.301562773696 598.2342180303448,160.31596936985284 597.9406270862561,160.34291430790427 597.6371344677951,160.39110989483208 597.3188533608154,160.46711500221022 596.9917055442993,160.5667424622269 596.6638316366218,160.6826158076949 596.3428344673312,160.8068321827875 596.0357568206642,160.9309862838727 595.7470923997806,161.04862487806145 595.4732040544983,161.16283344788337 595.2088207280003,161.2794281995957 594.9491043405288,161.4045775860336 594.689664776636,161.5447829629569 594.428060742327,161.704654824106 594.167963512281,161.8800758615156 593.9141565851814,162.06445169180847 593.6709595302032,162.25088147714632 593.4422151011346,162.4321783206658 593.2304904370903,162.60230921880452 593.0349048274679,162.7607817664741 592.8538335862191,162.9085858381028 592.685747249294,163.04679838067852 592.5292149336914,163.17657889412487 592.3830699183274,163.29880007823124 592.2468487091148,163.41292669852317 592.1202159943917,163.51806905521346 592.0027895798996,163.61334366149492 591.8941404007063,163.69787509213734 591.7934284125132,163.77185549751164 591.6984582941534,163.83976900072014 591.6070342321004,163.90729854581025 591.5173670281873,163.9802638938396 591.4280797129848,164.06460372029414 591.3386645657115,164.16454451283994 591.2505898878001,164.27708237213994 591.1655002098977,164.39731203727865 591.0846972285162,164.5202378875374 591.0091362965516,164.64078894028717 590.9393881088819,164.75405702464445 590.8755614434834,164.8559858387713 590.8174620602917,164.9427233658737 590.764634904342,165.01041143541 590.716363607703,165.0551970101684 590.6731700269439,165.05179760163878 590.629923696917,165.0491525427824 590.5866377908733,165.0472626393099 590.5436517915722,165.0274348983453 590.5000000000001,164.9946702477613" stroke="black" stroke-width="9.0" /><polyline fill="none" points="590.5000000000002,1132.3909090909092 573.6659379451047,1131.9510135773994 556.852213226178,1131.0747888273352 540.0788899898314,1129.6203364136427 523.3759615190418,1127.4467164815019 506.7833107528644,1124.414381071409 490.3457817201212,1120.4319787051568 474.0920193875636,1115.5951654512617 458.0377335823139,1110.046244189422 442.1889705674537,1103.9272310853828 426.5421465638408,1097.3794377386619 411.0918946848969,1090.502933059066 395.8601164072217,1083.2369012185927 380.8823783532988,1075.481915350138 366.20144152126545,1067.1406261287116 351.86717328608063,1058.118078012754 337.9300528402648,1048.3443261676236 324.4187684245702,1037.840737390607 311.3539028281489,1026.6515920951576 298.75354602708336,1014.8214695141204 286.63329802551686,1002.3951465616674 275.0165405682787,989.3907546199747 263.968964428512,975.7209177380263 253.57420994955285,961.2756639600107 243.92435292108664,945.9498926415159 235.11970293192726,929.6437508378525 227.2465164805335,912.308257089651 220.30426157112439,894.0782896963756 214.26077090767416,875.131319818066 209.07289981053938,855.6409482591124 204.68672082675891,835.7764461254361 201.0577188234129,815.6690424846026 198.21559056408034,795.3145299874067 196.21244610396778,774.6778342752814 195.10386655190806,753.7271189136234 194.94876771743427,732.4339483113606 195.82736671331875,710.7485213231649 197.89881834530564,688.5276094395432 201.35263410217064,665.6141590335324 206.3909487533595,641.8634195464797 213.2279942339276,617.1435126195676 222.01000346515363,591.427494753294 232.56331480462208,565.0572064570911 244.61091483071957,538.4488764372262 257.8496544771801,511.99776104441423 271.9511957223085,486.0770486403188 286.57807840550134,461.0222324642302 301.43200411859397,437.0885114416179 316.2130439181247,414.49732891689166 330.6058779328424,393.45075791199883 344.2806243490243,374.1308316600612 356.96866575753296,356.63819008290375 368.6968314291816,340.819871880654 379.5774201192578,326.46980868989067 389.7348989621745,313.3926284059007 399.3053949674582,301.4041480714412 408.4142013010992,290.3466663810914 417.1072880165712,280.1307881297747 425.4132614421243,270.68588769411167 433.36464247592886,261.94469255565764 440.9977014287122,253.84343668722806 448.3493942654478,246.3236117907834 455.44828642637793,239.3365142317666 462.3226923205811,232.8378446729688 469.0033810496904,226.78610482526187 475.52344300455167,221.1426933978994 481.91077350947046,215.87528291167644 488.1653440780181,210.96672862698358 494.2804736788392,206.40345643381227 500.25008132040244,202.1719423085956 506.0686773585016,198.2587326438586 511.7276334768893,194.65174532070853 517.2038362865147,191.34361161145023 522.47056475555,188.32692995916068 527.5012217397394,185.59285333719924 532.2693919361626,183.13108876810566 536.7548029336764,180.9284270095867 540.9612905782443,178.96515659752288 544.8994464264119,177.22094124047874 548.5807190387811,175.67652715469978 552.0173624026127,174.3137716598725 555.2203974746265,173.11598446348057 558.1935593570214,172.06861849685458 560.9391452909276,171.15786092799522 563.4599704336748,170.37026599175704 565.7593493258134,169.69277082487338 567.834226531173,169.113189641536 569.6545475400517,168.62070823420322 571.1837441679147,168.20278287998303 572.3856693671859,167.84443117995409 573.2247023054919,167.5282443626271 573.6880552165458,167.2347907748624 573.8524028640255,166.94689746045026 573.8170553900374,166.65392828371705 573.6814539877338,166.352177058464 573.5448687687394,166.0448625912975 573.4868519938611,165.7400904519801 573.5095078082086,165.4420742393338 573.5956206391854,165.15248877713236 573.7280107436465,164.8718222311304 573.8895857063304,164.59938016190767 574.0659905771199,164.3337965306356 574.2533817270081,164.07491904375456 574.4505308444717,163.82293245016479 574.656213314419,163.57794467083784 574.8692114602409,163.339987196337 575.0880191307263,163.1089299629598 575.309961311463,162.88418348299717 575.5321172157666,162.66488443512424 575.7516302769652,162.44997341598093 575.965716602703,162.23819782962153 576.173795338303,162.0289296344448 576.3837466284496,161.8249077899868 576.605332813615,161.63030806239271 576.8480190305221,161.4499908237293 577.1209434000305,161.2894878111722 577.4288883530224,161.15303724361343 577.7605310072498,161.0371606977758 578.1009305987352,160.9355422181493 578.4356375198156,160.84085903985374 578.7507366254783,160.7448039905671 579.037511053912,160.6408861588841 579.3059545142355,160.53342841469384 579.5702221671804,160.43036364603233 579.8438723912885,160.3405955339914 580.1398248772143,160.27397164447984 580.4661260947879,160.23820824984716 580.8137590932172,160.22913829704953 581.1699728022235,160.23882821808752 581.5226162475516,160.25850234003008 581.8601744733751,160.27856994980004 582.1751793174748,160.29158814860966 582.4739569866475,160.301562773696 582.7657819696554,160.31596936985284 583.059372913744,160.34291430790427 583.3628655322051,160.39110989483208 583.6811466391848,160.46711500221022 584.0082944557008,160.5667424622269 584.3361683633784,160.6826158076949 584.657165532669,160.8068321827875 584.9642431793359,160.9309862838727 585.2529076002196,161.04862487806145 585.5267959455018,161.16283344788337 585.7911792719999,161.2794281995957 586.0508956594714,161.4045775860336 586.3103352233642,161.5447829629569 586.5719392576731,161.704654824106 586.8320364877193,161.8800758615156 587.0858434148188,162.06445169180847 587.3290404697971,162.25088147714632 587.5577848988656,162.4321783206658 587.7695095629099,162.60230921880452 587.9650951725322,162.7607817664741 588.1461664137811,162.9085858381028 588.3142527507063,163.04679838067852 588.4707850663088,163.17657889412487 588.6169300816729,163.29880007823124 588.7531512908854,163.41292669852317 588.8797840056085,163.51806905521346 588.9972104201006,163.61334366149492 589.1058595992939,163.69787509213734 589.206571587487,163.77185549751164 589.3015417058467,163.83976900072014 589.3929657678998,163.90729854581025 589.482632971813,163.9802638938396 589.5719202870154,164.06460372029414 589.6613354342887,164.16454451283994 589.7494101122002,164.27708237213994 589.8344997901025,164.39731203727865 589.915302771484,164.5202378875374 589.9908637034487,164.64078894028717 590.0606118911182,164.75405702464445 590.1244385565168,164.8559858387713 590.1825379397085,164.9427233658737 590.2353650956583,165.01041143541 590.2836363922971,165.0551970101684 590.3268299730563,165.05179760163878 590.3700763030832,165.0491525427824 590.413362209127,165.0472626393099 590.456348208428,165.0274348983453 590.5000000000001,164.9946702477613" stroke="black" stroke-width="9.0" /><polyline fill="none" points="590.5000000000002,1132.3909090909092 607.3345699275974,1131.9801095850107 624.1501166854334,1131.1415087663556 640.9274709344521,1129.7417100793484 657.6381292218146,1127.6482234637913 674.2442911888595,1124.7298727089656 690.703462599463,1120.9005071089773 706.9882165058568,1116.2486343632315 723.0831458183721,1110.906345817123 738.9818088209057,1105.0054897073094 754.6866986704977,1098.677283555672 770.2009317086408,1092.0093942579201 785.4974584531043,1084.9191586728753 800.5334953483919,1077.2832622557585 815.2573972009397,1068.9809277272982 829.6087650282709,1059.894303983181 843.5280039373185,1049.9417599898657 856.9893505535125,1039.1756344187213 869.9806502401609,1027.681240565805 882.4950430200134,1015.5434245287697 894.530924026697,1002.8463429419004 906.0826298924196,989.6491025026804 917.1092255649604,975.9144447629375 927.556442717223,961.5834623541351 937.3652131465835,946.600268677977 946.4717916338512,930.9122150276073 954.8146450229857,914.4839605968524 962.3567924138424,897.3382916974818 969.0689888233012,879.5129606020095 974.923474877555,861.0465512891204 979.8939958154205,841.9784292771982 983.9578315955598,822.3520406572424 987.1023159315392,802.2246248455167 989.3196099685124,781.6565886353362 990.6047818087169,760.7079771875366 990.9557769231872,739.4383639638419 990.3320767646912,717.8498860459903 988.5228495471175,695.7224057407291 985.2573789038522,672.7946482370852 980.2451098952031,648.8233723456544 973.1764279053451,623.5842521199411 963.8347146089051,597.0007053675835 952.4486584317484,569.5129541425637 939.3894831674711,541.6664093681062 925.0630197089525,513.9783931445593 909.9084388947642,486.9366832573912 894.3549472894388,460.9575561296333 878.6888499740318,436.26869462007494 863.1686344070272,413.04018553588367 848.0648526083762,391.42595486267953 833.6594374436295,371.56323863885154 820.1876455184673,353.5256323256366 807.6588577207178,337.1913385684411 796.0171596074956,322.39653235047774 785.1973645331764,308.98415978654225 775.1253502091279,296.80430632366597 765.7231001009526,285.71771772825264 756.9235781906317,275.60497972672295 748.6577469378345,266.3561731911111 740.8502828323999,257.86780837627157 733.4198799337547,250.04307551492934 726.2909972904487,242.79842326652124 719.4293566029277,236.08119928645 712.8093921485615,229.84799237451318 706.4031649558524,224.05799502952107 700.1804875316542,218.67309564881134 694.1156828678072,213.66091862320718 688.208013013161,209.00283522859422 682.4625707523988,204.68353474181743 676.8837682087309,200.6878661887946 671.4753503673725,197.0008616056275 666.2412400883599,193.60804478985153 661.1880843173394,190.49619524630316 656.3228384705347,187.652305623767 651.6519469303407,185.0632829750698 647.1813443007428,182.71596479392156 642.9179779704818,180.59751412308526 638.8744239314245,178.6963601124163 635.0644036105869,177.00070076696863 631.5012521503538,175.4980804306465 628.1978936150094,174.17540012283064 625.1612898114561,173.01805335034112 622.3757206352077,172.0080847474395 619.8191834731214,171.1281874314061 617.4689637614683,170.36279667468398 615.3017135717784,169.6981131361748 613.3058157975228,169.12298235511878 611.518423767363,168.6297732763045 609.9887692873644,168.208807182589 608.7657709435376,167.84707458041055 607.8978899903889,167.5282443626271 607.4087772677802,167.23310055756133 607.2245905617161,166.94420879077757 607.2468333270315,166.6505800179342 607.3768636871856,166.348099089377 607.5161941288524,166.03952027999617 607.585108543512,165.73252709473024 607.5776229105002,165.43137593229608 607.5061698300952,165.1381830596149 607.3831876300276,164.8542101389511 607.2210833168257,164.5798662271966 607.0313776048572,164.3148700733227 606.8222372232375,164.0588457396933 606.6009397375594,163.8110495299951 606.3746751210068,163.57024331892217 606.150524383875,163.33469899284432 605.9339002630609,163.10264467793274 605.7239753377851,162.87380800809638 605.5183991864992,162.64847066104528 605.3148582027715,162.427079596442 605.1110827811668,162.210245139883 604.9040540068322,161.99904607069652 604.6876532921801,161.79606034952997 604.4551539049079,161.6046329736646 604.2000528964594,161.4285878228792 603.9160920507655,161.2722178968428 603.6006971834884,161.1386074133069 603.2650174962754,161.0241430850332 602.9232467759985,160.9226868799708 602.5891066522419,160.82714312131156 602.2758053851571,160.72947995358209 601.9913969088591,160.62351650247865 601.7253312091428,160.5138789250026 601.4629397442512,160.40882804894375 601.1901740204212,160.31763093932545 600.8936490327142,160.25053296041472 600.564926677213,160.21564709037625 600.2128446891603,160.20909090909106 599.8500377245273,160.22319428115838 599.4885551278204,160.24945593862515 599.1398255266251,160.27856994980004 598.8116065649758,160.30307500574747 598.4992737061851,160.32566596613276 598.1955065919077,160.35206837020132 597.8934165088016,160.38850503260414 597.5865677256145,160.44167663701273 597.2707827079486,160.5168936204576 596.9492555693844,160.61226448706702 596.6267478301966,160.72380154720838 596.3077274715828,160.847218161569 595.9963564162468,160.9779418573869 595.69561235838,161.11219743480547 595.4048292270293,161.2503492361551 595.122554593688,161.39390722641588 594.8474571415449,161.54448295298164 594.5783310273268,161.70378403511586 594.3146907507501,161.87273274861866 594.058424239316,162.0487515501161 593.8118045264198,162.22824922556322 593.5768621619243,162.40748579651608 593.3553788915524,162.58258304759875 593.148609849685,162.75002570871334 592.9565312235195,162.9081810776047 592.778773193715,163.05590015297867 592.6149085802148,163.19203917602408 592.4644527549565,163.31546183460898 592.3265817089117,163.42567467387107 592.1993751060792,163.5247674985486 592.0808197072809,163.61557828751506 591.969118163179,163.70106070098677 591.8626936247506,163.78427439899042 591.7602680966625,163.86816004751245 591.6610584840581,163.95487378054418 591.5645045967965,164.0464067148074 591.4701895975196,164.1447911469736 591.3778417798034,164.25209423939475 591.2876197218023,164.36927419954588 591.2008052557816,164.49272330463828 591.1186730954436,164.61761628987972 591.0421641428595,164.7390516441651 590.9718824211941,164.85206616631217 590.9080265670522,164.9520660068747 590.8502481521438,165.03609926554316 590.7979503567864,165.1016334386211 590.7503683318031,165.14614880605768 590.7065693703173,165.16714565575296 590.6653637638148,165.1634323653593 590.6252157177782,165.13898613624883 590.5848266744428,165.0991262281401 590.5432715184156,165.0492207328922 590.5000000000001,164.9946702477613" stroke="black" stroke-dasharray="8.0,8.0" stroke-width="7.0" /><polyline fill="none" points="590.5000000000002,1132.3909090909092 573.6654300724027,1131.9801095850107 556.8498833145669,1131.1415087663556 540.0725290655483,1129.7417100793484 523.3618707781859,1127.6482234637913 506.75570881114095,1124.7298727089656 490.2965374005374,1120.9005071089773 474.01178349414363,1116.2486343632318 457.91685418162785,1110.9063458171229 442.01819117909474,1105.0054897073096 426.3133013295023,1098.677283555672 410.79906829135973,1092.0093942579201 395.5025415468957,1084.919158672875 380.4665046516085,1077.2832622557587 365.7426027990607,1068.9809277272982 351.3912349717295,1059.8943039831813 337.47199606268185,1049.9417599898657 324.01064944648766,1039.1756344187213 311.01934975983943,1027.681240565805 298.50495697998673,1015.5434245287696 286.46907597330335,1002.8463429419005 274.9173701075805,989.6491025026804 263.89077443504,975.9144447629375 253.44355728277733,961.5834623541351 243.6347868534169,946.6002686779772 234.52820836614922,930.9122150276073 226.18535497701433,914.4839605968524 218.64320758615793,897.3382916974821 211.9310111766988,879.5129606020095 206.0765251224454,861.0465512891205 201.1060041845796,841.9784292771981 197.04216840444047,822.3520406572424 193.8976840684611,802.2246248455168 191.6803900314879,781.6565886353363 190.3952181912836,760.7079771875367 190.04422307681284,739.4383639638417 190.66792323530908,717.8498860459903 192.4771504528825,695.7224057407291 195.74262109614813,672.7946482370852 200.75489010479703,648.8233723456544 207.82357209465522,623.5842521199412 217.16528539109515,597.0007053675835 228.55134156825176,569.5129541425638 241.61051683252916,541.6664093681063 255.93698029104763,513.9783931445593 271.091561105236,486.9366832573912 286.6450527105613,460.9575561296333 302.3111500259684,436.26869462007505 317.83136559297293,413.04018553588355 332.935147391624,391.42595486267953 347.34056255637074,371.56323863885154 360.81235448153296,353.5256323256368 373.3411422792823,337.1913385684411 384.9828403925046,322.39653235047774 395.80263546682386,308.98415978654236 405.8746497908724,296.8043063236661 415.2768998990476,285.71771772825264 424.0764218093684,275.60497972672295 432.3422530621657,266.3561731911112 440.1497171676004,257.86780837627157 447.5801200662455,250.04307551492946 454.7090027095515,242.79842326652124 461.57064339707244,236.08119928645 468.1906078514387,229.84799237451318 474.59683504414784,224.05799502952107 480.8195124683459,218.67309564881134 486.88431713219296,213.66091862320707 492.79198698683916,209.00283522859422 498.5374292476014,204.68353474181743 504.11623179126934,200.68786618879471 509.52464963262776,197.0008616056275 514.7587599116404,193.60804478985153 519.8119156826608,190.49619524630316 524.6771615294655,187.652305623767 529.3480530696595,185.0632829750698 533.8186556992574,182.71596479392156 538.0820220295183,180.59751412308526 542.1255760685756,178.6963601124163 545.9355963894134,177.00070076696863 549.4987478496464,175.4980804306465 552.8021063849908,174.17540012283064 555.838710188544,173.01805335034112 558.6242793647925,172.0080847474395 561.1808165268787,171.128187431406 563.5310362385319,170.36279667468398 565.6982864282219,169.6981131361748 567.6941842024775,169.12298235511878 569.4815762326373,168.6297732763045 571.0112307126358,168.208807182589 572.2342290564625,167.84707458041055 573.1021100096112,167.5282443626271 573.59122273222,167.23310055756133 573.775409438284,166.94420879077757 573.7531666729687,166.6505800179342 573.6231363128146,166.348099089377 573.4838058711478,166.03952027999617 573.4148914564881,165.73252709473024 573.4223770895001,165.43137593229608 573.4938301699049,165.1381830596149 573.6168123699726,164.8542101389511 573.7789166831745,164.5798662271966 573.968622395143,164.3148700733227 574.1777627767626,164.0588457396933 574.3990602624408,163.8110495299951 574.6253248789933,163.57024331892217 574.8494756161251,163.33469899284432 575.0660997369393,163.10264467793274 575.2760246622151,162.87380800809638 575.4816008135009,162.64847066104528 575.6851417972288,162.427079596442 575.8889172188334,162.210245139883 576.095945993168,161.99904607069652 576.31234670782,161.79606034952997 576.5448460950923,161.6046329736646 576.7999471035407,161.4285878228792 577.0839079492347,161.2722178968428 577.3993028165119,161.1386074133069 577.7349825037247,161.0241430850332 578.0767532240018,160.9226868799708 578.4108933477584,160.82714312131156 578.724194614843,160.72947995358209 579.0086030911411,160.62351650247865 579.2746687908574,160.5138789250026 579.537060255749,160.40882804894375 579.809825979579,160.31763093932545 580.1063509672861,160.25053296041472 580.4350733227873,160.21564709037625 580.7871553108399,160.20909090909106 581.1499622754728,160.22319428115838 581.5114448721798,160.24945593862515 581.8601744733751,160.27856994980004 582.1883934350243,160.30307500574747 582.5007262938151,160.32566596613276 582.8044934080924,160.35206837020132 583.1065834911986,160.38850503260414 583.4134322743857,160.44167663701273 583.7292172920517,160.5168936204576 584.0507444306159,160.61226448706702 584.3732521698037,160.72380154720838 584.6922725284174,160.847218161569 585.0036435837534,160.9779418573869 585.3043876416202,161.11219743480547 585.595170772971,161.2503492361551 585.8774454063122,161.39390722641588 586.1525428584553,161.54448295298164 586.4216689726734,161.70378403511586 586.6853092492502,161.87273274861866 586.9415757606841,162.0487515501161 587.1881954735804,162.22824922556322 587.423137838076,162.40748579651608 587.6446211084477,162.58258304759875 587.8513901503152,162.75002570871334 588.0434687764807,162.9081810776047 588.2212268062851,163.05590015297867 588.3850914197855,163.19203917602408 588.5355472450437,163.31546183460898 588.6734182910885,163.42567467387107 588.800624893921,163.5247674985486 588.9191802927193,163.61557828751506 589.0308818368212,163.70106070098677 589.1373063752496,163.78427439899042 589.2397319033378,163.86816004751245 589.3389415159421,163.95487378054418 589.4354954032037,164.0464067148074 589.5298104024806,164.1447911469736 589.6221582201969,164.25209423939475 589.7123802781979,164.36927419954588 589.7991947442187,164.49272330463828 589.8813269045567,164.61761628987972 589.9578358571407,164.7390516441651 590.0281175788061,164.85206616631217 590.0919734329481,164.9520660068747 590.1497518478565,165.03609926554316 590.2020496432139,165.1016334386211 590.2496316681971,165.14614880605768 590.2934306296829,165.16714565575296 590.3346362361855,165.1634323653593 590.3747842822219,165.13898613624883 590.4151733255574,165.0991262281401 590.4567284815845,165.0492207328922 590.5000000000001,164.9946702477613" stroke="black" stroke-dasharray="8.0,8.0" stroke-width="7.0" /></g><rect fill="white" height="111.60000000000001" stroke="none" width="1181" x="0" y="0" /><line stroke="black" stroke-width="3.0" x1="0" x2="1181" y1="111.60000000000001" y2="111.60000000000001" /><text font-family="Arial" font-size="62.0" text-anchor="start" x="40.0" y="77.5">LED</text><text font-family="Arial" font-size="62.0" text-anchor="middle" x="590.5" y="77.5" /><text font-family="Arial" font-size="62.0" text-anchor="end" x="1141.0" y="77.5">cd / klm</text><rect fill="none" height="1178.0" stroke="black" stroke-width="3.0" width="1178.0" x="1.5" y="1.5" /></svg>