<?xml version="1.0" encoding="utf-8" ?>
<svg baseProfile="full" height="1181" version="1.1" width="1181" xmlns="http://www.w3.org/2000/svg" xmlns:ev="http://www.w3.org/2001/xml-events" xmlns:xlink="http://www.w3.org/1999/xlink"><defs><clipPath id="plot_clip"><rect height="1069.4" width="1181.0" x="0" y="111.60000000000001" /></clipPath></defs><g clip-path="url(#plot_clip)" id="grid"><circle cx="590.4999999999999" cy="160.21356527070748" fill="none" r="226.29299686231738" stroke="black" stroke-width="3.0" /><text font-family="Arial" font-size="42.0" text-anchor="start" x="598.4999999999999" y="426.5065621330249">200</text><circle cx="590.4999999999999" cy="160.21356527070748" fill="none" r="452.58599372463476" stroke="black" stroke-width="3.0" /><text font-family="Arial" font-size="42.0" text-anchor="start" x="598.4999999999999" y="652.7995589953423">400</text><circle cx="590.4999999999999" cy="160.21356527070748" fill="none" r="678.8789905869521" stroke="black" stroke-width="3.0" /><text font-family="Arial" font-size="42.0" text-anchor="start" x="598.5" y="879.0925558576597">600</text><circle cx="590.4999999999999" cy="160.21356527070748" fill="none" r="905.1719874492695" stroke="black" stroke-width="3.0" /><text font-family="Arial" font-size="42.0" text-anchor="start" x="598.5" y="1105.3855527199769">800</text><circle cx="590.4999999999999" cy="160.21356527070748" fill="none" r="1131.464984311587" stroke="black" stroke-width="3.0" /><text font-family="Arial" font-size="42.0" text-anchor="start" x="598.5" y="1331.6785495822944">1000</text><line stroke="black" stroke-width="3.0" x1="-4270.386719101009" x2="5451.386719101009" y1="160.21356527070725" y2="160.2135652707077" /><line stroke="black" stroke-width="3.0" x1="-3619.1513836598665" x2="4800.151383659866" y1="-2270.2297942797977" y2="2590.6569248212127" /><line stroke="black" stroke-width="3.0" x1="-1839.943359550504" x2="3020.943359550504" y1="-4049.437818389159" y2="4369.8649489305735" /><line stroke="black" stroke-width="3.0" x1="590.4999999999999" x2="590.4999999999999" y1="-4700.673153830301" y2="5021.100284371716" /><line stroke="black" stroke-width="3.0" x1="3020.9433595505034" x2="-1839.9433595505036" y1="-4049.437818389159" y2="4369.8649489305735" /><line stroke="black" stroke-width="3.0" x1="4800.151383659866" x2="-3619.151383659866" y1="-2270.2297942797977" y2="2590.6569248212127" /><line stroke="black" stroke-width="3.0" x1="5451.3867191010095" x2="-4270.3867191010095" y1="160.21356527070725" y2="160.2135652707077" /></g><g clip-path="url(#plot_clip)" id="curves"><polyline fill="none" points="590.5,1132.3909090909092 607.448767122395,1131.2077834014085 624.3501414902773,1129.5547906488168 641.1806942930264,1127.2588205049158 657.9048560719671,1124.1479160376105 674.4749646941086,1120.051803846907 690.8344253596835,1114.8318554477278 706.931181758559,1108.4694445308887 722.7156939877319,1100.9771110950326 738.1389204141591,1092.3690226605927 753.1523635000132,1082.6609573061842 767.7066155633083,1071.8625710234323 781.7458296300063,1059.9544536602223 795.2103939958279,1046.9116980788401 808.0382375342933,1032.7117806882432 820.1649098514031,1017.3346775518697 831.5265681294655,1000.7731003148111 842.0701828178966,983.0625564731596 851.747364323611,964.2502775799111 860.5118525471623,944.3849245395772 868.319551417948,923.516509474532 875.1177261535632,901.6680912913706 880.8086008114349,878.7525665727695 885.2751094653863,854.660204290694 888.3909797392787,829.2876603794831 890.0209883719425,802.5383976722015 890.0444726911734,774.3707483532654 888.4319634279933,744.9379666202636 885.1871565083011,714.4394995135265 880.325207946245,683.0720810872045 873.872576658376,651.0292655147216 865.8513353517753,618.4751431344841 856.2288469668867,585.4686144340818 844.9579644356957,552.0444694688123 831.9917172874943,518.23975954026 817.2833939273767,484.0938172703027 800.8831696268401,449.7811563165103 783.2462600172169,415.9964915132564 764.974821555927,383.5311531495971 746.724341491931,353.1345603606542 729.2017949024597,325.5119276449792 713.0349748937958,301.17392916815004 698.3637286330667,280.00837218673144 685.1892924635666,261.75539968301257 673.4980906125218,246.16060408671058 663.262053579479,232.97561885018672 654.4315025424447,221.9514996324964 646.9121499283423,212.81874612034642 640.5861555599071,205.3113423001787 635.3198594129593,199.174874649181 630.9643387732308,194.16717701115806 627.3670253229997,190.06789372866876 624.4066544024072,186.7043469982391 621.9628384698271,183.9225146273759 619.90577977684,181.57811484774186 618.0967162308458,179.53699400538005 616.4148180035672,177.693330726535 614.8394296219001,176.01977568126586 613.3753211460676,174.50765236996858 612.0268897220693,173.1482255548483 610.7981607533609,171.93271384571472 609.686920316567,170.84904887168364 608.66666261614,169.87295112552124 607.7034659894884,168.97916901186375 606.7618568244,168.14500279455967 605.8049237261602,167.35036841169415 604.8033012868931,166.5818052982429 603.7624312139724,165.8431333227511 602.6969524019605,165.1414539163627 601.6219341468427,164.4828757897127 600.552832997795,163.8724972519541 599.5053799888437,163.3143662690327 598.495326034511,162.8114041771239 597.5385991370039,162.36548098137814 596.6513285789725,161.9774303570142 595.8498005682031,161.6470400126252 595.1439134193361,161.37142292892725 594.517413846381,161.1410583384244 593.9470236263666,160.94625276072327 593.408953499748,160.77900855125574 592.8789781686132,160.63304330835035 592.3417064065156,160.50526290914559 591.818432815448,160.39885891908955 591.3398913279281,160.31669095861332 590.9370252389567,160.25949847423988 590.6408949273058,160.2258919795952 590.4999999999999,160.21356527070748 590.4999999999999,160.21356527070748 590.4999999999999,160.21356527070748 590.4999999999999,160.21356527070748 590.5113146498429,160.21356527070748 590.5390794950403,160.2128831355842 590.5449811598312,160.21199449399353 590.536430580834,160.21165602486803 590.520847073241,160.2121075013374 590.505635797092,160.213072202352 590.4999999999999,160.21356527070748 590.4999999999999,160.21356527070748 590.4999999999999,160.21356527070748 590.4999999999999,160.21356527070748 590.4999999999999,160.21356527070748 590.5016541974691,160.21324372729202 590.5020484103597,160.2131298676445 590.5016180469812,160.21319171512778 590.5007937300174,160.2133673715873 590.4999999999999,160.21356527070748 590.4999999999999,160.21356527070748 590.4999999999999,160.21356527070748 590.4999999999999,160.21356527070748 590.4999999999999,160.21356527070748 590.4999999999999,160.21356527070748 590.5001129529082,160.21352191214828 590.5001394065997,160.21350894678505 590.500109748396,160.21351868527722 590.5000536542035,160.21354138231686 590.4999999999999,160.21356527070748 590.4999999999999,160.21356527070748 590.4999999999999,160.21356527070748 590.4999999999999,160.21356527070748 590.4999999999999,160.21356527070748 590.4999999999999,160.21356527070748 590.5000074458824,160.2135607967699 590.5000091546734,160.21355955023262 590.5000071790735,160.2135606085625 590.5000034958491,160.2135629127274 590.4999999999999,160.21356527070748 590.4999999999999,160.21356527070748 590.4999999999999,160.21356527070748 590.4999999999999,160.21356527070748 590.4999999999999,160.21356527070748 590.4999999999999,160.21356527070748 590.5000004706902,160.21356486154252 590.5000005759711,160.21356475210064 590.5000004494788,160.2135648515615 590.5000002177795,160.21356506040001 590.4999999999999,160.21356527070748 590.4999999999999,160.21356527070748 590.4999999999999,160.21356527070748 590.4999999999999,160.21356527070748 590.4999999999999,160.21356527070748 590.4999999999999,160.21356527070748 590.5000000281792,160.21356523590873 590.5000000342588,160.213565226858 590.500000026555,160.2135652354675 590.5000000127761,160.2135652531224 590.4999999999999,160.21356527070748 590.4999999999999,160.21356527070748 590.4999999999999,160.21356527070748 590.4999999999999,160.21356527070748 590.4999999999999,160.21356527070748 590.4999999999999,160.21356527070748 590.5000000015584,160.21356526789566 590.5000000018754,160.21356526718 590.500000001438,160.21356526788475 590.5000000006839,160.21356526930492 590.4999999999999,160.21356527070748 590.4999999999999,160.21356527070748 590.4999999999999,160.21356527070748 590.4999999999999,160.21356527070748 590.4999999999999,160.21356527070748 590.4999999999999,160.21356527070748 590.5000000000749,160.2135652704892 590.5000000000884,160.21356527043463 590.5000000000663,160.21356527049 590.5000000000307,160.21356527059982 590.4999999999999,160.21356527070748 590.4999999999999,160.21356527070748 590.4999999999999,160.21356527070748 590.4999999999999,160.21356527070748 590.4999999999999,160.21356527070748 590.4999999999999,160.21356527070748 590.5000000000024,160.213565270691 590.5000000000028,160.2135652706868 590.5000000000019,160.21356527069088 590.5000000000007,160.21356527069918 590.4999999999999,160.21356527070748 590.4999999999999,160.21356527070748 590.4999999999999,160.21356527070748 590.4999999999999,160.21356527070748 590.4999999999999,160.21356527070748 590.4999999999999,160.21356527070748" stroke="black" stroke-width="9.0" /><polyline fill="none" points="590.5,1132.3909090909092 573.5512328776044,1131.2077834014085 556.6498585097227,1129.5547906488168 539.8193057069734,1127.2588205049158 523.0951439280328,1124.1479160376105 506.5250353058914,1120.051803846907 490.16557464031644,1114.8318554477278 474.0688182414409,1108.4694445308887 458.2843060122677,1100.9771110950323 442.8610795858408,1092.3690226605927 427.84763649998644,1082.6609573061842 413.2933844366915,1071.8625710234323 399.2541703699933,1059.9544536602223 385.7896060041719,1046.9116980788401 372.96176246570656,1032.7117806882432 360.8350901485967,1017.3346775518697 349.47343187053434,1000.7731003148111 338.9298171821029,983.0625564731595 329.2526356763888,964.2502775799112 320.4881474528372,944.3849245395771 312.68044858205195,923.516509474532 305.88227384643625,901.6680912913706 300.19139918856484,878.7525665727695 295.7248905346135,854.660204290694 292.60902026072114,829.2876603794832 290.97901162805726,802.5383976722017 290.9555273088261,774.3707483532654 292.5680365720065,744.9379666202638 295.81284349169846,714.4394995135264 300.6747920537548,683.0720810872047 307.1274233416236,651.0292655147215 315.14866464822444,618.4751431344843 324.7711530331131,585.4686144340818 336.0420355643042,552.0444694688123 349.0082827125055,518.2397595402601 363.7166060726228,484.0938172703027 380.11683037315976,449.7811563165104 397.7537399827828,415.9964915132564 416.02517844407265,383.5311531495971 434.2756585080686,353.1345603606542 451.79820509754006,325.5119276449792 467.9650251062038,301.17392916815004 482.63627136693304,280.00837218673144 495.81070753643303,261.75539968301257 507.5019093874778,246.16060408671046 517.7379464205206,232.97561885018672 526.5684974575549,221.9514996324964 534.0878500716574,212.81874612034653 540.4138444400926,205.3113423001787 545.6801405870403,199.174874649181 550.0356612267689,194.16717701115806 553.632974677,190.06789372866876 556.5933455975925,186.7043469982391 559.0371615301724,183.9225146273759 561.0942202231597,181.57811484774186 562.903283769154,179.53699400538005 564.5851819964325,177.693330726535 566.1605703780996,176.01977568126586 567.6246788539321,174.50765236996858 568.9731102779303,173.1482255548483 570.2018392466388,171.93271384571472 571.3130796834326,170.84904887168364 572.3333373838597,169.87295112552124 573.2965340105112,168.97916901186375 574.2381431755996,168.14500279455967 575.1950762738395,167.35036841169415 576.1966987131065,166.5818052982429 577.2375687860273,165.8431333227511 578.3030475980391,165.1414539163627 579.378065853157,164.4828757897127 580.4471670022047,163.8724972519541 581.4946200111559,163.3143662690327 582.5046739654887,162.8114041771239 583.4614008629958,162.36548098137814 584.3486714210271,161.9774303570142 585.1501994317965,161.6470400126252 585.8560865806636,161.37142292892725 586.4825861536186,161.1410583384244 587.0529763736331,160.94625276072327 587.5910465002517,160.77900855125574 588.1210218313864,160.63304330835035 588.658293593484,160.50526290914559 589.1815671845517,160.39885891908955 589.6601086720716,160.31669095861332 590.0629747610429,160.25949847423988 590.3591050726939,160.2258919795952 590.4999999999999,160.21356527070748 590.4999999999999,160.21356527070748 590.4999999999999,160.21356527070748 590.4999999999999,160.21356527070748 590.4886853501567,160.21356527070748 590.4609205049594,160.2128831355842 590.4550188401685,160.21199449399353 590.4635694191657,160.21165602486803 590.4791529267586,160.2121075013374 590.4943642029076,160.213072202352 590.4999999999999,160.21356527070748 590.4999999999999,160.21356527070748 590.4999999999999,160.21356527070748 590.4999999999999,160.21356527070748 590.4999999999999,160.21356527070748 590.4983458025306,160.21324372729202 590.4979515896399,160.2131298676445 590.4983819530185,160.21319171512778 590.4992062699822,160.2133673715873 590.4999999999999,160.21356527070748 590.4999999999999,160.21356527070748 590.4999999999999,160.21356527070748 590.4999999999999,160.21356527070748 590.4999999999999,160.21356527070748 590.4999999999999,160.21356527070748 590.4998870470914,160.21352191214828 590.4998605934,160.21350894678505 590.4998902516037,160.21351868527722 590.4999463457962,160.21354138231686 590.4999999999999,160.21356527070748 590.4999999999999,160.21356527070748 590.4999999999999,160.21356527070748 590.4999999999999,160.21356527070748 590.4999999999999,160.21356527070748 590.4999999999999,160.21356527070748 590.4999925541173,160.2135607967699 590.4999908453262,160.21355955023262 590.4999928209262,160.2135606085625 590.4999965041505,160.2135629127274 590.4999999999999,160.21356527070748 590.4999999999999,160.21356527070748 590.4999999999999,160.21356527070748 590.4999999999999,160.21356527070748 590.4999999999999,160.21356527070748 590.4999999999999,160.21356527070748 590.4999995293094,160.21356486154252 590.4999994240286,160.21356475210064 590.4999995505209,160.2135648515615 590.4999997822201,160.21356506040001 590.4999999999999,160.21356527070748 590.4999999999999,160.21356527070748 590.4999999999999,160.21356527070748 590.4999999999999,160.21356527070748 590.4999999999999,160.21356527070748 590.4999999999999,160.21356527070748 590.4999999718204,160.21356523590873 590.4999999657408,160.213565226858 590.4999999734447,160.2135652354675 590.4999999872235,160.2135652531224 590.4999999999999,160.21356527070748 590.4999999999999,160.21356527070748 590.4999999999999,160.21356527070748 590.4999999999999,160.21356527070748 590.4999999999999,160.21356527070748 590.4999999999999,160.21356527070748 590.4999999984412,160.21356526789566 590.4999999981243,160.21356526718 590.4999999985616,160.21356526788475 590.4999999993157,160.21356526930492 590.4999999999999,160.21356527070748 590.4999999999999,160.21356527070748 590.4999999999999,160.21356527070748 590.4999999999999,160.21356527070748 590.4999999999999,160.21356527070748 590.4999999999999,160.21356527070748 590.4999999999247,160.2135652704892 590.4999999999112,160.21356527043463 590.4999999999334,160.21356527049 590.499999999969,160.21356527059982 590.4999999999999,160.21356527070748 590.4999999999999,160.21356527070748 590.4999999999999,160.21356527070748 590.4999999999999,160.21356527070748 590.4999999999999,160.21356527070748 590.4999999999999,160.21356527070748 590.4999999999973,160.213565270691 590.4999999999968,160.2135652706868 590.4999999999977,160.21356527069088 590.499999999999,160.21356527069918 590.4999999999999,160.21356527070748 590.4999999999999,160.21356527070748 590.4999999999999,160.21356527070748 590.4999999999999,160.21356527070748 590.4999999999999,160.21356527070748 590.4999999999999,160.21356527070748" stroke="black" stroke-width="9.0" /><polyline fill="none" points="590.5,1132.3909090909092 607.4602011697339,1131.862839534731 624.3984568200225,1130.9383606688489 641.299071625714,1129.517594570656 658.1393521549306,1127.5013662585782 674.8896351810866,1124.7915092014794 691.5150184867416,1121.3072665035988 707.9827313018507,1117.0336282976348 724.2610321394742,1111.9727633907855 740.3181093251184,1106.1278799479253 756.122110825059,1099.503231319576 771.6399611964846,1092.0978800967885 786.8328826308759,1083.8871563766265 801.6585534147772,1074.8417450355569 816.072159345499,1064.934081110145 830.0264546796108,1054.1384638918587 843.4626741302243,1042.3992487850735 856.2786973040412,1029.5365132849354 868.3488808549125,1015.3444917004406 879.5323563121275,999.6244784726629 889.6733183904687,982.1855020518285 898.6202537510571,962.8942689282662 906.289884114996,941.8209558855891 912.6226119155609,919.0868826373088 917.5653388867803,894.8143438798605 921.0714615350897,869.126352255667 923.0681503660686,842.0793215531795 923.3488820671852,813.4662779614101 921.6554958598932,783.0264704792968 917.7091427891852,750.5144848238241 911.2109211406583,715.7011752285437 901.9503986990383,678.5540735954054 890.1548052361769,639.7614968832324 876.2089178828867,600.1667177679424 860.5522158703687,560.5824399804932 843.6774777775574,521.7884755107226 826.0815674380182,484.4637754886561 808.1115641435523,448.99386459212644 790.0907717733951,415.67810346502324 772.3633300638385,384.79607444453734 755.2933836609188,356.6066722843635 739.2032341296072,331.27706786499675 724.1797696578934,308.6799904322479 710.2399980105029,288.6189924755886 697.389752649595,270.90114437293903 685.6239140176168,255.33747928832452 674.9314933120513,241.74811060235413 665.3110739702391,229.97602035811622 656.7576257055835,219.87219942158754 649.2580097481776,211.29112388527494 642.7911761419946,204.0910718852814 637.314171913169,198.12293421323818 632.7181722675418,193.19801644072243 628.8686458351974,189.12641373678036 625.6196480577196,185.72948315322174 622.8143412724916,182.84031062198744 620.3129558189943,180.32265788286622 618.078166291897,178.12303586712915 616.0976139653746,176.2087297196764 614.3572102057833,174.5484233632252 612.8412051738657,173.1122660918595 611.5261224073196,171.8685352380387 610.3619555077012,170.7743543453929 609.289884836985,169.78748978822102 608.2484824223563,168.87007854567912 607.1739068534247,167.9887357278227 606.0173489002605,167.12233412104433 604.7980258584255,166.28271716912286 603.5533418228467,165.48745770192852 602.3218072155,164.7515318898602 601.1429252573166,164.08727326989083 600.0494360758594,163.5016998029704 599.0439197342275,162.98965307539106 598.1210375455403,162.54355027292752 597.2750986670645,162.15629355154897 596.5000827618867,161.82128260127502 595.7903248866527,161.53259140908824 595.1425466539242,161.28538161891504 594.553927890922,161.0752542444601 594.0214628152249,160.89806830134796 593.5419720844563,160.7499470237591 593.1113671149471,160.62716518969034 592.7224031154328,160.52590365959554 592.3669141985484,160.44279351081968 592.0365831354144,160.37506666607737 591.7229679690155,160.32056110385167 591.4210437612392,160.2779709245914 591.1398044596839,160.24709600161498 590.8917685640321,160.22724613042624 590.6894375609647,160.216871915634 590.5452585993722,160.21356527070748 590.4999999999999,160.21356527070748 590.4999999999999,160.21356527070748 590.4999999999999,160.21356527070748 590.4999999999999,160.21356527070748 590.5112715941842,160.21257913399654 590.5290268977391,160.2105144208184 590.5345935765841,160.20931771359642 590.531836737173,160.20909090909106 590.5246040518101,160.20966837173182 590.516714132332,160.21061811821824 590.5111961301542,160.2113889634669 590.5080529857953,160.21185355573562 590.5065397613274,160.21205544783948 590.5059193220586,160.21208941796033 590.5054645562493,160.21210104727345 590.5046143939861,160.21224211452386 590.5034310930799,160.212516280282 590.5021285921879,160.21287364918032 590.5009166079554,160.21324965727774 590.4999999999999,160.21356527070748 590.4999999999999,160.21356527070748 590.4999999999999,160.21356527070748 590.4999999999999,160.21356527070748 590.4999999999999,160.21356527070748 590.4999999999999,160.21356527070748 590.5001228532543,160.21350535117176 590.5001513488608,160.21348815461113 590.5001189290156,160.2135020350281 590.5000580328162,160.21353310259212 590.4999999999999,160.21356527070748 590.4999999999999,160.21356527070748 590.4999999999999,160.21356527070748 590.4999999999999,160.21356527070748 590.4999999999999,160.21356527070748 590.4999999999999,160.21356527070748 590.5000079394244,160.21355950237785 590.5000097398391,160.213557931212 590.5000076206135,160.2135593168315 590.500003702217,160.2135622727111 590.4999999999999,160.21356527070748 590.4999999999999,160.21356527070748 590.4999999999999,160.21356527070748 590.4999999999999,160.21356527070748 590.4999999999999,160.21356527070748 590.4999999999999,160.21356527070748 590.500000489449,160.21356476386813 590.5000005971608,160.21356463033078 590.5000004645938,160.21356475472362 590.5000002243917,160.21356501257412 590.4999999999999,160.21356527070748 590.4999999999999,160.21356527070748 590.4999999999999,160.21356527070748 590.4999999999999,160.21356527070748 590.4999999999999,160.21356527070748 590.4999999999999,160.21356527070748 590.5000000282878,160.21356522876874 590.5000000342388,160.21356521798396 590.5000000264165,160.21356522843212 590.5000000126474,160.21356524965836 590.4999999999999,160.21356527070748 590.4999999999999,160.21356527070748 590.4999999999999,160.21356527070748 590.4999999999999,160.21356527070748 590.4999999999999,160.21356527070748 590.4999999999999,160.21356527070748 590.500000001477,160.21356526738953 590.5000000017634,160.2135652665528 590.5000000013406,160.21356526738907 590.5000000006316,160.21356526906152 590.4999999999999,160.21356527070748 590.4999999999999,160.21356527070748 590.4999999999999,160.21356527070748 590.4999999999999,160.21356527070748 590.4999999999999,160.21356527070748 590.4999999999999,160.21356527070748 590.500000000063,160.2135652704543 590.5000000000728,160.21356527039143 590.5000000000533,160.21356527045577 590.500000000024,160.21356527058288 590.4999999999999,160.21356527070748 590.4999999999999,160.21356527070748 590.4999999999999,160.21356527070748 590.4999999999999,160.21356527070748 590.4999999999999,160.21356527070748 590.4999999999999,160.21356527070748 590.5000000000013,160.21356527068644 590.5000000000013,160.21356527067928 590.5000000000007,160.2135652706828 590.5000000000001,160.21356527069338 590.4999999999999,160.21356527070748" stroke="black" stroke-dasharray="8.0,8.0" stroke-width="7.0" /><polyline fill="none" points="590.5,1132.3909090909092 573.5397988302657,1131.862839534731 556.6015431799775,1130.9383606688489 539.7009283742859,1129.517594570656 522.8606478450693,1127.5013662585782 506.1103648189132,1124.7915092014794 489.48498151325816,1121.3072665035988 473.01726869814917,1117.033628297635 456.7389678605252,1111.9727633907855 440.6818906748815,1106.1278799479253 424.8778891749404,1099.503231319576 409.36003880351535,1092.0978800967885 394.16711736912356,1083.8871563766265 379.3414465852227,1074.841745035557 364.9278406545008,1064.934081110145 350.97354532038906,1054.1384638918587 337.5373258697755,1042.3992487850735 324.7213026959583,1029.5365132849354 312.6511191450873,1015.3444917004407 301.46764368787206,999.6244784726629 291.3266816095312,982.1855020518286 282.37974624894235,962.8942689282662 274.710115885004,941.8209558855893 268.3773880844389,919.0868826373088 263.4346611132196,894.8143438798605 259.92853846491016,869.126352255667 257.931849633931,842.0793215531795 257.6511179328147,813.4662779614101 259.3445041401064,783.0264704792966 263.2908572108146,750.5144848238241 269.78907885934126,715.7011752285435 279.04960130096157,678.5540735954055 290.8451947638229,639.7614968832326 304.7910821171131,600.1667177679426 320.447784129631,560.5824399804933 337.3225222224421,521.7884755107226 354.91843256198166,484.4637754886563 372.8884358564474,448.99386459212644 390.9092282266047,415.67810346502324 408.6366699361612,384.79607444453734 425.7066163390809,356.6066722843635 441.7967658703925,331.27706786499675 456.82023034210624,308.6799904322479 470.76000198949686,288.6189924755886 483.61024735040473,270.90114437293903 495.37608598238285,255.33747928832452 506.06850668794834,241.74811060235413 515.6889260297605,229.97602035811622 524.2423742944162,219.87219942158754 531.741990251822,211.29112388527494 538.2088238580051,204.0910718852814 543.6858280868306,198.12293421323818 548.2818277324579,193.19801644072243 552.1313541648022,189.12641373678036 555.3803519422802,185.72948315322174 558.1856587275081,182.84031062198744 560.6870441810054,180.32265788286622 562.9218337081027,178.12303586712915 564.9023860346251,176.2087297196764 566.6427897942164,174.5484233632252 568.158794826134,173.1122660918595 569.47387759268,171.8685352380387 570.6380444922985,170.7743543453929 571.7101151630146,169.78748978822102 572.7515175776433,168.87007854567912 573.8260931465749,167.9887357278227 574.9826510997392,167.12233412104433 576.2019741415742,166.28271716912286 577.4466581771529,165.48745770192852 578.6781927844996,164.7515318898602 579.857074742683,164.08727326989083 580.9505639241403,163.5016998029704 581.9560802657721,162.98965307539106 582.8789624544594,162.54355027292752 583.7249013329351,162.15629355154897 584.499917238113,161.82128260127502 585.209675113347,161.53259140908824 585.8574533460754,161.28538161891515 586.4460721090777,161.0752542444601 586.9785371847747,160.89806830134796 587.4580279155433,160.7499470237591 587.8886328850525,160.62716518969034 588.2775968845668,160.52590365959554 588.6330858014512,160.44279351081968 588.9634168645853,160.37506666607737 589.2770320309842,160.32056110385167 589.5789562387605,160.2779709245914 589.8601955403158,160.24709600161498 590.1082314359676,160.22724613042624 590.3105624390349,160.216871915634 590.4547414006274,160.21356527070748 590.4999999999999,160.21356527070748 590.4999999999999,160.21356527070748 590.4999999999999,160.21356527070748 590.4999999999999,160.21356527070748 590.4887284058154,160.21257913399654 590.4709731022606,160.2105144208184 590.4654064234155,160.20931771359642 590.4681632628267,160.20909090909106 590.4753959481895,160.20966837173182 590.4832858676677,160.21061811821824 590.4888038698455,160.2113889634669 590.4919470142044,160.21185355573562 590.4934602386722,160.21205544783948 590.494080677941,160.21208941796033 590.4945354437504,160.21210104727345 590.4953856060135,160.21224211452386 590.4965689069197,160.212516280282 590.4978714078118,160.21287364918032 590.4990833920442,160.21324965727774 590.4999999999999,160.21356527070748 590.4999999999999,160.21356527070748 590.4999999999999,160.21356527070748 590.4999999999999,160.21356527070748 590.4999999999999,160.21356527070748 590.4999999999999,160.21356527070748 590.4998771467453,160.21350535117176 590.4998486511389,160.21348815461113 590.4998810709841,160.2135020350281 590.4999419671834,160.21353310259212 590.4999999999999,160.21356527070748 590.4999999999999,160.21356527070748 590.4999999999999,160.21356527070748 590.4999999999999,160.21356527070748 590.4999999999999,160.21356527070748 590.4999999999999,160.21356527070748 590.4999920605752,160.21355950237785 590.4999902601605,160.213557931212 590.4999923793862,160.2135593168315 590.4999962977827,160.2135622727111 590.4999999999999,160.21356527070748 590.4999999999999,160.21356527070748 590.4999999999999,160.21356527070748 590.4999999999999,160.21356527070748 590.4999999999999,160.21356527070748 590.4999999999999,160.21356527070748 590.4999995105507,160.21356476386813 590.4999994028389,160.21356463033078 590.4999995354059,160.21356475472362 590.499999775608,160.21356501257412 590.4999999999999,160.21356527070748 590.4999999999999,160.21356527070748 590.4999999999999,160.21356527070748 590.4999999999999,160.21356527070748 590.4999999999999,160.21356527070748 590.4999999999999,160.21356527070748 590.4999999717119,160.21356522876874 590.4999999657608,160.21356521798396 590.4999999735832,160.21356522843212 590.4999999873522,160.21356524965836 590.4999999999999,160.21356527070748 590.4999999999999,160.21356527070748 590.4999999999999,160.21356527070748 590.4999999999999,160.21356527070748 590.4999999999999,160.21356527070748 590.4999999999999,160.21356527070748 590.4999999985226,160.21356526738953 590.4999999982363,160.2135652665528 590.4999999986591,160.21356526738907 590.499999999368,160.21356526906152 590.4999999999999,160.21356527070748 590.4999999999999,160.21356527070748 590.4999999999999,160.21356527070748 590.4999999999999,160.21356527070748 590.4999999999999,160.21356527070748 590.4999999999999,160.21356527070748 590.4999999999367,160.2135652704543 590.4999999999269,160.21356527039143 590.4999999999463,160.21356527045577 590.4999999999757,160.21356527058288 590.4999999999999,160.21356527070748 590.4999999999999,160.21356527070748 590.4999999999999,160.21356527070748 590.4999999999999,160.21356527070748 590.4999999999999,160.21356527070748 590.4999999999999,160.21356527070748 590.4999999999984,160.21356527068644 590.4999999999984,160.21356527067928 590.499999999999,160.2135652706828 590.4999999999995,160.21356527069338 590.4999999999999,160.21356527070748" stroke="black" stroke-dasharray="8.0,8.0" stroke-width="7.0" /></g><rect fill="white" height="111.60000000000001" stroke="none" width="1181" x="0" y="0" /><line stroke="black" stroke-width="3.0" x1="0" x2="1181" y1="111.60000000000001" y2="111.60000000000001" /><text font-family="Arial" font-size="62.0" text-anchor="start" x="40.0" y="77.5">LED</text><text font-family="Arial" font-size="62.0" text-anchor="middle" x="590.5" y="77.5" /><text font-family="Arial" font-size="62.0" text-anchor="end" x="1141.0" y="77.5">cd / klm</text><rect fill="none" height="1178.0" stroke="black" stroke-width="3.0" width="1178.0" x="1.5" y="1.5" /></svg>