<?xml version="1.0" encoding="utf-8" ?>
<svg baseProfile="full" height="1181" version="1.1" width="1181" xmlns="http://www.w3.org/2000/svg" xmlns:ev="http://www.w3.org/2001/xml-events" xmlns:xlink="http://www.w3.org/1999/xlink"><defs><clipPath id="plot_clip"><rect height="1069.4" width="1181.0" x="0" y="111.60000000000001" /></clipPath></defs><g clip-path="url(#plot_clip)" id="grid"><circle cx="658.0850852304347" cy="160.31894731365048" fill="none" r="187.42367938102026" stroke="black" stroke-width="3.0" /><text font-family="Arial" font-size="42.0" text-anchor="start" x="666.0850852304347" y="387.7426266946708">100</text><circle cx="658.0850852304347" cy="160.31894731365048" fill="none" r="374.8473587620405" stroke="black" stroke-width="3.0" /><text font-family="Arial" font-size="42.0" text-anchor="start" x="666.0850852304347" y="575.166306075691">200</text><circle cx="658.0850852304347" cy="160.31894731365048" fill="none" r="562.2710381430608" stroke="black" stroke-width="3.0" /><text font-family="Arial" font-size="42.0" text-anchor="start" x="666.0850852304349" y="762.5899854567112">300</text><circle cx="658.0850852304347" cy="160.31894731365048" fill="none" r="749.694717524081" stroke="black" stroke-width="3.0" /><text font-family="Arial" font-size="42.0" text-anchor="start" x="666.0850852304349" y="950.0136648377315">400</text><circle cx="658.0850852304347" cy="160.31894731365048" fill="none" r="937.1183969051013" stroke="black" stroke-width="3.0" /><text font-family="Arial" font-size="42.0" text-anchor="start" x="666.0850852304349" y="1137.4373442187518">500</text><circle cx="658.0850852304347" cy="160.31894731365048" fill="none" r="1124.5420762861215" stroke="black" stroke-width="3.0" /><text font-family="Arial" font-size="42.0" text-anchor="start" x="666.0850852304349" y="1324.861023599772">600</text><line stroke="black" stroke-width="3.0" x1="-4870.351185471521" x2="6186.52135593239" y1="160.31894731365003" y2="160.31894731365094" /><line stroke="black" stroke-width="3.0" x1="-4129.681168400762" x2="5445.851338861631" y1="-2603.8991880373273" y2="2924.5370826646285" /><line stroke="black" stroke-width="3.0" x1="-2106.1330501205425" x2="3422.303220581412" y1="-4627.4473063175465" y2="4948.085200944847" /><line stroke="black" stroke-width="3.0" x1="658.0850852304347" x2="658.0850852304347" y1="-5368.117323388304" y2="5688.755218015604" /><line stroke="black" stroke-width="3.0" x1="3422.303220581412" x2="-2106.1330501205425" y1="-4627.4473063175465" y2="4948.085200944847" /><line stroke="black" stroke-width="3.0" x1="5445.851338861631" x2="-4129.681168400762" y1="-2603.8991880373273" y2="2924.5370826646285" /><line stroke="black" stroke-width="3.0" x1="6186.52135593239" x2="-4870.351185471521" y1="160.31894731365003" y2="160.31894731365094" /></g><g clip-path="url(#plot_clip)" id="curves"><polyline fill="none" points="658.0850852304349,956.1761170692768 671.9956242687875,957.2531950840622 685.9431725103954,958.0701906401692 699.921724095257,958.609572048448 713.9240945452192,958.853983629808 727.941926491081,958.7862966285335 741.9663831577191,958.3961866870573 755.99112601381,957.699660844867 770.011854485853,956.7192923979376 784.0258442394013,955.4776052658374 798.031940847859,953.9970052894137 812.0259713252759,952.2761510948931 825.9837098413775,950.2198719983122 839.8688975913382,947.7111448903011 853.637080327001,944.6351607618533 867.2357037421539,940.879682033841 880.6233787260932,936.402206358117 893.8367783936311,931.4279902085617 906.9494141812744,926.2445955158163 920.0545737332664,921.1335854427459 933.2650428233454,916.3696670866528 946.7064531247446,912.2033166520838 960.4956119347503,908.8112662941991 974.7551986349159,906.3469831632734 989.6192596046112,904.9568947640231 1005.232921438377,904.7798845015017 1021.6162739924584,905.6683401663164 1038.2178986572574,906.3716004323616 1054.2553766447631,905.4068991605466 1068.1488539033653,900.0935687061909 1080.9972465697379,892.8242978920899 1089.7593222818082,878.7455230975646 1094.6109492827777,858.9063603760944 1095.146275067313,833.3341605865729 1090.9545367006192,802.0743005248656 1081.6207009314498,765.1904926613496 1066.9290794386607,723.0444292350736 1047.5116373033482,677.1054366435013 1024.3058942448354,629.0602073466122 998.3586358826508,580.521787458158 970.82255244983,533.0249474111788 942.8102957117187,487.8578341906717 914.9408331922846,445.58615550589366 887.7243585413223,406.57691860505247 861.6976428937811,371.16592304247604 837.4227253763908,339.6565874596065 815.3768912615067,312.2138787669883 795.6107482538739,288.5637028140918 778.0483111421057,268.3343210915343 762.5925308121089,251.16588376085065 749.1259090918479,236.71126903783806 737.5120787877856,224.63765850107598 727.599390462336,214.6294748279356 719.2189715963852,206.38663498323638 712.1845198889574,199.6244873341144 706.2930311259566,194.07451443130083 701.351824649769,189.50273154799333 697.260582167961,185.7598124921659 693.9373760963479,182.72194507149823 691.2933549827727,180.27248883387438 689.2330780456982,178.30224935025944 687.6582000612299,176.71159254401232 686.4781020663157,175.41578215861148 685.6006455333362,174.3388255450775 684.9292038577852,173.41169877953712 684.3629748836075,172.57252849907684 683.8250665057765,171.77912533673714 683.3478142696629,171.04233957953 682.9925412429211,170.38221276153058 682.8220589641849,169.8145818656527 682.9004846005466,169.35101403579938 683.2774133577171,168.9933615309277 683.9400708993605,168.71974140330406 684.8588985279372,168.5045234983429 686.0030966200034,168.32430825917106 687.3407246057902,168.1579722583332 688.8064513855733,167.97864418172514 690.2035183355218,167.7340718664094 691.299261555394,167.37883843198574 691.8578626940371,166.8837102374648 691.6410552164798,166.23577018603362 690.4813713947203,165.4500149663744 688.5019811719311,164.5937632583242 685.901855070271,163.7344171841719 682.883060475988,162.92531953797152 679.650145173348,162.2056455869124 676.3886008934413,161.59885381132267 673.2013120388268,161.11115519181692 670.1705413192655,160.74098073993116 667.3785403674318,160.48116517647418 664.9073071599039,160.31894731365048 662.8222377143476,160.236260009469 661.1236254237598,160.21283915196796 659.7949721384628,160.22933593797563 658.8191470859402,160.26761670832548 658.1784404682829,160.310779788658 658.0850852304347,160.31894731365048 658.0850852304347,160.31894731365048 658.0850852304347,160.31894731365048 658.0850852304347,160.31894731365048 658.0850852304347,160.31894731365048 658.1613570503141,160.30412157372393 658.1795334380437,160.29887172738506 658.1596902218032,160.30172339424416 658.1216825738974,160.30982257109554 658.0850852304347,160.31894731365048 658.0850852304347,160.31894731365048 658.0850852304347,160.31894731365048 658.0850852304347,160.31894731365048 658.0850852304347,160.31894731365048 658.0850852304347,160.31894731365048 658.0902932688035,160.3169481350276 658.0915129969355,160.31635032741053 658.0901455149905,160.31679935029365 658.087559121151,160.3178458665392 658.0850852304347,160.31894731365048 658.0850852304347,160.31894731365048 658.0850852304347,160.31894731365048 658.0850852304347,160.31894731365048 658.0850852304347,160.31894731365048 658.0850852304347,160.31894731365048 658.0854285455601,160.3187410291116 658.0855073345826,160.3186835537051 658.0854162435212,160.31873235123862 658.0852464172323,160.31883859178276 658.0850852304347,160.31894731365048 658.0850852304347,160.31894731365048 658.0850852304347,160.31894731365048 658.0850852304347,160.31894731365048 658.0850852304347,160.31894731365048 658.0850852304347,160.31894731365048 658.085106933052,160.31892844785318 658.0851117873422,160.31892340170361 658.0851059550334,160.31892798764954 658.0850952718342,160.31893761678361 658.0850852304347,160.31894731365048 658.0850852304347,160.31894731365048 658.0850852304347,160.31894731365048 658.0850852304347,160.31894731365048 658.0850852304347,160.31894731365048 658.0850852304347,160.31894731365048 658.0850865297333,160.31894570915028 658.0850868100486,160.31894529183694 658.085086454844,160.31894568880443 658.0850858195275,160.31894650283368 658.0850852304347,160.31894731365048 658.0850852304347,160.31894731365048 658.0850852304347,160.31894731365048 658.0850852304347,160.31894731365048 658.0850852304347,160.31894731365048 658.0850852304347,160.31894731365048 658.0850853022991,160.31894718400372 658.0850853169162,160.31894715100248 658.0850852967503,160.31894718349895 658.0850852619784,160.31894724897631 658.0850852304347,160.31894731365048 658.0850852304347,160.31894731365048 658.0850852304347,160.31894731365048 658.0850852304347,160.31894731365048 658.0850852304347,160.31894731365048 658.0850852304347,160.31894731365048 658.0850852338998,160.31894730358727 658.085085234522,160.31894730107103 658.0850852335013,160.3189473036199 658.085085231859,160.31894730868328 658.0850852304347,160.31894731365048 658.0850852304347,160.31894731365048 658.0850852304347,160.31894731365048 658.0850852304347,160.31894731365048 658.0850852304347,160.31894731365048 658.0850852304347,160.31894731365048 658.0850852305554,160.31894731288867 658.0850852305689,160.31894731269585 658.0850852305286,160.31894731288492 658.085085230475,160.3189473132669 658.0850852304347,160.31894731365048 658.0850852304347,160.31894731365048 658.0850852304347,160.31894731365048 658.0850852304347,160.31894731365048 658.0850852304347,160.31894731365048 658.0850852304347,160.31894731365048" stroke="black" stroke-width="9.0" /><polyline fill="none" points="658.0850852304349,956.1761170692768 644.1969729708322,955.9683657899554 630.316305063019,955.512769545372 616.4478879543011,954.8039998334651 602.5969090834185,953.836835585774 588.7689341242906,952.6061798829887 574.9643877502656,951.1595568291605 561.1546814957212,949.7537347326005 547.2859989011337,948.6954114489926 533.2831056561844,948.2876348850181 519.0495114635423,948.8288690979435 504.4786149626984,950.5557308085582 489.49463419005957,953.4746594487518 474.03365722688847,957.5332673385586 458.03471941500527,962.6771402730465 441.4398543798948,968.8499560653536 424.17314277164473,976.0668340313188 406.06756167369616,984.6311241430973 386.9103540760193,994.9089530855206 366.4619240198094,1007.2541042837585 344.45634396154867,1022.0068320418912 320.70526322209383,1039.22343227592 295.4460445535226,1057.8820694285728 269.09699654306604,1076.7174563250483 242.162084868969,1094.497301238079 215.2294135580398,1110.0260000020107 188.95826118730602,1122.1714768371714 164.0401306758117,1129.9367653143688 141.2252548997896,1132.3909090909092 122.0372674394167,1127.374809717682 105.24145816023908,1117.8721980398898 93.77233597334619,1099.4930775310356 87.25143020459114,1073.8437557902155 85.85372493268717,1041.4779702321111 89.72437287393029,1002.9483554895008 98.97894184767169,958.8052715430143 113.60539417533761,909.7309501456165 133.15072138222445,856.9303765490221 156.98419948816323,801.698832904011 184.39319245052596,745.2797187812661 214.5855520917314,688.8611092455551 246.73341068015927,633.5249179737461 280.1062176594014,580.1070079790062 313.9608255266567,529.3470357803898 347.5039660173017,481.93511114985233 379.89439617458476,438.5096363695005 410.37692625946835,399.52793586003884 438.6977451007965,364.9009516921525 464.7410787685716,334.40667267265974 488.40184819790966,307.82233489575174 509.5855991559042,284.9248113088046 528.2507404494349,265.4567266776397 544.5401441711468,249.02997772582444 558.6620087509937,235.23960926841312 570.8478478735141,223.70051027915133 581.3515458718937,214.04835000601247 590.4162107093056,205.96217950329344 598.1736637619344,199.22587933455077 604.7349535940136,193.6558094935782 610.2212895657295,189.0784172057539 614.7635673440678,185.3306373270476 618.4948062941262,182.26419727758616 621.5278853738362,179.7567552725376 623.9753714448326,177.69871456238582 625.9560610535532,175.98931944353603 627.5945797828296,174.53690350488546 629.0036610114068,173.26683158558797 630.2307370271885,172.14241664786175 631.3077494446171,171.13769322911503 632.2680724776149,170.2291700015088 633.1464014063904,169.39588590737867 633.955461260737,168.62744314471365 634.6152718535352,167.94475194671566 635.020856177702,167.37038977926102 635.0654360420657,166.91972550020182 634.6407455082284,166.60083920929662 633.6945735522141,166.4001848787044 632.4046844453044,166.247734990293 631.0103507179793,166.07385978974662 629.7549277210982,165.82577208823557 628.8851157486288,165.46768976915655 628.6099493929453,164.98735020676088 628.9784060502217,164.40962430105242 629.9983166107371,163.76756886580154 631.6763711203132,163.09461501454462 634.018104913192,162.42453525671067 636.9851491198687,161.79439857807404 640.3666439117,161.24753147552235 643.9071494941369,160.81405173936662 647.3500243770279,160.50632849785495 650.4381991116892,160.31894731365048 652.9667909723544,160.22960715505405 654.9392094047159,160.20909090909083 656.4116514370686,160.23124636476302 657.4410872195737,160.27391458585294 658.0850852304347,160.31894731365048 658.0850852304347,160.31894731365048 658.0850852304347,160.31894731365048 658.0850852304347,160.31894731365048 658.0850852304347,160.31894731365048 658.0850852304347,160.31894731365048 658.0002394139683,160.30245495761665 657.9800197514536,160.29661495668813 658.0020936168197,160.29978718993652 658.044373844611,160.30879682513 658.0850852304347,160.31894731365048 658.0850852304347,160.31894731365048 658.0850852304347,160.31894731365048 658.0850852304347,160.31894731365048 658.0850852304347,160.31894731365048 658.0850852304347,160.31894731365048 658.0792917372639,160.316723399985 658.0779348949939,160.31605839060887 658.0794561006281,160.31655788981038 658.0823332405386,160.31772204880713 658.0850852304347,160.31894731365048 658.0850852304347,160.31894731365048 658.0850852304347,160.31894731365048 658.0850852304347,160.31894731365048 658.0850852304347,160.31894731365048 658.0850852304347,160.31894731365048 658.0847033219899,160.31871783990573 658.0846156760027,160.31865390347684 658.0847170069463,160.31870818652112 658.0849059240348,160.31882636995658 658.0850852304347,160.31894731365048 658.0850852304347,160.31894731365048 658.0850852304347,160.31894731365048 658.0850852304347,160.31894731365048 658.0850852304347,160.31894731365048 658.0850852304347,160.31894731365048 658.0850610881463,160.31892632707923 658.0850556881674,160.3189207136735 658.0850621761075,160.3189258151425 658.0850740602444,160.31893652672318 658.0850852304347,160.31894731365048 658.0850852304347,160.31894731365048 658.0850852304347,160.31894731365048 658.0850852304347,160.31894731365048 658.0850852304347,160.31894731365048 658.0850852304347,160.31894731365048 658.0850837850772,160.3189455287827 658.0850834732507,160.3189450645575 658.0850838683851,160.31894550614948 658.0850845751197,160.31894641168674 658.0850852304347,160.31894731365048 658.0850852304347,160.31894731365048 658.0850852304347,160.31894731365048 658.0850852304347,160.31894731365048 658.0850852304347,160.31894731365048 658.0850852304347,160.31894731365048 658.0850851504919,160.31894716942975 658.0850851342316,160.31894713271845 658.0850851566644,160.31894716886802 658.0850851953452,160.31894724170593 658.0850852304347,160.31894731365048 658.0850852304347,160.31894731365048 658.0850852304347,160.31894731365048 658.0850852304347,160.31894731365048 658.0850852304347,160.31894731365048 658.0850852304347,160.31894731365048 658.0850852265802,160.31894730245585 658.085085225888,160.31894729965688 658.0850852270233,160.31894730249235 658.0850852288503,160.31894730812496 658.0850852304347,160.31894731365048 658.0850852304347,160.31894731365048 658.0850852304347,160.31894731365048 658.0850852304347,160.31894731365048 658.0850852304347,160.31894731365048 658.0850852304347,160.31894731365048 658.0850852303005,160.31894731280306 658.0850852302855,160.31894731258853 658.0850852303303,160.31894731279897 658.0850852303898,160.31894731322393 658.0850852304347,160.31894731365048 658.0850852304347,160.31894731365048 658.0850852304347,160.31894731365048 658.0850852304347,160.31894731365048 658.0850852304347,160.31894731365048 658.0850852304347,160.31894731365048" stroke="black" stroke-width="9.0" /><polyline fill="none" points="658.0850852304349,956.1761170692768 672.0234900309543,958.8496235294166 686.0651020766032,961.5617965807736 700.2352991004017,964.5929395834695 714.5791494275198,968.2217048814205 729.1613379724577,972.7242336392565 744.0595242190931,978.311093599067 759.335917259411,984.9407994782985 775.0416038720978,992.5078188920046 791.2208772325941,1000.9052557247456 807.911212481038,1010.0251388937261 825.1155040189478,1019.6159590812974 842.6989191587883,1028.8587490392374 860.4375768271377,1036.8038827660555 878.0419100575301,1042.5175865312488 895.1573792258131,1045.0847935713077 910.5625651178677,1040.8125574176365 925.8908439237445,1036.2721143807946 940.4247227664379,1029.2710016502351 952.8012969895997,1016.2369753320289 963.5054791340181,999.4545830046816 972.4023409703951,979.1433930863864 979.5784026785688,956.0428307907184 985.2231564566553,931.0079463629614 989.5828419630752,904.8750994019143 992.9595380855534,878.4595289633043 995.661173378393,852.4524976687208 997.8394923827168,827.1245160823934 999.61186755121,802.6374054489085 1001.1064828618614,779.145929720692 1002.4620393171059,756.7973287475794 1003.7931358325659,735.6737628141719 1005.0790871327193,715.6254299280125 1006.2529191096692,696.450396231499 1007.2339692541103,677.9534549669331 1007.928212844987,659.9467126888007 1008.2292285893049,642.2510157916657 1008.0205408494327,624.6989815942208 1007.1743491321753,607.1328295331247 1005.5513316487513,589.404027007537 1003.0010560494684,571.3737946803533 999.4201663021422,552.9800408547648 994.9353102447857,534.4290228376182 989.745952858082,515.9816840971777 984.0683527742516,497.88450264377434 978.1349182709878,480.3687803542035 972.1351688618812,463.59358780376124 966.0321342886955,447.48421629205313 959.7235899038981,431.9154768375897 953.0987889936818,416.7704474690861 946.0388406892748,401.94083731527587 938.4063283803064,387.31861418179165 930.0121914511959,372.7716868614965 920.6464368320362,358.173117213501 910.0892276139651,343.4106739888035 898.1115266732979,328.3872709815947 884.5989364104611,313.1044691173561 869.9333650842343,297.8948288565391 854.6431852761234,283.1420799017285 839.2814256601253,269.19269258976294 824.4241318019929,256.35484062848525 810.5534357946126,244.8335340914482 797.7013011640632,234.55420613844638 785.7791435587151,225.38231978113538 774.691162996639,217.19153146507347 764.3347295617832,209.8639701416031 754.6194153705848,203.29880020908968 745.5244454373462,197.43475366696464 737.045030704203,192.2208360755668 729.1741052389858,187.6074653808463 721.9024022053106,183.54655112323655 715.2163534180659,179.9908205329093 709.0915314971448,176.8919463405499 703.499108502541,174.2034075964109 698.4081324672219,171.8813950485336 693.7856550622423,169.88488616941424 689.59983123049,168.17645599395428 685.8290600888618,166.72414860384845 682.453360012179,165.49858401508823 679.4515078177658,164.472159141343 676.8011212952586,163.61908944379172 674.469445594064,162.91397505991938 672.3853517457195,162.32871870617532 670.4670513542362,161.83926158727604 668.6315945096597,161.42743010616584 666.7951289216634,161.08097739544849 664.9061727204529,160.79592421581515 663.0451951457026,160.5788956593094 661.3260631798381,160.43212475754933 659.8627878178233,160.3499772277363 658.7691816601755,160.31894731365048 658.1208785718135,160.3183225385527 658.0850852304347,160.31894731365048 658.0850852304347,160.31894731365048 658.0850852304347,160.31894731365048 658.0850852304347,160.31894731365048 658.1688825733568,160.3101398580054 658.18901462634,160.3061863884094 658.1673085665235,160.30739157736457 658.1254835906235,160.312548841982 658.0850852304347,160.31894731365048 658.0850852304347,160.31894731365048 658.0850852304347,160.31894731365048 658.0850852304347,160.31894731365048 658.0850852304347,160.31894731365048 658.0850852304347,160.31894731365048 658.0909004007787,160.31727984038685 658.0922745686275,160.31674931238558 658.0907548451729,160.31710514415192 658.0878618653486,160.3179912415775 658.0850852304347,160.31894731365048 658.0850852304347,160.31894731365048 658.0850852304347,160.31894731365048 658.0850852304347,160.31894731365048 658.0850852304347,160.31894731365048 658.0850852304347,160.31894731365048 658.0854756089392,160.31875691333187 658.085566156579,160.3187022695405 658.0854631392782,160.3187463759541 658.0852696355138,160.31884509624592 658.0850852304347,160.31894731365048 658.0850852304347,160.31894731365048 658.0850852304347,160.31894731365048 658.0850852304347,160.31894731365048 658.0850852304347,160.31894731365048 658.0850852304347,160.31894731365048 658.0851104587506,160.31892898420608 658.0851161797485,160.31892399166964 658.085109445697,160.3189283946142 658.0850969946001,160.31893778721712 658.0850852304347,160.31894731365048 658.0850852304347,160.31894731365048 658.0850852304347,160.31894731365048 658.0850852304347,160.31894731365048 658.0850852304347,160.31894731365048 658.0850852304347,160.31894731365048 658.0850867857083,160.3189457031175 658.0850871279735,160.31894527878922 658.0850867067287,160.31894567406005 658.0850859434623,160.3189464934061 658.0850852304347,160.31894731365048 658.0850852304347,160.31894731365048 658.0850852304347,160.31894731365048 658.0850852304347,160.31894731365048 658.0850852304347,160.31894731365048 658.0850852304347,160.31894731365048 658.0850853203228,160.31894718038586 658.0850853392327,160.31894714611622 658.0850853143761,160.31894717931607 658.0850852706237,160.31894724676465 658.0850852304347,160.31894731365048 658.0850852304347,160.31894731365048 658.0850852304347,160.31894731365048 658.0850852304347,160.31894731365048 658.0850852304347,160.31894731365048 658.0850852304347,160.31894731365048 658.0850852351289,160.31894730310728 658.0850852360387,160.31894730044826 658.0850852346952,160.31894730310557 658.0850852324425,160.3189473084201 658.0850852304347,160.31894731365048 658.0850852304347,160.31894731365048 658.0850852304347,160.31894731365048 658.0850852304347,160.31894731365048 658.0850852304347,160.31894731365048 658.0850852304347,160.31894731365048 658.0850852306353,160.31894731284592 658.0850852306667,160.31894731264606 658.0850852306048,160.31894731285036 658.0850852305116,160.3189473132545 658.0850852304347,160.31894731365048 658.0850852304347,160.31894731365048 658.0850852304347,160.31894731365048 658.0850852304347,160.31894731365048 658.0850852304347,160.31894731365048 658.0850852304347,160.31894731365048 658.0850852304394,160.3189473135833 658.0850852304394,160.318947313561 658.0850852304375,160.31894731357204 658.0850852304354,160.3189473136057 658.0850852304347,160.31894731365048" stroke="black" stroke-dasharray="8.0,8.0" stroke-width="7.0" /><polyline fill="none" points="658.0850852304349,956.1761170692768 644.1466804299149,958.8496235294166 630.1050683842665,961.5617965807736 615.9348713604678,964.5929395834695 601.5910210333499,968.2217048814205 587.008832488412,972.7242336392565 572.1106462417766,978.311093599067 556.8342532014586,984.9407994782986 541.1285665887716,992.5078188920046 524.9492932282755,1000.9052557247458 508.2589579798314,1010.0251388937261 491.0546664419219,1019.6159590812974 473.47125130208104,1028.8587490392372 455.73259363373205,1036.8038827660555 438.12826040333937,1042.5175865312488 421.0127912350565,1045.0847935713077 405.607605343002,1040.8125574176365 390.2793265371249,1036.2721143807946 375.7454476944318,1029.2710016502353 363.3688734712696,1016.2369753320289 352.6646913268515,999.4545830046817 343.7678294904742,979.1433930863864 336.59176778230085,956.0428307907185 330.9470140042144,931.0079463629614 326.58732849779443,904.8750994019144 323.21063237531627,878.4595289633043 320.5089970824763,852.4524976687206 318.33067807815286,827.1245160823934 316.5583029096594,802.6374054489082 315.06368759900823,779.1459297206922 313.70813114376347,756.7973287475794 312.37703462830365,735.6737628141719 311.09108332815015,715.6254299280127 309.9172513512006,696.450396231499 308.9362012067594,677.9534549669331 308.24195761588226,659.9467126888007 307.94094187156475,642.2510157916658 308.14962961143664,624.6989815942206 308.9958213286942,607.1328295331248 310.6188388121181,589.404027007537 313.1691144114013,571.3737946803533 316.7500041587274,552.9800408547648 321.2348602160838,534.4290228376182 326.4242176027874,515.9816840971778 332.10181768661795,497.88450264377434 338.03525218988165,480.36878035420364 344.0350015989883,463.5935878037611 350.138036172174,447.48421629205325 356.44658055697136,431.9154768375897 363.07138146718773,416.7704474690862 370.13132977159466,401.94083731527587 377.7638420805633,387.3186141817919 386.15797900967357,372.7716868614964 395.52373362883327,358.173117213501 406.08094284690435,343.4106739888035 418.05864378757155,328.38727098159484 431.5712340504084,313.10446911735596 446.236805376635,297.8948288565391 461.52698518474614,283.1420799017286 476.8887448007442,269.19269258976294 491.74603865887667,256.35484062848536 505.61673466625683,244.8335340914481 518.4688692968061,234.55420613844638 530.3910269021544,225.38231978113538 541.4790074642304,217.19153146507347 551.8354408990863,209.8639701416031 561.5507550902847,203.29880020908968 570.6457250235233,197.43475366696464 579.1251397566665,192.2208360755668 586.9960652218837,187.6074653808463 594.2677682555588,183.54655112323655 600.9538170428036,179.9908205329093 607.0786389637246,176.8919463405499 612.6710619583284,174.2034075964109 617.7620379936476,171.8813950485336 622.3845153986272,169.88488616941424 626.5703392303794,168.17645599395428 630.3411103720077,166.72414860384845 633.7168104486905,165.49858401508823 636.7186626431036,164.472159141343 639.3690491656109,163.61908944379172 641.7007248668054,162.91397505991938 643.7848187151499,162.32871870617532 645.7031191066333,161.83926158727604 647.5385759512097,161.42743010616584 649.375041539206,161.08097739544849 651.2639977404166,160.79592421581515 653.1249753151669,160.5788956593094 654.8441072810314,160.43212475754933 656.307382643046,160.3499772277363 657.400988800694,160.31894731365048 658.049291889056,160.3183225385527 658.0850852304347,160.31894731365048 658.0850852304347,160.31894731365048 658.0850852304347,160.31894731365048 658.0850852304347,160.31894731365048 658.0012878875127,160.3101398580054 657.9811558345294,160.3061863884094 658.0028618943459,160.30739157736457 658.0446868702459,160.312548841982 658.0850852304347,160.31894731365048 658.0850852304347,160.31894731365048 658.0850852304347,160.31894731365048 658.0850852304347,160.31894731365048 658.0850852304347,160.31894731365048 658.0850852304347,160.31894731365048 658.0792700600908,160.31727984038685 658.0778958922419,160.31674931238558 658.0794156156965,160.31710514415192 658.0823085955208,160.3179912415775 658.0850852304347,160.31894731365048 658.0850852304347,160.31894731365048 658.0850852304347,160.31894731365048 658.0850852304347,160.31894731365048 658.0850852304347,160.31894731365048 658.0850852304347,160.31894731365048 658.0846948519303,160.31875691333187 658.0846043042903,160.3187022695405 658.0847073215912,160.3187463759541 658.0849008253557,160.31884509624592 658.0850852304347,160.31894731365048 658.0850852304347,160.31894731365048 658.0850852304347,160.31894731365048 658.0850852304347,160.31894731365048 658.0850852304347,160.31894731365048 658.0850852304347,160.31894731365048 658.0850600021189,160.31892898420608 658.085054281121,160.31892399166964 658.0850610151725,160.3189283946142 658.0850734662694,160.31893778721712 658.0850852304347,160.31894731365048 658.0850852304347,160.31894731365048 658.0850852304347,160.31894731365048 658.0850852304347,160.31894731365048 658.0850852304347,160.31894731365048 658.0850852304347,160.31894731365048 658.0850836751612,160.3189457031175 658.085083332896,160.31894527878922 658.0850837541408,160.31894567406005 658.0850845174072,160.3189464934061 658.0850852304347,160.31894731365048 658.0850852304347,160.31894731365048 658.0850852304347,160.31894731365048 658.0850852304347,160.31894731365048 658.0850852304347,160.31894731365048 658.0850852304347,160.31894731365048 658.0850851405467,160.31894718038586 658.0850851216367,160.31894714611622 658.0850851464933,160.31894717931607 658.0850851902458,160.31894724676465 658.0850852304347,160.31894731365048 658.0850852304347,160.31894731365048 658.0850852304347,160.31894731365048 658.0850852304347,160.31894731365048 658.0850852304347,160.31894731365048 658.0850852304347,160.31894731365048 658.0850852257405,160.31894730310728 658.0850852248308,160.31894730044826 658.0850852261743,160.31894730310557 658.085085228427,160.3189473084201 658.0850852304347,160.31894731365048 658.0850852304347,160.31894731365048 658.0850852304347,160.31894731365048 658.0850852304347,160.31894731365048 658.0850852304347,160.31894731365048 658.0850852304347,160.31894731365048 658.0850852302341,160.31894731284592 658.0850852302028,160.31894731264606 658.0850852302647,160.31894731285036 658.0850852303578,160.3189473132545 658.0850852304347,160.31894731365048 658.0850852304347,160.31894731365048 658.0850852304347,160.31894731365048 658.0850852304347,160.31894731365048 658.0850852304347,160.31894731365048 658.0850852304347,160.31894731365048 658.0850852304301,160.3189473135833 658.0850852304301,160.318947313561 658.085085230432,160.31894731357204 658.085085230434,160.3189473136057 658.0850852304347,160.31894731365048" stroke="black" stroke-dasharray="8.0,8.0" stroke-width="7.0" /></g><rect fill="white" height="111.60000000000001" stroke="none" width="1181" x="0" y="0" /><line stroke="black" stroke-width="3.0" x1="0" x2="1181" y1="111.60000000000001" y2="111.60000000000001" /><text font-family="Arial" font-size="62.0" text-anchor="start" x="40.0" y="77.5">LED</text><text font-family="Arial" font-size="62.0" text-anchor="middle" x="590.5" y="77.5" /><text font-family="Arial" font-size="62.0" text-anchor="end" x="1141.0" y="77.5">cd / klm</text><rect fill="none" height="1178.0" stroke="black" stroke-width="3.0" width="1178.0" x="1.5" y="1.5" /></svg>