<?xml version="1.0" encoding="utf-8" ?>
<svg baseProfile="full" height="1181" version="1.1" width="1181" xmlns="http://www.w3.org/2000/svg" xmlns:ev="http://www.w3.org/2001/xml-events" xmlns:xlink="http://www.w3.org/1999/xlink"><defs><clipPath id="plot_clip"><rect height="1069.4" width="1181.0" x="0" y="111.60000000000001" /></clipPath></defs><g clip-path="url(#plot_clip)" id="grid"><circle cx="590.5000000000001" cy="720.2623971853601" fill="none" r="94.48837165716519" stroke="black" stroke-width="3.0" /><text font-family="Arial" font-size="42.0" text-anchor="start" x="598.5000000000001" y="619.774025528195">25</text><circle cx="590.5000000000001" cy="720.2623971853601" fill="none" r="188.97674331433038" stroke="black" stroke-width="3.0" /><text font-family="Arial" font-size="42.0" text-anchor="start" x="598.5000000000001" y="525.2856538710298">50</text><circle cx="590.5000000000001" cy="720.2623971853601" fill="none" r="283.46511497149555" stroke="black" stroke-width="3.0" /><text font-family="Arial" font-size="42.0" text-anchor="start" x="598.5000000000001" y="430.7972822138646">75</text><circle cx="590.5000000000001" cy="720.2623971853601" fill="none" r="377.95348662866076" stroke="black" stroke-width="3.0" /><text font-family="Arial" font-size="42.0" text-anchor="start" x="598.5000000000001" y="336.3089105566994">100</text><circle cx="590.5000000000001" cy="720.2623971853601" fill="none" r="472.44185828582596" stroke="black" stroke-width="3.0" /><text font-family="Arial" font-size="42.0" text-anchor="start" x="598.5000000000001" y="241.8205388995342">125</text><circle cx="590.5000000000001" cy="720.2623971853601" fill="none" r="566.9302299429911" stroke="black" stroke-width="3.0" /><text font-family="Arial" font-size="42.0" text-anchor="start" x="598.5000000000001" y="147.3321672423691">150</text><line stroke="black" stroke-width="3.0" x1="-2216.009356723838" x2="3397.009356723838" y1="720.26239718536" y2="720.2623971853602" /><line stroke="black" stroke-width="3.0" x1="-1840.0083988815672" x2="3021.0083988815677" y1="-682.9922811765595" y2="2123.5170755472795" /><line stroke="black" stroke-width="3.0" x1="-812.754678361919" x2="1993.754678361919" y1="-1710.2460016962082" y2="3150.7707960669286" /><line stroke="black" stroke-width="3.0" x1="590.5000000000001" x2="590.5000000000001" y1="-2086.2469595384787" y2="3526.771753909199" /><line stroke="black" stroke-width="3.0" x1="1993.7546783619193" x2="-812.7546783619191" y1="-1710.2460016962082" y2="3150.7707960669286" /><line stroke="black" stroke-width="3.0" x1="3021.0083988815677" x2="-1840.0083988815675" y1="-682.9922811765595" y2="2123.5170755472795" /><line stroke="black" stroke-width="3.0" x1="3397.009356723839" x2="-2216.009356723839" y1="720.26239718536" y2="720.2623971853602" /></g><g clip-path="url(#plot_clip)" id="curves"><polyline fill="none" points="590.5000000000001,1132.3828790052519 597.693729934081,1132.3909090909092 604.8863305591724,1132.2330028895651 612.0713838637954,1131.8689212338936 619.2396618079472,1131.25870903158 626.3791377143141,1130.362817837946 633.4762544479281,1129.1541448803503 640.5213641797912,1127.6537158654583 647.5078920369332,1125.8946261219023 654.4314981715936,1123.9099906017036 661.2900723294115,1121.7328473965736 668.0823057296925,1119.3887596952854 674.8024031786316,1116.874021480942 681.4425573010973,1114.1778900807667 687.9941240210366,1111.2899709407118 694.4476357288612,1108.2002550521313 700.7939812261186,1104.9032203820436 707.0284839474617,1101.4098940329022 713.1484030917187,1097.7353682415767 719.1519051970296,1093.894659692292 725.0380573194172,1089.90267172775 730.8055095073943,1085.770745719365 736.448082503096,1081.4965774700895 741.95786592003,1077.0747689356792 747.3264219917371,1072.500308098622 752.5448006468608,1067.7685936051446 757.6061371675688,1062.880752171503 762.514150015018,1057.859175100373 767.2766792288251,1052.7309762670504 771.9032590078757,1047.5225393974385 776.4050832024529,1042.259446677328 780.7913618292429,1036.960406346307 785.0576284806765,1031.619687931327 789.1950898354512,1026.2260045049622 793.1940461643158,1020.7686785784939 797.0439184278154,1015.2376825927506 800.7371482735492,1009.6290070804905 804.2815816458581,1003.960138066317 807.6901467204752,998.2531080750192 810.977129229867,992.5289771523338 814.1581289477077,986.8077758716896 817.2444813163638,981.1020850034195 820.2257294392873,975.3986672788976 823.0846766383593,969.6789268435452 825.8027479572708,963.925525613336 828.3600464131215,958.1224435984815 830.7402040375609,952.2596654817937 832.9454606948166,946.3464468488719 834.9834288835085,940.3962653158745 836.8624392425172,934.4219983149361 838.5915133288623,928.4358945178217 840.1771047450312,922.4469300622437 841.6130166152603,916.4533876956056 842.8894583128265,910.4514957002408 843.9962127235942,904.4381764173448 844.9226668326882,898.4110663930259 845.6617602231432,892.3711776283752 846.222132772593,886.3302919565439 846.6170103490397,880.302067455119 846.8603422446905,874.299231120622 846.9667602138747,868.3335502330318 846.9450110370639,862.4121880031097 846.7778400556911,856.527741868803 846.4407083767613,850.6707016649519 845.9082651961007,844.8333315105704 845.1544261653507,839.0097062893298 844.1624294743626,833.2001871723999 842.9554540108392,827.4233796277234 841.5677533011379,821.7003539805311 840.0347380597669,816.0498086184878 838.3928724623505,810.4880240484036 836.6636059660526,805.0233241064286 834.8046298858461,799.6417833161619 832.7564813930944,794.3276363294481 830.4584908635852,789.0693872141402 827.8489698330626,783.8598619764881 824.9125304963477,778.7080052554307 821.8232495031414,773.6675773634377 818.8058528258485,768.7903042711645 816.0883504238109,764.1123304786084 813.9013566507226,759.654083889757 812.3730850344348,755.4036415816173 811.213517204527,751.2816591233849 810.0237210888382,747.2165208870248 808.4007547138638,743.1646893733745 805.9388951165129,739.1108581906057 802.3749278085214,735.0781354177715 798.0227821794241,731.1382053500221 793.3435714398199,727.3458507864929 788.8005786123422,723.7237466603416 784.8578560802059,720.2623971853601 781.8622602793018,716.9221565073743 779.6927856969944,713.6556395265337 778.1105588011885,710.4301444285394 776.8761319906054,707.2297084528942 775.7502141170866,704.055103534365 774.5538414180327,700.9175589354078 773.3464845706021,697.811671864719 772.2463098518272,694.7196190947049 771.3701971610126,691.6153722366247 770.833382812353,688.4647562731142 770.7241864287446,685.230364113247 771.0296108981117,681.8896438132305 771.7111876121476,678.4264980896286 772.7301540083994,674.8273168286407 774.0475590792707,671.0809769573658 775.6291330576797,667.1774725115421 777.4594890450498,663.1031451944541 779.527551226543,658.8436226611816 781.8217633780929,654.3850310310113 784.3301068943815,649.714007771169 787.0431679754623,644.8165436676557 789.963135693526,639.6740592778591 793.0943569566086,634.2661947511007 796.4402128686238,628.5719069577027 800.0030840004783,622.5695047088471 803.7802030559827,616.2386916590132 807.7515664014124,609.5671951613117 811.8927764742435,602.5457698322833 816.1792668233228,595.1663368599677 820.5863457918622,587.4219835055711 825.0680303290876,579.3197052777491 829.495265346396,570.9215806189601 833.7229275065861,562.3115812228555 837.611888809214,553.5833235705265 841.0294295896215,544.8398020433285 843.8861355643343,536.1665936909396 846.2420256737917,527.5469579573817 848.1906023915475,518.9324334509867 849.821177987503,510.26824778175967 851.2186041765194,501.4935125797874 852.4449445561352,492.55713084470517 853.4872403089146,483.46762241248564 854.3154762019644,474.250485670437 854.9012613034096,464.93306709982573 855.2179060396442,455.54449114571605 855.2455989333575,446.11030404722817 854.9860411977038,436.6358423666435 854.4458667833599,427.1208142983219 853.6313359071368,417.5644214079308 852.548312749793,407.9653790325432 851.200189581188,398.32447436340215 849.5820596926403,388.6524828304175 847.6875012956228,378.96305540551157 845.5107359960687,369.27023063432387 843.0466448259381,359.588409767788 840.2909979576249,349.9320133275397 837.241067930672,340.3144715447246 833.8949197491476,330.749102917624 830.251194320491,321.2494036087352 826.3091166931848,311.8290261848259 822.0670579967099,302.5043660115882 817.5185713463835,293.30256192910235 812.6573866240575,284.2539763214156 807.4789763967054,275.3895683372517 801.9805836665328,266.74082195908 796.162934426806,258.33588343370263 790.0347910905077,250.1878875306394 783.6069681324055,242.3058790577636 776.8905029519747,234.69853618239335 769.8966451249115,227.37416557875179 762.6357898021688,220.3437640045828 755.1147288849421,213.6303561196064 747.3405669408426,207.2600181223686 739.3218895680457,201.2587899460616 731.0687675883476,195.6526145883064 722.594665062963,190.45963312902484 713.9210874226144,185.6669346363907 705.0699754640073,181.2530409751838 696.061499827595,177.19555931545767 686.9140298128572,173.4712627516236 677.6414545166859,170.07290673964826 668.247545516283,167.0598658291126 658.7379999453586,164.508486078249 649.1236916355728,162.49522931256092 639.4206815027038,161.0964489227274 629.6522873162571,160.35860308867268 619.8511500620643,160.20909090909083 610.0457791270403,160.54451549151236 600.2574148851537,161.26047279950626 590.5000000000001,162.25186952680542" stroke="black" stroke-width="9.0" /><polyline fill="none" points="590.5000000000001,1132.3828790052519 583.306270065919,1132.3909090909092 576.1136694408278,1132.2330028895651 568.9286161362049,1131.8689212338936 561.7603381920532,1131.25870903158 554.6208622856861,1130.362817837946 547.5237455520722,1129.1541448803503 540.478635820209,1127.6537158654583 533.4921079630668,1125.8946261219023 526.5685018284066,1123.9099906017036 519.7099276705887,1121.7328473965736 512.9176942703077,1119.3887596952854 506.1975968213685,1116.874021480942 499.5574426989029,1114.1778900807667 493.0058759789638,1111.2899709407118 486.552364271139,1108.2002550521313 480.2060187738817,1104.9032203820436 473.97151605253845,1101.4098940329022 467.8515969082816,1097.7353682415767 461.8480948029706,1093.8946596922917 455.9619426805831,1089.90267172775 450.1944904926058,1085.770745719365 444.55191749690425,1081.4965774700895 439.04213407997025,1077.0747689356792 433.6735780082631,1072.500308098622 428.4551993531395,1067.7685936051446 423.3938628324314,1062.880752171503 418.48584998498234,1057.859175100373 413.7233207711751,1052.7309762670502 409.0967409921246,1047.5225393974388 404.5949167975471,1042.2594466773278 400.20863817075747,1036.960406346307 395.94237151932373,1031.619687931327 391.80491016454897,1026.2260045049622 387.8059538356846,1020.7686785784939 383.95608157218464,1015.2376825927505 380.26285172645095,1009.6290070804906 376.718418354142,1003.960138066317 373.30985327952504,998.2531080750193 370.02287077013307,992.5289771523338 366.8418710522925,986.8077758716897 363.75551868363647,981.1020850034195 360.77427056071286,975.3986672788977 357.915323361641,969.6789268435454 355.19725204272936,963.9255256133359 352.6399535868787,958.1224435984816 350.2597959624393,952.2596654817937 348.05453930518365,946.346446848872 346.01657111649155,940.3962653158744 344.1375607574831,934.4219983149361 342.40848667113784,928.4358945178217 340.82289525496896,922.446930062244 339.3869833847397,916.4533876956054 338.11054168717374,910.4514957002408 337.003787276406,904.438176417345 336.07733316731213,898.4110663930259 335.3382397768569,892.3711776283752 334.7778672274072,886.3302919565439 334.38298965096055,880.302067455119 334.1396577553097,874.2992311206222 334.0332397861254,868.333550233032 334.05498896293636,862.4121880031097 334.2221599443091,856.527741868803 334.5592916232389,850.6707016649519 335.0917348038994,844.8333315105705 335.8455738346493,839.0097062893298 336.8375705256375,833.2001871723998 338.04454598916107,827.4233796277234 339.4322466988623,821.7003539805311 340.96526194023335,816.0498086184879 342.6071275376496,810.4880240484036 344.33639403394744,805.0233241064286 346.19537011415406,799.6417833161619 348.2435186069059,794.3276363294482 350.54150913641485,789.0693872141402 353.1510301669376,783.8598619764881 356.0874695036524,778.7080052554307 359.17675049685886,773.6675773634378 362.1941471741516,768.7903042711647 364.91164957618923,764.1123304786084 367.0986433492775,759.654083889757 368.62691496556545,755.4036415816173 369.78648279547326,751.2816591233851 370.97627891116207,747.2165208870248 372.59924528613647,743.1646893733745 375.0611048834873,739.1108581906057 378.62507219147875,735.0781354177715 382.977217820576,731.1382053500221 387.65642856018025,727.3458507864929 392.199421387658,723.7237466603416 396.14214391979414,720.2623971853601 399.1377397206982,716.9221565073746 401.3072143030058,713.6556395265337 402.88944119881165,710.4301444285394 404.1238680093948,707.2297084528942 405.2497858829137,704.055103534365 406.44615858196744,700.9175589354078 407.65351542939806,697.811671864719 408.75369014817306,694.7196190947049 409.62980283898753,691.6153722366247 410.1666171876472,688.4647562731142 410.2758135712555,685.2303641132469 409.9703891018885,681.8896438132305 409.2888123878526,678.4264980896286 408.26984599160073,674.8273168286407 406.95244092072943,671.0809769573658 405.3708669423205,667.1774725115421 403.5405109549504,663.1031451944541 401.47244877345713,658.8436226611817 399.17823662190716,654.3850310310114 396.6698931056186,649.714007771169 393.9568320245379,644.8165436676557 391.03686430647406,639.6740592778591 387.9056430433915,634.2661947511007 384.5597871313763,628.5719069577028 380.9969159995219,622.5695047088471 377.2197969440174,616.2386916590132 373.2484335985876,609.5671951613118 369.1072235257565,602.5457698322834 364.82073317667744,595.1663368599677 360.4136542081379,587.4219835055711 355.9319696709127,579.3197052777491 351.5047346536042,570.9215806189601 347.27707249341404,562.3115812228556 343.3881111907862,553.5833235705265 339.9705704103786,544.8398020433285 337.11386443566585,536.1665936909397 334.75797432620845,527.5469579573818 332.8093976084528,518.9324334509865 331.17882201249716,510.26824778175967 329.7813958234807,501.49351257978753 328.555055443865,492.5571308447053 327.51275969108553,483.46762241248587 326.6845237980358,474.250485670437 326.0987386965907,464.93306709982573 325.78209396035595,455.54449114571605 325.7544010666426,446.1103040472284 326.0139588022964,436.6358423666434 326.5541332166404,427.1208142983219 327.36866409286336,417.5644214079308 328.45168725020704,407.9653790325434 329.7998104188119,398.32447436340226 331.41794030735986,388.6524828304175 333.3124987043774,378.96305540551157 335.4892640039314,369.27023063432387 337.95335517406187,359.5884097677881 340.7090020423753,349.9320133275397 343.75893206932824,340.3144715447246 347.1050802508526,330.749102917624 350.74880567950913,321.2494036087352 354.6908833068152,311.82902618482603 358.9329420032904,302.5043660115882 363.4814286536166,293.30256192910235 368.3426133759426,284.25397632141573 373.52102360329457,275.3895683372517 379.0194163334675,266.74082195908 384.83706557319425,258.33588343370263 390.96520890949245,250.1878875306395 397.3930318675944,242.30587905776372 404.1094970480253,234.69853618239358 411.10335487508877,227.37416557875179 418.36421019783137,220.3437640045828 425.88527111505795,213.6303561196064 433.65943305915744,207.2600181223686 441.67811043195474,201.2587899460616 449.93123241165273,195.6526145883064 458.405334937037,190.45963312902484 467.0789125773856,185.6669346363907 475.9300245359926,181.2530409751838 484.93850017240527,177.19555931545767 494.0859701871429,173.4712627516236 503.35854548331406,170.07290673964826 512.752454483717,167.0598658291126 522.2620000546417,164.50848607824878 531.8763083644274,162.49522931256092 541.5793184972963,161.0964489227274 551.3477126837429,160.35860308867268 561.1488499379356,160.20909090909083 570.95422087296,160.54451549151236 580.7425851148464,161.26047279950626 590.5,162.25186952680542" stroke="black" stroke-width="9.0" /><polyline fill="none" points="590.5000000000001,1132.3828790052519 597.693729934081,1132.3909090909092 604.8863305591724,1132.2330028895651 612.0713838637954,1131.8689212338936 619.2396618079472,1131.25870903158 626.3791377143141,1130.362817837946 633.4762544479281,1129.1541448803503 640.5213641797912,1127.6537158654583 647.5078920369332,1125.8946261219023 654.4314981715936,1123.9099906017036 661.2900723294115,1121.7328473965736 668.0823057296925,1119.3887596952854 674.8024031786316,1116.874021480942 681.4425573010973,1114.1778900807667 687.9941240210366,1111.2899709407118 694.4476357288612,1108.2002550521313 700.7939812261186,1104.9032203820436 707.0284839474617,1101.4098940329022 713.1484030917187,1097.7353682415767 719.1519051970296,1093.894659692292 725.0380573194172,1089.90267172775 730.8055095073943,1085.770745719365 736.448082503096,1081.4965774700895 741.95786592003,1077.0747689356792 747.3264219917371,1072.500308098622 752.5448006468608,1067.7685936051446 757.6061371675688,1062.880752171503 762.514150015018,1057.859175100373 767.2766792288251,1052.7309762670504 771.9032590078757,1047.5225393974385 776.4050832024529,1042.259446677328 780.7913618292429,1036.960406346307 785.0576284806765,1031.619687931327 789.1950898354512,1026.2260045049622 793.1940461643158,1020.7686785784939 797.0439184278154,1015.2376825927506 800.7371482735492,1009.6290070804905 804.2815816458581,1003.960138066317 807.6901467204752,998.2531080750192 810.977129229867,992.5289771523338 814.1581289477077,986.8077758716896 817.2444813163638,981.1020850034195 820.2257294392873,975.3986672788976 823.0846766383593,969.6789268435452 825.8027479572708,963.925525613336 828.3600464131215,958.1224435984815 830.7402040375609,952.2596654817937 832.9454606948166,946.3464468488719 834.9834288835085,940.3962653158745 836.8624392425172,934.4219983149361 838.5915133288623,928.4358945178217 840.1771047450312,922.4469300622437 841.6130166152603,916.4533876956056 842.8894583128265,910.4514957002408 843.9962127235942,904.4381764173448 844.9226668326882,898.4110663930259 845.6617602231432,892.3711776283752 846.222132772593,886.3302919565439 846.6170103490397,880.302067455119 846.8603422446905,874.299231120622 846.9667602138747,868.3335502330318 846.9450110370639,862.4121880031097 846.7778400556911,856.527741868803 846.4407083767613,850.6707016649519 845.9082651961007,844.8333315105704 845.1544261653507,839.0097062893298 844.1624294743626,833.2001871723999 842.9554540108392,827.4233796277234 841.5677533011379,821.7003539805311 840.0347380597669,816.0498086184878 838.3928724623505,810.4880240484036 836.6636059660526,805.0233241064286 834.8046298858461,799.6417833161619 832.7564813930944,794.3276363294481 830.4584908635852,789.0693872141402 827.8489698330626,783.8598619764881 824.9125304963477,778.7080052554307 821.8232495031414,773.6675773634377 818.8058528258485,768.7903042711645 816.0883504238109,764.1123304786084 813.9013566507226,759.654083889757 812.3730850344348,755.4036415816173 811.213517204527,751.2816591233849 810.0237210888382,747.2165208870248 808.4007547138638,743.1646893733745 805.9388951165129,739.1108581906057 802.3749278085214,735.0781354177715 798.0227821794241,731.1382053500221 793.3435714398199,727.3458507864929 788.8005786123422,723.7237466603416 784.8578560802059,720.2623971853601 781.8622602793018,716.9221565073743 779.6927856969944,713.6556395265337 778.1105588011885,710.4301444285394 776.8761319906054,707.2297084528942 775.7502141170866,704.055103534365 774.5538414180327,700.9175589354078 773.3464845706021,697.811671864719 772.2463098518272,694.7196190947049 771.3701971610126,691.6153722366247 770.833382812353,688.4647562731142 770.7241864287446,685.230364113247 771.0296108981117,681.8896438132305 771.7111876121476,678.4264980896286 772.7301540083994,674.8273168286407 774.0475590792707,671.0809769573658 775.6291330576797,667.1774725115421 777.4594890450498,663.1031451944541 779.527551226543,658.8436226611816 781.8217633780929,654.3850310310113 784.3301068943815,649.714007771169 787.0431679754623,644.8165436676557 789.963135693526,639.6740592778591 793.0943569566086,634.2661947511007 796.4402128686238,628.5719069577027 800.0030840004783,622.5695047088471 803.7802030559827,616.2386916590132 807.7515664014124,609.5671951613117 811.8927764742435,602.5457698322833 816.1792668233228,595.1663368599677 820.5863457918622,587.4219835055711 825.0680303290876,579.3197052777491 829.495265346396,570.9215806189601 833.7229275065861,562.3115812228555 837.611888809214,553.5833235705265 841.0294295896215,544.8398020433285 843.8861355643343,536.1665936909396 846.2420256737917,527.5469579573817 848.1906023915475,518.9324334509867 849.821177987503,510.26824778175967 851.2186041765194,501.4935125797874 852.4449445561352,492.55713084470517 853.4872403089146,483.46762241248564 854.3154762019644,474.250485670437 854.9012613034096,464.93306709982573 855.2179060396442,455.54449114571605 855.2455989333575,446.11030404722817 854.9860411977038,436.6358423666435 854.4458667833599,427.1208142983219 853.6313359071368,417.5644214079308 852.548312749793,407.9653790325432 851.200189581188,398.32447436340215 849.5820596926403,388.6524828304175 847.6875012956228,378.96305540551157 845.5107359960687,369.27023063432387 843.0466448259381,359.588409767788 840.2909979576249,349.9320133275397 837.241067930672,340.3144715447246 833.8949197491476,330.749102917624 830.251194320491,321.2494036087352 826.3091166931848,311.8290261848259 822.0670579967099,302.5043660115882 817.5185713463835,293.30256192910235 812.6573866240575,284.2539763214156 807.4789763967054,275.3895683372517 801.9805836665328,266.74082195908 796.162934426806,258.33588343370263 790.0347910905077,250.1878875306394 783.6069681324055,242.3058790577636 776.8905029519747,234.69853618239335 769.8966451249115,227.37416557875179 762.6357898021688,220.3437640045828 755.1147288849421,213.6303561196064 747.3405669408426,207.2600181223686 739.3218895680457,201.2587899460616 731.0687675883476,195.6526145883064 722.594665062963,190.45963312902484 713.9210874226144,185.6669346363907 705.0699754640073,181.2530409751838 696.061499827595,177.19555931545767 686.9140298128572,173.4712627516236 677.6414545166859,170.07290673964826 668.247545516283,167.0598658291126 658.7379999453586,164.508486078249 649.1236916355728,162.49522931256092 639.4206815027038,161.0964489227274 629.6522873162571,160.35860308867268 619.8511500620643,160.20909090909083 610.0457791270403,160.54451549151236 600.2574148851537,161.26047279950626 590.5000000000001,162.25186952680542" stroke="black" stroke-dasharray="8.0,8.0" stroke-width="7.0" /><polyline fill="none" points="590.5000000000001,1132.3828790052519 583.306270065919,1132.3909090909092 576.1136694408278,1132.2330028895651 568.9286161362049,1131.8689212338936 561.7603381920532,1131.25870903158 554.6208622856861,1130.362817837946 547.5237455520722,1129.1541448803503 540.478635820209,1127.6537158654583 533.4921079630668,1125.8946261219023 526.5685018284066,1123.9099906017036 519.7099276705887,1121.7328473965736 512.9176942703077,1119.3887596952854 506.1975968213685,1116.874021480942 499.5574426989029,1114.1778900807667 493.0058759789638,1111.2899709407118 486.552364271139,1108.2002550521313 480.2060187738817,1104.9032203820436 473.97151605253845,1101.4098940329022 467.8515969082816,1097.7353682415767 461.8480948029706,1093.8946596922917 455.9619426805831,1089.90267172775 450.1944904926058,1085.770745719365 444.55191749690425,1081.4965774700895 439.04213407997025,1077.0747689356792 433.6735780082631,1072.500308098622 428.4551993531395,1067.7685936051446 423.3938628324314,1062.880752171503 418.48584998498234,1057.859175100373 413.7233207711751,1052.7309762670502 409.0967409921246,1047.5225393974388 404.5949167975471,1042.2594466773278 400.20863817075747,1036.960406346307 395.94237151932373,1031.619687931327 391.80491016454897,1026.2260045049622 387.8059538356846,1020.7686785784939 383.95608157218464,1015.2376825927505 380.26285172645095,1009.6290070804906 376.718418354142,1003.960138066317 373.30985327952504,998.2531080750193 370.02287077013307,992.5289771523338 366.8418710522925,986.8077758716897 363.75551868363647,981.1020850034195 360.77427056071286,975.3986672788977 357.915323361641,969.6789268435454 355.19725204272936,963.9255256133359 352.6399535868787,958.1224435984816 350.2597959624393,952.2596654817937 348.05453930518365,946.346446848872 346.01657111649155,940.3962653158744 344.1375607574831,934.4219983149361 342.40848667113784,928.4358945178217 340.82289525496896,922.446930062244 339.3869833847397,916.4533876956054 338.11054168717374,910.4514957002408 337.003787276406,904.438176417345 336.07733316731213,898.4110663930259 335.3382397768569,892.3711776283752 334.7778672274072,886.3302919565439 334.38298965096055,880.302067455119 334.1396577553097,874.2992311206222 334.0332397861254,868.333550233032 334.05498896293636,862.4121880031097 334.2221599443091,856.527741868803 334.5592916232389,850.6707016649519 335.0917348038994,844.8333315105705 335.8455738346493,839.0097062893298 336.8375705256375,833.2001871723998 338.04454598916107,827.4233796277234 339.4322466988623,821.7003539805311 340.96526194023335,816.0498086184879 342.6071275376496,810.4880240484036 344.33639403394744,805.0233241064286 346.19537011415406,799.6417833161619 348.2435186069059,794.3276363294482 350.54150913641485,789.0693872141402 353.1510301669376,783.8598619764881 356.0874695036524,778.7080052554307 359.17675049685886,773.6675773634378 362.1941471741516,768.7903042711647 364.91164957618923,764.1123304786084 367.0986433492775,759.654083889757 368.62691496556545,755.4036415816173 369.78648279547326,751.2816591233851 370.97627891116207,747.2165208870248 372.59924528613647,743.1646893733745 375.0611048834873,739.1108581906057 378.62507219147875,735.0781354177715 382.977217820576,731.1382053500221 387.65642856018025,727.3458507864929 392.199421387658,723.7237466603416 396.14214391979414,720.2623971853601 399.1377397206982,716.9221565073746 401.3072143030058,713.6556395265337 402.88944119881165,710.4301444285394 404.1238680093948,707.2297084528942 405.2497858829137,704.055103534365 406.44615858196744,700.9175589354078 407.65351542939806,697.811671864719 408.75369014817306,694.7196190947049 409.62980283898753,691.6153722366247 410.1666171876472,688.4647562731142 410.2758135712555,685.2303641132469 409.9703891018885,681.8896438132305 409.2888123878526,678.4264980896286 408.26984599160073,674.8273168286407 406.95244092072943,671.0809769573658 405.3708669423205,667.1774725115421 403.5405109549504,663.1031451944541 401.47244877345713,658.8436226611817 399.17823662190716,654.3850310310114 396.6698931056186,649.714007771169 393.9568320245379,644.8165436676557 391.03686430647406,639.6740592778591 387.9056430433915,634.2661947511007 384.5597871313763,628.5719069577028 380.9969159995219,622.5695047088471 377.2197969440174,616.2386916590132 373.2484335985876,609.5671951613118 369.1072235257565,602.5457698322834 364.82073317667744,595.1663368599677 360.4136542081379,587.4219835055711 355.9319696709127,579.3197052777491 351.5047346536042,570.9215806189601 347.27707249341404,562.3115812228556 343.3881111907862,553.5833235705265 339.9705704103786,544.8398020433285 337.11386443566585,536.1665936909397 334.75797432620845,527.5469579573818 332.8093976084528,518.9324334509865 331.17882201249716,510.26824778175967 329.7813958234807,501.49351257978753 328.555055443865,492.5571308447053 327.51275969108553,483.46762241248587 326.6845237980358,474.250485670437 326.0987386965907,464.93306709982573 325.78209396035595,455.54449114571605 325.7544010666426,446.1103040472284 326.0139588022964,436.6358423666434 326.5541332166404,427.1208142983219 327.36866409286336,417.5644214079308 328.45168725020704,407.9653790325434 329.7998104188119,398.32447436340226 331.41794030735986,388.6524828304175 333.3124987043774,378.96305540551157 335.4892640039314,369.27023063432387 337.95335517406187,359.5884097677881 340.7090020423753,349.9320133275397 343.75893206932824,340.3144715447246 347.1050802508526,330.749102917624 350.74880567950913,321.2494036087352 354.6908833068152,311.82902618482603 358.9329420032904,302.5043660115882 363.4814286536166,293.30256192910235 368.3426133759426,284.25397632141573 373.52102360329457,275.3895683372517 379.0194163334675,266.74082195908 384.83706557319425,258.33588343370263 390.96520890949245,250.1878875306395 397.3930318675944,242.30587905776372 404.1094970480253,234.69853618239358 411.10335487508877,227.37416557875179 418.36421019783137,220.3437640045828 425.88527111505795,213.6303561196064 433.65943305915744,207.2600181223686 441.67811043195474,201.2587899460616 449.93123241165273,195.6526145883064 458.405334937037,190.45963312902484 467.0789125773856,185.6669346363907 475.9300245359926,181.2530409751838 484.93850017240527,177.19555931545767 494.0859701871429,173.4712627516236 503.35854548331406,170.07290673964826 512.752454483717,167.0598658291126 522.2620000546417,164.50848607824878 531.8763083644274,162.49522931256092 541.5793184972963,161.0964489227274 551.3477126837429,160.35860308867268 561.1488499379356,160.20909090909083 570.95422087296,160.54451549151236 580.7425851148464,161.26047279950626 590.5,162.25186952680542" stroke="black" stroke-dasharray="8.0,8.0" stroke-width="7.0" /></g><rect fill="white" height="111.60000000000001" stroke="none" width="1181" x="0" y="0" /><line stroke="black" stroke-width="3.0" x1="0" x2="1181" y1="111.60000000000001" y2="111.60000000000001" /><text font-family="Arial" font-size="62.0" text-anchor="start" x="40.0" y="77.5">LED</text><text font-family="Arial" font-size="62.0" text-anchor="middle" x="590.5" y="77.5" /><text font-family="Arial" font-size="62.0" text-anchor="end" x="1141.0" y="77.5">cd / klm</text><rect fill="none" height="1178.0" stroke="black" stroke-width="3.0" width="1178.0" x="1.5" y="1.5" /></svg>