<?xml version="1.0" encoding="utf-8" ?>
<svg baseProfile="full" height="1181" version="1.1" width="1181" xmlns="http://www.w3.org/2000/svg" xmlns:ev="http://www.w3.org/2001/xml-events" xmlns:xlink="http://www.w3.org/1999/xlink"><defs><clipPath id="plot_clip"><rect height="1069.4" width="1181.0" x="0" y="111.60000000000001" /></clipPath></defs><g clip-path="url(#plot_clip)" id="grid"><circle cx="363.55651877034063" cy="371.37694993385423" fill="none" r="153.47227230797648" stroke="black" stroke-width="3.0" /><text font-family="Arial" font-size="42.0" text-anchor="start" x="371.55651877034063" y="564.8492222418307">100</text><circle cx="363.55651877034063" cy="371.37694993385423" fill="none" r="306.94454461595296" stroke="black" stroke-width="3.0" /><text font-family="Arial" font-size="42.0" text-anchor="start" x="371.5565187703407" y="718.3214945498072">200</text><circle cx="363.55651877034063" cy="371.37694993385423" fill="none" r="460.41681692392945" stroke="black" stroke-width="3.0" /><text font-family="Arial" font-size="42.0" text-anchor="start" x="371.5565187703407" y="871.7937668577837">300</text><circle cx="363.55651877034063" cy="371.37694993385423" fill="none" r="613.8890892319059" stroke="black" stroke-width="3.0" /><text font-family="Arial" font-size="42.0" text-anchor="start" x="371.5565187703407" y="1025.26603916576">400</text><circle cx="363.55651877034063" cy="371.37694993385423" fill="none" r="767.3613615398824" stroke="black" stroke-width="3.0" /><text font-family="Arial" font-size="42.0" text-anchor="start" x="371.5565187703407" y="1178.7383114737365">500</text><circle cx="363.55651877034063" cy="371.37694993385423" fill="none" r="920.8336338478589" stroke="black" stroke-width="3.0" /><text font-family="Arial" font-size="42.0" text-anchor="start" x="371.55651877034074" y="1332.210583781713">600</text><line stroke="black" stroke-width="3.0" x1="-4013.0122706362254" x2="4740.125308176906" y1="371.3769499338539" y2="371.3769499338546" /><line stroke="black" stroke-width="3.0" x1="-3426.663234265852" x2="4153.776271806533" y1="-1816.9074447694293" y2="2559.6613446371375" /><line stroke="black" stroke-width="3.0" x1="-1824.727875932942" x2="2551.840913473623" y1="-3418.8428031023386" y2="4161.596702970047" /><line stroke="black" stroke-width="3.0" x1="363.55651877034063" x2="363.55651877034063" y1="-4005.1918394727113" y2="4747.94573934042" /><line stroke="black" stroke-width="3.0" x1="2551.8409134736235" x2="-1824.7278759329422" y1="-3418.8428031023386" y2="4161.596702970047" /><line stroke="black" stroke-width="3.0" x1="4153.776271806534" x2="-3426.663234265853" y1="-1816.9074447694293" y2="2559.6613446371375" /><line stroke="black" stroke-width="3.0" x1="4740.125308176906" x2="-4013.0122706362254" y1="371.3769499338539" y2="371.3769499338546" /></g><g clip-path="url(#plot_clip)" id="curves"><polyline fill="none" points="363.5565187703407,828.0030017317766 371.5733802175337,830.6626346426618 379.6818485332259,833.1459772943716 387.87577391967477,835.415981582037 396.1465322337998,837.4358557765304 404.4830350189434,839.1691712251954 412.8730522495408,840.5924230738332 421.30889406026955,841.7323013334345 429.78653251498497,842.6279844455868 438.3047209686128,843.3185247824314 446.8649827278837,843.8427269965457 455.47311850474864,844.2468622318385 464.14484782881084,844.6078314844596 472.90311345908077,845.0090867632597 481.77677170907094,845.5324863782988 490.80052232911993,846.2580361736933 500.0011894736005,847.2160653295192 509.3500891707354,848.2462314361372 518.7923776210281,849.1437970978762 528.2591963925762,849.7082578666851 537.6678674013102,849.7439487682344 546.9554679222509,849.1475468458303 556.191237083899,848.1646087432933 565.4976318323447,847.1203988980584 575.0196342082786,846.3308835318148 584.924329998521,846.1017530907405 595.3867494642674,846.6993625198266 606.5443604324225,848.2674406898781 618.5309392264777,850.9140904720545 631.4889996808738,854.7399406848051 645.5694927498628,859.8377492599865 660.8622681413966,866.1768085969479 677.172073490025,873.2667509961283 694.1984685248954,880.5209039282346 711.6019690933292,887.3755498511571 729.0050888596761,893.2915968736949 746.0669357485779,897.8573722545896 762.7188934817418,901.0833122803252 778.9692822344944,903.0810404360003 794.8332946063615,903.9594140933613 810.3328437548902,903.8242403202294 825.4852842380095,902.7652081144639 840.268115960306,900.8188157372427 854.6491492191313,898.0093205508521 868.5971913940703,894.3618761329055 882.0820681111574,889.902499274671 895.0891860896091,884.6720802073347 907.6651233551822,878.7664322065305 919.877298287455,872.290429737991 931.7996686396349,865.3431839701501 943.512464690098,858.0177702541931 955.2116782409289,850.4898512305821 967.5503493130418,843.2686482356006 981.329545610173,836.9023163532721 997.3894028135899,831.8834958395653 1016.6066994264156,828.6476092584509 1039.3456534932393,827.2024768940232 1063.764403937753,826.0972673783424 1087.368185726595,823.6646771692185 1107.5504216582272,818.4135869758005 1121.6004693775792,809.0338288745106 1127.3181818181818,794.7369529138923 1124.888133704441,776.1841502163807 1115.1437147354175,754.3297537922173 1098.9696391169316,730.0618947857946 1077.2989315799646,704.2005029770081 1050.8223461907708,677.3674107337357 1019.1051976626311,649.6408549231085 981.4183881759399,621.009349117253 937.0233456519657,591.5102400595911 885.1741244634578,561.2302320753537 825.783047344185,530.5343073168533 761.4444977456412,500.65859119723393 695.4954284087548,472.86085898025124 631.3501197045598,448.1655293374772 572.4899654040514,427.3604982312082 521.781337431481,410.8268279708608 479.427156900996,398.1277945636433 444.93789822129077,388.67509613391155 417.7989576501727,381.9206119716998 397.4724881794475,377.3572504175628 383.30110723604344,374.5041855274328 374.21327212025665,372.8746589448689 369.01686048016734,372.04739559307507 366.50044536636676,371.6863690874079 365.4370444172614,371.54147460942943 364.78996516731206,371.46320090809763 364.3245453069093,371.4172004990663 364.00707904381716,371.39268384530646 363.803462025431,371.3812603444055 363.679296588187,371.37694993385423 363.6041518118646,371.3761184960217 363.56411759629543,371.37668457700465 363.55651877034063,371.37694993385423 363.55651877034063,371.37694993385423 363.55651877034063,371.37694993385423 363.5605751347195,371.3765235927782 363.5615496637409,371.3763322178171 363.5604989420262,371.3763905572032 363.55847432720583,371.37664020407465 363.55651877034063,371.37694993385423 363.55651877034063,371.37694993385423 363.55651877034063,371.37694993385423 363.55651877034063,371.37694993385423 363.55651877034063,371.37694993385423 363.55651877034063,371.37694993385423 363.5568002643477,371.3768692167465 363.55686678346774,371.3768435355637 363.5567932184611,371.3768607602543 363.55665317845626,371.3769036534286 363.55651877034063,371.37694993385423 363.55651877034063,371.37694993385423 363.55651877034063,371.37694993385423 363.55651877034063,371.37694993385423 363.55651877034063,371.37694993385423 363.55651877034063,371.37694993385423 363.55653766732956,371.3769407171768 363.5565420504544,371.3769380720437 363.5565370637127,371.3769402070958 363.55652769680734,371.376944985833 363.55651877034063,371.37694993385423 363.55651877034063,371.37694993385423 363.55651877034063,371.37694993385423 363.55651877034063,371.37694993385423 363.55651877034063,371.37694993385423 363.55651877034063,371.37694993385423 363.5565199915636,371.37694904658383 363.556520268499,371.37694880491097 363.55651994252486,371.37694901804343 363.5565193398067,371.3769494727096 363.55651877034063,371.37694993385423 363.55651877034063,371.37694993385423 363.55651877034063,371.37694993385423 363.55651877034063,371.37694993385423 363.55651877034063,371.37694993385423 363.55651877034063,371.37694993385423 363.5565188456265,371.3769498558934 363.5565188621945,371.376949835353 363.5565188418034,371.37694985448695 363.556518804856,371.3769498941489 363.55651877034063,371.37694993385423 363.55651877034063,371.37694993385423 363.55651877034063,371.37694993385423 363.55651877034063,371.37694993385423 363.55651877034063,371.37694993385423 363.55651877034063,371.37694993385423 363.5565187746918,371.3769499274033 363.5565187756072,371.3769499257445 363.55651877440397,371.37694992735146 363.55651877228604,371.37694993061643 363.55651877034063,371.37694993385423 363.55651877034063,371.37694993385423 363.55651877034063,371.37694993385423 363.55651877034063,371.37694993385423 363.55651877034063,371.37694993385423 363.55651877034063,371.37694993385423 363.55651877056783,371.3769499333439 363.5565187706119,371.3769499332151 363.55651877054686,371.37694993334367 363.55651877043783,371.37694993360105 363.55651877034063,371.37694993385423 363.55651877034063,371.37694993385423 363.55651877034063,371.37694993385423 363.55651877034063,371.37694993385423 363.55651877034063,371.37694993385423 363.55651877034063,371.37694993385423 363.55651877035035,371.37694993381535 363.55651877035183,371.3769499338056 363.5565187703489,371.37694993381547 363.5565187703443,371.376949933835 363.55651877034063,371.37694993385423 363.55651877034063,371.37694993385423 363.55651877034063,371.37694993385423 363.55651877034063,371.37694993385423 363.55651877034063,371.37694993385423 363.55651877034063,371.37694993385423 363.55651877034086,371.37694993385094 363.55651877034086,371.3769499338499 363.55651877034074,371.37694993385037 363.5565187703407,371.3769499338522 363.55651877034063,371.37694993385423" stroke="black" stroke-width="9.0" /><polyline fill="none" points="363.5565187703407,828.0030017317766 355.5878606999916,827.9010650327886 347.612997588183,827.9396607276504 339.6050811829469,828.3976044065074 331.5177946310408,829.5520511408421 323.28542602606245,831.6776462903077 314.8362219854025,834.9196098636442 306.14985710602554,838.9166898015656 297.24849252779455,843.1830722111239 288.18780234661756,847.2362974132499 279.05679174852935,850.5987155553115 269.95578071570935,852.9110027905926 260.91514950403183,854.2666262622267 251.93321659284396,854.870590323611 242.9941845367173,854.926061380647 234.06824780784314,854.6337561501406 225.13260074129857,854.1185210413857 216.24436497556292,853.2132939080414 207.49568810146238,851.6827992813561 198.99518278744986,849.2977719402312 190.8676656316531,845.8356745239138 183.1963661568851,841.2312112136723 175.8292557391024,836.018230690295 168.51524144388452,830.8654045566728 160.95719426889522,826.4224831322541 152.81280583667427,823.3183007739818 143.81208310280866,821.9198105486695 134.14127604776547,821.6297154241944 124.15138753452113,821.6325161887717 114.24886269610914,821.1398672465517 104.89435102247703,819.3929664690577 97.11478891249833,814.8104541782405 89.41638753451333,810.0928677463938 82.22905748286149,804.5832509293467 76.00511493762761,797.6894376972795 70.08850890310536,790.4927032683214 64.36504285140407,783.1786881477651 59.286601683233066,775.1567677791718 55.49421300895939,765.6787203872399 53.681818181818166,754.0403365727709 54.59434865858927,739.5837261402373 58.78405269402003,721.9775662988905 65.84488403101582,702.0192172856058 75.06996799500456,680.7409002482716 85.68578114828681,659.1205220568366 96.85461004930276,638.0788586548922 107.96676186583575,618.1971091322034 119.55088058246972,598.9158886466919 132.47302465152168,579.4454626089149 147.6543084199013,559.0578780567004 166.0681753776773,537.0893460364501 188.3312732778783,513.2715559463259 213.43617474471841,488.6638169673164 239.89122186711344,464.5654352724456 266.1197045738733,442.16893924094427 290.46458194489844,422.5564750813768 311.496626892026,406.49179039167336 328.9574827467107,393.8458266449137 342.90165373073796,384.2835420649253 353.4000421810954,377.47957674440715 360.5394416446289,373.11886022454973 363.55651877034063,371.37694993385423 363.55651877034063,371.37694993385423 363.55651877034063,371.37694993385423 363.55651877034063,371.37694993385423 363.1392394238798,371.57153048869895 362.38680296418397,371.89774096441397 362.2113813661311,371.94792688628263 362.4254299892733,371.8339394651533 362.8347799425873,371.65399951251743 363.23924189441794,371.4924292727112 363.47649090272324,371.4045057385076 363.5545313028948,371.37759570117305 363.52569917468225,371.38637242983714 363.44377217531337,371.40927949973843 363.3638030894666,371.42858794491315 363.3300720566668,371.433409440725 363.3398791406354,371.4269651332904 363.37841093061076,371.4148079238736 363.4305554162654,371.40143472955936 363.48094842852,371.3902750240586 363.51718798277113,371.38317931863105 363.53945019754684,371.3793487653219 363.55112377665444,371.377612355785 363.5556513374177,371.3770411047283 363.55651877034063,371.37694993385423 363.55651877034063,371.37694993385423 363.55651877034063,371.37694993385423 363.55651877034063,371.37694993385423 363.55651877034063,371.37694993385423 363.55651877034063,371.37694993385423 363.5564805695752,371.3769492670574 363.5564713193408,371.3769482768289 363.55648117196864,371.37694796340713 363.55650026884166,371.3769486401035 363.55651877034063,371.37694993385423 363.55651877034063,371.37694993385423 363.55651877034063,371.37694993385423 363.55651877034063,371.37694993385423 363.55651877034063,371.37694993385423 363.55651877034063,371.37694993385423 363.5565160776299,371.37694941044435 363.55651543592825,371.376949225103 363.55651613647586,371.3769493257786 363.5565174783031,371.37694961171314 363.55651877034063,371.37694993385423 363.55651877034063,371.37694993385423 363.55651877034063,371.37694993385423 363.55651877034063,371.37694993385423 363.55651877034063,371.37694993385423 363.55651877034063,371.37694993385423 363.55651858647536,371.37694986327506 363.55651854341386,371.3769498421699 363.55651859169166,371.37694985802216 363.5565186830021,371.37694989496856 363.55651877034063,371.37694993385423 363.55651877034063,371.37694993385423 363.55651877034063,371.37694993385423 363.55651877034063,371.37694993385423 363.55651877034063,371.37694993385423 363.55651877034063,371.37694993385423 363.5565187582202,371.37694992657157 363.5565187554386,371.3769499245424 363.5565187586545,371.3769499262652 363.5565187646501,371.37694993001594 363.55651877034063,371.37694993385423 363.55651877034063,371.37694993385423 363.55651877034063,371.37694993385423 363.55651877034063,371.37694993385423 363.55651877034063,371.37694993385423 363.55651877034063,371.37694993385423 363.55651876957444,371.37694993318826 363.55651876940306,371.3769499330101 363.55651876960894,371.376949933172 363.55651876998616,371.3769499335119 363.55651877034063,371.37694993385423 363.55651877034063,371.37694993385423 363.55651877034063,371.37694993385423 363.55651877034063,371.37694993385423 363.55651877034063,371.37694993385423 363.55651877034063,371.37694993385423 363.55651877029476,371.3769499337975 363.55651877028487,371.37694993378284 363.5565187702974,371.3769499337968 363.5565187703198,371.3769499338256 363.55651877034063,371.37694993385423 363.55651877034063,371.37694993385423 363.55651877034063,371.37694993385423 363.55651877034063,371.37694993385423 363.55651877034063,371.37694993385423 363.55651877034063,371.37694993385423 363.5565187703381,371.3769499338497 363.55651877033756,371.37694993384844 363.55651877033824,371.3769499338497 363.5565187703395,371.37694993385196 363.55651877034063,371.37694993385423 363.55651877034063,371.37694993385423 363.55651877034063,371.37694993385423 363.55651877034063,371.37694993385423 363.55651877034063,371.37694993385423 363.55651877034063,371.37694993385423 363.5565187703405,371.3769499338539 363.5565187703405,371.37694993385367 363.5565187703405,371.3769499338539 363.5565187703406,371.3769499338541 363.55651877034063,371.37694993385423 363.55651877034063,371.37694993385423 363.55651877034063,371.37694993385423 363.55651877034063,371.37694993385423 363.55651877034063,371.37694993385423 363.55651877034063,371.37694993385423 363.55651877034063,371.37694993385423 363.55651877034063,371.37694993385423 363.55651877034063,371.37694993385423 363.55651877034063,371.37694993385423 363.55651877034063,371.37694993385423 363.55651877034063,371.37694993385423 363.55651877034063,371.37694993385423 363.55651877034063,371.37694993385423 363.55651877034063,371.37694993385423 363.55651877034063,371.37694993385423" stroke="black" stroke-width="9.0" /><polyline fill="none" points="363.5565187703407,828.0030017317766 371.6608833220186,835.6756841411758 380.03527682002556,843.2668392325144 388.68379181367015,850.8338814634936 397.6148572110246,858.4338812322168 406.84122203552295,866.1233721643932 416.3754966131462,873.9159552298132 426.21092835830433,881.6561668584433 436.3244128528167,889.1474202499661 446.6795187963433,896.1949172523622 457.22657287077965,902.6062247962817 467.9063147358476,908.2101118338857 478.6632177886101,912.9113919378786 489.43940654319,916.6356413071707 500.17183389730917,919.3110510740906 510.7923769183481,920.868653238222 521.2228796271182,921.2248940936134 530.7950360768664,918.3894921773098 540.3162500541673,915.387464941609 549.783621305009,912.2197268330889 559.1942659763963,908.8872427754636 567.235788829174,901.9795890689369 574.6555989638224,893.8655080890129 581.5678375768358,884.9794311204924 588.115860665027,875.7454897530491 594.4717492228949,866.5762596904164 600.7574853050066,857.7110028462024 606.787187588846,848.744015818097 612.2629784440236,839.1257707447402 616.8484972048568,828.3277750569008 620.1698316828927,815.8442457969651 621.9219165527167,801.3691804123924 622.2101711560089,785.3093209092202 621.2771230955682,768.231878987393 619.4023069882812,750.6839295041497 616.901330216109,733.1908374185854 614.0706799965092,716.1801122675532 611.0137177675755,699.7637444358262 607.7845431400331,683.9745660728892 604.4394555438121,668.8426036132269 601.0368444863658,654.3949812763703 597.5921677941594,640.6041667343198 593.9359510995746,627.2392306379467 589.8362439761889,614.0322469575893 585.0424288231092,600.7323238709876 579.2859801743735,587.106411337887 572.3651738253577,573.0211242030467 564.4088796607365,558.6748065505144 555.6445572858519,544.3337966744598 546.316495026448,530.2477734968968 536.6850665022349,516.6490504819449 526.9792734731761,503.7140873529546 517.2506641890856,491.4559766277529 507.5038402916899,479.84903706771615 497.7418407638335,468.8682929962199 487.9661862668277,458.4895369410581 478.1974958096681,448.7032653260177 468.5391580910736,439.5534730626538 459.1188461133025,431.09091948759783 450.0681113282666,423.3583589912697 441.5220448471029,416.3903674017837 433.5965928373638,410.20079695362756 426.31948505260794,404.7486110651871 419.69410544544013,399.9804790180168 413.7214409927115,395.84401730457625 408.4001392033263,392.2878735611514 403.696850922536,389.2485772458241 399.45533001723095,386.61509124002123 395.482726915816,384.2759753160982 391.579444468062,382.13394326567925 387.539766254862,380.1061381392599 383.2329229771148,378.15207923249557 378.84879375457695,376.34571127644233 374.6632028653337,374.7726040309626 370.95768051309614,373.499198912844 368.0186279967311,372.57256849760506 366.0511360499371,371.9989278780341 364.9192517921193,371.69156164157937 364.3968263466739,371.55556282302484 364.25276933918633,371.5122873346637 364.2517659150906,371.4995407637342 364.2001780977453,371.47889555618497 364.0832521567693,371.45097748364856 363.93159519041274,371.4230035273979 363.77618018099804,371.40003727843873 363.648251728727,371.38497552778483 363.57165256506346,371.3780081918719 363.55651877034063,371.37694993385423 363.55651877034063,371.37694993385423 363.55651877034063,371.37694993385423 363.5718659975714,371.37694993385423 363.5800797999924,371.37653867455197 363.5793389964567,371.3761530339982 363.5729564471766,371.37608847171464 363.56424726926736,371.3764095045633 363.55651877034063,371.37694993385423 363.55651877034063,371.37694993385423 363.55651877034063,371.37694993385423 363.55651877034063,371.37694993385423 363.55651877034063,371.37694993385423 363.55651877034063,371.37694993385423 363.5576257515644,371.3767347585017 363.55788955699035,371.3766585641573 363.5576015598266,371.37669995220415 363.55704993076284,371.3768175006869 363.55651877034063,371.37694993385423 363.55651877034063,371.37694993385423 363.55651877034063,371.37694993385423 363.55651877034063,371.37694993385423 363.55651877034063,371.37694993385423 363.55651877034063,371.37694993385423 363.55659435789966,371.37692091850886 363.5566120605865,371.37691224214825 363.55659221345496,371.37691875910184 363.55655467548326,371.3769339478548 363.55651877034063,371.37694993385423 363.55651877034063,371.37694993385423 363.55651877034063,371.37694993385423 363.55651877034063,371.37694993385423 363.55651877034063,371.37694993385423 363.55651877034063,371.37694993385423 363.55652375309046,371.37694693991614 363.5565248966054,371.3769461057392 363.5565235745432,371.37694681396863 363.55652110974665,371.37694835590503 363.55651877034063,371.37694993385423 363.55651877034063,371.37694993385423 363.55651877034063,371.37694993385423 363.55651877034063,371.37694993385423 363.55651877034063,371.37694993385423 363.55651877034063,371.37694993385423 363.55651908532445,371.376949660043 363.55651915577783,371.37694958680504 363.55651907112986,371.3769496533638 363.55651891607783,371.37694979311755 363.55651877034063,371.37694993385423 363.55651877034063,371.37694993385423 363.55651877034063,371.37694993385423 363.55651877034063,371.37694993385423 363.55651877034063,371.37694993385423 363.55651877034063,371.37694993385423 363.5565187891982,371.3769499105671 363.55651879326655,371.3769499045104 363.55651878811125,371.37694991027183 363.5565187788905,371.3769499220864 363.55651877034063,371.37694993385423 363.55651877034063,371.37694993385423 363.55651877034063,371.37694993385423 363.55651877034063,371.37694993385423 363.55651877034063,371.37694993385423 363.55651877034063,371.37694993385423 363.55651877138365,371.3769499319727 363.5565187715958,371.3769499314935 363.5565187713031,371.3769499319653 363.55651877079845,371.3769499329155 363.55651877034063,371.37694993385423 363.55651877034063,371.37694993385423 363.55651877034063,371.37694993385423 363.55651877034063,371.37694993385423 363.55651877034063,371.37694993385423 363.55651877034063,371.37694993385423 363.55651877039094,371.37694993370826 363.5565187704,371.37694993367177 363.55651877038514,371.3769499337087 363.5565187703613,371.37694993378216 363.55651877034063,371.37694993385423 363.55651877034063,371.37694993385423 363.55651877034063,371.37694993385423 363.55651877034063,371.37694993385423 363.55651877034063,371.37694993385423 363.55651877034063,371.37694993385423 363.5565187703424,371.3769499338432 363.55651877034256,371.3769499338405 363.556518770342,371.3769499338431 363.5565187703412,371.37694993384866 363.55651877034063,371.37694993385423 363.55651877034063,371.37694993385423 363.55651877034063,371.37694993385423 363.55651877034063,371.37694993385423 363.55651877034063,371.37694993385423 363.55651877034063,371.37694993385423" stroke="black" stroke-dasharray="8.0,8.0" stroke-width="7.0" /><polyline fill="none" points="363.5565187703407,828.0030017317766 355.71364705394933,820.6947696408762 348.124285069176,813.2983029215517 340.7859982766982,805.8643639237642 333.693117745544,798.44348127982 326.83675134031023,791.085812204335 320.20617795837114,783.8278916336914 313.79483232544624,776.6533631813223 307.59938346356006,769.5326562470767 301.61881147168947,762.4362432062129 295.85440046012224,755.3347426562026 290.30800401567865,748.2078906788114 284.97562327881656,741.0709968930579 279.8504128184674,733.9479283946663 274.92410955897105,726.8621268921626 270.1870504662679,719.8365495203453 265.6300852646431,712.8870085754503 261.2511965842226,706.002580891182 257.0514371280024,699.165886329985 253.0332551101374,692.3598144920493 249.20047893692788,685.5675871544092 245.55538859211933,678.7804037826481 242.08890736330724,672.0198380432818 238.78749159892484,665.3143577771624 235.63580941604857,658.6915672875073 232.61677739693005,652.1781314788651 229.72073416255014,645.7809732559863 226.97548870851043,639.4323143859172 224.4234406445077,633.048212170207 222.1129732229081,626.5478607763314 220.09831223045956,619.8538524236379 218.42352369013656,612.9188158579166 217.0711342617863,605.8025687627488 216.00324150718768,598.5890718874024 215.1765654850391,591.3592771843861 214.54258658986916,584.1909001541992 214.0550541600304,577.1480629074463 213.69363462179362,570.2517142962829 213.4443818510524,563.5117234743188 213.29275955939153,556.9372389137228 213.2236693711587,550.5366632902536 213.21983478073057,544.3195216418703 213.25663376754366,538.3018831953491 213.30661932082012,532.5002407878749 213.34116003481992,526.929507501411 213.33050467425795,521.6029640299369 213.2553885084908,516.5210642685385 213.14326311578606,511.63957998680735 213.03634830796767,506.905920166575 212.98034185555005,502.27082355695154 213.02426797859988,497.68850605348985 213.22592888533532,493.1122613235185 213.66919483674593,488.4817617187281 214.44806465517757,483.738229436902 215.6609435856296,478.8293750093611 217.41036025713709,473.7095918051906 219.78590621541247,468.3514525738059 222.81206875082594,462.7774644769346 226.4956517833599,457.0220850601395 230.84214672958106,451.11978967211905 235.85573892964302,445.1050295506062 241.52720999996822,439.01890032779636 247.79670872114556,432.92753274435256 254.5885636615275,426.89889624116097 261.82338341685863,420.9955153827292 269.4182982087875,415.2743231067908 277.2906471589014,409.7849905384103 285.3687615299272,404.56568381831994 293.58223588821204,399.64839535224223 301.8587382736457,395.060508908045 310.12420852972025,390.8247204095172 318.28553221526437,386.9650006856323 326.1773415567043,383.52218083954494 333.6135101451849,380.53144636574575 340.4049903847138,378.01554387169676 346.3603503231216,375.98464938219627 351.3298267505266,374.4254066365331 355.3378673351975,373.27437512417737 358.45534307099933,372.4612383009809 360.75619184747455,371.92127834680775 362.317165164482,371.59548141320545 363.22945684376225,371.42875145404673 363.55651877034063,371.37694993385423 363.55651877034063,371.37694993385423 363.54728411990465,371.3779205347263 363.37305285356786,371.3930011217152 363.2932797806368,371.3953573971835 363.3063318934959,371.39006167247555 363.3777233125086,371.3831936088234 363.4727346423188,371.37841239124884 363.55651877034063,371.37694993385423 363.55651877034063,371.37694993385423 363.55651877034063,371.37694993385423 363.55651877034063,371.37694993385423 363.55651877034063,371.37694993385423 363.55651877034063,371.37694993385423 363.54440956986167,371.3756772055983 363.5415003718236,371.3751059063869 363.54463702294834,371.375280063158 363.55068097375323,371.3760253177089 363.55651877034063,371.37694993385423 363.55651877034063,371.37694993385423 363.55651877034063,371.37694993385423 363.55651877034063,371.37694993385423 363.55651877034063,371.37694993385423 363.55651877034063,371.37694993385423 363.5556784446088,371.37670897432815 363.5554798694107,371.37663230996486 363.5556994782353,371.3766837297122 363.556117530544,371.37681177591276 363.55651877034063,371.37694993385423 363.55651877034063,371.37694993385423 363.55651877034063,371.37694993385423 363.55651877034063,371.37694993385423 363.55651877034063,371.37694993385423 363.55651877034063,371.37694993385423 363.55646235839,371.3769224199076 363.55644927373254,371.37691452356387 363.5564641603281,371.37692089719553 363.5564921227407,371.37693516284844 363.55651877034063,371.37694993385423 363.55651877034063,371.37694993385423 363.55651877034063,371.37694993385423 363.55651877034063,371.37694993385423 363.55651877034063,371.37694993385423 363.55651877034063,371.37694993385423 363.55651512470314,371.3769472851436 363.55651429798587,371.3769465636932 363.55651527109524,371.3769471999441 363.5565170703507,371.3769485572295 363.55651877034063,371.37694993385423 363.55651877034063,371.37694993385423 363.55651877034063,371.37694993385423 363.55651877034063,371.37694993385423 363.55651877034063,371.37694993385423 363.55651877034063,371.37694993385423 363.5565185455946,371.37694970112284 363.5565184961353,371.37694963980516 363.5565185570076,371.37694969692393 363.556518667304,371.3769498153241 363.55651877034063,371.37694993385423 363.55651877034063,371.37694993385423 363.55651877034063,371.37694993385423 363.55651877034063,371.37694993385423 363.55651877034063,371.37694993385423 363.55651877034063,371.37694993385423 363.5565187573513,371.3769499145968 363.5565187546187,371.3769499096446 363.5565187582106,371.3769499144422 363.5565187645331,371.3769499241889 363.55651877034063,371.37694993385423 363.55651877034063,371.37694993385423 363.55651877034063,371.37694993385423 363.55651877034063,371.37694993385423 363.55651877034063,371.37694993385423 363.55651877034063,371.37694993385423 363.5565187696623,371.3769499323307 363.55651876953084,371.37694993194646 363.55651876972496,371.3769499323305 363.5565187700505,371.37694993309844 363.55651877034063,371.37694993385423 363.55651877034063,371.37694993385423 363.55651877034063,371.37694993385423 363.55651877034063,371.37694993385423 363.55651877034063,371.37694993385423 363.55651877034063,371.37694993385423 363.55651877031164,371.37694993373805 363.55651877030715,371.37694993370906 363.5565187703161,371.3769499337386 363.5565187703295,371.37694993379705 363.55651877034063,371.37694993385423 363.55651877034063,371.37694993385423 363.55651877034063,371.37694993385423 363.55651877034063,371.37694993385423 363.55651877034063,371.37694993385423 363.55651877034063,371.37694993385423 363.55651877033995,371.37694993384446 363.55651877033995,371.3769499338413 363.55651877034023,371.37694993384287 363.5565187703405,371.37694993384775 363.55651877034063,371.37694993385423" stroke="black" stroke-dasharray="8.0,8.0" stroke-width="7.0" /></g><rect fill="white" height="111.60000000000001" stroke="none" width="1181" x="0" y="0" /><line stroke="black" stroke-width="3.0" x1="0" x2="1181" y1="111.60000000000001" y2="111.60000000000001" /><text font-family="Arial" font-size="62.0" text-anchor="start" x="40.0" y="77.5">LED</text><text font-family="Arial" font-size="62.0" text-anchor="middle" x="590.5" y="77.5" /><text font-family="Arial" font-size="62.0" text-anchor="end" x="1141.0" y="77.5">cd / klm</text><rect fill="none" height="1178.0" stroke="black" stroke-width="3.0" width="1178.0" x="1.5" y="1.5" /></svg>