<?xml version="1.0" encoding="utf-8" ?>
<svg baseProfile="full" height="1181" version="1.1" width="1181" xmlns="http://www.w3.org/2000/svg" xmlns:ev="http://www.w3.org/2001/xml-events" xmlns:xlink="http://www.w3.org/1999/xlink"><defs><clipPath id="plot_clip"><rect height="1069.4" width="1181.0" x="0" y="111.60000000000001" /></clipPath></defs><g clip-path="url(#plot_clip)" id="grid"><circle cx="487.7084387708941" cy="160.22759874826704" fill="none" r="252.472017493531" stroke="black" stroke-width="3.0" /><text font-family="Arial" font-size="42.0" text-anchor="start" x="495.7084387708941" y="452.699616241798">200</text><circle cx="487.7084387708941" cy="160.22759874826704" fill="none" r="504.944034987062" stroke="black" stroke-width="3.0" /><text font-family="Arial" font-size="42.0" text-anchor="start" x="495.70843877089413" y="705.1716337353291">400</text><circle cx="487.7084387708941" cy="160.22759874826704" fill="none" r="757.4160524805931" stroke="black" stroke-width="3.0" /><text font-family="Arial" font-size="42.0" text-anchor="start" x="495.70843877089413" y="957.6436512288601">600</text><circle cx="487.7084387708941" cy="160.22759874826704" fill="none" r="1009.888069974124" stroke="black" stroke-width="3.0" /><text font-family="Arial" font-size="42.0" text-anchor="start" x="495.7084387708942" y="1210.115668722391">800</text><circle cx="487.7084387708941" cy="160.22759874826704" fill="none" r="1262.3600874676551" stroke="black" stroke-width="3.0" /><text font-family="Arial" font-size="42.0" text-anchor="start" x="495.7084387708942" y="1462.587686215922">1000</text><line stroke="black" stroke-width="3.0" x1="-4685.064491645316" x2="5660.481369187104" y1="160.22759874826681" y2="160.22759874826727" /><line stroke="black" stroke-width="3.0" x1="-3992.044326978018" x2="4967.461204519806" y1="-2426.1588664598385" y2="2746.614063956373" /><line stroke="black" stroke-width="3.0" x1="-2098.6780264372105" x2="3074.0949039789984" y1="-4319.5251670006455" y2="4639.98036449718" /><line stroke="black" stroke-width="3.0" x1="487.7084387708941" x2="487.7084387708941" y1="-5012.545331667943" y2="5333.0005291644775" /><line stroke="black" stroke-width="3.0" x1="3074.0949039789984" x2="-2098.67802643721" y1="-4319.5251670006455" y2="4639.98036449718" /><line stroke="black" stroke-width="3.0" x1="4967.4612045198055" x2="-3992.044326978017" y1="-2426.1588664598385" y2="2746.614063956373" /><line stroke="black" stroke-width="3.0" x1="5660.481369187104" x2="-4685.064491645316" y1="160.22759874826681" y2="160.22759874826727" /></g><g clip-path="url(#plot_clip)" id="curves"><polyline fill="none" points="487.70843877089413,771.0710214729907 498.708509291525,790.4212168108655 510.3988193220518,809.9950832969593 522.8202634104292,830.2011240507816 536.0430898996948,851.4453131758486 550.1667888019938,874.1298063479124 565.3008539285876,898.4701154419064 581.4820155344427,923.9520937008746 598.6871024861307,949.8818223783215 616.8459483069321,975.5697451827892 635.841634703082,1000.3326997203533 655.5264161452965,1023.576248201763 675.7801293320339,1045.0353369027207 696.4832649084176,1064.5307213208182 717.5043564554107,1081.888684001699 738.7001858595864,1096.941551163744 759.916343024319,1109.529375769324 780.9886394810986,1119.5039111907945 801.7426408873264,1126.725492711977 821.9936408910943,1131.0623189918135 841.5469465813126,1132.3909090909092 858.4596444782323,1126.0675104584961 875.2594079663464,1119.4499076326745 891.9411196749527,1112.5401163993718 908.1564045483144,1104.5691913975738 920.5607638894986,1088.4824055237677 930.7292919339291,1068.5549558881755 938.627242085534,1045.2055792633898 944.3027154427778,1018.9565388107441 947.836370576308,990.3203612595067 949.3408991569408,959.7984745599273 948.9490446997161,927.8608756225257 946.7761171663888,894.8894556512895 942.9490434806836,861.2366560466356 937.6166226909921,827.2439116426555 930.9490085921851,793.2407350457833 923.150267653027,759.5618594385372 914.4996220986856,726.5986284966601 905.315790340358,694.7406339319156 895.9436284046619,664.3560736245546 886.7532005058091,635.7906271517525 878.0675327991222,609.2843679897561 869.9364120212024,584.7347693578573 862.3298918042452,561.959923085214 855.2069409595423,540.7834380372425 848.5157344519445,521.0348944293173 842.1769951407957,502.53390465674977 836.0311548172181,485.04378630590907 829.8857585538611,468.325441347846 823.5325172133851,452.15501637768057 816.7480012674778,436.3245742818841 809.3148352499429,420.6593235903837 801.0861600191564,405.0651080269631 791.9287973994943,389.4740821165733 781.7037601225419,373.82770274484164 770.2666580163466,358.07699384704483 757.4048061601964,342.1400955138155 742.6418423841526,325.7832868144028 725.4183106910209,308.7652123574459 705.1550643258886,290.8827127846952 681.2549232983575,271.9717136909038 653.5862454677688,252.17516843547742 623.966998500977,232.6775601013611 594.7810949722584,214.78384202782968 568.4989256664361,199.63175205332607 547.6700267700362,188.188146427402 534.1760322467804,180.91630430098746 526.959255868515,176.88858212185653 524.1610268859316,174.95540034630915 523.8552709333331,174.1030675958889 524.0545400336739,173.45649773954415 523.1337465801322,172.42551043627384 521.1087766111503,171.0800263733995 518.4207170501018,169.6172845157173 515.5221454897842,168.20305081075753 512.8757445568841,166.97115800929032 510.8381996321121,165.9944958300349 509.3108267883419,165.21490299384777 508.07645515675625,164.55695427928458 506.9137366030651,163.96073047796642 505.5978277686127,163.38198069695397 503.9553082667932,162.8008500804009 502.02869840648094,162.24017999060732 499.91599767168117,161.7264985075965 497.7164890405668,161.2794872183615 495.5304397419695,160.9119351593249 493.45384222295826,160.62935649499923 491.56319487954653,160.42961795559938 489.93004148627983,160.3051788245932 488.6257023847847,160.24360964420373 487.7210623717687,160.22759874826704 487.7084387708941,160.22759874826704 487.7084387708941,160.22759874826704 487.7084387708941,160.22759874826704 487.7084387708941,160.22759874826704 487.7084387708941,160.22759874826704 487.8303983242976,160.21478028267325 487.8591730247798,160.20909090909072 487.82705849947683,160.21092783259985 487.7661887128118,160.21845205603756 487.7084387708941,160.22759874826704 487.7084387708941,160.22759874826704 487.7084387708941,160.22759874826704 487.7084387708941,160.22759874826704 487.7084387708941,160.22759874826704 487.72063223299966,160.224331519943 487.72813338915404,160.22195140735676 487.7277138645014,160.22170576076326 487.72235139903796,160.2230782613567 487.7149715222844,160.2253493415726 487.7084387708941,160.22759874826704 487.7084387708941,160.22759874826704 487.7084387708941,160.22759874826704 487.7084387708941,160.22759874826704 487.7084387708941,160.22759874826704 487.7084387708941,160.22759874826704 487.70934381235753,160.22715733005134 487.7095537352084,160.22703064557368 487.70931490308084,160.22713290052002 487.7088662899319,160.2273617705947 487.7084387708941,160.22759874826704 487.7084387708941,160.22759874826704 487.7084387708941,160.22759874826704 487.7084387708941,160.22759874826704 487.7084387708941,160.22759874826704 487.7084387708941,160.22759874826704 487.70849725944186,160.22755625384968 487.708510522827,160.22754467930747 487.70849491081,160.22755488695782 487.7084660445715,160.22757666247855 487.7084387708941,160.22759874826704 487.7084387708941,160.22759874826704 487.7084387708941,160.22759874826704 487.7084387708941,160.22759874826704 487.7084387708941,160.22759874826704 487.7084387708941,160.22759874826704 487.70844237659225,160.22759501445728 487.7084431700892,160.2275940307078 487.7084421934883,160.227594947091 487.70844042395527,160.22759684663777 487.7084387708941,160.22759874826704 487.7084387708941,160.22759874826704 487.7084387708941,160.22759874826704 487.7084387708941,160.22759874826704 487.7084387708941,160.22759874826704 487.7084387708941,160.22759874826704 487.70843897928785,160.22759843931067 487.70843902312805,160.22759835986085 487.7084389655014,160.22759843683025 487.7084388640671,160.22759859320104 487.7084387708941,160.22759874826704 487.7084387708941,160.22759874826704 487.7084387708941,160.22759874826704 487.7084387708941,160.22759874826704 487.7084387708941,160.22759874826704 487.7084387708941,160.22759874826704 487.7084387817769,160.2275987238238 487.7084387838862,160.2275987176596 487.70843878077125,160.22759872382017 487.70843877554876,160.2275987361412 487.7084387708941,160.22759874826704 487.7084387708941,160.22759874826704 487.7084387708941,160.22759874826704 487.7084387708941,160.22759874826704 487.7084387708941,160.22759874826704 487.7084387708941,160.22759874826704 487.7084387713591,160.22759874640178 487.70843877143164,160.2275987459384 487.70843877128834,160.22759874641213 487.7084387710725,160.22759874734902 487.7084387708941,160.22759874826704 487.7084387708941,160.22759874826704 487.7084387708941,160.22759874826704 487.7084387708941,160.22759874826704 487.7084387708941,160.22759874826704 487.7084387708941,160.22759874826704 487.708438770905,160.22759874811163 487.708438770905,160.22759874805956 487.7084387709004,160.22759874808537 487.70843877089584,160.22759874816313 487.7084387708941,160.22759874826704" stroke="black" stroke-width="9.0" /><polyline fill="none" points="487.70843877089413,771.0710214729907 477.34390530604276,754.0113232703155 467.5783545034403,736.6777904375091 458.42530794286245,718.983020722569 449.905117338089,700.8402819540175 442.0449365127821,682.1638178857485 434.86678042388723,662.982394627203 428.33597288867304,643.7775291761776 422.3692636098487,625.1399873747272 416.84298973083344,607.6544349630774 411.5933557936478,591.8976850358168 406.4760867834508,578.1318213919823 401.58729641097904,565.3957181574034 397.15990920555043,552.4363700124586 393.5142772675038,538.019745756461 391.0572904862103,520.9345947565805 390.1572162771714,500.4291410872137 390.70983918352385,477.4957221979116 392.4051610787099,453.540927540344 394.83748500429107,429.94443289736364 397.50669016588074,408.05486623586364 399.9155304123095,388.93594427088044 401.8935915356402,372.62679896817167 403.3713515820962,358.91332512868064 404.293004809072,347.581730937698 404.61637044375703,338.4191143152657 404.3481759582907,331.14146582800754 403.6601980921787,325.1815588735392 402.8002846597303,319.9166113088377 402.0586529573089,314.74390258474375 401.7669640160961,309.0825995009751 402.20109619434385,302.5357145887365 403.2691366521909,295.35872953695696 404.7608674061376,287.9556577263653 406.4390425261637,280.71443355530016 408.0401169311191,274.00575378423105 409.3379676903308,268.0952982423631 410.34558039741097,262.89157933855097 411.14754419646823,258.2210751120199 411.8398401163469,253.91751549706623 412.52950271261625,249.82236588313003 413.3132062414739,245.80952389797278 414.21036017451206,241.8554846533085 415.22020139714414,237.9617163527182 416.3419925982155,234.12971714757862 417.5750199498354,230.36101756932567 418.91792711937427,226.65782366337498 420.36663339147185,223.0248481923246 421.9161721456595,219.46722170115004 423.5613414760757,215.98981969605984 425.2967143145092,212.59725372075775 427.1176208750111,209.29307563857947 429.02318415447814,206.07754466795984 431.01359695487133,202.9502264186683 433.08917088748694,199.9108197140797 435.2503291192131,196.95916256660553 437.5079465801433,194.08825828061003 439.91534719734324,191.26479531851498 442.5388501780197,188.4526902983074 445.4474707011623,185.62055018335013 448.7127140584301,182.7417909082527 452.3581290083665,179.8225954212952 456.20455718520805,176.97850972132267 460.01434588141694,174.3384438761184 463.5412966016312,172.01470155672087 466.53139252277117,170.1026175908694 468.79351061183013,168.64906734523254 470.41435431029737,167.56850207119214 471.55618166063675,166.75353422724345 472.38743714479745,166.10878025324473 473.0822172118185,165.55110803555317 473.78573326042607,165.02157070722137 474.51018542024354,164.51597121776535 475.2336822381091,164.04151456406623 475.9338706222457,163.60390183419463 476.58800133057287,163.20731097988187 477.1837349882288,162.85170212291496 477.7517892277421,162.52627241796574 478.3343289189291,162.22012730711788 478.9741960583971,161.925363546806 479.7147785029767,161.63709672811808 480.5847762972782,161.35587604221166 481.55244868795563,161.0927667329429 482.5703573882637,160.8584758147167 483.59051872186325,160.66040958590565 484.5645477053493,160.5026535758626 485.44914196731787,160.38558417097533 486.2222901956642,160.30548449477953 486.8674358055888,160.25696721896043 487.3682018489698,160.2335376058303 487.7084387708941,160.22759874826704 487.7084387708941,160.22759874826704 487.7084387708941,160.22759874826704 487.7084387708941,160.22759874826704 487.7084387708941,160.22759874826704 487.7084387708941,160.22759874826704 487.6620984351981,160.22272818272188 487.650965312584,160.22054189492485 487.66296886858544,160.22120837024272 487.68609828243183,160.22406036250538 487.7084387708941,160.22759874826704 487.7084387708941,160.22759874826704 487.7084387708941,160.22759874826704 487.7084387708941,160.22759874826704 487.7084387708941,160.22759874826704 487.7084387708941,160.22759874826704 487.70522295358444,160.226676627492 487.70446303212157,160.22638324294292 487.705303446538,160.22658001962964 487.7069032783649,160.22707003578932 487.7084387708941,160.22759874826704 487.7084387708941,160.22759874826704 487.7084387708941,160.22759874826704 487.7084387708941,160.22759874826704 487.7084387708941,160.22759874826704 487.7084387708941,160.22759874826704 487.70822288969407,160.2274934559706 487.7081728164115,160.2274632376898 487.7082297854769,160.2274876287497 487.70833679399396,160.22754222154833 487.7084387708941,160.22759874826704 487.7084387708941,160.22759874826704 487.7084387708941,160.22759874826704 487.7084387708941,160.22759874826704 487.7084387708941,160.22759874826704 487.7084387708941,160.22759874826704 487.7084248195135,160.22758861199577 487.7084216557739,160.22758585109887 487.708425379737,160.2275882859485 487.70843226525375,160.22759348010345 487.7084387708941,160.22759874826704 487.7084387708941,160.22759874826704 487.7084387708941,160.22759874826704 487.7084387708941,160.22759874826704 487.7084387708941,160.22759874826704 487.7084387708941,160.22759874826704 487.70843791082024,160.22759785763446 487.70843772154603,160.22759762297915 487.70843795449633,160.2275978415655 487.70843837658634,160.22759829466793 487.7084387708941,160.22759874826704 487.7084387708941,160.22759874826704 487.7084387708941,160.22759874826704 487.7084387708941,160.22759874826704 487.7084387708941,160.22759874826704 487.7084387708941,160.22759874826704 487.7084387211855,160.22759867457114 487.7084387107282,160.22759865561977 487.70843872447404,160.22759867397951 487.7084387486693,160.2275987112788 487.7084387708941,160.22759874826704 487.7084387708941,160.22759874826704 487.7084387708941,160.22759874826704 487.7084387708941,160.22759874826704 487.7084387708941,160.22759874826704 487.7084387708941,160.22759874826704 487.7084387682982,160.2275987424365 487.70843876779503,160.2275987409662 487.7084387685381,160.2275987424357 487.70843876978375,160.22759874537473 487.7084387708941,160.22759874826704 487.7084387708941,160.22759874826704 487.7084387708941,160.22759874826704 487.7084387708941,160.22759874826704 487.7084387708941,160.22759874826704 487.7084387708941,160.22759874826704 487.7084387707831,160.22759874782219 487.70843877076584,160.22759874771168 487.7084387708,160.22759874782457 487.7084387708515,160.22759874804808 487.7084387708941,160.22759874826704 487.7084387708941,160.22759874826704 487.7084387708941,160.22759874826704 487.7084387708941,160.22759874826704 487.7084387708941,160.22759874826704 487.7084387708941,160.22759874826704 487.70843877089146,160.22759874822998 487.70843877089146,160.2275987482176 487.70843877089254,160.22759874822373 487.7084387708936,160.22759874824226 487.7084387708941,160.22759874826704" stroke="black" stroke-width="9.0" /><polyline fill="none" points="487.70843877089413,771.0710214729907 498.34022235999953,769.3220726346605 508.91216810612843,767.4229625344236 519.4246808940833,765.4095499219236 529.8805956315617,763.3175393383782 540.2851690657941,761.1823759271509 550.6416448727159,758.9970578737027 560.9320987961518,756.5864527182008 571.1204583547849,753.7349573784032 581.1555394393821,750.2293721359239 590.9711543009641,745.8595599783091 600.5010031654178,740.4950388757035 609.7336942442611,734.3112897650702 618.6870285972212,727.5582006287628 627.3957797477841,720.4829225946979 635.9115491680072,713.3291365900322 644.2869654842535,706.2818144037664 652.5210049942577,699.3052125390471 660.5925146273404,692.3100728514094 668.4740059704247,685.2089253183843 676.1317401180935,677.9163644987908 683.530910659373,670.3625788862531 690.6528578078832,662.5326622809262 697.4831005889272,654.4257320821583 704.0067353855497,646.0415270776251 710.2084581385717,637.3804300957624 716.0662178914879,628.4304305337372 721.5303165659152,619.128872525717 726.539419157837,609.4033443066014 731.0266137536485,599.1852061426445 734.9195705999035,588.4098392727193 738.1491571689854,577.0309479233342 740.6769088499431,565.061776174457 742.47321753061,552.5309555743271 743.5094099293593,539.4681342954607 743.7577766987285,525.9039503375421 743.1945837869115,511.8741096791898 741.8096186027408,497.431253611756 739.5982397380668,482.6318417309799 736.5585081797043,467.531841864757 732.6911530724047,452.1866286405732 727.9104273647354,436.54837777828357 721.7625433328778,420.17101642194666 713.6688411254834,402.5404639379161 703.0129098696318,383.1819052656558 689.1422934005773,361.66145337795024 671.7371060139478,337.94201694759045 651.9614236217227,313.3959850648056 631.4473110527913,289.650660673698 611.9355573120456,268.21658537321434 595.2705105292407,250.48289348935975 582.9019015886605,237.3137450026369 574.345688423512,227.91603662193143 568.5646303661525,221.15710940076167 564.4503979523255,215.98389577602848 560.8271640512086,211.42588137382825 556.6921889735814,206.75772578371016 551.9523099052009,201.9480564792883 546.7537054113691,197.12317624721413 541.250262238369,192.39877194079838 535.6031037457482,187.879596464246 530.046955040163,183.69622154140302 525.0952847590165,180.10653738022688 521.3476166843919,177.36761599526517 519.4222603139148,175.69546302276035 519.9545245895512,175.26419551103027 523.2413016149884,176.0478485575917 528.1568708280886,177.39693951171137 533.1770556251752,178.59811240984698 536.7317854370056,179.0458984104606 537.2098358236291,178.24463383005525 533.5349011345378,176.00691515944925 526.9110299599866,172.9652927689699 519.1558579197274,169.8420396347559 512.1309613073831,167.2306443941958 507.7362002793673,165.5940212706655 507.32297631840447,165.1180522216805 509.9258655666767,165.356895884074 513.9705230232429,165.8097770792349 517.8541462791386,166.08733069289485 519.9503639728282,165.9127200713524 519.0427498346801,165.19046606905977 515.6245019398821,164.15094556764132 510.62979328942936,163.04198719812518 505.0049424312005,162.0455345382535 499.7055270770129,161.27720797037182 495.5034008973148,160.77267559898803 492.4119088056448,160.47409716771267 490.25194346973274,160.3164198895563 488.8420087522066,160.24738528589148 487.99878159101166,160.22759874826704 487.7084387708941,160.22759874826704 487.7084387708941,160.22759874826704 487.7084387708941,160.22759874826704 487.7084387708941,160.22759874826704 487.72101433515627,160.22649852895677 487.8017432967856,160.21779204742631 487.81889363979167,160.2140365956899 487.7944836206543,160.21550593326003 487.7504213974567,160.22094935345558 487.7084387708941,160.22759874826704 487.7084387708941,160.22759874826704 487.7084387708941,160.22759874826704 487.7084387708941,160.22759874826704 487.7084387708941,160.22759874826704 487.7084387708941,160.22759874826704 487.71446763164306,160.2258700002659 487.7158922961182,160.2253199769209 487.71431672729693,160.22568888445812 487.71131743897377,160.22660754335777 487.7084387708941,160.22759874826704 487.7084387708941,160.22759874826704 487.7084387708941,160.22759874826704 487.7084387708941,160.22759874826704 487.7084387708941,160.22759874826704 487.7084387708941,160.22759874826704 487.7088434946602,160.22740135129698 487.70893736965957,160.22734469950694 487.7088305667759,160.2273904267014 487.7086299523173,160.22749277467358 487.7084387708941,160.22759874826704 487.7084387708941,160.22759874826704 487.7084387708941,160.22759874826704 487.7084387708941,160.22759874826704 487.7084387708941,160.22759874826704 487.7084387708941,160.22759874826704 487.70846492627624,160.2275797452695 487.7084708575041,160.22757456927206 487.70846387599596,160.22757913401176 487.70845096735786,160.2275888717653 487.7084387708941,160.22759874826704 487.7084387708941,160.22759874826704 487.7084387708941,160.22759874826704 487.7084387708941,160.22759874826704 487.7084387708941,160.22759874826704 487.7084387708941,160.22759874826704 487.7084403833193,160.22759707855175 487.7084407381617,160.22759663863076 487.70844030143746,160.22759704842645 487.70843951012336,160.22759789788108 487.7084387708941,160.22759874826704 487.7084387708941,160.22759874826704 487.7084387708941,160.22759874826704 487.7084387708941,160.22759874826704 487.7084387708941,160.22759874826704 487.7084387708941,160.22759874826704 487.7084388640853,160.22759861010536 487.7084388836901,160.2275985745764 487.70843885792016,160.22759860899623 487.70843881255996,160.2275986789234 487.7084387708941,160.22759874826704 487.7084387708941,160.22759874826704 487.7084387708941,160.22759874826704 487.7084387708941,160.22759874826704 487.7084387708941,160.22759874826704 487.7084387708941,160.22759874826704 487.7084387757607,160.2275987373364 487.708438776704,160.22759873457971 487.70843877531104,160.2275987373348 487.70843877297557,160.22759874284452 487.7084387708941,160.22759874826704 487.7084387708941,160.22759874826704 487.7084387708941,160.22759874826704 487.7084387708941,160.22759874826704 487.7084387708941,160.22759874826704 487.7084387708941,160.22759874826704 487.708438771102,160.22759874743292 487.70843877113447,160.22759874722567 487.70843877107035,160.22759874743758 487.7084387709738,160.22759874785663 487.7084387708941,160.22759874826704 487.7084387708941,160.22759874826704 487.7084387708941,160.22759874826704 487.7084387708941,160.22759874826704 487.7084387708941,160.22759874826704 487.7084387708941,160.22759874826704 487.7084387708989,160.22759874819758 487.7084387708989,160.22759874817416 487.7084387708969,160.22759874818587 487.7084387708949,160.22759874822054 487.7084387708941,160.22759874826704" stroke="black" stroke-dasharray="8.0,8.0" stroke-width="7.0" /><polyline fill="none" points="487.70843877089413,771.0710214729907 477.0766551817884,769.3220726346605 466.50470943565983,767.4229625344236 455.992196647705,765.4095499219236 445.5362819102265,763.3175393383782 435.13170847599423,761.1823759271509 424.7752326690724,758.9970578737027 414.48477874563645,756.5864527182008 404.29641918700304,753.7349573784031 394.2613381024062,750.2293721359241 384.4457232408239,745.8595599783091 374.9158743763704,740.4950388757035 365.6831832975269,734.3112897650701 356.729848944567,727.5582006287628 348.02109779400416,720.4829225946979 339.505328373781,713.3291365900322 331.1299120575347,706.2818144037664 322.8958725475303,699.3052125390471 314.8243629144479,692.3100728514095 306.9428715713632,685.2089253183843 299.2851374236948,677.9163644987909 291.88596688241495,670.3625788862531 284.7640197339051,662.5326622809262 277.93377695286097,654.4257320821583 271.4101421562385,646.0415270776252 265.2084194032166,637.3804300957624 259.35065965030014,628.4304305337372 253.88656097587298,619.128872525717 248.87745838395108,609.4033443066013 244.3902637881398,599.1852061426445 240.4973069418844,588.4098392727193 237.2677203728028,577.0309479233342 234.73996869184512,565.061776174457 232.9436600111782,552.5309555743271 231.90746761242895,539.4681342954608 231.6591008430595,525.9039503375421 232.22229375487666,511.87410967919004 233.60725893904723,497.4312536117558 235.8186378037214,482.6318417309799 238.85836936208383,467.53184186475687 242.7257244693835,452.1866286405732 247.50645017705273,436.54837777828357 253.65433420891026,420.17101642194666 261.74803641630484,402.54046393791634 272.40396767215617,383.1819052656558 286.27458414121094,361.66145337795024 303.6797715278402,337.94201694759045 323.4554539200654,313.3959850648056 343.96956648899686,289.650660673698 363.48132022974244,268.21658537321434 380.1463670125475,250.48289348935987 392.51497595312765,237.3137450026369 401.07118911827615,227.91603662193143 406.8522471756356,221.15710940076167 410.9664795894626,215.98389577602848 414.5897134905795,211.42588137382825 418.7246885682067,206.75772578371016 423.4645676365872,201.9480564792883 428.663172130419,197.12317624721413 434.16661530341906,192.3987719407985 439.8137737960399,187.879596464246 445.3699225016252,183.69622154140302 450.32159278277163,180.10653738022688 454.0692608573962,177.36761599526517 455.9946172278734,175.69546302276035 455.4623529522369,175.26419551103027 452.17557592679975,176.0478485575917 447.2600067136995,177.39693951171137 442.23982191661287,178.59811240984698 438.68509210478254,179.04589841046072 438.207041718159,178.24463383005525 441.88197640725036,176.00691515944925 448.50584758180145,172.9652927689699 456.26101962206076,169.8420396347559 463.285916234405,167.2306443941958 467.68067726242083,165.5940212706655 468.0939012233836,165.1180522216805 465.4910119751114,165.356895884074 461.4463545185452,165.8097770792349 457.56273126264955,166.08733069289485 455.4665135689599,165.9127200713524 456.374127707108,165.19046606905977 459.79237560190603,164.15094556764132 464.78708425235874,163.04198719812518 470.41193511058754,162.0455345382535 475.7113504647752,161.27720797037182 479.91347664447335,160.77267559898803 483.00496873614327,160.47409716771267 485.16493407205536,160.3164198895563 486.57486878958156,160.24738528589148 487.4180959507765,160.22759874826704 487.7084387708941,160.22759874826704 487.7084387708941,160.22759874826704 487.7084387708941,160.22759874826704 487.7084387708941,160.22759874826704 487.6958632066319,160.22649852895677 487.6151342450025,160.21779204742631 487.59798390199643,160.2140365956899 487.6223939211338,160.21550593326003 487.6664561443314,160.22094935345558 487.7084387708941,160.22759874826704 487.7084387708941,160.22759874826704 487.7084387708941,160.22759874826704 487.7084387708941,160.22759874826704 487.7084387708941,160.22759874826704 487.7084387708941,160.22759874826704 487.7024099101451,160.2258700002659 487.70098524566987,160.2253199769209 487.7025608144912,160.22568888445812 487.7055601028144,160.22660754335777 487.7084387708941,160.22759874826704 487.7084387708941,160.22759874826704 487.7084387708941,160.22759874826704 487.7084387708941,160.22759874826704 487.7084387708941,160.22759874826704 487.7084387708941,160.22759874826704 487.7080340471279,160.22740135129698 487.70794017212853,160.22734469950694 487.7080469750122,160.2273904267014 487.7082475894708,160.22749277467358 487.7084387708941,160.22759874826704 487.7084387708941,160.22759874826704 487.7084387708941,160.22759874826704 487.7084387708941,160.22759874826704 487.7084387708941,160.22759874826704 487.7084387708941,160.22759874826704 487.7084126155119,160.2275797452695 487.70840668428406,160.22757456927206 487.70841366579214,160.22757913401176 487.70842657443023,160.2275888717653 487.7084387708941,160.22759874826704 487.7084387708941,160.22759874826704 487.7084387708941,160.22759874826704 487.7084387708941,160.22759874826704 487.7084387708941,160.22759874826704 487.7084387708941,160.22759874826704 487.70843715846877,160.22759707855175 487.7084368036264,160.22759663863076 487.70843724035063,160.22759704842645 487.70843803166474,160.22759789788108 487.7084387708941,160.22759874826704 487.7084387708941,160.22759874826704 487.7084387708941,160.22759874826704 487.7084387708941,160.22759874826704 487.7084387708941,160.22759874826704 487.7084387708941,160.22759874826704 487.7084386777029,160.22759861010536 487.70843865809803,160.2275985745764 487.708438683868,160.22759860899623 487.70843872922813,160.2275986789234 487.7084387708941,160.22759874826704 487.7084387708941,160.22759874826704 487.7084387708941,160.22759874826704 487.7084387708941,160.22759874826704 487.7084387708941,160.22759874826704 487.7084387708941,160.22759874826704 487.70843876602737,160.2275987373364 487.7084387650841,160.22759873457971 487.70843876647706,160.2275987373348 487.7084387688125,160.22759874284452 487.7084387708941,160.22759874826704 487.7084387708941,160.22759874826704 487.7084387708941,160.22759874826704 487.7084387708941,160.22759874826704 487.7084387708941,160.22759874826704 487.7084387708941,160.22759874826704 487.7084387706861,160.22759874743292 487.7084387706537,160.22759874722567 487.70843877071775,160.22759874743758 487.70843877081427,160.22759874785663 487.7084387708941,160.22759874826704 487.7084387708941,160.22759874826704 487.7084387708941,160.22759874826704 487.7084387708941,160.22759874826704 487.7084387708941,160.22759874826704 487.7084387708941,160.22759874826704 487.7084387708892,160.22759874819758 487.7084387708892,160.22759874817416 487.7084387708912,160.22759874818587 487.7084387708933,160.22759874822054 487.7084387708941,160.22759874826704" stroke="black" stroke-dasharray="8.0,8.0" stroke-width="7.0" /></g><rect fill="white" height="111.60000000000001" stroke="none" width="1181" x="0" y="0" /><line stroke="black" stroke-width="3.0" x1="0" x2="1181" y1="111.60000000000001" y2="111.60000000000001" /><text font-family="Arial" font-size="62.0" text-anchor="start" x="40.0" y="77.5">LED</text><text font-family="Arial" font-size="62.0" text-anchor="middle" x="590.5" y="77.5" /><text font-family="Arial" font-size="62.0" text-anchor="end" x="1141.0" y="77.5">cd / klm</text><rect fill="none" height="1178.0" stroke="black" stroke-width="3.0" width="1178.0" x="1.5" y="1.5" /></svg>