<?xml version="1.0" encoding="utf-8" ?>
<svg baseProfile="full" height="1181" version="1.1" width="1181" xmlns="http://www.w3.org/2000/svg" xmlns:ev="http://www.w3.org/2001/xml-events" xmlns:xlink="http://www.w3.org/1999/xlink"><defs><clipPath id="plot_clip"><rect height="1069.4" width="1181.0" x="0" y="111.60000000000001" /></clipPath></defs><g clip-path="url(#plot_clip)" id="grid"><circle cx="590.5000000000001" cy="160.2255106240416" fill="none" r="172.99341555317903" stroke="black" stroke-width="3.0" /><text font-family="Arial" font-size="42.0" text-anchor="start" x="598.5000000000001" y="373.2189261772206">100</text><circle cx="590.5000000000001" cy="160.2255106240416" fill="none" r="345.98683110635807" stroke="black" stroke-width="3.0" /><text font-family="Arial" font-size="42.0" text-anchor="start" x="598.5000000000001" y="546.2123417303997">200</text><circle cx="590.5000000000001" cy="160.2255106240416" fill="none" r="518.9802466595371" stroke="black" stroke-width="3.0" /><text font-family="Arial" font-size="42.0" text-anchor="start" x="598.5000000000002" y="719.2057572835787">300</text><circle cx="590.5000000000001" cy="160.2255106240416" fill="none" r="691.9736622127161" stroke="black" stroke-width="3.0" /><text font-family="Arial" font-size="42.0" text-anchor="start" x="598.5000000000002" y="892.1991728367577">400</text><circle cx="590.5000000000001" cy="160.2255106240416" fill="none" r="864.9670777658952" stroke="black" stroke-width="3.0" /><text font-family="Arial" font-size="42.0" text-anchor="start" x="598.5000000000002" y="1065.1925883899366">500</text><circle cx="590.5000000000001" cy="160.2255106240416" fill="none" r="1037.9604933190742" stroke="black" stroke-width="3.0" /><text font-family="Arial" font-size="42.0" text-anchor="start" x="598.5000000000002" y="1238.1860039431156">600</text><line stroke="black" stroke-width="3.0" x1="-4532.440511484067" x2="5713.440511484067" y1="160.22551062404114" y2="160.22551062404204" /><line stroke="black" stroke-width="3.0" x1="-3846.096625021648" x2="5027.096625021648" y1="-2401.244745117993" y2="2721.695766366076" /><line stroke="black" stroke-width="3.0" x1="-1970.9702557420333" x2="3151.9702557420333" y1="-4276.371114397607" y2="4596.822135645691" /><line stroke="black" stroke-width="3.0" x1="590.5000000000001" x2="590.5000000000001" y1="-4962.715000860026" y2="5283.166022108109" /><line stroke="black" stroke-width="3.0" x1="3151.9702557420333" x2="-1970.970255742033" y1="-4276.371114397607" y2="4596.822135645691" /><line stroke="black" stroke-width="3.0" x1="5027.096625021648" x2="-3846.096625021648" y1="-2401.244745117993" y2="2721.695766366076" /><line stroke="black" stroke-width="3.0" x1="5713.440511484067" x2="-4532.440511484067" y1="160.22551062404114" y2="160.22551062404204" /></g><g clip-path="url(#plot_clip)" id="curves"><polyline fill="none" points="590.5000000000002,857.2332812293553 602.7368871997967,861.2763087803199 615.1567905630011,866.3036103299384 627.8815609279687,873.5081842912497 641.1165421146097,884.0757864738747 655.1502532064259,899.1812861602515 670.305450730937,919.5236543116772 686.7287197957974,943.9455409615109 704.4230928025866,970.8304358319316 723.2807673068492,998.5702813273737 743.0836301102894,1025.5702780397983 763.5425588817182,1050.452301852762 784.4417969659168,1072.64992811625 805.5722497004319,1091.8057714294785 826.7001853444012,1107.572710500998 847.5676284595378,1119.6149610162743 867.9160082393944,1127.6901047107933 887.5675555032299,1131.889702408464 906.3756859579971,1132.3909090909092 924.073257543534,1128.9925936837317 940.9297695973313,1123.0233896973946 956.3945603809578,1113.4134287034203 970.268092407953,1100.1845234899502 982.1458004549684,1082.8851961908156 991.5890022851322,1061.0861593649997 998.1257894865029,1034.381837156019 1001.389754229113,1002.6743521855648 1001.5736073768327,967.0028909977123 999.0844359536039,928.6610726505877 994.4142662989748,888.9061360628106 988.1383401551486,848.9553188101145 980.8184916235685,809.8245678151488 972.6949456823401,771.8652790244588 963.9310147965548,735.258846710981 954.701932381847,700.1770802302837 945.1944560971656,666.7816911016869 935.5392581280971,635.1313073643405 925.5960766497197,604.9130238873681 915.1329643066723,575.7367568224009 903.8910357919244,547.2312096070634 891.5853298865065,519.0450341936981 877.9835491846304,490.93750320180743 863.1529210576125,463.0372569553617 847.2487235019688,435.5548080463316 830.4391576243972,408.6897818094785 812.9048664617703,382.6303770858117 794.8612216140303,357.5748483425714 776.6292088536372,333.79380585092576 758.5716722343154,311.55792403572 741.0703281185911,291.11429996617017 724.5247539978109,272.68563227223024 709.2932886204806,256.42241899963267 695.5112906936469,242.26932266390645 683.2533463256103,230.1201704082922 672.5896247875488,219.8671141401985 663.585854581944,211.40077693881733 656.2580331309607,204.5798640216808 650.4323912460915,199.14606057773722 645.874206241147,194.82715499044036 642.3328187119341,191.3698101612374 639.5424943083675,188.54020791470805 637.2553959958085,186.14244982877665 635.3411992287769,184.06799918099364 633.6957592561814,182.23484927530046 632.2100067219267,180.56884017162633 630.7702990708885,179.00385947698885 629.2784573583057,177.49079221197303 627.7123660778262,176.02122287565123 626.0692431184906,174.59641767701828 624.3462897026793,173.21788396028967 622.540701363459,171.88737220535313 620.6573730829488,170.60952692077922 618.7323531682357,169.39875823940474 616.8103394932191,168.26938864671206 614.9369516088392,167.2326937398874 613.158598345921,166.29686375245228 611.508063934336,165.46340924839137 609.961052882264,164.71844870036875 608.4781731410153,164.04688929200404 607.0192097137738,163.43651971491568 605.5432521804586,162.8780418610578 604.0169665654564,162.3663878083969 602.4393248972158,161.90347331087912 600.817535984822,161.49234474953778 599.1589332436292,161.13560118082967 597.470955740675,160.83539022529146 595.7751480623734,160.59438491057324 594.1493177523428,160.41676326334004 592.6855534474712,160.30183183219253 591.4759727008081,160.24254629090228 590.6124457201097,160.2255106240416 590.5000000000001,160.2255106240416 590.5000000000001,160.2255106240416 590.5000000000001,160.2255106240416 590.5000000000001,160.2255106240416 590.5000000000001,160.2255106240416 590.6078235675236,160.21417791043325 590.6337278468067,160.20909090909083 590.6057982642603,160.21064164767245 590.5519813059193,160.2172775939962 590.5000000000001,160.2255106240416 590.5000000000001,160.2255106240416 590.5000000000001,160.2255106240416 590.5000000000001,160.2255106240416 590.5000000000001,160.2255106240416 590.5000000000001,160.2255106240416 590.5074824856063,160.22336505581995 590.509250652408,160.22268241577694 590.507295196557,160.22314027099242 590.5035727467208,160.22428042869024 590.5000000000001,160.2255106240416 590.5000000000001,160.2255106240416 590.5000000000001,160.2255106240416 590.5000000000001,160.2255106240416 590.5000000000001,160.2255106240416 590.5000000000001,160.2255106240416 590.5005023071326,160.22526563248357 590.5006188164302,160.22519532132185 590.5004862621927,160.2252520738475 590.5002372773743,160.2253790990453 590.5000000000001,160.2255106240416 590.5000000000001,160.2255106240416 590.5000000000001,160.2255106240416 590.5000000000001,160.2255106240416 590.5000000000001,160.2255106240416 590.5000000000001,160.2255106240416 590.5000324617336,160.22548703921166 590.500039823046,160.22548061522411 590.5000311582191,160.2254862805729 590.5000151371659,160.22549836620647 590.5000000000001,160.2255106240416 590.5000000000001,160.2255106240416 590.5000000000001,160.2255106240416 590.5000000000001,160.2255106240416 590.5000000000001,160.2255106240416 590.5000000000001,160.2255106240416 590.500002001199,160.22550855173938 590.5000024415978,160.22550800574857 590.5000018995744,160.2255085143505 590.5000009174657,160.225509568618 590.5000000000001,160.2255106240416 590.5000000000001,160.2255106240416 590.5000000000001,160.2255106240416 590.5000000000001,160.2255106240416 590.5000000000001,160.2255106240416 590.5000000000001,160.2255106240416 590.5000001156607,160.22551045256762 590.5000001399925,160.22551040847213 590.5000001080092,160.22551045119098 590.5000000517122,160.22551053797838 590.5000000000001,160.2255106240416 590.5000000000001,160.2255106240416 590.5000000000001,160.2255106240416 590.5000000000001,160.2255106240416 590.5000000000001,160.2255106240416 590.5000000000001,160.2255106240416 590.5000000060402,160.22551061047523 590.5000000072108,160.22551060705405 590.5000000054821,160.22551061047318 590.5000000025835,160.22551061731144 590.5000000000001,160.2255106240416 590.5000000000001,160.2255106240416 590.5000000000001,160.2255106240416 590.5000000000001,160.2255106240416 590.5000000000001,160.2255106240416 590.5000000000001,160.2255106240416 590.5000000002583,160.22551062300624 590.5000000002984,160.22551062274897 590.500000000219,160.22551062301193 590.5000000000991,160.22551062353193 590.5000000000001,160.2255106240416 590.5000000000001,160.2255106240416 590.5000000000001,160.2255106240416 590.5000000000001,160.2255106240416 590.5000000000001,160.2255106240416 590.5000000000001,160.2255106240416 590.5000000000061,160.2255106239552 590.5000000000061,160.2255106239263 590.5000000000036,160.22551062394064 590.5000000000011,160.22551062398395 590.5000000000001,160.2255106240416" stroke="black" stroke-width="9.0" /><polyline fill="none" points="590.5000000000002,857.2332812293553 578.2631128002034,861.2763087803199 565.8432094369992,866.3036103299384 553.1184390720317,873.5081842912497 539.8834578853907,884.0757864738747 525.8497467935746,899.1812861602515 510.6945492690635,919.5236543116772 494.27128020420304,943.945540961511 476.57690719741356,970.8304358319316 457.7192326931513,998.5702813273738 437.9163698897108,1025.5702780397983 417.45744111828236,1050.452301852762 396.55820303408336,1072.6499281162498 375.4277502995686,1091.8057714294787 354.2998146555993,1107.572710500998 333.4323715404626,1119.6149610162745 313.0839917606061,1127.6901047107933 293.4324444967702,1131.8897024084638 274.6243140420033,1132.3909090909092 256.92674245646606,1128.9925936837317 240.07023040266915,1123.0233896973946 224.60543961904224,1113.4134287034203 210.7319075920474,1100.1845234899502 198.85419954503215,1082.8851961908156 189.41099771486827,1061.0861593649997 182.87421051349764,1034.381837156019 179.61024577088713,1002.6743521855647 179.42639262316789,967.0028909977124 181.9155640463962,928.6610726505876 186.58573370102573,888.9061360628107 192.86165984485154,848.9553188101144 200.18150837643176,809.824567815149 208.3050543176603,771.8652790244589 217.06898520344564,735.258846710981 226.29806761815345,700.1770802302839 235.80554390283461,666.7816911016869 245.46074187190322,635.1313073643406 255.40392335028042,604.913023887368 265.86703569332803,575.7367568224009 277.1089642080757,547.2312096070634 289.4146701134939,519.0450341936981 303.01645081537,490.93750320180754 317.8470789423879,463.0372569553617 333.75127649803153,435.5548080463317 350.560842375603,408.6897818094785 368.09513353823,382.6303770858117 386.1387783859699,357.5748483425713 404.37079114636305,333.79380585092576 422.42832776568486,311.55792403572 439.92967188140926,291.11429996617017 456.4752460021894,272.68563227223024 471.70671137951985,256.4224189996328 485.48870930635337,242.26932266390622 497.74665367438996,230.1201704082922 508.41037521245147,219.86711414019874 517.4141454180563,211.40077693881733 524.7419668690395,204.5798640216808 530.5676087539088,199.14606057773722 535.1257937588533,194.82715499044036 538.6671812880662,191.3698101612374 541.4575056916327,188.54020791470828 543.7446040041917,186.14244982877665 545.6588007712234,184.06799918099364 547.3042407438189,182.23484927530046 548.7899932780736,180.56884017162633 550.2297009291117,179.00385947698885 551.7215426416946,177.49079221197303 553.2876339221741,176.02122287565123 554.9307568815096,174.59641767701828 556.653710297321,173.21788396028967 558.4592986365412,171.88737220535313 560.3426269170515,170.60952692077922 562.2676468317646,169.39875823940474 564.1896605067813,168.26938864671206 566.063048391161,167.2326937398874 567.8414016540794,166.29686375245228 569.4919360656644,165.46340924839137 571.0389471177364,164.71844870036875 572.521826858985,164.04688929200404 573.9807902862265,163.43651971491568 575.4567478195418,162.8780418610578 576.9830334345439,162.3663878083969 578.5606751027846,161.90347331087912 580.1824640151782,161.49234474953778 581.841066756371,161.13560118082967 583.5290442593254,160.83539022529146 585.2248519376268,160.59438491057324 586.8506822476576,160.41676326334004 588.3144465525291,160.30183183219253 589.5240272991921,160.24254629090228 590.3875542798905,160.2255106240416 590.5000000000001,160.2255106240416 590.5000000000001,160.2255106240416 590.5000000000001,160.2255106240416 590.5000000000001,160.2255106240416 590.5000000000001,160.2255106240416 590.3921764324766,160.21417791043325 590.3662721531937,160.20909090909083 590.3942017357399,160.21064164767245 590.4480186940809,160.2172775939962 590.5000000000001,160.2255106240416 590.5000000000001,160.2255106240416 590.5000000000001,160.2255106240416 590.5000000000001,160.2255106240416 590.5000000000001,160.2255106240416 590.5000000000001,160.2255106240416 590.4925175143941,160.22336505581995 590.4907493475922,160.22268241577694 590.4927048034433,160.22314027099242 590.4964272532794,160.22428042869024 590.5000000000001,160.2255106240416 590.5000000000001,160.2255106240416 590.5000000000001,160.2255106240416 590.5000000000001,160.2255106240416 590.5000000000001,160.2255106240416 590.5000000000001,160.2255106240416 590.4994976928676,160.22526563248357 590.49938118357,160.22519532132185 590.4995137378075,160.2252520738475 590.499762722626,160.2253790990453 590.5000000000001,160.2255106240416 590.5000000000001,160.2255106240416 590.5000000000001,160.2255106240416 590.5000000000001,160.2255106240416 590.5000000000001,160.2255106240416 590.5000000000001,160.2255106240416 590.4999675382667,160.22548703921166 590.4999601769543,160.22548061522411 590.4999688417811,160.2254862805729 590.4999848628344,160.22549836620647 590.5000000000001,160.2255106240416 590.5000000000001,160.2255106240416 590.5000000000001,160.2255106240416 590.5000000000001,160.2255106240416 590.5000000000001,160.2255106240416 590.5000000000001,160.2255106240416 590.4999979988013,160.22550855173938 590.4999975584025,160.22550800574857 590.4999981004258,160.2255085143505 590.4999990825346,160.225509568618 590.5000000000001,160.2255106240416 590.5000000000001,160.2255106240416 590.5000000000001,160.2255106240416 590.5000000000001,160.2255106240416 590.5000000000001,160.2255106240416 590.5000000000001,160.2255106240416 590.4999998843396,160.22551045256762 590.4999998600077,160.22551040847213 590.4999998919911,160.22551045119098 590.4999999482881,160.22551053797838 590.5000000000001,160.2255106240416 590.5000000000001,160.2255106240416 590.5000000000001,160.2255106240416 590.5000000000001,160.2255106240416 590.5000000000001,160.2255106240416 590.5000000000001,160.2255106240416 590.49999999396,160.22551061047523 590.4999999927894,160.22551060705405 590.4999999945182,160.22551061047318 590.4999999974168,160.22551061731144 590.5000000000001,160.2255106240416 590.5000000000001,160.2255106240416 590.5000000000001,160.2255106240416 590.5000000000001,160.2255106240416 590.5000000000001,160.2255106240416 590.5000000000001,160.2255106240416 590.499999999742,160.22551062300624 590.4999999997018,160.22551062274897 590.4999999997814,160.22551062301193 590.4999999999011,160.22551062353193 590.5000000000001,160.2255106240416 590.5000000000001,160.2255106240416 590.5000000000001,160.2255106240416 590.5000000000001,160.2255106240416 590.5000000000001,160.2255106240416 590.5000000000001,160.2255106240416 590.4999999999941,160.2255106239552 590.4999999999941,160.2255106239263 590.4999999999966,160.22551062394064 590.4999999999992,160.22551062398395 590.5000000000001,160.2255106240416" stroke="black" stroke-width="9.0" /><polyline fill="none" points="590.5000000000002,857.2332812293553 602.6716268283134,857.5375446020316 614.8582143785471,857.7535070876655 627.0690666047888,858.004869052649 639.3221398420129,858.4146384431821 651.6440109005991,859.1047532184978 664.0671178921334,860.1698820965546 676.61795766768,861.5999915392771 689.3188792110684,863.3583717624198 702.1898765922377,865.4076381321498 715.2485741168662,867.7098310362564 728.5067282822755,870.2085788395441 741.9572597877456,872.775895320569 755.5803649125501,875.2671285607752 769.3464480405293,877.5394344556047 783.2162104373535,879.452199418379 797.152569817575,880.9086674626936 811.1619657125239,881.9782789747077 825.2689836885542,882.7701467616695 839.5058891804246,883.3911225871708 853.9125203449979,883.945462273554 868.5170259487152,884.4846247217321 883.2713656219272,884.8600687316086 898.0966184877482,884.8777320077892 912.9006028130708,884.349120471085 927.578124601739,883.0918815848537 942.0203570824807,880.949049143578 956.145058857596,877.8443444240085 969.8740154820548,873.7242618058511 983.1247340172423,868.5392806918873 995.810598134932,862.2440594398752 1007.8164940847196,854.756789375691 1018.9196999301552,845.8403493436743 1028.853951501898,835.2314022914908 1037.333194230195,822.6829638256005 1044.0522705991743,807.9652818336127 1048.6524343012613,790.8182380161544 1050.6097639149489,770.8117902043638 1049.3300858318592,747.5012395829614 1044.183946420347,720.4785260241287 1034.5081502300247,689.3738188017827 1019.7940112183574,654.0717785388213 1000.2787244205255,615.3308902762197 976.4375979301777,574.0929146664507 948.8032104041556,531.2593465260252 917.9635357468629,487.6890463709044 884.6532744752942,444.28602585757733 850.0441447778537,402.2543411480873 815.4839449248009,362.80196453641463 782.402523092609,327.04382890191846 752.3077071551165,295.99829801954104 726.4525885170378,270.31774607666955 704.8088970625928,249.5334088808811 686.9865906953954,232.93337182316714 672.5545345851148,219.84161961581412 661.0421975974633,209.61968914366423 651.974169984489,201.69036184439835 644.9733125747231,195.60089343668812 639.669370651435,190.94994339679306 635.6682906375983,187.36535769696548 632.5535456006072,184.50513649693016 629.9522749984582,182.09426375609053 627.735953810887,180.02421846220125 625.8355626201836,178.22987905122898 624.178338089276,176.65153363892045 622.688017906379,175.2350298746162 621.2955364513155,173.9365668316318 619.9712532907888,172.73531544811567 618.6949023554936,171.61699061052218 617.4453842035604,170.56887452999968 616.2008365579039,169.57985012685913 614.9420842374102,168.64159515333392 613.6630049925872,167.75162717007424 612.3607172994816,166.90900262118714 611.0322567469117,166.11304050543356 609.6745882020238,165.36332604797303 608.2872514722184,164.66037050967918 606.8803622819584,164.00721523405866 605.4668577235365,163.40681444076097 604.0598514759832,162.8612787458046 602.672597602421,162.3718680066554 601.3145230132341,161.93836279886943 599.979315394147,161.55774152194203 598.6565683771694,161.22701129070686 597.3357237991868,160.94397414644243 596.0061071919547,160.7072325834962 594.6708970000078,160.51716815419684 593.3890801062378,160.37692089658026 592.2337806619423,160.2860555788866 591.2781498302754,160.2390932798529 590.5951463785544,160.2255106240416 590.5000000000001,160.2255106240416 590.5000000000001,160.2255106240416 590.5000000000001,160.2255106240416 590.5000000000001,160.2255106240416 590.5000000000001,160.2255106240416 590.5846853814697,160.216609831784 590.605030782973,160.21261446547305 590.5830946941703,160.21383242636352 590.5408264799819,160.2190443448593 590.5000000000001,160.2255106240416 590.5000000000001,160.2255106240416 590.5000000000001,160.2255106240416 590.5000000000001,160.2255106240416 590.5000000000001,160.2255106240416 590.5000000000001,160.2255106240416 590.5058767963485,160.22382547980567 590.5072655268789,160.22328932955782 590.5057296982238,160.22364893223516 590.5028060601769,160.22454442003811 590.5000000000001,160.2255106240416 590.5000000000001,160.2255106240416 590.5000000000001,160.2255106240416 590.5000000000001,160.2255106240416 590.5000000000001,160.2255106240416 590.5000000000001,160.2255106240416 590.5003945155231,160.2253182059643 590.5004860227375,160.22526298308787 590.5003819137155,160.22530755691696 590.5001863593036,160.2254073233927 590.5000000000001,160.2255106240416 590.5000000000001,160.2255106240416 590.5000000000001,160.2255106240416 590.5000000000001,160.2255106240416 590.5000000000001,160.2255106240416 590.5000000000001,160.2255106240416 590.5000254956719,160.22549210035163 590.5000312772979,160.22548705490715 590.5000244718825,160.22549150451152 590.5000118888357,160.22550099665227 590.5000000000001,160.2255106240416 590.5000000000001,160.2255106240416 590.5000000000001,160.2255106240416 590.5000000000001,160.2255106240416 590.5000000000001,160.2255106240416 590.5000000000001,160.2255106240416 590.5000015717557,160.22550899644102 590.500001917648,160.2255085676161 590.500001491939,160.2255089670756 590.500000720584,160.22550979510459 590.5000000000001,160.2255106240416 590.5000000000001,160.2255106240416 590.5000000000001,160.2255106240416 590.5000000000001,160.2255106240416 590.5000000000001,160.2255106240416 590.5000000000001,160.2255106240416 590.5000000908408,160.22551048936475 590.5000001099512,160.22551045473188 590.5000000848312,160.22551048828348 590.5000000406151,160.22551055644703 590.5000000000001,160.2255106240416 590.5000000000001,160.2255106240416 590.5000000000001,160.2255106240416 590.5000000000001,160.2255106240416 590.5000000000001,160.2255106240416 590.5000000000001,160.2255106240416 590.500000004744,160.22551061338652 590.5000000056635,160.22551061069942 590.5000000043057,160.22551061338493 590.5000000020292,160.22551061875583 590.5000000000001,160.2255106240416 590.5000000000001,160.2255106240416 590.5000000000001,160.2255106240416 590.5000000000001,160.2255106240416 590.5000000000001,160.2255106240416 590.5000000000001,160.2255106240416 590.5000000002029,160.2255106232285 590.5000000002344,160.22551062302648 590.500000000172,160.22551062323305 590.5000000000779,160.2255106236413 590.5000000000001,160.2255106240416 590.5000000000001,160.2255106240416 590.5000000000001,160.2255106240416 590.5000000000001,160.2255106240416 590.5000000000001,160.2255106240416 590.5000000000001,160.2255106240416 590.5000000000049,160.22551062397372 590.5000000000049,160.2255106239511 590.5000000000028,160.22551062396224 590.5000000000009,160.22551062399634 590.5000000000001,160.2255106240416" stroke="black" stroke-dasharray="8.0,8.0" stroke-width="7.0" /><polyline fill="none" points="590.5000000000002,857.2332812293553 578.3283731716867,857.5375446020316 566.1417856214533,857.7535070876655 553.9309333952118,858.004869052649 541.6778601579875,858.4146384431821 529.3559890994013,859.1047532184978 516.932882107867,860.1698820965546 504.38204233232045,861.5999915392772 491.68112078893176,863.3583717624198 478.8101234077627,865.4076381321499 465.75142588313395,867.7098310362564 452.49327171772495,870.2085788395441 439.0427402122546,872.7758953205688 425.41963508745044,875.2671285607752 411.6535519594712,877.5394344556047 397.783789562647,879.4521994183791 383.8474301824255,880.9086674626936 369.8380342874763,881.9782789747077 355.7310163114463,882.7701467616697 341.4941108195756,883.3911225871706 327.0874796550025,883.9454622735542 312.48297405128494,884.4846247217321 297.72863437807314,884.8600687316087 282.9033815122522,884.8777320077892 268.09939718692954,884.3491204710851 253.42187539826142,883.0918815848539 238.9796429175193,880.9490491435778 224.8549411424043,877.8443444240085 211.12598451794526,873.724261805851 197.87526598275795,868.5392806918873 185.18940186506805,862.2440594398751 173.18350591528093,854.756789375691 162.08030006984524,845.8403493436743 152.14604849810232,835.2314022914909 143.66680576980553,822.6829638256005 136.94772940082566,807.9652818336127 132.34756569873906,790.8182380161545 130.39023608505127,770.8117902043637 131.66991416814133,747.5012395829616 136.81605357965302,720.4785260241287 146.4918497699759,689.3738188017827 161.20598878164307,654.0717785388214 180.72127557947493,615.3308902762197 204.56240206982258,574.0929146664507 232.19678959584465,531.2593465260251 263.0364642531373,487.6890463709044 296.34672552470596,444.2860258575772 330.95585522214657,402.2543411480875 365.51605507519935,362.8019645364145 398.59747690739135,327.04382890191846 428.6922928448838,295.99829801954104 454.54741148296245,270.31774607666955 476.1911029374075,249.5334088808811 494.01340930460486,232.93337182316714 508.44546541488546,219.84161961581412 519.9578024025369,209.61968914366423 529.0258300155114,201.69036184439835 536.0266874252771,195.60089343668812 541.3306293485653,190.94994339679306 545.331709362402,187.36535769696548 548.4464543993931,184.50513649693016 551.0477250015422,182.09426375609053 553.2640461891132,180.02421846220125 555.1644373798166,178.22987905122898 556.8216619107243,176.65153363892045 558.3119820936213,175.2350298746162 559.7044635486848,173.9365668316318 561.0287467092114,172.73531544811567 562.3050976445068,171.61699061052218 563.5546157964399,170.5688745299998 564.7991634420963,169.57985012685913 566.05791576259,168.64159515333392 567.3369950074131,167.75162717007424 568.6392827005187,166.90900262118714 569.9677432530887,166.11304050543356 571.3254117979765,165.36332604797303 572.7127485277819,164.66037050967918 574.1196377180419,164.00721523405866 575.5331422764639,163.40681444076097 576.940148524017,162.8612787458046 578.3274023975794,162.3718680066554 579.6854769867663,161.93836279886943 581.0206846058533,161.55774152194203 582.3434316228308,161.22701129070686 583.6642762008134,160.94397414644243 584.9938928080456,160.7072325834962 586.3291029999924,160.51716815419684 587.6109198937625,160.37692089658026 588.7662193380579,160.2860555788866 589.7218501697249,160.2390932798529 590.4048536214459,160.2255106240416 590.5000000000001,160.2255106240416 590.5000000000001,160.2255106240416 590.5000000000001,160.2255106240416 590.5000000000001,160.2255106240416 590.5000000000001,160.2255106240416 590.4153146185306,160.216609831784 590.3949692170272,160.21261446547305 590.41690530583,160.21383242636352 590.4591735200183,160.2190443448593 590.5000000000001,160.2255106240416 590.5000000000001,160.2255106240416 590.5000000000001,160.2255106240416 590.5000000000001,160.2255106240416 590.5000000000001,160.2255106240416 590.5000000000001,160.2255106240416 590.4941232036517,160.22382547980567 590.4927344731215,160.22328932955782 590.4942703017765,160.22364893223516 590.4971939398233,160.22454442003811 590.5000000000001,160.2255106240416 590.5000000000001,160.2255106240416 590.5000000000001,160.2255106240416 590.5000000000001,160.2255106240416 590.5000000000001,160.2255106240416 590.5000000000001,160.2255106240416 590.4996054844772,160.2253182059643 590.4995139772627,160.22526298308787 590.4996180862847,160.22530755691696 590.4998136406966,160.2254073233927 590.5000000000001,160.2255106240416 590.5000000000001,160.2255106240416 590.5000000000001,160.2255106240416 590.5000000000001,160.2255106240416 590.5000000000001,160.2255106240416 590.5000000000001,160.2255106240416 590.4999745043284,160.22549210035163 590.4999687227024,160.22548705490715 590.4999755281177,160.22549150451152 590.4999881111646,160.22550099665227 590.5000000000001,160.2255106240416 590.5000000000001,160.2255106240416 590.5000000000001,160.2255106240416 590.5000000000001,160.2255106240416 590.5000000000001,160.2255106240416 590.5000000000001,160.2255106240416 590.4999984282447,160.22550899644102 590.4999980823524,160.2255085676161 590.4999985080613,160.2255089670756 590.4999992794162,160.22550979510459 590.5000000000001,160.2255106240416 590.5000000000001,160.2255106240416 590.5000000000001,160.2255106240416 590.5000000000001,160.2255106240416 590.5000000000001,160.2255106240416 590.5000000000001,160.2255106240416 590.4999999091594,160.22551048936475 590.4999998900491,160.22551045473188 590.499999915169,160.22551048828348 590.4999999593851,160.22551055644703 590.5000000000001,160.2255106240416 590.5000000000001,160.2255106240416 590.5000000000001,160.2255106240416 590.5000000000001,160.2255106240416 590.5000000000001,160.2255106240416 590.5000000000001,160.2255106240416 590.4999999952562,160.22551061338652 590.4999999943367,160.22551061069942 590.4999999956946,160.22551061338493 590.499999997971,160.22551061875583 590.5000000000001,160.2255106240416 590.5000000000001,160.2255106240416 590.5000000000001,160.2255106240416 590.5000000000001,160.2255106240416 590.5000000000001,160.2255106240416 590.5000000000001,160.2255106240416 590.4999999997974,160.2255106232285 590.4999999997658,160.22551062302648 590.4999999998282,160.22551062323305 590.4999999999224,160.2255106236413 590.5000000000001,160.2255106240416 590.5000000000001,160.2255106240416 590.5000000000001,160.2255106240416 590.5000000000001,160.2255106240416 590.5000000000001,160.2255106240416 590.5000000000001,160.2255106240416 590.4999999999955,160.22551062397372 590.4999999999955,160.2255106239511 590.4999999999974,160.22551062396224 590.4999999999993,160.22551062399634 590.5000000000001,160.2255106240416" stroke="black" stroke-dasharray="8.0,8.0" stroke-width="7.0" /></g><rect fill="white" height="111.60000000000001" stroke="none" width="1181" x="0" y="0" /><line stroke="black" stroke-width="3.0" x1="0" x2="1181" y1="111.60000000000001" y2="111.60000000000001" /><text font-family="Arial" font-size="62.0" text-anchor="start" x="40.0" y="77.5">LED</text><text font-family="Arial" font-size="62.0" text-anchor="middle" x="590.5" y="77.5" /><text font-family="Arial" font-size="62.0" text-anchor="end" x="1141.0" y="77.5">cd / klm</text><rect fill="none" height="1178.0" stroke="black" stroke-width="3.0" width="1178.0" x="1.5" y="1.5" /></svg>