<?xml version="1.0" encoding="utf-8" ?>
<svg baseProfile="full" height="1181" version="1.1" width="1181" xmlns="http://www.w3.org/2000/svg" xmlns:ev="http://www.w3.org/2001/xml-events" xmlns:xlink="http://www.w3.org/1999/xlink"><defs><clipPath id="plot_clip"><rect height="1069.4" width="1181.0" x="0" y="111.60000000000001" /></clipPath></defs><g clip-path="url(#plot_clip)" id="grid"><circle cx="590.4999999999999" cy="160.21458090967394" fill="none" r="178.00862932237803" stroke="black" stroke-width="3.0" /><text font-family="Arial" font-size="42.0" text-anchor="start" x="598.4999999999999" y="378.2232102320519">100</text><circle cx="590.4999999999999" cy="160.21458090967394" fill="none" r="356.01725864475605" stroke="black" stroke-width="3.0" /><text font-family="Arial" font-size="42.0" text-anchor="start" x="598.4999999999999" y="556.2318395544299">200</text><circle cx="590.4999999999999" cy="160.21458090967394" fill="none" r="534.025887967134" stroke="black" stroke-width="3.0" /><text font-family="Arial" font-size="42.0" text-anchor="start" x="598.5" y="734.240468876808">300</text><circle cx="590.4999999999999" cy="160.21458090967394" fill="none" r="712.0345172895121" stroke="black" stroke-width="3.0" /><text font-family="Arial" font-size="42.0" text-anchor="start" x="598.5" y="912.249098199186">400</text><circle cx="590.4999999999999" cy="160.21458090967394" fill="none" r="890.04314661189" stroke="black" stroke-width="3.0" /><text font-family="Arial" font-size="42.0" text-anchor="start" x="598.5" y="1090.257727521564">500</text><circle cx="590.4999999999999" cy="160.21458090967394" fill="none" r="1068.051775934268" stroke="black" stroke-width="3.0" /><text font-family="Arial" font-size="42.0" text-anchor="start" x="598.5" y="1268.2663568439418">600</text><line stroke="black" stroke-width="3.0" x1="-4270.3816409061765" x2="5451.3816409061765" y1="160.2145809096737" y2="160.21458090967417" /><line stroke="black" stroke-width="3.0" x1="-3619.146985814136" x2="4800.146985814135" y1="-2270.2262395434145" y2="2590.6554013627624" /><line stroke="black" stroke-width="3.0" x1="-1839.9408204530878" x2="3020.9408204530873" y1="-4049.432404904463" y2="4369.861566723811" /><line stroke="black" stroke-width="3.0" x1="590.4999999999999" x2="590.4999999999999" y1="-4700.667059996502" y2="5021.096221815849" /><line stroke="black" stroke-width="3.0" x1="3020.940820453088" x2="-1839.940820453088" y1="-4049.432404904463" y2="4369.861566723811" /><line stroke="black" stroke-width="3.0" x1="4800.146985814135" x2="-3619.1469858141354" y1="-2270.2262395434145" y2="2590.6554013627624" /><line stroke="black" stroke-width="3.0" x1="5451.381640906176" x2="-4270.381640906176" y1="160.2145809096737" y2="160.21458090967417" /></g><g clip-path="url(#plot_clip)" id="curves"><polyline fill="none" points="590.5,1132.3909090909092 607.4565907635852,1131.6570151439676 624.3848836781526,1130.5506923793819 641.271681237415,1128.99597046656 658.0984488169312,1126.9174369120283 674.841336659294,1124.2404702102085 691.4752686272859,1120.930087492699 707.9915428194637,1117.1064079885978 724.395089445287,1112.9276463245956 740.7017179260386,1108.5509049719938 756.9380559983105,1104.131701985407 773.1311299612782,1099.7702939931635 789.2698275852538,1095.3530966231008 805.3229298704886,1090.7149188867315 821.2476870089902,1085.6930044228288 836.9899327199078,1080.1275333746034 852.4916476648639,1073.8880371417986 867.7170128864732,1066.9505733977473 882.6365330587251,1059.3183793119665 897.2205449851161,1050.995724062105 911.4392492155455,1041.9879211461046 925.2663304150285,1032.3106875015374 938.6910554494916,1022.0176847298548 951.7097871877382,1011.1715126146017 964.3226866846162,999.8340821229957 976.5336697467169,988.0664572312099 988.2819648489196,975.788471550375 999.2173841513688,962.3676128277349 1008.8719100527728,947.0577045034195 1016.7244269538049,929.1438015975348 1022.202077616898,907.9445130751845 1024.821273827498,883.04656568912 1024.6401952123163,854.9841257525661 1021.8969412453622,824.5076162301854 1016.877123279232,792.3446617502083 1009.9127686414242,759.198090447116 1001.2341029716072,725.5415743607394 990.4990785891533,691.0312868043455 977.1853363757825,655.1492414956226 960.7315598491105,617.4124814268774 940.5389911247918,577.374806130697 916.2696187806088,534.9696583873185 888.7849258182027,491.49355250826727 859.3379971358673,448.50803710388345 829.2851097176426,407.48380050410026 800.0816898798992,369.7962707895731 773.0563067859872,336.50715714313833 748.7112577072329,307.7489655184821 727.333513537255,283.42002989410173 709.2084880952265,263.40629527706983 694.6196031536061,247.58130151418982 683.679130744326,235.66955321341914 675.8027222219847,226.86037168360576 670.1835144478484,220.2604159482746 665.9587074059054,215.03854094837743 662.2123740178473,210.4281257798848 658.168062341433,205.85726527719487 653.7785356011376,201.3081424154717 649.1889513285718,196.88750789059668 644.5512888074956,192.6918717617832 640.023898421386,188.80721699458093 635.7388274912637,185.29087246519168 631.7022554768965,182.12220875246578 627.886630117507,179.2640204253787 624.2623515132225,176.6815800092885 620.7978879785602,174.34271809999893 617.4807921796362,172.2272035403962 614.3817886866683,170.3517987732041 611.5942598472786,168.73721510255598 609.2134234336512,167.39799113824165 607.336067248062,166.34240825007248 606.0154566244533,165.55698105827128 605.1244907025507,164.96636598630778 604.4865965356055,164.490712599792 603.9205401381273,164.06285886867272 603.2409861082317,163.62851784815075 602.3049320662276,163.15788104544583 601.1514268311444,162.6736565550865 599.8668582535744,162.20556809370407 598.5392470484688,161.77725223618972 597.2579799269134,161.40619510587499 596.0968130208214,161.10102900757784 595.0630686845134,160.85587839139976 594.1470726871504,160.66238512814664 593.3388131878664,160.51295219884673 592.6279750329462,160.400754601323 592.0067098908784,160.31994032886678 591.4779010918859,160.26583053425816 591.047010530364,160.23368293831436 590.7193366953232,160.21840944593202 590.4999999999999,160.21458090967394 590.4999999999999,160.21458090967394 590.4999999999999,160.21458090967394 590.4999999999999,160.21458090967394 590.4999999999999,160.21458090967394 590.4999999999999,160.21458090967394 590.5297541146389,160.21145362620882 590.5369024488401,160.21004985869672 590.5291952284246,160.21047778790182 590.5143443383568,160.21230898967133 590.4999999999999,160.21458090967394 590.4999999999999,160.21458090967394 590.4999999999999,160.21458090967394 590.4999999999999,160.21458090967394 590.4999999999999,160.21458090967394 590.4999999999999,160.21458090967394 590.5020648058639,160.21398883611982 590.5025527347921,160.2138004603263 590.5020131231014,160.21392680632732 590.5009859061236,160.2142414349713 590.4999999999999,160.21458090967394 590.4999999999999,160.21458090967394 590.4999999999999,160.21458090967394 590.4999999999999,160.21458090967394 590.4999999999999,160.21458090967394 590.4999999999999,160.21458090967394 590.5001386125903,160.21451330379637 590.5001707635483,160.21449390130022 590.5001341849593,160.21450956226533 590.500065477134,160.21454461510586 590.4999999999999,160.21458090967394 590.4999999999999,160.21458090967394 590.4999999999999,160.21458090967394 590.4999999999999,160.21458090967394 590.4999999999999,160.21458090967394 590.4999999999999,160.21458090967394 590.5000089578758,160.21457440139613 590.5000109892436,160.21457262868466 590.5000085981685,160.21457419204842 590.5000041771291,160.21457752710148 590.4999999999999,160.21458090967394 590.4999999999999,160.21458090967394 590.4999999999999,160.21458090967394 590.4999999999999,160.21458090967394 590.4999999999999,160.21458090967394 590.4999999999999,160.21458090967394 590.5000005522344,160.21458033781835 590.5000006737633,160.2145801871511 590.500000524191,160.2145803275008 590.5000002531763,160.21458061842793 590.4999999999999,160.21458090967394 590.4999999999999,160.21458090967394 590.4999999999999,160.21458090967394 590.4999999999999,160.21458090967394 590.4999999999999,160.21458090967394 590.4999999999999,160.21458090967394 590.5000000319167,160.21458086235543 590.500000038631,160.2145808501872 590.5000000298052,160.2145808619756 590.5000000142699,160.21458088592465 590.4999999999999,160.21458090967394 590.4999999999999,160.21458090967394 590.4999999999999,160.21458090967394 590.4999999999999,160.21458090967394 590.4999999999999,160.21458090967394 590.4999999999999,160.21458090967394 590.5000000016666,160.21458090593023 590.5000000019897,160.21458090498618 590.5000000015126,160.21458090592967 590.5000000007127,160.21458090781675 590.4999999999999,160.21458090967394 590.4999999999999,160.21458090967394 590.4999999999999,160.21458090967394 590.4999999999999,160.21458090967394 590.4999999999999,160.21458090967394 590.4999999999999,160.21458090967394 590.500000000071,160.21458090938813 590.5000000000822,160.2145809093173 590.5000000000603,160.21458090938984 590.5000000000272,160.2145809095333 590.4999999999999,160.21458090967394 590.4999999999999,160.21458090967394 590.4999999999999,160.21458090967394 590.4999999999999,160.21458090967394 590.4999999999999,160.21458090967394 590.4999999999999,160.21458090967394 590.5000000000015,160.21458090965007 590.5000000000015,160.2145809096421 590.5000000000009,160.21458090964597 590.5000000000001,160.2145809096579 590.4999999999999,160.21458090967394" stroke="black" stroke-width="9.0" /><polyline fill="none" points="590.5,1132.3909090909092 573.5434092364144,1131.6570151439676 556.6151163218475,1130.5506923793819 539.7283187625849,1128.99597046656 522.9015511830688,1126.9174369120283 506.15866334070597,1124.2404702102085 489.5247313727141,1120.930087492699 473.0084571805362,1117.106407988598 456.60491055471266,1112.9276463245953 440.29828207396133,1108.550904971994 424.06194400168914,1104.131701985407 407.8688700387217,1099.7702939931635 391.73017241474577,1095.3530966231006 375.6770701295114,1090.7149188867318 359.7523129910098,1085.6930044228288 344.0100672800922,1080.1275333746034 328.5083523351362,1073.8880371417986 313.28298711352636,1066.9505733977473 298.3634669412748,1059.3183793119667 283.7794550148835,1050.995724062105 269.56075078445446,1041.9879211461048 255.73366958497095,1032.3106875015374 242.3089445505084,1022.0176847298549 229.29021281226167,1011.1715126146017 216.6773133153837,999.8340821229957 204.466330253283,988.06645723121 192.71803515107996,975.7884715503749 181.78261584863102,962.367612827735 172.12808994722667,947.0577045034194 164.27557304619495,929.1438015975349 158.79792238310162,907.9445130751844 156.1787261725018,883.0465656891201 156.35980478768352,854.9841257525662 159.10305875463766,824.5076162301854 164.12287672076795,792.3446617502083 171.0872313585754,759.1980904471159 179.76589702839266,725.5415743607394 190.50092141084622,691.0312868043455 203.81466362421745,655.1492414956227 220.26844015088912,617.4124814268773 240.46100887520817,577.3748061306972 264.73038121939095,534.9696583873186 292.2150741817971,491.4935525082674 321.6620028641324,448.50803710388357 351.7148902823571,407.48380050410015 380.91831012010067,369.7962707895731 407.94369321401257,336.5071571431382 432.2887422927668,307.74896551848224 453.6664864627447,283.4200298941016 471.79151190477324,263.40629527706983 486.3803968463936,247.58130151418982 497.3208692556738,235.66955321341914 505.19727777801506,226.86037168360576 510.8164855521513,220.2604159482746 515.0412925940943,215.03854094837743 518.7876259821525,210.4281257798848 522.8319376585666,205.85726527719487 527.221464398862,201.3081424154717 531.8110486714279,196.8875078905969 536.4487111925043,192.6918717617832 540.9761015786138,188.80721699458093 545.2611725087361,185.29087246519168 549.2977445231032,182.12220875246578 553.1133698824927,179.2640204253787 556.7376484867772,176.6815800092885 560.2021120214396,174.34271809999893 563.5192078203635,172.2272035403962 566.6182113133315,170.3517987732041 569.4057401527211,168.73721510255598 571.7865765663486,167.39799113824165 573.6639327519378,166.34240825007248 574.9845433755463,165.55698105827128 575.875509297449,164.96636598630778 576.5134034643943,164.490712599792 577.0794598618725,164.06285886867272 577.7590138917681,163.62851784815075 578.6950679337722,163.15788104544583 579.8485731688554,162.6736565550865 581.1331417464254,162.2055680937043 582.4607529515309,161.77725223618972 583.7420200730863,161.40619510587499 584.9031869791784,161.10102900757784 585.9369313154864,160.85587839139976 586.8529273128494,160.66238512814664 587.6611868121333,160.51295219884673 588.3720249670534,160.400754601323 588.9932901091214,160.31994032886678 589.5220989081138,160.26583053425816 589.9529894696357,160.23368293831436 590.2806633046765,160.21840944593202 590.4999999999999,160.21458090967394 590.4999999999999,160.21458090967394 590.4999999999999,160.21458090967394 590.4999999999999,160.21458090967394 590.4999999999999,160.21458090967394 590.4999999999999,160.21458090967394 590.4702458853608,160.21145362620882 590.4630975511596,160.21004985869672 590.4708047715752,160.21047778790182 590.485655661643,160.21230898967133 590.4999999999999,160.21458090967394 590.4999999999999,160.21458090967394 590.4999999999999,160.21458090967394 590.4999999999999,160.21458090967394 590.4999999999999,160.21458090967394 590.4999999999999,160.21458090967394 590.4979351941358,160.21398883611982 590.4974472652077,160.2138004603263 590.4979868768984,160.21392680632732 590.4990140938761,160.2142414349713 590.4999999999999,160.21458090967394 590.4999999999999,160.21458090967394 590.4999999999999,160.21458090967394 590.4999999999999,160.21458090967394 590.4999999999999,160.21458090967394 590.4999999999999,160.21458090967394 590.4998613874094,160.21451330379637 590.4998292364514,160.21449390130022 590.4998658150405,160.21450956226533 590.4999345228658,160.21454461510586 590.4999999999999,160.21458090967394 590.4999999999999,160.21458090967394 590.4999999999999,160.21458090967394 590.4999999999999,160.21458090967394 590.4999999999999,160.21458090967394 590.4999999999999,160.21458090967394 590.499991042124,160.21457440139613 590.499989010756,160.21457262868466 590.4999914018312,160.21457419204842 590.4999958228707,160.21457752710148 590.4999999999999,160.21458090967394 590.4999999999999,160.21458090967394 590.4999999999999,160.21458090967394 590.4999999999999,160.21458090967394 590.4999999999999,160.21458090967394 590.4999999999999,160.21458090967394 590.4999994477653,160.21458033781835 590.4999993262364,160.2145801871511 590.4999994758087,160.2145803275008 590.4999997468235,160.21458061842793 590.4999999999999,160.21458090967394 590.4999999999999,160.21458090967394 590.4999999999999,160.21458090967394 590.4999999999999,160.21458090967394 590.4999999999999,160.21458090967394 590.4999999999999,160.21458090967394 590.4999999680831,160.21458086235543 590.4999999613686,160.2145808501872 590.4999999701946,160.2145808619756 590.4999999857299,160.21458088592465 590.4999999999999,160.21458090967394 590.4999999999999,160.21458090967394 590.4999999999999,160.21458090967394 590.4999999999999,160.21458090967394 590.4999999999999,160.21458090967394 590.4999999999999,160.21458090967394 590.4999999983331,160.21458090593023 590.49999999801,160.21458090498618 590.4999999984872,160.21458090592967 590.499999999287,160.21458090781675 590.4999999999999,160.21458090967394 590.4999999999999,160.21458090967394 590.4999999999999,160.21458090967394 590.4999999999999,160.21458090967394 590.4999999999999,160.21458090967394 590.4999999999999,160.21458090967394 590.4999999999286,160.21458090938813 590.4999999999175,160.2145809093173 590.4999999999394,160.21458090938984 590.4999999999726,160.2145809095333 590.4999999999999,160.21458090967394 590.4999999999999,160.21458090967394 590.4999999999999,160.21458090967394 590.4999999999999,160.21458090967394 590.4999999999999,160.21458090967394 590.4999999999999,160.21458090967394 590.4999999999983,160.21458090965007 590.4999999999983,160.2145809096421 590.4999999999989,160.21458090964597 590.4999999999995,160.2145809096579 590.4999999999999,160.21458090967394" stroke="black" stroke-width="9.0" /><polyline fill="none" points="590.5,1132.3909090909092 607.4559024293719,1131.6175805033017 624.3841988195456,1130.5310805948525 641.277893948931,1129.1145160641966 658.1287798367962,1127.3511907043442 674.9274419916817,1125.224658662946 691.6629555334516,1122.7158091212445 708.3215451301575,1119.7940611289196 724.8868111659611,1116.42642816772 741.3399591958214,1112.5806017558125 757.6598249083311,1108.2250568827724 773.8273818092996,1103.352199234028 789.8424223655545,1098.046943267034 805.715737271045,1092.4163546654822 821.4653863810959,1086.5661489137128 837.1166307844261,1080.6003769886065 852.682447922698,1074.5534367168577 868.0957984496181,1068.189525148804 883.2514188585654,1061.2108032153776 898.0231403754796,1053.3266303251712 912.2642075907308,1044.2544756539162 925.8489008230097,1033.8283353007828 938.8116950405863,1022.316278195775 951.2496838929166,1010.0875771789727 963.2847060968334,997.5027395522364 975.0629291606101,984.9124438660297 986.638689610972,972.419258017239 997.5939020282744,959.1813497574498 1007.3279221570283,944.1538856057183 1015.1666081955651,926.3334221636123 1020.3641385191444,904.7611091766581 1022.3078252730909,878.8634848300761 1021.1757024049524,849.4397782873274 1017.4103698083443,817.5989020666699 1011.526346707126,784.4118092531713 1004.1082952256629,750.9084433082086 995.6368586617198,717.8376284881502 985.9369387072812,684.9771226985994 974.6363337944593,651.8866669712195 961.3307546401838,618.1524253705845 945.5849899181374,583.388393320893 927.0909964600671,547.4182293923741 906.1647933560655,510.7958509018912 883.3195877994556,474.2251445481354 859.1136670892099,438.3721758789993 834.148705504652,403.8632864143259 809.0816024892297,371.2963808128652 784.66526702033,341.27662161007913 761.7090110802661,314.37186690657927 741.0632209876313,291.0971921171156 723.6170933122263,271.91308481135457 710.0068452562809,256.9893160557168 699.7125649613021,245.54078814787044 691.8699123900384,236.60228894975296 685.554160332595,229.27547085514448 679.7832179974135,222.73136318708373 673.7225491647556,216.34889911463915 667.3125504707367,210.09723443823748 660.6975413964099,204.07887310767694 654.0283989010467,198.3862939991867 647.4621181842869,193.10167517698324 641.1472946509406,188.28883476628573 635.18038641932,183.97156377910585 629.6456978972024,180.16031022651907 624.6289564933109,176.8603852052081 620.2170977936677,174.07189118900226 616.4756677932637,171.7796933312801 613.3800981626372,169.92660637211702 610.8804236057883,168.44880654004237 608.9234918361909,167.28669682535633 607.4531586248493,166.38502602591245 606.3984464916551,165.6888550451589 605.637062539395,165.13291067183275 605.0308368690378,164.6571035678095 604.4380420580909,164.21125015634368 603.7138297222349,163.7552159126692 602.748560754314,163.26849010025046 601.5831905092755,162.77333705445028 600.2979657203562,162.29720281455354 598.9746428736278,161.86188461128143 597.6962406225628,161.4834722911021 596.5309096567776,161.16978316031043 595.4837077966762,160.9149953633315 594.5435398170506,160.7110651706039 593.6989788162338,160.5508071317853 592.938304725251,160.42790493135522 592.2537933407579,160.33721808680093 591.6545423711162,160.27508791143237 591.1537886655293,160.23741171295922 590.7646326356719,160.21920008951167 590.4999999999999,160.21458090967394 590.4999999999999,160.21458090967394 590.4999999999999,160.21458090967394 590.4999999999999,160.21458090967394 590.4999999999999,160.21458090967394 590.4999999999999,160.21458090967394 590.536051262178,160.21079176933233 590.5447124666384,160.20909090909083 590.5353740935349,160.20960940504176 590.517380167723,160.21182816153635 590.4999999999999,160.21458090967394 590.4999999999999,160.21458090967394 590.4999999999999,160.21458090967394 590.4999999999999,160.21458090967394 590.4999999999999,160.21458090967394 590.4999999999999,160.21458090967394 590.5025018004552,160.21386352993716 590.5030929944438,160.21363528637482 590.5024391795758,160.21378837218697 590.5011945628555,160.2141695886968 590.4999999999999,160.21458090967394 590.4999999999999,160.21458090967394 590.4999999999999,160.21458090967394 590.4999999999999,160.21458090967394 590.4999999999999,160.21458090967394 590.4999999999999,160.21458090967394 590.500167948497,160.2144989957187 590.5002069038695,160.21447548688673 590.5001625838041,160.2144944623317 590.5000793346853,160.2145369337395 590.4999999999999,160.21458090967394 590.4999999999999,160.21458090967394 590.4999999999999,160.21458090967394 590.4999999999999,160.21458090967394 590.4999999999999,160.21458090967394 590.4999999999999,160.21458090967394 590.5000108537167,160.2145730239872 590.5000133150023,160.21457087609986 590.5000104178812,160.214572770333 590.5000050611748,160.21457681121524 590.4999999999999,160.21458090967394 590.4999999999999,160.21458090967394 590.4999999999999,160.21458090967394 590.4999999999999,160.21458090967394 590.4999999999999,160.21458090967394 590.4999999999999,160.21458090967394 590.5000006691091,160.21458021679098 590.5000008163584,160.21458003423675 590.5000006351305,160.21458020428975 590.5000003067584,160.21458055678875 590.4999999999999,160.21458090967394 590.4999999999999,160.21458090967394 590.4999999999999,160.21458090967394 590.4999999999999,160.21458090967394 590.4999999999999,160.21458090967394 590.4999999999999,160.21458090967394 590.5000000386715,160.21458085234076 590.5000000468069,160.2145808375974 590.5000000361131,160.21458085188056 590.50000001729,160.21458088089832 590.4999999999999,160.21458090967394 590.4999999999999,160.21458090967394 590.4999999999999,160.21458090967394 590.4999999999999,160.21458090967394 590.4999999999999,160.21458090967394 590.4999999999999,160.21458090967394 590.5000000020194,160.21458090513795 590.5000000024108,160.21458090399415 590.5000000018327,160.21458090513738 590.5000000008636,160.21458090742374 590.4999999999999,160.21458090967394 590.4999999999999,160.21458090967394 590.4999999999999,160.21458090967394 590.4999999999999,160.21458090967394 590.4999999999999,160.21458090967394 590.4999999999999,160.21458090967394 590.5000000000862,160.21458090932788 590.5000000000996,160.21458090924182 590.500000000073,160.2145809093297 590.500000000033,160.21458090950352 590.4999999999999,160.21458090967394 590.4999999999999,160.21458090967394 590.4999999999999,160.21458090967394 590.4999999999999,160.21458090967394 590.4999999999999,160.21458090967394 590.4999999999999,160.21458090967394 590.5000000000019,160.21458090964495 590.5000000000019,160.21458090963552 590.500000000001,160.21458090964006 590.5000000000001,160.21458090965473 590.4999999999999,160.21458090967394" stroke="black" stroke-dasharray="8.0,8.0" stroke-width="7.0" /><polyline fill="none" points="590.5,1132.3909090909092 573.5440975706276,1131.6175805033017 556.6158011804542,1130.5310805948525 539.722106051069,1129.1145160641966 522.8712201632038,1127.3511907043442 506.0725580083183,1125.224658662946 489.3370444665483,1122.7158091212445 472.67845486984254,1119.7940611289198 456.1131888340384,1116.4264281677197 439.66004080417866,1112.5806017558125 423.3401750916685,1108.2250568827724 407.17261819070046,1103.352199234028 391.157577634445,1098.0469432670338 375.2842627289549,1092.4163546654825 359.53461361890413,1086.5661489137128 343.8833692155738,1080.6003769886067 328.317552077302,1074.5534367168577 312.9042015503814,1068.1895251488038 297.7485811414346,1061.2108032153776 282.97685962452005,1053.3266303251712 268.7357924092691,1044.2544756539164 255.1510991769899,1033.8283353007828 242.18830495941356,1022.3162781957752 229.75031610708345,1010.0875771789727 217.71529390316658,997.5027395522366 205.93707083938975,984.9124438660298 194.36131038902747,972.419258017239 183.4060979717256,959.1813497574499 173.67207784297125,944.1538856057182 165.8333918044348,926.3334221636125 160.63586148085517,904.761109176658 158.69217472690917,878.8634848300763 159.82429759504737,849.4397782873274 163.58963019165577,817.5989020666699 169.47365329287393,784.4118092531716 176.8917047743368,750.9084433082086 185.36314133828012,717.8376284881502 195.06306129271832,684.9771226985991 206.3636662055406,651.8866669712196 219.66924535981576,618.1524253705844 235.4150100818625,583.3883933208931 253.90900353993257,547.4182293923742 274.8352066439344,510.7958509018913 297.6804122005442,474.2251445481355 321.8863329107898,438.3721758789992 346.8512944953478,403.863286414326 371.91839751077003,371.2963808128652 396.3347329796698,341.27662161007913 419.29098891973365,314.37186690657927 439.93677901236856,291.0971921171157 457.3829066877736,271.91308481135457 470.9931547437189,256.9893160557168 481.2874350386977,245.54078814787044 489.1300876099614,236.60228894975296 495.4458396674048,229.27547085514448 501.2167820025862,222.73136318708373 507.27745083524417,216.34889911463915 513.687449529263,210.09723443823748 520.3024586035899,204.07887310767694 526.9716010989531,198.3862939991867 533.5378818157129,193.10167517698324 539.8527053490592,188.28883476628573 545.8196135806797,183.97156377910585 551.3543021027973,180.16031022651907 556.3710435066889,176.8603852052081 560.7829022063321,174.07189118900226 564.5243322067361,171.7796933312801 567.6199018373626,169.92660637211702 570.1195763942114,168.44880654004237 572.0765081638089,167.28669682535633 573.5468413751505,166.38502602591245 574.6015535083445,165.6888550451589 575.3629374606047,165.13291067183275 575.9691631309619,164.6571035678095 576.5619579419088,164.21125015634368 577.2861702777649,163.7552159126692 578.2514392456857,163.26849010025046 579.4168094907243,162.77333705445028 580.7020342796436,162.29720281455354 582.0253571263719,161.86188461128143 583.303759377437,161.4834722911021 584.4690903432222,161.16978316031043 585.5162922033236,160.9149953633315 586.4564601829491,160.7110651706039 587.3010211837659,160.5508071317853 588.0616952747488,160.42790493135522 588.7462066592418,160.33721808680093 589.3454576288835,160.27508791143237 589.8462113344705,160.23741171295922 590.2353673643278,160.21920008951167 590.4999999999999,160.21458090967394 590.4999999999999,160.21458090967394 590.4999999999999,160.21458090967394 590.4999999999999,160.21458090967394 590.4999999999999,160.21458090967394 590.4999999999999,160.21458090967394 590.4639487378217,160.21079176933233 590.4552875333612,160.20909090909083 590.4646259064649,160.20960940504176 590.4826198322768,160.21182816153635 590.4999999999999,160.21458090967394 590.4999999999999,160.21458090967394 590.4999999999999,160.21458090967394 590.4999999999999,160.21458090967394 590.4999999999999,160.21458090967394 590.4999999999999,160.21458090967394 590.4974981995446,160.21386352993716 590.4969070055558,160.21363528637482 590.4975608204238,160.21378837218697 590.4988054371441,160.2141695886968 590.4999999999999,160.21458090967394 590.4999999999999,160.21458090967394 590.4999999999999,160.21458090967394 590.4999999999999,160.21458090967394 590.4999999999999,160.21458090967394 590.4999999999999,160.21458090967394 590.4998320515027,160.2144989957187 590.4997930961302,160.21447548688673 590.4998374161956,160.2144944623317 590.4999206653143,160.2145369337395 590.4999999999999,160.21458090967394 590.4999999999999,160.21458090967394 590.4999999999999,160.21458090967394 590.4999999999999,160.21458090967394 590.4999999999999,160.21458090967394 590.4999999999999,160.21458090967394 590.499989146283,160.2145730239872 590.4999866849975,160.21457087609986 590.4999895821186,160.214572770333 590.499994938825,160.21457681121524 590.4999999999999,160.21458090967394 590.4999999999999,160.21458090967394 590.4999999999999,160.21458090967394 590.4999999999999,160.21458090967394 590.4999999999999,160.21458090967394 590.4999999999999,160.21458090967394 590.4999993308905,160.21458021679098 590.4999991836414,160.21458003423675 590.4999993648693,160.21458020428975 590.4999996932414,160.21458055678875 590.4999999999999,160.21458090967394 590.4999999999999,160.21458090967394 590.4999999999999,160.21458090967394 590.4999999999999,160.21458090967394 590.4999999999999,160.21458090967394 590.4999999999999,160.21458090967394 590.4999999613282,160.21458085234076 590.4999999531929,160.2145808375974 590.4999999638866,160.21458085188056 590.4999999827098,160.21458088089832 590.4999999999999,160.21458090967394 590.4999999999999,160.21458090967394 590.4999999999999,160.21458090967394 590.4999999999999,160.21458090967394 590.4999999999999,160.21458090967394 590.4999999999999,160.21458090967394 590.4999999979802,160.21458090513795 590.4999999975889,160.21458090399415 590.499999998167,160.21458090513738 590.4999999991361,160.21458090742374 590.4999999999999,160.21458090967394 590.4999999999999,160.21458090967394 590.4999999999999,160.21458090967394 590.4999999999999,160.21458090967394 590.4999999999999,160.21458090967394 590.4999999999999,160.21458090967394 590.4999999999136,160.21458090932788 590.4999999999001,160.21458090924182 590.4999999999267,160.2145809093297 590.4999999999668,160.21458090950352 590.4999999999999,160.21458090967394 590.4999999999999,160.21458090967394 590.4999999999999,160.21458090967394 590.4999999999999,160.21458090967394 590.4999999999999,160.21458090967394 590.4999999999999,160.21458090967394 590.4999999999978,160.21458090964495 590.4999999999978,160.21458090963552 590.4999999999986,160.21458090964006 590.4999999999995,160.21458090965473 590.4999999999999,160.21458090967394" stroke="black" stroke-dasharray="8.0,8.0" stroke-width="7.0" /></g><rect fill="white" height="111.60000000000001" stroke="none" width="1181" x="0" y="0" /><line stroke="black" stroke-width="3.0" x1="0" x2="1181" y1="111.60000000000001" y2="111.60000000000001" /><text font-family="Arial" font-size="62.0" text-anchor="start" x="40.0" y="77.5">LED</text><text font-family="Arial" font-size="62.0" text-anchor="middle" x="590.5" y="77.5" /><text font-family="Arial" font-size="62.0" text-anchor="end" x="1141.0" y="77.5">cd / klm</text><rect fill="none" height="1178.0" stroke="black" stroke-width="3.0" width="1178.0" x="1.5" y="1.5" /></svg>