<?xml version="1.0" encoding="utf-8" ?>
<svg baseProfile="full" height="1181" version="1.1" width="1181" xmlns="http://www.w3.org/2000/svg" xmlns:ev="http://www.w3.org/2001/xml-events" xmlns:xlink="http://www.w3.org/1999/xlink"><defs><clipPath id="plot_clip"><rect height="1069.4" width="1181.0" x="0" y="111.60000000000001" /></clipPath></defs><g clip-path="url(#plot_clip)" id="grid"><circle cx="590.4999999999999" cy="160.2153122181843" fill="none" r="166.29757045376752" stroke="black" stroke-width="3.0" /><text font-family="Arial" font-size="42.0" text-anchor="start" x="598.4999999999999" y="366.51288267195184">250</text><circle cx="590.4999999999999" cy="160.2153122181843" fill="none" r="332.59514090753504" stroke="black" stroke-width="3.0" /><text font-family="Arial" font-size="42.0" text-anchor="start" x="598.5" y="532.8104531257193">500</text><circle cx="590.4999999999999" cy="160.2153122181843" fill="none" r="498.8927113613026" stroke="black" stroke-width="3.0" /><text font-family="Arial" font-size="42.0" text-anchor="start" x="598.5" y="699.1080235794868">750</text><circle cx="590.4999999999999" cy="160.2153122181843" fill="none" r="665.1902818150701" stroke="black" stroke-width="3.0" /><text font-family="Arial" font-size="42.0" text-anchor="start" x="598.5" y="865.4055940332544">1000</text><circle cx="590.4999999999999" cy="160.2153122181843" fill="none" r="831.4878522688376" stroke="black" stroke-width="3.0" /><text font-family="Arial" font-size="42.0" text-anchor="start" x="598.5" y="1031.703164487022">1250</text><circle cx="590.4999999999999" cy="160.2153122181843" fill="none" r="997.7854227226052" stroke="black" stroke-width="3.0" /><text font-family="Arial" font-size="42.0" text-anchor="start" x="598.5000000000001" y="1198.0007349407892">1500</text><line stroke="black" stroke-width="3.0" x1="-4270.377984363625" x2="5451.377984363625" y1="160.21531221818395" y2="160.21531221818464" /><line stroke="black" stroke-width="3.0" x1="-3619.143819155396" x2="4800.143819155396" y1="-2270.223679963629" y2="2590.6543043999973" /><line stroke="black" stroke-width="3.0" x1="-1839.9389921818122" x2="3020.938992181812" y1="-4049.428506937213" y2="4369.8591313735815" /><line stroke="black" stroke-width="3.0" x1="590.4999999999999" x2="590.4999999999999" y1="-4700.6626721454395" y2="5021.093296581808" /><line stroke="black" stroke-width="3.0" x1="3020.938992181812" x2="-1839.9389921818122" y1="-4049.428506937213" y2="4369.8591313735815" /><line stroke="black" stroke-width="3.0" x1="4800.143819155396" x2="-3619.143819155396" y1="-2270.223679963629" y2="2590.6543043999973" /><line stroke="black" stroke-width="3.0" x1="5451.377984363625" x2="-4270.377984363625" y1="160.21531221818395" y2="160.21531221818464" /></g><g clip-path="url(#plot_clip)" id="curves"><polyline fill="none" points="590.5000000000001,1132.3909090909092 607.3266489962133,1124.2133875855131 623.8208537817545,1114.3997207154998 639.8366193230287,1101.6140892313101 655.1343068557384,1084.5289632960037 669.3809932808065,1061.8291911115687 682.1906486581825,1032.5935605962056 693.2964627661111,997.4253165557849 702.5243725540519,957.3101408583747 709.766546692137,913.2346520457266 714.9812480464982,866.1835511476128 718.1927332878813,817.1374760645793 719.491423676006,767.0722479088145 719.0332329147582,716.9539096322052 717.0389214989737,667.7352059164574 713.793465050308,620.3527880271512 709.6332279305536,575.6822520445884 704.9029692998711,534.4105639150288 699.9810392248532,497.1633042733531 695.2892299679988,464.54533375452047 691.291942369566,437.1388979415385 688.3834877600634,415.21051579601533 686.5112007452869,397.8513729635571 685.4398436036822,383.8795673828564 684.8543072972702,372.1385561841121 684.3608666623065,361.5005903405257 683.5854378338307,351.0687430039786 682.4933358965267,340.76239968517166 681.1477340349358,330.69890464136336 679.6195960023107,320.99131933684896 677.9874888400225,311.74808791571843 676.3161963591963,303.037447072158 674.5880484543034,294.784319639283 672.7578714646756,286.8813264846017 670.7731094889594,279.22509116766525 668.5740127600659,271.7165579198311 666.0991577972243,264.26862621313126 663.3026359254387,256.8276732233538 660.1400447698065,249.35050478684957 656.5635554039385,241.7970089371039 652.5220470129384,234.1303095659007 647.9947670894474,226.3554758584147 643.0973800910664,218.6306207945504 637.9906264707548,211.1427740648918 632.8476872641506,204.06762609913517 627.8536837970213,197.56899601520558 623.1853837590605,191.77922041457055 618.9486966865148,186.74415105931394 615.2329878443697,182.4849945008242 612.1299781664635,179.0179653775457 609.7335429656995,176.3541710269352 608.0952667686138,174.46367830721454 607.086566937194,173.1741585593055 606.5229093520843,172.28944045487742 606.2073847537625,171.62739524553592 605.9313408506603,171.02045340650022 605.5213556295066,170.3473445248054 604.9831809129352,169.62079987669767 604.3706040884471,168.8826276055231 603.7400750456525,168.17075190608648 603.1505341455562,167.51910151251377 602.649794397491,166.95005322600377 602.2330120947468,166.45386541075948 601.8811497451112,166.01429765782564 601.5742140851403,165.61656732026233 601.2913216676347,165.2473881534164 601.0108251665844,164.8950330886105 600.7105633831729,164.54943923365317 600.3677580146546,164.2021452462999 599.9590243664326,163.84629147898147 599.4604415131071,163.47664621483852 598.8601730550487,163.09395065291778 598.19677612254,162.71614637789264 597.5225501662484,162.3623212660891 596.8909870486322,162.04789826482386 596.3566105677643,161.78458629020042 595.9536755271023,161.57506624551138 595.6318776013347,161.40009951708225 595.3185368059991,161.23952383394794 594.9397629661198,161.07831471603686 594.4206810123577,160.90663406341423 593.7145477721984,160.72444656798052 592.8902535788759,160.5512404513098 592.0467000575161,160.40522310559493 591.2837871073332,160.29769156271163 590.7021110047497,160.2329946398737 590.4999999999999,160.2153122181843 590.4999999999999,160.2153122181843 590.4999999999999,160.2153122181843 590.4999999999999,160.2153122181843 590.5099778542271,160.2153122181843 590.571768910909,160.2140594871845 590.5855174644522,160.21232588252064 590.5677002459503,160.21176419863707 590.5348115823803,160.2128779552097 590.5033132951597,160.21502234241882 590.4999999999999,160.2153122181843 590.4999999999999,160.2153122181843 590.4999999999999,160.2153122181843 590.4999999999999,160.2153122181843 590.5032754227337,160.21473467278304 590.5073136760674,160.21389058356942 590.5076893492012,160.21367779655657 590.5057261803057,160.213990225295 590.5027330423503,160.21463079419334 590.4999999999999,160.2153122181843 590.4999999999999,160.2153122181843 590.4999999999999,160.2153122181843 590.4999999999999,160.2153122181843 590.4999999999999,160.2153122181843 590.4999999999999,160.2153122181843 590.5003852556183,160.2151643324081 590.5004754828944,160.21512011062487 590.500374325786,160.21515332631498 590.500183001781,160.21523074054187 590.4999999999999,160.2153122181843 590.4999999999999,160.2153122181843 590.4999999999999,160.2153122181843 590.4999999999999,160.2153122181843 590.4999999999999,160.2153122181843 590.4999999999999,160.2153122181843 590.5000253961417,160.21529695864285 590.5000312244232,160.2152927069992 590.5000244861197,160.21529631671206 590.5000119235141,160.21530417567237 590.4999999999999,160.2153122181843 590.4999999999999,160.2153122181843 590.4999999999999,160.2153122181843 590.4999999999999,160.2153122181843 590.4999999999999,160.2153122181843 590.4999999999999,160.2153122181843 590.5000016054134,160.21531082261959 590.5000019645012,160.2153104493393 590.5000015330662,160.21531078857674 590.500000742795,160.21531150087537 590.4999999999999,160.2153122181843 590.4999999999999,160.2153122181843 590.4999999999999,160.2153122181843 590.4999999999999,160.2153122181843 590.4999999999999,160.2153122181843 590.4999999999999,160.2153122181843 590.5000000961134,160.2153120994941 590.500000116849,160.21531206862403 590.5000000905734,160.2153120979891 590.5000000435771,160.2153121582055 590.4999999999999,160.2153122181843 590.4999999999999,160.2153122181843 590.4999999999999,160.2153122181843 590.4999999999999,160.2153122181843 590.4999999999999,160.2153122181843 590.4999999999999,160.2153122181843 590.5000000053159,160.2153122085939 590.5000000063972,160.2153122061526 590.5000000049055,160.2153122085565 590.5000000023333,160.21531221340024 590.4999999999999,160.2153122181843 590.4999999999999,160.2153122181843 590.4999999999999,160.2153122181843 590.4999999999999,160.2153122181843 590.4999999999999,160.2153122181843 590.4999999999999,160.2153122181843 590.5000000002563,160.21531221743987 590.5000000003023,160.21531221725377 590.5000000002268,160.21531221744226 590.5000000001053,160.21531221781686 590.4999999999999,160.2153122181843 590.4999999999999,160.2153122181843 590.4999999999999,160.2153122181843 590.4999999999999,160.2153122181843 590.4999999999999,160.2153122181843 590.4999999999999,160.2153122181843 590.5000000000089,160.2153122181279 590.5000000000098,160.2153122181137 590.5000000000068,160.21531221812768 590.5000000000028,160.21531221815587 590.4999999999999,160.2153122181843 590.4999999999999,160.2153122181843 590.4999999999999,160.2153122181843 590.4999999999999,160.2153122181843 590.4999999999999,160.2153122181843 590.4999999999999,160.2153122181843" stroke="black" stroke-width="9.0" /><polyline fill="none" points="590.5000000000001,1132.3909090909092 573.6733510037863,1124.2133875855131 557.1791462182456,1114.3997207154998 541.1633806769713,1101.6140892313101 525.8656931442617,1084.5289632960037 511.61900671919364,1061.8291911115687 498.8093513418176,1032.5935605962056 487.70353723388894,997.4253165557851 478.47562744594785,957.3101408583746 471.23345330786293,913.2346520457266 466.01875195350146,866.1835511476128 462.8072667121187,817.1374760645793 461.50857632399374,767.0722479088145 461.96676708524177,716.9539096322052 463.96107850102624,667.7352059164574 467.2065349496919,620.3527880271512 471.3667720694463,575.6822520445884 476.0970307001287,534.4105639150288 481.01896077514675,497.1633042733531 485.7107700320008,464.54533375452047 489.7080576304339,437.1388979415385 492.61651223993636,415.21051579601533 494.48879925471283,397.8513729635571 495.5601563963176,383.8795673828564 496.1456927027298,372.1385561841121 496.6391333376933,361.50059034052595 497.414562166169,351.0687430039786 498.5066641034732,340.76239968517166 499.85226596506413,330.69890464136336 501.38040399768926,320.99131933684896 503.01251115997735,311.74808791571843 504.68380364080355,303.037447072158 506.4119515456965,294.784319639283 508.24212853532424,286.8813264846017 510.2268905110405,279.22509116766525 512.4259872399339,271.71655791983085 514.9008422027755,264.26862621313126 517.6973640745612,256.8276732233538 520.8599552301933,249.35050478684957 524.4364445960614,241.7970089371039 528.4779529870615,234.1303095659007 533.0052329105526,226.3554758584147 537.9026199089335,218.6306207945504 543.0093735292451,211.1427740648918 548.1523127358491,204.06762609913517 553.1463162029785,197.56899601520558 557.8146162409392,191.77922041457055 562.0513033134849,186.74415105931394 565.76701215563,182.4849945008242 568.8700218335363,179.0179653775457 571.2664570343003,176.3541710269352 572.904733231386,174.46367830721454 573.9134330628058,173.1741585593055 574.4770906479155,172.28944045487742 574.7926152462372,171.62739524553592 575.0686591493395,171.02045340650022 575.4786443704933,170.3473445248054 576.0168190870646,169.62079987669767 576.6293959115528,168.8826276055231 577.2599249543473,168.17075190608648 577.8494658544437,167.51910151251377 578.3502056025089,166.95005322600377 578.766987905253,166.45386541075948 579.1188502548886,166.01429765782564 579.4257859148595,165.61656732026233 579.708678332365,165.2473881534164 579.9891748334155,164.8950330886105 580.289436616827,164.54943923365317 580.6322419853452,164.2021452462999 581.0409756335672,163.84629147898147 581.5395584868927,163.47664621483852 582.1398269449512,163.09395065291778 582.8032238774598,162.71614637789264 583.4774498337515,162.3623212660891 584.1090129513676,162.04789826482386 584.6433894322356,161.78458629020042 585.0463244728976,161.57506624551138 585.368122398665,161.40009951708225 585.6814631940007,161.23952383394794 586.06023703388,161.07831471603686 586.5793189876422,160.90663406341423 587.2854522278013,160.72444656798052 588.109746421124,160.5512404513098 588.9532999424838,160.40522310559493 589.7162128926666,160.29769156271163 590.2978889952502,160.2329946398737 590.4999999999999,160.2153122181843 590.4999999999999,160.2153122181843 590.4999999999999,160.2153122181843 590.4999999999999,160.2153122181843 590.4900221457727,160.2153122181843 590.4282310890909,160.2140594871845 590.4144825355477,160.21232588252064 590.4322997540496,160.21176419863707 590.4651884176195,160.2128779552097 590.49668670484,160.21502234241882 590.4999999999999,160.2153122181843 590.4999999999999,160.2153122181843 590.4999999999999,160.2153122181843 590.4999999999999,160.2153122181843 590.4967245772661,160.21473467278304 590.4926863239325,160.21389058356942 590.4923106507986,160.21367779655657 590.4942738196941,160.213990225295 590.4972669576496,160.21463079419334 590.4999999999999,160.2153122181843 590.4999999999999,160.2153122181843 590.4999999999999,160.2153122181843 590.4999999999999,160.2153122181843 590.4999999999999,160.2153122181843 590.4999999999999,160.2153122181843 590.4996147443815,160.2151643324081 590.4995245171053,160.21512011062487 590.4996256742139,160.21515332631498 590.4998169982188,160.21523074054187 590.4999999999999,160.2153122181843 590.4999999999999,160.2153122181843 590.4999999999999,160.2153122181843 590.4999999999999,160.2153122181843 590.4999999999999,160.2153122181843 590.4999999999999,160.2153122181843 590.499974603858,160.21529695864285 590.4999687755766,160.2152927069992 590.4999755138801,160.21529631671206 590.4999880764857,160.21530417567237 590.4999999999999,160.2153122181843 590.4999999999999,160.2153122181843 590.4999999999999,160.2153122181843 590.4999999999999,160.2153122181843 590.4999999999999,160.2153122181843 590.4999999999999,160.2153122181843 590.4999983945864,160.21531082261959 590.4999980354987,160.2153104493393 590.4999984669337,160.21531078857674 590.4999992572048,160.21531150087537 590.4999999999999,160.2153122181843 590.4999999999999,160.2153122181843 590.4999999999999,160.2153122181843 590.4999999999999,160.2153122181843 590.4999999999999,160.2153122181843 590.4999999999999,160.2153122181843 590.4999999038865,160.2153120994941 590.4999998831507,160.21531206862403 590.4999999094264,160.2153120979891 590.4999999564228,160.2153121582055 590.4999999999999,160.2153122181843 590.4999999999999,160.2153122181843 590.4999999999999,160.2153122181843 590.4999999999999,160.2153122181843 590.4999999999999,160.2153122181843 590.4999999999999,160.2153122181843 590.4999999946839,160.2153122085939 590.4999999936026,160.2153122061526 590.4999999950943,160.2153122085565 590.4999999976666,160.21531221340024 590.4999999999999,160.2153122181843 590.4999999999999,160.2153122181843 590.4999999999999,160.2153122181843 590.4999999999999,160.2153122181843 590.4999999999999,160.2153122181843 590.4999999999999,160.2153122181843 590.4999999997436,160.21531221743987 590.4999999996976,160.21531221725377 590.4999999997731,160.21531221744226 590.4999999998946,160.21531221781686 590.4999999999999,160.2153122181843 590.4999999999999,160.2153122181843 590.4999999999999,160.2153122181843 590.4999999999999,160.2153122181843 590.4999999999999,160.2153122181843 590.4999999999999,160.2153122181843 590.499999999991,160.2153122181279 590.49999999999,160.2153122181137 590.499999999993,160.21531221812768 590.4999999999969,160.21531221815587 590.4999999999999,160.2153122181843 590.4999999999999,160.2153122181843 590.4999999999999,160.2153122181843 590.4999999999999,160.2153122181843 590.4999999999999,160.2153122181843 590.4999999999999,160.2153122181843" stroke="black" stroke-width="9.0" /><polyline fill="none" points="590.5000000000001,1132.3909090909092 607.4668036450313,1132.2428420386673 624.4284390373117,1131.7986859845998 641.3575906795892,1130.63595158396 658.208138110147,1128.4867981947523 674.9263166729196,1125.212527519148 691.4422695033201,1120.6168531091278 707.6751748936581,1114.5305293106471 723.5329385239423,1106.7938550712445 738.9119046625755,1097.251200077328 753.6970040155844,1085.7515141078475 767.7683554908895,1072.1819423632921 781.025372859008,1056.5667179902837 793.3756761574434,1038.966408973235 804.7298947511895,1019.4444894796464 815.0017432703125,998.0672244907747 824.1172879711658,974.9356166197692 832.0470632145301,950.280156420585 838.7862879228854,924.3619330648036 844.346668290907,897.4395675304033 848.7562459924674,869.7685165156066 852.0462047002171,841.5664699948869 854.2068983465284,812.9127894708641 855.2185353979212,783.8531001127762 855.0630185629159,754.4335809255967 853.7239564701417,724.7009085123101 851.1860583499166,694.7009390991831 847.4331210277946,664.4749547595604 842.4495797374533,634.0635547632987 836.2210959635935,603.5079038141394 828.7345734806582,572.8496976061855 819.970803891896,542.118862933946 809.8806686161513,511.2977712087237 798.4043422280578,480.3599246400871 785.4783842717271,449.28265444312547 771.0359006881104,418.0472989313015 755.1044877607338,386.77395320047685 738.1184048515265,356.111551952268 720.6572766790094,326.8090293725219 703.35138823385,299.575170659199 686.8799222169966,275.0764307742405 671.848052401793,253.79554169016615 658.402528406658,235.62871005516354 646.5601432194021,220.3324556861736 636.3241152387949,207.6675726505888 627.684353995763,197.3996662139474 620.6021348221008,189.28460591361625 614.9614878919265,183.0260187067795 610.6128230232176,178.32497941053612 607.3886318286657,174.8963758867044 605.1041420425738,172.46964241976866 603.5698575981174,170.79907421727216 602.6291714139215,169.69165950531738 602.1257305748012,168.9759285782295 601.8924431404638,168.4924066576142 601.7520193702732,168.09406100133128 601.5533969566686,167.67092260549748 601.2832527609901,167.21803844053932 600.9645175263856,166.7542685029406 600.6213008048679,166.29680328516133 600.2788168087803,165.8611147350897 599.9588203248054,165.45842194028933 599.6657226035055,165.08881337446098 599.3994162724327,164.74979129463372 599.1596773249136,164.43891905600947 598.946168523104,164.15382528257544 598.7557302028035,163.89100012264055 598.5740804246506,163.64255602249943 598.3836900917262,163.40052977159849 598.1665060813556,163.15820817719703 597.9040062589991,162.9101501107806 597.5831993544908,162.65425334637098 597.2147922766644,162.39708048498505 596.8158530761893,162.14626228316047 596.40388964753,161.9082253326427 595.9967968631073,161.68817449861183 595.6086082284947,161.48903130510303 595.2367162957719,161.30886934126409 594.8741909853381,161.14507521411588 594.5139578880999,160.99554659333887 594.1488209254524,160.85869779511518 593.7729743815732,160.73370043380635 593.3865245940036,160.62098679401458 592.9910876698659,160.52117932389945 592.588305307812,160.43480195056304 592.1798406460346,160.36227923124238 591.770766759556,160.30417288640388 591.3797694742528,160.26141898261085 591.0289879317706,160.23378488381366 590.740565919709,160.21951131193225 590.5365854654997,160.2153122181843 590.4999999999999,160.2153122181843 590.4999999999999,160.2153122181843 590.4999999999999,160.2153122181843 590.4999999999999,160.2153122181843 590.5265063612786,160.21299321206095 590.5495171247139,160.21010775865864 590.5506684964921,160.20909090909095 590.538015239917,160.20996952463497 590.5195692722411,160.21221274995276 590.5032754227337,160.21473467278304 590.4999999999999,160.2153122181843 590.4999999999999,160.2153122181843 590.4999999999999,160.2153122181843 590.504349932431,160.21422765821876 590.5096378670889,160.21272975948102 590.5122911919415,160.21178777560954 590.5125254938162,160.21148279042427 590.5111008868396,160.21170532140434 590.5087649995899,160.21229418679502 590.5062507439923,160.213037133429 590.5041476140095,160.21372009833476 590.502526956112,160.21429126164344 590.5013324649025,160.21474662038963 590.5005084516728,160.2150858409144 590.4999999999999,160.2153122181843 590.4999999999999,160.2153122181843 590.4999999999999,160.2153122181843 590.4999999999999,160.2153122181843 590.4999999999999,160.2153122181843 590.4999999999999,160.2153122181843 590.500063814075,160.21527387481956 590.500078459071,160.2152631915153 590.5000615274201,160.21527226181047 590.5000299607726,160.215292009388 590.4999999999999,160.2153122181843 590.4999999999999,160.2153122181843 590.4999999999999,160.2153122181843 590.4999999999999,160.2153122181843 590.4999999999999,160.2153122181843 590.4999999999999,160.2153122181843 590.5000040339977,160.21530871148354 590.5000049362942,160.21530777352496 590.5000038522073,160.2153086259426 590.500001866456,160.2153104157685 590.4999999999999,160.2153122181843 590.4999999999999,160.2153122181843 590.4999999999999,160.2153122181843 590.4999999999999,160.2153122181843 590.4999999999999,160.2153122181843 590.4999999999999,160.2153122181843 590.5000002415085,160.2153119199461 590.5000002936124,160.21531184237756 590.5000002275883,160.2153119161643 590.5000001094982,160.21531206747272 590.4999999999999,160.2153122181843 590.4999999999999,160.2153122181843 590.4999999999999,160.2153122181843 590.4999999999999,160.2153122181843 590.4999999999999,160.2153122181843 590.4999999999999,160.2153122181843 590.5000000133577,160.2153121940861 590.5000000160748,160.2153121879519 590.5000000123264,160.2153121939922 590.5000000058632,160.21531220616293 590.4999999999999,160.2153122181843 590.4999999999999,160.2153122181843 590.4999999999999,160.2153122181843 590.4999999999999,160.2153122181843 590.4999999999999,160.2153122181843 590.4999999999999,160.2153122181843 590.500000000644,160.2153122163138 590.5000000007597,160.21531221584598 590.5000000005699,160.21531221631983 590.5000000002647,160.21531221726104 590.4999999999999,160.2153122181843 590.4999999999999,160.2153122181843 590.4999999999999,160.2153122181843 590.4999999999999,160.2153122181843 590.4999999999999,160.2153122181843 590.4999999999999,160.2153122181843 590.5000000000224,160.21531221804275 590.5000000000249,160.21531221800683 590.5000000000174,160.21531221804196 590.5000000000074,160.215312218113 590.4999999999999,160.2153122181843 590.4999999999999,160.2153122181843 590.4999999999999,160.2153122181843 590.4999999999999,160.2153122181843 590.4999999999999,160.2153122181843 590.4999999999999,160.2153122181843" stroke="black" stroke-dasharray="8.0,8.0" stroke-width="7.0" /><polyline fill="none" points="590.5000000000001,1132.3909090909092 573.5331963549684,1132.2428420386673 556.5715609626884,1131.7986859845998 539.6424093204108,1130.63595158396 522.7918618898531,1128.4867981947523 506.0736833270805,1125.212527519148 489.55773049667994,1120.6168531091278 473.3248251063419,1114.5305293106471 457.4670614760574,1106.7938550712445 442.0880953374246,1097.2512000773281 427.3029959844152,1085.7515141078475 413.23164450911054,1072.1819423632921 399.97462714099146,1056.5667179902835 387.6243238425566,1038.9664089732353 376.27010524881047,1019.4444894796464 365.99825672968745,998.0672244907747 356.8827120288342,974.9356166197692 348.9529367854696,950.2801564205848 342.21371207711456,924.3619330648037 336.6533317090927,897.4395675304032 332.2437540075325,869.7685165156068 328.9537952997825,841.5664699948869 326.7931016534716,812.9127894708641 325.7814646020787,783.8531001127762 325.93698143708417,754.4335809255969 327.2760435298583,724.7009085123101 329.8139416500832,694.700939099183 333.5668789722053,664.4749547595604 338.55042026254654,634.0635547632987 344.77890403640646,603.5079038141394 352.26542651934164,572.8496976061855 361.029196108104,542.1188629339462 371.11933138384853,511.2977712087237 382.59565777194206,480.35992464008723 395.5216157282727,449.28265444312547 409.9640993118895,418.0472989313015 425.89551223926617,386.77395320047685 442.88159514847325,356.111551952268 460.34272332099044,326.8090293725219 477.6486117661497,299.575170659199 494.12007778300324,275.0764307742405 509.15194759820685,253.79554169016615 522.5974715933418,235.62871005516354 534.4398567805977,220.3324556861736 544.675884761205,207.6675726505888 553.3156460042368,197.3996662139474 560.397865177899,189.28460591361613 566.0385121080733,183.0260187067795 570.3871769767823,178.32497941053612 573.6113681713341,174.8963758867044 575.8958579574261,172.46964241976866 577.4301424018824,170.79907421727216 578.3708285860782,169.69165950531738 578.8742694251987,168.9759285782295 579.1075568595361,168.4924066576142 579.2479806297267,168.09406100133128 579.4466030433312,167.67092260549748 579.7167472390097,167.21803844053932 580.0354824736143,166.7542685029406 580.378699195132,166.29680328516133 580.7211831912194,165.8611147350897 581.0411796751944,165.45842194028933 581.3342773964943,165.08881337446098 581.600583727567,164.74979129463372 581.8403226750863,164.43891905600947 582.0538314768958,164.15382528257544 582.2442697971964,163.89100012264055 582.4259195753492,163.64255602249943 582.6163099082737,163.40052977159849 582.8334939186442,163.15820817719703 583.0959937410007,162.9101501107806 583.416800645509,162.65425334637098 583.7852077233355,162.39708048498505 584.1841469238105,162.14626228316047 584.5961103524699,161.9082253326427 585.0032031368925,161.68817449861183 585.391391771505,161.48903130510303 585.7632837042279,161.30886934126409 586.1258090146617,161.14507521411588 586.4860421119,160.99554659333887 586.8511790745475,160.85869779511518 587.2270256184265,160.73370043380635 587.6134754059962,160.62098679401458 588.0089123301339,160.52117932389945 588.4116946921879,160.43480195056304 588.8201593539653,160.36227923124238 589.2292332404438,160.30417288640388 589.6202305257469,160.26141898261085 589.9710120682291,160.23378488381366 590.2594340802908,160.21951131193225 590.4634145345001,160.2153122181843 590.4999999999999,160.2153122181843 590.4999999999999,160.2153122181843 590.4999999999999,160.2153122181843 590.4999999999999,160.2153122181843 590.4734936387213,160.21299321206095 590.450482875286,160.21010775865864 590.4493315035077,160.20909090909095 590.4619847600829,160.20996952463497 590.4804307277587,160.21221274995276 590.4967245772661,160.21473467278304 590.4999999999999,160.2153122181843 590.4999999999999,160.2153122181843 590.4999999999999,160.2153122181843 590.4956500675689,160.21422765821876 590.4903621329108,160.21272975948102 590.4877088080583,160.21178777560954 590.4874745061836,160.21148279042427 590.4888991131603,160.21170532140434 590.49123500041,160.21229418679502 590.4937492560075,160.213037133429 590.4958523859902,160.21372009833476 590.4974730438879,160.21429126164344 590.4986675350974,160.21474662038963 590.499491548327,160.2150858409144 590.4999999999999,160.2153122181843 590.4999999999999,160.2153122181843 590.4999999999999,160.2153122181843 590.4999999999999,160.2153122181843 590.4999999999999,160.2153122181843 590.4999999999999,160.2153122181843 590.4999361859248,160.21527387481956 590.4999215409289,160.2152631915153 590.4999384725797,160.21527226181047 590.4999700392273,160.215292009388 590.4999999999999,160.2153122181843 590.4999999999999,160.2153122181843 590.4999999999999,160.2153122181843 590.4999999999999,160.2153122181843 590.4999999999999,160.2153122181843 590.4999999999999,160.2153122181843 590.4999959660022,160.21530871148354 590.4999950637057,160.21530777352496 590.4999961477924,160.2153086259426 590.4999981335437,160.2153104157685 590.4999999999999,160.2153122181843 590.4999999999999,160.2153122181843 590.4999999999999,160.2153122181843 590.4999999999999,160.2153122181843 590.4999999999999,160.2153122181843 590.4999999999999,160.2153122181843 590.4999997584914,160.2153119199461 590.4999997063875,160.21531184237756 590.4999997724115,160.2153119161643 590.4999998905016,160.21531206747272 590.4999999999999,160.2153122181843 590.4999999999999,160.2153122181843 590.4999999999999,160.2153122181843 590.4999999999999,160.2153122181843 590.4999999999999,160.2153122181843 590.4999999999999,160.2153122181843 590.499999986642,160.2153121940861 590.499999983925,160.2153121879519 590.4999999876735,160.2153121939922 590.4999999941367,160.21531220616293 590.4999999999999,160.2153122181843 590.4999999999999,160.2153122181843 590.4999999999999,160.2153122181843 590.4999999999999,160.2153122181843 590.4999999999999,160.2153122181843 590.4999999999999,160.2153122181843 590.4999999993559,160.2153122163138 590.4999999992402,160.21531221584598 590.4999999994299,160.21531221631983 590.4999999997351,160.21531221726104 590.4999999999999,160.2153122181843 590.4999999999999,160.2153122181843 590.4999999999999,160.2153122181843 590.4999999999999,160.2153122181843 590.4999999999999,160.2153122181843 590.4999999999999,160.2153122181843 590.4999999999775,160.21531221804275 590.499999999975,160.21531221800683 590.4999999999825,160.21531221804196 590.4999999999924,160.215312218113 590.4999999999999,160.2153122181843 590.4999999999999,160.2153122181843 590.4999999999999,160.2153122181843 590.4999999999999,160.2153122181843 590.4999999999999,160.2153122181843 590.4999999999999,160.2153122181843" stroke="black" stroke-dasharray="8.0,8.0" stroke-width="7.0" /></g><rect fill="white" height="111.60000000000001" stroke="none" width="1181" x="0" y="0" /><line stroke="black" stroke-width="3.0" x1="0" x2="1181" y1="111.60000000000001" y2="111.60000000000001" /><text font-family="Arial" font-size="62.0" text-anchor="start" x="40.0" y="77.5">LED</text><text font-family="Arial" font-size="62.0" text-anchor="middle" x="590.5" y="77.5" /><text font-family="Arial" font-size="62.0" text-anchor="end" x="1141.0" y="77.5">cd / klm</text><rect fill="none" height="1178.0" stroke="black" stroke-width="3.0" width="1178.0" x="1.5" y="1.5" /></svg>