<?xml version="1.0" encoding="utf-8" ?>
<svg baseProfile="full" height="1181" version="1.1" width="1181" xmlns="http://www.w3.org/2000/svg" xmlns:ev="http://www.w3.org/2001/xml-events" xmlns:xlink="http://www.w3.org/1999/xlink"><defs><clipPath id="plot_clip"><rect height="1069.4" width="1181.0" x="0" y="111.60000000000001" /></clipPath></defs><g clip-path="url(#plot_clip)" id="grid"><circle cx="590.4999999999999" cy="160.22594252648946" fill="none" r="179.2433054243265" stroke="black" stroke-width="3.0" /><text font-family="Arial" font-size="42.0" text-anchor="start" x="598.4999999999999" y="379.469247950816">100</text><circle cx="590.4999999999999" cy="160.22594252648946" fill="none" r="358.486610848653" stroke="black" stroke-width="3.0" /><text font-family="Arial" font-size="42.0" text-anchor="start" x="598.4999999999999" y="558.7125533751425">200</text><circle cx="590.4999999999999" cy="160.22594252648946" fill="none" r="537.7299162729795" stroke="black" stroke-width="3.0" /><text font-family="Arial" font-size="42.0" text-anchor="start" x="598.5" y="737.9558587994691">300</text><circle cx="590.4999999999999" cy="160.22594252648946" fill="none" r="716.973221697306" stroke="black" stroke-width="3.0" /><text font-family="Arial" font-size="42.0" text-anchor="start" x="598.5" y="917.1991642237955">400</text><circle cx="590.4999999999999" cy="160.22594252648946" fill="none" r="896.2165271216326" stroke="black" stroke-width="3.0" /><text font-family="Arial" font-size="42.0" text-anchor="start" x="598.5" y="1096.442469648122">500</text><circle cx="590.4999999999999" cy="160.22594252648946" fill="none" r="1075.459832545959" stroke="black" stroke-width="3.0" /><text font-family="Arial" font-size="42.0" text-anchor="start" x="598.5" y="1275.6857750724485">600</text><line stroke="black" stroke-width="3.0" x1="-4273.311903515457" x2="5454.311903515457" y1="160.22594252648935" y2="160.22594252648958" /><line stroke="black" stroke-width="3.0" x1="-3621.6846676735317" x2="4802.684667673531" y1="-2271.6800092312387" y2="2592.1318942842177" /><line stroke="black" stroke-width="3.0" x1="-1841.405951757728" x2="3022.405951757728" y1="-4051.9587251470425" y2="4372.410610200021" /><line stroke="black" stroke-width="3.0" x1="590.4999999999999" x2="590.4999999999999" y1="-4703.585960988967" y2="5024.037846041945" /><line stroke="black" stroke-width="3.0" x1="3022.4059517577275" x2="-1841.4059517577277" y1="-4051.9587251470425" y2="4372.410610200021" /><line stroke="black" stroke-width="3.0" x1="4802.684667673531" x2="-3621.6846676735313" y1="-2271.6800092312387" y2="2592.1318942842177" /><line stroke="black" stroke-width="3.0" x1="5454.311903515456" x2="-4273.311903515456" y1="160.22594252648935" y2="160.22594252648958" /></g><g clip-path="url(#plot_clip)" id="curves"><polyline fill="none" points="590.5,1132.0652202066456 607.4692026123203,1132.3909090909092 624.447247963472,1132.3479334664137 641.4104493912587,1131.6551861947692 658.3564734687881,1130.6187229610543 675.281827807158,1129.2866686860132 692.1171481613163,1127.0485249319854 708.8446196437025,1124.0655227916898 725.422342293543,1120.2482917551251 741.8020278655396,1115.5093501359456 757.9290703824336,1109.7633854618796 773.7479343410629,1102.9548390590678 789.22197439668,1095.1393266881175 804.324224592209,1086.4004126851587 819.0330416930742,1076.821908832024 833.3320923764998,1066.4876489838448 847.2023842237217,1055.4535450366952 860.5945316038814,1043.6653484612928 873.4458785565994,1031.043814871724 885.6875943007567,1017.5129648497056 897.2448024126148,1003.0003606902186 908.0426502288209,987.4528282114799 918.0263986183946,970.8822258936628 927.147499810907,953.3177514046663 935.3582589385488,934.7902738870523 942.6118827621582,915.3323119035882 948.8559890014681,894.964603429148 954.0111735065326,873.656790518916 957.9874678549943,851.3693490044872 960.6905807677136,828.0674287831079 962.022080235637,803.7210616282941 961.9273801860838,778.3849105533939 960.5503766435335,752.4303377537823 958.1091907084125,726.2944556746071 954.850464285784,700.397719736088 951.0486049454727,675.1427140130168 946.912172656124,650.7852132062288 942.286869511161,627.0628860253307 936.9028765686403,603.6014057581325 930.4640149583004,580.0465379227343 922.6486462576905,556.0652849793956 913.2199923485243,531.472826102838 902.3726881638461,506.59565303467923 890.4352517755267,481.86712156393946 877.764137487898,457.69666496011007 864.7426691631231,434.46861168961266 851.7207753455318,412.48391302407026 838.8284655701194,391.79598298804274 826.1387813942601,372.396054287296 813.724819785582,354.2723179175132 801.6596277264516,337.409908271287 790.0364753481609,321.8073943034394 779.0321662570448,307.5234141572935 768.8496110514923,294.62201426859974 759.6975457461631,283.1551551452096 751.7900307897031,273.162437923516 745.2058425722015,264.5763509467231 739.4546373523413,256.9582150650814 733.8750908812057,249.81664264536937 727.7736948031197,242.70829976209257 720.4268872349709,235.23926584657022 711.3550135048631,227.21697042568178 701.1606013594671,219.06522798264928 690.7492454447527,211.30548437320454 681.0604884065101,204.3952439587855 673.0650109688399,198.7266394369111 667.4785220037985,194.49898867523507 663.8918377302165,191.37892935830848 661.589827277856,188.94809713683492 659.8323583024224,186.84014134297865 657.8566012118624,184.7417404489462 655.051217545227,182.45270919877942 651.4823326756011,180.0403035350198 647.3930524776657,177.61989423074965 643.0330303435065,175.28954657741747 638.6577054965445,173.12976082362445 634.4717076602346,171.18932057901998 630.4587284363141,169.451141880259 626.5453913558252,167.88762697713412 622.6567950984279,166.47659029860017 618.7167534676572,165.20131747083656 614.6818044151966,164.0559640848278 610.6434605823424,163.0569212905266 606.7281089849697,162.21850376249358 603.0630768763087,161.54637511415797 599.7762559261453,161.03750975999253 596.9727022771552,160.67855796139042 594.6649932573241,160.44422057383474 592.8417630638564,160.30771869464672 591.4906986715312,160.24323523612554 590.5985838179834,160.22594252648946 590.4999999999999,160.22594252648946 590.4999999999999,160.22594252648946 590.4999999999999,160.22594252648946 590.4999999999999,160.22594252648946 590.4999999999999,160.22594252648946 590.6106597472576,160.21431171837935 590.6372454099676,160.2090909090906 590.6085811706313,160.2106824381359 590.553348616701,160.2174929356911 590.4999999999999,160.22594252648946 590.4999999999999,160.22594252648946 590.4999999999999,160.22594252648946 590.4999999999999,160.22594252648946 590.4999999999999,160.22594252648946 590.4999999999999,160.22594252648946 590.5076793041171,160.22374052146813 590.5094939805919,160.2230399253333 590.5074870886367,160.22350982392402 590.5036667238732,160.22467997220963 590.4999999999999,160.22594252648946 590.4999999999999,160.22594252648946 590.4999999999999,160.22594252648946 590.4999999999999,160.22594252648946 590.4999999999999,160.22594252648946 590.4999999999999,160.22594252648946 590.5005155197662,160.22569109069934 590.500635093712,160.22561893008037 590.500499052782,160.22567717541847 590.5002435186931,160.22580754187368 590.4999999999999,160.22594252648946 590.4999999999999,160.22594252648946 590.4999999999999,160.22594252648946 590.4999999999999,160.22594252648946 590.4999999999999,160.22594252648946 590.4999999999999,160.22594252648946 590.5000333156034,160.2259183212867 590.500040870547,160.22591172832324 590.5000319778014,160.22591754269286 590.5000155353322,160.2259299462255 590.4999999999999,160.22594252648946 590.4999999999999,160.22594252648946 590.4999999999999,160.22594252648946 590.4999999999999,160.22594252648946 590.4999999999999,160.22594252648946 590.4999999999999,160.22594252648946 590.5000020538381,160.22594039967794 590.500002505821,160.2259398393254 590.5000019495404,160.22594036130545 590.5000009415985,160.22594144330424 590.4999999999999,160.22594252648946 590.4999999999999,160.22594252648946 590.4999999999999,160.22594252648946 590.4999999999999,160.22594252648946 590.4999999999999,160.22594252648946 590.4999999999999,160.22594252648946 590.5000001187028,160.22594235050508 590.5000001436747,160.22594230524987 590.50000011085,160.2259423490923 590.5000000530722,160.22594243816263 590.4999999999999,160.22594252648946 590.4999999999999,160.22594252648946 590.4999999999999,160.22594252648946 590.4999999999999,160.22594252648946 590.4999999999999,160.22594252648946 590.4999999999999,160.22594252648946 590.5000000061989,160.22594251256635 590.5000000074003,160.22594250905524 590.500000005626,160.2259425125643 590.5000000026513,160.22594251958253 590.4999999999999,160.22594252648946 590.4999999999999,160.22594252648946 590.4999999999999,160.22594252648946 590.4999999999999,160.22594252648946 590.4999999999999,160.22594252648946 590.4999999999999,160.22594252648946 590.5000000002648,160.22594252542706 590.5000000003062,160.22594252516308 590.5000000002244,160.22594252543297 590.5000000001016,160.22594252596662 590.4999999999999,160.22594252648946 590.4999999999999,160.22594252648946 590.4999999999999,160.22594252648946 590.4999999999999,160.22594252648946 590.4999999999999,160.22594252648946 590.4999999999999,160.22594252648946 590.5000000000061,160.2259425264009 590.5000000000061,160.22594252637134 590.5000000000035,160.225942526386 590.5000000000009,160.22594252643046 590.4999999999999,160.22594252648946" stroke="black" stroke-width="9.0" /><polyline fill="none" points="590.5,1132.0652202066456 573.5307973876794,1132.3909090909092 556.5527520365281,1132.3479334664137 539.5895506087413,1131.6551861947692 522.6435265312119,1130.6187229610543 505.71817219284196,1129.2866686860132 488.8828518386838,1127.0485249319854 472.1553803562976,1124.0655227916898 455.57765770645665,1120.248291755125 439.19797213446043,1115.5093501359459 423.07092961756604,1109.7633854618796 407.25206565893717,1102.9548390590678 391.7780256033196,1095.1393266881173 376.6757754077911,1086.400412685159 361.9669583069258,1076.821908832024 347.66790762350035,1066.487648983845 333.79761577627835,1055.4535450366952 320.4054683961184,1043.6653484612928 307.5541214434006,1031.0438148717242 295.3124056992429,1017.5129648497054 283.7551975873851,1003.0003606902187 272.9573497711787,987.4528282114799 262.9736013816055,970.8822258936628 253.852500189093,953.3177514046663 245.64174106145109,934.7902738870524 238.38811723784184,915.3323119035882 232.14401099853154,894.964603429148 226.98882649346746,873.656790518916 223.0125321450053,851.369349004487 220.30941923228642,828.067428783108 218.9779197643626,803.721061628294 219.0726198139162,778.384910553394 220.44962335646633,752.4303377537823 222.8908092915875,726.2944556746071 226.149535714216,700.3977197360881 229.95139505452696,675.1427140130166 234.08782734387603,650.785213206229 238.71313048883877,627.0628860253307 244.09712343135968,603.6014057581325 250.53598504169943,580.0465379227343 258.3513537423094,556.0652849793956 267.7800076514756,531.472826102838 278.6273118361538,506.59565303467934 290.56474822447313,481.8671215639396 303.23586251210173,457.69666496011007 316.2573308368768,434.46861168961266 329.2792246544679,412.48391302407026 342.1715344298804,391.79598298804297 354.8612186057397,372.396054287296 367.27518021441784,354.2723179175132 379.34037227354816,337.409908271287 390.96352465183895,321.80739430343954 401.967833742955,307.52341415729336 412.15038894850744,294.62201426859974 421.30245425383674,283.1551551452096 429.2099692102966,273.162437923516 435.7941574277984,264.5763509467231 441.5453626476586,256.9582150650814 447.1249091187941,249.8166426453696 453.2263051968801,242.70829976209257 460.57311276502895,235.23926584657022 469.64498649513666,227.21697042568178 479.8393986405327,219.06522798264928 490.2507545552473,211.30548437320454 499.93951159348967,204.3952439587855 507.9349890311599,198.7266394369111 513.5214779962013,194.49898867523507 517.1081622697833,191.37892935830848 519.4101727221438,188.94809713683492 521.1676416975773,186.84014134297865 523.1433987881373,184.7417404489462 525.9487824547729,182.45270919877942 529.5176673243988,180.0403035350198 533.606947522334,177.61989423074965 537.9669696564932,175.28954657741747 542.3422945034553,173.12976082362445 546.5282923397652,171.18932057901998 550.5412715636858,169.451141880259 554.4546086441745,167.88762697713412 558.343204901572,166.47659029860017 562.2832465323427,165.20131747083656 566.3181955848033,164.0559640848278 570.3565394176574,163.0569212905266 574.2718910150301,162.21850376249358 577.936923123691,161.54637511415797 581.2237440738545,161.03750975999253 584.0272977228445,160.67855796139042 586.3350067426758,160.44422057383474 588.1582369361433,160.30771869464672 589.5093013284686,160.24323523612554 590.4014161820165,160.22594252648946 590.4999999999999,160.22594252648946 590.4999999999999,160.22594252648946 590.4999999999999,160.22594252648946 590.4999999999999,160.22594252648946 590.4999999999999,160.22594252648946 590.3893402527422,160.21431171837935 590.3627545900322,160.2090909090906 590.3914188293686,160.2106824381359 590.4466513832989,160.2174929356911 590.4999999999999,160.22594252648946 590.4999999999999,160.22594252648946 590.4999999999999,160.22594252648946 590.4999999999999,160.22594252648946 590.4999999999999,160.22594252648946 590.4999999999999,160.22594252648946 590.4923206958827,160.22374052146813 590.4905060194079,160.2230399253333 590.4925129113632,160.22350982392402 590.4963332761266,160.22467997220963 590.4999999999999,160.22594252648946 590.4999999999999,160.22594252648946 590.4999999999999,160.22594252648946 590.4999999999999,160.22594252648946 590.4999999999999,160.22594252648946 590.4999999999999,160.22594252648946 590.4994844802337,160.22569109069934 590.4993649062878,160.22561893008037 590.4995009472179,160.22567717541847 590.4997564813067,160.22580754187368 590.4999999999999,160.22594252648946 590.4999999999999,160.22594252648946 590.4999999999999,160.22594252648946 590.4999999999999,160.22594252648946 590.4999999999999,160.22594252648946 590.4999999999999,160.22594252648946 590.4999666843964,160.2259183212867 590.4999591294529,160.22591172832324 590.4999680221983,160.22591754269286 590.4999844646676,160.2259299462255 590.4999999999999,160.22594252648946 590.4999999999999,160.22594252648946 590.4999999999999,160.22594252648946 590.4999999999999,160.22594252648946 590.4999999999999,160.22594252648946 590.4999999999999,160.22594252648946 590.4999979461617,160.22594039967794 590.4999974941788,160.2259398393254 590.4999980504595,160.22594036130545 590.4999990584014,160.22594144330424 590.4999999999999,160.22594252648946 590.4999999999999,160.22594252648946 590.4999999999999,160.22594252648946 590.4999999999999,160.22594252648946 590.4999999999999,160.22594252648946 590.4999999999999,160.22594252648946 590.499999881297,160.22594235050508 590.4999998563252,160.22594230524987 590.4999998891498,160.2259423490923 590.4999999469277,160.22594243816263 590.4999999999999,160.22594252648946 590.4999999999999,160.22594252648946 590.4999999999999,160.22594252648946 590.4999999999999,160.22594252648946 590.4999999999999,160.22594252648946 590.4999999999999,160.22594252648946 590.4999999938009,160.22594251256635 590.4999999925994,160.22594250905524 590.4999999943738,160.2259425125643 590.4999999973486,160.22594251958253 590.4999999999999,160.22594252648946 590.4999999999999,160.22594252648946 590.4999999999999,160.22594252648946 590.4999999999999,160.22594252648946 590.4999999999999,160.22594252648946 590.4999999999999,160.22594252648946 590.499999999735,160.22594252542706 590.4999999996936,160.22594252516308 590.4999999997754,160.22594252543297 590.4999999998983,160.22594252596662 590.4999999999999,160.22594252648946 590.4999999999999,160.22594252648946 590.4999999999999,160.22594252648946 590.4999999999999,160.22594252648946 590.4999999999999,160.22594252648946 590.4999999999999,160.22594252648946 590.4999999999937,160.2259425264009 590.4999999999937,160.22594252637134 590.4999999999964,160.225942526386 590.4999999999989,160.22594252643046 590.4999999999999,160.22594252648946" stroke="black" stroke-width="9.0" /><polyline fill="none" points="590.5,1132.0652202066456 607.4467615332117,1131.1052605298212 624.3570965558097,1129.76633492278 641.2170996838153,1127.9658539985085 658.0070565112034,1125.6218276661987 674.7014674082238,1122.6531189717437 691.2696828639662,1118.9854312306902 707.6785528892098,1114.568671184957 723.8920632460145,1109.359790553542 739.8709776416665,1103.3171788600532 755.5728871901465,1096.4008065597736 770.9569618290552,1088.596530213956 786.0014685495786,1079.9880379120928 800.6955969150971,1070.6830994449892 815.0355764019371,1060.78895125986 829.0246340666345,1050.4119957199432 842.667255429773,1039.637671376 855.9493004037894,1028.4714818270083 868.8502055980383,1016.8997878649193 881.3480082282489,1004.9098917733178 893.4193815815039,992.4901033368297 905.0292056150232,979.602536601015 916.0954110191963,966.1028638727772 926.5138732052822,951.8250206667564 936.1681748421092,936.6093747902188 944.9298784836709,920.303269770084 952.681298839259,902.8076508848018 959.3896629510156,884.2126704064067 965.0510196594574,864.6539578224857 969.6692882424849,844.265445848208 973.2561544031067,823.1790488623486 975.8312266701062,801.5247969825035 977.4227873057507,779.4318391246887 978.0669498599995,757.0267097483855 977.80725208646,734.4325572917999 976.6944936817387,711.7688388928451 974.7432983190785,689.0914713950807 971.7938732247708,666.220002505011 967.6275192122808,642.9271550119828 962.0084172538229,619.0006306220731 954.6842815116756,594.24386838437 945.4651788683497,568.5666699601937 934.4711093357126,542.2445612944125 921.9194577313647,515.6297988909528 908.0493087661624,489.05787787709244 893.1206858589628,462.8466283854523 877.4314369701563,437.31241034783295 861.3718079443884,412.81798984401496 845.3745441948898,389.7160129081369 829.8966069629449,368.33023803758124 815.4179232027273,348.9544889310579 802.3480923360232,331.77714516302274 790.7387539996092,316.66960289599865 780.5410131254955,303.43211765284514 771.6951316575005,291.8719115431941 764.1308838510365,281.8035962649999 757.6739671903204,272.986207190697 751.7557763472929,264.9466681333811 745.6811704180395,257.19389991414084 738.7223265590135,249.2869014164437 730.1209542694081,240.8361380584447 719.4140780452855,231.68418284667996 707.4315507327766,222.3995509099094 695.3682807330963,213.65900040472843 684.4635327746512,206.05501959746346 675.9972263116584,200.093953906627 670.8970442242455,196.0210128291427 668.5435149246978,193.35344918050214 667.8952331166942,191.49564646025965 667.8749878753357,189.92741758313218 667.3731002577995,188.2054628360902 665.4966671309485,186.04936592436843 662.3220852641489,183.56235265333066 658.1790767698739,180.91751278783613 653.4069010243472,178.26420612760705 648.353306818876,175.72768936807734 643.3076750531513,173.3923746822835 638.3003454566916,171.26152181725297 633.2956032292922,169.32242880350248 628.2569865444096,167.56515724310054 623.1474104087782,165.98256183181945 617.9650900092023,164.57598543606014 612.8518099578143,163.3672845550699 607.9866688427184,162.37303548199714 603.5499697715097,161.59754961956423 599.7226875569856,161.03282313496743 596.6422843798954,160.655452891226 594.2708516379294,160.42356448683915 592.5252302383996,160.2966651248123 591.3207906120326,160.24026947991513 590.5716973221697,160.22594252648946 590.4999999999999,160.22594252648946 590.4999999999999,160.22594252648946 590.4999999999999,160.22594252648946 590.4999999999999,160.22594252648946 590.4999999999999,160.22594252648946 590.5923077717849,160.21624058872703 590.6144844290337,160.2118856061404 590.5905739093677,160.21321319366461 590.5445012035316,160.2188942282744 590.4999999999999,160.22594252648946 590.4999999999999,160.22594252648946 590.4999999999999,160.22594252648946 590.4999999999999,160.22594252648946 590.4999999999999,160.22594252648946 590.4999999999999,160.22594252648946 590.5064057570117,160.22410570522413 590.5079194848671,160.22352129698425 590.5062454188295,160.22391326690047 590.5030586289854,160.2248893560709 590.4999999999999,160.22594252648946 590.4999999999999,160.22594252648946 590.4999999999999,160.22594252648946 590.4999999999999,160.22594252648946 590.4999999999999,160.22594252648946 590.4999999999999,160.22594252648946 590.5004300252089,160.22573278918117 590.5005297688353,160.22567259578557 590.5004162891335,160.2257211816309 590.5002031331943,160.22582992792127 590.4999999999999,160.22594252648946 590.4999999999999,160.22594252648946 590.4999999999999,160.22594252648946 590.4999999999999,160.22594252648946 590.4999999999999,160.22594252648946 590.4999999999999,160.22594252648946 590.5000277904946,160.22592233551325 590.5000340925152,160.2259168359367 590.5000266745557,160.2259216860425 590.5000129589298,160.22593203255497 590.4999999999999,160.22594252648946 590.4999999999999,160.22594252648946 590.4999999999999,160.22594252648946 590.4999999999999,160.22594252648946 590.4999999999999,160.22594252648946 590.4999999999999,160.22594252648946 590.5000017132265,160.22594075239147 590.500002090252,160.2259402849685 590.5000016262258,160.2259407203827 590.5000007854424,160.22594162294138 590.4999999999999,160.22594252648946 590.4999999999999,160.22594252648946 590.4999999999999,160.22594252648946 590.4999999999999,160.22594252648946 590.4999999999999,160.22594252648946 590.4999999999999,160.22594252648946 590.500000099017,160.22594237969065 590.5000001198474,160.2259423419406 590.5000000924664,160.22594237851206 590.5000000442706,160.22594245281084 590.4999999999999,160.22594252648946 590.4999999999999,160.22594252648946 590.4999999999999,160.22594252648946 590.4999999999999,160.22594252648946 590.4999999999999,160.22594252648946 590.4999999999999,160.22594252648946 590.5000000051708,160.22594251487556 590.500000006173,160.2259425119464 590.500000004693,160.22594251487362 590.5000000022116,160.22594252072793 590.4999999999999,160.22594252648946 590.4999999999999,160.22594252648946 590.4999999999999,160.22594252648946 590.4999999999999,160.22594252648946 590.4999999999999,160.22594252648946 590.4999999999999,160.22594252648946 590.5000000002209,160.22594252560327 590.5000000002553,160.22594252538306 590.5000000001872,160.22594252560816 590.5000000000847,160.22594252605347 590.4999999999999,160.22594252648946 590.4999999999999,160.22594252648946 590.4999999999999,160.22594252648946 590.4999999999999,160.22594252648946 590.4999999999999,160.22594252648946 590.4999999999999,160.22594252648946 590.5000000000051,160.22594252641557 590.5000000000051,160.2259425263909 590.500000000003,160.22594252640306 590.5000000000007,160.22594252644024 590.4999999999999,160.22594252648946" stroke="black" stroke-dasharray="8.0,8.0" stroke-width="7.0" /><polyline fill="none" points="590.5,1132.0652202066456 573.553238466788,1131.1052605298212 556.6429034441904,1129.76633492278 539.7829003161847,1127.9658539985085 522.9929434887968,1125.6218276661987 506.2985325917762,1122.6531189717437 489.73031713603393,1118.9854312306902 473.3214471107903,1114.568671184957 457.1079367539851,1109.359790553542 441.12902235833354,1103.3171788600534 425.4271128098531,1096.4008065597736 410.0430381709449,1088.596530213956 394.998531450421,1079.9880379120925 380.3044030849029,1070.6830994449892 365.9644235980629,1060.78895125986 351.9753659333654,1050.4119957199434 338.33274457022696,1039.637671376 325.0506995962102,1028.4714818270081 312.1497944019617,1016.8997878649194 299.6519917717507,1004.9098917733177 287.5806184184961,992.4901033368297 275.97079438497644,979.602536601015 264.90458898080374,966.1028638727773 254.48612679471782,951.8250206667564 244.83182515789073,936.6093747902189 236.07012151632898,920.3032697700841 228.31870116074066,902.8076508848018 221.6103370489845,884.2126704064068 215.94898034054225,864.6539578224857 211.33071175751505,844.2654458482081 207.74384559689298,823.1790488623486 205.16877332989395,801.5247969825037 203.57721269424925,779.4318391246887 202.93305014000052,757.0267097483858 203.1927479135399,734.4325572917999 204.30550631826097,711.7688388928451 206.2567016809215,689.0914713950807 209.20612677522882,666.2200025050109 213.37248078771918,642.9271550119829 218.99158274617668,619.0006306220731 226.3157184883244,594.24386838437 235.53482113165035,568.5666699601937 246.5288906642872,542.2445612944126 259.0805422686353,515.6297988909529 272.9506912338373,489.0578778770923 287.87931414103707,462.8466283854525 303.56856302984363,437.31241034783284 319.62819205561146,412.8179898440151 335.62545580510994,389.7160129081369 351.10339303705496,368.33023803758135 365.5820767972725,348.954488931058 378.6519076639767,331.77714516302285 390.26124600039054,316.66960289599865 400.4589868745042,303.432117652845 409.3048683424994,291.8719115431942 416.86911614896337,281.803596265 423.3260328096795,272.986207190697 429.244223652707,264.9466681333811 435.3188295819603,257.19389991414084 442.2776734409863,249.2869014164437 450.87904573059177,240.83613805844493 461.58592195471437,231.68418284667996 473.5684492672233,222.3995509099094 485.63171926690353,213.65900040472843 496.53646722534864,206.05501959746346 505.00277368834134,200.093953906627 510.10295577575437,196.0210128291427 512.4564850753021,193.35344918050214 513.1047668833056,191.49564646025965 513.1250121246642,189.9274175831324 513.6268997422004,188.2054628360902 515.5033328690513,186.04936592436843 518.6779147358511,183.56235265333066 522.8209232301259,180.91751278783613 527.5930989756527,178.26420612760705 532.6466931811237,175.72768936807734 537.6923249468484,173.3923746822835 542.6996545433082,171.26152181725297 547.7043967707076,169.32242880350248 552.7430134555901,167.56515724310054 557.8525895912215,165.98256183181945 563.0349099907976,164.57598543606014 568.1481900421854,163.3672845550701 573.0133311572815,162.37303548199714 577.45003022849,161.59754961956423 581.2773124430142,161.03282313496743 584.3577156201045,160.655452891226 586.7291483620705,160.42356448683915 588.4747697616002,160.2966651248123 589.6792093879671,160.24026947991513 590.4283026778302,160.22594252648946 590.4999999999999,160.22594252648946 590.4999999999999,160.22594252648946 590.4999999999999,160.22594252648946 590.4999999999999,160.22594252648946 590.4999999999999,160.22594252648946 590.4076922282148,160.21624058872703 590.385515570966,160.2118856061404 590.4094260906321,160.21321319366461 590.4554987964682,160.2188942282744 590.4999999999999,160.22594252648946 590.4999999999999,160.22594252648946 590.4999999999999,160.22594252648946 590.4999999999999,160.22594252648946 590.4999999999999,160.22594252648946 590.4999999999999,160.22594252648946 590.493594242988,160.22410570522413 590.4920805151327,160.22352129698425 590.4937545811703,160.22391326690047 590.4969413710144,160.2248893560709 590.4999999999999,160.22594252648946 590.4999999999999,160.22594252648946 590.4999999999999,160.22594252648946 590.4999999999999,160.22594252648946 590.4999999999999,160.22594252648946 590.4999999999999,160.22594252648946 590.4995699747909,160.22573278918117 590.4994702311644,160.22567259578557 590.4995837108663,160.2257211816309 590.4997968668055,160.22582992792127 590.4999999999999,160.22594252648946 590.4999999999999,160.22594252648946 590.4999999999999,160.22594252648946 590.4999999999999,160.22594252648946 590.4999999999999,160.22594252648946 590.4999999999999,160.22594252648946 590.4999722095052,160.22592233551325 590.4999659074847,160.2259168359367 590.4999733254441,160.2259216860425 590.49998704107,160.22593203255497 590.4999999999999,160.22594252648946 590.4999999999999,160.22594252648946 590.4999999999999,160.22594252648946 590.4999999999999,160.22594252648946 590.4999999999999,160.22594252648946 590.4999999999999,160.22594252648946 590.4999982867732,160.22594075239147 590.4999979097479,160.2259402849685 590.499998373774,160.2259407203827 590.4999992145574,160.22594162294138 590.4999999999999,160.22594252648946 590.4999999999999,160.22594252648946 590.4999999999999,160.22594252648946 590.4999999999999,160.22594252648946 590.4999999999999,160.22594252648946 590.4999999999999,160.22594252648946 590.4999999009827,160.22594237969065 590.4999998801524,160.2259423419406 590.4999999075334,160.22594237851206 590.4999999557292,160.22594245281084 590.4999999999999,160.22594252648946 590.4999999999999,160.22594252648946 590.4999999999999,160.22594252648946 590.4999999999999,160.22594252648946 590.4999999999999,160.22594252648946 590.4999999999999,160.22594252648946 590.499999994829,160.22594251487556 590.4999999938268,160.2259425119464 590.4999999953069,160.22594251487362 590.4999999977882,160.22594252072793 590.4999999999999,160.22594252648946 590.4999999999999,160.22594252648946 590.4999999999999,160.22594252648946 590.4999999999999,160.22594252648946 590.4999999999999,160.22594252648946 590.4999999999999,160.22594252648946 590.4999999997789,160.22594252560327 590.4999999997444,160.22594252538306 590.4999999998125,160.22594252560816 590.4999999999152,160.22594252605347 590.4999999999999,160.22594252648946 590.4999999999999,160.22594252648946 590.4999999999999,160.22594252648946 590.4999999999999,160.22594252648946 590.4999999999999,160.22594252648946 590.4999999999999,160.22594252648946 590.4999999999947,160.22594252641557 590.4999999999947,160.2259425263909 590.4999999999968,160.22594252640306 590.4999999999991,160.22594252644024 590.4999999999999,160.22594252648946" stroke="black" stroke-dasharray="8.0,8.0" stroke-width="7.0" /></g><rect fill="white" height="111.60000000000001" stroke="none" width="1181" x="0" y="0" /><line stroke="black" stroke-width="3.0" x1="0" x2="1181" y1="111.60000000000001" y2="111.60000000000001" /><text font-family="Arial" font-size="62.0" text-anchor="start" x="40.0" y="77.5">LED</text><text font-family="Arial" font-size="62.0" text-anchor="middle" x="590.5" y="77.5" /><text font-family="Arial" font-size="62.0" text-anchor="end" x="1141.0" y="77.5">cd / klm</text><rect fill="none" height="1178.0" stroke="black" stroke-width="3.0" width="1178.0" x="1.5" y="1.5" /></svg>