<?xml version="1.0" encoding="utf-8" ?>
<svg baseProfile="full" height="1181" version="1.1" width="1181" xmlns="http://www.w3.org/2000/svg" xmlns:ev="http://www.w3.org/2001/xml-events" xmlns:xlink="http://www.w3.org/1999/xlink"><defs><clipPath id="plot_clip"><rect height="1069.4" width="1181.0" x="0" y="111.60000000000001" /></clipPath></defs><g clip-path="url(#plot_clip)" id="grid"><circle cx="590.5" cy="597.1883573555151" fill="none" r="120.3716731482472" stroke="black" stroke-width="3.0" /><text font-family="Arial" font-size="42.0" text-anchor="start" x="598.5" y="757.5600305037623">40</text><circle cx="590.5" cy="597.1883573555151" fill="none" r="240.7433462964944" stroke="black" stroke-width="3.0" /><text font-family="Arial" font-size="42.0" text-anchor="start" x="598.5" y="877.9317036520096">80</text><circle cx="590.5" cy="597.1883573555151" fill="none" r="361.11501944474156" stroke="black" stroke-width="3.0" /><text font-family="Arial" font-size="42.0" text-anchor="start" x="598.5000000000001" y="998.3033768002567">120</text><circle cx="590.5" cy="597.1883573555151" fill="none" r="481.4866925929888" stroke="black" stroke-width="3.0" /><text font-family="Arial" font-size="42.0" text-anchor="start" x="598.5000000000001" y="1118.6750499485038">160</text><circle cx="590.5" cy="597.1883573555151" fill="none" r="601.858365741236" stroke="black" stroke-width="3.0" /><text font-family="Arial" font-size="42.0" text-anchor="start" x="598.5000000000001" y="1239.046723096751">200</text><line stroke="black" stroke-width="3.0" x1="-2085.5127586769704" x2="3266.5127586769704" y1="597.188357355515" y2="597.1883573555152" /><line stroke="black" stroke-width="3.0" x1="-1726.9950298655326" x2="2907.9950298655326" y1="-740.8180219829707" y2="1935.1947366940008" /><line stroke="black" stroke-width="3.0" x1="-747.506379338485" x2="1928.506379338485" y1="-1720.306672510018" y2="2914.683387221048" /><line stroke="black" stroke-width="3.0" x1="590.5" x2="590.5" y1="-2078.8244013214553" y2="3273.2011160324855" /><line stroke="black" stroke-width="3.0" x1="1928.5063793384852" x2="-747.5063793384852" y1="-1720.306672510018" y2="2914.683387221048" /><line stroke="black" stroke-width="3.0" x1="2907.9950298655326" x2="-1726.9950298655326" y1="-740.8180219829707" y2="1935.1947366940008" /><line stroke="black" stroke-width="3.0" x1="3266.5127586769704" x2="-2085.5127586769704" y1="597.188357355515" y2="597.1883573555152" /></g><g clip-path="url(#plot_clip)" id="curves"><polyline fill="none" points="590.5000000000001,1132.3909090909092 599.8142633933522,1130.802149779453 609.0731850941562,1129.0547899822402 618.2742855757682,1127.1532968307454 627.415329707732,1125.1021672622715 636.4943267812549,1122.905918095555 645.5090177191212,1120.5642002040204 654.4546568436217,1118.0572383722063 663.3243629912085,1115.3606248350782 672.1094726702864,1112.450289039367 680.7995539806309,1109.3025761654549 689.3828597801482,1105.8965707481052 697.8479695777553,1102.2208472224 706.1830459859196,1098.26668010723 714.3754922656627,1094.025819867002 722.4119689880557,1089.4905277453886 730.2788558217587,1084.6551580918724 737.9638179095709,1079.5207722967039 745.454867958104,1074.090403475337 752.7399890782726,1068.3674984306413 759.8071474155328,1062.355921831966 766.6446061090762,1056.0607445350665 773.2419508733938,1049.4905575298985 779.5893881999973,1042.6550398986446 785.6774791126979,1035.564152880556 791.4971461600661,1028.2281282984477 797.0411108278388,1020.6603903298882 802.3085999612032,1012.8861407957105 807.3017609434386,1004.9331668955291 812.0243117790294,996.8287947585201 816.481516506644,988.5998255164874 820.6773724109667,980.267835560441 824.6055790321215,971.8355989217674 828.2567619422465,963.3016649803849 831.6211160988879,954.6651127679551 834.6884275251869,945.9255733951021 837.4487898219046,937.0842069486202 839.8948420073765,928.1464909802445 842.0199366993063,919.1191956635249 843.8174914664118,910.0094072679792 845.2810005699674,900.8245301095211 846.4064255079461,891.575024464713 847.1997221612382,882.2822813409629 847.6703604872031,872.9698050877597 847.8290098453137,863.6603476680496 847.6875044574188,854.3758618129339 847.2547989875522,845.1335846156409 846.5243703896716,835.9349451627803 845.4853001536092,826.7781528503235 844.1261803097027,817.6622322617264 842.4351496021975,808.5870484673119 840.4040276612162,799.5566487866914 838.0411024254516,790.5886626501475 835.3596455439424,781.7033349618877 832.3738963225957,772.9200294482404 829.0990232241529,764.2571920265406 825.5502795535197,755.7317728005575 821.7404739465986,747.3576769910275 817.68221812778,739.1475627623444 813.3886841606087,731.1133900944969 808.8735758110855,723.2664001339464 804.1488835896309,715.6158673620265 799.2180390655268,708.1657072845447 794.0822543587636,700.9186970167533 788.7427037414063,693.8777844156065 783.2005339722256,687.0460920773213 777.461822707298,680.4291238823731 771.5527344259282,674.0406835252076 765.5051742140561,667.8950373948443 759.3518389077082,662.0045055617779 753.1261350972891,656.3794298446826 746.8503711166476,651.0241074790638 740.499948764514,645.9262951430325 734.0375887900049,641.0722021912163 727.4250387972806,636.4509804254811 720.62320576985,632.0547652580952 713.647514674893,627.8924812445075 706.7355728344537,624.0234538002491 700.1844224877664,620.5025010682768 694.294950012617,617.3640518259017 689.370999228661,614.6219821291339 685.5209974235746,612.2382048515273 682.0604868689941,610.056344605841 678.0980770471078,607.9440487816831 672.7344385021229,605.8315451267831 665.0650395467054,603.7119530112141 654.6541852833965,601.6744550052164 642.9556755478471,599.9374428217695 631.9048519430696,598.6342466460591 623.4428718864739,597.7633773232155 619.5108281034202,597.1883573555151 621.408296488143,596.648851033494 627.8830738152495,595.8829116519198 637.0413004040173,594.7492311563957 646.9887727815296,593.2382775643014 655.8366850096012,591.4721381048109 662.1558568353751,589.6570233205263 666.32081077222,587.8787323975458 669.1538233267929,586.1342833726333 671.4725625531963,584.3635633538836 674.0876025260288,582.4496077774412 677.6244475304383,580.2530803110957 681.999543659921,577.7395289607863 686.9544886866902,574.9200840264779 692.2333774593873,571.8233775310746 697.5835572116902,568.4954046779908 702.8039568859311,564.9857159160183 707.8866063323308,561.2996702074122 712.870810141206,557.4276708966598 717.7949893503038,553.3571774887916 722.6965511926837,549.07274764873 727.6001370556808,544.560545541413 732.4832625718286,539.8233956468571 737.3122722899848,534.8702450579095 742.0541978399258,529.7120810982552 746.6768430561087,524.3618994119803 751.1531534054279,518.8325789838174 755.4738580520337,513.1299781767226 759.6341400411219,507.2581398796973 763.6292834959303,501.2212284421885 767.4546765616443,495.0235272082866 771.1046695245427,488.67012382573046 774.56924077016,482.1691301690232 777.8376136621962,475.5298885517833 780.8994477850622,468.76230822239575 783.7448615770129,461.87684855899874 786.3652677955507,454.88391054288877 788.7557516825083,447.79193271898725 790.9124989506561,440.6089525530749 792.8319680489991,433.34316022451344 794.51089570079,426.00289001683575 795.9451152830412,418.5976432908417 797.1261466361917,411.14133926660963 798.0450257841633,403.64948975895277 798.6935526432442,396.13818058072866 799.064315576921,388.62404177859423 799.1534526894704,381.121382018502 798.968488404518,373.6332733643667 798.5194211593692,366.15938488839504 797.8158606527718,358.69874094473323 796.8670008887193,351.24974265349135 795.679695191385,343.8125351849452 794.2530640713165,336.39632796373337 792.584759638112,329.01282354935313 790.6729548151329,321.67392138067294 788.5163524036096,314.3916983679559 786.1144981050138,307.17793758981213 783.4686386611538,300.04271156620814 780.5807018085629,292.9956469469164 777.4529773253515,286.04635302859117 774.0881178697457,279.20440953917193 770.4887143818007,272.4801212008382 766.6561285655163,265.8868643293978 762.5919594461182,259.43886983359744 758.2985015440879,253.15044502842227 753.7787506015444,247.035946718349 749.0373726246561,241.10758840238202 744.0832968998471,235.3687840029985 738.9262875986533,229.8204042187025 733.5758904737445,224.46291966103524 728.0414192435807,219.29641374403582 722.3306854447611,214.3242466753802 716.446725967426,209.5641922844452 710.3924665639928,205.03776915815718 704.1721146154327,200.76658298371547 697.7911664038519,196.7722731330132 691.2585027622613,193.06807558501907 684.5914902726894,189.63333726391897 677.8076436261529,186.4381883643016 670.9222111875965,183.45194781715304 663.9481456105719,180.64322446964445 656.8952927652934,177.98497709135086 649.7687069259421,175.46959460980383 642.5722067455825,173.0942663503755 635.3093292790037,170.85606764580712 627.983326669494,168.75197304170933 620.5971201752872,166.77948644058188 613.1532545801946,164.9385102889164 605.6541767863137,163.22951260855837 598.1022994386003,161.65291421255995 590.5,160.20909090909083" stroke="black" stroke-width="9.0" /><polyline fill="none" points="590.5000000000001,1132.3909090909092 581.1857366066477,1130.802149779453 571.926814905844,1129.0547899822402 562.725714424232,1127.1532968307454 553.5846702922681,1125.1021672622715 544.5056732187453,1122.905918095555 535.4909822808789,1120.5642002040204 526.5453431563785,1118.0572383722063 517.6756370087913,1115.3606248350782 508.8905273297138,1112.450289039367 500.2004460193691,1109.3025761654549 491.617140219852,1105.8965707481052 483.15203042224465,1102.2208472224 474.8169540140805,1098.26668010723 466.62450773433744,1094.025819867002 458.58803101194445,1089.4905277453886 450.7211441782414,1084.6551580918724 443.03618209042895,1079.5207722967039 435.54513204189607,1074.090403475337 428.26001092172737,1068.3674984306413 421.1928525844674,1062.355921831966 414.3553938909237,1056.0607445350665 407.7580491266063,1049.4905575298985 401.4106118000029,1042.6550398986446 395.3225208873023,1035.564152880556 389.5028538399342,1028.228128298448 383.95888917216126,1020.6603903298882 378.6914000387968,1012.8861407957105 373.6982390565613,1004.933166895529 368.9756882209707,996.8287947585201 364.5184834933561,988.5998255164873 360.3226275890335,980.2678355604411 356.39442096787883,971.8355989217674 352.7432380577535,963.301664980385 349.3788839011123,954.6651127679551 346.31157247481315,945.925573395102 343.5512101780956,937.0842069486204 341.1051579926235,928.1464909802444 338.98006330069387,919.1191956635249 337.1825085335882,910.0094072679791 335.7189994300327,900.8245301095211 334.5935744920541,891.575024464713 333.800277838762,882.2822813409629 333.329639512797,872.9698050877597 333.1709901546863,863.6603476680494 333.3124955425813,854.375861812934 333.7452010124479,845.1335846156409 334.47562961032844,835.9349451627803 335.5146998463908,826.7781528503234 336.8738196902975,817.6622322617264 338.5648503978026,808.5870484673119 340.5959723387839,799.5566487866917 342.9588975745485,790.5886626501475 345.6403544560576,781.7033349618877 348.62610367740444,772.9200294482404 351.9009767758472,764.2571920265408 355.44972044648034,755.7317728005575 359.2595260534015,747.3576769910272 363.31778187222017,739.1475627623445 367.6113158393913,731.1133900944969 372.1264241889147,723.2664001339466 376.851116410369,715.6158673620265 381.78196093447326,708.1657072845446 386.9177456412366,700.9186970167533 392.2572962585939,693.8777844156065 397.7994660277745,687.0460920773213 403.5381772927021,680.429123882373 409.4472655740718,674.0406835252076 415.494825785944,667.8950373948443 421.6481610922919,662.004505561778 427.873864902711,656.3794298446825 434.1496288833525,651.0241074790638 440.5000512354861,645.9262951430326 446.96241120999525,641.0722021912163 453.57496120271935,636.4509804254811 460.37679423015015,632.0547652580952 467.352485325107,627.8924812445075 474.26442716554646,624.0234538002491 480.8155775122337,620.502501068277 486.70504998738306,617.3640518259017 491.629000771339,614.6219821291339 495.4790025764254,612.2382048515273 498.939513131006,610.056344605841 502.9019229528923,607.9440487816831 508.2655614978772,605.8315451267831 515.9349604532947,603.7119530112141 526.3458147166036,601.6744550052164 538.0443244521529,599.9374428217695 549.0951480569304,598.6342466460591 557.5571281135261,597.7633773232155 561.4891718965798,597.1883573555151 559.5917035118571,596.648851033494 553.1169261847505,595.8829116519198 543.9586995959827,594.7492311563957 534.0112272184704,593.2382775643014 525.1633149903989,591.4721381048109 518.844143164625,589.6570233205263 514.67918922778,587.8787323975458 511.84617667320714,586.1342833726333 509.5274374468038,584.3635633538837 506.91239747397117,582.4496077774413 503.37555246956174,580.2530803110957 499.00045634007915,577.7395289607863 494.0455113133099,574.9200840264779 488.76662254061273,571.8233775310747 483.41644278830995,568.4954046779909 478.196043114069,564.9857159160183 473.11339366766924,561.2996702074122 468.12918985879395,557.4276708966598 463.2050106496962,553.3571774887918 458.30344880731633,549.07274764873 453.39986294431935,544.560545541413 448.51673742817144,539.8233956468571 443.6877277100153,534.8702450579095 438.9458021600743,529.7120810982553 434.3231569438913,524.3618994119803 429.8468465945722,518.8325789838174 425.52614194796627,513.1299781767226 421.36585995887816,507.2581398796973 417.3707165040698,501.2212284421885 413.5453234383557,495.0235272082866 409.8953304754574,488.67012382573046 406.4307592298399,482.16913016902333 403.1623863378039,475.5298885517834 400.1005522149378,468.76230822239575 397.2551384229871,461.87684855899874 394.63473220444934,454.88391054288877 392.24424831749184,447.79193271898737 390.087501049344,440.6089525530749 388.16803195100107,433.34316022451344 386.48910429921006,426.00289001683575 385.05488471695884,418.5976432908417 383.87385336380834,411.14133926660975 382.9549742158367,403.64948975895277 382.3064473567558,396.13818058072866 381.9356844230791,388.62404177859423 381.84654731052944,381.121382018502 382.0315115954821,373.6332733643667 382.48057884063087,366.15938488839504 383.1841393472281,358.69874094473323 384.1329991112805,351.24974265349135 385.32030480861494,343.8125351849452 386.74693592868357,336.39632796373326 388.4152403618879,329.01282354935313 390.3270451848669,321.67392138067294 392.4836475963902,314.3916983679559 394.8855018949862,307.17793758981213 397.5313613388462,300.04271156620814 400.4192981914371,292.9956469469164 403.5470226746485,286.04635302859117 406.91188213025424,279.20440953917205 410.5112856181994,272.4801212008382 414.3438714344838,265.8868643293978 418.40804055388185,259.43886983359744 422.70149845591203,253.1504450284225 427.22124939845577,247.035946718349 431.962627375344,241.10758840238202 436.9167031001529,235.3687840029985 442.0737124013467,229.8204042187025 447.4241095262553,224.46291966103524 452.9585807564194,219.29641374403582 458.669314555239,214.3242466753802 464.55327403257394,209.5641922844452 470.60753343600715,205.03776915815718 476.82788538456737,200.76658298371547 483.2088335961483,196.7722731330132 489.7414972377387,193.06807558501907 496.4085097273105,189.63333726391897 503.19235637384696,186.43818836430182 510.0777888124036,183.45194781715304 517.0518543894282,180.64322446964445 524.1047072347064,177.98497709135086 531.2312930740578,175.46959460980383 538.4277932544176,173.0942663503755 545.6906707209964,170.85606764580712 553.0166733305059,168.75197304170933 560.4028798247127,166.77948644058188 567.8467454198052,164.9385102889164 575.3458232136865,163.22951260855837 582.8977005613997,161.65291421255995 590.4999999999999,160.20909090909083" stroke="black" stroke-width="9.0" /><polyline fill="none" points="590.5000000000001,1132.3909090909092 599.8142633933522,1130.802149779453 609.0731850941562,1129.0547899822402 618.2742855757682,1127.1532968307454 627.415329707732,1125.1021672622715 636.4943267812549,1122.905918095555 645.5090177191212,1120.5642002040204 654.4546568436217,1118.0572383722063 663.3243629912085,1115.3606248350782 672.1094726702864,1112.450289039367 680.7995539806309,1109.3025761654549 689.3828597801482,1105.8965707481052 697.8479695777553,1102.2208472224 706.1830459859196,1098.26668010723 714.3754922656627,1094.025819867002 722.4119689880557,1089.4905277453886 730.2788558217587,1084.6551580918724 737.9638179095709,1079.5207722967039 745.454867958104,1074.090403475337 752.7399890782726,1068.3674984306413 759.8071474155328,1062.355921831966 766.6446061090762,1056.0607445350665 773.2419508733938,1049.4905575298985 779.5893881999973,1042.6550398986446 785.6774791126979,1035.564152880556 791.4971461600661,1028.2281282984477 797.0411108278388,1020.6603903298882 802.3085999612032,1012.8861407957105 807.3017609434386,1004.9331668955291 812.0243117790294,996.8287947585201 816.481516506644,988.5998255164874 820.6773724109667,980.267835560441 824.6055790321215,971.8355989217674 828.2567619422465,963.3016649803849 831.6211160988879,954.6651127679551 834.6884275251869,945.9255733951021 837.4487898219046,937.0842069486202 839.8948420073765,928.1464909802445 842.0199366993063,919.1191956635249 843.8174914664118,910.0094072679792 845.2810005699674,900.8245301095211 846.4064255079461,891.575024464713 847.1997221612382,882.2822813409629 847.6703604872031,872.9698050877597 847.8290098453137,863.6603476680496 847.6875044574188,854.3758618129339 847.2547989875522,845.1335846156409 846.5243703896716,835.9349451627803 845.4853001536092,826.7781528503235 844.1261803097027,817.6622322617264 842.4351496021975,808.5870484673119 840.4040276612162,799.5566487866914 838.0411024254516,790.5886626501475 835.3596455439424,781.7033349618877 832.3738963225957,772.9200294482404 829.0990232241529,764.2571920265406 825.5502795535197,755.7317728005575 821.7404739465986,747.3576769910275 817.68221812778,739.1475627623444 813.3886841606087,731.1133900944969 808.8735758110855,723.2664001339464 804.1488835896309,715.6158673620265 799.2180390655268,708.1657072845447 794.0822543587636,700.9186970167533 788.7427037414063,693.8777844156065 783.2005339722256,687.0460920773213 777.461822707298,680.4291238823731 771.5527344259282,674.0406835252076 765.5051742140561,667.8950373948443 759.3518389077082,662.0045055617779 753.1261350972891,656.3794298446826 746.8503711166476,651.0241074790638 740.499948764514,645.9262951430325 734.0375887900049,641.0722021912163 727.4250387972806,636.4509804254811 720.62320576985,632.0547652580952 713.647514674893,627.8924812445075 706.7355728344537,624.0234538002491 700.1844224877664,620.5025010682768 694.294950012617,617.3640518259017 689.370999228661,614.6219821291339 685.5209974235746,612.2382048515273 682.0604868689941,610.056344605841 678.0980770471078,607.9440487816831 672.7344385021229,605.8315451267831 665.0650395467054,603.7119530112141 654.6541852833965,601.6744550052164 642.9556755478471,599.9374428217695 631.9048519430696,598.6342466460591 623.4428718864739,597.7633773232155 619.5108281034202,597.1883573555151 621.408296488143,596.648851033494 627.8830738152495,595.8829116519198 637.0413004040173,594.7492311563957 646.9887727815296,593.2382775643014 655.8366850096012,591.4721381048109 662.1558568353751,589.6570233205263 666.32081077222,587.8787323975458 669.1538233267929,586.1342833726333 671.4725625531963,584.3635633538836 674.0876025260288,582.4496077774412 677.6244475304383,580.2530803110957 681.999543659921,577.7395289607863 686.9544886866902,574.9200840264779 692.2333774593873,571.8233775310746 697.5835572116902,568.4954046779908 702.8039568859311,564.9857159160183 707.8866063323308,561.2996702074122 712.870810141206,557.4276708966598 717.7949893503038,553.3571774887916 722.6965511926837,549.07274764873 727.6001370556808,544.560545541413 732.4832625718286,539.8233956468571 737.3122722899848,534.8702450579095 742.0541978399258,529.7120810982552 746.6768430561087,524.3618994119803 751.1531534054279,518.8325789838174 755.4738580520337,513.1299781767226 759.6341400411219,507.2581398796973 763.6292834959303,501.2212284421885 767.4546765616443,495.0235272082866 771.1046695245427,488.67012382573046 774.56924077016,482.1691301690232 777.8376136621962,475.5298885517833 780.8994477850622,468.76230822239575 783.7448615770129,461.87684855899874 786.3652677955507,454.88391054288877 788.7557516825083,447.79193271898725 790.9124989506561,440.6089525530749 792.8319680489991,433.34316022451344 794.51089570079,426.00289001683575 795.9451152830412,418.5976432908417 797.1261466361917,411.14133926660963 798.0450257841633,403.64948975895277 798.6935526432442,396.13818058072866 799.064315576921,388.62404177859423 799.1534526894704,381.121382018502 798.968488404518,373.6332733643667 798.5194211593692,366.15938488839504 797.8158606527718,358.69874094473323 796.8670008887193,351.24974265349135 795.679695191385,343.8125351849452 794.2530640713165,336.39632796373337 792.584759638112,329.01282354935313 790.6729548151329,321.67392138067294 788.5163524036096,314.3916983679559 786.1144981050138,307.17793758981213 783.4686386611538,300.04271156620814 780.5807018085629,292.9956469469164 777.4529773253515,286.04635302859117 774.0881178697457,279.20440953917193 770.4887143818007,272.4801212008382 766.6561285655163,265.8868643293978 762.5919594461182,259.43886983359744 758.2985015440879,253.15044502842227 753.7787506015444,247.035946718349 749.0373726246561,241.10758840238202 744.0832968998471,235.3687840029985 738.9262875986533,229.8204042187025 733.5758904737445,224.46291966103524 728.0414192435807,219.29641374403582 722.3306854447611,214.3242466753802 716.446725967426,209.5641922844452 710.3924665639928,205.03776915815718 704.1721146154327,200.76658298371547 697.7911664038519,196.7722731330132 691.2585027622613,193.06807558501907 684.5914902726894,189.63333726391897 677.8076436261529,186.4381883643016 670.9222111875965,183.45194781715304 663.9481456105719,180.64322446964445 656.8952927652934,177.98497709135086 649.7687069259421,175.46959460980383 642.5722067455825,173.0942663503755 635.3093292790037,170.85606764580712 627.983326669494,168.75197304170933 620.5971201752872,166.77948644058188 613.1532545801946,164.9385102889164 605.6541767863137,163.22951260855837 598.1022994386003,161.65291421255995 590.5,160.20909090909083" stroke="black" stroke-dasharray="8.0,8.0" stroke-width="7.0" /><polyline fill="none" points="590.5000000000001,1132.3909090909092 581.1857366066477,1130.802149779453 571.926814905844,1129.0547899822402 562.725714424232,1127.1532968307454 553.5846702922681,1125.1021672622715 544.5056732187453,1122.905918095555 535.4909822808789,1120.5642002040204 526.5453431563785,1118.0572383722063 517.6756370087913,1115.3606248350782 508.8905273297138,1112.450289039367 500.2004460193691,1109.3025761654549 491.617140219852,1105.8965707481052 483.15203042224465,1102.2208472224 474.8169540140805,1098.26668010723 466.62450773433744,1094.025819867002 458.58803101194445,1089.4905277453886 450.7211441782414,1084.6551580918724 443.03618209042895,1079.5207722967039 435.54513204189607,1074.090403475337 428.26001092172737,1068.3674984306413 421.1928525844674,1062.355921831966 414.3553938909237,1056.0607445350665 407.7580491266063,1049.4905575298985 401.4106118000029,1042.6550398986446 395.3225208873023,1035.564152880556 389.5028538399342,1028.228128298448 383.95888917216126,1020.6603903298882 378.6914000387968,1012.8861407957105 373.6982390565613,1004.933166895529 368.9756882209707,996.8287947585201 364.5184834933561,988.5998255164873 360.3226275890335,980.2678355604411 356.39442096787883,971.8355989217674 352.7432380577535,963.301664980385 349.3788839011123,954.6651127679551 346.31157247481315,945.925573395102 343.5512101780956,937.0842069486204 341.1051579926235,928.1464909802444 338.98006330069387,919.1191956635249 337.1825085335882,910.0094072679791 335.7189994300327,900.8245301095211 334.5935744920541,891.575024464713 333.800277838762,882.2822813409629 333.329639512797,872.9698050877597 333.1709901546863,863.6603476680494 333.3124955425813,854.375861812934 333.7452010124479,845.1335846156409 334.47562961032844,835.9349451627803 335.5146998463908,826.7781528503234 336.8738196902975,817.6622322617264 338.5648503978026,808.5870484673119 340.5959723387839,799.5566487866917 342.9588975745485,790.5886626501475 345.6403544560576,781.7033349618877 348.62610367740444,772.9200294482404 351.9009767758472,764.2571920265408 355.44972044648034,755.7317728005575 359.2595260534015,747.3576769910272 363.31778187222017,739.1475627623445 367.6113158393913,731.1133900944969 372.1264241889147,723.2664001339466 376.851116410369,715.6158673620265 381.78196093447326,708.1657072845446 386.9177456412366,700.9186970167533 392.2572962585939,693.8777844156065 397.7994660277745,687.0460920773213 403.5381772927021,680.429123882373 409.4472655740718,674.0406835252076 415.494825785944,667.8950373948443 421.6481610922919,662.004505561778 427.873864902711,656.3794298446825 434.1496288833525,651.0241074790638 440.5000512354861,645.9262951430326 446.96241120999525,641.0722021912163 453.57496120271935,636.4509804254811 460.37679423015015,632.0547652580952 467.352485325107,627.8924812445075 474.26442716554646,624.0234538002491 480.8155775122337,620.502501068277 486.70504998738306,617.3640518259017 491.629000771339,614.6219821291339 495.4790025764254,612.2382048515273 498.939513131006,610.056344605841 502.9019229528923,607.9440487816831 508.2655614978772,605.8315451267831 515.9349604532947,603.7119530112141 526.3458147166036,601.6744550052164 538.0443244521529,599.9374428217695 549.0951480569304,598.6342466460591 557.5571281135261,597.7633773232155 561.4891718965798,597.1883573555151 559.5917035118571,596.648851033494 553.1169261847505,595.8829116519198 543.9586995959827,594.7492311563957 534.0112272184704,593.2382775643014 525.1633149903989,591.4721381048109 518.844143164625,589.6570233205263 514.67918922778,587.8787323975458 511.84617667320714,586.1342833726333 509.5274374468038,584.3635633538837 506.91239747397117,582.4496077774413 503.37555246956174,580.2530803110957 499.00045634007915,577.7395289607863 494.0455113133099,574.9200840264779 488.76662254061273,571.8233775310747 483.41644278830995,568.4954046779909 478.196043114069,564.9857159160183 473.11339366766924,561.2996702074122 468.12918985879395,557.4276708966598 463.2050106496962,553.3571774887918 458.30344880731633,549.07274764873 453.39986294431935,544.560545541413 448.51673742817144,539.8233956468571 443.6877277100153,534.8702450579095 438.9458021600743,529.7120810982553 434.3231569438913,524.3618994119803 429.8468465945722,518.8325789838174 425.52614194796627,513.1299781767226 421.36585995887816,507.2581398796973 417.3707165040698,501.2212284421885 413.5453234383557,495.0235272082866 409.8953304754574,488.67012382573046 406.4307592298399,482.16913016902333 403.1623863378039,475.5298885517834 400.1005522149378,468.76230822239575 397.2551384229871,461.87684855899874 394.63473220444934,454.88391054288877 392.24424831749184,447.79193271898737 390.087501049344,440.6089525530749 388.16803195100107,433.34316022451344 386.48910429921006,426.00289001683575 385.05488471695884,418.5976432908417 383.87385336380834,411.14133926660975 382.9549742158367,403.64948975895277 382.3064473567558,396.13818058072866 381.9356844230791,388.62404177859423 381.84654731052944,381.121382018502 382.0315115954821,373.6332733643667 382.48057884063087,366.15938488839504 383.1841393472281,358.69874094473323 384.1329991112805,351.24974265349135 385.32030480861494,343.8125351849452 386.74693592868357,336.39632796373326 388.4152403618879,329.01282354935313 390.3270451848669,321.67392138067294 392.4836475963902,314.3916983679559 394.8855018949862,307.17793758981213 397.5313613388462,300.04271156620814 400.4192981914371,292.9956469469164 403.5470226746485,286.04635302859117 406.91188213025424,279.20440953917205 410.5112856181994,272.4801212008382 414.3438714344838,265.8868643293978 418.40804055388185,259.43886983359744 422.70149845591203,253.1504450284225 427.22124939845577,247.035946718349 431.962627375344,241.10758840238202 436.9167031001529,235.3687840029985 442.0737124013467,229.8204042187025 447.4241095262553,224.46291966103524 452.9585807564194,219.29641374403582 458.669314555239,214.3242466753802 464.55327403257394,209.5641922844452 470.60753343600715,205.03776915815718 476.82788538456737,200.76658298371547 483.2088335961483,196.7722731330132 489.7414972377387,193.06807558501907 496.4085097273105,189.63333726391897 503.19235637384696,186.43818836430182 510.0777888124036,183.45194781715304 517.0518543894282,180.64322446964445 524.1047072347064,177.98497709135086 531.2312930740578,175.46959460980383 538.4277932544176,173.0942663503755 545.6906707209964,170.85606764580712 553.0166733305059,168.75197304170933 560.4028798247127,166.77948644058188 567.8467454198052,164.9385102889164 575.3458232136865,163.22951260855837 582.8977005613997,161.65291421255995 590.4999999999999,160.20909090909083" stroke="black" stroke-dasharray="8.0,8.0" stroke-width="7.0" /></g><rect fill="white" height="111.60000000000001" stroke="none" width="1181" x="0" y="0" /><line stroke="black" stroke-width="3.0" x1="0" x2="1181" y1="111.60000000000001" y2="111.60000000000001" /><text font-family="Arial" font-size="62.0" text-anchor="start" x="40.0" y="77.5">LED</text><text font-family="Arial" font-size="62.0" text-anchor="middle" x="590.5" y="77.5" /><text font-family="Arial" font-size="62.0" text-anchor="end" x="1141.0" y="77.5">cd / klm</text><rect fill="none" height="1178.0" stroke="black" stroke-width="3.0" width="1178.0" x="1.5" y="1.5" /></svg>