<?xml version="1.0" encoding="utf-8" ?>
<svg baseProfile="full" height="1181" version="1.1" width="1181" xmlns="http://www.w3.org/2000/svg" xmlns:ev="http://www.w3.org/2001/xml-events" xmlns:xlink="http://www.w3.org/1999/xlink"><defs><clipPath id="plot_clip"><rect height="1069.4" width="1181.0" x="0" y="111.60000000000001" /></clipPath></defs><g clip-path="url(#plot_clip)" id="grid"><circle cx="590.4999999999998" cy="191.076784751314" fill="none" r="194.86939236923763" stroke="black" stroke-width="3.0" /><text font-family="Arial" font-size="42.0" text-anchor="start" x="598.4999999999998" y="425.9461771205516">80</text><circle cx="590.4999999999998" cy="191.076784751314" fill="none" r="389.73878473847526" stroke="black" stroke-width="3.0" /><text font-family="Arial" font-size="42.0" text-anchor="start" x="598.4999999999999" y="620.8155694897893">160</text><circle cx="590.4999999999998" cy="191.076784751314" fill="none" r="584.6081771077129" stroke="black" stroke-width="3.0" /><text font-family="Arial" font-size="42.0" text-anchor="start" x="598.4999999999999" y="815.6849618590269">240</text><circle cx="590.4999999999998" cy="191.076784751314" fill="none" r="779.4775694769505" stroke="black" stroke-width="3.0" /><text font-family="Arial" font-size="42.0" text-anchor="start" x="598.4999999999999" y="1010.5543542282645">320</text><circle cx="590.4999999999998" cy="191.076784751314" fill="none" r="974.3469618461882" stroke="black" stroke-width="3.0" /><text font-family="Arial" font-size="42.0" text-anchor="start" x="598.5" y="1205.423746597502">400</text><line stroke="black" stroke-width="3.0" x1="-4249.801974323662" x2="5430.801974323662" y1="191.07678475131377" y2="191.07678475131422" /><line stroke="black" stroke-width="3.0" x1="-3601.3244717522643" x2="4782.324471752264" y1="-2229.0742024105175" y2="2611.2277719131453" /><line stroke="black" stroke-width="3.0" x1="-1829.6509871618305" x2="3010.65098716183" y1="-4000.747687000951" y2="4382.901256503579" /><line stroke="black" stroke-width="3.0" x1="590.4999999999998" x2="590.4999999999998" y1="-4649.2251895723475" y2="5031.378759074975" /><line stroke="black" stroke-width="3.0" x1="3010.6509871618305" x2="-1829.650987161831" y1="-4000.747687000951" y2="4382.901256503579" /><line stroke="black" stroke-width="3.0" x1="4782.324471752264" x2="-3601.3244717522643" y1="-2229.0742024105175" y2="2611.2277719131453" /><line stroke="black" stroke-width="3.0" x1="5430.801974323662" x2="-4249.801974323662" y1="191.07678475131377" y2="191.07678475131422" /></g><g clip-path="url(#plot_clip)" id="curves"><polyline fill="none" points="590.5,1123.356316519793 606.7884018234722,1124.2387002444423 623.1114209481444,1124.9456949381595 639.4755341545012,1125.585646307857 655.8948228054354,1126.266320608658 672.3909452879551,1127.0945725152094 688.988881093339,1128.1358941619328 705.6986334333332,1129.2943634616365 722.5180641088424,1130.43412091915 739.4357364688703,1131.420016470888 756.4309583890407,1132.1180123748243 773.4729304848313,1132.3909090909092 790.5174390823055,1132.084851078702 807.5085351020361,1131.0440190595295 824.3793972837635,1129.115812123888 841.0524670004593,1126.1513215587522 857.3336075116748,1121.6361616897052 873.4877100416793,1116.6878771399722 889.1137935614362,1110.1155411687957 904.2539055937241,1102.2842902898813 918.8364591808521,1093.1737923343896 932.7856978968796,1082.7615133435613 946.0151245632712,1071.0075957485235 958.4323192765336,1057.8710095819563 969.9408917297242,1043.3149810992827 980.4406374219575,1027.3071802906106 989.8378790544435,1009.8407722647687 998.079072679841,990.9957546168174 1005.1254390820902,970.8738212388449 1010.9435030388448,949.5769426269961 1015.5050696275695,927.2071588206132 1018.7987844005592,903.8856639448328 1020.8675473171885,879.8088309017193 1021.778287188309,855.1871088465547 1021.6107766939856,830.2247953830291 1020.45733928365,805.1195018334023 1018.4249137787289,780.064899395542 1015.6423065966651,755.2596811721755 1012.2534913295756,730.8966368268208 1008.4149391461915,707.1587547764651 1004.2951907511261,684.218689927175 999.8955433753515,662.0324839073971 994.48447613904,639.7469997480472 987.0853754609002,616.362532248974 976.651011492371,590.9478628525551 962.0665476610573,562.6433324123715 942.6314262381148,531.1261503262668 919.5628646003261,497.93287027879296 894.670808086776,464.95341050998945 869.8899642514016,433.94677535400706 847.2739910574455,406.53574594353495 828.5011416472981,383.80630913947937 813.3483909213929,365.1850294683485 801.0586685159836,349.7441221957853 790.8177915457301,336.61617942539976 781.75721773111,324.99653034365315 773.1268015553997,314.26011780412284 764.8232692114675,304.2836394482548 756.9096591862973,295.06108063850775 749.4493785271711,286.58320672719617 742.5060776950315,278.83753462699985 736.1296584790339,271.8006226062181 730.3134931577449,265.4169377368246 725.0341600563843,259.6253631263987 720.2651615171897,254.3674828837601 715.9770566190186,249.5876971755108 712.1337601544318,245.23162387400544 708.6809364527722,241.2416160315836 705.5572772877465,237.56294224875148 702.698494860997,234.1457517135567 700.037543356088,230.94519006757378 697.5111153995024,227.92366671228967 695.078978178241,225.0565545733358 692.7058544226454,222.32425027301406 690.3553496196603,219.70984549808418 687.9900727587059,217.19917101706073 685.5763194188359,214.7819735896927 683.0980311880883,212.4547247134965 680.5434680321248,210.21611471706706 677.9007314972725,208.06576595861657 675.1578066599858,206.00424019307025 672.2888867132361,204.0308717981569 669.2129758944229,202.13917208542546 665.8346964336998,200.32672237367944 662.0582166285838,198.59785638703704 657.7875465559048,196.96368227142852 653.0096963460353,195.4478885323491 648.0442665340033,194.09255197083246 643.2957165232789,192.92045179817512 639.1695351647048,191.92631464764008 636.0710185493917,191.076784751314 634.2799343003192,190.3126031555489 633.5774144514718,189.57248829095363 633.6188883529064,188.81701956758468 634.0592443476498,188.03082566341448 634.5538783157654,187.22256981433395 634.8281438047032,186.4177090959737 634.8825184295847,185.62729671417242 634.7859723254857,184.85279723508324 634.6071476770119,184.09089885217873 634.4141511102716,183.33353507566449 634.2600124830998,182.57069999697853 634.1398822690159,181.80084142452733 634.0346597530835,181.02601660285268 633.9254734782181,180.24959817647039 633.793738279459,179.4762625420085 633.6255594663571,178.71072956606906 633.4246523318316,177.953401542527 633.1990054531326,177.2030368700349 632.9564685227857,176.45785027615534 632.704728863722,175.71551969964344 632.4486759019691,174.9741967551911 632.1826845103867,174.23588704590475 631.8987011876179,173.50407867338345 631.5889145292882,172.7828213546842 631.2457796376929,172.07671566876184 630.8642054957666,171.38984631945925 630.4479186737378,170.72230353271073 630.0027164149552,170.07281785723342 629.534251666619,169.4397457358217 629.0480172122035,168.8210766371219 628.5480973468466,168.21518142666685 628.0335593070118,167.6232138722911 627.5023300505322,167.04719065049778 626.9524614123545,166.48928906881088 626.3821372622499,165.95184175321106 625.790206186495,165.43694913474746 625.1777114263767,164.94525485767178 624.5462216210992,164.47696116188695 623.8972891049884,164.0321932820966 623.2324469666281,163.61100057408623 622.5531387661196,163.21341631654298 621.8605217858058,162.83964410408373 621.1556814052565,162.48989936508235 620.4396989485452,162.16435355560066 619.7136501579714,161.86313459334235 618.9785470669451,161.58638597078073 618.2351749080954,161.33445101281063 617.484275414746,161.10771077209915 616.7266050098177,160.9065269193552 615.962934348381,160.7312412636402 615.1941610009619,160.58203554820727 614.4216287850535,160.45849615945554 613.6467525085725,160.36000669748353 612.8708975176309,160.2858858633332 612.0953772858795,160.23538972564097 611.3205223918637,160.20909090909106 610.5430855587956,160.2131395325863 609.759371403858,160.25534768609396 608.9662266294703,160.3438226554515 608.161053222236,160.48694325522285 607.3446236581322,160.6882792524683 606.5287915419068,160.93101229093008 605.7268300173474,161.19244819372625 604.9504160090137,161.44904129561394 604.2095944791596,161.67646451337635 603.5089321857131,161.85824467297584 602.8372483708072,162.0120489891923 602.1811561146822,162.16490881916025 601.5292103339646,162.34470951809453 600.8719432904139,162.58010476503716 600.2034626124675,162.89588308106443 599.5255406163751,163.29902698218928 598.8418176543571,163.79192863364233 598.1560764363302,164.37687320410532 597.4722394008742,165.05603306471733 596.7953886181202,165.8273601125578 596.1342569975496,166.67213649691018 595.4971446551166,167.567067545432 594.8907341894295,168.48841554402532 594.3200736706428,169.41207039339565 593.7892824895991,170.30907245041215 593.3030645556792,171.13194408194477 592.8634194510399,171.82827798742971 592.4687464451099,172.3454135545809 592.1138326337402,172.63059333975855 591.7916564094788,172.60523752101085 591.4766803584538,172.44061333143497 591.16400633747,172.06213109005523 590.840453190398,171.57223453633662 590.4999999999998,171.02959601132864" stroke="black" stroke-width="9.0" /><polyline fill="none" points="590.5,1123.356316519793 574.2115981765272,1124.2387002444423 557.8885790518553,1124.9456949381595 541.5244658454986,1125.585646307857 525.1051771945645,1126.266320608658 508.6090547120448,1127.0945725152094 492.01111890666084,1128.1358941619328 475.3013665666667,1129.2943634616365 458.48193589115715,1130.43412091915 441.5642635311294,1131.420016470888 424.5690416109588,1132.1180123748243 407.52706951516865,1132.3909090909092 390.4825609176939,1132.0848510787018 373.4914648979637,1131.0440190595298 356.6206027162364,1129.115812123888 339.9475329995406,1126.1513215587522 323.6663924883251,1121.6361616897052 307.5122899583203,1116.687877139972 291.8862064385637,1110.115541168796 276.74609440627546,1102.284290289881 262.1635408191477,1093.1737923343896 248.21430210311993,1082.7615133435613 234.9848754367285,1071.0075957485237 222.56768072346628,1057.8710095819563 211.05910827027554,1043.3149810992827 200.55936257804228,1027.3071802906109 191.1621209455559,1009.8407722647686 182.92092732015885,990.9957546168175 175.8745609179093,970.8738212388448 170.05649696115498,949.5769426269964 165.49493037243,927.207158820613 162.20121559944056,903.885663944833 160.13245268281122,879.8088309017193 159.2217128116908,855.1871088465548 159.38922330601412,830.2247953830293 160.54266071634945,805.1195018334023 162.57508622127096,780.0648993955423 165.3576934033343,755.2596811721754 168.7465086704241,730.8966368268208 172.58506085380805,707.1587547764651 176.70480924887357,684.2186899271752 181.10445662464824,662.0324839073971 186.51552386095975,639.7469997480473 193.9146245390995,616.3625322489742 204.34898850762855,590.9478628525551 218.93345233894232,562.6433324123716 238.3685737618848,531.1261503262668 261.43713539967354,497.9328702787931 286.32919191322355,464.95341050998945 311.1100357485981,433.94677535400706 333.7260089425541,406.53574594353506 352.49885835270175,383.8063091394795 367.6516090786066,365.1850294683484 379.941331484016,349.7441221957853 390.18220845426964,336.61617942539976 399.24278226888964,324.99653034365326 407.8731984445999,314.26011780412284 416.1767307885322,304.2836394482548 424.0903408137023,295.06108063850786 431.5506214728285,286.58320672719617 438.49392230496807,278.83753462699985 444.8703415209658,271.800622606218 450.6865068422547,265.4169377368246 455.96583994361544,259.6253631263987 460.73483848281006,254.3674828837601 465.02294338098096,249.5876971755108 468.86623984556786,245.23162387400544 472.3190635472273,241.2416160315836 475.4427227122531,237.56294224875148 478.30150513900264,234.14575171355682 480.9624566439116,230.94519006757378 483.48888460049733,227.92366671228967 485.9210218217587,225.0565545733358 488.2941455773542,222.32425027301417 490.64465038033927,219.70984549808418 493.0099272412938,217.19917101706073 495.42368058116375,214.7819735896927 497.90196881191133,212.4547247134965 500.45653196787487,210.21611471706706 503.0992685027271,208.06576595861657 505.84219334001386,206.00424019307025 508.7111132867634,204.0308717981569 511.7870241055767,202.13917208542546 515.1653035662998,200.32672237367944 518.9417833714159,198.5978563870368 523.2124534440948,196.96368227142852 527.9903036539642,195.4478885323491 532.9557334659962,194.0925519708327 537.7042834767208,192.920451798175 541.8304648352947,191.92631464764008 544.9289814506078,191.076784751314 546.7200656996804,190.3126031555489 547.4225855485278,189.57248829095363 547.3811116470932,188.81701956758468 546.9407556523498,188.03082566341448 546.4461216842343,187.22256981433395 546.1718561952964,186.4177090959737 546.1174815704148,185.6272967141723 546.214027674514,184.85279723508324 546.3928523229877,184.09089885217873 546.585848889728,183.33353507566449 546.7399875168998,182.57069999697853 546.8601177309838,181.80084142452733 546.9653402469161,181.02601660285268 547.0745265217815,180.24959817647039 547.2062617205405,179.4762625420085 547.3744405336424,178.71072956606884 547.5753476681681,177.953401542527 547.8009945468671,177.2030368700349 548.0435314772138,176.45785027615534 548.2952711362775,175.71551969964344 548.5513240980306,174.9741967551911 548.8173154896128,174.23588704590475 549.1012988123817,173.50407867338345 549.4110854707114,172.7828213546842 549.7542203623068,172.07671566876184 550.1357945042331,171.38984631945925 550.5520813262618,170.72230353271073 550.9972835850443,170.07281785723342 551.4657483333807,169.4397457358217 551.9519827877962,168.8210766371219 552.4519026531531,168.21518142666685 552.9664406929877,167.6232138722911 553.4976699494673,167.04719065049778 554.0475385876451,166.48928906881088 554.6178627377498,165.95184175321106 555.2097938135046,165.43694913474746 555.8222885736228,164.94525485767178 556.4537783789006,164.47696116188695 557.1027108950112,164.0321932820966 557.7675530333714,163.61100057408623 558.4468612338801,163.21341631654298 559.1394782141939,162.83964410408396 559.8443185947432,162.48989936508235 560.5603010514544,162.16435355560066 561.2863498420281,161.86313459334235 562.0214529330545,161.58638597078073 562.7648250919042,161.33445101281063 563.5157245852537,161.10771077209915 564.2733949901818,160.9065269193552 565.0370656516186,160.7312412636402 565.8058389990377,160.58203554820727 566.5783712149462,160.45849615945554 567.3532474914272,160.36000669748353 568.1291024823688,160.2858858633332 568.9046227141201,160.23538972564097 569.6794776081359,160.20909090909106 570.4569144412039,160.2131395325863 571.2406285961416,160.25534768609396 572.0337733705293,160.3438226554515 572.8389467777637,160.48694325522285 573.6553763418675,160.6882792524683 574.4712084580929,160.93101229093008 575.2731699826521,161.19244819372625 576.049583990986,161.44904129561394 576.7904055208401,161.67646451337635 577.4910678142866,161.85824467297584 578.1627516291925,162.0120489891923 578.8188438853174,162.16490881916025 579.470789666035,162.34470951809453 580.1280567095856,162.58010476503716 580.796537387532,162.89588308106443 581.4744593836245,163.29902698218928 582.1581823456426,163.79192863364233 582.8439235636694,164.37687320410532 583.5277605991255,165.05603306471733 584.2046113818793,165.8273601125578 584.8657430024499,166.67213649691018 585.502855344883,167.567067545432 586.1092658105702,168.48841554402532 586.6799263293567,169.41207039339565 587.2107175104005,170.30907245041215 587.6969354443205,171.13194408194477 588.1365805489597,171.82827798742971 588.5312535548896,172.3454135545809 588.8861673662594,172.63059333975855 589.2083435905207,172.60523752101085 589.5233196415459,172.44061333143497 589.8359936625296,172.06213109005523 590.1595468096017,171.57223453633662 590.4999999999998,171.02959601132864" stroke="black" stroke-width="9.0" /><polyline fill="none" points="590.5,1123.356316519793 606.7884018234722,1124.2387002444423 623.1114209481444,1124.9456949381595 639.4755341545012,1125.585646307857 655.8948228054354,1126.266320608658 672.3909452879551,1127.0945725152094 688.988881093339,1128.1358941619328 705.6986334333332,1129.2943634616365 722.5180641088424,1130.43412091915 739.4357364688703,1131.420016470888 756.4309583890407,1132.1180123748243 773.4729304848313,1132.3909090909092 790.5174390823055,1132.084851078702 807.5085351020361,1131.0440190595295 824.3793972837635,1129.115812123888 841.0524670004593,1126.1513215587522 857.3336075116748,1121.6361616897052 873.4877100416793,1116.6878771399722 889.1137935614362,1110.1155411687957 904.2539055937241,1102.2842902898813 918.8364591808521,1093.1737923343896 932.7856978968796,1082.7615133435613 946.0151245632712,1071.0075957485235 958.4323192765336,1057.8710095819563 969.9408917297242,1043.3149810992827 980.4406374219575,1027.3071802906106 989.8378790544435,1009.8407722647687 998.079072679841,990.9957546168174 1005.1254390820902,970.8738212388449 1010.9435030388448,949.5769426269961 1015.5050696275695,927.2071588206132 1018.7987844005592,903.8856639448328 1020.8675473171885,879.8088309017193 1021.778287188309,855.1871088465547 1021.6107766939856,830.2247953830291 1020.45733928365,805.1195018334023 1018.4249137787289,780.064899395542 1015.6423065966651,755.2596811721755 1012.2534913295756,730.8966368268208 1008.4149391461915,707.1587547764651 1004.2951907511261,684.218689927175 999.8955433753515,662.0324839073971 994.48447613904,639.7469997480472 987.0853754609002,616.362532248974 976.651011492371,590.9478628525551 962.0665476610573,562.6433324123715 942.6314262381148,531.1261503262668 919.5628646003261,497.93287027879296 894.670808086776,464.95341050998945 869.8899642514016,433.94677535400706 847.2739910574455,406.53574594353495 828.5011416472981,383.80630913947937 813.3483909213929,365.1850294683485 801.0586685159836,349.7441221957853 790.8177915457301,336.61617942539976 781.75721773111,324.99653034365315 773.1268015553997,314.26011780412284 764.8232692114675,304.2836394482548 756.9096591862973,295.06108063850775 749.4493785271711,286.58320672719617 742.5060776950315,278.83753462699985 736.1296584790339,271.8006226062181 730.3134931577449,265.4169377368246 725.0341600563843,259.6253631263987 720.2651615171897,254.3674828837601 715.9770566190186,249.5876971755108 712.1337601544318,245.23162387400544 708.6809364527722,241.2416160315836 705.5572772877465,237.56294224875148 702.698494860997,234.1457517135567 700.037543356088,230.94519006757378 697.5111153995024,227.92366671228967 695.078978178241,225.0565545733358 692.7058544226454,222.32425027301406 690.3553496196603,219.70984549808418 687.9900727587059,217.19917101706073 685.5763194188359,214.7819735896927 683.0980311880883,212.4547247134965 680.5434680321248,210.21611471706706 677.9007314972725,208.06576595861657 675.1578066599858,206.00424019307025 672.2888867132361,204.0308717981569 669.2129758944229,202.13917208542546 665.8346964336998,200.32672237367944 662.0582166285838,198.59785638703704 657.7875465559048,196.96368227142852 653.0096963460353,195.4478885323491 648.0442665340033,194.09255197083246 643.2957165232789,192.92045179817512 639.1695351647048,191.92631464764008 636.0710185493917,191.076784751314 634.2799343003192,190.3126031555489 633.5774144514718,189.57248829095363 633.6188883529064,188.81701956758468 634.0592443476498,188.03082566341448 634.5538783157654,187.22256981433395 634.8281438047032,186.4177090959737 634.8825184295847,185.62729671417242 634.7859723254857,184.85279723508324 634.6071476770119,184.09089885217873 634.4141511102716,183.33353507566449 634.2600124830998,182.57069999697853 634.1398822690159,181.80084142452733 634.0346597530835,181.02601660285268 633.9254734782181,180.24959817647039 633.793738279459,179.4762625420085 633.6255594663571,178.71072956606906 633.4246523318316,177.953401542527 633.1990054531326,177.2030368700349 632.9564685227857,176.45785027615534 632.704728863722,175.71551969964344 632.4486759019691,174.9741967551911 632.1826845103867,174.23588704590475 631.8987011876179,173.50407867338345 631.5889145292882,172.7828213546842 631.2457796376929,172.07671566876184 630.8642054957666,171.38984631945925 630.4479186737378,170.72230353271073 630.0027164149552,170.07281785723342 629.534251666619,169.4397457358217 629.0480172122035,168.8210766371219 628.5480973468466,168.21518142666685 628.0335593070118,167.6232138722911 627.5023300505322,167.04719065049778 626.9524614123545,166.48928906881088 626.3821372622499,165.95184175321106 625.790206186495,165.43694913474746 625.1777114263767,164.94525485767178 624.5462216210992,164.47696116188695 623.8972891049884,164.0321932820966 623.2324469666281,163.61100057408623 622.5531387661196,163.21341631654298 621.8605217858058,162.83964410408373 621.1556814052565,162.48989936508235 620.4396989485452,162.16435355560066 619.7136501579714,161.86313459334235 618.9785470669451,161.58638597078073 618.2351749080954,161.33445101281063 617.484275414746,161.10771077209915 616.7266050098177,160.9065269193552 615.962934348381,160.7312412636402 615.1941610009619,160.58203554820727 614.4216287850535,160.45849615945554 613.6467525085725,160.36000669748353 612.8708975176309,160.2858858633332 612.0953772858795,160.23538972564097 611.3205223918637,160.20909090909106 610.5430855587956,160.2131395325863 609.759371403858,160.25534768609396 608.9662266294703,160.3438226554515 608.161053222236,160.48694325522285 607.3446236581322,160.6882792524683 606.5287915419068,160.93101229093008 605.7268300173474,161.19244819372625 604.9504160090137,161.44904129561394 604.2095944791596,161.67646451337635 603.5089321857131,161.85824467297584 602.8372483708072,162.0120489891923 602.1811561146822,162.16490881916025 601.5292103339646,162.34470951809453 600.8719432904139,162.58010476503716 600.2034626124675,162.89588308106443 599.5255406163751,163.29902698218928 598.8418176543571,163.79192863364233 598.1560764363302,164.37687320410532 597.4722394008742,165.05603306471733 596.7953886181202,165.8273601125578 596.1342569975496,166.67213649691018 595.4971446551166,167.567067545432 594.8907341894295,168.48841554402532 594.3200736706428,169.41207039339565 593.7892824895991,170.30907245041215 593.3030645556792,171.13194408194477 592.8634194510399,171.82827798742971 592.4687464451099,172.3454135545809 592.1138326337402,172.63059333975855 591.7916564094788,172.60523752101085 591.4766803584538,172.44061333143497 591.16400633747,172.06213109005523 590.840453190398,171.57223453633662 590.4999999999998,171.02959601132864" stroke="black" stroke-dasharray="8.0,8.0" stroke-width="7.0" /><polyline fill="none" points="590.5,1123.356316519793 574.2115981765272,1124.2387002444423 557.8885790518553,1124.9456949381595 541.5244658454986,1125.585646307857 525.1051771945645,1126.266320608658 508.6090547120448,1127.0945725152094 492.01111890666084,1128.1358941619328 475.3013665666667,1129.2943634616365 458.48193589115715,1130.43412091915 441.5642635311294,1131.420016470888 424.5690416109588,1132.1180123748243 407.52706951516865,1132.3909090909092 390.4825609176939,1132.0848510787018 373.4914648979637,1131.0440190595298 356.6206027162364,1129.115812123888 339.9475329995406,1126.1513215587522 323.6663924883251,1121.6361616897052 307.5122899583203,1116.687877139972 291.8862064385637,1110.115541168796 276.74609440627546,1102.284290289881 262.1635408191477,1093.1737923343896 248.21430210311993,1082.7615133435613 234.9848754367285,1071.0075957485237 222.56768072346628,1057.8710095819563 211.05910827027554,1043.3149810992827 200.55936257804228,1027.3071802906109 191.1621209455559,1009.8407722647686 182.92092732015885,990.9957546168175 175.8745609179093,970.8738212388448 170.05649696115498,949.5769426269964 165.49493037243,927.207158820613 162.20121559944056,903.885663944833 160.13245268281122,879.8088309017193 159.2217128116908,855.1871088465548 159.38922330601412,830.2247953830293 160.54266071634945,805.1195018334023 162.57508622127096,780.0648993955423 165.3576934033343,755.2596811721754 168.7465086704241,730.8966368268208 172.58506085380805,707.1587547764651 176.70480924887357,684.2186899271752 181.10445662464824,662.0324839073971 186.51552386095975,639.7469997480473 193.9146245390995,616.3625322489742 204.34898850762855,590.9478628525551 218.93345233894232,562.6433324123716 238.3685737618848,531.1261503262668 261.43713539967354,497.9328702787931 286.32919191322355,464.95341050998945 311.1100357485981,433.94677535400706 333.7260089425541,406.53574594353506 352.49885835270175,383.8063091394795 367.6516090786066,365.1850294683484 379.941331484016,349.7441221957853 390.18220845426964,336.61617942539976 399.24278226888964,324.99653034365326 407.8731984445999,314.26011780412284 416.1767307885322,304.2836394482548 424.0903408137023,295.06108063850786 431.5506214728285,286.58320672719617 438.49392230496807,278.83753462699985 444.8703415209658,271.800622606218 450.6865068422547,265.4169377368246 455.96583994361544,259.6253631263987 460.73483848281006,254.3674828837601 465.02294338098096,249.5876971755108 468.86623984556786,245.23162387400544 472.3190635472273,241.2416160315836 475.4427227122531,237.56294224875148 478.30150513900264,234.14575171355682 480.9624566439116,230.94519006757378 483.48888460049733,227.92366671228967 485.9210218217587,225.0565545733358 488.2941455773542,222.32425027301417 490.64465038033927,219.70984549808418 493.0099272412938,217.19917101706073 495.42368058116375,214.7819735896927 497.90196881191133,212.4547247134965 500.45653196787487,210.21611471706706 503.0992685027271,208.06576595861657 505.84219334001386,206.00424019307025 508.7111132867634,204.0308717981569 511.7870241055767,202.13917208542546 515.1653035662998,200.32672237367944 518.9417833714159,198.5978563870368 523.2124534440948,196.96368227142852 527.9903036539642,195.4478885323491 532.9557334659962,194.0925519708327 537.7042834767208,192.920451798175 541.8304648352947,191.92631464764008 544.9289814506078,191.076784751314 546.7200656996804,190.3126031555489 547.4225855485278,189.57248829095363 547.3811116470932,188.81701956758468 546.9407556523498,188.03082566341448 546.4461216842343,187.22256981433395 546.1718561952964,186.4177090959737 546.1174815704148,185.6272967141723 546.214027674514,184.85279723508324 546.3928523229877,184.09089885217873 546.585848889728,183.33353507566449 546.7399875168998,182.57069999697853 546.8601177309838,181.80084142452733 546.9653402469161,181.02601660285268 547.0745265217815,180.24959817647039 547.2062617205405,179.4762625420085 547.3744405336424,178.71072956606884 547.5753476681681,177.953401542527 547.8009945468671,177.2030368700349 548.0435314772138,176.45785027615534 548.2952711362775,175.71551969964344 548.5513240980306,174.9741967551911 548.8173154896128,174.23588704590475 549.1012988123817,173.50407867338345 549.4110854707114,172.7828213546842 549.7542203623068,172.07671566876184 550.1357945042331,171.38984631945925 550.5520813262618,170.72230353271073 550.9972835850443,170.07281785723342 551.4657483333807,169.4397457358217 551.9519827877962,168.8210766371219 552.4519026531531,168.21518142666685 552.9664406929877,167.6232138722911 553.4976699494673,167.04719065049778 554.0475385876451,166.48928906881088 554.6178627377498,165.95184175321106 555.2097938135046,165.43694913474746 555.8222885736228,164.94525485767178 556.4537783789006,164.47696116188695 557.1027108950112,164.0321932820966 557.7675530333714,163.61100057408623 558.4468612338801,163.21341631654298 559.1394782141939,162.83964410408396 559.8443185947432,162.48989936508235 560.5603010514544,162.16435355560066 561.2863498420281,161.86313459334235 562.0214529330545,161.58638597078073 562.7648250919042,161.33445101281063 563.5157245852537,161.10771077209915 564.2733949901818,160.9065269193552 565.0370656516186,160.7312412636402 565.8058389990377,160.58203554820727 566.5783712149462,160.45849615945554 567.3532474914272,160.36000669748353 568.1291024823688,160.2858858633332 568.9046227141201,160.23538972564097 569.6794776081359,160.20909090909106 570.4569144412039,160.2131395325863 571.2406285961416,160.25534768609396 572.0337733705293,160.3438226554515 572.8389467777637,160.48694325522285 573.6553763418675,160.6882792524683 574.4712084580929,160.93101229093008 575.2731699826521,161.19244819372625 576.049583990986,161.44904129561394 576.7904055208401,161.67646451337635 577.4910678142866,161.85824467297584 578.1627516291925,162.0120489891923 578.8188438853174,162.16490881916025 579.470789666035,162.34470951809453 580.1280567095856,162.58010476503716 580.796537387532,162.89588308106443 581.4744593836245,163.29902698218928 582.1581823456426,163.79192863364233 582.8439235636694,164.37687320410532 583.5277605991255,165.05603306471733 584.2046113818793,165.8273601125578 584.8657430024499,166.67213649691018 585.502855344883,167.567067545432 586.1092658105702,168.48841554402532 586.6799263293567,169.41207039339565 587.2107175104005,170.30907245041215 587.6969354443205,171.13194408194477 588.1365805489597,171.82827798742971 588.5312535548896,172.3454135545809 588.8861673662594,172.63059333975855 589.2083435905207,172.60523752101085 589.5233196415459,172.44061333143497 589.8359936625296,172.06213109005523 590.1595468096017,171.57223453633662 590.4999999999998,171.02959601132864" stroke="black" stroke-dasharray="8.0,8.0" stroke-width="7.0" /></g><rect fill="white" height="111.60000000000001" stroke="none" width="1181" x="0" y="0" /><line stroke="black" stroke-width="3.0" x1="0" x2="1181" y1="111.60000000000001" y2="111.60000000000001" /><text font-family="Arial" font-size="62.0" text-anchor="start" x="40.0" y="77.5">LED</text><text font-family="Arial" font-size="62.0" text-anchor="middle" x="590.5" y="77.5" /><text font-family="Arial" font-size="62.0" text-anchor="end" x="1141.0" y="77.5">cd / klm</text><rect fill="none" height="1178.0" stroke="black" stroke-width="3.0" width="1178.0" x="1.5" y="1.5" /></svg>