<?xml version="1.0" encoding="utf-8" ?>
<svg baseProfile="full" height="1181" version="1.1" width="1181" xmlns="http://www.w3.org/2000/svg" xmlns:ev="http://www.w3.org/2001/xml-events" xmlns:xlink="http://www.w3.org/1999/xlink"><defs><clipPath id="plot_clip"><rect height="1069.4" width="1181.0" x="0" y="111.60000000000001" /></clipPath></defs><g clip-path="url(#plot_clip)" id="grid"><circle cx="590.5000000000001" cy="160.21018014307037" fill="none" r="176.85659977221007" stroke="black" stroke-width="3.0" /><text font-family="Arial" font-size="42.0" text-anchor="start" x="598.5000000000001" y="377.06677991528045">500</text><circle cx="590.5000000000001" cy="160.21018014307037" fill="none" r="353.71319954442015" stroke="black" stroke-width="3.0" /><text font-family="Arial" font-size="42.0" text-anchor="start" x="598.5000000000002" y="553.9233796874905">1000</text><circle cx="590.5000000000001" cy="160.21018014307037" fill="none" r="530.5697993166302" stroke="black" stroke-width="3.0" /><text font-family="Arial" font-size="42.0" text-anchor="start" x="598.5000000000002" y="730.7799794597006">1500</text><circle cx="590.5000000000001" cy="160.21018014307037" fill="none" r="707.4263990888403" stroke="black" stroke-width="3.0" /><text font-family="Arial" font-size="42.0" text-anchor="start" x="598.5000000000002" y="907.6365792319107">2000</text><circle cx="590.5000000000001" cy="160.21018014307037" fill="none" r="884.2829988610504" stroke="black" stroke-width="3.0" /><text font-family="Arial" font-size="42.0" text-anchor="start" x="598.5000000000002" y="1084.4931790041207">2500</text><circle cx="590.5000000000001" cy="160.21018014307037" fill="none" r="1061.1395986332604" stroke="black" stroke-width="3.0" /><text font-family="Arial" font-size="42.0" text-anchor="start" x="598.5000000000002" y="1261.3497787763308">3000</text><line stroke="black" stroke-width="3.0" x1="-4270.403644739194" x2="5451.403644739194" y1="160.21018014307003" y2="160.21018014307072" /><line stroke="black" stroke-width="3.0" x1="-3619.1660416925097" x2="4800.16604169251" y1="-2270.241642226527" y2="2590.6620025126676" /><line stroke="black" stroke-width="3.0" x1="-1839.9518223695966" x2="3020.951822369597" y1="-4049.4558615494393" y2="4369.8762218355805" /><line stroke="black" stroke-width="3.0" x1="590.5000000000001" x2="590.5000000000001" y1="-4700.693464596123" y2="5021.1138248822635" /><line stroke="black" stroke-width="3.0" x1="3020.951822369597" x2="-1839.9518223695966" y1="-4049.4558615494393" y2="4369.8762218355805" /><line stroke="black" stroke-width="3.0" x1="4800.16604169251" x2="-3619.1660416925097" y1="-2270.241642226527" y2="2590.6620025126676" /><line stroke="black" stroke-width="3.0" x1="5451.403644739194" x2="-4270.403644739194" y1="160.21018014307003" y2="160.21018014307072" /></g><g clip-path="url(#plot_clip)" id="curves"><polyline fill="none" points="590.5000000000002,1132.3909090909092 607.2069734625989,1117.3520487814758 623.3357513369048,1100.5030721615035 638.7216846682799,1080.3347366110452 653.0940766780305,1055.3471803626157 666.0765898844892,1024.0545553871243 677.2454183786695,985.5377053317463 686.379277724109,941.0842331921998 693.4207197525318,892.5291532762252 698.4373401452476,841.699724975122 701.6212385962925,790.4100403676256 703.2474002894097,740.2452710921642 703.5207878682719,691.9311817451193 702.6469663679032,645.9720593397991 700.8652216493638,602.8609068597957 698.4481037695859,563.0779879918815 695.6658682421923,526.9671480499613 692.6637398336158,494.372716091985 689.5369738172874,465.0146440321919 686.3616825068115,438.61272123165816 683.1949262052939,414.88739679012724 680.0948662560564,393.6127864794264 677.1882759983428,374.77119241189155 674.6231518222944,358.39190638417324 672.5503170678461,344.49820958795306 671.1232208268259,333.1072351599687 670.4200966707858,324.07066136657113 670.1887171090187,316.6080935114584 670.0410176169971,309.8050770559354 669.5264282940244,302.77763071402285 668.1332678559612,294.67494442719874 665.4036452787933,284.8707801338269 661.3014971133757,273.5162606814056 655.918931422532,260.946500610816 649.3690360636414,247.4871152649937 641.7854142560645,233.45334228781257 633.3853582227687,219.23681185381884 624.6724869490405,205.5586019906856 616.2659289333795,193.18906527703086 608.837951602081,182.85566443315747 603.1120799729765,175.2406717609506 599.6422733812727,170.72716261106416 598.1194145197803,168.6723972644096 597.9665679052398,168.21709393592403 598.5508924337579,168.54712331129372 599.185694979592,168.89587512266212 599.287890742354,168.69654758719253 598.8669469321009,168.0124843821675 598.0962143282765,167.0498422456036 597.1623618507805,166.00168294248658 596.264787649195,165.04741133332527 595.5704827960539,164.31617615190487 595.0748398539492,163.78443676453094 594.7262490449816,163.3948872276593 594.4695155285558,163.0942019901438 594.2460392530365,162.83318506647606 594.0075374249727,162.57604400935793 593.758105361975,162.32601850457445 593.5158877561265,162.09471597067238 593.2998137859585,161.89247798766326 593.1295416638981,161.72834673056718 593.0194425718888,161.60672996528365 592.9602106304543,161.51829733915667 592.935937609443,161.45135234846214 592.9300047291463,161.39537263984414 592.9251349501989,161.34103914240745 592.9068129562629,161.2817623113708 592.8736446709257,161.21773252850846 592.8276433196824,161.1506090886121 592.7709104762373,161.08190100168292 592.7056293438751,161.0129635720649 592.6336301643852,160.94484792521598 592.5550799569095,160.87791609840383 592.4697272366616,160.81238619342253 592.3773251650221,160.74849447170925 592.2776323399088,160.6864952929883 592.1704823819174,160.6266781791386 592.0559934220561,160.56940952982382 591.9343659791937,160.51506404378415 591.8058143233375,160.46400473491724 591.6705659817859,160.41658250835872 591.5293412206644,160.37321177620822 591.3848025188385,160.33453102761473 591.240127672636,160.30105639436715 591.0985234012995,160.27308748745247 590.9632159493228,160.2507062874006 590.8374936125854,160.23377999544982 590.7248536007463,160.2219642209492 590.6288370391608,160.21467923161686 590.552966741106,160.21110468097538 590.5007367845948,160.21018014307037 590.5000000000001,160.21018014307037 590.5000000000001,160.21018014307037 590.5000000000001,160.21018014307037 590.5000000000001,160.21018014307037 590.5001469371283,160.21016728773736 590.5072022965251,160.20942315120192 590.5088710988716,160.2090909090906 590.507002665528,160.20919598261185 590.5034371554433,160.2096357511292 590.5000000000001,160.21018014307037 590.5000000000001,160.21018014307037 590.5000000000001,160.21018014307037 590.5000000000001,160.21018014307037 590.5000000000001,160.21018014307037 590.5000000000001,160.21018014307037 590.5004945959926,160.21003831995176 590.5006114726912,160.2099931971079 590.500482216094,160.21002346156365 590.5002361603222,160.21009882655028 590.5000000000001,160.21018014307037 590.5000000000001,160.21018014307037 590.5000000000001,160.21018014307037 590.5000000000001,160.21018014307037 590.5000000000001,160.21018014307037 590.5000000000001,160.21018014307037 590.5000332027496,160.21016394900744 590.5000409040716,160.21015930140493 590.5000321421711,160.210163052775 590.5000156841517,160.21017144920313 590.5000000000001,160.21018014307037 590.5000000000001,160.21018014307037 590.5000000000001,160.21018014307037 590.5000000000001,160.21018014307037 590.5000000000001,160.21018014307037 590.5000000000001,160.21018014307037 590.5000021457367,160.21017858410153 590.5000026323231,160.21017815947266 590.5000020595738,160.21017853395495 590.5000010005742,160.21017933282144 590.5000000000001,160.21018014307037 590.5000000000001,160.21018014307037 590.5000000000001,160.21018014307037 590.5000000000001,160.21018014307037 590.5000000000001,160.21018014307037 590.5000000000001,160.21018014307037 590.5000001322803,160.21018000609024 590.500000161391,160.2101799699999 590.5000001255629,160.2101800036188 590.500000060645,160.21018007330633 590.5000000000001,160.21018014307037 590.5000000000001,160.21018014307037 590.5000000000001,160.21018014307037 590.5000000000001,160.21018014307037 590.5000000000001,160.21018014307037 590.5000000000001,160.21018014307037 590.5000000076453,160.2101801317359 590.5000000092537,160.2101801288211 590.5000000071395,160.21018013164485 590.5000000034183,160.2101801373816 590.5000000000001,160.21018014307037 590.5000000000001,160.21018014307037 590.5000000000001,160.21018014307037 590.5000000000001,160.21018014307037 590.5000000000001,160.21018014307037 590.5000000000001,160.21018014307037 590.5000000003993,160.2101801421736 590.5000000004767,160.2101801419475 590.5000000003624,160.2101801421735 590.5000000001709,160.2101801426254 590.5000000000001,160.21018014307037 590.5000000000001,160.21018014307037 590.5000000000001,160.21018014307037 590.5000000000001,160.21018014307037 590.5000000000001,160.21018014307037 590.5000000000001,160.21018014307037 590.5000000000172,160.21018014300205 590.5000000000198,160.210180142985 590.5000000000146,160.21018014300228 590.5000000000066,160.21018014303672 590.5000000000001,160.21018014307037 590.5000000000001,160.21018014307037 590.5000000000001,160.21018014307037 590.5000000000001,160.21018014307037 590.5000000000001,160.21018014307037 590.5000000000001,160.21018014307037 590.5000000000005,160.2101801430647 590.5000000000005,160.21018014306276 590.5000000000003,160.21018014306378 590.5000000000002,160.2101801430665 590.5000000000001,160.21018014307037" stroke="black" stroke-width="9.0" /><polyline fill="none" points="590.5000000000002,1132.3909090909092 573.7930265374011,1117.3520487814758 557.6642486630957,1100.5030721615035 542.2783153317206,1080.3347366110452 527.9059233219699,1055.3471803626157 514.9234101155112,1024.0545553871243 503.75458162133094,985.5377053317463 494.6207222758914,941.0842331922 487.5792802474683,892.529153276225 482.5626598547527,841.6997249751222 479.3787614037076,790.4100403676256 477.75259971059063,740.2452710921642 477.4792121317281,691.9311817451193 478.35303363209704,645.9720593397991 480.1347783506365,602.8609068597957 482.55189623041446,563.0779879918815 485.334131757808,526.9671480499613 488.3362601663843,494.372716091985 491.4630261827129,465.0146440321919 494.63831749318865,438.61272123165816 497.8050737947064,414.88739679012724 500.9051337439436,393.6127864794264 503.81172400165747,374.77119241189155 506.3768481777058,358.39190638417324 508.44968293215413,344.49820958795306 509.8767791731744,333.1072351599687 510.57990332921435,324.07066136657113 510.8112828909815,316.6080935114584 510.95898238300305,309.8050770559354 511.47357170597587,302.77763071402285 512.8667321440389,294.67494442719874 515.596354721207,284.8707801338269 519.6985028866245,273.5162606814056 525.0810685774683,260.946500610816 531.6309639363589,247.4871152649937 539.2145857439356,233.45334228781257 547.6146417772314,219.23681185381884 556.3275130509596,205.5586019906856 564.7340710666207,193.18906527703086 572.1620483979192,182.85566443315747 577.8879200270237,175.2406717609506 581.3577266187274,170.72716261106416 582.8805854802198,168.6723972644096 583.0334320947604,168.21709393592403 582.4491075662423,168.54712331129372 581.8143050204083,168.89587512266212 581.7121092576461,168.69654758719253 582.1330530678994,168.0124843821675 582.9037856717238,167.0498422456036 583.8376381492197,166.00168294248658 584.7352123508052,165.04741133332527 585.4295172039463,164.31617615190487 585.925160146051,163.78443676453094 586.2737509550185,163.3948872276593 586.5304844714443,163.0942019901438 586.7539607469636,162.83318506647606 586.9924625750274,162.57604400935793 587.2418946380251,162.32601850457445 587.4841122438737,162.09471597067238 587.7001862140418,161.89247798766326 587.8704583361022,161.72834673056718 587.9805574281114,161.60672996528365 588.0397893695458,161.51829733915667 588.0640623905572,161.45135234846214 588.069995270854,161.39537263984414 588.0748650498012,161.34103914240745 588.0931870437373,161.2817623113708 588.1263553290745,161.21773252850846 588.1723566803178,161.1506090886121 588.2290895237629,161.08190100168292 588.294370656125,161.0129635720649 588.3663698356149,160.94484792521598 588.4449200430906,160.87791609840383 588.5302727633385,160.81238619342253 588.622674834978,160.74849447170925 588.7223676600914,160.6864952929883 588.8295176180828,160.6266781791386 588.9440065779442,160.56940952982382 589.0656340208064,160.51506404378415 589.1941856766628,160.46400473491724 589.3294340182143,160.41658250835872 589.4706587793357,160.37321177620822 589.6151974811618,160.33453102761473 589.7598723273642,160.30105639436715 589.9014765987007,160.27308748745247 590.0367840506773,160.2507062874006 590.1625063874149,160.23377999544982 590.2751463992539,160.2219642209492 590.3711629608395,160.21467923161686 590.4470332588942,160.21110468097538 590.4992632154054,160.21018014307037 590.5000000000001,160.21018014307037 590.5000000000001,160.21018014307037 590.5000000000001,160.21018014307037 590.5000000000001,160.21018014307037 590.4998530628718,160.21016728773736 590.492797703475,160.20942315120192 590.4911289011286,160.2090909090906 590.4929973344722,160.20919598261185 590.4965628445569,160.2096357511292 590.5000000000001,160.21018014307037 590.5000000000001,160.21018014307037 590.5000000000001,160.21018014307037 590.5000000000001,160.21018014307037 590.5000000000001,160.21018014307037 590.5000000000001,160.21018014307037 590.4995054040076,160.21003831995176 590.4993885273091,160.2099931971079 590.4995177839062,160.21002346156365 590.499763839678,160.21009882655028 590.5000000000001,160.21018014307037 590.5000000000001,160.21018014307037 590.5000000000001,160.21018014307037 590.5000000000001,160.21018014307037 590.5000000000001,160.21018014307037 590.5000000000001,160.21018014307037 590.4999667972506,160.21016394900744 590.4999590959286,160.21015930140493 590.4999678578291,160.210163052775 590.4999843158485,160.21017144920313 590.5000000000001,160.21018014307037 590.5000000000001,160.21018014307037 590.5000000000001,160.21018014307037 590.5000000000001,160.21018014307037 590.5000000000001,160.21018014307037 590.5000000000001,160.21018014307037 590.4999978542635,160.21017858410153 590.4999973676771,160.21017815947266 590.4999979404264,160.21017853395495 590.4999989994259,160.21017933282144 590.5000000000001,160.21018014307037 590.5000000000001,160.21018014307037 590.5000000000001,160.21018014307037 590.5000000000001,160.21018014307037 590.5000000000001,160.21018014307037 590.5000000000001,160.21018014307037 590.4999998677198,160.21018000609024 590.4999998386093,160.2101799699999 590.4999998744372,160.2101800036188 590.4999999393551,160.21018007330633 590.5000000000001,160.21018014307037 590.5000000000001,160.21018014307037 590.5000000000001,160.21018014307037 590.5000000000001,160.21018014307037 590.5000000000001,160.21018014307037 590.5000000000001,160.21018014307037 590.4999999923549,160.2101801317359 590.4999999907466,160.2101801288211 590.4999999928607,160.21018013164485 590.4999999965819,160.2101801373816 590.5000000000001,160.21018014307037 590.5000000000001,160.21018014307037 590.5000000000001,160.21018014307037 590.5000000000001,160.21018014307037 590.5000000000001,160.21018014307037 590.5000000000001,160.21018014307037 590.4999999996008,160.2101801421736 590.4999999995235,160.2101801419475 590.4999999996377,160.2101801421735 590.4999999998294,160.2101801426254 590.5000000000001,160.21018014307037 590.5000000000001,160.21018014307037 590.5000000000001,160.21018014307037 590.5000000000001,160.21018014307037 590.5000000000001,160.21018014307037 590.5000000000001,160.21018014307037 590.4999999999831,160.21018014300205 590.4999999999804,160.210180142985 590.4999999999856,160.21018014300228 590.4999999999936,160.21018014303672 590.5000000000001,160.21018014307037 590.5000000000001,160.21018014307037 590.5000000000001,160.21018014307037 590.5000000000001,160.21018014307037 590.5000000000001,160.21018014307037 590.5000000000001,160.21018014307037 590.4999999999997,160.2101801430647 590.4999999999997,160.21018014306276 590.4999999999999,160.21018014306378 590.5,160.2101801430665 590.5000000000001,160.21018014307037" stroke="black" stroke-width="9.0" /><polyline fill="none" points="590.5000000000002,1132.3909090909092 607.2069734625989,1117.3520487814758 623.3357513369048,1100.5030721615035 638.7216846682799,1080.3347366110452 653.0940766780305,1055.3471803626157 666.0765898844892,1024.0545553871243 677.2454183786695,985.5377053317463 686.379277724109,941.0842331921998 693.4207197525318,892.5291532762252 698.4373401452476,841.699724975122 701.6212385962925,790.4100403676256 703.2474002894097,740.2452710921642 703.5207878682719,691.9311817451193 702.6469663679032,645.9720593397991 700.8652216493638,602.8609068597957 698.4481037695859,563.0779879918815 695.6658682421923,526.9671480499613 692.6637398336158,494.372716091985 689.5369738172874,465.0146440321919 686.3616825068115,438.61272123165816 683.1949262052939,414.88739679012724 680.0948662560564,393.6127864794264 677.1882759983428,374.77119241189155 674.6231518222944,358.39190638417324 672.5503170678461,344.49820958795306 671.1232208268259,333.1072351599687 670.4200966707858,324.07066136657113 670.1887171090187,316.6080935114584 670.0410176169971,309.8050770559354 669.5264282940244,302.77763071402285 668.1332678559612,294.67494442719874 665.4036452787933,284.8707801338269 661.3014971133757,273.5162606814056 655.918931422532,260.946500610816 649.3690360636414,247.4871152649937 641.7854142560645,233.45334228781257 633.3853582227687,219.23681185381884 624.6724869490405,205.5586019906856 616.2659289333795,193.18906527703086 608.837951602081,182.85566443315747 603.1120799729765,175.2406717609506 599.6422733812727,170.72716261106416 598.1194145197803,168.6723972644096 597.9665679052398,168.21709393592403 598.5508924337579,168.54712331129372 599.185694979592,168.89587512266212 599.287890742354,168.69654758719253 598.8669469321009,168.0124843821675 598.0962143282765,167.0498422456036 597.1623618507805,166.00168294248658 596.264787649195,165.04741133332527 595.5704827960539,164.31617615190487 595.0748398539492,163.78443676453094 594.7262490449816,163.3948872276593 594.4695155285558,163.0942019901438 594.2460392530365,162.83318506647606 594.0075374249727,162.57604400935793 593.758105361975,162.32601850457445 593.5158877561265,162.09471597067238 593.2998137859585,161.89247798766326 593.1295416638981,161.72834673056718 593.0194425718888,161.60672996528365 592.9602106304543,161.51829733915667 592.935937609443,161.45135234846214 592.9300047291463,161.39537263984414 592.9251349501989,161.34103914240745 592.9068129562629,161.2817623113708 592.8736446709257,161.21773252850846 592.8276433196824,161.1506090886121 592.7709104762373,161.08190100168292 592.7056293438751,161.0129635720649 592.6336301643852,160.94484792521598 592.5550799569095,160.87791609840383 592.4697272366616,160.81238619342253 592.3773251650221,160.74849447170925 592.2776323399088,160.6864952929883 592.1704823819174,160.6266781791386 592.0559934220561,160.56940952982382 591.9343659791937,160.51506404378415 591.8058143233375,160.46400473491724 591.6705659817859,160.41658250835872 591.5293412206644,160.37321177620822 591.3848025188385,160.33453102761473 591.240127672636,160.30105639436715 591.0985234012995,160.27308748745247 590.9632159493228,160.2507062874006 590.8374936125854,160.23377999544982 590.7248536007463,160.2219642209492 590.6288370391608,160.21467923161686 590.552966741106,160.21110468097538 590.5007367845948,160.21018014307037 590.5000000000001,160.21018014307037 590.5000000000001,160.21018014307037 590.5000000000001,160.21018014307037 590.5000000000001,160.21018014307037 590.5001469371283,160.21016728773736 590.5072022965251,160.20942315120192 590.5088710988716,160.2090909090906 590.507002665528,160.20919598261185 590.5034371554433,160.2096357511292 590.5000000000001,160.21018014307037 590.5000000000001,160.21018014307037 590.5000000000001,160.21018014307037 590.5000000000001,160.21018014307037 590.5000000000001,160.21018014307037 590.5000000000001,160.21018014307037 590.5004945959926,160.21003831995176 590.5006114726912,160.2099931971079 590.500482216094,160.21002346156365 590.5002361603222,160.21009882655028 590.5000000000001,160.21018014307037 590.5000000000001,160.21018014307037 590.5000000000001,160.21018014307037 590.5000000000001,160.21018014307037 590.5000000000001,160.21018014307037 590.5000000000001,160.21018014307037 590.5000332027496,160.21016394900744 590.5000409040716,160.21015930140493 590.5000321421711,160.210163052775 590.5000156841517,160.21017144920313 590.5000000000001,160.21018014307037 590.5000000000001,160.21018014307037 590.5000000000001,160.21018014307037 590.5000000000001,160.21018014307037 590.5000000000001,160.21018014307037 590.5000000000001,160.21018014307037 590.5000021457367,160.21017858410153 590.5000026323231,160.21017815947266 590.5000020595738,160.21017853395495 590.5000010005742,160.21017933282144 590.5000000000001,160.21018014307037 590.5000000000001,160.21018014307037 590.5000000000001,160.21018014307037 590.5000000000001,160.21018014307037 590.5000000000001,160.21018014307037 590.5000000000001,160.21018014307037 590.5000001322803,160.21018000609024 590.500000161391,160.2101799699999 590.5000001255629,160.2101800036188 590.500000060645,160.21018007330633 590.5000000000001,160.21018014307037 590.5000000000001,160.21018014307037 590.5000000000001,160.21018014307037 590.5000000000001,160.21018014307037 590.5000000000001,160.21018014307037 590.5000000000001,160.21018014307037 590.5000000076453,160.2101801317359 590.5000000092537,160.2101801288211 590.5000000071395,160.21018013164485 590.5000000034183,160.2101801373816 590.5000000000001,160.21018014307037 590.5000000000001,160.21018014307037 590.5000000000001,160.21018014307037 590.5000000000001,160.21018014307037 590.5000000000001,160.21018014307037 590.5000000000001,160.21018014307037 590.5000000003993,160.2101801421736 590.5000000004767,160.2101801419475 590.5000000003624,160.2101801421735 590.5000000001709,160.2101801426254 590.5000000000001,160.21018014307037 590.5000000000001,160.21018014307037 590.5000000000001,160.21018014307037 590.5000000000001,160.21018014307037 590.5000000000001,160.21018014307037 590.5000000000001,160.21018014307037 590.5000000000172,160.21018014300205 590.5000000000198,160.210180142985 590.5000000000146,160.21018014300228 590.5000000000066,160.21018014303672 590.5000000000001,160.21018014307037 590.5000000000001,160.21018014307037 590.5000000000001,160.21018014307037 590.5000000000001,160.21018014307037 590.5000000000001,160.21018014307037 590.5000000000001,160.21018014307037 590.5000000000005,160.2101801430647 590.5000000000005,160.21018014306276 590.5000000000003,160.21018014306378 590.5000000000002,160.2101801430665 590.5000000000001,160.21018014307037" stroke="black" stroke-dasharray="8.0,8.0" stroke-width="7.0" /><polyline fill="none" points="590.5000000000002,1132.3909090909092 573.7930265374011,1117.3520487814758 557.6642486630957,1100.5030721615035 542.2783153317206,1080.3347366110452 527.9059233219699,1055.3471803626157 514.9234101155112,1024.0545553871243 503.75458162133094,985.5377053317463 494.6207222758914,941.0842331922 487.5792802474683,892.529153276225 482.5626598547527,841.6997249751222 479.3787614037076,790.4100403676256 477.75259971059063,740.2452710921642 477.4792121317281,691.9311817451193 478.35303363209704,645.9720593397991 480.1347783506365,602.8609068597957 482.55189623041446,563.0779879918815 485.334131757808,526.9671480499613 488.3362601663843,494.372716091985 491.4630261827129,465.0146440321919 494.63831749318865,438.61272123165816 497.8050737947064,414.88739679012724 500.9051337439436,393.6127864794264 503.81172400165747,374.77119241189155 506.3768481777058,358.39190638417324 508.44968293215413,344.49820958795306 509.8767791731744,333.1072351599687 510.57990332921435,324.07066136657113 510.8112828909815,316.6080935114584 510.95898238300305,309.8050770559354 511.47357170597587,302.77763071402285 512.8667321440389,294.67494442719874 515.596354721207,284.8707801338269 519.6985028866245,273.5162606814056 525.0810685774683,260.946500610816 531.6309639363589,247.4871152649937 539.2145857439356,233.45334228781257 547.6146417772314,219.23681185381884 556.3275130509596,205.5586019906856 564.7340710666207,193.18906527703086 572.1620483979192,182.85566443315747 577.8879200270237,175.2406717609506 581.3577266187274,170.72716261106416 582.8805854802198,168.6723972644096 583.0334320947604,168.21709393592403 582.4491075662423,168.54712331129372 581.8143050204083,168.89587512266212 581.7121092576461,168.69654758719253 582.1330530678994,168.0124843821675 582.9037856717238,167.0498422456036 583.8376381492197,166.00168294248658 584.7352123508052,165.04741133332527 585.4295172039463,164.31617615190487 585.925160146051,163.78443676453094 586.2737509550185,163.3948872276593 586.5304844714443,163.0942019901438 586.7539607469636,162.83318506647606 586.9924625750274,162.57604400935793 587.2418946380251,162.32601850457445 587.4841122438737,162.09471597067238 587.7001862140418,161.89247798766326 587.8704583361022,161.72834673056718 587.9805574281114,161.60672996528365 588.0397893695458,161.51829733915667 588.0640623905572,161.45135234846214 588.069995270854,161.39537263984414 588.0748650498012,161.34103914240745 588.0931870437373,161.2817623113708 588.1263553290745,161.21773252850846 588.1723566803178,161.1506090886121 588.2290895237629,161.08190100168292 588.294370656125,161.0129635720649 588.3663698356149,160.94484792521598 588.4449200430906,160.87791609840383 588.5302727633385,160.81238619342253 588.622674834978,160.74849447170925 588.7223676600914,160.6864952929883 588.8295176180828,160.6266781791386 588.9440065779442,160.56940952982382 589.0656340208064,160.51506404378415 589.1941856766628,160.46400473491724 589.3294340182143,160.41658250835872 589.4706587793357,160.37321177620822 589.6151974811618,160.33453102761473 589.7598723273642,160.30105639436715 589.9014765987007,160.27308748745247 590.0367840506773,160.2507062874006 590.1625063874149,160.23377999544982 590.2751463992539,160.2219642209492 590.3711629608395,160.21467923161686 590.4470332588942,160.21110468097538 590.4992632154054,160.21018014307037 590.5000000000001,160.21018014307037 590.5000000000001,160.21018014307037 590.5000000000001,160.21018014307037 590.5000000000001,160.21018014307037 590.4998530628718,160.21016728773736 590.492797703475,160.20942315120192 590.4911289011286,160.2090909090906 590.4929973344722,160.20919598261185 590.4965628445569,160.2096357511292 590.5000000000001,160.21018014307037 590.5000000000001,160.21018014307037 590.5000000000001,160.21018014307037 590.5000000000001,160.21018014307037 590.5000000000001,160.21018014307037 590.5000000000001,160.21018014307037 590.4995054040076,160.21003831995176 590.4993885273091,160.2099931971079 590.4995177839062,160.21002346156365 590.499763839678,160.21009882655028 590.5000000000001,160.21018014307037 590.5000000000001,160.21018014307037 590.5000000000001,160.21018014307037 590.5000000000001,160.21018014307037 590.5000000000001,160.21018014307037 590.5000000000001,160.21018014307037 590.4999667972506,160.21016394900744 590.4999590959286,160.21015930140493 590.4999678578291,160.210163052775 590.4999843158485,160.21017144920313 590.5000000000001,160.21018014307037 590.5000000000001,160.21018014307037 590.5000000000001,160.21018014307037 590.5000000000001,160.21018014307037 590.5000000000001,160.21018014307037 590.5000000000001,160.21018014307037 590.4999978542635,160.21017858410153 590.4999973676771,160.21017815947266 590.4999979404264,160.21017853395495 590.4999989994259,160.21017933282144 590.5000000000001,160.21018014307037 590.5000000000001,160.21018014307037 590.5000000000001,160.21018014307037 590.5000000000001,160.21018014307037 590.5000000000001,160.21018014307037 590.5000000000001,160.21018014307037 590.4999998677198,160.21018000609024 590.4999998386093,160.2101799699999 590.4999998744372,160.2101800036188 590.4999999393551,160.21018007330633 590.5000000000001,160.21018014307037 590.5000000000001,160.21018014307037 590.5000000000001,160.21018014307037 590.5000000000001,160.21018014307037 590.5000000000001,160.21018014307037 590.5000000000001,160.21018014307037 590.4999999923549,160.2101801317359 590.4999999907466,160.2101801288211 590.4999999928607,160.21018013164485 590.4999999965819,160.2101801373816 590.5000000000001,160.21018014307037 590.5000000000001,160.21018014307037 590.5000000000001,160.21018014307037 590.5000000000001,160.21018014307037 590.5000000000001,160.21018014307037 590.5000000000001,160.21018014307037 590.4999999996008,160.2101801421736 590.4999999995235,160.2101801419475 590.4999999996377,160.2101801421735 590.4999999998294,160.2101801426254 590.5000000000001,160.21018014307037 590.5000000000001,160.21018014307037 590.5000000000001,160.21018014307037 590.5000000000001,160.21018014307037 590.5000000000001,160.21018014307037 590.5000000000001,160.21018014307037 590.4999999999831,160.21018014300205 590.4999999999804,160.210180142985 590.4999999999856,160.21018014300228 590.4999999999936,160.21018014303672 590.5000000000001,160.21018014307037 590.5000000000001,160.21018014307037 590.5000000000001,160.21018014307037 590.5000000000001,160.21018014307037 590.5000000000001,160.21018014307037 590.5000000000001,160.21018014307037 590.4999999999997,160.2101801430647 590.4999999999997,160.21018014306276 590.4999999999999,160.21018014306378 590.5,160.2101801430665 590.5000000000001,160.21018014307037" stroke="black" stroke-dasharray="8.0,8.0" stroke-width="7.0" /></g><rect fill="white" height="111.60000000000001" stroke="none" width="1181" x="0" y="0" /><line stroke="black" stroke-width="3.0" x1="0" x2="1181" y1="111.60000000000001" y2="111.60000000000001" /><text font-family="Arial" font-size="62.0" text-anchor="start" x="40.0" y="77.5">LED</text><text font-family="Arial" font-size="62.0" text-anchor="middle" x="590.5" y="77.5" /><text font-family="Arial" font-size="62.0" text-anchor="end" x="1141.0" y="77.5">cd / klm</text><rect fill="none" height="1178.0" stroke="black" stroke-width="3.0" width="1178.0" x="1.5" y="1.5" /></svg>