<?xml version="1.0" encoding="utf-8" ?>
<svg baseProfile="full" height="1181" version="1.1" width="1181" xmlns="http://www.w3.org/2000/svg" xmlns:ev="http://www.w3.org/2001/xml-events" xmlns:xlink="http://www.w3.org/1999/xlink"><defs><clipPath id="plot_clip"><rect height="1069.4" width="1181.0" x="0" y="111.60000000000001" /></clipPath></defs><g clip-path="url(#plot_clip)" id="grid"><circle cx="635.0513827265098" cy="160.30611302230534" fill="none" r="199.25050597911405" stroke="black" stroke-width="3.0" /><text font-family="Arial" font-size="42.0" text-anchor="start" x="643.0513827265098" y="399.55661900141945">200</text><circle cx="635.0513827265098" cy="160.30611302230534" fill="none" r="398.5010119582281" stroke="black" stroke-width="3.0" /><text font-family="Arial" font-size="42.0" text-anchor="start" x="643.0513827265098" y="598.8071249805334">400</text><circle cx="635.0513827265098" cy="160.30611302230534" fill="none" r="597.7515179373421" stroke="black" stroke-width="3.0" /><text font-family="Arial" font-size="42.0" text-anchor="start" x="643.0513827265099" y="798.0576309596476">600</text><circle cx="635.0513827265098" cy="160.30611302230534" fill="none" r="797.0020239164562" stroke="black" stroke-width="3.0" /><text font-family="Arial" font-size="42.0" text-anchor="start" x="643.0513827265099" y="997.3081369387615">800</text><circle cx="635.0513827265098" cy="160.30611302230534" fill="none" r="996.2525298955702" stroke="black" stroke-width="3.0" /><text font-family="Arial" font-size="42.0" text-anchor="start" x="643.0513827265099" y="1196.5586429178754">1000</text><line stroke="black" stroke-width="3.0" x1="-4333.957360633625" x2="5604.060126086645" y1="160.3061130223051" y2="160.30611302230557" /><line stroke="black" stroke-width="3.0" x1="-3668.2364206503576" x2="4938.339186103377" y1="-2324.198258657763" y2="2644.8104847023733" /><line stroke="black" stroke-width="3.0" x1="-1849.4529889535575" x2="3119.555754406577" y1="-4142.981690354562" y2="4463.5939163991725" /><line stroke="black" stroke-width="3.0" x1="635.0513827265098" x2="635.0513827265098" y1="-4808.70263033783" y2="5129.314856382441" /><line stroke="black" stroke-width="3.0" x1="3119.5557544065773" x2="-1849.4529889535577" y1="-4142.981690354562" y2="4463.5939163991725" /><line stroke="black" stroke-width="3.0" x1="4938.339186103377" x2="-3668.236420650357" y1="-2324.198258657763" y2="2644.8104847023733" /><line stroke="black" stroke-width="3.0" x1="5604.060126086645" x2="-4333.957360633625" y1="160.3061130223051" y2="160.30611302230557" /></g><g clip-path="url(#plot_clip)" id="curves"><polyline fill="none" points="635.0513827265099,1014.2838191234893 649.8128937929039,1005.9925156280555 664.290667306638,997.6096720701008 678.4972928629059,989.3034628576327 692.45675287358,981.2411528385667 706.2043809467092,973.5886041774679 719.7801262455934,966.4462586112139 733.1995856676656,959.6590790582322 746.458498223821,953.0089294900342 759.5372534204107,946.2789676715632 772.4009673124044,939.2543150163336 784.9974805110222,931.7119125586945 797.249669806649,923.3890581253582 809.0592800339085,914.0171221442168 820.308860942968,903.3332744478076 830.8620108855208,891.0813259737107 840.5657189260776,877.0197775010544 849.2578790372877,860.9439923767269 856.7631546858266,842.6647835794487 862.8914801522922,822.0018023369818 867.4384014601087,798.7841995672462 870.2005915189126,772.8907454187934 871.0271822236913,744.3667120821785 869.784202994681,713.3019829875583 866.3409469846725,679.7909797664207 860.57009862434,643.9325599696313 852.4220321384028,605.9819905580957 842.1685976124782,566.7965348284745 830.2170860483249,527.3594163875736 817.040071840888,488.62239910388826 803.1739784090367,451.50299064480214 789.1530825755708,416.7744102764352 775.2995937583714,384.7501677728295 761.8897981648266,355.62014502152795 749.2141753729359,329.5594134563098 737.5768107251228,306.7275986589066 727.231766810093,287.1815270970378 718.1813627099236,270.623322480703 710.3440484030907,256.67633042055604 703.6148903250456,244.9749935978067 697.8661374858227,235.1658226746407 692.9558876354859,226.91762610536512 688.754205819992,219.94914043158485 685.1217682132283,214.00002771713628 681.9026639571058,208.82203497651471 678.9249596831471,204.17968997894263 676.0422841646724,199.89056641036223 673.2629064452947,195.93893535437928 670.6366230795747,192.34720735351573 668.2150496498643,189.13484885613207 666.0514990082702,186.31829916078323 664.1840346471615,183.89726939227683 662.5829959914929,181.81616674077827 661.1981817265083,180.0091393059779 659.9753691964751,178.4144491601653 658.8565033151825,176.9746379064852 657.7953711462125,175.6471269183603 656.8056810076367,174.43351951075283 655.9172165615909,173.34453308788022 655.1606510566847,172.38898043936558 654.5674663146135,171.5737291354243 654.1527542844026,170.89417617200775 653.8624814658938,170.3081516419511 653.6226122963957,169.76862711656577 653.3561160300874,169.233927979467 652.9832036408983,168.66785843934872 652.4480629708562,168.0516140962286 651.8002005388543,167.41556438492842 651.1178143789573,166.79737276548224 650.4814886527766,166.22917574418602 649.9739508699776,165.73748364533662 649.6598574328054,165.33621425172657 649.524703788899,165.00878010537815 649.5330052317864,164.73358933947077 649.6481276529651,164.49166227706473 649.8324036258167,164.26667563558215 650.0542128070654,164.04673868328587 650.3092233283868,163.8286630825429 650.5999748931433,163.6110683120545 650.9289734300769,163.39240401162692 651.2986838135204,163.17095056763935 651.6885230388805,162.941177179281 651.9853737330577,162.6860302532084 652.051924209372,162.39351704339015 651.7499420759535,162.06120233276715 650.9406911532716,161.69624738091397 649.5393862484898,161.3192129200238 647.6781836499803,160.96785561815352 645.5448539098298,160.6725531106665 643.3283400064041,160.45058784903404 641.2181858865634,160.30611302230534 639.3733287893376,160.23067317316247 637.8297325345671,160.20909090909083 636.5921695439683,160.2253638068537 635.664844449389,160.2632155997751 635.0513827265098,160.30611302230534 635.0513827265098,160.30611302230534 635.0513827265098,160.30611302230534 635.0513827265098,160.30611302230534 635.0513827265098,160.30611302230534 635.0513827265098,160.30611302230534 635.1335033813922,160.2901503840227 635.1530736088514,160.28449795800168 635.131708733656,160.2875683023351 635.0907865039057,160.29628855718283 635.0513827265098,160.30611302230534 635.0513827265098,160.30611302230534 635.0513827265098,160.30611302230534 635.0513827265098,160.30611302230534 635.0513827265098,160.30611302230534 635.0513827265098,160.30611302230534 635.0569901385551,160.30396053849154 635.0583034004275,160.30331688854233 635.0568310543755,160.30380034433597 635.0540463252813,160.30492711172633 635.0513827265098,160.30611302230534 635.0513827265098,160.30611302230534 635.0513827265098,160.30611302230534 635.0513827265098,160.30611302230534 635.0513827265098,160.30611302230534 635.0513827265098,160.30611302230534 635.0517523684429,160.3058909190247 635.0518371993297,160.30582903616892 635.0517391230333,160.30588157569696 635.0515562737701,160.3059959632003 635.0513827265098,160.30611302230534 635.0513827265098,160.30611302230534 635.0513827265098,160.30611302230534 635.0513827265098,160.30611302230534 635.0513827265098,160.30611302230534 635.0513827265098,160.30611302230534 635.0514060933725,160.30609270980165 635.0514113199096,160.30608727669267 635.0514050403556,160.30609221430757 635.0513935379249,160.3061025818431 635.0513827265098,160.30611302230534 635.0513827265098,160.30611302230534 635.0513827265098,160.30611302230534 635.0513827265098,160.30611302230534 635.0513827265098,160.30611302230534 635.0513827265098,160.30611302230534 635.051384125444,160.30611129476563 635.051384427255,160.30611084545092 635.0513840448118,160.30611127285954 635.0513833607768,160.30611214931196 635.0513827265098,160.30611302230534 635.0513827265098,160.30611302230534 635.0513827265098,160.30611302230534 635.0513827265098,160.30611302230534 635.0513827265098,160.30611302230534 635.0513827265098,160.30611302230534 635.051382803885,160.3061128827169 635.0513828196232,160.30611284718475 635.0513827979108,160.30611288217324 635.0513827604725,160.3061129526717 635.0513827265098,160.30611302230534 635.0513827265098,160.30611302230534 635.0513827265098,160.30611302230534 635.0513827265098,160.30611302230534 635.0513827265098,160.30611302230534 635.0513827265098,160.30611302230534 635.0513827302407,160.30611301147042 635.0513827309106,160.30611300876149 635.0513827298116,160.30611301150577 635.0513827280434,160.3061130169574 635.0513827265098,160.30611302230534 635.0513827265098,160.30611302230534 635.0513827265098,160.30611302230534 635.0513827265098,160.30611302230534 635.0513827265098,160.30611302230534 635.0513827265098,160.30611302230534 635.0513827266398,160.3061130214852 635.0513827266543,160.30611302127738 635.051382726611,160.30611302148134 635.0513827265532,160.30611302189243 635.0513827265098,160.30611302230534 635.0513827265098,160.30611302230534 635.0513827265098,160.30611302230534 635.0513827265098,160.30611302230534 635.0513827265098,160.30611302230534 635.0513827265098,160.30611302230534" stroke="black" stroke-width="9.0" /><polyline fill="none" points="635.0513827265099,1014.2838191234893 619.9348889155494,1026.3294634438348 604.3943700811019,1038.208092033757 588.4238422422565,1050.0125864149313 572.0103219313316,1061.8352839232352 555.1338522041278,1073.7676668006611 537.7785715441223,1085.7950900983176 519.9804988951362,1097.483254718234 501.82001292130707,1108.2965678060184 483.4142909166743,1117.7050311175738 464.91705398504575,1125.185838506633 446.5116737965586,1130.2588297677598 428.4283808224626,1132.3909090909092 411.4946315539607,1128.6367872595483 394.62897983750867,1124.5877025243851 377.8365631140004,1120.244888275854 363.06673908314866,1108.8292877670863 349.7119826828557,1093.609236811785 337.966811548759,1074.6384068848392 328.0243613067003,1051.9773283701238 320.07618258699387,1025.693363093826 314.3082359513383,995.8705772617832 310.8879039670117,962.6388776576321 309.9728177763088,926.1432193388275 311.7141867692513,886.5333455133817 316.25668094289057,843.9635572190582 323.6870057528879,798.6976912622666 333.86522787024956,751.4172246559032 346.55346337359214,702.8917851466894 361.46440519249677,653.8700857140353 378.2623118832771,605.0778305511882 396.55405371966657,557.2323242837957 415.85788552954966,511.0890351278638 435.630725207971,467.3869965959706 455.27904335523345,426.82956659238596 474.16040341935656,390.08224442260314 491.69304024856774,357.62194375765955 507.7020536621646,329.3043806939784 522.1324508328253,304.8357550158072 534.9462015148773,283.92571665497644 546.1219812235455,266.28804675071615 555.6806472420494,251.61169958152414 563.7663085692053,239.47620850193482 570.5757042219316,229.4478132082262 576.3326631374265,221.1111271437693 581.2872306177984,214.07026513101698 585.6731410269338,207.99012675129654 589.5764619700573,202.7121626686121 593.0500731269785,198.12426205152917 596.1536192644651,194.11942293057348 598.9532660320918,190.596029426786 601.5091782815882,187.46805461996553 603.8370809169917,184.69339836752454 605.9424932205039,182.24123460355077 607.8325935111543,180.08172094807492 609.5161676692741,178.18606309518805 611.0044246301181,176.52599106247453 612.3136287558857,175.07218310308554 613.4625692248025,173.79630092360867 614.4716362413756,172.6716722347935 615.3627431385113,171.67335438841383 616.1562112125141,170.77987762126565 616.8613510085339,169.9779244489746 617.4851045061316,169.25657882848782 618.0349904824485,168.60556205955345 618.5190745219554,168.0152549450679 618.946084921746,167.47665359042276 619.3258300716021,166.98121409529176 619.6687410123084,166.52110369746867 619.9856918297734,166.08928992052302 620.2879636786752,165.6795581117159 620.5834016842447,165.28783840370863 620.8647798533672,164.91561971842373 621.1209024941087,164.56508823680383 621.3403950276294,164.2376754791551 621.5117366292933,163.9340502598577 621.6211307510017,163.6546509250395 621.6459784502406,163.4009944588746 621.5612897048272,163.173520811603 621.341899073333,162.9709666929284 620.9625395133776,162.79035620775187 620.4323452197544,162.6215410958962 619.8989314677466,162.43565116999935 619.5461582469462,162.2099152017296 619.5593552789308,161.93439071989803 620.1247619433433,161.61202312558294 621.3625391700341,161.26333021140317 623.1263601610003,160.93107697286393 625.2016784892597,160.65007227353635 627.3726038621068,160.44014660595303 629.4225559326,160.30611302230534 631.1729764110224,160.23841518825054 632.5980170371531,160.22043960458836 633.7104656206212,160.2358385345832 634.5236472885362,160.26921016557822 635.0513827265098,160.30611302230534 635.0513827265098,160.30611302230534 635.0513827265098,160.30611302230534 635.0513827265098,160.30611302230534 635.0513827265098,160.30611302230534 635.0513827265098,160.30611302230534 634.9811138355041,160.29245413354886 634.9643680097156,160.28761747328883 634.9826494772539,160.29024470137938 635.0176657555112,160.2977064372643 635.0513827265098,160.30611302230534 635.0513827265098,160.30611302230534 635.0513827265098,160.30611302230534 635.0513827265098,160.30611302230534 635.0513827265098,160.30611302230534 635.0513827265098,160.30611302230534 635.046584583748,160.30427118786417 635.0454608536035,160.30372043034515 635.0467207086838,160.30413411314544 635.0491035419122,160.30509826394348 635.0513827265098,160.30611302230534 635.0513827265098,160.30611302230534 635.0513827265098,160.30611302230534 635.0513827265098,160.30611302230534 635.0513827265098,160.30611302230534 635.0513827265098,160.30611302230534 635.0510664318001,160.3059229732704 635.0509938438214,160.30587002143204 635.0510777656143,160.30591497838418 635.0512342258248,160.30601285732848 635.0513827265098,160.30611302230534 635.0513827265098,160.30611302230534 635.0513827265098,160.30611302230534 635.0513827265098,160.30611302230534 635.0513827265098,160.30611302230534 635.0513827265098,160.30611302230534 635.0513627319845,160.30609564132953 635.0513582597482,160.30609099233436 635.0513636330285,160.30609521734596 635.0513734754128,160.3061040886247 635.0513827265098,160.30611302230534 635.0513827265098,160.30611302230534 635.0513827265098,160.30611302230534 635.0513827265098,160.30611302230534 635.0513827265098,160.30611302230534 635.0513827265098,160.30611302230534 635.0513815294719,160.30611154408655 635.0513812712186,160.30611115961756 635.0513815984671,160.30611152534198 635.0513821837812,160.30611227530358 635.0513827265098,160.30611302230534 635.0513827265098,160.30611302230534 635.0513827265098,160.30611302230534 635.0513827265098,160.30611302230534 635.0513827265098,160.30611302230534 635.0513827265098,160.30611302230534 635.0513826603016,160.3061129028623 635.0513826468349,160.30611287245836 635.0513826654136,160.30611290239733 635.0513826974488,160.3061129627214 635.0513827265098,160.30611302230534 635.0513827265098,160.30611302230534 635.0513827265098,160.30611302230534 635.0513827265098,160.30611302230534 635.0513827265098,160.30611302230534 635.0513827265098,160.30611302230534 635.0513827233175,160.30611301303406 635.0513827227443,160.3061130107161 635.0513827236846,160.3061130130642 635.0513827251976,160.30611301772922 635.0513827265098,160.30611302230534 635.0513827265098,160.30611302230534 635.0513827265098,160.30611302230534 635.0513827265098,160.30611302230534 635.0513827265098,160.30611302230534 635.0513827265098,160.30611302230534 635.0513827263987,160.30611302160366 635.0513827263862,160.30611302142586 635.0513827264232,160.30611302160025 635.0513827264728,160.306113021952 635.0513827265098,160.30611302230534 635.0513827265098,160.30611302230534 635.0513827265098,160.30611302230534 635.0513827265098,160.30611302230534 635.0513827265098,160.30611302230534 635.0513827265098,160.30611302230534" stroke="black" stroke-width="9.0" /><polyline fill="none" points="635.0513827265099,1014.2838191234893 649.9067047475365,1011.366941619504 664.6498737173736,1007.8959978287704 679.2453913733887,1003.5780327920432 693.637174895506,998.1219742162026 707.7486370096606,991.2395317458598 721.4925300671777,982.73869266257 734.8132033797583,972.8009407078307 747.6800905063693,961.7010102303769 760.0811824446411,949.7132003721725 772.0229679140616,937.1105739006863 783.5175870005963,924.0985204564247 794.5352905885037,910.6189079271295 805.0266779012148,896.5500032958674 814.9332614969621,881.7729226834418 824.1875861951127,866.1720339178152 832.711927197003,849.6303507861613 840.4134354127518,832.0151207883781 847.1873960333326,813.1936288187038 852.9186919485488,793.0387223549135 857.4820244459949,771.4292785413915 860.7632078349839,748.3055203844709 862.7302285822228,723.8310312007757 863.3835198170606,698.2229183806727 862.7366968233008,671.6957013616296 860.8164038141169,644.4607631536653 857.6872906938854,616.7773704013101 853.5344371376609,589.1032508844838 848.6000285683604,561.9327028959447 843.1593034313267,535.7427402240336 837.5197843771866,510.99167160853983 832.0005531589856,488.0845764390298 826.8670614545867,467.2753669022919 822.3820545892612,448.77005127160226 818.8237349689917,432.75982954878396 816.4851618137886,419.42040298149186 815.5597217333827,408.75452732564656 815.7770157000732,400.1371283939436 816.7067983261979,392.8144421616821 817.8688284616024,386.0668569255723 818.7344307577822,379.21104541222894 818.8017643540393,371.6867468614191 817.8301676443309,363.3025189973107 815.6409547763809,353.96471944533505 812.0472279169809,343.59067613202103 806.8543362940227,332.1090665898182 799.9535413627476,319.55027655877564 791.6145317004843,306.3036113737546 782.2273542813836,292.82395303377757 772.2111701401186,279.53729718264844 762.0129618656932,266.8395272516793 752.0341801686408,255.03691454942873 742.4052570069051,244.18015194738746 733.1867538406719,234.2564193837229 724.4392029947987,225.25016593291684 716.2230083470903,217.14309717057222 708.5859887048612,209.90583103735537 701.5250587185731,203.47462295930222 695.0212903509463,197.77947033364921 689.0521005748885,192.7530177766148 683.5913854969216,188.33069668826772 678.6128508933135,184.45262912173632 674.0999740652079,181.06861733018582 670.0369741671266,178.13216222691403 666.4057756537638,175.59867224762615 663.1861027513007,173.42554842991206 660.3513426637187,171.57038092350763 657.8556854203961,169.9859652170809 655.646511442649,168.62708514807628 653.6687401992253,167.45264698347864 651.8650165945575,166.42577528012475 650.1868509736481,165.51767267986406 648.6281761433995,164.71748061513802 647.1934983049136,164.0183302924405 645.8870799947069,163.41319921544016 644.7129354497546,162.89491827212953 643.6718410069727,162.45543466896618 642.7522751116201,162.08400411730838 641.9392188624237,161.77016778870177 641.2171644893037,161.5046195874329 640.5701670631303,161.27922360156288 639.9815104164892,161.0869685372113 639.4325928252563,160.92185194658975 638.9041281710632,160.77917067998567 638.3765904882824,160.65560644120592 637.8302748935887,160.54923458408575 637.2549179390095,160.46019921472077 636.6785181582691,160.39138757687658 636.1387843765777,160.3440859246723 635.6734922925305,160.3169719851728 635.3203709095817,160.30611302230534 635.1050341678161,160.30517653291383 635.0513827265098,160.30611302230534 635.0513827265098,160.30611302230534 635.0513827265098,160.30611302230534 635.0513827265098,160.30611302230534 635.0737837702916,160.30375857772958 635.0791655519158,160.30270172028725 635.0733630004348,160.30302389626104 635.0621821791385,160.3044025570449 635.0513827265098,160.30611302230534 635.0513827265098,160.30611302230534 635.0513827265098,160.30611302230534 635.0513827265098,160.30611302230534 635.0513827265098,160.30611302230534 635.0513827265098,160.30611302230534 635.052937261307,160.3056672666254 635.0533046094002,160.3055254437396 635.0528983507951,160.30562056612314 635.0521249877571,160.30585744126165 635.0513827265098,160.30611302230534 635.0513827265098,160.30611302230534 635.0513827265098,160.30611302230534 635.0513827265098,160.30611302230534 635.0513827265098,160.30611302230534 635.0513827265098,160.30611302230534 635.0514870840666,160.30606212372402 635.051511289627,160.30604751612532 635.0514837506265,160.30605930682964 635.0514320224195,160.3060856971365 635.0513827265098,160.30611302230534 635.0513827265098,160.30611302230534 635.0513827265098,160.30611302230534 635.0513827265098,160.30611302230534 635.0513827265098,160.30611302230534 635.0513827265098,160.30611302230534 635.0513894706451,160.30610812240445 635.0513910000052,160.30610678777953 635.0513891998314,160.30610796479232 635.051385871354,160.30611047566072 635.0513827265098,160.30611302230534 635.0513827265098,160.30611302230534 635.0513827265098,160.30611302230534 635.0513827265098,160.30611302230534 635.0513827265098,160.30611302230534 635.0513827265098,160.30611302230534 635.0513831422719,160.30611259177124 635.0513832337676,160.30611247833804 635.0513831211588,160.30611258400359 635.0513829171193,160.30611280303424 635.0513827265098,160.30611302230534 635.0513827265098,160.30611302230534 635.0513827265098,160.30611302230534 635.0513827265098,160.30611302230534 635.0513827265098,160.30611302230534 635.0513827265098,160.30611302230534 635.0513827505391,160.30611298668055 635.0513827555942,160.30611297751932 635.0513827489494,160.3061129863945 635.0513827372533,160.30611300442513 635.0513827265098,160.30611302230534 635.0513827265098,160.30611302230534 635.0513827265098,160.30611302230534 635.0513827265098,160.30611302230534 635.0513827265098,160.30611302230534 635.0513827265098,160.30611302230534 635.0513827277647,160.30611301948704 635.051382728008,160.30611301877616 635.0513827276488,160.3061130194866 635.0513827270466,160.30611302090733 635.0513827265098,160.30611302230534 635.0513827265098,160.30611302230534 635.0513827265098,160.30611302230534 635.0513827265098,160.30611302230534 635.0513827265098,160.30611302230534 635.0513827265098,160.30611302230534 635.0513827265635,160.30611302209047 635.0513827265718,160.30611302203693 635.0513827265553,160.3061130220915 635.0513827265305,160.3061130221996 635.0513827265098,160.30611302230534 635.0513827265098,160.30611302230534 635.0513827265098,160.30611302230534 635.0513827265098,160.30611302230534 635.0513827265098,160.30611302230534 635.0513827265098,160.30611302230534 635.0513827265111,160.3061130222875 635.0513827265111,160.30611302228135 635.0513827265105,160.3061130222843 635.05138272651,160.3061130222934 635.0513827265098,160.30611302230534" stroke="black" stroke-dasharray="8.0,8.0" stroke-width="7.0" /><polyline fill="none" points="635.0513827265099,1014.2838191234893 620.1960607054831,1011.366941619504 605.4528917356463,1007.8959978287704 590.8573740796313,1003.5780327920432 576.465590557514,998.1219742162026 562.3541284433592,991.2395317458598 548.6102353858423,982.73869266257 535.2895620732617,972.8009407078308 522.4226749466503,961.7010102303769 510.0215830083789,949.7132003721725 498.07979753895796,937.1105739006863 486.5851784524236,924.0985204564247 475.5674748645158,910.6189079271294 465.076087551805,896.5500032958676 455.1695039560577,881.7729226834418 445.9151792579072,866.1720339178152 437.3908382560168,849.6303507861613 429.6893300402678,832.0151207883781 422.9153694196873,813.193628818704 417.1840735044707,793.0387223549134 412.62074100702495,771.4292785413917 409.3395576180357,748.3055203844709 407.372536870797,723.8310312007757 406.7192456359593,698.2229183806727 407.366068629719,671.6957013616296 409.2863616389028,644.4607631536653 412.41547475913427,616.7773704013101 416.5683283153589,589.1032508844838 421.50273688465927,561.9327028959445 426.94346202169305,535.7427402240337 432.5829810758331,510.99167160853983 438.10221229403425,488.0845764390299 443.235703998433,467.2753669022919 447.72071086375865,448.77005127160226 451.27903048402794,432.75982954878396 453.61760363923094,419.42040298149175 454.5430437196371,408.75452732564656 454.3257497529464,400.1371283939436 453.39596712682186,392.8144421616821 452.2339369914171,386.0668569255723 451.3683346952376,379.21104541222894 451.3010010989805,371.6867468614191 452.2725978086888,363.3025189973108 454.46181067663895,353.96471944533505 458.0555375360388,343.5906761320209 463.2484291589971,332.1090665898182 470.149224090272,319.55027655877564 478.4882337525354,306.30361137375473 487.87541117163613,292.82395303377757 497.89159531290113,279.53729718264856 508.0898035873264,266.8395272516793 518.068585284379,255.03691454942884 527.6975084461144,244.18015194738734 536.9160116123478,234.2564193837229 545.663562458221,225.25016593291684 553.8797571059296,217.14309717057222 561.5167767481586,209.90583103735537 568.5777067344467,203.47462295930222 575.0814751020733,197.77947033364921 581.0506648781313,192.7530177766148 586.5113799560982,188.33069668826772 591.4899145597061,184.45262912173632 596.0027913878118,181.06861733018582 600.0657912858932,178.13216222691403 603.6969897992558,175.59867224762615 606.916662701719,173.42554842991206 609.7514227893009,171.57038092350763 612.2470800326237,169.9859652170809 614.4562540103708,168.62708514807628 616.4340252537944,167.45264698347864 618.2377488584623,166.42577528012475 619.9159144793716,165.51767267986406 621.4745893096202,164.71748061513802 622.909267148106,164.0183302924405 624.2156854583128,163.41319921544016 625.389830003265,162.89491827212953 626.430924446047,162.45543466896618 627.3504903413996,162.08400411730838 628.163546590596,161.77016778870177 628.885600963716,161.5046195874329 629.5325983898894,161.27922360156288 630.1212550365306,161.0869685372113 630.6701726277633,160.92185194658975 631.1986372819565,160.77917067998567 631.7261749647372,160.65560644120592 632.272490559431,160.54923458408575 632.8478475140103,160.46019921472077 633.4242472947506,160.3913875768768 633.963981076442,160.3440859246723 634.4292731604893,160.3169719851728 634.782394543438,160.30611302230534 634.9977312852036,160.30517653291383 635.0513827265098,160.30611302230534 635.0513827265098,160.30611302230534 635.0513827265098,160.30611302230534 635.0513827265098,160.30611302230534 635.0289816827282,160.30375857772958 635.0235999011039,160.30270172028725 635.0294024525849,160.30302389626104 635.0405832738811,160.3044025570449 635.0513827265098,160.30611302230534 635.0513827265098,160.30611302230534 635.0513827265098,160.30611302230534 635.0513827265098,160.30611302230534 635.0513827265098,160.30611302230534 635.0513827265098,160.30611302230534 635.0498281917128,160.3056672666254 635.0494608436195,160.3055254437396 635.0498671022245,160.30562056612314 635.0506404652626,160.30585744126165 635.0513827265098,160.30611302230534 635.0513827265098,160.30611302230534 635.0513827265098,160.30611302230534 635.0513827265098,160.30611302230534 635.0513827265098,160.30611302230534 635.0513827265098,160.30611302230534 635.0512783689531,160.30606212372402 635.0512541633927,160.30604751612532 635.0512817023931,160.30605930682964 635.0513334306002,160.3060856971365 635.0513827265098,160.30611302230534 635.0513827265098,160.30611302230534 635.0513827265098,160.30611302230534 635.0513827265098,160.30611302230534 635.0513827265098,160.30611302230534 635.0513827265098,160.30611302230534 635.0513759823747,160.30610812240445 635.0513744530144,160.30610678777953 635.0513762531883,160.30610796479232 635.0513795816657,160.30611047566072 635.0513827265098,160.30611302230534 635.0513827265098,160.30611302230534 635.0513827265098,160.30611302230534 635.0513827265098,160.30611302230534 635.0513827265098,160.30611302230534 635.0513827265098,160.30611302230534 635.0513823107478,160.30611259177124 635.0513822192521,160.30611247833804 635.051382331861,160.30611258400359 635.0513825359004,160.30611280303424 635.0513827265098,160.30611302230534 635.0513827265098,160.30611302230534 635.0513827265098,160.30611302230534 635.0513827265098,160.30611302230534 635.0513827265098,160.30611302230534 635.0513827265098,160.30611302230534 635.0513827024805,160.30611298668055 635.0513826974255,160.30611297751932 635.0513827040703,160.3061129863945 635.0513827157664,160.30611300442513 635.0513827265098,160.30611302230534 635.0513827265098,160.30611302230534 635.0513827265098,160.30611302230534 635.0513827265098,160.30611302230534 635.0513827265098,160.30611302230534 635.0513827265098,160.30611302230534 635.051382725255,160.30611301948704 635.0513827250118,160.30611301877616 635.0513827253709,160.3061130194866 635.0513827259731,160.30611302090733 635.0513827265098,160.30611302230534 635.0513827265098,160.30611302230534 635.0513827265098,160.30611302230534 635.0513827265098,160.30611302230534 635.0513827265098,160.30611302230534 635.0513827265098,160.30611302230534 635.0513827264563,160.30611302209047 635.0513827264479,160.30611302203693 635.0513827264645,160.3061130220915 635.0513827264892,160.3061130221996 635.0513827265098,160.30611302230534 635.0513827265098,160.30611302230534 635.0513827265098,160.30611302230534 635.0513827265098,160.30611302230534 635.0513827265098,160.30611302230534 635.0513827265098,160.30611302230534 635.0513827265086,160.3061130222875 635.0513827265086,160.30611302228135 635.0513827265091,160.3061130222843 635.0513827265096,160.3061130222934 635.0513827265098,160.30611302230534" stroke="black" stroke-dasharray="8.0,8.0" stroke-width="7.0" /></g><rect fill="white" height="111.60000000000001" stroke="none" width="1181" x="0" y="0" /><line stroke="black" stroke-width="3.0" x1="0" x2="1181" y1="111.60000000000001" y2="111.60000000000001" /><text font-family="Arial" font-size="62.0" text-anchor="start" x="40.0" y="77.5">LED</text><text font-family="Arial" font-size="62.0" text-anchor="middle" x="590.5" y="77.5" /><text font-family="Arial" font-size="62.0" text-anchor="end" x="1141.0" y="77.5">cd / klm</text><rect fill="none" height="1178.0" stroke="black" stroke-width="3.0" width="1178.0" x="1.5" y="1.5" /></svg>