<?xml version="1.0" encoding="utf-8" ?>
<svg baseProfile="full" height="1181" version="1.1" width="1181" xmlns="http://www.w3.org/2000/svg" xmlns:ev="http://www.w3.org/2001/xml-events" xmlns:xlink="http://www.w3.org/1999/xlink"><defs><clipPath id="plot_clip"><rect height="1069.4" width="1181.0" x="0" y="111.60000000000001" /></clipPath></defs><g clip-path="url(#plot_clip)" id="grid"><circle cx="438.23595464014596" cy="173.4064467490988" fill="none" r="217.6149424616903" stroke="black" stroke-width="3.0" /><text font-family="Arial" font-size="42.0" text-anchor="start" x="446.23595464014596" y="431.02138921078915">200</text><circle cx="438.23595464014596" cy="173.4064467490988" fill="none" r="435.2298849233806" stroke="black" stroke-width="3.0" /><text font-family="Arial" font-size="42.0" text-anchor="start" x="446.235954640146" y="648.6363316724794">400</text><circle cx="438.23595464014596" cy="173.4064467490988" fill="none" r="652.844827385071" stroke="black" stroke-width="3.0" /><text font-family="Arial" font-size="42.0" text-anchor="start" x="446.235954640146" y="866.2512741341698">600</text><circle cx="438.23595464014596" cy="173.4064467490988" fill="none" r="870.4597698467612" stroke="black" stroke-width="3.0" /><text font-family="Arial" font-size="42.0" text-anchor="start" x="446.2359546401461" y="1083.86621659586">800</text><circle cx="438.23595464014596" cy="173.4064467490988" fill="none" r="1088.0747123084516" stroke="black" stroke-width="3.0" /><text font-family="Arial" font-size="42.0" text-anchor="start" x="446.2359546401461" y="1301.4811590575503">1000</text><line stroke="black" stroke-width="3.0" x1="-4525.832901589088" x2="5402.304810869379" y1="173.40644674909856" y2="173.40644674909902" /><line stroke="black" stroke-width="3.0" x1="-3860.7737809895316" x2="4737.245690269823" y1="-2308.6279813655187" y2="2655.440874863716" /><line stroke="black" stroke-width="3.0" x1="-2043.79847347447" x2="2920.270382754762" y1="-4125.6032888805785" y2="4472.416182378776" /><line stroke="black" stroke-width="3.0" x1="438.23595464014596" x2="438.23595464014596" y1="-4790.662409480134" y2="5137.4753029783315" /><line stroke="black" stroke-width="3.0" x1="2920.270382754762" x2="-2043.79847347447" y1="-4125.6032888805785" y2="4472.416182378776" /><line stroke="black" stroke-width="3.0" x1="4737.245690269823" x2="-3860.773780989531" y1="-2308.6279813655187" y2="2655.440874863716" /><line stroke="black" stroke-width="3.0" x1="5402.304810869378" x2="-4525.832901589087" y1="173.40644674909856" y2="173.40644674909902" /></g><g clip-path="url(#plot_clip)" id="curves"><polyline fill="none" points="438.23595464014596,296.15215504461514 439.94566552796726,271.3557179120737 441.01503755863007,252.98896909703342 442.1189991603936,247.49935000447908 444.38172368142045,261.2950386991978 449.3749166284093,300.72536487341995 458.8530755647258,369.56524922232984 473.615205154108,461.547319296904 493.68130301538116,567.9205998252924 518.4693866820321,679.9803998311344 546.7983587206971,789.0944353051202 577.1062474537786,887.8321693424449 608.2520717082705,973.2693902044115 639.1452217306737,1043.6400900718306 668.5714806456809,1097.2317827680486 695.1950668786287,1132.3909090909092 711.8925173650541,1127.7602962477995 728.5066094115032,1122.8389779770991 745.0322822045943,1117.6284533600272 761.4645018643059,1112.1303095728576 774.1698641540837,1096.3772775677546 783.8835544101566,1073.8492291476134 792.9195255012489,1051.2790901101614 801.0487146605927,1028.1397457943137 808.0046113739934,1003.9204476104846 813.4839869946928,978.1284490410193 817.2421858291299,950.4843785383639 819.4044192407044,921.4916797414231 820.2294867008702,891.8317920868257 820.021193948036,862.1652507182608 819.1273884308424,833.1297622423424 817.8726456939594,805.2280024174026 816.3430040504876,778.5042135942994 814.557401454168,752.890657830024 812.5301257764238,728.3203756175723 810.2708794399267,704.7273830403584 807.8028218329318,682.0716011584204 805.2199920563027,660.4107132195605 802.6393342150941,639.8215031789318 800.1833474587139,620.3742529560238 797.9798239311516,602.1324953903966 796.1160350298262,585.1003848031021 794.4945639177091,569.071716728404 792.9573253348204,553.7985454591342 791.329822433361,539.0458504625327 789.4217413184998,524.5922334274526 787.0499703615591,510.2522262266458 784.1094375040772,495.93868741469055 780.5116221483514,481.5928420382297 776.1631858876707,467.16210721952905 770.9662434594936,452.6003093789234 764.7689535570355,437.82765558327833 757.2111841893637,422.61720880758355 747.8645582651772,406.7283350384139 736.281939853458,389.9495303078269 721.9986978580355,372.09925861333124 704.6577098960355,353.1101897413049 684.3933155104713,333.2629060197479 661.480626553878,312.905200205043 636.2138640728509,292.3635759646163 608.905392596691,271.9424926957521 580.1396460676364,252.06494734191745 551.5562809324457,233.65993303767095 525.1162544995261,217.67417058716023 502.84619030135644,204.91896423599133 486.8324698513437,196.06737395172615 478.5288332604469,191.3459921245119 476.64926945369973,189.71193149458384 479.1535002107946,189.93820825644616 483.92876387118076,190.94627287262745 488.79639286323504,191.8089412937585 491.98278914405194,191.9129659957033 493.5408465160687,191.3760954176173 493.9981274255228,190.4546538343876 493.8967655971538,189.3669274586141 493.7917863891602,188.29258700108653 494.12925460254394,187.34221160103834 494.8800616194476,186.48376926533308 495.89258447150024,185.66174174353273 497.0121903042627,184.83138960744122 498.0817100803871,183.95886811409378 498.9462233863386,183.0220086864167 499.4665512403138,182.01184590461185 499.50693914622013,180.9295776777658 498.9311824556304,179.78577225292133 497.6030340345701,178.60039318275437 495.43456256776426,177.40616304908406 492.530820517328,176.25192009619252 489.04672620681634,175.1807979906763 485.1387910406723,174.22513880378767 480.9646485924988,173.4064467490988 476.67806532375283,172.7354372111388 472.41493271672124,172.21289053422322 468.3064121807658,171.83052084737005 464.4830622904266,171.57107018837655 461.07444948843005,171.40833735787874 458.16222122673105,171.31211173781583 455.6408429264264,171.2693951833038 453.3585056308932,171.28111081002976 451.1642715620079,171.35880250909145 448.9085369890234,171.52458252715883 446.5000810002454,171.80006331246955 444.0746830342107,172.16538671713135 441.82254166859025,172.5784178895275 439.9307619159465,172.98388383581937 438.5827844637777,173.31351397794572 438.23595464014596,173.4064467490988 438.23595464014596,173.4064467490988 438.23595464014596,173.4064467490988 438.3061228740797,173.38228588857964 438.6551615091342,173.25386792678728 438.85227977400996,173.16986169632003 438.909938523556,173.13413958441095 438.8770104988248,173.1343346813061 438.80122388910297,173.15477266454036 438.72901993246734,173.17652662731882 438.6957271784203,173.18220069885479 438.69703854745285,173.17151276397362 438.7191853305403,173.14950843334782 438.7488219678584,173.12215974715332 438.7730658351285,173.09634545609094 438.78234334012194,173.07814329660152 438.77861040753095,173.0673577914231 438.7665279871599,173.06188838879973 438.7505843554068,173.05932462313524 438.73508187010486,173.05695410015585 438.7233008840418,173.0523689770448 438.71510220176674,173.0453831634427 438.70953868969264,173.03644233824525 438.70570141933706,173.02605330766505 438.7027222489007,173.01478222074718 438.69998217307324,173.00307376874355 438.6977060387791,172.99068392230936 438.6963016020024,172.97716626231 438.69614623738505,172.96204488938452 438.69758564465246,172.94481574459223 438.70070015552625,172.92518867972433 438.70464008699213,172.903843141057 438.70838311231523,172.8817617755459 438.7109779569984,172.85999493269844 438.71154728171587,172.83965750989648 438.70952290949504,172.82163863985443 438.7053054877418,172.8057050591559 438.699497156351,172.79130505336798 438.69265757203993,172.7778490906138 438.68530233164404,172.76471173915172 438.6777004500796,172.7515316532871 438.6693117345268,172.73913534264125 438.6594633118272,172.72869119845893 438.6475631072244,172.72141522257834 438.6331019101385,172.71856749938433 438.6160045363543,172.7208185869531 438.59759091745553,172.7263078315333 438.57937267142336,172.7324509131339 438.5626776909564,172.73656522288968 438.5486460057666,172.73587795154162 438.5378020920292,172.72848627205974 438.52891322360364,172.71627957717158 438.5204945570895,172.70218574139972 438.5112700908046,172.68922547924672 438.5001765031734,172.6805031467046 438.4867806924968,172.67799499945704 438.4723566541307,172.6788761625029 438.45834835966895,172.6790296692626 438.4459097499714,172.6742462665353 438.43590090535423,172.6602371285578 438.4281167306662,172.6357267002919 438.41941119164227,172.61180912231316 438.4067586817459,172.60287691216695 438.38813900977965,172.6235260391319 438.3625459080877,172.68851199269852 438.3309915560235,172.80640727752677 438.29862408355785,172.9605304889268 438.2701904848411,173.127618169647 438.2488079852798,173.28415533903944 438.23595464014596,173.4064467490988 438.23595464014596,173.4064467490988 438.23595464014596,173.4064467490988 438.23595464014596,173.4064467490988 438.23595464014596,173.4064467490988 438.23595464014596,173.4064467490988" stroke="black" stroke-width="9.0" /><polyline fill="none" points="438.23595464014596,296.15215504461514 436.08142254890606,296.839507588469 433.89993084310174,297.5739224420064 431.68324453784396,298.4396038861812 429.4172184392229,299.5202499644836 427.081819538328,300.8987943549446 424.65997641986684,302.5732513594222 422.17577665374364,304.20609996529083 419.68845779761756,305.37874420844184 417.38153316332256,305.0760819360644 415.08675740399235,304.6920681732412 413.21300106388435,302.1383830612938 411.71048206516457,298.1989836935011 410.5858185442492,293.17234416914914 409.8254580742045,287.35472468806233 409.3958179922825,281.03930201615435 409.25137641344287,274.48768350553996 409.3624812271094,267.84732286686153 409.69848163425473,261.2357576119135 410.22087373692545,254.7681494471999 410.88340966476716,248.556946433569 411.6442624341815,242.68017332656018 412.5066564345571,237.08869448537928 413.49041611127757,231.70328223591628 414.62093941454833,226.44663936209906 415.92910442505956,221.24364141012165 417.4354654806356,216.05376957957128 419.0985610556435,210.96569644603017 420.8542028555562,206.0967673444576 422.630225757679,201.55992690888775 424.34668093752856,197.46337448226245 425.9311893490068,193.88501515828045 427.36810526417213,190.7986413618869 428.65929882757524,188.15320350538764 429.809843575017,185.89867013061223 430.8279586705871,183.9861614269779 431.7245846594402,182.36857866804098 432.51216174447796,181.00217647132274 433.20552659973714,179.8451010257695 433.8221882070892,178.8569943668905 434.38225544154295,177.99910661381148 434.90352980041314,177.23996300416593 435.38616228791943,176.57146180014604 435.8257558183066,175.99106855057778 436.21800393346774,175.49609587759926 436.55869532377216,175.0837060654726 436.8455627492587,174.7491325907115 437.08406726359493,174.48059910526422 437.2822849783477,174.26513476950606 437.44909529875576,174.0904531390961 437.59414917810807,173.94498547558237 437.725723471451,173.8196238027465 437.84411235120984,173.71258749730202 437.94753470879766,173.62378675649677 438.0341895800637,173.55303764591417 438.102259846407,173.50006085149437 438.1508159924869,173.46387349205736 438.1826035844859,173.4410933297495 438.2014860088711,173.42798514038475 438.2115532533479,173.42110858147544 438.21710863330446,173.4173274962219 438.2218440691726,173.41426836631058 438.2263310052562,173.41156372653666 438.2303382598874,173.4093084377747 438.2336276440132,173.40758170094614 438.23595464014596,173.4064467490988 438.23595464014596,173.4064467490988 438.23595464014596,173.4064467490988 438.23595464014596,173.4064467490988 438.23595464014596,173.4064467490988 438.23595464014596,173.4064467490988 438.23568318457126,173.406540218749 438.2356689676257,173.40653956972733 438.23579197061997,173.4064964821639 438.23592911512253,173.40645406828162 438.23595464014596,173.4064467490988 438.23578846773125,173.40648818053512 438.2355421527721,173.4065419793127 438.2353777427379,173.4065693724284 438.2354597470475,173.40654294657236 438.23595464014596,173.4064467490988 438.23595464014596,173.4064467490988 438.23595464014596,173.4064467490988 438.23595464014596,173.4064467490988 438.23595464014596,173.4064467490988 438.23595464014596,173.4064467490988 438.23198591199485,173.4067242696059 438.2263271911424,173.4069513023212 438.2193868215103,173.40702531007446 438.21157697337276,173.40687226285525 438.2033123987767,173.4064467490988 438.19501890085456,173.4057322131116 438.1871611994579,173.4047428446038 438.1802123905029,173.4035254215828 438.17464280448434,173.40215940789653 438.1709185845742,173.40075683151588 438.16930508379795,173.3994415984481 438.16928299947773,173.39826050097474 438.1701395562865,173.39719704227718 438.1711664457688,173.3961853071928 438.1716619753937,173.39511021764133 438.17109615961533,173.39383953760307 438.16959708201955,173.39234201470276 438.1674547276384,173.3906322982059 438.1649561625891,173.38874484048472 438.1623846775574,173.38673373703602 438.15998767876874,173.38466357345385 438.15788335809634,173.3825779628355 438.1561561469362,173.38051864692534 438.15488800801444,173.37853326913955 438.1541581779044,173.37667527157464 438.15392810680635,173.3749597130311 438.15370308247657,173.37321496268453 438.1528883534377,173.37118720231513 438.1509072305458,173.3685812027337 438.14720288752807,173.36506112717848 438.1414767650232,173.36036681050302 438.1343838060803,173.35469382421604 438.1267936358106,173.3484048135241 438.1195474720097,173.34192120214698 438.1134555956762,173.3357218927987 438.1089452647366,173.33013181716808 438.10503922485617,173.32464171839183 438.10045705463176,173.318453588206 438.0939758122408,173.31068082046556 438.08443387390844,173.3003507663841 438.0712077510441,173.2867511278098 438.0555863870351,173.2705295214572 438.03926667591776,173.25277726974048 438.0238637169972,173.2346989059473 438.01090597163915,173.21760849435782 438.00148991888636,173.20262967642213 437.9952953399366,173.18975614189242 437.9916786140355,173.17865566956914 437.9900252210697,173.16895546970215 437.9897514377424,173.16024354669537 437.9902468921589,173.1520089277251 437.9907074984511,173.14345138812234 437.99032983052,173.13365276157572 437.98837484245115,173.12163877156456 437.9841703004913,173.10638185775645 437.97750173139724,173.0872839869869 437.9697130234605,173.06567301968073 437.9624214946466,173.04345600482247 437.9571079931629,173.02264726560736 437.95511233295963,173.00536236788184 437.9571714260262,172.9931336371685 437.96213786090124,172.98480588423536 437.96851890791334,172.9784601125076 437.9749616655409,172.97208149642609 437.98025708275344,172.96356558832383 437.98366039760697,172.9512958871785 437.9857644834835,172.93590750009457 437.9874105297935,172.9186514670397 437.9893493674784,172.90083101119478 437.9922393110593,172.88379753923812 437.9965516287559,172.86873878173344 438.0023202537981,172.8560386272834 438.00946929176456,172.84587584082874 438.0179127041371,172.8384280859575 438.0275542974764,172.83387151340753 438.0380879036327,172.8318000205869 438.0484791966003,172.8294566628739 438.05770897147977,172.82343143700848 438.06499642325207,172.81024459420973 438.0698021099024,172.7863570644239 438.0725637438823,172.75112165765142 438.0764865335468,172.71571449264695 438.08461978765786,172.6944722454699 438.09901151253536,172.70193543199036 438.12069990366166,172.75280465745072 438.14873659283006,172.8557736707512 438.1781279431064,172.9949884198379 438.2042456713749,173.14819792255355 438.22402117936065,173.29290745398714 438.23595464014596,173.4064467490988 438.23595464014596,173.4064467490988 438.23595464014596,173.4064467490988 438.23595464014596,173.4064467490988 438.23595464014596,173.4064467490988 438.23595464014596,173.4064467490988" stroke="black" stroke-width="9.0" /><polyline fill="none" points="438.23595464014596,296.15215504461514 440.3996272133806,297.36316545123987 442.6031678132267,298.4670693139244 444.83870194571364,299.3943706011646 447.09355292290917,300.07600362691994 449.35026031888316,300.44354196594225 451.59051870256695,300.46663636623543 453.8121428323998,300.2643194141415 456.0264194934994,299.99218171379084 458.2554483890083,299.80455572900576 460.53207788412493,299.8540451506326 462.8896723672489,300.23882929066497 465.3242797343973,300.8469966028547 467.8123258693032,301.5157851770655 470.3190271820942,302.0846223895925 472.7984970753796,302.3956111561463 475.04740349636296,301.78322518898096 477.2822806488438,301.1212244168338 479.5052639121722,300.4203204862081 481.7156761441115,299.6807268992311 483.9128440316832,298.90266894327385 485.87068852823637,297.4991711005624 487.7567236778495,295.97465116538353 489.58566106800004,294.3787741215141 491.3755616180101,292.7599581721987 493.14777732484055,291.1652305142203 494.9203413434675,289.6266625644855 496.6863937098112,288.12189251861264 498.430538442032,286.6159935758136 500.13496811031604,285.0752230534748 501.77951783895946,283.46712670340787 503.3461146549834,281.767950154352 504.8330289897719,279.9840443639192 506.2435034698918,278.12888846693386 507.581602151726,276.21559708601 508.8521925471029,274.2568861595464 510.05712632826294,272.2598089676792 511.18309293098224,270.2105688699811 512.2117607568179,268.0911607728706 513.1234427297569,265.88479285101187 513.8971487063661,263.5759465974844 514.516501168217,261.157177560544 514.9883095644518,258.64857267064497 515.326631077299,256.07607599493883 515.5470974415431,253.4644787137372 515.6668617960437,250.8373539049967 515.701395981162,248.2139538875939 515.6545704795839,245.60047396727077 515.527327265912,242.99991125067004 515.3207169662165,240.41520832686797 515.0358965520543,237.8492496818177 514.6727688058613,235.303758408789 514.2257535430314,232.7761843930591 513.6876048601583,230.2633433593286 513.0507528323402,227.76257935986655 512.3073268646731,225.27177994625004 511.451638250826,222.791048910943 510.4878091271141,220.32734967553756 509.4228008748699,217.8889252202598 508.2639942262082,215.48353796406673 507.01916810987876,213.11845356157653 505.69745208277516,210.80096540610612 504.3123006863474,208.53986315159182 502.8786701985983,206.34355545055985 501.4120226917923,204.2194739553413 499.9282840154003,202.17405238620051 498.439646084279,200.21085714149103 496.9418053074377,198.32560192152596 495.4259748409794,196.5127147662779 493.88300497806546,194.76734802963153 492.30341618184366,193.0853933926095 490.6818117595085,191.46500355793967 489.03025447046406,189.910515220329 487.36548639506685,188.4268519722757 485.70455896149014,187.01785000665484 484.0647863354877,185.68624519192747 482.4352286488917,184.42656346481795 480.69027902024817,183.20779982419094 478.67358644297974,182.00173072718758 476.22673690983675,180.79110675106506 473.1897333771319,179.5697410181433 469.4691924983153,178.35330564678804 465.2433862834408,177.20209373541536 460.7615058022447,176.172236657633 456.27560811830557,175.3024907323786 452.03985743525266,174.61413175608448 448.27430507987145,174.10839659252053 445.0574482178968,173.76394607890222 442.43159929678245,173.55296188902253 440.4381181899363,173.44488565684298 439.1172951571158,173.4064467490988 438.4747933369137,173.40227780413943 438.381331925345,173.401370062433 438.6733842195705,173.38352203624845 439.1871159406808,173.3399350717084 439.75888227478475,173.2732078456977 440.2607667177398,173.19363042412658 440.70564666669446,173.10320669805367 441.1412976187617,172.99812742178744 441.6150973587212,172.87124312084063 442.1738803562227,172.71208419732875 442.8516657762021,172.5092433915819 443.6334759966547,172.25916816801873 444.49227646805457,171.9620610455902 445.40125616121196,171.61993643108224 446.3339055222147,171.23660734990153 447.26228782272426,170.81818735867284 448.15177226222255,170.3748770702815 448.9666734372676,169.91982485717733 449.6721823602843,169.4686377531865 450.2344731952107,169.03934313976458 450.6319633947331,168.64806481022868 450.88827045465393,168.29457934248876 451.03768886141523,167.97243296836132 451.11379232437895,167.672864007331 451.14933464604354,167.38483875968313 451.1715379268421,167.09734122806913 451.1884740197982,166.80680849009616 451.20340908121113,166.51152891814388 451.21948301360186,166.20955945189837 451.2396993607749,165.89873123417055 451.2648736911831,165.57788238283274 451.2876725388118,165.25082824445622 451.2990497779987,164.92317357591583 451.2903571744502,164.60114105742127 451.2533710571993,164.29155364586325 451.1827430803815,164.00005434617958 451.0830508461162,163.7254653710297 450.9610931830636,163.46447891021057 450.8233862687084,163.21334559735521 450.6761449270488,162.96788766758334 450.5241566980005,162.72447566859978 450.3675767842694,162.48308510663685 450.20548055239544,162.24468326201054 450.0370071015405,162.01030285622073 449.86136210363577,161.78103928560904 449.6777307215285,161.55814077322327 449.4850238734487,161.34329688640355 449.28217389249505,161.1383774058928 449.06823155931687,160.94533760301533 448.84236994809777,160.76621320130107 448.6035212668118,160.60356820164145 448.34934355064314,160.4618992399936 448.07743888295107,160.34635604762536 447.7857453478461,160.2622874747367 447.4725460764956,160.21522710018473 447.1376835540314,160.20909090909106 446.7859338828203,160.24063327196268 446.4229480193126,160.30451855538797 446.05397047155486,160.3950834081934 445.6838260458973,160.50635506609797 445.31537159771904,160.6348404781586 444.9452658219668,160.78806764520425 444.5692573326948,160.9766403501584 444.1838317663396,161.21149142802244 443.7862263799129,161.50385059246014 443.376719521768,161.86009977898038 442.9647544541538,162.2660925197614 442.56085067369224,162.70195343407602 442.174122592708,163.1471684809518 441.8122533777431,163.5806467223266 441.4787999391465,163.98854015712163 441.16624438898083,164.38794222995625 440.8659094006773,164.80425233411995 440.57092481721054,165.26343802766598 440.27625138864477,165.79195562118343 439.9810753993962,166.40714968118039 439.69461572832336,167.08829143690105 439.4266688019609,167.8045770516419 439.18487929913766,168.52465258382972 438.9747186067911,169.21670809607576 438.79855933528256,169.85430050301693 438.65373953063715,170.4337527888282 438.53668089026,170.9572279881845 438.4439999997044,171.42702737524996 438.37251266213724,171.8455814153766 438.3191576389501,172.21658843164278 438.280919891662,172.54845863872197 438.2553558435119,172.8508689755182 438.2407174022971,173.13358828820367 438.23595464014596,173.4064467490988" stroke="black" stroke-dasharray="8.0,8.0" stroke-width="7.0" /><polyline fill="none" points="438.23595464014596,296.15215504461514 436.0722820669112,297.36316545123987 433.8687414670652,298.4670693139244 431.6332073345783,299.3943706011646 429.37835635738276,300.07600362691994 427.12164896140877,300.44354196594225 424.8813905777249,300.46663636623543 422.6597664478921,300.2643194141415 420.4454897867924,299.99218171379084 418.21646089128365,299.80455572900587 415.939831396167,299.8540451506326 413.58223691304295,300.23882929066497 411.1476295458945,300.8469966028547 408.6595834109887,301.5157851770655 406.15288209819767,302.0846223895925 403.67341220491227,302.3956111561463 401.4245057839289,301.78322518898096 399.18962863144804,301.1212244168338 396.9666453681197,300.4203204862081 394.75623313618036,299.6807268992311 392.55906524860865,298.90266894327385 390.6012207520555,297.4991711005624 388.71518560244243,295.97465116538353 386.88624821229183,294.3787741215141 385.09634766228186,292.7599581721987 383.3241319554513,291.1652305142203 381.5515679368243,289.6266625644855 379.78551557048064,288.12189251861264 378.0413708382599,286.6159935758136 376.33694116997583,285.07522305347493 374.69239144133235,283.46712670340787 373.12579462530846,281.767950154352 371.63888029052,279.9840443639192 370.22840581040015,278.12888846693386 368.89030712856595,276.21559708601 367.61971673318897,274.2568861595464 366.414782952029,272.2598089676792 365.2888163493096,270.2105688699811 364.2601485234741,268.0911607728706 363.348466550535,265.88479285101187 362.57476057392586,263.5759465974844 361.95540811207496,261.157177560544 361.48359971584006,258.64857267064497 361.1452782029928,256.07607599493883 360.9248118387487,253.4644787137372 360.8050474842482,250.8373539049967 360.7705132991298,248.2139538875939 360.817338800708,245.60047396727077 360.94458201437976,242.99991125067004 361.15119231407533,240.41520832686797 361.4360127282376,237.8492496818177 361.7991404744306,235.30375840878912 362.2461557372605,232.7761843930591 362.78430442013354,230.2633433593286 363.4211564479516,227.76257935986655 364.16458241561884,225.27177994625004 365.0202710294658,222.791048910943 365.9841001531778,220.32734967553756 367.049108405422,217.8889252202598 368.2079150540837,215.48353796406673 369.4527411704132,213.11845356157664 370.7744571975167,210.80096540610612 372.1596085939445,208.53986315159182 373.5932390816936,206.34355545055985 375.0598865884997,204.2194739553413 376.54362526489155,202.17405238620051 378.0322631960129,200.21085714149092 379.5301039728542,198.32560192152596 381.04593443931253,196.5127147662779 382.58890430222647,194.76734802963153 384.1684930984482,193.0853933926095 385.7900975207834,191.46500355793967 387.4416548098278,189.910515220329 389.1064228852251,188.4268519722757 390.76735031880173,187.01785000665484 392.40712294480414,185.68624519192747 394.03668063140015,184.42656346481795 395.7816302600437,183.20779982419094 397.7983228373121,182.00173072718758 400.2451723704552,180.79110675106506 403.28217590315995,179.5697410181433 407.0027167819767,178.35330564678804 411.22852299685104,177.20209373541536 415.71040347804717,176.172236657633 420.19630116198636,175.3024907323786 424.43205184503927,174.61413175608448 428.1976042004204,174.10839659252065 431.41446106239505,173.76394607890222 434.0403099835094,173.55296188902253 436.0337910903556,173.44488565684298 437.3546141231761,173.4064467490988 437.99711594337816,173.40227780413943 438.09057735494684,173.401370062433 437.7985250607214,173.38352203624845 437.28479333961104,173.3399350717084 436.7130270055071,173.2732078456977 436.21114256255214,173.19363042412658 435.7662626135974,173.10320669805367 435.3306116615302,172.99812742178744 434.8568119215707,172.87124312084063 434.2980289240692,172.71208419732875 433.6202435040898,172.5092433915819 432.8384332836372,172.25916816801873 431.9796328122373,171.9620610455902 431.0706531190799,171.61993643108224 430.13800375807716,171.23660734990165 429.2096214575676,170.81818735867284 428.3201370180693,170.3748770702815 427.5052358430243,169.91982485717733 426.79972692000763,169.4686377531865 426.2374360850812,169.03934313976458 425.8399458855588,168.64806481022868 425.583638825638,168.29457934248876 425.4342204188767,167.97243296836132 425.358116955913,167.672864007331 425.3225746342483,167.38483875968313 425.30037135344975,167.09734122806913 425.28343526049366,166.80680849009616 425.26850019908073,166.51152891814388 425.25242626669,166.20955945189837 425.232209919517,165.89873123417055 425.20703558910884,165.57788238283274 425.18423674148005,165.25082824445622 425.1728595022932,164.92317357591583 425.18155210584166,164.60114105742127 425.2185382230926,164.29155364586325 425.28916619991037,164.00005434617958 425.38885843417575,163.7254653710297 425.51081609722826,163.46447891021057 425.6485230115835,163.21334559735521 425.79576435324304,162.96788766758345 425.94775258229134,162.72447566859978 426.1043324960225,162.48308510663685 426.2664287278964,162.24468326201054 426.4349021787514,162.01030285622073 426.6105471766561,161.78103928560904 426.7941785587634,161.55814077322327 426.9868854068432,161.34329688640355 427.1897353877968,161.1383774058928 427.40367772097505,160.94533760301533 427.62953933219416,160.76621320130107 427.86838801348006,160.60356820164145 428.1225657296487,160.4618992399936 428.3944703973408,160.34635604762536 428.6861639324458,160.2622874747367 428.9993632037963,160.21522710018473 429.3342257262605,160.20909090909106 429.68597539747157,160.24063327196268 430.04896126097924,160.30451855538797 430.41793880873695,160.3950834081934 430.78808323439455,160.50635506609797 431.1565376825729,160.6348404781586 431.52664345832505,160.78806764520425 431.90265194759706,160.9766403501584 432.2880775139523,161.21149142802244 432.685682900379,161.50385059246014 433.09518975852393,161.86009977898038 433.5071548261381,162.2660925197614 433.9110586065996,162.70195343407602 434.2977866875839,163.1471684809518 434.6596559025488,163.5806467223266 434.99310934114544,163.98854015712163 435.30566489131104,164.38794222995625 435.6059998796146,164.80425233412006 435.90098446308133,165.26343802766598 436.1956578916471,165.79195562118343 436.49083388089565,166.40714968118039 436.7772935519685,167.08829143690105 437.045240478331,167.8045770516419 437.28702998115426,168.52465258382972 437.49719067350077,169.21670809607576 437.67334994500936,169.85430050301693 437.8181697496547,170.4337527888282 437.9352283900319,170.9572279881845 438.0279092805875,171.42702737524996 438.0993966181546,171.8455814153766 438.15275164134175,172.21658843164278 438.1909893886299,172.54845863872197 438.21655343678003,172.8508689755182 438.23119187799483,173.13358828820367 438.23595464014596,173.4064467490988" stroke="black" stroke-dasharray="8.0,8.0" stroke-width="7.0" /></g><rect fill="white" height="111.60000000000001" stroke="none" width="1181" x="0" y="0" /><line stroke="black" stroke-width="3.0" x1="0" x2="1181" y1="111.60000000000001" y2="111.60000000000001" /><text font-family="Arial" font-size="62.0" text-anchor="start" x="40.0" y="77.5">LED</text><text font-family="Arial" font-size="62.0" text-anchor="middle" x="590.5" y="77.5" /><text font-family="Arial" font-size="62.0" text-anchor="end" x="1141.0" y="77.5">cd / klm</text><rect fill="none" height="1178.0" stroke="black" stroke-width="3.0" width="1178.0" x="1.5" y="1.5" /></svg>