<?xml version="1.0" encoding="utf-8" ?>
<svg baseProfile="full" height="1181" version="1.1" width="1181" xmlns="http://www.w3.org/2000/svg" xmlns:ev="http://www.w3.org/2001/xml-events" xmlns:xlink="http://www.w3.org/1999/xlink"><defs><clipPath id="plot_clip"><rect height="1069.4" width="1181.0" x="0" y="111.60000000000001" /></clipPath></defs><g clip-path="url(#plot_clip)" id="grid"><circle cx="590.4999999999999" cy="161.41724547168292" fill="none" r="190.7872720451194" stroke="black" stroke-width="3.0" /><text font-family="Arial" font-size="42.0" text-anchor="start" x="598.4999999999999" y="392.2045175168024">1000</text><circle cx="590.4999999999999" cy="161.41724547168292" fill="none" r="381.5745440902388" stroke="black" stroke-width="3.0" /><text font-family="Arial" font-size="42.0" text-anchor="start" x="598.5" y="582.9917895619218">2000</text><circle cx="590.4999999999999" cy="161.41724547168292" fill="none" r="572.3618161353583" stroke="black" stroke-width="3.0" /><text font-family="Arial" font-size="42.0" text-anchor="start" x="598.5" y="773.7790616070412">3000</text><circle cx="590.4999999999999" cy="161.41724547168292" fill="none" r="763.1490881804776" stroke="black" stroke-width="3.0" /><text font-family="Arial" font-size="42.0" text-anchor="start" x="598.5" y="964.5663336521606">4000</text><circle cx="590.4999999999999" cy="161.41724547168292" fill="none" r="953.9363602255971" stroke="black" stroke-width="3.0" /><text font-family="Arial" font-size="42.0" text-anchor="start" x="598.5" y="1155.35360569728">5000</text><circle cx="590.4999999999999" cy="161.41724547168292" fill="none" r="1144.7236322707165" stroke="black" stroke-width="3.0" /><text font-family="Arial" font-size="42.0" text-anchor="start" x="598.5" y="1346.1408777423994">6000</text><line stroke="black" stroke-width="3.0" x1="-4264.368318096132" x2="5445.368318096132" y1="161.41724547168258" y2="161.41724547168326" /><line stroke="black" stroke-width="3.0" x1="-3613.93929549948" x2="4794.93929549948" y1="-2266.0169135763836" y2="2588.8514045197494" /><line stroke="black" stroke-width="3.0" x1="-1836.9341590480653" x2="3017.9341590480653" y1="-4043.022050027798" y2="4365.856540971164" /><line stroke="black" stroke-width="3.0" x1="590.4999999999999" x2="590.4999999999999" y1="-4693.451072624448" y2="5016.285563567813" /><line stroke="black" stroke-width="3.0" x1="3017.9341590480653" x2="-1836.9341590480656" y1="-4043.022050027798" y2="4365.856540971164" /><line stroke="black" stroke-width="3.0" x1="4794.939295499481" x2="-3613.939295499481" y1="-2266.0169135763836" y2="2588.8514045197494" /><line stroke="black" stroke-width="3.0" x1="5445.368318096131" x2="-4264.368318096131" y1="161.41724547168258" y2="161.41724547168326" /></g><g clip-path="url(#plot_clip)" id="curves"><polyline fill="none" points="590.5,1132.3909090909092 606.6668957237991,1087.618081176631 621.1820990153147,1040.0376041257311 633.7745811933643,987.1454443264623 643.9965228639371,926.4531648434061 651.223992691065,855.495657963054 654.8222783332097,773.4028440597848 654.8584138201512,685.5744631779427 651.989728573022,598.939398397788 647.3519012119997,520.3660228611028 642.5559860389654,456.6414126967421 639.2981319332843,412.46187108091 637.9182095048436,384.50238164572875 638.0727872234637,367.4776256025698 639.0545573046713,356.15893814553283 639.7953728989418,345.3900817085878 639.1714065283569,331.1546116007279 637.058470645615,313.7031410955103 633.6856618639994,294.32904603253144 629.3697009227437,274.30305370352164 624.5138257609474,254.8694636991503 619.5498392252928,237.09466396860648 614.746039241884,221.42829844668586 610.3403754445841,208.15824090163835 606.5914804786311,197.5593023732505 603.778145288128,189.89231993360522 602.114783948389,185.23108162017888 601.4749725130036,182.95684182333446 601.6015903581869,182.296300265759 602.1857330927701,182.49886602639594 602.8677849103248,182.8388773134493 603.3239466759541,182.75987680723063 603.5433327817398,182.29094129607438 603.6069461007745,181.60017255487207 603.6070308799059,180.84921786732264 603.6467768060883,180.19278856238157 603.8140471897623,179.74245931197174 604.0982153639774,179.46268675372835 604.459241749757,179.28426014104468 604.8525070280031,179.14111558971342 605.2289556610052,178.97053129584685 605.5461366300586,178.72584570163338 605.8027676289498,178.41269071191778 606.0091731696408,178.0487974971603 606.17680040429,177.65104751356978 606.3181799486721,177.2354254203551 606.4410605997938,176.81134875142334 606.530115276387,176.36556979943975 606.5630574994502,175.88048740797672 606.5163306975178,175.34002933551426 606.3651748586173,174.72970784411189 606.0910531391816,174.0426313644872 605.7046193259325,173.29639600754047 605.2250947866654,172.5134002863224 604.6730586262469,171.71457531556462 604.0703814828481,170.91932888235476 603.4377679191365,170.14388012207132 602.7872958409286,169.39670869064616 602.1291445921215,168.6839415162218 601.4738981447346,168.01102870407362 600.8325158507159,167.38272627949993 600.2150950298067,166.8024105824287 599.6271258675011,166.2702243793949 599.0729322521336,165.78537263093665 598.5568463063059,165.3468319763349 598.0831993712578,164.9533494118167 597.6541687278652,164.6024866088659 597.2632051861086,164.28805575004435 596.9012455964983,164.00351657068006 596.5588529879276,163.74302122731535 596.2262476502805,163.50142917042194 595.8958291904042,163.27517845853356 595.569796707172,163.0645222777399 595.2528933968429,162.87035080880014 594.9499343094843,162.69324360185738 594.6657930185079,162.53346634682737 594.4042007075092,162.3906720367853 594.1641303283506,162.2631766126376 593.9432853846258,162.1491383738877 593.7392845273297,162.0468985994903 593.5496698364359,161.95498454609947 593.3722466841917,161.8721646552326 593.20609358843,161.7975621233836 593.0505856548891,161.73041801136378 592.9050676228253,161.6700282649423 592.768856397192,161.6157446856056 592.6414481415515,161.56699011316402 592.5231362101255,161.52327354764282 592.4144015270111,161.48409784612238 592.3157075555682,161.4489387649561 592.2274991900761,161.41724547168292 592.149805301396,161.3884480130282 592.0810500270564,161.36203398813313 592.0192465798895,161.33762513224758 591.962399795604,161.3149845161896 591.9085123233987,161.29401661094892 591.8559506718098,161.2747293132644 591.8045252431389,161.2570699125174 591.7544039523227,161.24095049316963 591.7057508534267,161.22627329759212 591.658725729928,161.21293086225546 591.6136750052202,161.2007689798893 591.5716998644716,161.18944863334866 591.5340708488211,161.1785114053199 591.5020314972047,161.16741095969894 591.476794520406,161.15551416876895 591.4592361286536,161.14218893793839 591.4489990852037,161.12710733465997 591.4454189304334,161.11006023999357 591.4478305176332,161.0908812517432 591.4555698176579,161.0694465012922 591.4679275280834,161.04569290513098 591.4840089410628,161.0196800530373 591.5028852822778,160.99154592580874 591.5236451325338,160.9614892951024 591.5453970171841,160.9297688367575 591.5673413860231,160.8966682945944 591.5889765928862,160.86238418370374 591.6098841166478,160.82710961881014 591.6296591902242,160.7910651574848 591.6479119723922,160.7544981854162 591.6644591236111,160.71756784183765 591.6798800033715,160.67997461864525 591.6949165827597,160.64125756960107 591.7102768130683,160.60090345353137 591.7266323490426,160.55834825427132 591.7441353909145,160.5133281995869 591.7610230841708,160.466996419333 591.7751485226619,160.42099025926586 591.7844801001783,160.37709399560185 591.7871078524458,160.3372337474102 591.7817078473928,160.30307383818933 591.7688666718385,160.27475278868474 591.749610517614,160.25196481221144 591.7249308002337,160.23434354798178 591.6957816892606,160.22146378242223 591.6629415956812,160.212984196187 591.626622356003,160.20909090909083 591.5869111088028,160.21010839173948 591.5439114342767,160.21636273775414 591.4977435307505,160.2281810344232 591.448639885316,160.24577277473043 591.3972153683615,160.26886216867354 591.3441510124856,160.2970192418984 591.2900928633101,160.32977593912938 591.2356504595061,160.3666277342803 591.1814606170454,160.4069385592727 591.1283681803974,160.44964332631298 591.0772046450606,160.49352494786933 591.0287171653654,160.53731234139877 590.9835662717354,160.57968412021023 590.9421536687248,160.61957913813467 590.9041531065222,160.65714402819435 590.8690953119435,160.69285513492957 590.8365497986204,160.72721612668875 590.8061259636333,160.76075622412316 590.7774388578132,160.79410759452423 590.7500154666984,160.8282459429687 590.7234211088796,160.86425882231913 590.6972988725898,160.90326433622238 590.6713709279527,160.94640771678155 590.6456866941269,160.9941405898668 590.6212643897353,161.04403205574863 590.5991733486859,161.09286406444937 590.5802589340602,161.13734930579392 590.5651396480071,161.17414099573318 590.5539244121336,161.200966467645 590.5455270820403,161.22004601419837 590.5387824077158,161.2347885886246 590.532768147345,161.24866796766275 590.5268075911359,161.26521206744485 590.5206338072942,161.2869687396245 590.5147346153486,161.31240323575912 590.5096160970513,161.33892864601137 590.5056035857887,161.36393091423736 590.5028406463841,161.3847767349372 590.5012419574077,161.3994846532879 590.500446371402,161.40872819794606 590.5001182655587,161.41385878918618 590.5000175432458,161.41624041979344 590.4999999999999,161.41724547168292" stroke="black" stroke-width="9.0" /><polyline fill="none" points="590.5,1132.3909090909092 574.3331042762005,1087.618081176631 559.8179009846851,1040.0376041257311 547.2254188066356,987.1454443264623 537.0034771360628,926.4531648434061 529.7760073089349,855.495657963054 526.1777216667901,773.4028440597848 526.1415861798487,685.5744631779427 529.0102714269777,598.9393983977878 533.6480987880001,520.3660228611028 538.4440139610342,456.6414126967421 541.7018680667156,412.46187108091 543.081790495156,384.50238164572863 542.9272127765361,367.47762560257 541.9454426953284,356.15893814553283 541.204627101058,345.390081708588 541.828593471643,331.1546116007279 543.9415293543847,313.7031410955103 547.3143381360004,294.32904603253144 551.630299077256,274.30305370352164 556.4861742390524,254.8694636991503 561.450160774707,237.09466396860648 566.2539607581158,221.42829844668586 570.6596245554157,208.15824090163835 574.4085195213687,197.5593023732505 577.2218547118717,189.89231993360522 578.8852160516107,185.23108162017888 579.5250274869961,182.95684182333446 579.3984096418128,182.296300265759 578.8142669072297,182.49886602639594 578.132215089675,182.8388773134493 577.6760533240457,182.75987680723063 577.45666721826,182.29094129607438 577.3930538992253,181.60017255487207 577.3929691200939,180.84921786732264 577.3532231939115,180.19278856238157 577.1859528102375,179.74245931197174 576.9017846360224,179.46268675372835 576.5407582502428,179.2842601410449 576.1474929719967,179.14111558971342 575.7710443389946,178.97053129584685 575.4538633699411,178.72584570163338 575.1972323710498,178.41269071191778 574.990826830359,178.0487974971603 574.8231995957098,177.65104751356978 574.6818200513277,177.2354254203551 574.5589394002059,176.81134875142334 574.4698847236127,176.36556979943975 574.4369425005495,175.88048740797672 574.483669302482,175.34002933551426 574.6348251413825,174.72970784411189 574.9089468608182,174.0426313644872 575.2953806740672,173.29639600754047 575.7749052133343,172.5134002863224 576.3269413737529,171.71457531556462 576.9296185171515,170.91932888235476 577.5622320808633,170.14388012207132 578.2127041590711,169.39670869064616 578.8708554078783,168.6839415162218 579.5261018552652,168.01102870407362 580.1674841492838,167.38272627950005 580.7849049701931,166.8024105824287 581.3728741324986,166.2702243793949 581.9270677478662,165.78537263093665 582.4431536936938,165.3468319763349 582.9168006287418,164.9533494118167 583.3458312721345,164.6024866088659 583.7367948138912,164.28805575004435 584.0987544035015,164.00351657068006 584.4411470120721,163.74302122731535 584.7737523497193,163.50142917042194 585.1041708095955,163.27517845853356 585.4302032928277,163.0645222777399 585.7471066031569,162.87035080880014 586.0500656905153,162.69324360185738 586.3342069814919,162.53346634682737 586.5957992924906,162.3906720367853 586.8358696716492,162.2631766126376 587.0567146153738,162.1491383738877 587.2607154726701,162.0468985994903 587.4503301635639,161.95498454609947 587.627753315808,161.8721646552326 587.7939064115698,161.7975621233836 587.9494143451105,161.73041801136378 588.0949323771745,161.6700282649423 588.2311436028077,161.6157446856056 588.3585518584483,161.56699011316402 588.4768637898743,161.52327354764282 588.5855984729886,161.48409784612238 588.6842924444315,161.4489387649561 588.7725008099237,161.41724547168292 588.8501946986038,161.3884480130282 588.9189499729433,161.36203398813313 588.9807534201103,161.33762513224758 589.0376002043957,161.3149845161896 589.0914876766011,161.29401661094892 589.14404932819,161.2747293132644 589.1954747568609,161.2570699125174 589.245596047677,161.24095049316963 589.2942491465731,161.22627329759212 589.3412742700717,161.21293086225546 589.3863249947794,161.2007689798893 589.4283001355282,161.18944863334866 589.4659291511786,161.1785114053199 589.4979685027951,161.16741095969894 589.5232054795938,161.15551416876895 589.540763871346,161.14218893793839 589.5510009147961,161.12710733465997 589.5545810695663,161.11006023999357 589.5521694823666,161.0908812517432 589.5444301823419,161.0694465012922 589.5320724719164,161.04569290513098 589.515991058937,161.0196800530373 589.497114717722,160.99154592580874 589.476354867466,160.9614892951024 589.4546029828156,160.9297688367575 589.4326586139766,160.8966682945944 589.4110234071136,160.86238418370374 589.390115883352,160.82710961881014 589.3703408097756,160.7910651574848 589.3520880276076,160.7544981854162 589.3355408763887,160.71756784183765 589.3201199966283,160.67997461864525 589.3050834172401,160.64125756960107 589.2897231869314,160.60090345353137 589.2733676509572,160.55834825427132 589.2558646090853,160.5133281995869 589.238976915829,160.466996419333 589.2248514773378,160.42099025926586 589.2155198998215,160.37709399560185 589.2128921475539,160.3372337474102 589.2182921526069,160.30307383818933 589.2311333281613,160.27475278868474 589.2503894823858,160.25196481221144 589.2750691997661,160.23434354798178 589.3042183107392,160.22146378242223 589.3370584043186,160.212984196187 589.3733776439967,160.20909090909083 589.4130888911969,160.21010839173948 589.4560885657231,160.21636273775414 589.5022564692492,160.2281810344232 589.5513601146838,160.24577277473043 589.6027846316383,160.26886216867354 589.6558489875142,160.2970192418984 589.7099071366896,160.32977593912938 589.7643495404936,160.3666277342803 589.8185393829543,160.4069385592727 589.8716318196024,160.44964332631298 589.9227953549391,160.49352494786933 589.9712828346344,160.53731234139877 590.0164337282644,160.57968412021023 590.057846331275,160.61957913813467 590.0958468934775,160.65714402819435 590.1309046880563,160.69285513492957 590.1634502013794,160.72721612668875 590.1938740363664,160.76075622412316 590.2225611421866,160.79410759452423 590.2499845333014,160.8282459429687 590.2765788911202,160.86425882231913 590.3027011274098,160.90326433622238 590.3286290720471,160.94640771678155 590.3543133058729,160.9941405898668 590.3787356102645,161.04403205574863 590.4008266513139,161.09286406444937 590.4197410659395,161.13734930579392 590.4348603519927,161.17414099573318 590.4460755878662,161.200966467645 590.4544729179595,161.22004601419837 590.461217592284,161.2347885886246 590.4672318526548,161.24866796766275 590.4731924088638,161.26521206744485 590.4793661927055,161.2869687396245 590.485265384651,161.31240323575912 590.4903839029485,161.33892864601137 590.4943964142111,161.36393091423736 590.4971593536156,161.3847767349372 590.498758042592,161.3994846532879 590.4995536285977,161.40872819794606 590.499881734441,161.41385878918618 590.499982456754,161.41624041979344 590.4999999999999,161.41724547168292" stroke="black" stroke-width="9.0" /><polyline fill="none" points="590.5,1132.3909090909092 606.6668957237991,1087.618081176631 621.1820990153147,1040.0376041257311 633.7745811933643,987.1454443264623 643.9965228639371,926.4531648434061 651.223992691065,855.495657963054 654.8222783332097,773.4028440597848 654.8584138201512,685.5744631779427 651.989728573022,598.939398397788 647.3519012119997,520.3660228611028 642.5559860389654,456.6414126967421 639.2981319332843,412.46187108091 637.9182095048436,384.50238164572875 638.0727872234637,367.4776256025698 639.0545573046713,356.15893814553283 639.7953728989418,345.3900817085878 639.1714065283569,331.1546116007279 637.058470645615,313.7031410955103 633.6856618639994,294.32904603253144 629.3697009227437,274.30305370352164 624.5138257609474,254.8694636991503 619.5498392252928,237.09466396860648 614.746039241884,221.42829844668586 610.3403754445841,208.15824090163835 606.5914804786311,197.5593023732505 603.778145288128,189.89231993360522 602.114783948389,185.23108162017888 601.4749725130036,182.95684182333446 601.6015903581869,182.296300265759 602.1857330927701,182.49886602639594 602.8677849103248,182.8388773134493 603.3239466759541,182.75987680723063 603.5433327817398,182.29094129607438 603.6069461007745,181.60017255487207 603.6070308799059,180.84921786732264 603.6467768060883,180.19278856238157 603.8140471897623,179.74245931197174 604.0982153639774,179.46268675372835 604.459241749757,179.28426014104468 604.8525070280031,179.14111558971342 605.2289556610052,178.97053129584685 605.5461366300586,178.72584570163338 605.8027676289498,178.41269071191778 606.0091731696408,178.0487974971603 606.17680040429,177.65104751356978 606.3181799486721,177.2354254203551 606.4410605997938,176.81134875142334 606.530115276387,176.36556979943975 606.5630574994502,175.88048740797672 606.5163306975178,175.34002933551426 606.3651748586173,174.72970784411189 606.0910531391816,174.0426313644872 605.7046193259325,173.29639600754047 605.2250947866654,172.5134002863224 604.6730586262469,171.71457531556462 604.0703814828481,170.91932888235476 603.4377679191365,170.14388012207132 602.7872958409286,169.39670869064616 602.1291445921215,168.6839415162218 601.4738981447346,168.01102870407362 600.8325158507159,167.38272627949993 600.2150950298067,166.8024105824287 599.6271258675011,166.2702243793949 599.0729322521336,165.78537263093665 598.5568463063059,165.3468319763349 598.0831993712578,164.9533494118167 597.6541687278652,164.6024866088659 597.2632051861086,164.28805575004435 596.9012455964983,164.00351657068006 596.5588529879276,163.74302122731535 596.2262476502805,163.50142917042194 595.8958291904042,163.27517845853356 595.569796707172,163.0645222777399 595.2528933968429,162.87035080880014 594.9499343094843,162.69324360185738 594.6657930185079,162.53346634682737 594.4042007075092,162.3906720367853 594.1641303283506,162.2631766126376 593.9432853846258,162.1491383738877 593.7392845273297,162.0468985994903 593.5496698364359,161.95498454609947 593.3722466841917,161.8721646552326 593.20609358843,161.7975621233836 593.0505856548891,161.73041801136378 592.9050676228253,161.6700282649423 592.768856397192,161.6157446856056 592.6414481415515,161.56699011316402 592.5231362101255,161.52327354764282 592.4144015270111,161.48409784612238 592.3157075555682,161.4489387649561 592.2274991900761,161.41724547168292 592.149805301396,161.3884480130282 592.0810500270564,161.36203398813313 592.0192465798895,161.33762513224758 591.962399795604,161.3149845161896 591.9085123233987,161.29401661094892 591.8559506718098,161.2747293132644 591.8045252431389,161.2570699125174 591.7544039523227,161.24095049316963 591.7057508534267,161.22627329759212 591.658725729928,161.21293086225546 591.6136750052202,161.2007689798893 591.5716998644716,161.18944863334866 591.5340708488211,161.1785114053199 591.5020314972047,161.16741095969894 591.476794520406,161.15551416876895 591.4592361286536,161.14218893793839 591.4489990852037,161.12710733465997 591.4454189304334,161.11006023999357 591.4478305176332,161.0908812517432 591.4555698176579,161.0694465012922 591.4679275280834,161.04569290513098 591.4840089410628,161.0196800530373 591.5028852822778,160.99154592580874 591.5236451325338,160.9614892951024 591.5453970171841,160.9297688367575 591.5673413860231,160.8966682945944 591.5889765928862,160.86238418370374 591.6098841166478,160.82710961881014 591.6296591902242,160.7910651574848 591.6479119723922,160.7544981854162 591.6644591236111,160.71756784183765 591.6798800033715,160.67997461864525 591.6949165827597,160.64125756960107 591.7102768130683,160.60090345353137 591.7266323490426,160.55834825427132 591.7441353909145,160.5133281995869 591.7610230841708,160.466996419333 591.7751485226619,160.42099025926586 591.7844801001783,160.37709399560185 591.7871078524458,160.3372337474102 591.7817078473928,160.30307383818933 591.7688666718385,160.27475278868474 591.749610517614,160.25196481221144 591.7249308002337,160.23434354798178 591.6957816892606,160.22146378242223 591.6629415956812,160.212984196187 591.626622356003,160.20909090909083 591.5869111088028,160.21010839173948 591.5439114342767,160.21636273775414 591.4977435307505,160.2281810344232 591.448639885316,160.24577277473043 591.3972153683615,160.26886216867354 591.3441510124856,160.2970192418984 591.2900928633101,160.32977593912938 591.2356504595061,160.3666277342803 591.1814606170454,160.4069385592727 591.1283681803974,160.44964332631298 591.0772046450606,160.49352494786933 591.0287171653654,160.53731234139877 590.9835662717354,160.57968412021023 590.9421536687248,160.61957913813467 590.9041531065222,160.65714402819435 590.8690953119435,160.69285513492957 590.8365497986204,160.72721612668875 590.8061259636333,160.76075622412316 590.7774388578132,160.79410759452423 590.7500154666984,160.8282459429687 590.7234211088796,160.86425882231913 590.6972988725898,160.90326433622238 590.6713709279527,160.94640771678155 590.6456866941269,160.9941405898668 590.6212643897353,161.04403205574863 590.5991733486859,161.09286406444937 590.5802589340602,161.13734930579392 590.5651396480071,161.17414099573318 590.5539244121336,161.200966467645 590.5455270820403,161.22004601419837 590.5387824077158,161.2347885886246 590.532768147345,161.24866796766275 590.5268075911359,161.26521206744485 590.5206338072942,161.2869687396245 590.5147346153486,161.31240323575912 590.5096160970513,161.33892864601137 590.5056035857887,161.36393091423736 590.5028406463841,161.3847767349372 590.5012419574077,161.3994846532879 590.500446371402,161.40872819794606 590.5001182655587,161.41385878918618 590.5000175432458,161.41624041979344 590.4999999999999,161.41724547168292" stroke="black" stroke-dasharray="8.0,8.0" stroke-width="7.0" /><polyline fill="none" points="590.5,1132.3909090909092 574.3331042762005,1087.618081176631 559.8179009846851,1040.0376041257311 547.2254188066356,987.1454443264623 537.0034771360628,926.4531648434061 529.7760073089349,855.495657963054 526.1777216667901,773.4028440597848 526.1415861798487,685.5744631779427 529.0102714269777,598.9393983977878 533.6480987880001,520.3660228611028 538.4440139610342,456.6414126967421 541.7018680667156,412.46187108091 543.081790495156,384.50238164572863 542.9272127765361,367.47762560257 541.9454426953284,356.15893814553283 541.204627101058,345.390081708588 541.828593471643,331.1546116007279 543.9415293543847,313.7031410955103 547.3143381360004,294.32904603253144 551.630299077256,274.30305370352164 556.4861742390524,254.8694636991503 561.450160774707,237.09466396860648 566.2539607581158,221.42829844668586 570.6596245554157,208.15824090163835 574.4085195213687,197.5593023732505 577.2218547118717,189.89231993360522 578.8852160516107,185.23108162017888 579.5250274869961,182.95684182333446 579.3984096418128,182.296300265759 578.8142669072297,182.49886602639594 578.132215089675,182.8388773134493 577.6760533240457,182.75987680723063 577.45666721826,182.29094129607438 577.3930538992253,181.60017255487207 577.3929691200939,180.84921786732264 577.3532231939115,180.19278856238157 577.1859528102375,179.74245931197174 576.9017846360224,179.46268675372835 576.5407582502428,179.2842601410449 576.1474929719967,179.14111558971342 575.7710443389946,178.97053129584685 575.4538633699411,178.72584570163338 575.1972323710498,178.41269071191778 574.990826830359,178.0487974971603 574.8231995957098,177.65104751356978 574.6818200513277,177.2354254203551 574.5589394002059,176.81134875142334 574.4698847236127,176.36556979943975 574.4369425005495,175.88048740797672 574.483669302482,175.34002933551426 574.6348251413825,174.72970784411189 574.9089468608182,174.0426313644872 575.2953806740672,173.29639600754047 575.7749052133343,172.5134002863224 576.3269413737529,171.71457531556462 576.9296185171515,170.91932888235476 577.5622320808633,170.14388012207132 578.2127041590711,169.39670869064616 578.8708554078783,168.6839415162218 579.5261018552652,168.01102870407362 580.1674841492838,167.38272627950005 580.7849049701931,166.8024105824287 581.3728741324986,166.2702243793949 581.9270677478662,165.78537263093665 582.4431536936938,165.3468319763349 582.9168006287418,164.9533494118167 583.3458312721345,164.6024866088659 583.7367948138912,164.28805575004435 584.0987544035015,164.00351657068006 584.4411470120721,163.74302122731535 584.7737523497193,163.50142917042194 585.1041708095955,163.27517845853356 585.4302032928277,163.0645222777399 585.7471066031569,162.87035080880014 586.0500656905153,162.69324360185738 586.3342069814919,162.53346634682737 586.5957992924906,162.3906720367853 586.8358696716492,162.2631766126376 587.0567146153738,162.1491383738877 587.2607154726701,162.0468985994903 587.4503301635639,161.95498454609947 587.627753315808,161.8721646552326 587.7939064115698,161.7975621233836 587.9494143451105,161.73041801136378 588.0949323771745,161.6700282649423 588.2311436028077,161.6157446856056 588.3585518584483,161.56699011316402 588.4768637898743,161.52327354764282 588.5855984729886,161.48409784612238 588.6842924444315,161.4489387649561 588.7725008099237,161.41724547168292 588.8501946986038,161.3884480130282 588.9189499729433,161.36203398813313 588.9807534201103,161.33762513224758 589.0376002043957,161.3149845161896 589.0914876766011,161.29401661094892 589.14404932819,161.2747293132644 589.1954747568609,161.2570699125174 589.245596047677,161.24095049316963 589.2942491465731,161.22627329759212 589.3412742700717,161.21293086225546 589.3863249947794,161.2007689798893 589.4283001355282,161.18944863334866 589.4659291511786,161.1785114053199 589.4979685027951,161.16741095969894 589.5232054795938,161.15551416876895 589.540763871346,161.14218893793839 589.5510009147961,161.12710733465997 589.5545810695663,161.11006023999357 589.5521694823666,161.0908812517432 589.5444301823419,161.0694465012922 589.5320724719164,161.04569290513098 589.515991058937,161.0196800530373 589.497114717722,160.99154592580874 589.476354867466,160.9614892951024 589.4546029828156,160.9297688367575 589.4326586139766,160.8966682945944 589.4110234071136,160.86238418370374 589.390115883352,160.82710961881014 589.3703408097756,160.7910651574848 589.3520880276076,160.7544981854162 589.3355408763887,160.71756784183765 589.3201199966283,160.67997461864525 589.3050834172401,160.64125756960107 589.2897231869314,160.60090345353137 589.2733676509572,160.55834825427132 589.2558646090853,160.5133281995869 589.238976915829,160.466996419333 589.2248514773378,160.42099025926586 589.2155198998215,160.37709399560185 589.2128921475539,160.3372337474102 589.2182921526069,160.30307383818933 589.2311333281613,160.27475278868474 589.2503894823858,160.25196481221144 589.2750691997661,160.23434354798178 589.3042183107392,160.22146378242223 589.3370584043186,160.212984196187 589.3733776439967,160.20909090909083 589.4130888911969,160.21010839173948 589.4560885657231,160.21636273775414 589.5022564692492,160.2281810344232 589.5513601146838,160.24577277473043 589.6027846316383,160.26886216867354 589.6558489875142,160.2970192418984 589.7099071366896,160.32977593912938 589.7643495404936,160.3666277342803 589.8185393829543,160.4069385592727 589.8716318196024,160.44964332631298 589.9227953549391,160.49352494786933 589.9712828346344,160.53731234139877 590.0164337282644,160.57968412021023 590.057846331275,160.61957913813467 590.0958468934775,160.65714402819435 590.1309046880563,160.69285513492957 590.1634502013794,160.72721612668875 590.1938740363664,160.76075622412316 590.2225611421866,160.79410759452423 590.2499845333014,160.8282459429687 590.2765788911202,160.86425882231913 590.3027011274098,160.90326433622238 590.3286290720471,160.94640771678155 590.3543133058729,160.9941405898668 590.3787356102645,161.04403205574863 590.4008266513139,161.09286406444937 590.4197410659395,161.13734930579392 590.4348603519927,161.17414099573318 590.4460755878662,161.200966467645 590.4544729179595,161.22004601419837 590.461217592284,161.2347885886246 590.4672318526548,161.24866796766275 590.4731924088638,161.26521206744485 590.4793661927055,161.2869687396245 590.485265384651,161.31240323575912 590.4903839029485,161.33892864601137 590.4943964142111,161.36393091423736 590.4971593536156,161.3847767349372 590.498758042592,161.3994846532879 590.4995536285977,161.40872819794606 590.499881734441,161.41385878918618 590.499982456754,161.41624041979344 590.4999999999999,161.41724547168292" stroke="black" stroke-dasharray="8.0,8.0" stroke-width="7.0" /></g><rect fill="white" height="111.60000000000001" stroke="none" width="1181" x="0" y="0" /><line stroke="black" stroke-width="3.0" x1="0" x2="1181" y1="111.60000000000001" y2="111.60000000000001" /><text font-family="Arial" font-size="62.0" text-anchor="start" x="40.0" y="77.5">LED</text><text font-family="Arial" font-size="62.0" text-anchor="middle" x="590.5" y="77.5" /><text font-family="Arial" font-size="62.0" text-anchor="end" x="1141.0" y="77.5">cd / klm</text><rect fill="none" height="1178.0" stroke="black" stroke-width="3.0" width="1178.0" x="1.5" y="1.5" /></svg>