<?xml version="1.0" encoding="utf-8" ?>
<svg baseProfile="full" height="1181" version="1.1" width="1181" xmlns="http://www.w3.org/2000/svg" xmlns:ev="http://www.w3.org/2001/xml-events" xmlns:xlink="http://www.w3.org/1999/xlink"><defs><clipPath id="plot_clip"><rect height="1069.4" width="1181.0" x="0" y="111.60000000000001" /></clipPath></defs><g clip-path="url(#plot_clip)" id="grid"><circle cx="590.5" cy="160.2892324998063" fill="none" r="235.2475471210849" stroke="black" stroke-width="3.0" /><text font-family="Arial" font-size="42.0" text-anchor="start" x="598.5" y="435.53677962089114">80</text><circle cx="590.5" cy="160.2892324998063" fill="none" r="470.4950942421698" stroke="black" stroke-width="3.0" /><text font-family="Arial" font-size="42.0" text-anchor="start" x="598.5000000000001" y="670.7843267419761">160</text><circle cx="590.5" cy="160.2892324998063" fill="none" r="705.7426413632547" stroke="black" stroke-width="3.0" /><text font-family="Arial" font-size="42.0" text-anchor="start" x="598.5000000000001" y="906.0318738630609">240</text><circle cx="590.5" cy="160.2892324998063" fill="none" r="940.9901884843396" stroke="black" stroke-width="3.0" /><text font-family="Arial" font-size="42.0" text-anchor="start" x="598.5000000000001" y="1141.2794209841459">320</text><circle cx="590.5" cy="160.2892324998063" fill="none" r="1176.2377356054244" stroke="black" stroke-width="3.0" /><text font-family="Arial" font-size="42.0" text-anchor="start" x="598.5000000000001" y="1376.5269681052305">400</text><line stroke="black" stroke-width="3.0" x1="-4270.670016681794" x2="5451.670016681794" y1="160.28923249980596" y2="160.28923249980664" /><line stroke="black" stroke-width="3.0" x1="-3619.3967265616566" x2="4800.396726561657" y1="-2270.2957758410917" y2="2590.8742408407043" /><line stroke="black" stroke-width="3.0" x1="-1840.0850083408961" x2="3021.085008340896" y1="-4049.6074940618514" y2="4370.185959061464" /><line stroke="black" stroke-width="3.0" x1="590.5" x2="590.5" y1="-4700.880784181987" y2="5021.4592491816" /><line stroke="black" stroke-width="3.0" x1="3021.0850083408964" x2="-1840.0850083408964" y1="-4049.6074940618514" y2="4370.185959061464" /><line stroke="black" stroke-width="3.0" x1="4800.396726561656" x2="-3619.3967265616557" y1="-2270.2957758410917" y2="2590.8742408407043" /><line stroke="black" stroke-width="3.0" x1="5451.670016681793" x2="-4270.670016681793" y1="160.28923249980596" y2="160.28923249980664" /></g><g clip-path="url(#plot_clip)" id="curves"><polyline fill="none" points="590.5000000000001,1132.3909090909092 607.4678229783733,1132.3751598883357 624.4304773934967,1131.930977150216 641.3827962565138,1131.1908229241708 658.3196157268787,1130.1549226683476 675.2357766853095,1128.8235919279991 691.9917225783919,1125.9184701974762 708.6081277763186,1122.2027410696335 725.0648938273117,1117.7682037345062 741.3481222324768,1112.7067927309924 757.4501019279472,1107.110310347097 773.365471631385,1101.0505289633527 789.0770050408483,1094.5205894650367 804.5622639627362,1087.494764449044 819.7967595021432,1079.9483036325564 834.7539881258955,1071.857526136972 849.4098420821203,1063.2151554295615 863.7578882453731,1054.075511788632 877.7999776850922,1044.5076440520322 891.5423685513628,1034.5797538879679 904.9956789032298,1024.3590088024814 918.158298123798,1013.868281898294 930.9607280397457,1002.9591045755211 943.3047742779839,991.4451946565098 955.078824828123,979.1466800505532 966.1581278306633,965.8906873783282 976.4470743753091,951.5980017377931 986.0174378658709,936.535911165845 995.0033444830015,921.0493777900915 1003.5618548269813,905.4725444886723 1011.872465808948,890.1277521914842 1020.0841345920098,875.2372936445915 1028.1452588383395,860.6680516899091 1035.939640427118,846.2061282876908 1043.3362347075722,831.646559205527 1050.189556423165,816.7939562257163 1056.3627514611117,801.494301031836 1061.800301379543,785.725856873668 1066.4679398869162,769.5004143502429 1070.3311693352355,752.8313791287774 1073.3553204000714,735.7337952898193 1075.523332707499,718.2447512115579 1076.8918007476718,700.4820535204776 1077.5426708624973,682.5785531795984 1077.5659703006363,664.6608095619326 1077.0595222934514,646.8487547932576 1076.1014027184974,629.2290561356285 1074.6642511681102,611.779700882613 1072.6905508369252,594.455554595577 1070.1191265371745,577.2157784015744 1066.8853365126224,560.0239926658122 1062.935481904792,542.8599424610953 1058.2712350858533,525.7521749656781 1052.9098753872254,508.7400669053784 1046.8704340256493,491.8617613437051 1040.1736385740073,475.1541039635149 1032.8327020237589,458.6464072927548 1024.8249522438261,442.3431544020932 1016.1178179288513,426.2447625500695 1006.677868864924,410.3541244115554 996.4709257707834,394.6766557767296 985.4824380078635,379.23157305244706 973.7799388456586,364.0827909506778 961.4548954635794,349.3001923530454 948.6025863094079,334.9475338926236 935.3218348533069,321.08229479096144 921.6949545872083,307.7467267114894 907.7269160883947,294.9440694031674 893.4024719249222,282.6697750277722 878.7057034521173,270.92103674715645 863.6201045403147,259.6968209321542 848.1359461362242,249.0004029305171 832.2725423516968,238.84589351817704 816.0570349745484,229.24893851036984 799.5171588644702,220.22393834860873 782.6811944894233,211.78402836369582 765.5938169904376,203.94502420022138 748.3642729633573,196.7350716422087 731.1194432651972,190.17881786420924 713.9877514807969,184.2928198073654 697.0988190107319,179.08548040305664 680.6097670153023,174.56121751629928 664.7853713895697,170.7293606010735 649.9185203463186,167.58490943002926 636.3028883194646,165.10331004958266 624.2320926996315,163.24040820802963 613.9457149233656,161.92871659813363 605.468598868657,161.07370352549117 598.7690498383336,160.57799408312644 593.811934533968,160.34704253213465 590.5588118867803,160.2892324998063 590.5,160.2892324998063 590.5,160.2892324998063 590.5,160.2892324998063 590.5,160.2892324998063 590.5,160.2892324998063 590.9329953126157,160.2437228586001 591.0370210999631,160.22329459985167 590.9248621480419,160.229522018887 590.7087452893985,160.25617049397454 590.5,160.2892324998063 590.5,160.2892324998063 590.5,160.2892324998063 590.5,160.2892324998063 590.5,160.2892324998063 590.5,160.2892324998063 590.5300479873607,160.28061637807923 590.5371485494613,160.27787504846424 590.5292958764607,160.27971369252566 590.514347351129,160.2842923106349 590.5,160.2892324998063 590.5,160.2892324998063 590.5,160.2892324998063 590.5,160.2892324998063 590.5,160.2892324998063 590.5,160.2892324998063 590.5020171530106,160.28824866854677 590.5024850282712,160.28796631465946 590.5019527201235,160.28819422009906 590.5009528528238,160.28870432486121 590.5,160.2892324998063 590.5,160.2892324998063 590.5,160.2892324998063 590.5,160.2892324998063 590.5,160.2892324998063 590.5,160.2892324998063 590.5001303590556,160.28913778840854 590.5001599204383,160.28911199111224 590.5001251244335,160.28913474188482 590.5000607874697,160.28918327508381 590.5,160.2892324998063 590.5,160.2892324998063 590.5,160.2892324998063 590.5,160.2892324998063 590.5,160.2892324998063 590.5,160.2892324998063 590.5000080363666,160.289224177905 590.5000098049095,160.28922198532814 590.5000076282652,160.2892240277596 590.5000036843365,160.28922826146186 590.5,160.2892324998063 590.5,160.2892324998063 590.5,160.2892324998063 590.5,160.2892324998063 590.5,160.2892324998063 590.5,160.2892324998063 590.5000004644671,160.28923181120535 590.5000005621781,160.28923163412776 590.50000043374,160.289231805677 590.5000002076637,160.28923215419582 590.5,160.2892324998063 590.5,160.2892324998063 590.5,160.2892324998063 590.5,160.2892324998063 590.5,160.2892324998063 590.5,160.2892324998063 590.5000000242557,160.28923244532712 590.5000000289568,160.2892324315883 590.5000000220142,160.28923244531904 590.5000000103744,160.2892324727801 590.5,160.2892324998063 590.5,160.2892324998063 590.5,160.2892324998063 590.5,160.2892324998063 590.5,160.2892324998063 590.5,160.2892324998063 590.5000000010365,160.28923249564912 590.5000000011983,160.28923249461616 590.5000000008787,160.28923249567208 590.5000000003977,160.28923249776028 590.5,160.2892324998063 590.5,160.2892324998063 590.5,160.2892324998063 590.5,160.2892324998063 590.5,160.2892324998063 590.5,160.2892324998063 590.5000000000242,160.28923249945979 590.5000000000242,160.2892324993437 590.5000000000141,160.28923249940124 590.500000000004,160.28923249957472 590.5,160.2892324998063" stroke="black" stroke-width="9.0" /><polyline fill="none" points="590.5000000000001,1132.3909090909092 573.5321770216265,1132.3751598883357 556.5695226065035,1131.930977150216 539.6172037434865,1131.1908229241708 522.6803842731215,1130.1549226683476 505.7642233146907,1128.8235919279991 489.0082774216082,1125.9184701974762 472.39187222368156,1122.2027410696335 455.9351061726881,1117.7682037345062 439.65187776752333,1112.7067927309924 423.54989807205254,1107.110310347097 407.63452836861507,1101.0505289633527 391.9229949591513,1094.5205894650364 376.43773603726396,1087.4947644490442 361.20324049785694,1079.9483036325564 346.2460118741048,1071.8575261369722 331.59015791787976,1063.2151554295615 317.2421117546267,1054.075511788632 303.20002231490787,1044.5076440520322 289.4576314486372,1034.5797538879679 276.0043210967703,1024.3590088024814 262.84170187620185,1013.868281898294 250.03927196025452,1002.9591045755211 237.69522572201626,991.4451946565098 225.92117517187722,979.1466800505534 214.8418721693368,965.8906873783282 204.55292562469074,951.598001737793 194.9825621341292,936.5359111658453 185.99665551699832,921.0493777900915 177.43814517301902,905.4725444886723 169.1275341910517,890.1277521914841 160.91586540799017,875.2372936445917 152.85474116166046,860.6680516899092 145.06035957288213,846.206128287691 137.6637652924279,831.6465592055271 130.81044357683484,816.7939562257162 124.63724853888846,801.4943010318361 119.19969862045652,785.7258568736678 114.53206011308389,769.500414350243 110.66883066476434,752.8313791287773 107.64467959992879,735.7337952898195 105.47666729250102,718.2447512115579 104.10819925232825,700.4820535204777 103.45732913750285,682.5785531795985 103.43402969936358,664.6608095619324 103.94047770654863,646.8487547932577 104.89859728150262,629.2290561356284 106.33574883188972,611.7797008826132 108.30944916307458,594.455554595577 110.8808734628257,577.2157784015745 114.11466348737761,560.0239926658123 118.0645180952083,542.8599424610957 122.72876491414652,525.752174965678 128.09012461277453,508.7400669053783 134.1295659743509,491.8617613437052 140.82636142599264,475.154103963515 148.16729797624097,458.6464072927548 156.17504775617374,442.3431544020932 164.88218207114883,426.2447625500697 174.32213113507603,410.3541244115554 184.52907422921658,394.67665577672994 195.51756199213654,379.23157305244706 207.22006115434127,364.0827909506777 219.54510453642055,349.30019235304553 232.39741369059217,334.9475338926237 245.67816514669317,321.0822947909612 259.3050454127917,307.7467267114894 273.27308391160534,294.9440694031674 287.5975280750777,282.6697750277723 302.29429654788277,270.92103674715656 317.37989545968526,259.6968209321542 332.86405386377584,249.0004029305171 348.72745764830324,238.84589351817704 364.9429650254516,229.24893851036984 381.48284113552984,220.22393834860873 398.3188055105766,211.78402836369582 415.40618300956226,203.94502420022138 432.63572703664266,196.7350716422087 449.88055673480284,190.17881786420946 467.0122485192031,184.2928198073654 483.90118098926814,179.08548040305664 500.39023298469766,174.56121751629928 516.2146286104303,170.7293606010736 531.0814796536813,167.58490943002926 544.6971116805353,165.10331004958266 556.7679073003685,163.24040820802963 567.0542850766344,161.92871659813363 575.5314011313429,161.07370352549117 582.2309501616664,160.57799408312644 587.188065466032,160.34704253213465 590.4411881132197,160.2892324998063 590.5,160.2892324998063 590.5,160.2892324998063 590.5,160.2892324998063 590.5,160.2892324998063 590.5,160.2892324998063 590.0670046873842,160.2437228586001 589.9629789000369,160.22329459985167 590.0751378519581,160.229522018887 590.2912547106014,160.25617049397454 590.5,160.2892324998063 590.5,160.2892324998063 590.5,160.2892324998063 590.5,160.2892324998063 590.5,160.2892324998063 590.5,160.2892324998063 590.4699520126393,160.28061637807923 590.4628514505386,160.27787504846424 590.4707041235392,160.27971369252566 590.4856526488709,160.2842923106349 590.5,160.2892324998063 590.5,160.2892324998063 590.5,160.2892324998063 590.5,160.2892324998063 590.5,160.2892324998063 590.5,160.2892324998063 590.4979828469893,160.28824866854677 590.4975149717288,160.28796631465946 590.4980472798765,160.28819422009906 590.499047147176,160.28870432486121 590.5,160.2892324998063 590.5,160.2892324998063 590.5,160.2892324998063 590.5,160.2892324998063 590.5,160.2892324998063 590.5,160.2892324998063 590.4998696409444,160.28913778840854 590.4998400795617,160.28911199111224 590.4998748755665,160.28913474188482 590.4999392125303,160.28918327508381 590.5,160.2892324998063 590.5,160.2892324998063 590.5,160.2892324998063 590.5,160.2892324998063 590.5,160.2892324998063 590.5,160.2892324998063 590.4999919636334,160.289224177905 590.4999901950904,160.28922198532814 590.4999923717348,160.2892240277596 590.4999963156635,160.28922826146186 590.5,160.2892324998063 590.5,160.2892324998063 590.5,160.2892324998063 590.5,160.2892324998063 590.5,160.2892324998063 590.5,160.2892324998063 590.4999995355328,160.28923181120535 590.4999994378219,160.28923163412776 590.4999995662599,160.289231805677 590.4999997923362,160.28923215419582 590.5,160.2892324998063 590.5,160.2892324998063 590.5,160.2892324998063 590.5,160.2892324998063 590.5,160.2892324998063 590.5,160.2892324998063 590.4999999757443,160.28923244532712 590.4999999710432,160.2892324315883 590.4999999779857,160.28923244531904 590.4999999896256,160.2892324727801 590.5,160.2892324998063 590.5,160.2892324998063 590.5,160.2892324998063 590.5,160.2892324998063 590.5,160.2892324998063 590.5,160.2892324998063 590.4999999989635,160.28923249564912 590.4999999988017,160.28923249461616 590.4999999991212,160.28923249567208 590.4999999996022,160.28923249776028 590.5,160.2892324998063 590.5,160.2892324998063 590.5,160.2892324998063 590.5,160.2892324998063 590.5,160.2892324998063 590.5,160.2892324998063 590.4999999999758,160.28923249945979 590.4999999999758,160.2892324993437 590.4999999999859,160.28923249940124 590.499999999996,160.28923249957472 590.5,160.2892324998063" stroke="black" stroke-width="9.0" /><polyline fill="none" points="590.5000000000001,1132.3909090909092 607.4540718804705,1131.587360017101 624.3805342826844,1130.5007935792562 641.2755454668045,1129.1443559458612 658.1361476540311,1127.5312069897923 674.9602652752931,1125.674482101503 691.7411702202149,1123.534623746915 708.4435409472031,1120.8622889158346 725.007257250306,1117.358098179578 741.3512193605723,1112.7263472281957 757.3735076007131,1106.6759223315685 772.971540867095,1099.0239308679093 788.116518125735,1090.0018538044337 802.8186492333211,1079.9423393145357 817.1106410756034,1069.1748710621712 831.04751966806,1058.024797535679 844.6956654213686,1046.774867652038 858.0950859062139,1035.5533199296349 871.282351245702,1024.4484524580628 884.299941267755,1013.5462177901386 897.1961458367299,1002.9299678199831 910.0038390057889,992.6251896214762 922.6693547014685,982.4372354291849 935.1024979370006,972.1218425334641 947.1960157219056,961.441600916322 958.8259095092365,950.1666944453412 969.8885150822306,938.1509624239686 980.4215641886634,925.5533906994779 990.5123628766096,912.6030698275666 1000.2633953501155,899.5219660735792 1009.7919953140961,886.5242715907525 1019.1873296840268,873.7447596365639 1028.372167886408,861.0311820744853 1037.2135853433595,848.1678314300408 1045.5635331125757,834.9486648860155 1053.2592696547053,821.1779610586105 1060.1518520863217,806.7095506272211 1066.1960767750716,791.5592478493102 1071.3760006968553,775.7824457142192 1075.6782518394782,759.434476109025 1079.0920094349863,742.5705150567751 1081.6256639624546,725.264680297656 1083.3594988949776,707.6651600250128 1084.400127236296,689.9322748252195 1084.864140126268,672.218285651566 1084.8777436773119,654.6669761771183 1084.526268703696,637.3648546467889 1083.6967452729396,620.2026379008157 1082.2165384323619,603.0327923524391 1079.9022701955091,585.7201354379159 1076.5603649801926,568.14230548458 1072.0527776648794,550.2429829935307 1066.5003583694559,532.1814707059087 1060.1001573823203,514.1583330241634 1053.0615233976969,496.35985106717976 1045.6054687378407,478.9575123905058 1037.9130846612177,462.0731686505393 1029.9673403180154,445.68266026464005 1021.6973345636452,429.7312314936206 1013.0282511514256,414.1698190432843 1003.8816173242319,398.95522053999434 994.1796151445399,384.0524970613949 983.8578005111337,369.4412850491906 972.8537432148232,355.10819537721636 961.103265354351,341.0445224420447 948.5406492512076,327.24632917643214 935.1245253028045,313.72595682545216 920.9166812700795,300.5427925545108 906.0077738266093,287.7626475806235 890.4918088639585,275.4452987278986 874.4658796346159,263.6443602340256 858.0228764255194,252.40474603979146 841.2298145769458,241.75628768868035 824.1481161747422,231.72263027944246 806.8403988206034,222.32384361483457 789.3703271087346,213.57637604710487 771.8144100921936,205.4959922547822 754.2980937281592,198.10500210864188 736.9603695382973,191.42034506978757 719.9415646482438,185.45012385140183 703.3829656353796,180.19354500371014 687.4214943219991,175.64008913341377 672.1743865560029,171.7678189601927 657.753509046975,168.54692507731852 644.2699838918627,165.94068553700833 631.8338973505688,163.90547993732525 620.5721504351643,162.39208210802292 610.6827482370919,161.34696551474087 602.3802073262297,160.70409848135978 595.8768487284282,160.38308574347013 591.3821783017041,160.2892324998063 590.5,160.2892324998063 590.5,160.2892324998063 590.5,160.2892324998063 590.5,160.2892324998063 590.5,160.2892324998063 591.0262668836774,160.23391962145172 591.1527008780749,160.20909090909083 591.0163817531691,160.21665977719078 590.7537111366644,160.24904860342156 590.5,160.2892324998063 590.5,160.2892324998063 590.5,160.2892324998063 590.5,160.2892324998063 590.5,160.2892324998063 590.5,160.2892324998063 590.5365206278412,160.27876037828776 590.5451507228568,160.2754285385388 590.5356065046442,160.27766324513334 590.5174379157181,160.28322814390629 590.5,160.2892324998063 590.5,160.2892324998063 590.5,160.2892324998063 590.5,160.2892324998063 590.5,160.2892324998063 590.5,160.2892324998063 590.5024516681772,160.28803674133997 590.5030203285024,160.28769356556847 590.5023733557942,160.28797056414578 590.5011581069624,160.28859055063435 590.5,160.2892324998063 590.5,160.2892324998063 590.5,160.2892324998063 590.5,160.2892324998063 590.5,160.2892324998063 590.5,160.2892324998063 590.5001584397149,160.2891173866152 590.5001943689185,160.28908603232048 590.5001520775022,160.28911368383956 590.5000738817057,160.28917267158056 590.5,160.2892324998063 590.5,160.2892324998063 590.5,160.2892324998063 590.5,160.2892324998063 590.5,160.2892324998063 590.5,160.2892324998063 590.5000097674812,160.28922238528332 590.5000119169862,160.28921972040303 590.5000092714706,160.28922220279492 590.5000044779799,160.2892273484797 590.5,160.2892324998063 590.5,160.2892324998063 590.5,160.2892324998063 590.5,160.2892324998063 590.5,160.2892324998063 590.5,160.2892324998063 590.5000005645181,160.2892316628737 590.5000006832769,160.2892314476519 590.500000527172,160.28923165615458 590.5000002523966,160.28923207974788 590.5,160.2892324998063 590.5,160.2892324998063 590.5,160.2892324998063 590.5,160.2892324998063 590.5,160.2892324998063 590.5,160.2892324998063 590.5000000294806,160.2892324335918 590.5000000351944,160.28923241689347 590.5000000267563,160.2892324335819 590.5000000126091,160.28923246695842 590.5,160.2892324998063 590.5,160.2892324998063 590.5,160.2892324998063 590.5,160.2892324998063 590.5,160.2892324998063 590.5,160.2892324998063 590.5000000012598,160.2892324947535 590.5000000014563,160.28923249349816 590.500000001068,160.28923249478146 590.5000000004834,160.28923249731952 590.5,160.2892324998063 590.5,160.2892324998063 590.5,160.2892324998063 590.5,160.2892324998063 590.5,160.2892324998063 590.5,160.2892324998063 590.5000000000294,160.28923249938498 590.5000000000294,160.28923249924412 590.5000000000172,160.28923249931404 590.5000000000049,160.28923249952481 590.5,160.2892324998063" stroke="black" stroke-dasharray="8.0,8.0" stroke-width="7.0" /><polyline fill="none" points="590.5000000000001,1132.3909090909092 573.5459281195293,1131.587360017101 556.6194657173158,1130.5007935792562 539.7244545331957,1129.1443559458612 522.8638523459691,1127.5312069897923 506.03973472470716,1125.674482101503 489.25882977978523,1123.534623746915 472.5564590527971,1120.8622889158348 455.99274274969383,1117.3580981795778 439.648780639428,1112.7263472281957 423.62649239928675,1106.6759223315685 408.0284591329053,1099.0239308679093 392.8834818742649,1090.0018538044337 378.18135076667915,1079.9423393145357 363.88935892439673,1069.1748710621712 349.9524803319402,1058.024797535679 336.30433457863154,1046.774867652038 322.904914093786,1035.5533199296349 309.7176487542981,1024.4484524580628 296.70005873224477,1013.5462177901384 283.80385416327033,1002.9299678199831 270.9961609942108,992.6251896214762 258.3306452985317,982.4372354291851 245.8975020629995,972.1218425334641 233.80398427809456,961.4416009163222 222.17409049076363,950.1666944453415 211.11148491776922,938.1509624239685 200.5784358113368,925.5533906994779 190.48763712339033,912.6030698275664 180.73660464988453,899.5219660735792 171.20800468590372,886.5242715907524 161.81267031597332,873.744759636564 152.62783211359178,861.0311820744854 143.78641465664063,848.1678314300408 135.43646688742464,834.9486648860156 127.74073034529451,821.1779610586104 120.84814791367845,806.7095506272211 114.8039232249282,791.55924784931 109.62399930314481,775.7824457142193 105.32174816052172,759.4344761090248 101.90799056501385,742.5705150567752 99.37433603754553,725.2646802976561 97.64050110502257,707.665160025013 96.59987276370416,689.9322748252195 96.1358598737317,672.2182856515659 96.12225632268799,654.6669761771184 96.47373129630392,637.3648546467888 97.30325472706055,620.202637900816 98.78346156763814,603.0327923524391 101.09772980449084,585.7201354379159 104.43963501980753,568.14230548458 108.94722233512078,550.2429829935311 114.49964163054393,532.1814707059085 120.8998426176795,514.1583330241634 127.93847660230313,496.3598510671799 135.39453126215935,478.9575123905058 143.08691533878203,462.0731686505393 151.03265968198437,445.68266026463994 159.30266543635483,429.7312314936206 167.97174884857452,414.1698190432843 177.11838267576815,398.9552205399947 186.82038485546005,384.0524970613949 197.14219948886608,369.4412850491906 208.1462567851768,355.1081953772165 219.89673464564893,341.0445224420449 232.4593507487923,327.246329176432 245.87547469719553,313.72595682545216 260.0833187299206,300.5427925545108 274.99222617339075,287.7626475806235 290.50819113604143,275.4452987278987 306.53412036538396,263.6443602340256 322.97712357448063,252.40474603979146 339.7701854230542,241.75628768868035 356.85188382525786,231.72263027944246 374.1596011793965,222.32384361483457 391.6296728912654,213.57637604710487 409.1855899078064,205.4959922547822 426.70190627184087,198.10500210864188 444.03963046170264,191.42034506978757 461.05843535175615,185.45012385140183 477.6170343646203,180.19354500371014 493.57850567800085,175.64008913341377 508.82561344399704,171.7678189601927 523.246490953025,168.54692507731852 536.7300161081372,165.94068553700833 549.1661026494312,163.90547993732525 560.4278495648357,162.39208210802292 570.3172517629081,161.34696551474087 578.6197926737702,160.70409848135978 585.1231512715717,160.38308574347013 589.6178216982959,160.2892324998063 590.5,160.2892324998063 590.5,160.2892324998063 590.5,160.2892324998063 590.5,160.2892324998063 590.5,160.2892324998063 589.9737331163226,160.23391962145172 589.8472991219251,160.20909090909083 589.9836182468309,160.21665977719078 590.2462888633356,160.24904860342156 590.5,160.2892324998063 590.5,160.2892324998063 590.5,160.2892324998063 590.5,160.2892324998063 590.5,160.2892324998063 590.5,160.2892324998063 590.4634793721586,160.27876037828776 590.4548492771432,160.2754285385388 590.4643934953558,160.27766324513334 590.4825620842819,160.28322814390629 590.5,160.2892324998063 590.5,160.2892324998063 590.5,160.2892324998063 590.5,160.2892324998063 590.5,160.2892324998063 590.5,160.2892324998063 590.4975483318228,160.28803674133997 590.4969796714976,160.28769356556847 590.4976266442058,160.28797056414578 590.4988418930376,160.28859055063435 590.5,160.2892324998063 590.5,160.2892324998063 590.5,160.2892324998063 590.5,160.2892324998063 590.5,160.2892324998063 590.5,160.2892324998063 590.499841560285,160.2891173866152 590.4998056310814,160.28908603232048 590.4998479224977,160.28911368383956 590.4999261182943,160.28917267158056 590.5,160.2892324998063 590.5,160.2892324998063 590.5,160.2892324998063 590.5,160.2892324998063 590.5,160.2892324998063 590.5,160.2892324998063 590.4999902325187,160.28922238528332 590.4999880830137,160.28921972040303 590.4999907285294,160.28922220279492 590.4999955220201,160.2892273484797 590.5,160.2892324998063 590.5,160.2892324998063 590.5,160.2892324998063 590.5,160.2892324998063 590.5,160.2892324998063 590.5,160.2892324998063 590.4999994354819,160.2892316628737 590.499999316723,160.2892314476519 590.499999472828,160.28923165615458 590.4999997476034,160.28923207974788 590.5,160.2892324998063 590.5,160.2892324998063 590.5,160.2892324998063 590.5,160.2892324998063 590.5,160.2892324998063 590.5,160.2892324998063 590.4999999705194,160.2892324335918 590.4999999648056,160.28923241689347 590.4999999732437,160.2892324335819 590.4999999873909,160.28923246695842 590.5,160.2892324998063 590.5,160.2892324998063 590.5,160.2892324998063 590.5,160.2892324998063 590.5,160.2892324998063 590.5,160.2892324998063 590.4999999987402,160.2892324947535 590.4999999985437,160.28923249349816 590.4999999989319,160.28923249478146 590.4999999995166,160.28923249731952 590.5,160.2892324998063 590.5,160.2892324998063 590.5,160.2892324998063 590.5,160.2892324998063 590.5,160.2892324998063 590.5,160.2892324998063 590.4999999999706,160.28923249938498 590.4999999999704,160.28923249924412 590.4999999999827,160.28923249931404 590.499999999995,160.28923249952481 590.5,160.2892324998063" stroke="black" stroke-dasharray="8.0,8.0" stroke-width="7.0" /></g><rect fill="white" height="111.60000000000001" stroke="none" width="1181" x="0" y="0" /><line stroke="black" stroke-width="3.0" x1="0" x2="1181" y1="111.60000000000001" y2="111.60000000000001" /><text font-family="Arial" font-size="62.0" text-anchor="start" x="40.0" y="77.5">LED</text><text font-family="Arial" font-size="62.0" text-anchor="middle" x="590.5" y="77.5" /><text font-family="Arial" font-size="62.0" text-anchor="end" x="1141.0" y="77.5">cd / klm</text><rect fill="none" height="1178.0" stroke="black" stroke-width="3.0" width="1178.0" x="1.5" y="1.5" /></svg>