<?xml version="1.0" encoding="utf-8" ?>
<svg baseProfile="full" height="1181" version="1.1" width="1181" xmlns="http://www.w3.org/2000/svg" xmlns:ev="http://www.w3.org/2001/xml-events" xmlns:xlink="http://www.w3.org/1999/xlink"><defs><clipPath id="plot_clip"><rect height="1069.4" width="1181.0" x="0" y="111.60000000000001" /></clipPath></defs><g clip-path="url(#plot_clip)" id="grid"><circle cx="590.4999999999999" cy="160.20909429576477" fill="none" r="176.99202861839944" stroke="black" stroke-width="3.0" /><text font-family="Arial" font-size="42.0" text-anchor="start" x="598.4999999999999" y="377.2011229141642">500</text><circle cx="590.4999999999999" cy="160.20909429576477" fill="none" r="353.9840572367989" stroke="black" stroke-width="3.0" /><text font-family="Arial" font-size="42.0" text-anchor="start" x="598.5" y="554.1931515325637">1000</text><circle cx="590.4999999999999" cy="160.20909429576477" fill="none" r="530.9760858551983" stroke="black" stroke-width="3.0" /><text font-family="Arial" font-size="42.0" text-anchor="start" x="598.5" y="731.185180150963">1500</text><circle cx="590.4999999999999" cy="160.20909429576477" fill="none" r="707.9681144735978" stroke="black" stroke-width="3.0" /><text font-family="Arial" font-size="42.0" text-anchor="start" x="598.5" y="908.1772087693624">2000</text><circle cx="590.4999999999999" cy="160.20909429576477" fill="none" r="884.9601430919972" stroke="black" stroke-width="3.0" /><text font-family="Arial" font-size="42.0" text-anchor="start" x="598.5" y="1085.1692373877618">2500</text><circle cx="590.4999999999999" cy="160.20909429576477" fill="none" r="1061.9521717103967" stroke="black" stroke-width="3.0" /><text font-family="Arial" font-size="42.0" text-anchor="start" x="598.5" y="1262.1612660061612">3000</text><line stroke="black" stroke-width="3.0" x1="-4270.409073975722" x2="5451.409073975722" y1="160.20909429576443" y2="160.2090942957651" /><line stroke="black" stroke-width="3.0" x1="-3619.1707435492663" x2="4800.170743549266" y1="-2270.2454426920967" y2="2590.6636312836263" /><line stroke="black" stroke-width="3.0" x1="-1839.954536987861" x2="3020.9545369878606" y1="-4049.461649253503" y2="4369.879837845032" /><line stroke="black" stroke-width="3.0" x1="590.4999999999999" x2="590.4999999999999" y1="-4700.699979679957" y2="5021.118168271487" /><line stroke="black" stroke-width="3.0" x1="3020.954536987861" x2="-1839.9545369878613" y1="-4049.461649253503" y2="4369.879837845032" /><line stroke="black" stroke-width="3.0" x1="4800.170743549266" x2="-3619.1707435492663" y1="-2270.2454426920967" y2="2590.6636312836263" /><line stroke="black" stroke-width="3.0" x1="5451.409073975722" x2="-4270.409073975722" y1="160.20909429576443" y2="160.2090942957651" /></g><g clip-path="url(#plot_clip)" id="curves"><polyline fill="none" points="590.5,1132.3909090909092 607.3334753514198,1124.5982512909516 623.8529096772185,1115.3114635347981 639.9272029696893,1103.3363102524938 655.3415163015136,1087.485978502856 669.7975934019659,1066.5847343633388 682.9527414338543,1039.8381710894575 694.5871401332826,1007.9308222383567 704.5780721908282,971.9167551503446 712.8741011238221,932.8487606232936 719.4948558354777,891.7752750197174 724.4999276299418,849.5789601241128 727.8740277510864,806.5030815138554 729.5804453426827,762.6326878822907 729.5863061443922,718.053799095623 727.8625910423436,672.8532631250966 724.4260695402854,627.2648036173983 719.4854276858326,582.1014181882678 713.3507783506398,538.3049123546948 706.3960103480975,496.7955482279398 699.0578329701799,458.4692890862606 691.7867968301847,424.070221115942 684.8849899813594,393.8201421584562 678.6185905353943,367.80348428162813 673.2610318593883,346.09341529820927 669.0926136950937,328.7514982658279 666.2735316679109,315.5678573645133 664.4276784923019,305.30033275236383 662.9598689587965,296.4862875221006 661.1753166529627,287.71074065663936 658.2818260455211,277.6106608364031 653.6123580126803,265.24569681902904 647.3390954665983,251.17066137042298 639.9026180995726,236.2824550280087 631.8031177892881,221.44348460804758 623.5988239363586,207.47911372598367 615.8275278292589,195.0694456901873 608.7597271419289,184.44057064366325 602.602211078893,175.69921809722848 597.5706922261791,168.94067202060785 593.8893466888032,164.2483603886934 591.6982442936892,161.58751667535773 590.7618945034278,160.49995760883678 590.7201131477024,160.4451367480258 591.1775982529344,160.91076782724997 591.7052162989689,161.41431059473382 591.9371216424266,161.5969065338886 591.8722875082376,161.48877309971454 591.6101881641065,161.20871220865797 591.2579753960599,160.86799225515063 590.9301394785982,160.5700241736115 590.7219420587518,160.38881943123658 590.6274721102943,160.30868642331836 590.6130132352471,160.29425587690048 590.642615202911,160.3127103058198 590.6782086438,160.3338773315278 590.6880303686335,160.33592238083304 590.6724388725751,160.32107740897754 590.6403980516031,160.29682473527942 590.6013416453451,160.2699864995202 590.5651438270465,160.24670510184615 590.5398874414913,160.23120426562264 590.5250605215234,160.2224192114212 590.5178548464658,160.21819179443605 590.5153328292888,160.21657261628388 590.51443683284,160.2158263014776 590.5126262641763,160.21471587076428 590.5098082872821,160.21325766670623 590.5065265659686,160.21173119958075 590.5033421145708,160.2103772133496 590.5008315905161,160.2093969699598 590.4999999999999,160.20909429576477 590.4999999999999,160.20909429576477 590.4999999999999,160.20909429576477 590.4999999999999,160.20909429576477 590.5002848213117,160.20917061340526 590.5005544923868,160.20923254624415 590.5005728384388,160.20922654593892 590.5004270193896,160.20918506153805 590.5002059446911,160.20913432735756 590.4999999999999,160.20909429576477 590.4999999999999,160.20909429576477 590.4999999999999,160.20909429576477 590.4999999999999,160.20909429576477 590.4999999999999,160.20909429576477 590.4999999999999,160.20909429576477 590.5000604309317,160.20909852150714 590.5001062297351,160.20909986302934 590.5001365611863,160.20909906458644 590.50015061564,160.20909692477062 590.5001476113517,160.20909429576477 590.5001279884228,160.20909206171848 590.5000969816499,160.20909090909083 590.5000610304363,160.20909109729507 590.5000265676265,160.2090924379753 590.4999999999999,160.20909429576477 590.4999999999999,160.20909429576477 590.4999999999999,160.20909429576477 590.4999999999999,160.20909429576477 590.4999999999999,160.20909429576477 590.4999999999999,160.20909429576477 590.5000036952075,160.20909357748906 590.500004575815,160.2090933231451 590.5000036144532,160.20909346130247 590.5000017730634,160.20909385369032 590.4999999999999,160.20909429576477 590.4999999999999,160.20909429576477 590.4999999999999,160.20909429576477 590.4999999999999,160.20909429576477 590.4999999999999,160.20909429576477 590.4999999999999,160.20909429576477 590.5000002523183,160.2090941989087 590.5000003114116,160.20909416994618 590.5000002451599,160.2090941917005 590.5000001198547,160.20909424240187 590.4999999999999,160.20909429576477 590.4999999999999,160.20909429576477 590.4999999999999,160.20909429576477 590.4999999999999,160.20909429576477 590.4999999999999,160.20909429576477 590.4999999999999,160.20909429576477 590.5000000166327,160.20909428577068 590.50000002045,160.20909428298614 590.5000000160368,160.20909428535026 590.500000007809,160.20909429049732 590.4999999999999,160.20909429576477 590.4999999999999,160.20909429576477 590.4999999999999,160.20909429576477 590.4999999999999,160.20909429576477 590.4999999999999,160.20909429576477 590.4999999999999,160.20909429576477 590.5000000010514,160.20909429485073 590.5000000012866,160.2090942946062 590.500000001004,160.20909429482833 590.5000000004864,160.20909429529502 590.4999999999999,160.20909429576477 590.4999999999999,160.20909429576477 590.4999999999999,160.20909429576477 590.4999999999999,160.20909429576477 590.4999999999999,160.20909429576477 590.4999999999999,160.20909429576477 590.5000000000629,160.209094295687 590.5000000000764,160.20909429566666 590.5000000000592,160.209094295686 590.5000000000284,160.20909429572544 590.4999999999999,160.20909429576477 590.4999999999999,160.20909429576477 590.4999999999999,160.20909429576477 590.4999999999999,160.20909429576477 590.4999999999999,160.20909429576477 590.4999999999999,160.20909429576477 590.5000000000033,160.20909429575852 590.5000000000041,160.2090942957568 590.5000000000031,160.20909429575852 590.5000000000014,160.2090942957617 590.4999999999999,160.20909429576477 590.4999999999999,160.20909429576477 590.4999999999999,160.20909429576477 590.4999999999999,160.20909429576477 590.4999999999999,160.20909429576477 590.4999999999999,160.20909429576477 590.5,160.20909429576432 590.5,160.2090942957641 590.5,160.20909429576432 590.5,160.20909429576454 590.4999999999999,160.20909429576477 590.4999999999999,160.20909429576477 590.4999999999999,160.20909429576477 590.4999999999999,160.20909429576477 590.4999999999999,160.20909429576477 590.4999999999999,160.20909429576477 590.4999999999999,160.20909429576477 590.4999999999999,160.20909429576477 590.4999999999999,160.20909429576477 590.4999999999999,160.20909429576477 590.4999999999999,160.20909429576477 590.4999999999999,160.20909429576477 590.4999999999999,160.20909429576477 590.4999999999999,160.20909429576477 590.4999999999999,160.20909429576477 590.4999999999999,160.20909429576477" stroke="black" stroke-width="9.0" /><polyline fill="none" points="590.5,1132.3909090909092 573.6665246485798,1124.5982512909516 557.1470903227815,1115.3114635347981 541.0727970303108,1103.3363102524938 525.6584836984864,1087.485978502856 511.20240659803414,1066.5847343633388 498.0472585661458,1039.8381710894575 486.4128598667173,1007.9308222383567 476.42192780917145,971.9167551503446 468.1258988761778,932.8487606232939 461.505144164522,891.7752750197174 456.50007237005815,849.5789601241128 453.12597224891323,806.5030815138554 451.41955465731724,762.6326878822907 451.4136938556077,718.053799095623 453.13740895765625,672.8532631250968 456.57393045971446,627.2648036173983 461.514572314167,582.1014181882678 467.6492216493602,538.3049123546948 474.6039896519022,496.7955482279398 481.94216702982,458.4692890862607 489.213203169815,424.070221115942 496.1150100186405,393.8201421584562 502.38140946460555,367.80348428162813 507.7389681406116,346.09341529820927 511.90738630490597,328.7514982658279 514.7264683320889,315.5678573645131 516.5723215076979,305.30033275236383 518.0401310412033,296.4862875221006 519.8246833470371,287.71074065663936 522.7181739544786,277.6106608364031 527.3876419873195,265.24569681902904 533.6609045334014,251.17066137042298 541.0973819004273,236.2824550280087 549.1968822107117,221.44348460804758 557.4011760636412,207.47911372598367 565.1724721707409,195.0694456901873 572.2402728580709,184.44057064366325 578.3977889211067,175.69921809722848 583.4293077738207,168.94067202060785 587.1106533111965,164.2483603886934 589.3017557063106,161.58751667535773 590.238105496572,160.49995760883678 590.2798868522974,160.4451367480258 589.8224017470653,160.91076782724997 589.2947837010308,161.41431059473382 589.0628783575731,161.5969065338886 589.1277124917622,161.48877309971454 589.3898118358933,161.20871220865797 589.7420246039399,160.86799225515063 590.0698605214016,160.5700241736115 590.2780579412479,160.38881943123658 590.3725278897055,160.30868642331836 590.3869867647527,160.29425587690048 590.3573847970888,160.3127103058198 590.3217913561998,160.3338773315278 590.3119696313663,160.33592238083304 590.3275611274247,160.32107740897754 590.3596019483966,160.29682473527942 590.3986583546547,160.2699864995202 590.4348561729532,160.24670510184615 590.4601125585085,160.23120426562264 590.4749394784764,160.2224192114212 590.482145153534,160.21819179443605 590.484667170711,160.21657261628388 590.4855631671597,160.2158263014776 590.4873737358234,160.21471587076428 590.4901917127177,160.21325766670623 590.4934734340312,160.21173119958075 590.4966578854289,160.2103772133496 590.4991684094837,160.2093969699598 590.4999999999999,160.20909429576477 590.4999999999999,160.20909429576477 590.4999999999999,160.20909429576477 590.4999999999999,160.20909429576477 590.4997151786881,160.20917061340526 590.499445507613,160.20923254624415 590.499427161561,160.20922654593892 590.4995729806102,160.20918506153805 590.4997940553087,160.20913432735756 590.4999999999999,160.20909429576477 590.4999999999999,160.20909429576477 590.4999999999999,160.20909429576477 590.4999999999999,160.20909429576477 590.4999999999999,160.20909429576477 590.4999999999999,160.20909429576477 590.499939569068,160.20909852150714 590.4998937702646,160.20909986302934 590.4998634388135,160.20909906458644 590.4998493843597,160.20909692477062 590.499852388648,160.20909429576477 590.4998720115769,160.20909206171848 590.4999030183499,160.20909090909083 590.4999389695635,160.20909109729507 590.4999734323733,160.2090924379753 590.4999999999999,160.20909429576477 590.4999999999999,160.20909429576477 590.4999999999999,160.20909429576477 590.4999999999999,160.20909429576477 590.4999999999999,160.20909429576477 590.4999999999999,160.20909429576477 590.4999963047923,160.20909357748906 590.4999954241848,160.2090933231451 590.4999963855465,160.20909346130247 590.4999982269363,160.20909385369032 590.4999999999999,160.20909429576477 590.4999999999999,160.20909429576477 590.4999999999999,160.20909429576477 590.4999999999999,160.20909429576477 590.4999999999999,160.20909429576477 590.4999999999999,160.20909429576477 590.4999997476815,160.2090941989087 590.4999996885882,160.20909416994618 590.4999997548399,160.2090941917005 590.4999998801451,160.20909424240187 590.4999999999999,160.20909429576477 590.4999999999999,160.20909429576477 590.4999999999999,160.20909429576477 590.4999999999999,160.20909429576477 590.4999999999999,160.20909429576477 590.4999999999999,160.20909429576477 590.499999983367,160.20909428577068 590.4999999795498,160.20909428298614 590.499999983963,160.20909428535026 590.4999999921907,160.20909429049732 590.4999999999999,160.20909429576477 590.4999999999999,160.20909429576477 590.4999999999999,160.20909429576477 590.4999999999999,160.20909429576477 590.4999999999999,160.20909429576477 590.4999999999999,160.20909429576477 590.4999999989484,160.20909429485073 590.4999999987132,160.2090942946062 590.4999999989958,160.20909429482833 590.4999999995134,160.20909429529502 590.4999999999999,160.20909429576477 590.4999999999999,160.20909429576477 590.4999999999999,160.20909429576477 590.4999999999999,160.20909429576477 590.4999999999999,160.20909429576477 590.4999999999999,160.20909429576477 590.4999999999369,160.209094295687 590.4999999999234,160.20909429566666 590.4999999999405,160.209094295686 590.4999999999714,160.20909429572544 590.4999999999999,160.20909429576477 590.4999999999999,160.20909429576477 590.4999999999999,160.20909429576477 590.4999999999999,160.20909429576477 590.4999999999999,160.20909429576477 590.4999999999999,160.20909429576477 590.4999999999965,160.20909429575852 590.4999999999957,160.2090942957568 590.4999999999967,160.20909429575852 590.4999999999984,160.2090942957617 590.4999999999999,160.20909429576477 590.4999999999999,160.20909429576477 590.4999999999999,160.20909429576477 590.4999999999999,160.20909429576477 590.4999999999999,160.20909429576477 590.4999999999999,160.20909429576477 590.4999999999998,160.20909429576432 590.4999999999998,160.2090942957641 590.4999999999998,160.20909429576432 590.4999999999998,160.20909429576454 590.4999999999999,160.20909429576477 590.4999999999999,160.20909429576477 590.4999999999999,160.20909429576477 590.4999999999999,160.20909429576477 590.4999999999999,160.20909429576477 590.4999999999999,160.20909429576477 590.4999999999999,160.20909429576477 590.4999999999999,160.20909429576477 590.4999999999999,160.20909429576477 590.4999999999999,160.20909429576477 590.4999999999999,160.20909429576477 590.4999999999999,160.20909429576477 590.4999999999999,160.20909429576477 590.4999999999999,160.20909429576477 590.4999999999999,160.20909429576477 590.4999999999999,160.20909429576477" stroke="black" stroke-width="9.0" /><polyline fill="none" points="590.5,1132.3909090909092 607.3334753514198,1124.5982512909516 623.8529096772185,1115.3114635347981 639.9272029696893,1103.3363102524938 655.3415163015136,1087.485978502856 669.7975934019659,1066.5847343633388 682.9527414338543,1039.8381710894575 694.5871401332826,1007.9308222383567 704.5780721908282,971.9167551503446 712.8741011238221,932.8487606232936 719.4948558354777,891.7752750197174 724.4999276299418,849.5789601241128 727.8740277510864,806.5030815138554 729.5804453426827,762.6326878822907 729.5863061443922,718.053799095623 727.8625910423436,672.8532631250966 724.4260695402854,627.2648036173983 719.4854276858326,582.1014181882678 713.3507783506398,538.3049123546948 706.3960103480975,496.7955482279398 699.0578329701799,458.4692890862606 691.7867968301847,424.070221115942 684.8849899813594,393.8201421584562 678.6185905353943,367.80348428162813 673.2610318593883,346.09341529820927 669.0926136950937,328.7514982658279 666.2735316679109,315.5678573645133 664.4276784923019,305.30033275236383 662.9598689587965,296.4862875221006 661.1753166529627,287.71074065663936 658.2818260455211,277.6106608364031 653.6123580126803,265.24569681902904 647.3390954665983,251.17066137042298 639.9026180995726,236.2824550280087 631.8031177892881,221.44348460804758 623.5988239363586,207.47911372598367 615.8275278292589,195.0694456901873 608.7597271419289,184.44057064366325 602.602211078893,175.69921809722848 597.5706922261791,168.94067202060785 593.8893466888032,164.2483603886934 591.6982442936892,161.58751667535773 590.7618945034278,160.49995760883678 590.7201131477024,160.4451367480258 591.1775982529344,160.91076782724997 591.7052162989689,161.41431059473382 591.9371216424266,161.5969065338886 591.8722875082376,161.48877309971454 591.6101881641065,161.20871220865797 591.2579753960599,160.86799225515063 590.9301394785982,160.5700241736115 590.7219420587518,160.38881943123658 590.6274721102943,160.30868642331836 590.6130132352471,160.29425587690048 590.642615202911,160.3127103058198 590.6782086438,160.3338773315278 590.6880303686335,160.33592238083304 590.6724388725751,160.32107740897754 590.6403980516031,160.29682473527942 590.6013416453451,160.2699864995202 590.5651438270465,160.24670510184615 590.5398874414913,160.23120426562264 590.5250605215234,160.2224192114212 590.5178548464658,160.21819179443605 590.5153328292888,160.21657261628388 590.51443683284,160.2158263014776 590.5126262641763,160.21471587076428 590.5098082872821,160.21325766670623 590.5065265659686,160.21173119958075 590.5033421145708,160.2103772133496 590.5008315905161,160.2093969699598 590.4999999999999,160.20909429576477 590.4999999999999,160.20909429576477 590.4999999999999,160.20909429576477 590.4999999999999,160.20909429576477 590.5002848213117,160.20917061340526 590.5005544923868,160.20923254624415 590.5005728384388,160.20922654593892 590.5004270193896,160.20918506153805 590.5002059446911,160.20913432735756 590.4999999999999,160.20909429576477 590.4999999999999,160.20909429576477 590.4999999999999,160.20909429576477 590.4999999999999,160.20909429576477 590.4999999999999,160.20909429576477 590.4999999999999,160.20909429576477 590.5000604309317,160.20909852150714 590.5001062297351,160.20909986302934 590.5001365611863,160.20909906458644 590.50015061564,160.20909692477062 590.5001476113517,160.20909429576477 590.5001279884228,160.20909206171848 590.5000969816499,160.20909090909083 590.5000610304363,160.20909109729507 590.5000265676265,160.2090924379753 590.4999999999999,160.20909429576477 590.4999999999999,160.20909429576477 590.4999999999999,160.20909429576477 590.4999999999999,160.20909429576477 590.4999999999999,160.20909429576477 590.4999999999999,160.20909429576477 590.5000036952075,160.20909357748906 590.500004575815,160.2090933231451 590.5000036144532,160.20909346130247 590.5000017730634,160.20909385369032 590.4999999999999,160.20909429576477 590.4999999999999,160.20909429576477 590.4999999999999,160.20909429576477 590.4999999999999,160.20909429576477 590.4999999999999,160.20909429576477 590.4999999999999,160.20909429576477 590.5000002523183,160.2090941989087 590.5000003114116,160.20909416994618 590.5000002451599,160.2090941917005 590.5000001198547,160.20909424240187 590.4999999999999,160.20909429576477 590.4999999999999,160.20909429576477 590.4999999999999,160.20909429576477 590.4999999999999,160.20909429576477 590.4999999999999,160.20909429576477 590.4999999999999,160.20909429576477 590.5000000166327,160.20909428577068 590.50000002045,160.20909428298614 590.5000000160368,160.20909428535026 590.500000007809,160.20909429049732 590.4999999999999,160.20909429576477 590.4999999999999,160.20909429576477 590.4999999999999,160.20909429576477 590.4999999999999,160.20909429576477 590.4999999999999,160.20909429576477 590.4999999999999,160.20909429576477 590.5000000010514,160.20909429485073 590.5000000012866,160.2090942946062 590.500000001004,160.20909429482833 590.5000000004864,160.20909429529502 590.4999999999999,160.20909429576477 590.4999999999999,160.20909429576477 590.4999999999999,160.20909429576477 590.4999999999999,160.20909429576477 590.4999999999999,160.20909429576477 590.4999999999999,160.20909429576477 590.5000000000629,160.209094295687 590.5000000000764,160.20909429566666 590.5000000000592,160.209094295686 590.5000000000284,160.20909429572544 590.4999999999999,160.20909429576477 590.4999999999999,160.20909429576477 590.4999999999999,160.20909429576477 590.4999999999999,160.20909429576477 590.4999999999999,160.20909429576477 590.4999999999999,160.20909429576477 590.5000000000033,160.20909429575852 590.5000000000041,160.2090942957568 590.5000000000031,160.20909429575852 590.5000000000014,160.2090942957617 590.4999999999999,160.20909429576477 590.4999999999999,160.20909429576477 590.4999999999999,160.20909429576477 590.4999999999999,160.20909429576477 590.4999999999999,160.20909429576477 590.4999999999999,160.20909429576477 590.5,160.20909429576432 590.5,160.2090942957641 590.5,160.20909429576432 590.5,160.20909429576454 590.4999999999999,160.20909429576477 590.4999999999999,160.20909429576477 590.4999999999999,160.20909429576477 590.4999999999999,160.20909429576477 590.4999999999999,160.20909429576477 590.4999999999999,160.20909429576477 590.4999999999999,160.20909429576477 590.4999999999999,160.20909429576477 590.4999999999999,160.20909429576477 590.4999999999999,160.20909429576477 590.4999999999999,160.20909429576477 590.4999999999999,160.20909429576477 590.4999999999999,160.20909429576477 590.4999999999999,160.20909429576477 590.4999999999999,160.20909429576477 590.4999999999999,160.20909429576477" stroke="black" stroke-dasharray="8.0,8.0" stroke-width="7.0" /><polyline fill="none" points="590.5,1132.3909090909092 573.6665246485798,1124.5982512909516 557.1470903227815,1115.3114635347981 541.0727970303108,1103.3363102524938 525.6584836984864,1087.485978502856 511.20240659803414,1066.5847343633388 498.0472585661458,1039.8381710894575 486.4128598667173,1007.9308222383567 476.42192780917145,971.9167551503446 468.1258988761778,932.8487606232939 461.505144164522,891.7752750197174 456.50007237005815,849.5789601241128 453.12597224891323,806.5030815138554 451.41955465731724,762.6326878822907 451.4136938556077,718.053799095623 453.13740895765625,672.8532631250968 456.57393045971446,627.2648036173983 461.514572314167,582.1014181882678 467.6492216493602,538.3049123546948 474.6039896519022,496.7955482279398 481.94216702982,458.4692890862607 489.213203169815,424.070221115942 496.1150100186405,393.8201421584562 502.38140946460555,367.80348428162813 507.7389681406116,346.09341529820927 511.90738630490597,328.7514982658279 514.7264683320889,315.5678573645131 516.5723215076979,305.30033275236383 518.0401310412033,296.4862875221006 519.8246833470371,287.71074065663936 522.7181739544786,277.6106608364031 527.3876419873195,265.24569681902904 533.6609045334014,251.17066137042298 541.0973819004273,236.2824550280087 549.1968822107117,221.44348460804758 557.4011760636412,207.47911372598367 565.1724721707409,195.0694456901873 572.2402728580709,184.44057064366325 578.3977889211067,175.69921809722848 583.4293077738207,168.94067202060785 587.1106533111965,164.2483603886934 589.3017557063106,161.58751667535773 590.238105496572,160.49995760883678 590.2798868522974,160.4451367480258 589.8224017470653,160.91076782724997 589.2947837010308,161.41431059473382 589.0628783575731,161.5969065338886 589.1277124917622,161.48877309971454 589.3898118358933,161.20871220865797 589.7420246039399,160.86799225515063 590.0698605214016,160.5700241736115 590.2780579412479,160.38881943123658 590.3725278897055,160.30868642331836 590.3869867647527,160.29425587690048 590.3573847970888,160.3127103058198 590.3217913561998,160.3338773315278 590.3119696313663,160.33592238083304 590.3275611274247,160.32107740897754 590.3596019483966,160.29682473527942 590.3986583546547,160.2699864995202 590.4348561729532,160.24670510184615 590.4601125585085,160.23120426562264 590.4749394784764,160.2224192114212 590.482145153534,160.21819179443605 590.484667170711,160.21657261628388 590.4855631671597,160.2158263014776 590.4873737358234,160.21471587076428 590.4901917127177,160.21325766670623 590.4934734340312,160.21173119958075 590.4966578854289,160.2103772133496 590.4991684094837,160.2093969699598 590.4999999999999,160.20909429576477 590.4999999999999,160.20909429576477 590.4999999999999,160.20909429576477 590.4999999999999,160.20909429576477 590.4997151786881,160.20917061340526 590.499445507613,160.20923254624415 590.499427161561,160.20922654593892 590.4995729806102,160.20918506153805 590.4997940553087,160.20913432735756 590.4999999999999,160.20909429576477 590.4999999999999,160.20909429576477 590.4999999999999,160.20909429576477 590.4999999999999,160.20909429576477 590.4999999999999,160.20909429576477 590.4999999999999,160.20909429576477 590.499939569068,160.20909852150714 590.4998937702646,160.20909986302934 590.4998634388135,160.20909906458644 590.4998493843597,160.20909692477062 590.499852388648,160.20909429576477 590.4998720115769,160.20909206171848 590.4999030183499,160.20909090909083 590.4999389695635,160.20909109729507 590.4999734323733,160.2090924379753 590.4999999999999,160.20909429576477 590.4999999999999,160.20909429576477 590.4999999999999,160.20909429576477 590.4999999999999,160.20909429576477 590.4999999999999,160.20909429576477 590.4999999999999,160.20909429576477 590.4999963047923,160.20909357748906 590.4999954241848,160.2090933231451 590.4999963855465,160.20909346130247 590.4999982269363,160.20909385369032 590.4999999999999,160.20909429576477 590.4999999999999,160.20909429576477 590.4999999999999,160.20909429576477 590.4999999999999,160.20909429576477 590.4999999999999,160.20909429576477 590.4999999999999,160.20909429576477 590.4999997476815,160.2090941989087 590.4999996885882,160.20909416994618 590.4999997548399,160.2090941917005 590.4999998801451,160.20909424240187 590.4999999999999,160.20909429576477 590.4999999999999,160.20909429576477 590.4999999999999,160.20909429576477 590.4999999999999,160.20909429576477 590.4999999999999,160.20909429576477 590.4999999999999,160.20909429576477 590.499999983367,160.20909428577068 590.4999999795498,160.20909428298614 590.499999983963,160.20909428535026 590.4999999921907,160.20909429049732 590.4999999999999,160.20909429576477 590.4999999999999,160.20909429576477 590.4999999999999,160.20909429576477 590.4999999999999,160.20909429576477 590.4999999999999,160.20909429576477 590.4999999999999,160.20909429576477 590.4999999989484,160.20909429485073 590.4999999987132,160.2090942946062 590.4999999989958,160.20909429482833 590.4999999995134,160.20909429529502 590.4999999999999,160.20909429576477 590.4999999999999,160.20909429576477 590.4999999999999,160.20909429576477 590.4999999999999,160.20909429576477 590.4999999999999,160.20909429576477 590.4999999999999,160.20909429576477 590.4999999999369,160.209094295687 590.4999999999234,160.20909429566666 590.4999999999405,160.209094295686 590.4999999999714,160.20909429572544 590.4999999999999,160.20909429576477 590.4999999999999,160.20909429576477 590.4999999999999,160.20909429576477 590.4999999999999,160.20909429576477 590.4999999999999,160.20909429576477 590.4999999999999,160.20909429576477 590.4999999999965,160.20909429575852 590.4999999999957,160.2090942957568 590.4999999999967,160.20909429575852 590.4999999999984,160.2090942957617 590.4999999999999,160.20909429576477 590.4999999999999,160.20909429576477 590.4999999999999,160.20909429576477 590.4999999999999,160.20909429576477 590.4999999999999,160.20909429576477 590.4999999999999,160.20909429576477 590.4999999999998,160.20909429576432 590.4999999999998,160.2090942957641 590.4999999999998,160.20909429576432 590.4999999999998,160.20909429576454 590.4999999999999,160.20909429576477 590.4999999999999,160.20909429576477 590.4999999999999,160.20909429576477 590.4999999999999,160.20909429576477 590.4999999999999,160.20909429576477 590.4999999999999,160.20909429576477 590.4999999999999,160.20909429576477 590.4999999999999,160.20909429576477 590.4999999999999,160.20909429576477 590.4999999999999,160.20909429576477 590.4999999999999,160.20909429576477 590.4999999999999,160.20909429576477 590.4999999999999,160.20909429576477 590.4999999999999,160.20909429576477 590.4999999999999,160.20909429576477 590.4999999999999,160.20909429576477" stroke="black" stroke-dasharray="8.0,8.0" stroke-width="7.0" /></g><rect fill="white" height="111.60000000000001" stroke="none" width="1181" x="0" y="0" /><line stroke="black" stroke-width="3.0" x1="0" x2="1181" y1="111.60000000000001" y2="111.60000000000001" /><text font-family="Arial" font-size="62.0" text-anchor="start" x="40.0" y="77.5">LED</text><text font-family="Arial" font-size="62.0" text-anchor="middle" x="590.5" y="77.5" /><text font-family="Arial" font-size="62.0" text-anchor="end" x="1141.0" y="77.5">cd / klm</text><rect fill="none" height="1178.0" stroke="black" stroke-width="3.0" width="1178.0" x="1.5" y="1.5" /></svg>