<?xml version="1.0" encoding="utf-8" ?>
<svg baseProfile="full" height="1181" version="1.1" width="1181" xmlns="http://www.w3.org/2000/svg" xmlns:ev="http://www.w3.org/2001/xml-events" xmlns:xlink="http://www.w3.org/1999/xlink"><defs><clipPath id="plot_clip"><rect height="1069.4" width="1181.0" x="0" y="111.60000000000001" /></clipPath></defs><g clip-path="url(#plot_clip)" id="grid"><circle cx="444.49797320202015" cy="244.1748384108547" fill="none" r="236.33018698068577" stroke="black" stroke-width="3.0" /><text font-family="Arial" font-size="42.0" text-anchor="start" x="452.49797320202015" y="520.5050253915404">200</text><circle cx="444.49797320202015" cy="244.1748384108547" fill="none" r="472.66037396137153" stroke="black" stroke-width="3.0" /><text font-family="Arial" font-size="42.0" text-anchor="start" x="452.4979732020202" y="756.8352123722262">400</text><circle cx="444.49797320202015" cy="244.1748384108547" fill="none" r="708.9905609420573" stroke="black" stroke-width="3.0" /><text font-family="Arial" font-size="42.0" text-anchor="start" x="452.4979732020202" y="993.1653993529119">600</text><circle cx="444.49797320202015" cy="244.1748384108547" fill="none" r="945.3207479227431" stroke="black" stroke-width="3.0" /><text font-family="Arial" font-size="42.0" text-anchor="start" x="452.49797320202026" y="1229.4955863335977">800</text><line stroke="black" stroke-width="3.0" x1="-4153.246731960476" x2="5042.242678364516" y1="244.17483841085436" y2="244.17483841085505" /><line stroke="black" stroke-width="3.0" x1="-3537.265741584095" x2="4426.261687988135" y1="-2054.6975141703947" y2="2543.0471909921043" /><line stroke="black" stroke-width="3.0" x1="-1854.374379379228" x2="2743.3703257832685" y1="-3737.588876375261" y2="4225.93855319697" /><line stroke="black" stroke-width="3.0" x1="444.49797320202015" x2="444.49797320202015" y1="-4353.569866751641" y2="4841.91954357335" /><line stroke="black" stroke-width="3.0" x1="2743.3703257832685" x2="-1854.3743793792282" y1="-3737.588876375261" y2="4225.93855319697" /><line stroke="black" stroke-width="3.0" x1="4426.261687988136" x2="-3537.265741584096" y1="-2054.6975141703947" y2="2543.0471909921043" /><line stroke="black" stroke-width="3.0" x1="5042.242678364517" x2="-4153.246731960477" y1="244.17483841085436" y2="244.17483841085505" /></g><g clip-path="url(#plot_clip)" id="curves"><polyline fill="none" points="444.49797320202015,269.0367740812228 444.6559787894834,253.2269724540713 444.52803895915724,245.03580904737623 444.9115470219601,252.06629699959387 447.1342305797421,281.87507533645055 453.0521286486119,341.9492825713493 464.680299139095,436.19684291009355 482.6034376560817,554.518941723604 506.2232174638818,683.3727725384751 534.0065311197018,809.3096315399961 563.4905942251414,919.0155266879423 591.8580634721354,1002.2767826037231 618.0584841129883,1060.7128438590591 641.8202266991646,1098.871418893117 663.1827818037348,1121.271699204547 682.494752045086,1132.3909090909092 697.96001185254,1128.10201296604 713.3480646676791,1123.5438640610066 728.6542231405489,1118.717850832121 743.8738248670037,1113.6254433297636 755.5144329260565,1098.685538581362 765.4593844852504,1080.3079011334878 773.8955708670709,1059.4625019385317 780.802215041361,1036.4579821846294 786.177627564229,1011.5999070032575 790.039002846,985.1899678023677 792.43529794079,957.5520719515778 793.4900407083776,929.1103364367942 793.368143982973,900.3042015684877 792.2631745530105,871.5598692696234 790.3967431216263,843.2890821871899 787.9888184225267,815.8396044865809 785.1632213028479,789.3531977909455 782.0224933796197,763.9170214606683 778.6750140057705,739.6126756795843 775.2347783987369,716.5159475088009 771.8167195049438,694.6904430534893 768.5222771853887,674.1696130911417 765.4510439254854,654.9760356100272 762.7048250770674,637.1275749813211 760.3874638892906,620.6372738001644 758.5685360386273,605.4716915362083 757.1690289204666,591.4312259166171 756.0597605882708,578.2839504432327 755.0965302913879,565.809059696506 754.1206370541829,553.7975022630175 752.9732296347385,542.0659308536646 751.5391421909927,530.4953605584147 749.7091600078288,518.9882253757482 747.3670241613742,507.4548877048079 744.3897831625345,495.8139455418093 740.6885007737278,484.025198422029 736.3341775027563,472.1822701252977 731.4446566529515,460.4046738888686 726.1450777509781,448.80343775524454 720.5675000798126,437.4808022006731 714.8582121971153,426.53512222860024 709.2011394747872,416.07508453181276 703.7955374617084,406.2019393414731 698.8479227460006,397.00370654347955 694.5715025412003,388.55485789203 691.1301160603654,380.88526757642785 688.4669852051406,373.89546312604637 686.4636096668092,367.4624880927819 684.9945591065222,361.47286079530954 683.9279046662732,355.82284904416224 683.1232203879281,350.4176434968608 682.4245662936029,345.16868528478165 681.6680229740598,339.99775850138803 680.6846012940682,334.8383904916774 679.3007600647151,329.6360637516269 677.3601112386716,324.35570262654335 674.7884848788466,319.0007615102096 671.5324870157668,313.586255033767 667.5387380805303,308.13074857588254 662.7540251115024,302.65637126320564 657.1157670470781,297.18640831916605 650.5227799357508,291.7394128684648 642.8640038954143,286.3388398471726 634.0284328787814,281.01582775383736 623.9054483476093,275.80921681980533 612.4830505681855,270.7810608723687 600.1439294171262,266.0494510153775 587.3748822251396,261.7179169484226 574.6680551755038,257.85626533114805 562.5194729796651,254.5003816937259 551.371982157868,251.64819713675922 541.4465542623975,249.255698248871 532.9071694727528,247.26215557477565 525.915759852933,245.59599116315803 520.6317429378481,244.1748384108547 517.1265902490038,242.9071011846529 515.1287751165622,241.70835645817954 514.2794548268447,240.5177459238173 514.2185314019305,239.29950204901297 514.585745960458,238.0429528427103 515.075942216504,236.7567949509828 515.6018070384296,235.444385394738 516.1304974090916,234.10754366695346 516.6294028156093,232.75034230169774 517.0662429696723,231.37909450748714 517.4203183089408,230.000170425924 517.7157501626718,228.61191948697592 517.9874720051805,227.2084507554448 518.2699001459343,225.7814312000354 518.5968273488854,224.3201102821306 518.9921432609855,222.81397888051447 519.4425861281957,221.26197082927956 519.9258991526292,219.66681962350458 520.4201546252784,218.03273488563912 520.9038171631571,216.36538548501267 521.3608051036741,214.6699616128368 521.7952747906625,212.9447013827537 522.2161649463455,211.18542325403928 522.6321041353851,209.38728201766753 523.0513814093063,207.5447825896215 523.4772777069812,205.65405778151865 523.8944399142079,203.72031802105766 524.2833729036364,201.75218888062432 524.6252115049821,199.75958495160978 524.9017756334945,197.75368143317348 525.0982002674707,195.74533608254615 525.2104968518249,193.740056066835 525.2374729835276,191.741994181775 525.1781087525861,189.75539984199645 525.0315612116704,187.78461300742242 524.8003387588844,185.83175473435983 524.4994900957577,183.88937134121159 524.1465025548782,181.94658725506827 523.7580007963677,179.9913335943562 523.3496954044361,178.010387393114 522.9268730866881,175.99763587959615 522.4571283844308,173.98009979456913 521.9008020397478,171.99553280994235 521.2208440824063,170.08442323069335 520.3829319969615,168.28987961591338 519.3631316168807,166.64969742553353 518.1695470667006,165.17174778009917 516.81779978191,163.8555339409521 515.3231821175679,162.69975563958087 513.7006265394825,161.70232767888228 511.94771461283165,160.88134453361897 509.99670988071955,160.3402784797354 507.77070230188286,160.20909090909072 505.20155851072553,160.62352108417303 502.23017752731283,161.72470587885948 498.8300705685772,163.6241915177634 495.0727429259738,166.29652245994782 491.04920654478076,169.6772923229878 486.8452462532702,173.69714073816408 482.54122505123604,178.2819933228741 478.22620527914165,183.32749704285004 474.0370719790309,188.61987357845123 470.1089918126644,193.9103842289163 466.5598096821442,198.9413703233621 463.489670855483,203.44701136077845 460.93621402653093,207.25394502070992 458.75487506791507,210.58768242076917 456.7767993942875,213.78367712699003 454.85723410555,217.18804111275904 452.8759699924969,221.15648140875646 450.78780846837617,225.9078304115145 448.75275484165195,231.07996700428419 446.9501384113217,236.15416741505499 445.52297491333576,240.60023263785115 444.57748998134036,243.87807775037732 444.5008318743612,244.16337290233378 444.5006313382569,244.16332475787476 444.50042999245846,244.1632801205858 444.50022789829785,244.16323900406417 444.54516725426157,243.90718764038388 444.6117591622796,243.45642213191798 444.61169053776104,243.3656975232136 444.5788526216782,243.51612839826544 444.53871594756066,243.7871970809167 444.50827196851014,244.05712297122 444.4987974800443,244.1630506859285 444.49859163033636,244.163038095621 444.4983855922492,244.1630290998038 444.498179428544,244.1630237012173 444.49797320202015,244.16302190150566" stroke="black" stroke-width="9.0" /><polyline fill="none" points="444.49797320202015,269.0367740812228 444.14801740595146,264.22379254009127 443.9588101239073,259.61444887648963 443.90867468000056,255.41932405938655 443.96143184902235,251.84773723300066 444.0664548860892,249.10711533154415 444.1665735743216,247.32789524877262 444.2320421142854,246.34067331533447 444.2552823138267,245.90167380860498 444.24561219684927,245.76818308949692 444.2291722957756,245.69928410353623 444.2390962964998,245.50664463479131 444.2792190140941,245.20399594994592 444.3409939191356,244.85479038743165 444.4115047386218,244.521644475205 444.4735065006908,244.2661493833092 444.4947161306282,244.18619716867158 444.4945183890379,244.18613859494394 444.49432169981714,244.1860765790709 444.48880345558086,244.20146928820918 444.4656413282508,244.26366950396448 444.451468128958,244.2959882681414 444.4469484175788,244.3011291840238 444.4495816343577,244.2888418000182 444.4562073205193,244.26864611660005 444.4630160935336,244.249804171925 444.4665012939603,244.23936538485157 444.46655883140545,244.23649258464673 444.46414274233564,244.23846425171814 444.4603897488039,244.2426407552648 444.4566154192985,244.2464721918169 444.4539873865583,244.24804310104219 444.45247836958805,244.24764536208863 444.45170176044496,244.2460901825615 444.45121670027567,244.24415777536524 444.45052950276244,244.242595035382 444.44925261670994,244.24189654363033 444.44760865217415,244.24167442592102 444.4460109534266,244.24134705613199 444.4449125190964,244.2403628973209 444.444804661425,244.2382022101218 444.4460476716901,244.23457190047452 444.44833879049,244.22996300946625 444.45116906342673,244.22502970458186 444.45398605413936,244.22038843590235 444.4561955325669,244.21661608030797 444.45729905469625,244.21411697835026 444.4573214076129,244.212746822418 444.45643562363284,244.21223901442488 444.4548311805507,244.21234119796054 444.4527133454007,244.2128159398511 444.4502817800638,244.2134581628752 444.4476653775084,244.21414319104656 444.44497980223355,244.21477180189265 444.44234725244297,244.21525302888313 444.4398960952824,244.2155044387897 444.4377707152864,244.21544550089163 444.4361627493905,244.21497858813132 444.43528160469253,244.21401246864684 444.43534389118344,244.21246989733334 444.4365728183382,244.21028793890173 444.43909507499404,244.2074750895979 444.4426248795668,244.20426763592968 444.4467580473558,244.20093383555593 444.4510737141066,244.19771281949704 444.45513562426567,244.19481390141834 444.45856501022456,244.1923840682781 444.4612609905077,244.190421820089 444.46319426020915,244.188890015453 444.4643367242704,244.1877502449281 444.46466154210395,244.18696286351815 444.46422584158046,244.18645855892964 444.46342264610234,244.1860645669882 444.46273900127386,244.1856105870595 444.4626728616987,244.1849606205575 444.4637315873496,244.18401342385312 444.4661985133238,244.18276073052834 444.4694278926609,244.18142861479157 444.4725273683437,244.18024708976975 444.4745904436389,244.17938355865738 444.4746992219792,244.17894224148438 444.472318241199,244.17890175746584 444.4684786462719,244.1789836003387 444.46461882571526,244.1789338133034 444.4621913510232,244.17859923494018 444.46265857012975,244.1779280408017 444.4669010839875,244.17701118500906 444.47344699438196,244.17612377493117 444.480224815599,244.17545819816576 444.48515508780434,244.17506215187052 444.4861566926711,244.1748384108547 444.48188233029924,244.17455754364403 444.4739096414436,244.17399809280266 444.46454939102665,244.1730867431453 444.45610929769845,244.1719110014899 444.4508870261663,244.1707189042587 444.45044565587193,244.16984306446273 444.4534654995978,244.1693735521559 444.4579156197922,244.16920868481225 444.4617797120889,244.16910592520844 444.46306223195876,244.16868266491008 444.46033403987536,244.16752209888125 444.45434180745343,244.1655642716447 444.4463641868299,244.16292353087192 444.4376651064099,244.15980191382084 444.4294899726792,244.15648838485777 444.4228233310189,244.15328953210474 444.41767926114267,244.1502900895931 444.4138325649065,244.14749946060294 444.41106023545643,244.1449118765139 444.40914210891026,244.1425065370853 444.4079221574389,244.1402710535225 444.4074877459649,244.13827991355163 444.4079820101539,244.13663941622667 444.40954196539076,244.13546628762992 444.4122980465112,244.1348874297272 444.4161932436291,244.13495166005578 444.4204539274304,244.13534036762485 444.4241540087592,244.13558804956028 444.4264011281148,244.13516536245766 444.4263394210579,244.13348062813304 444.42354168479005,244.13011544333665 444.41914725118346,244.12558249004167 444.41463504310354,244.1207179776511 444.4114217598515,244.11645872596694 444.4108575419135,244.11383936895197 444.4137550753224,244.1136503601798 444.4190333863885,244.11535299307116 444.42520142396285,244.11798286664316 444.430840665468,244.12047555464687 444.43460940275287,244.12166987025944 444.43564652601634,244.1206586579924 444.43472542797025,244.1178898593074 444.4329701193265,244.11422205559734 444.4314404512141,244.11058848024413 444.4311289308949,244.10799413972939 444.4326750745648,244.10722022044092 444.435555932847,244.10790408442813 444.4390052964415,244.1093479169458 444.44230851994627,244.11080351919884 444.444804661425,244.11147461158748 444.4461033423474,244.11078446863485 444.4466938308083,244.10920380876792 444.44723552574317,244.10750724029026 444.44833207429815,244.10651326014624 444.45052950276244,244.10708178632729 444.45409560333184,244.1097871956473 444.4584073108276,244.11391228124523 444.4626870827951,244.11836881586294 444.46623520011184,244.12201750546774 444.4684319286476,244.12367142445305 444.46896633240425,244.12250863283668 444.46846111263056,244.11933424329197 444.4676918344809,244.11540788080094 444.4673437992011,244.11203882858968 444.4680099661745,244.11058204422284 444.4699716682658,244.11194593631672 444.4726131983242,244.1150939861502 444.47519365519025,244.11845705396922 444.4770833481857,244.12041848106765 444.4777657809143,244.1193189776609 444.4770137498212,244.11396774178831 444.4753429591943,244.10518968506722 444.4733652206806,244.0943493306545 444.4715950342492,244.08284680756833 444.4704481630247,244.0721135668433 444.4701946425641,244.06342469422725 444.47084616581674,244.05733830799875 444.47233750816616,244.054231953672 444.47457851663677,244.05448318821345 444.4774540488717,244.05846851064996 444.48078451036184,244.06631328286164 444.4842423654255,244.07713843188606 444.4875317174376,244.08979934319223 444.4904370630281,244.1031368379065 444.49282381877515,244.1159806910374 444.4946563098828,244.12740464338924 444.49601567288926,244.13748652993866 444.4969856664211,244.14655909131568 444.49762619196173,244.15495821792047 444.49797320202015,244.16302190150566" stroke="black" stroke-width="9.0" /><polyline fill="none" points="444.49797320202015,269.0367740812228 444.94512486941437,269.79214027900025 445.4195915651229,270.5665352868516 445.924074939413,271.3864805926544 446.4631610843615,272.2783344479526 447.043313340023,273.2682093165448 447.67230975359945,274.37663326294 448.35683952726754,275.60278258291476 449.10286676192715,276.9403586218192 449.9159939107263,278.3828748669887 450.801457049221,279.9236717537391 451.7628795719337,281.54954165184176 452.79765159963375,283.2217552992554 453.8991054898242,284.8956161064317 455.0575581973236,286.52702057606894 456.26033986607945,288.07258841837836 457.4948847160225,289.50045535010884 458.759427110729,290.821952271546 460.0564425594297,292.0588834157995 461.3899477330501,293.23269458929497 462.7654818816896,294.36440601793777 464.18717090995773,295.466952052397 465.6479024315494,296.52275019754757 467.13622110871137,297.5072082999377 468.6390071645868,298.39648845085003 470.1415092132039,299.1675788531742 471.6302320170843,299.8042128901045 473.10234463980197,300.31407829801674 474.5585619114553,300.7105831605804 476.00048458230845,301.00687335187615 477.4305847577787,301.2157948513584 478.85105636689036,301.3479698776291 480.2601349651742,301.4062607135817 481.6550313760289,301.3916904514309 483.03300111006746,301.3053667078748 484.3913466064194,301.14848012056643 485.7267696465379,300.9214084398751 487.0333000789597,300.6211236788288 488.30403561282264,300.24404143288905 489.5317744899827,299.7869515693242 490.70903048498815,299.2470319454085 491.82923055829195,298.6232215475567 492.8904657436549,297.92014625137244 493.89228091202773,297.14374845239774 494.8156928022609,296.2803623777178 495.7173959517438,295.39426116057825 496.54143090887123,294.43262132050745 497.3079099466166,293.42090112316646 498.01852466812954,292.36495940399027 498.67528386116476,291.27045605739886 499.2805036542095,290.14283950824483 499.8344202841186,288.98540971167847 500.32778266375453,287.79386607391655 500.74852684650625,286.56267093018164 501.08411759367016,285.2870788072404 501.3215823859927,283.9631579097547 501.45220705499963,282.59095421492464 501.4859871124178,281.18328736551223 501.43840077059406,279.7551664830694 501.3258103355369,278.32044780889703 501.1654106417922,276.89179867099335 500.9689312460413,275.4772015988651 500.7233716932838,274.0704130875846 500.40890096855475,272.6628790127487 500.00503814077103,271.24744287712497 499.49071364433973,269.81837442203835 498.84957009028807,268.3737284378377 498.08606033600233,266.921631848076 497.2103112222021,265.4720053960958 496.23293730748946,264.0340304847924 495.1650079345689,262.61613091203424 494.0164400502789,261.22541391447896 492.79116941420557,259.8662490542341 491.4917210044962,258.54226895080205 490.1207568608916,257.2569611105084 488.68106999846435,256.01366351656793 487.15468937855553,254.81035226299866 485.4395054190667,253.62693589571313 483.4108745238676,252.44603092043144 480.94269171117907,251.2589740611021 477.90777155079013,250.0658872797719 474.23948533740776,248.88543116482333 470.11718800419334,247.77538424357192 465.784577262181,246.78850474349554 461.4880779194557,245.96057037426442 457.4761004217342,245.31027741637683 453.96010830289333,244.83649535263748 450.99898103793134,244.51554179463642 448.6125730396543,244.31852340333546 446.8197353229516,244.21536491942334 445.6382663542019,244.1748384108547 445.05828273219566,244.16505817162556 444.96252597572163,244.15861587052746 445.2064472281971,244.13770886046302 445.64522765102987,244.09461456474742 446.134217812941,244.03168555664365 446.55968334190084,243.95814394326294 446.9296814983786,243.87626217544232 447.2824855174322,243.78350072580747 447.65606805682654,243.67464532478436 448.0879846233352,243.54182253622525 448.60618886210517,243.37628218084296 449.20196826020975,243.17497339517308 449.85756034601565,242.93748022174054 450.55532852636986,242.66457010532304 451.2778129067703,242.35818583715445 452.0057407521846,242.02202070849523 452.7120406678898,241.66354596696692 453.3681763046353,241.2927347132288 453.94629161110674,240.92152148345303 454.4192959137301,240.56377225924302 454.76902559468226,240.23215079534725 455.01011717884353,239.92765655446294 455.1650151423112,239.64694774374948 455.2557256765294,239.3851784197543 455.3037521905889,239.13602091615473 455.3273414365057,238.8930026093161 455.3335365721555,238.65384311416108 455.3265343569407,238.4171903134603 455.3104071337155,238.18140841428078 455.2890906341176,237.9445838565763 455.2648829207832,237.7054263722248 455.23409213566663,237.4661667307655 455.19172613407056,237.23023405700303 455.13302725559066,237.00140387464182 455.05348735160226,236.78378783363803 454.9502138599275,236.58084105993828 454.8258595872151,236.3922177962894 454.6843286227664,236.21638533413682 454.5293809158216,236.05156461374906 454.3646219450615,235.8957370896129 454.1930071234916,235.747074000241 454.0154349518861,235.60527735982532 453.83230210821006,235.47043588686176 453.6440027314975,235.34262036018447 453.45092776585847,235.22188384701644 453.2533362928228,235.1083945220854 453.05098949632924,235.00285136050638 452.8435678014238,234.90611660506613 452.630805085734,234.81908555059056 452.4124902448953,234.7426842913601 452.18814763293244,234.67826387286243 451.95613107308895,234.62883165220524 451.7146884642217,234.5979337930412 451.46230332502597,234.58926034135663 451.197701304339,234.60663507581387 450.9203604190964,234.65325779814214 450.631924137733,234.72938227519273 450.3345068577612,234.83443207166204 450.03016037755793,234.96773280208436 449.7208703342933,235.12851521505183 449.40851852990147,235.3159801349318 449.09478558458864,235.52949170672628 448.78126583814696,235.7684032850392 448.4695012098621,236.0319992794365 448.1609787841434,236.31949759012605 447.85764568564167,236.62889046436646 447.56329562789085,236.9533913218545 447.2817261455976,237.28480809704706 447.0161704120049,237.61471039638081 446.7692873343153,237.93445411988546 446.5420889086273,238.2382953404982 446.3311738116325,238.53282707431094 446.13267621335785,238.82796578577666 445.94344758651454,239.13387016416686 445.76106665814507,239.46090945788865 445.58439216469526,239.81744994952544 445.4148970707719,240.20320479480097 445.25450506686525,240.6156358207246 445.10496775432574,241.05212214911853 444.9678618091194,241.509967696167 444.84511026631145,241.98310124538511 444.7400893553554,242.45209246411264 444.6552417964094,242.89398849590805 444.591428598383,243.2856697096447 444.5479222194966,243.60391852862688 444.5219109838705,243.83251218168687 444.50800485760436,243.98342301944774 444.5014294687559,244.07586388119705 444.49876936116857,244.12922648378708 444.49797320202015,244.16302190150566" stroke="black" stroke-dasharray="8.0,8.0" stroke-width="7.0" /><polyline fill="none" points="444.49797320202015,269.0367740812228 444.0508215346259,269.79214027900025 443.5763548389173,270.5665352868516 443.07187146462724,271.3864805926544 442.5327853196788,272.2783344479526 441.95263306401733,273.2682093165448 441.3236366504409,274.37663326294 440.63910687677276,275.60278258291476 439.8930796421131,276.9403586218192 439.07995249331407,278.3828748669887 438.19448935481927,279.9236717537391 437.23306683210654,281.54954165184176 436.19829480440654,283.2217552992554 435.0968409142161,284.8956161064317 433.9383882067167,286.52702057606894 432.73560653796085,288.0725884183785 431.5010616880178,289.50045535010884 430.2365192933113,290.821952271546 428.9395038446106,292.0588834157995 427.6059986709902,293.23269458929485 426.2304645223507,294.3644060179379 424.80877549408257,295.466952052397 423.3480439724908,296.52275019754757 421.859725295329,297.5072082999377 420.3569392394535,298.39648845085003 418.8544371908364,299.1675788531742 417.365714386956,299.8042128901045 415.8936017642383,300.31407829801674 414.437384492585,300.7105831605804 412.9954618217318,301.00687335187627 411.5653616462616,301.2157948513584 410.14489003714993,301.3479698776291 408.7358114388661,301.4062607135817 407.34091502801147,301.3916904514309 405.9629452939728,301.3053667078748 404.6045997976209,301.14848012056643 403.26917675750235,300.9214084398751 401.9626463250806,300.6211236788288 400.69191079121765,300.24404143288905 399.4641719140575,299.7869515693242 398.2869159190522,299.2470319454085 397.16671584574834,298.6232215475567 396.1054806603854,297.92014625137244 395.1036654920125,297.14374845239774 394.1802536017794,296.2803623777178 393.27855045229654,295.39426116057825 392.45451549516906,294.43262132050745 391.68803645742366,293.42090112316646 390.9774217359107,292.36495940399027 390.3206625428755,291.27045605739886 389.7154427498308,290.14283950824483 389.1615261199217,288.98540971167847 388.6681637402857,287.79386607391643 388.24741955753404,286.56267093018164 387.91182881037014,285.2870788072404 387.6743640180476,283.9631579097547 387.54373934904066,282.59095421492464 387.5099592916225,281.18328736551223 387.5575456334462,279.7551664830694 387.6701360685033,278.32044780889703 387.830535762248,276.89179867099335 388.027015157999,275.4772015988651 388.2725747107565,274.0704130875846 388.5870454354855,272.6628790127487 388.99090826326926,271.24744287712497 389.5052327597005,269.81837442203835 390.1463763137522,268.3737284378377 390.90988606803796,266.921631848076 391.78563518183813,265.4720053960958 392.76300909655083,264.0340304847924 393.83093846947133,262.61613091203424 394.97950635376134,261.22541391447896 396.20477698983467,259.8662490542341 397.5042253995441,258.54226895080217 398.8751895431486,257.2569611105084 400.31487640557594,256.01366351656793 401.84125702548477,254.81035226299866 403.5564409849736,253.62693589571313 405.5850718801727,252.44603092043144 408.05325469286123,251.2589740611021 411.08817485325017,250.0658872797719 414.7564610666325,248.88543116482333 418.87875839984696,247.77538424357192 423.2113691418593,246.78850474349554 427.5078684845846,245.96057037426442 431.51984598230604,245.31027741637683 435.0358381011469,244.83649535263748 437.99696536610895,244.51554179463642 440.383373364386,244.31852340333546 442.1762110810887,244.21536491942334 443.35768004983834,244.1748384108547 443.93766367184463,244.16505817162556 444.0334204283186,244.15861587052746 443.7894991758432,244.13770886046302 443.3507187530104,244.09461456474742 442.8617285910993,244.03168555664365 442.43626306213946,243.95814394326294 442.0662649056617,243.87626217544232 441.7134608866081,243.78350072580747 441.33987834721376,243.67464532478436 440.9079617807051,243.54182253622525 440.3897575419351,243.37628218084296 439.79397814383054,243.17497339517308 439.13838605802465,242.93748022174054 438.44061787767043,242.66457010532304 437.71813349727,242.35818583715445 436.99020565185566,242.02202070849523 436.2839057361505,241.66354596696692 435.627770099405,241.2927347132288 435.0496547929335,240.92152148345303 434.5766504903102,240.56377225924302 434.22692080935803,240.23215079534725 433.98582922519677,239.92765655446294 433.83093126172906,239.64694774374948 433.7402207275109,239.3851784197543 433.6921942134514,239.13602091615473 433.6686049675346,238.8930026093161 433.66240983188476,238.65384311416108 433.6694120470995,238.4171903134603 433.6855392703248,238.18140841428078 433.7068557699227,237.9445838565763 433.7310634832571,237.7054263722248 433.76185426837367,237.4661667307655 433.80422026996973,237.23023405700303 433.86291914844963,237.00140387464182 433.942459052438,236.78378783363803 434.0457325441128,236.58084105993828 434.1700868168252,236.39221779628951 434.3116177812739,236.21638533413682 434.46656548821863,236.05156461374906 434.6313244589788,235.8957370896129 434.8029392805486,235.747074000241 434.9805114521542,235.60527735982532 435.16364429583024,235.47043588686176 435.3519436725428,235.34262036018447 435.54501863818183,235.22188384701644 435.74261011121746,235.1083945220854 435.94495690771106,235.00285136050627 436.1523786026166,234.90611660506613 436.3651413183063,234.81908555059056 436.583456159145,234.7426842913601 436.80779877110785,234.67826387286243 437.03981533095134,234.62883165220524 437.28125793981854,234.5979337930412 437.5336430790143,234.58926034135663 437.79824509970126,234.60663507581387 438.07558598494387,234.65325779814214 438.3640222663073,234.72938227519273 438.6614395462791,234.83443207166204 438.96578602648236,234.96773280208436 439.27507606974694,235.12851521505183 439.5874278741388,235.3159801349318 439.9011608194516,235.52949170672628 440.2146805658933,235.7684032850392 440.52644519417817,236.0319992794365 440.8349676198969,236.31949759012605 441.13830071839857,236.62889046436646 441.4326507761494,236.9533913218545 441.71422025844265,237.28480809704706 441.9797759920354,237.61471039638081 442.226659069725,237.93445411988546 442.453857495413,238.2382953404982 442.6647725924078,238.53282707431094 442.8632701906824,238.82796578577666 443.0524988175257,239.13387016416686 443.2348797458952,239.46090945788865 443.41155423934504,239.81744994952544 443.58104933326837,240.20320479480097 443.74144133717505,240.6156358207246 443.8909786497145,241.05212214911853 444.02808459492087,241.509967696167 444.15083613772873,241.98310124538511 444.25585704868485,242.45209246411264 444.34070460763087,242.89398849590805 444.4045178056573,243.2856697096447 444.44802418454367,243.60391852862688 444.47403542016974,243.83251218168687 444.4879415464359,243.98342301944774 444.4945169352844,244.07586388119705 444.49717704287167,244.12922648378708 444.49797320202015,244.16302190150566" stroke="black" stroke-dasharray="8.0,8.0" stroke-width="7.0" /></g><rect fill="white" height="111.60000000000001" stroke="none" width="1181" x="0" y="0" /><line stroke="black" stroke-width="3.0" x1="0" x2="1181" y1="111.60000000000001" y2="111.60000000000001" /><text font-family="Arial" font-size="62.0" text-anchor="start" x="40.0" y="77.5">LED</text><text font-family="Arial" font-size="62.0" text-anchor="middle" x="590.5" y="77.5" /><text font-family="Arial" font-size="62.0" text-anchor="end" x="1141.0" y="77.5">cd / klm</text><rect fill="none" height="1178.0" stroke="black" stroke-width="3.0" width="1178.0" x="1.5" y="1.5" /></svg>