<?xml version="1.0" encoding="utf-8" ?>
<svg baseProfile="full" height="1181" version="1.1" width="1181" xmlns="http://www.w3.org/2000/svg" xmlns:ev="http://www.w3.org/2001/xml-events" xmlns:xlink="http://www.w3.org/1999/xlink"><defs><clipPath id="plot_clip"><rect height="1069.4" width="1181.0" x="0" y="111.60000000000001" /></clipPath></defs><g clip-path="url(#plot_clip)" id="grid"><circle cx="590.4999999999999" cy="446.417976081471" fill="none" r="110.57092044224723" stroke="black" stroke-width="3.0" /><text font-family="Arial" font-size="42.0" text-anchor="start" x="598.4999999999999" y="596.9888965237183">40</text><circle cx="590.4999999999999" cy="446.417976081471" fill="none" r="221.14184088449446" stroke="black" stroke-width="3.0" /><text font-family="Arial" font-size="42.0" text-anchor="start" x="598.4999999999999" y="707.5598169659655">80</text><circle cx="590.4999999999999" cy="446.417976081471" fill="none" r="331.71276132674166" stroke="black" stroke-width="3.0" /><text font-family="Arial" font-size="42.0" text-anchor="start" x="598.5" y="818.1307374082127">120</text><circle cx="590.4999999999999" cy="446.417976081471" fill="none" r="442.2836817689889" stroke="black" stroke-width="3.0" /><text font-family="Arial" font-size="42.0" text-anchor="start" x="598.5" y="928.7016578504599">160</text><circle cx="590.4999999999999" cy="446.417976081471" fill="none" r="552.8546022112362" stroke="black" stroke-width="3.0" /><text font-family="Arial" font-size="42.0" text-anchor="start" x="598.5" y="1039.2725782927073">200</text><circle cx="590.4999999999999" cy="446.417976081471" fill="none" r="663.4255226534833" stroke="black" stroke-width="3.0" /><text font-family="Arial" font-size="42.0" text-anchor="start" x="598.5" y="1149.8434987349542">240</text><line stroke="black" stroke-width="3.0" x1="-2395.8247538663595" x2="3576.824753866359" y1="446.4179760814709" y2="446.4179760814711" /><line stroke="black" stroke-width="3.0" x1="-1995.7331007985783" x2="3176.733100798578" y1="-1046.7444008517095" y2="1939.5803530146516" /><line stroke="black" stroke-width="3.0" x1="-902.6623769331795" x2="2083.662376933179" y1="-2139.8151247171077" y2="3032.65107688005" /><line stroke="black" stroke-width="3.0" x1="590.4999999999999" x2="590.4999999999999" y1="-2539.9067777848886" y2="3432.7427299478304" /><line stroke="black" stroke-width="3.0" x1="2083.6623769331795" x2="-902.6623769331798" y1="-2139.8151247171077" y2="3032.65107688005" /><line stroke="black" stroke-width="3.0" x1="3176.733100798578" x2="-1995.7331007985783" y1="-1046.7444008517095" y2="1939.5803530146516" /><line stroke="black" stroke-width="3.0" x1="3576.8247538663595" x2="-2395.82475386636" y1="446.4179760814709" y2="446.4179760814711" /></g><g clip-path="url(#plot_clip)" id="curves"><polyline fill="none" points="590.5,904.596227664033 598.470610823607,903.0539643396419 606.3746048460937,901.0071812204122 614.1712368539169,898.0920820586504 621.7942878885715,893.947142917394 629.1521632878308,888.2142240762506 636.1407423507316,880.6606327676031 642.6985644048797,871.5411676377552 648.7983086410713,861.2319962523608 654.4382533593478,850.1082200747302 659.6421804467448,838.5427670178225 664.446417698417,826.8393162184803 668.8520001005797,815.0351548925181 672.8469534851062,803.101818423008 676.4168359557387,791.0115836024754 679.5447698711126,778.7375813887419 682.2381025001893,766.3467597911894 684.621251368404,754.2747175748199 686.8782717779374,743.0397964738314 689.2289910606671,733.1477858618199 691.9284562230795,725.0903692445237 695.2638500799098,719.3371362998654 699.5455009177118,716.3150618270944 705.1120519893084,716.4270499123985 712.3319969618893,720.0571214960613 721.6029173640263,727.5690896676184 733.2190666873316,739.0354267771193 746.938181455534,753.4451944682235 762.3108738955659,769.5472336511435 778.8043735103106,786.1280584205389 795.8042842017742,802.0154273305048 812.7320503764921,816.2742178437535 829.4204331008531,828.7705948662089 845.8146506025413,839.568061292886 861.8635800537126,848.7310281449877 877.5197563729056,856.3246690410438 892.7309609177321,862.4032064952672 907.4133897881968,866.9762489020684 921.4741163169622,870.0455267338656 934.8192282641189,871.6168120051749 947.3539710785983,871.6999781459008 958.9582465507659,870.2807022935216 969.4088911238047,867.2389325436204 978.4470985911848,862.4403057555184 985.80268286362,855.7658873094897 991.1947175158306,847.1126935973016 994.4598506690369,836.5174693453021 995.9530075326256,824.5090223255314 996.1938945883184,811.7063995157346 995.7420225881183,798.689491923146 995.1949470757185,785.9973569120153 995.2080150881653,774.1440648059114 996.5595951334429,763.6665012643672 1000.0885021581495,755.0650507582817 1006.6706749505131,748.7836703417142 1017.2167346779607,745.208250383212 1032.2433856479402,744.3776519598152 1050.5529517515242,745.179856221839 1070.4433030980786,746.3198368415892 1090.1289781630765,746.6253531846447 1107.7466201597156,745.0504514681069 1112.8796963299446,735.9777700523081 1117.8536505842658,726.8168859182372 1122.6669678080295,717.5705895599446 1127.3181818181815,708.2416974888722 1122.4173309324583,694.4551010006429 1105.7089158597178,675.8037643489296 1083.060724562228,655.4975991120925 1056.281520383099,634.6059258256157 1027.2430436520347,614.0679230913898 997.8742610465353,594.6900813085996 969.7060251128497,576.9890816536395 942.4955826437451,560.7882738694017 915.5359651528976,545.7914432062398 888.1020766712439,531.7539983591892 859.452978566827,518.4837094903975 829.1857322725214,505.92901301614097 798.3041398072934,494.39334194718447 768.1842564791907,484.18593070158215 740.2220215439505,475.52098891390824 715.829117728733,468.51688100543424 696.0620554372641,463.1373631514098 680.5100747088438,459.06806711267654 668.3807943050141,455.9805352129815 658.8672222226762,453.603660690424 651.150286126705,451.72418855716137 644.5347859073484,450.196456394022 638.8533129907178,448.95206583629226 634.0694909098854,447.9394562304079 630.1451049425027,447.10998396232844 627.0402338648987,446.417976081471 624.6574192933184,445.8217561099258 622.6741132462179,445.29443128919854 620.7115230868899,444.8346572477287 618.3917333074507,444.4675960917024 615.3388621415842,444.24485722919906 611.4129058719759,444.2199411026138 607.4052617521584,444.3422709402836 604.3334204881971,444.47381561927057 603.20446848,444.4057859516454 605.0120066934049,443.85911775720183 610.3137980249468,442.56656389618956 617.9827471572288,440.5763378404839 626.4859946158545,438.10995459865444 634.3114111878378,435.494564428266 639.9721812603412,433.1619450649565 642.4417623765105,431.5239153918261 642.4318739176691,430.5408088791967 641.0711163438805,429.9864243208583 639.4671331376305,429.5572399985533 638.7032654952774,428.8734222467589 639.5437501594862,427.5918442519819 641.5719474590053,425.7835699035576 644.0919432236325,423.66954583130405 646.4258483499042,421.51818414587854 647.9158484993926,419.64452622673707 648.1581623664473,418.29621129853297 647.6847683763447,417.2808812702791 647.2395143974733,416.2490411284422 647.5401233269156,414.8001194253794 649.2759840290472,412.48364588041534 652.8358690619634,408.9628072092787 657.518455764552,404.5401970619114 662.3830259647797,399.7365931979291 666.5278842212789,395.1365206567083 669.0931012619103,391.3864941266022 669.484601140211,389.032304295567 668.0182665895503,388.00377233596714 665.2166929149479,388.04289784690593 661.5808366043454,388.85784953312884 657.5885842959696,390.12396974251703 653.6368097792881,391.53398467231 649.8773043363408,392.954411117526 646.3976930819767,394.2925340022348 643.2793888110052,395.4495127655051 640.5973255796557,396.32065050181507 638.3825873124534,396.83410541670173 636.5162285528875,397.07161242801 634.8501495464639,397.16214496062184 633.2459555388656,397.244379293086 631.5753679592381,397.4662587489197 629.7529794972532,397.94458331478415 627.8280933467875,398.6401953565281 625.8779154814258,399.4698965421202 623.9736015903705,400.34551603942975 622.1800475581156,401.1741793078527 620.5356134244922,401.88834795298146 618.9958850995224,402.5381610038304 617.5011979739156,403.2070266383405 615.9979168768809,403.982316180599 614.4386042757463,404.95509721359247 612.7974696560018,406.1922760003281 611.1125204749522,407.6514633067351 609.4329355676073,409.2599978364326 607.8026890665965,410.94220621857585 606.2604262561946,412.61963290488086 604.8316487431651,414.22856597364375 603.5079339313943,415.7732041547165 602.2742340430533,417.2757241924628 601.1172122061572,418.7591926656769 600.0252782931844,420.24748905692513 599.008829162655,421.7065418710026 598.1526821149125,422.8654423211691 597.5409413186333,423.38809473282583 597.2344479689443,422.9321649632792 597.2705084838234,421.1500944267657 597.602523347422,417.93131085963716 597.9531297792212,414.13492425486515 598.053959645907,410.87939008555156 597.7149708816497,409.30016865717096 596.8251444050367,410.5462996107291 595.4204338532961,415.35157938736313 593.8268676020078,422.7460830757625 592.3541966571522,431.3167561600295 591.2129725849751,439.6344950621483 590.513953494963,446.25848690423663 590.4999999999999,446.417976081471 590.4999999999999,446.417976081471 590.4999999999999,446.417976081471 590.4999999999999,446.417976081471 590.4999999999999,446.417976081471" stroke="black" stroke-width="9.0" /><polyline fill="none" points="590.5,904.596227664033 582.5293891763927,903.0539643396419 574.6253951539061,901.0071812204122 566.828763146083,898.0920820586504 559.2057121114284,893.947142917394 551.847836712169,888.2142240762506 544.8592576492682,880.6606327676031 538.3014355951202,871.5411676377554 532.2016913589284,861.2319962523607 526.5617466406521,850.1082200747302 521.3578195532549,838.5427670178225 516.5535823015829,826.8393162184803 512.1479998994199,815.035154892518 508.15304651489373,803.101818423008 504.583164044261,791.0115836024754 501.45523012888714,778.7375813887421 498.7618974998105,766.3467597911894 496.37874863159567,754.2747175748199 494.1217282220625,743.0397964738314 491.7710089393326,733.1477858618199 489.0715437769203,725.0903692445239 485.7361499200898,719.3371362998654 481.45449908228795,716.3150618270944 475.88794801069145,716.4270499123985 468.66800303811044,720.0571214960613 459.39708263597356,727.5690896676184 447.7809333126681,739.0354267771193 434.0618185444657,753.4451944682235 418.6891261044337,769.5472336511435 402.1956264896892,786.1280584205389 385.19571579822536,802.0154273305047 368.26794962350783,816.2742178437535 351.57956689914664,828.7705948662089 335.18534939745865,839.568061292886 319.13641994628733,848.7310281449878 303.4802436270941,856.3246690410436 288.26903908226785,862.4032064952672 273.5866102118028,866.9762489020684 259.5258836830377,870.0455267338656 246.1807717358807,871.6168120051749 233.64602892140158,871.6999781459009 222.04175344923408,870.2807022935218 211.59110887619528,867.2389325436205 202.55290140881505,862.4403057555184 195.19731713637975,855.7658873094896 189.8052824841693,847.1126935973017 186.54014933096278,836.517469345302 185.0469924673742,824.5090223255316 184.8061054116813,811.7063995157346 185.25797741188154,798.6894919231461 185.8050529242813,785.9973569120156 185.79198491183467,774.1440648059116 184.44040486655675,763.666501264367 180.91149784185018,755.0650507582817 174.32932504948658,748.7836703417144 163.78326532203914,745.2082503832121 148.7566143520596,744.3776519598151 130.44704824847537,745.1798562218389 110.55669690192141,746.3198368415893 90.87102183692339,746.6253531846448 73.25337984028431,745.0504514681073 68.12030367005514,735.9777700523081 63.14634941573397,726.8168859182371 58.33303219197028,717.5705895599447 53.681818181818166,708.2416974888723 58.58266906754151,694.4551010006429 75.29108414028188,675.8037643489293 97.93927543777184,655.4975991120925 124.7184796169009,634.6059258256158 153.75695634796503,614.0679230913901 183.1257389534646,594.6900813085995 211.29397488715003,576.9890816536395 238.50441735625452,560.7882738694017 265.46403484710225,545.7914432062399 292.8979233287558,531.7539983591892 321.5470214331728,518.4837094903974 351.81426772747835,505.92901301614097 382.6958601927064,494.3933419471846 412.815743520809,484.18593070158227 440.77797845604925,475.52098891390824 465.1708822712668,468.51688100543424 484.93794456273565,463.1373631514099 500.48992529115594,459.06806711267666 512.6192056949857,455.9805352129815 522.1327777773236,453.603660690424 529.8497138732947,451.72418855716137 536.4652140926514,450.196456394022 542.1466870092819,448.9520658362925 546.9305090901144,447.9394562304079 550.8548950574971,447.10998396232844 553.959766135101,446.417976081471 556.3425807066814,445.8217561099258 558.3258867537819,445.29443128919854 560.2884769131099,444.8346572477287 562.6082666925489,444.4675960917024 565.6611378584156,444.24485722919906 569.5870941280239,444.2199411026138 573.5947382478414,444.3422709402836 576.6665795118026,444.47381561927057 577.7955315199998,444.4057859516454 575.9879933065947,443.85911775720183 570.686201975053,442.56656389618945 563.017252842771,440.5763378404839 554.5140053841453,438.10995459865444 546.6885888121619,435.494564428266 541.0278187396584,433.1619450649565 538.5582376234893,431.5239153918261 538.5681260823307,430.5408088791967 539.9288836561193,429.9864243208584 541.5328668623692,429.5572399985533 542.2967345047224,428.8734222467589 541.4562498405136,427.5918442519819 539.4280525409945,425.7835699035576 536.9080567763673,423.66954583130405 534.5741516500955,421.51818414587854 533.0841515006072,419.64452622673707 532.8418376335525,418.29621129853297 533.3152316236551,417.2808812702791 533.7604856025265,416.2490411284422 533.4598766730842,414.8001194253794 531.7240159709526,412.48364588041534 528.1641309380362,408.9628072092787 523.4815442354478,404.5401970619114 518.61697403522,399.7365931979292 514.4721157787209,395.1365206567083 511.9068987380894,391.3864941266022 511.5153988597888,389.032304295567 512.9817334104495,388.00377233596726 515.7833070850519,388.04289784690593 519.4191633956543,388.85784953312884 523.4114157040302,390.12396974251703 527.3631902207117,391.53398467231 531.122695663659,392.954411117526 534.6023069180231,394.2925340022348 537.7206111889946,395.4495127655051 540.402674420344,396.32065050181507 542.6174126875463,396.83410541670173 544.4837714471123,397.07161242801 546.1498504535359,397.16214496062184 547.7540444611342,397.244379293086 549.4246320407616,397.4662587489198 551.2470205027465,397.94458331478415 553.1719066532123,398.6401953565281 555.122084518574,399.4698965421202 557.0263984096292,400.34551603942975 558.8199524418842,401.1741793078527 560.4643865755075,401.88834795298146 562.0041149004774,402.5381610038304 563.4988020260841,403.2070266383405 565.0020831231188,403.982316180599 566.5613957242533,404.95509721359247 568.202530343998,406.1922760003281 569.8874795250475,407.6514633067351 571.5670644323925,409.2599978364326 573.1973109334033,410.94220621857585 574.7395737438052,412.61963290488086 576.1683512568346,414.22856597364375 577.4920660686055,415.7732041547165 578.7257659569465,417.2757241924628 579.8827877938425,418.7591926656769 580.9747217068153,420.24748905692513 581.9911708373447,421.7065418710026 582.8473178850873,422.8654423211691 583.4590586813665,423.38809473282583 583.7655520310554,422.9321649632792 583.7294915161764,421.1500944267657 583.3974766525778,417.93131085963716 583.0468702207785,414.13492425486515 582.9460403540928,410.87939008555156 583.28502911835,409.30016865717096 584.1748555949631,410.5462996107291 585.5795661467035,415.35157938736313 587.1731323979918,422.7460830757625 588.6458033428474,431.3167561600295 589.7870274150247,439.6344950621483 590.4860465050368,446.25848690423663 590.4999999999999,446.417976081471 590.4999999999999,446.417976081471 590.4999999999999,446.417976081471 590.4999999999999,446.417976081471 590.4999999999999,446.417976081471" stroke="black" stroke-width="9.0" /><polyline fill="none" points="590.5,904.596227664033 598.470610823607,903.0539643396419 606.3746048460937,901.0071812204122 614.1712368539169,898.0920820586504 621.7942878885715,893.947142917394 629.1521632878308,888.2142240762506 636.1407423507316,880.6606327676031 642.6985644048797,871.5411676377552 648.7983086410713,861.2319962523608 654.4382533593478,850.1082200747302 659.6421804467448,838.5427670178225 664.446417698417,826.8393162184803 668.8520001005797,815.0351548925181 672.8469534851062,803.101818423008 676.4168359557387,791.0115836024754 679.5447698711126,778.7375813887419 682.2381025001893,766.3467597911894 684.621251368404,754.2747175748199 686.8782717779374,743.0397964738314 689.2289910606671,733.1477858618199 691.9284562230795,725.0903692445237 695.2638500799098,719.3371362998654 699.5455009177118,716.3150618270944 705.1120519893084,716.4270499123985 712.3319969618893,720.0571214960613 721.6029173640263,727.5690896676184 733.2190666873316,739.0354267771193 746.938181455534,753.4451944682235 762.3108738955659,769.5472336511435 778.8043735103106,786.1280584205389 795.8042842017742,802.0154273305048 812.7320503764921,816.2742178437535 829.4204331008531,828.7705948662089 845.8146506025413,839.568061292886 861.8635800537126,848.7310281449877 877.5197563729056,856.3246690410438 892.7309609177321,862.4032064952672 907.4133897881968,866.9762489020684 921.4741163169622,870.0455267338656 934.8192282641189,871.6168120051749 947.3539710785983,871.6999781459008 958.9582465507659,870.2807022935216 969.4088911238047,867.2389325436204 978.4470985911848,862.4403057555184 985.80268286362,855.7658873094897 991.1947175158306,847.1126935973016 994.4598506690369,836.5174693453021 995.9530075326256,824.5090223255314 996.1938945883184,811.7063995157346 995.7420225881183,798.689491923146 995.1949470757185,785.9973569120153 995.2080150881653,774.1440648059114 996.5595951334429,763.6665012643672 1000.0885021581495,755.0650507582817 1006.6706749505131,748.7836703417142 1017.2167346779607,745.208250383212 1032.2433856479402,744.3776519598152 1050.5529517515242,745.179856221839 1070.4433030980786,746.3198368415892 1090.1289781630765,746.6253531846447 1107.7466201597156,745.0504514681069 1112.8796963299446,735.9777700523081 1117.8536505842658,726.8168859182372 1122.6669678080295,717.5705895599446 1127.3181818181815,708.2416974888722 1122.4173309324583,694.4551010006429 1105.7089158597178,675.8037643489296 1083.060724562228,655.4975991120925 1056.281520383099,634.6059258256157 1027.2430436520347,614.0679230913898 997.8742610465353,594.6900813085996 969.7060251128497,576.9890816536395 942.4955826437451,560.7882738694017 915.5359651528976,545.7914432062398 888.1020766712439,531.7539983591892 859.452978566827,518.4837094903975 829.1857322725214,505.92901301614097 798.3041398072934,494.39334194718447 768.1842564791907,484.18593070158215 740.2220215439505,475.52098891390824 715.829117728733,468.51688100543424 696.0620554372641,463.1373631514098 680.5100747088438,459.06806711267654 668.3807943050141,455.9805352129815 658.8672222226762,453.603660690424 651.150286126705,451.72418855716137 644.5347859073484,450.196456394022 638.8533129907178,448.95206583629226 634.0694909098854,447.9394562304079 630.1451049425027,447.10998396232844 627.0402338648987,446.417976081471 624.6574192933184,445.8217561099258 622.6741132462179,445.29443128919854 620.7115230868899,444.8346572477287 618.3917333074507,444.4675960917024 615.3388621415842,444.24485722919906 611.4129058719759,444.2199411026138 607.4052617521584,444.3422709402836 604.3334204881971,444.47381561927057 603.20446848,444.4057859516454 605.0120066934049,443.85911775720183 610.3137980249468,442.56656389618956 617.9827471572288,440.5763378404839 626.4859946158545,438.10995459865444 634.3114111878378,435.494564428266 639.9721812603412,433.1619450649565 642.4417623765105,431.5239153918261 642.4318739176691,430.5408088791967 641.0711163438805,429.9864243208583 639.4671331376305,429.5572399985533 638.7032654952774,428.8734222467589 639.5437501594862,427.5918442519819 641.5719474590053,425.7835699035576 644.0919432236325,423.66954583130405 646.4258483499042,421.51818414587854 647.9158484993926,419.64452622673707 648.1581623664473,418.29621129853297 647.6847683763447,417.2808812702791 647.2395143974733,416.2490411284422 647.5401233269156,414.8001194253794 649.2759840290472,412.48364588041534 652.8358690619634,408.9628072092787 657.518455764552,404.5401970619114 662.3830259647797,399.7365931979291 666.5278842212789,395.1365206567083 669.0931012619103,391.3864941266022 669.484601140211,389.032304295567 668.0182665895503,388.00377233596714 665.2166929149479,388.04289784690593 661.5808366043454,388.85784953312884 657.5885842959696,390.12396974251703 653.6368097792881,391.53398467231 649.8773043363408,392.954411117526 646.3976930819767,394.2925340022348 643.2793888110052,395.4495127655051 640.5973255796557,396.32065050181507 638.3825873124534,396.83410541670173 636.5162285528875,397.07161242801 634.8501495464639,397.16214496062184 633.2459555388656,397.244379293086 631.5753679592381,397.4662587489197 629.7529794972532,397.94458331478415 627.8280933467875,398.6401953565281 625.8779154814258,399.4698965421202 623.9736015903705,400.34551603942975 622.1800475581156,401.1741793078527 620.5356134244922,401.88834795298146 618.9958850995224,402.5381610038304 617.5011979739156,403.2070266383405 615.9979168768809,403.982316180599 614.4386042757463,404.95509721359247 612.7974696560018,406.1922760003281 611.1125204749522,407.6514633067351 609.4329355676073,409.2599978364326 607.8026890665965,410.94220621857585 606.2604262561946,412.61963290488086 604.8316487431651,414.22856597364375 603.5079339313943,415.7732041547165 602.2742340430533,417.2757241924628 601.1172122061572,418.7591926656769 600.0252782931844,420.24748905692513 599.008829162655,421.7065418710026 598.1526821149125,422.8654423211691 597.5409413186333,423.38809473282583 597.2344479689443,422.9321649632792 597.2705084838234,421.1500944267657 597.602523347422,417.93131085963716 597.9531297792212,414.13492425486515 598.053959645907,410.87939008555156 597.7149708816497,409.30016865717096 596.8251444050367,410.5462996107291 595.4204338532961,415.35157938736313 593.8268676020078,422.7460830757625 592.3541966571522,431.3167561600295 591.2129725849751,439.6344950621483 590.513953494963,446.25848690423663 590.4999999999999,446.417976081471 590.4999999999999,446.417976081471 590.4999999999999,446.417976081471 590.4999999999999,446.417976081471 590.4999999999999,446.417976081471" stroke="black" stroke-dasharray="8.0,8.0" stroke-width="7.0" /><polyline fill="none" points="590.5,904.596227664033 582.5293891763927,903.0539643396419 574.6253951539061,901.0071812204122 566.828763146083,898.0920820586504 559.2057121114284,893.947142917394 551.847836712169,888.2142240762506 544.8592576492682,880.6606327676031 538.3014355951202,871.5411676377554 532.2016913589284,861.2319962523607 526.5617466406521,850.1082200747302 521.3578195532549,838.5427670178225 516.5535823015829,826.8393162184803 512.1479998994199,815.035154892518 508.15304651489373,803.101818423008 504.583164044261,791.0115836024754 501.45523012888714,778.7375813887421 498.7618974998105,766.3467597911894 496.37874863159567,754.2747175748199 494.1217282220625,743.0397964738314 491.7710089393326,733.1477858618199 489.0715437769203,725.0903692445239 485.7361499200898,719.3371362998654 481.45449908228795,716.3150618270944 475.88794801069145,716.4270499123985 468.66800303811044,720.0571214960613 459.39708263597356,727.5690896676184 447.7809333126681,739.0354267771193 434.0618185444657,753.4451944682235 418.6891261044337,769.5472336511435 402.1956264896892,786.1280584205389 385.19571579822536,802.0154273305047 368.26794962350783,816.2742178437535 351.57956689914664,828.7705948662089 335.18534939745865,839.568061292886 319.13641994628733,848.7310281449878 303.4802436270941,856.3246690410436 288.26903908226785,862.4032064952672 273.5866102118028,866.9762489020684 259.5258836830377,870.0455267338656 246.1807717358807,871.6168120051749 233.64602892140158,871.6999781459009 222.04175344923408,870.2807022935218 211.59110887619528,867.2389325436205 202.55290140881505,862.4403057555184 195.19731713637975,855.7658873094896 189.8052824841693,847.1126935973017 186.54014933096278,836.517469345302 185.0469924673742,824.5090223255316 184.8061054116813,811.7063995157346 185.25797741188154,798.6894919231461 185.8050529242813,785.9973569120156 185.79198491183467,774.1440648059116 184.44040486655675,763.666501264367 180.91149784185018,755.0650507582817 174.32932504948658,748.7836703417144 163.78326532203914,745.2082503832121 148.7566143520596,744.3776519598151 130.44704824847537,745.1798562218389 110.55669690192141,746.3198368415893 90.87102183692339,746.6253531846448 73.25337984028431,745.0504514681073 68.12030367005514,735.9777700523081 63.14634941573397,726.8168859182371 58.33303219197028,717.5705895599447 53.681818181818166,708.2416974888723 58.58266906754151,694.4551010006429 75.29108414028188,675.8037643489293 97.93927543777184,655.4975991120925 124.7184796169009,634.6059258256158 153.75695634796503,614.0679230913901 183.1257389534646,594.6900813085995 211.29397488715003,576.9890816536395 238.50441735625452,560.7882738694017 265.46403484710225,545.7914432062399 292.8979233287558,531.7539983591892 321.5470214331728,518.4837094903974 351.81426772747835,505.92901301614097 382.6958601927064,494.3933419471846 412.815743520809,484.18593070158227 440.77797845604925,475.52098891390824 465.1708822712668,468.51688100543424 484.93794456273565,463.1373631514099 500.48992529115594,459.06806711267666 512.6192056949857,455.9805352129815 522.1327777773236,453.603660690424 529.8497138732947,451.72418855716137 536.4652140926514,450.196456394022 542.1466870092819,448.9520658362925 546.9305090901144,447.9394562304079 550.8548950574971,447.10998396232844 553.959766135101,446.417976081471 556.3425807066814,445.8217561099258 558.3258867537819,445.29443128919854 560.2884769131099,444.8346572477287 562.6082666925489,444.4675960917024 565.6611378584156,444.24485722919906 569.5870941280239,444.2199411026138 573.5947382478414,444.3422709402836 576.6665795118026,444.47381561927057 577.7955315199998,444.4057859516454 575.9879933065947,443.85911775720183 570.686201975053,442.56656389618945 563.017252842771,440.5763378404839 554.5140053841453,438.10995459865444 546.6885888121619,435.494564428266 541.0278187396584,433.1619450649565 538.5582376234893,431.5239153918261 538.5681260823307,430.5408088791967 539.9288836561193,429.9864243208584 541.5328668623692,429.5572399985533 542.2967345047224,428.8734222467589 541.4562498405136,427.5918442519819 539.4280525409945,425.7835699035576 536.9080567763673,423.66954583130405 534.5741516500955,421.51818414587854 533.0841515006072,419.64452622673707 532.8418376335525,418.29621129853297 533.3152316236551,417.2808812702791 533.7604856025265,416.2490411284422 533.4598766730842,414.8001194253794 531.7240159709526,412.48364588041534 528.1641309380362,408.9628072092787 523.4815442354478,404.5401970619114 518.61697403522,399.7365931979292 514.4721157787209,395.1365206567083 511.9068987380894,391.3864941266022 511.5153988597888,389.032304295567 512.9817334104495,388.00377233596726 515.7833070850519,388.04289784690593 519.4191633956543,388.85784953312884 523.4114157040302,390.12396974251703 527.3631902207117,391.53398467231 531.122695663659,392.954411117526 534.6023069180231,394.2925340022348 537.7206111889946,395.4495127655051 540.402674420344,396.32065050181507 542.6174126875463,396.83410541670173 544.4837714471123,397.07161242801 546.1498504535359,397.16214496062184 547.7540444611342,397.244379293086 549.4246320407616,397.4662587489198 551.2470205027465,397.94458331478415 553.1719066532123,398.6401953565281 555.122084518574,399.4698965421202 557.0263984096292,400.34551603942975 558.8199524418842,401.1741793078527 560.4643865755075,401.88834795298146 562.0041149004774,402.5381610038304 563.4988020260841,403.2070266383405 565.0020831231188,403.982316180599 566.5613957242533,404.95509721359247 568.202530343998,406.1922760003281 569.8874795250475,407.6514633067351 571.5670644323925,409.2599978364326 573.1973109334033,410.94220621857585 574.7395737438052,412.61963290488086 576.1683512568346,414.22856597364375 577.4920660686055,415.7732041547165 578.7257659569465,417.2757241924628 579.8827877938425,418.7591926656769 580.9747217068153,420.24748905692513 581.9911708373447,421.7065418710026 582.8473178850873,422.8654423211691 583.4590586813665,423.38809473282583 583.7655520310554,422.9321649632792 583.7294915161764,421.1500944267657 583.3974766525778,417.93131085963716 583.0468702207785,414.13492425486515 582.9460403540928,410.87939008555156 583.28502911835,409.30016865717096 584.1748555949631,410.5462996107291 585.5795661467035,415.35157938736313 587.1731323979918,422.7460830757625 588.6458033428474,431.3167561600295 589.7870274150247,439.6344950621483 590.4860465050368,446.25848690423663 590.4999999999999,446.417976081471 590.4999999999999,446.417976081471 590.4999999999999,446.417976081471 590.4999999999999,446.417976081471 590.4999999999999,446.417976081471" stroke="black" stroke-dasharray="8.0,8.0" stroke-width="7.0" /></g><rect fill="white" height="111.60000000000001" stroke="none" width="1181" x="0" y="0" /><line stroke="black" stroke-width="3.0" x1="0" x2="1181" y1="111.60000000000001" y2="111.60000000000001" /><text font-family="Arial" font-size="62.0" text-anchor="start" x="40.0" y="77.5">LED</text><text font-family="Arial" font-size="62.0" text-anchor="middle" x="590.5" y="77.5" /><text font-family="Arial" font-size="62.0" text-anchor="end" x="1141.0" y="77.5">cd / klm</text><rect fill="none" height="1178.0" stroke="black" stroke-width="3.0" width="1178.0" x="1.5" y="1.5" /></svg>