<?xml version="1.0" encoding="utf-8" ?>
<svg baseProfile="full" height="1181" version="1.1" width="1181" xmlns="http://www.w3.org/2000/svg" xmlns:ev="http://www.w3.org/2001/xml-events" xmlns:xlink="http://www.w3.org/1999/xlink"><defs><clipPath id="plot_clip"><rect height="1069.4" width="1181.0" x="0" y="111.60000000000001" /></clipPath></defs><g clip-path="url(#plot_clip)" id="grid"><circle cx="854.9015946184145" cy="375.2250666442086" fill="none" r="359.35166152716306" stroke="black" stroke-width="3.0" /><text font-family="Arial" font-size="42.0" text-anchor="start" x="862.9015946184145" y="774.5767281713717">250</text><circle cx="854.9015946184145" cy="375.2250666442086" fill="none" r="718.7033230543261" stroke="black" stroke-width="3.0" /><text font-family="Arial" font-size="42.0" text-anchor="start" x="862.9015946184147" y="1133.9283896985346">500</text><circle cx="854.9015946184145" cy="375.2250666442086" fill="none" r="1078.0549845814892" stroke="black" stroke-width="3.0" /><text font-family="Arial" font-size="42.0" text-anchor="start" x="862.9015946184147" y="1493.2800512256977">750</text><line stroke="black" stroke-width="3.0" x1="-3592.21895744484" x2="5302.022146681669" y1="375.22506664420825" y2="375.22506664420894" /><line stroke="black" stroke-width="3.0" x1="-2996.4177771602403" x2="4706.22096639707" y1="-1848.3352093874191" y2="2598.7853426758365" /><line stroke="black" stroke-width="3.0" x1="-1368.658681413212" x2="3078.461870650041" y1="-3476.0943051344466" y2="4226.544438422864" /><line stroke="black" stroke-width="3.0" x1="854.9015946184145" x2="854.9015946184145" y1="-4071.8954854190456" y2="4822.345618707463" /><line stroke="black" stroke-width="3.0" x1="3078.461870650041" x2="-1368.658681413212" y1="-3476.0943051344466" y2="4226.544438422864" /><line stroke="black" stroke-width="3.0" x1="4706.22096639707" x2="-2996.417777160241" y1="-1848.3352093874191" y2="2598.7853426758365" /><line stroke="black" stroke-width="3.0" x1="5302.022146681668" x2="-3592.2189574448394" y1="375.22506664420825" y2="375.22506664420894" /></g><g clip-path="url(#plot_clip)" id="curves"><polyline fill="none" points="854.9015946184145,825.9814167974208 862.8250853961968,829.1615492850318 870.8598051907653,832.2084265361465 879.0039875183172,835.1261200685818 887.2562855567295,837.9187035921113 895.6157710943822,840.5902332283753 904.07800355742,843.1073438397947 912.6180251756603,845.2876716885561 921.1930573362889,846.9133333195331 929.7452144525138,847.769084735515 938.2016187138314,847.6429788702638 946.4337611291112,846.1172414572756 954.600511219843,844.2715915696705 962.5531515868108,841.515188481943 970.3893548151179,838.4211732979064 978.1694235653315,835.2668672128119 985.9482049686375,832.2389083959675 993.689091483058,829.178514176787 1001.3168870405347,825.8450017224682 1008.7396249012419,822.0031475918184 1015.8488138567475,817.4239172255405 1022.5548541793692,811.9767397867231 1028.9055073123866,805.8998633960557 1035.0027769661308,799.5168631657313 1040.9706270265046,793.1429559175543 1046.954593992121,787.0840529057404 1053.0906706997825,781.5728906928888 1059.404016222514,776.5836676856576 1065.8855084375168,772.0280971261441 1072.5203095299194,767.8196207853606 1079.2879591092058,763.8736504679279 1086.1464200477863,760.0810850060391 1092.980310188897,756.2306558013946 1099.6428278171072,752.0935168476498 1105.9713006265472,747.4512131478347 1111.787645812757,742.0963686172619 1116.9089452291719,735.8472470554069 1121.1801532372021,728.5886489678174 1124.447640360563,720.2282723826044 1126.549952198573,710.6828509973631 1127.3181818181818,699.878513121785 1126.6275723084775,687.8100468000979 1124.5597303004943,674.7107668582349 1121.2632404088774,660.8629611405788 1116.9039833866523,646.5364824992607 1111.664559280304,631.988031306098 1105.7017568040012,617.4199679866232 1099.0145379083044,602.8640689834983 1091.5597251141132,588.3130044585017 1083.292613888172,573.7623507317388 1074.1670972540128,559.2106690356401 1064.20117976734,544.7125288521471 1053.680580181941,530.5282309165782 1042.9749576001832,516.9485110355733 1032.473320203035,504.23847705273283 1022.5829031554916,492.63678289873826 1013.5633025925387,482.24373996952124 1005.0158400461505,472.710397472095 996.3510812875597,463.6125157070644 986.9514253526685,454.568609681677 976.1729985968481,445.24114437616106 963.5784575480161,435.4656354495786 949.6491525629544,425.60323683021306 935.1233930344235,416.100114541377 920.7679326803677,407.3502262065191 907.3756732728965,399.6941313754213 895.6172907348393,393.3528624975464 885.5918486285109,388.2523065745704 877.248135556584,384.2536552399281 870.5286107892763,381.22371612711925 865.3696778611456,379.03513735438366 861.6709934237088,377.5559575782414 859.2013882021223,376.62215426929106 857.6897917102801,376.07750404114563 856.8566845004416,375.7856796466235 856.4149813589825,375.63057739917963 856.1172940128355,375.52817454627734 855.8974989828516,375.4549892833603 855.7348857093456,375.4021881333671 855.6082847285141,375.3624332862744 855.4961336863287,375.3298999229671 855.381375439498,375.30105646103436 855.2661206676435,375.27629743943794 855.1573575268081,375.25647038061095 855.0621287976887,375.24193946635523 854.9875108312059,375.232583338841 854.9384429119743,375.2276433279027 854.9112391834776,375.22557209444574 854.9015946184145,375.2250666442086 854.9015946184145,375.2250666442086 854.9015946184145,375.2250666442086 854.9035286112073,375.22503288623886 854.9039969234656,375.2249827538676 854.903498113794,375.2249668862429 854.9025312950822,375.2250011453955 854.9015946184145,375.2250666442086 854.9015946184145,375.2250666442086 854.9015946184145,375.2250666442086 854.9015946184145,375.2250666442086 854.9015946184145,375.2250666442086 854.9015946184145,375.2250666442086 854.9017309424654,375.2250401454975 854.90176342994,375.2250307622112 854.9017279632681,375.2250358591234 854.901660030491,375.2250503351463 854.9015946184145,375.2250666442086 854.9015946184145,375.2250666442086 854.9015946184145,375.2250666442086 854.9015946184145,375.2250666442086 854.9015946184145,375.2250666442086 854.9015946184145,375.2250666442086 854.9016039269756,375.22506307098683 854.9016061070505,375.22506200249836 854.9016036628885,375.2250628050572 854.9015990401106,375.2250646755426 854.9015946184145,375.2250666442086 854.9015946184145,375.2250666442086 854.9015946184145,375.2250666442086 854.9015946184145,375.2250666442086 854.9015946184145,375.2250666442086 854.9015946184145,375.2250666442086 854.901595232037,375.22506627550695 854.9015953728602,375.2250661727785 854.9015952100492,375.22506625999665 854.901594906511,375.22506644988505 854.9015946184145,375.2250666442086 854.9015946184145,375.2250666442086 854.9015946184145,375.2250666442086 854.9015946184145,375.2250666442086 854.9015946184145,375.2250666442086 854.9015946184145,375.2250666442086 854.9015946572047,375.22506661048885 854.9015946658808,375.22506660146973 854.9015946554566,375.22506660966644 854.901594636362,375.2250666268769 854.9015946184145,375.2250666442086 854.9015946184145,375.2250666442086 854.9015946184145,375.2250666442086 854.9015946184145,375.2250666442086 854.9015946184145,375.2250666442086 854.9015946184145,375.2250666442086 854.9015946207368,375.22506664134085 854.9015946212378,375.22506664059483 854.901594620603,375.22506664130435 854.9015946194675,375.22506664275943 854.9015946184145,375.2250666442086 854.9015946184145,375.2250666442086 854.9015946184145,375.2250666442086 854.9015946184145,375.2250666442086 854.9015946184145,375.2250666442086 854.9015946184145,375.2250666442086 854.901594618543,375.2250666439769 854.9015946185691,375.2250666439179 854.9015946185331,375.2250666439759 854.9015946184709,375.2250666440931 854.9015946184145,375.2250666442086 854.9015946184145,375.2250666442086 854.9015946184145,375.2250666442086 854.9015946184145,375.2250666442086 854.9015946184145,375.2250666442086 854.9015946184145,375.2250666442086 854.9015946184207,375.22506664419063 854.9015946184219,375.2250666441861 854.9015946184201,375.22506664419063 854.9015946184171,375.2250666441997 854.9015946184145,375.2250666442086 854.9015946184145,375.2250666442086 854.9015946184145,375.2250666442086 854.9015946184145,375.2250666442086 854.9015946184145,375.2250666442086 854.9015946184145,375.2250666442086 854.9015946184147,375.22506664420735 854.9015946184147,375.225066644207 854.9015946184147,375.22506664420735 854.9015946184145,375.2250666442079 854.9015946184145,375.2250666442086 854.9015946184145,375.2250666442086 854.9015946184145,375.2250666442086 854.9015946184145,375.2250666442086 854.9015946184145,375.2250666442086 854.9015946184145,375.2250666442086" stroke="black" stroke-width="9.0" /><polyline fill="none" points="854.9015946184145,825.9814167974208 847.0546299434951,824.7773717882675 839.2414339679565,823.6733934818752 831.43962192497,822.9061745715723 823.6103292686779,822.7110091610067 815.6982737635435,823.3210744573206 807.6409691808116,824.8798813920664 799.4083295700984,827.1814416171095 790.9965359423944,829.9331862547486 782.4218854024422,832.8439404897612 773.7207003721873,835.624796283145 764.9374220784299,838.0506117782321 756.0806522290926,840.1410476560477 747.1436443964972,841.976028292757 738.1140088708347,843.6344888342848 728.9737639301732,845.1941288596566 719.7003217805765,846.727938364561 710.2697849786244,848.2943999206155 700.6550240621671,849.9471975109128 690.8249309680439,851.7382979903722 680.7444915113849,853.7177748684034 670.39115235065,855.8912021177786 659.8096752096237,858.0945115806583 649.0735556808,860.1255391282517 638.2699978749949,861.7875993195178 627.4996658328593,862.890076662054 616.8227669309189,863.3590016505763 606.0825281661349,863.5599804334371 595.039525701198,863.95453699647 583.4221822357326,864.9868911555915 570.9275376131891,867.0825614087195 557.3012341760979,870.5152404684751 542.5941812573245,875.0214039214575 526.9573236053421,880.2149596609532 510.56655108806433,885.7227622734414 493.6220913339903,891.1856691366403 476.3339745032644,896.2786946465006 458.8770265916625,900.7674188785696 441.4273054537376,904.4480231875183 424.1748347637977,907.1283176322305 407.3231006172233,908.6283448380343 391.048347771843,908.8271874033932 375.3720922231777,907.796533234174 360.2702243328663,905.6522711350633 345.71173029457754,902.5066066264491 331.6588814209612,898.467779841662 318.04211083490713,893.6642437826621 304.6808719829846,888.314191207313 291.35411282042645,882.6454984089803 277.8254329190535,876.8697207193554 263.8438107348389,871.1814351053775 249.17376190554103,865.7337940369104 233.68762531999664,860.5706118422474 217.2836413261903,855.7046577658184 199.8576529159438,851.142348003318 181.30337126407798,846.8836203615832 161.64180416462216,842.8346996896872 141.42101130668823,838.5647750458326 121.34884444137671,833.5996982386391 102.16477629484355,827.514977266946 84.63772026268364,819.9371218505344 76.9937396465843,806.4264318513018 69.58671729887203,792.7843937390863 62.4189094703076,779.01516301085 55.49249954459129,765.1229339076576 53.68181818181815,748.839984261829 65.81442719152659,726.5493087915186 85.8525430583809,701.6670214613248 114.1527643774226,674.5070208182841 151.06369678611415,645.4031221169605 196.9251571949792,614.7089047148575 251.6418760133032,582.9440457453017 313.38625657026915,551.1740657882716 379.84272919877236,520.4651373019341 448.6349651763739,491.7201480244971 517.333045779625,465.6762866957082 583.5805996786554,442.87298844196357 645.465817614941,423.57712563797736 701.1752254589117,407.9006151107692 748.880141207769,395.83354953339995 786.741937189701,387.243453244737 813.5878278993088,381.76852446371265 830.941687017154,378.59241205788203 841.0368645386197,376.9274414390934 846.1428231717606,376.145650618976 848.5581142406556,375.7800492645616 850.2209285735572,375.5523706984977 851.5515748478139,375.4006337409402 852.5899595646194,375.3057907190712 853.3766818803896,375.25168409506057 853.9529062319829,375.2250666442086 854.3583142443578,375.2155836500052 854.6252228682747,375.2154155300278 854.7842445831043,375.21891658945924 854.8661140663056,375.22258560231353 854.9015946184145,375.2250666442086 854.9015946184145,375.2250666442086 854.9015946184145,375.2250666442086 854.9015946184145,375.2250666442086 854.9015946184145,375.2250666442086 854.9015946184145,375.2250666442086 854.8975326611932,375.22427707970814 854.8965646534871,375.2239974921582 854.8976214303627,375.22414936147004 854.899645578208,375.22458069390643 854.9015946184145,375.2250666442086 854.9015946184145,375.2250666442086 854.9015946184145,375.2250666442086 854.9015946184145,375.2250666442086 854.9015946184145,375.2250666442086 854.9015946184145,375.2250666442086 854.9013172574037,375.2249601752918 854.9012522991596,375.22492833825197 854.9013251262295,375.22495225156297 854.9014628680737,375.2250079851775 854.9015946184145,375.2250666442086 854.9015946184145,375.2250666442086 854.9015946184145,375.2250666442086 854.9015946184145,375.2250666442086 854.9015946184145,375.2250666442086 854.9015946184145,375.2250666442086 854.9015763347109,375.2250556582511 854.9015721386968,375.2250525973219 854.9015769898723,375.22505519609933 854.9015860341973,375.225060854081 854.9015946184145,375.2250666442086 854.9015946184145,375.2250666442086 854.9015946184145,375.2250666442086 854.9015946184145,375.2250666442086 854.9015946184145,375.2250666442086 854.9015946184145,375.2250666442086 854.9015934626127,375.2250656394856 854.9015932040911,375.22506537074617 854.9015935146984,375.22506561497664 854.9015940836464,375.2250661277891 854.9015946184145,375.2250666442086 854.9015946184145,375.2250666442086 854.9015946184145,375.2250666442086 854.9015946184145,375.2250666442086 854.9015946184145,375.2250666442086 854.9015946184145,375.2250666442086 854.9015945492185,375.22506655875884 854.9015945342901,375.2250665365342 854.901594553207,375.2250665576752 854.9015945870416,375.2250666010275 854.9015946184145,375.2250666442086 854.9015946184145,375.2250666442086 854.9015946184145,375.2250666442086 854.9015946184145,375.2250666442086 854.9015946184145,375.2250666442086 854.9015946184145,375.2250666442086 854.9015946145873,375.22506663730405 854.9015946138089,375.22506663554645 854.9015946148828,375.2250666372772 854.9015946167347,375.22506664076434 854.9015946184145,375.2250666442086 854.9015946184145,375.2250666442086 854.9015946184145,375.2250666442086 854.9015946184145,375.2250666442086 854.9015946184145,375.2250666442086 854.9015946184145,375.2250666442086 854.9015946182301,375.22506664367256 854.9015946181969,375.22506664353864 854.9015946182512,375.2250666436744 854.9015946183387,375.22506664394405 854.9015946184145,375.2250666442086 854.9015946184145,375.2250666442086 854.9015946184145,375.2250666442086 854.9015946184145,375.2250666442086 854.9015946184145,375.2250666442086 854.9015946184145,375.2250666442086 854.9015946184081,375.2250666441681 854.9015946184073,375.2250666441578 854.9015946184095,375.2250666441679 854.9015946184124,375.22506664418813 854.9015946184145,375.2250666442086 854.9015946184145,375.2250666442086 854.9015946184145,375.2250666442086 854.9015946184145,375.2250666442086 854.9015946184145,375.2250666442086 854.9015946184145,375.2250666442086" stroke="black" stroke-width="9.0" /><polyline fill="none" points="854.9015946184145,825.9814167974208 862.881632050897,832.4011049631578 871.0916248049577,838.8468717241064 879.5466967666518,845.4816294177512 888.2736230165925,852.4673070760635 897.3107857339706,859.9643392128171 906.6986513226341,868.0411417841855 916.4387516879804,876.4049920114375 926.5000867151684,884.6748094778164 936.8255529418367,892.47258259689 947.3320980876077,899.4245005471556 957.9239129079378,905.228947935147 968.5409784434095,909.8563334098586 979.1365382646335,913.3457277908573 989.6664727796292,915.7374704834893 1000.0893260267077,917.0730568956214 1010.3633347001723,917.384584469972 1020.4360113996537,916.6637472223703 1030.1540294144033,914.5966000657024 1039.5406688417022,911.4558744474745 1048.8710654183542,908.1518077306052 1057.5722611025183,903.200203636152 1065.8771899627977,897.4079890727677 1073.8416545047821,891.0155247011019 1081.5375421761792,884.2577391475751 1089.0525628568937,877.3634384756411 1096.4291543739732,870.4299502583041 1103.4644152861522,863.0570697647031 1109.8623813218649,854.7365658229091 1115.2912794937306,844.9804931393558 1119.3844175024067,833.3227536085234 1121.8529277868115,819.5066932224887 1122.848007869822,804.0289637031384 1122.6708468588213,787.5535565560402 1121.6663269204155,770.7200465309047 1120.2218980231626,754.1417290999126 1118.672468763048,738.2745289637593 1116.9994606171972,723.0406824756534 1115.0806600706708,708.2390843416393 1112.7799939700703,693.6783687353789 1109.947974792827,679.1775064952132 1106.446038568678,664.5938479765675 1102.2224520743378,649.9027061130436 1097.2476610041597,635.1094052338462 1091.49146202771,620.2210462822258 1084.9230756279633,605.2465476537573 1077.5303960597535,590.2152011448626 1069.3801559053275,575.229560697356 1060.5648002548346,560.4050487624994 1051.1836859336183,545.8504854953486 1041.3427883424115,531.6678035342662 1031.1505833731226,517.9486836045373 1020.7058627290659,504.7655581325265 1010.1081437098671,492.18159031455093 999.461116215883,480.2537069128788 988.8723781683664,469.0324191857462 978.4467731567236,458.55734178311627 968.2663448614571,448.84499625297985 958.4082429981681,439.9031989355718 948.9507924478696,431.7355258710604 939.9733226812984,424.3412517417412 931.5480366187741,417.7108832066576 923.7153546160026,411.81399186301553 916.5066175360589,406.614393637436 909.9518556722546,402.07487296922443 904.0797591965352,398.1572214009932 898.8810453185205,394.80597966000835 894.1963870568122,391.90471644249214 889.8225991119713,389.3340682921129 885.5493046914535,386.98962029744087 881.1595995524395,384.7821988514087 876.5138917100633,382.6667773194831 871.8039788623139,380.7169841983483 867.3103732135438,379.01881098016713 863.3193469827518,377.63881829314266 860.1220846592727,376.62389273475117 857.9281178002327,375.9796636246899 856.6044548457938,375.61820290464345 855.927508446254,375.4431313600239 855.6687106491938,375.374178895416 855.5952235309809,375.34737213609355 855.5134462191185,375.3219744175477 855.3990021225011,375.29497271002026 855.2703054465519,375.2703386413416 855.1459771201426,375.2507522801651 855.0447883064002,375.23759446859583 854.9808028620301,375.2306054241643 854.948876968022,375.2275446071509 854.938972302434,375.22637190169644 854.9409730490491,375.225753997272 854.9447168177977,375.2250666442086 854.9421698859153,375.2243584002799 854.9338831548259,375.22393910367134 854.9225589908266,375.2239679480065 854.9108987571911,375.2244160354461 854.9015946184145,375.2250666442086 854.9015946184145,375.2250666442086 854.9015946184145,375.2250666442086 854.9015946184145,375.2250666442086 854.9015946184145,375.2250666442086 854.9015946184145,375.2250666442086 854.9028986582686,375.22481316453866 854.9032094248669,375.2247234065014 854.9028701600524,375.22477216221785 854.902220333056,375.2249106360267 854.9015946184145,375.2250666442086 854.9015946184145,375.2250666442086 854.9015946184145,375.2250666442086 854.9015946184145,375.2250666442086 854.9015946184145,375.2250666442086 854.9015946184145,375.2250666442086 854.9016836616497,375.225032463713 854.9017045156703,375.22502224283517 854.901681135463,375.2250299199004 854.9016369151906,375.2250478124705 854.9015946184145,375.2250666442086 854.9015946184145,375.2250666442086 854.9015946184145,375.2250666442086 854.9015946184145,375.2250666442086 854.9015946184145,375.2250666442086 854.9015946184145,375.2250666442086 854.9016004881657,375.22506311730626 854.9016018352429,375.22506213463384 854.9016002778345,375.22506296893835 854.9015973742686,375.2250647853616 854.9015946184145,375.2250666442086 854.9015946184145,375.2250666442086 854.9015946184145,375.2250666442086 854.9015946184145,375.2250666442086 854.9015946184145,375.2250666442086 854.9015946184145,375.2250666442086 854.90159498947,375.22506632165494 854.9015950724652,375.2250662353796 854.9015949727485,375.22506631378667 854.901594790095,375.2250664784186 854.9015946184145,375.2250666442086 854.9015946184145,375.2250666442086 854.9015946184145,375.2250666442086 854.9015946184145,375.2250666442086 854.9015946184145,375.2250666442086 854.9015946184145,375.2250666442086 854.901594640629,375.2250666167761 854.9015946454217,375.2250666096411 854.9015946393486,375.2250666164282 854.9015946284865,375.22506663034585 854.9015946184145,375.2250666442086 854.9015946184145,375.2250666442086 854.9015946184145,375.2250666442086 854.9015946184145,375.2250666442086 854.9015946184145,375.2250666442086 854.9015946184145,375.2250666442086 854.9015946196432,375.22506664199204 854.9015946198931,375.2250666414278 854.9015946195483,375.2250666419834 854.9015946189538,375.22506664310276 854.9015946184145,375.2250666442086 854.9015946184145,375.2250666442086 854.9015946184145,375.2250666442086 854.9015946184145,375.2250666442086 854.9015946184145,375.2250666442086 854.9015946184145,375.2250666442086 854.9015946184738,375.2250666440365 854.9015946184845,375.2250666439935 854.901594618467,375.22506664403716 854.9015946184389,375.2250666441237 854.9015946184145,375.2250666442086 854.9015946184145,375.2250666442086 854.9015946184145,375.2250666442086 854.9015946184145,375.2250666442086 854.9015946184145,375.2250666442086 854.9015946184145,375.2250666442086 854.9015946184167,375.2250666441955 854.9015946184169,375.2250666441922 854.9015946184162,375.2250666441955 854.9015946184152,375.2250666442021 854.9015946184145,375.2250666442086 854.9015946184145,375.2250666442086 854.9015946184145,375.2250666442086 854.9015946184145,375.2250666442086 854.9015946184145,375.2250666442086 854.9015946184145,375.2250666442086" stroke="black" stroke-dasharray="8.0,8.0" stroke-width="7.0" /><polyline fill="none" points="854.9015946184145,825.9814167974208 847.160454190395,818.7147047437703 839.6689753391782,811.4302104866418 832.4174999154675,804.2471509709704 825.3883526304238,797.2840904680409 818.5558705062642,790.6585942278217 811.89427666131,784.4123638867328 805.4116254822727,778.2885199987187 799.144486955053,771.9575023198071 793.1526065798046,765.0928334026336 787.5187566811636,757.3721303919864 782.3353781687043,748.5458869043359 777.6553919343179,738.6398776346851 773.515053907935,727.7489042230962 769.9447511652127,715.9683545397006 766.9690055863229,703.3939565530487 764.5991668981027,690.1470573899238 762.8079212327941,676.4498993833881 761.5451200241031,662.546751591841 760.7443908889016,648.6774419269982 760.323349041194,635.0766607392561 760.2014734544971,621.9273167135076 760.3596829569095,609.2245092944446 760.7987363854876,596.9175078430268 761.523161192924,584.9564620074271 762.5412023211559,573.2925671066578 763.8673174123209,561.8729949152568 765.5304979775992,550.6257197999889 767.5677962297314,539.4760525930259 770.021833466792,528.3522092177676 772.9406676572992,517.1855563763022 776.3540462930306,505.95013971108074 780.1969820193541,494.77743766512026 784.3710642625247,483.8325592185041 788.7669702850785,473.27367934806546 793.2647720133402,463.25157198956276 797.7782400492194,453.8486191099131 802.395523829924,444.90297598770974 807.2618891024968,436.2011090794499 812.5374035592014,427.54048572213856 818.3964414497033,418.730214081222 824.919570868428,409.7154395507432 831.7530789324367,400.9340978647756 838.4020869640038,392.91862238361136 844.3352240545511,386.16686366983356 848.9861466953197,381.1405145673034 851.9225440341071,378.10190235305674 853.3724288153882,376.6510368247365 853.7612702553561,376.2518193125178 853.5488737530784,376.40096895241265 853.2278962103088,376.62946636115225 853.2127304893946,376.5926818501247 853.4969230434921,376.3225163556581 853.9597575639151,375.93479177116365 854.4730596564095,375.53641551884243 854.9015946184145,375.2250666442086 854.9015946184145,375.2250666442086 854.9015946184145,375.2250666442086 854.9015946184145,375.2250666442086 854.9015946184145,375.2250666442086 854.9015946184145,375.2250666442086 854.8327755504245,375.26321367650803 854.8125740969601,375.2723996950773 854.8258104882877,375.26368058717594 854.8566329343754,375.24699592275135 854.8885672900495,375.23114138719063 854.9015946184145,375.2250666442086 854.9015946184145,375.2250666442086 854.9015946184145,375.2250666442086 854.9015946184145,375.2250666442086 854.9015946184145,375.2250666442086 854.8977539913834,375.2263890781477 854.896640165713,375.2266764434753 854.8974576919992,375.2263314295408 854.8993885357405,375.22569922823595 854.9015946184145,375.2250666442086 854.9015946184145,375.2250666442086 854.9015946184145,375.2250666442086 854.9015946184145,375.2250666442086 854.9015946184145,375.2250666442086 854.9015946184145,375.2250666442086 854.8983838582941,375.22557517865323 854.8945957689733,375.22605026835106 854.8909778535105,375.2263702190255 854.8882846100921,375.2264655824547 854.8872752496161,375.22631942664725 854.888451996064,375.2259856658902 854.8912773468057,375.22560734950184 854.8949482550746,375.2252987403308 854.8986571956289,375.22511791711395 854.9015946184145,375.2250666442086 854.9015946184145,375.2250666442086 854.9015946184145,375.2250666442086 854.9015946184145,375.2250666442086 854.9015946184145,375.2250666442086 854.9015946184145,375.2250666442086 854.9011793934976,375.2250230023112 854.901079636993,375.22500341244086 854.901187192872,375.2250093842829 854.901394440161,375.225034939088 854.9015946184145,375.2250666442086 854.9015946184145,375.2250666442086 854.9015946184145,375.2250666442086 854.9015946184145,375.2250666442086 854.9015946184145,375.2250666442086 854.9015946184145,375.2250666442086 854.9015658036152,375.22505838169786 854.9015589944645,375.22505575287414 854.9015665248589,375.2250575160591 854.9015808598876,375.2250619067679 854.9015946184145,375.2250666442086 854.9015946184145,375.2250666442086 854.9015946184145,375.2250666442086 854.9015946184145,375.2250666442086 854.9015946184145,375.2250666442086 854.9015946184145,375.2250666442086 854.9015926840468,375.2250657007544 854.9015922353733,375.2250654299885 854.9015927458352,375.2250656485405 854.9015937046674,375.2250661377103 854.9015946184145,375.2250666442086 854.9015946184145,375.2250666442086 854.9015946184145,375.2250666442086 854.9015946184145,375.2250666442086 854.9015946184145,375.2250666442086 854.9015946184145,375.2250666442086 854.9015944934055,375.2250665533843 854.9015944650573,375.2250665286457 854.9015944984253,375.22506655046277 854.9015945601218,375.2250665970041 854.9015946184145,375.2250666442086 854.9015946184145,375.2250666442086 854.9015946184145,375.2250666442086 854.9015946184145,375.2250666442086 854.9015946184145,375.2250666442086 854.9015946184145,375.2250666442086 854.9015946107079,375.22506663622823 854.901594609012,375.2250666341256 854.9015946110993,375.2250666360843 854.9015946148813,375.2250666401442 854.9015946184145,375.2250666442086 854.9015946184145,375.2250666442086 854.9015946184145,375.2250666442086 854.9015946184145,375.2250666442086 854.9015946184145,375.2250666442086 854.9015946184145,375.2250666442086 854.9015946179691,375.2250666435482 854.9015946178754,375.22506664337845 854.9015946179986,375.22506664354296 854.9015946182153,375.2250666438772 854.9015946184145,375.2250666442086 854.9015946184145,375.2250666442086 854.9015946184145,375.2250666442086 854.9015946184145,375.2250666442086 854.9015946184145,375.2250666442086 854.9015946184145,375.2250666442086 854.9015946183913,375.2250666441563 854.9015946183868,375.2250666441432 854.9015946183935,375.2250666441563 854.9015946184046,375.22506664418256 854.9015946184145,375.2250666442086 854.9015946184145,375.2250666442086 854.9015946184145,375.2250666442086 854.9015946184145,375.2250666442086 854.9015946184145,375.2250666442086 854.9015946184145,375.2250666442086 854.9015946184136,375.22506664420473 854.9015946184134,375.2250666442037 854.9015946184137,375.22506664420473 854.9015946184143,375.22506664420666 854.9015946184145,375.2250666442086 854.9015946184145,375.2250666442086 854.9015946184145,375.2250666442086 854.9015946184145,375.2250666442086 854.9015946184145,375.2250666442086 854.9015946184145,375.2250666442086 854.9015946184145,375.22506664420825 854.9015946184145,375.22506664420814 854.9015946184145,375.22506664420825 854.9015946184145,375.2250666442085 854.9015946184145,375.2250666442086" stroke="black" stroke-dasharray="8.0,8.0" stroke-width="7.0" /></g><rect fill="white" height="111.60000000000001" stroke="none" width="1181" x="0" y="0" /><line stroke="black" stroke-width="3.0" x1="0" x2="1181" y1="111.60000000000001" y2="111.60000000000001" /><text font-family="Arial" font-size="62.0" text-anchor="start" x="40.0" y="77.5">LED</text><text font-family="Arial" font-size="62.0" text-anchor="middle" x="590.5" y="77.5" /><text font-family="Arial" font-size="62.0" text-anchor="end" x="1141.0" y="77.5">cd / klm</text><rect fill="none" height="1178.0" stroke="black" stroke-width="3.0" width="1178.0" x="1.5" y="1.5" /></svg>