<?xml version="1.0" encoding="utf-8" ?>
<svg baseProfile="full" height="1181" version="1.1" width="1181" xmlns="http://www.w3.org/2000/svg" xmlns:ev="http://www.w3.org/2001/xml-events" xmlns:xlink="http://www.w3.org/1999/xlink"><defs><clipPath id="plot_clip"><rect height="1069.4" width="1181.0" x="0" y="111.60000000000001" /></clipPath></defs><g clip-path="url(#plot_clip)" id="grid"><circle cx="590.5" cy="756.3960675790191" fill="none" r="145.62654055437957" stroke="black" stroke-width="3.0" /><text font-family="Arial" font-size="42.0" text-anchor="start" x="598.5" y="604.7695270246395">50</text><circle cx="590.5" cy="756.3960675790191" fill="none" r="291.25308110875915" stroke="black" stroke-width="3.0" /><text font-family="Arial" font-size="42.0" text-anchor="start" x="598.5" y="459.14298647026">100</text><circle cx="590.5" cy="756.3960675790191" fill="none" r="436.8796216631387" stroke="black" stroke-width="3.0" /><text font-family="Arial" font-size="42.0" text-anchor="start" x="598.5" y="313.51644591588047">150</text><circle cx="590.5" cy="756.3960675790191" fill="none" r="582.5061622175183" stroke="black" stroke-width="3.0" /><text font-family="Arial" font-size="42.0" text-anchor="start" x="598.5" y="167.88990536150084">200</text><circle cx="590.5" cy="756.3960675790191" fill="none" r="728.1327027718979" stroke="black" stroke-width="3.0" /><text font-family="Arial" font-size="42.0" text-anchor="start" x="598.5" y="22.263364807121306">250</text><line stroke="black" stroke-width="3.0" x1="-2922.2305979824673" x2="4103.230597982467" y1="756.3960675790189" y2="756.3960675790194" /><line stroke="black" stroke-width="3.0" x1="-2451.613934503718" x2="3632.613934503718" y1="-999.9692314122148" y2="2512.761366570253" /><line stroke="black" stroke-width="3.0" x1="-1165.8652989912332" x2="2346.8652989912334" y1="-2285.7178669247" y2="3798.5100020827385" /><line stroke="black" stroke-width="3.0" x1="590.5" x2="590.5" y1="-2756.3345304034483" y2="4269.126665561486" /><line stroke="black" stroke-width="3.0" x1="2346.8652989912334" x2="-1165.8652989912334" y1="-2285.7178669247" y2="3798.5100020827385" /><line stroke="black" stroke-width="3.0" x1="3632.613934503718" x2="-2451.613934503718" y1="-999.9692314122148" y2="2512.761366570253" /><line stroke="black" stroke-width="3.0" x1="4103.230597982468" x2="-2922.2305979824678" y1="756.3960675790189" y2="756.3960675790194" /></g><g clip-path="url(#plot_clip)" id="curves"><polyline fill="none" points="590.5000000000001,1119.4430331810872 596.7964329503687,1117.1184697162932 603.0125846690185,1114.709611384957 609.1491322855377,1112.242709826888 615.2084874865336,1109.7439008320778 621.1947906171199,1107.2391297550078 627.1118579544274,1104.734627503668 632.9543248647817,1102.158796643577 638.7090366464281,1099.4211872783244 644.3564462924255,1096.4322869328355 649.8706578364854,1093.1037999858224 655.2224242023117,1089.3640749323556 660.3901558207239,1085.2033990093373 665.3548276618602,1080.6279476700647 670.0975835471048,1075.6445380252735 674.599754633164,1070.260624774063 678.8447077300666,1064.4906773537566 682.8242421437512,1058.3750567444715 686.5346574835659,1051.9603519144537 689.9751281317667,1045.2928167574923 693.1476796504516,1038.418249578046 696.0557243314827,1031.3781307507977 698.6991983699353,1024.1984810146275 701.0779371284029,1016.9013623708776 703.1929691354916,1009.5086204177858 705.0465032267891,1002.0418364690389 706.6400584063981,994.5184754909009 707.9683518243046,986.9406889337743 709.0239383229841,979.3071751601317 709.798949346686,971.6170693541471 710.285110933005,963.8699657052579 710.4800480336493,956.0763998128512 710.4076135241681,948.2883617966551 710.1015414520189,940.5662908792004 709.5994301457798,932.9682340852619 708.9426361760846,925.5496823471758 708.1577640768365,918.3380868574395 707.1978401043672,911.2593319838062 705.9913922486353,904.2183086779884 704.4601782033367,897.1251676005473 702.5194202033409,889.895614046671 700.0931046273073,882.46851279154 697.1618002516092,874.8559977926677 693.7218324952659,867.0879309383512 689.7708306590237,859.1940220016082 685.3077146590431,851.2037822380622 680.3583923762061,843.171308418931 675.0563150959247,835.2461070341785 669.571120743855,827.5920244839489 664.0832996614699,820.361054099492 658.7836737635579,813.6928730494502 653.842328873827,807.6896741264312 649.313055226257,802.3458622782395 645.2186522506275,797.6295295986458 641.5805704000802,793.5082743294491 638.4189048324179,789.9492459654317 635.7379073883565,786.9094213965944 633.4811875522026,784.3083771400658 631.5729236618283,782.0612787686069 629.9322658762327,780.0893632630715 628.4736129875452,778.3201432594809 627.122080940242,776.6960185272311 625.8605043329324,775.1975812411457 624.6860762072882,773.8147434249885 623.5954856503221,772.537814465095 622.5849378987556,771.3575198326363 621.6464339383506,770.2633534134401 620.7563404812029,769.2391221439528 619.8862670645265,768.2688901524837 619.0068384532996,767.3388176138054 618.0877878067853,766.437201169941 617.1049444382814,765.5568845991567 616.0613323017193,764.7014479058022 614.9670953883073,763.8764093254003 613.8326620573656,763.0866007614383 612.6687151947021,762.3361569126752 611.4887436763108,761.6291491220212 610.3168435481894,760.9711464028078 609.1800727153945,760.3666396071493 608.1058147140192,759.8182912857516 607.1216995425285,759.3269216735964 606.2196310448013,758.8858125441581 605.247277968932,758.468662334361 604.0146560432851,758.0554586870477 602.3303793349733,757.6394905519243 600.0022413879124,757.2274059785483 597.0039760415845,756.850869888564 593.9757950589842,756.5782262793034 592.8140514779291,756.476876037272 592.8151093387377,756.4364779628427 592.8154619948147,756.3960675790191 597.6174462998507,756.2718320917321 605.520217205243,755.8715500362788 616.4102362953365,755.0381696340817 630.168733207418,753.6221595319868 646.6720284793843,751.4816518798176 665.7419900982889,748.4878157498708 686.997546232101,744.5476587367028 710.006423063539,739.6005351293721 734.3364092631263,733.6146183995878 759.556595519695,726.5868285221791 785.2572848485693,718.5390863433314 811.1067175241415,709.5046622207777 836.7951908906912,699.53434237516 862.0171464818842,688.6992397090115 886.4720408703859,677.090598245608 909.9149582047204,664.805302171473 932.3046601072715,651.8958959186772 953.6511867691836,638.4010942873565 973.9655774232496,624.3582805261282 993.2598069093776,609.8034863052025 1011.5296209816902,594.7779383995556 1028.704106821833,579.3501161543281 1044.6987118855632,563.6001528287555 1059.4328075135338,547.6137301917275 1072.8299282229623,531.481928291301 1084.819753751203,515.3002145027057 1095.3434601419879,499.1654766258499 1104.3484741770887,483.1779874142012 1111.786883682462,467.44202955022365 1117.6156188732766,452.0657231284765 1121.8456068697883,437.1314173176635 1124.6847093047393,422.6004144758941 1126.383256801269,408.3894115448635 1127.1833552460537,394.39857361798636 1127.318181818182,380.5119300218977 1126.9484708534528,366.6434394205413 1125.9798149949909,352.88308424124875 1124.2622778514265,339.375271922215 1121.6552504054298,326.2750266530063 1118.027914545193,313.74758904842804 1113.3068897808987,301.92697185353416 1107.612474001775,290.7859046309595 1101.1069649876365,280.2473696410833 1093.9456291569406,270.2242747764766 1086.2762821738122,260.6197854052067 1078.2144736520806,251.3529456378776 1069.6353014330803,242.58636245393916 1060.5951110006647,234.30255414166243 1051.4117250435243,226.17778057121222 1042.0879409099834,218.21451662732431 1032.053068348951,211.12343901557233 1021.603970592579,204.60814781383647 1010.7343660495515,198.72622824602593 999.4413634017991,193.5365684599509 987.7255293363808,189.09921963018542 975.6108329231778,185.44577813568458 963.2002084089079,182.48807464374875 950.6085607232493,180.10190365032747 937.94157139666,178.15618898793502 925.2954167345187,176.5133956536372 912.730049322362,175.07767041801185 900.1962866610439,173.94206503610928 887.6268541410047,173.25178217418693 874.9647163665521,173.15696681891245 862.1632924421716,173.8122568883698 849.2121065321547,175.31916245357456 836.2053123056716,177.55062628823873 823.2512847379917,180.31642260826266 810.4449121346539,183.41998214199305 797.8673392482358,186.6589854621045 785.5717312136608,189.866623861251 773.5467523731168,193.0360912668824 761.768446194185,196.20222188105936 750.2157034090611,199.40121660204863 738.8703151138126,202.67051323926626 727.7219910503535,206.028722212435 716.7805237705619,209.41502547486334 706.0559994358446,212.74783330226944 695.5530916560522,215.94476300977863 685.271025800237,218.92287193161428 675.2041852174891,221.59488986278154 665.3434337267406,223.8573653205002 655.673219087257,225.60279350611154 646.170787749219,226.72390347927956 636.8061834632402,227.11396865292033 627.5387504468912,226.71725887238802 618.3136398633068,225.6802035640162 609.084639813129,224.20161471850213 599.8195031492963,222.48208973809176 590.5,220.7234008037891" stroke="black" stroke-width="9.0" /><polyline fill="none" points="590.5000000000001,1119.4430331810872 584.2035670496313,1117.1184697162932 577.9874153309815,1114.709611384957 571.8508677144624,1112.242709826888 565.7915125134665,1109.7439008320778 559.8052093828802,1107.2391297550078 553.8881420455727,1104.734627503668 548.0456751352183,1102.158796643577 542.2909633535719,1099.4211872783244 536.6435537075746,1096.4322869328355 531.1293421635146,1093.1037999858224 525.7775757976883,1089.3640749323556 520.6098441792761,1085.2033990093373 515.6451723381398,1080.6279476700647 510.90241645289524,1075.6445380252735 506.40024536683603,1070.260624774063 502.15529226993357,1064.4906773537566 498.1757578562488,1058.3750567444715 494.46534251643425,1051.960351914454 491.0248718682333,1045.2928167574923 487.85232034954856,1038.418249578046 484.9442756685174,1031.3781307507977 482.30080163006477,1024.1984810146275 479.92206287159706,1016.9013623708776 477.80703086450853,1009.5086204177858 475.9534967732109,1002.0418364690389 474.35994159360195,994.5184754909009 473.0316481756956,986.9406889337743 471.9760616770159,979.3071751601317 471.2010506533141,971.6170693541471 470.7148890669951,963.8699657052578 470.5199519663507,956.0763998128513 470.5923864758319,948.2883617966551 470.89845854798114,940.5662908792004 471.4005698542202,932.968234085262 472.0573638239154,925.5496823471758 472.84223592316357,918.3380868574395 473.80215989563277,911.2593319838062 475.00860775136476,904.2183086779884 476.5398217966633,897.1251676005473 478.48057979665913,889.895614046671 480.90689537269276,882.4685127915401 483.8381997483909,874.8559977926677 487.2781675047341,867.0879309383512 491.2291693409764,859.1940220016082 495.69228534095686,851.2037822380622 500.6416076237939,843.1713084189308 505.9436849040753,835.2461070341785 511.4288792561451,827.5920244839489 516.9167003385302,820.361054099492 522.2163262364421,813.6928730494502 527.1576711261731,807.6896741264312 531.6869447737431,802.3458622782395 535.7813477493725,797.6295295986458 539.4194295999198,793.5082743294491 542.5810951675821,789.9492459654317 545.2620926116435,786.9094213965944 547.5188124477974,784.3083771400658 549.4270763381717,782.0612787686069 551.0677341237674,780.0893632630715 552.526387012455,778.3201432594809 553.877919059758,776.6960185272311 555.1394956670676,775.1975812411457 556.3139237927118,773.8147434249885 557.4045143496779,772.537814465095 558.4150621012444,771.3575198326363 559.3535660616494,770.2633534134401 560.2436595187971,769.2391221439528 561.1137329354736,768.2688901524837 561.9931615467004,767.3388176138054 562.9122121932147,766.437201169941 563.8950555617186,765.5568845991567 564.9386676982807,764.7014479058022 566.0329046116929,763.8764093254003 567.1673379426344,763.0866007614383 568.3312848052979,762.3361569126752 569.5112563236892,761.6291491220212 570.6831564518106,760.9711464028078 571.8199272846056,760.3666396071493 572.8941852859808,759.8182912857516 573.8783004574715,759.3269216735964 574.7803689551987,758.8858125441581 575.752722031068,758.468662334361 576.9853439567149,758.0554586870477 578.6696206650267,757.6394905519243 580.9977586120876,757.2274059785483 583.9960239584155,756.850869888564 587.0242049410159,756.5782262793034 588.1859485220709,756.476876037272 588.1848906612623,756.4364779628427 588.1845380051855,756.3960675790191 583.3825537001494,756.2718320917321 575.479782794757,755.8715500362788 564.5897637046635,755.0381696340817 550.831266792582,753.6221595319868 534.3279715206158,751.4816518798176 515.2580099017111,748.487815749871 494.0024537678991,744.5476587367028 470.993576936461,739.6005351293721 446.6635907368738,733.6146183995879 421.4434044803051,726.5868285221791 395.7427151514308,718.5390863433314 369.8932824758586,709.5046622207777 344.2048091093088,699.53434237516 318.9828535181158,688.6992397090116 294.52795912961415,677.0905982456081 271.0850417952797,664.8053021714729 248.69533989272844,651.8958959186772 227.34881323081646,638.4010942873566 207.0344225767504,624.3582805261284 187.74019309062243,609.8034863052025 169.47037901830973,594.7779383995556 152.29589317816712,579.3501161543281 136.30128811443694,563.6001528287557 121.56719248646614,547.6137301917278 108.1700717770378,531.4819282913008 96.18024624879695,515.3002145027057 85.65653985801201,499.16547662585003 76.65152582291128,483.1779874142014 69.21311631753798,467.4420295502234 63.38438112672341,452.0657231284765 59.15439313021176,437.1314173176635 56.31529069526065,422.60041447589435 54.61674319873092,408.38941154486383 53.816644753946306,394.39857361798613 53.681818181818144,380.5119300218977 54.05152914654708,366.6434394205413 55.02018500500889,352.88308424124887 56.73772214857387,339.3752719222148 59.34474959457034,326.2750266530063 62.972085454807036,313.74758904842804 67.69311021910107,301.92697185353416 73.38752599822503,290.78590463095986 79.8930350123637,280.2473696410833 87.05437084305944,270.2242747764766 94.72371782618755,260.6197854052069 102.78552634791926,251.35294563787772 111.36469856691976,242.58636245393905 120.40488899933551,234.30255414166243 129.5882749564757,226.17778057121222 138.91205909001627,218.21451662732454 148.94693165104871,211.12343901557244 159.39602940742105,204.60814781383647 170.26563395044846,198.72622824602593 181.55863659820076,193.5365684599509 193.27447066361893,189.09921963018576 205.38916707682253,185.44577813568458 217.79979159109232,182.48807464374875 230.39143927675073,180.10190365032759 243.05842860333965,178.15618898793514 255.70458326548106,176.5133956536373 268.2699506776381,175.07767041801162 280.803713338956,173.94206503610928 293.37314585899526,173.25178217418693 306.0352836334477,173.1569668189128 318.8367075578284,173.8122568883697 331.7878934678453,175.31916245357434 344.7946876943284,177.55062628823873 357.74871526200803,180.31642260826266 370.5550878653458,183.41998214199327 383.1326607517642,186.6589854621045 395.42826878633923,189.866623861251 407.4532476268831,193.0360912668824 419.2315538058149,196.20222188105936 430.78429659093905,199.40121660204863 442.1296848861876,202.67051323926626 453.27800894964645,206.028722212435 464.21947622943793,209.41502547486357 474.94400056415515,212.74783330226956 485.4469083439478,215.94476300977863 495.72897419976306,218.92287193161428 505.7958147825107,221.59488986278154 515.6565662732593,223.8573653205002 525.3267809127431,225.60279350611154 534.829212250781,226.72390347927956 544.1938165367596,227.11396865292033 553.4612495531086,226.71725887238802 562.686360136693,225.6802035640162 571.9153601868711,224.20161471850213 581.1804968507037,222.48208973809176 590.4999999999999,220.7234008037891" stroke="black" stroke-width="9.0" /><polyline fill="none" points="590.5000000000001,1119.4430331810872 596.8038548673493,1117.5436710553336 603.0407682195145,1115.516682675369 609.206907119898,1113.345119338428 615.2971740964911,1111.0121784425187 621.3052126640803,1108.5012595271428 627.2241937106159,1105.8034308292856 633.0501953666314,1102.9395992228642 638.7816792756768,1099.938066443035 644.4189651975079,1096.827015764495 649.964222635018,1093.634432326697 655.4162837070496,1090.361395625989 660.7513897827009,1086.9028711834212 665.9322541165712,1083.1290564278188 670.9123975801283,1078.9125786133018 675.6362549927804,1074.1288967782145 680.05041955474,1068.6954941862325 684.1425522118916,1062.6870546828227 687.9175154492686,1056.216351109749 691.3875436409181,1049.3947692429679 694.572165864243,1042.3319932847626 697.4909446631927,1035.117007542362 700.1392573506677,1027.7627520659823 702.5052173562929,1020.2638238724453 704.57621391028,1012.6154390492715 706.3389363708696,1004.8134682908154 707.782404562002,996.8606322021488 708.907866285316,988.7845898850292 709.7212845568008,980.6186926775804 710.2305202759554,972.3956439203362 710.4453001276148,964.1474215291456 710.3814705425266,955.9123393169541 710.0748177415547,947.7557772146196 709.5698604031808,939.7475738601703 708.915687500001,931.9545439261225 708.16582622091,924.4402827580758 707.3592215505556,917.2389873615391 706.4598405861816,910.2799735448395 705.4070149250394,903.4703398126086 704.133607078932,896.7218858476134 702.5662236712959,889.9513922477521 700.6177538287996,883.0720526578103 698.1633231801227,875.9683016909631 695.0615097450685,868.5245589025716 691.1621116656341,860.6347356589546 686.3065577482065,852.2026253272256 680.4175741660574,843.2284596090632 673.7792730861026,834.0552460943878 666.7899957160449,825.0878882612109 659.8749094120799,816.7027562681423 653.4847446608476,809.2465435937314 647.9928143049091,802.9528306265801 643.377265853281,797.7083153591619 639.505687266788,793.324501696978 636.2343480054278,789.6240163955596 633.408713139708,786.4410719743206 630.890173561524,783.6395836430107 628.6376277937688,781.1629326548331 626.6334833325529,778.9747738912579 624.8581716620162,777.0405398725132 623.2902337321877,775.3275178510884 621.9012063719607,773.8020404975333 620.6397117375443,772.4216365774295 619.4465045602878,771.1450483263924 618.2597617076844,769.9354080146794 617.0152777616619,768.7603446573888 615.6718796401195,767.6033104579342 614.2888122327112,766.4938192793439 612.9527780734782,765.4675787635608 611.7528699881888,764.5542800087683 610.7803082984404,763.7774961413933 610.0941765396678,763.1428836212993 609.6175649174323,762.607740964704 609.2367855699072,762.1244777996516 608.8352948799827,761.6536287823811 608.2940512190979,761.1639692332544 607.5267654375846,760.6413170004513 606.5861046469423,760.1098374611153 605.5611563748789,759.597415192838 604.5425924016708,759.1256710311509 603.6223943756805,758.7098997589486 602.8534281187018,758.3526583776891 602.1278786969216,758.0302593569025 601.2962817174605,757.7216842890815 600.2078829492103,757.4164071924446 598.7110971382571,757.1144454937267 596.7517125030708,756.8332299035463 594.6674196749085,756.6144727895215 592.8956985382412,756.4797272154448 592.043406225825,756.4230078349016 592.0436413298764,756.3960675790191 593.7187179108848,756.3398846488989 596.7377323743674,756.1782411646226 600.8167144928591,755.8553914829512 605.6704299612402,755.3352477760172 611.0132356068825,754.6013920111806 616.6038445184245,753.652442963416 622.3772126994606,752.4820380149073 628.3120773163333,751.0819266711503 634.3869608206539,749.445055851895 640.5802198468591,747.5655736202062 646.8731036870648,745.4382462572747 653.2587465031548,743.056284207588 659.7330134693206,740.4123669931854 666.2914667335632,737.4991325457844 672.9293597975601,734.3091871886485 679.6358927333962,730.8367616322256 686.3772255650962,727.0834580706365 693.1141532214094,723.0547080851219 699.807998304334,718.758305409417 706.4207095790072,714.2043797572434 712.9129675679692,709.4061319077189 719.2384144228407,704.3823718797565 725.3499322155565,699.155667385943 731.2017901497352,693.751594530095 736.7497724624066,688.1986786763729 741.9687393318596,682.5198272578834 746.9038472119031,676.7043270257162 751.6161078708512,670.7291134314993 756.1644729895726,664.5667506967462 760.6056432999031,658.1855286291456 764.9884173852284,651.5528490957914 769.3375815151023,644.6459439206457 773.6709797932033,637.4434424478851 778.0050113922947,629.9223404442802 782.3545547472683,622.0580621051143 786.7112491702133,613.8402505838026 790.9807112419575,605.3230156551533 795.0514641215333,596.5829487799608 798.8174365111203,587.7039336561993 802.1782731030079,578.7769066900416 805.0722837742309,569.8712269911402 807.5706762900678,560.9447527489748 809.7726305158513,551.9210316458983 811.7713770549847,542.7167825709167 813.6539029408193,533.2421646381997 815.4604786932448,523.4426724873266 817.0696782033187,513.4298340334187 818.3292571825066,503.3660433078886 819.0982226273046,493.4238943216927 819.2472692829481,483.78568761495046 818.7027522089702,474.5891377626889 817.5701860884055,465.7594829746391 815.9903834213205,457.1602219345549 814.093653800211,448.6458049563181 811.999423562582,440.06210732359045 809.7887324409165,431.28715202748276 807.4281186189883,422.35605805142495 804.8608158960295,413.3470522271915 802.0354404879541,404.34197418493807 798.9061421873727,395.426040701066 795.4391486442337,386.67605650015264 791.6304838255817,378.12464366033544 787.4840034298617,369.7931930311099 783.0046019867531,361.7031426038859 778.1982191817438,353.8759375764496 773.0762633972266,346.32306594682564 767.6674799996752,339.0156406747518 762.0022289618744,331.91315534389275 756.1076493164077,324.9733913151997 750.0075908974578,318.1525633566482 743.7191632565801,311.4153069808716 737.2438917267945,304.76480783043587 730.5802666457737,298.2141606227335 723.7274810901517,291.77662570868245 716.6854383258053,285.4656005717642 709.4532096035131,279.30080251835614 702.0252627292485,273.3270826940775 694.3976454666275,267.59607641280536 686.5697779227966,262.1599057529203 678.5444754192398,257.07103481610613 670.3306657927538,252.3650805125029 661.9491176413304,248.00917922282918 653.4201598505248,243.95248845280707 644.760353189645,240.1432919178976 635.9824603772946,236.52916660827168 627.0947513236533,233.06674215208625 618.1003128392784,229.75072566868664 609.001397553645,226.5853611449271 599.8004287530904,223.5748611648553 590.5,220.72340080378933" stroke="black" stroke-dasharray="8.0,8.0" stroke-width="7.0" /><polyline fill="none" points="590.5000000000001,1119.4430331810872 584.1961451326507,1117.5436710553336 577.9592317804858,1115.516682675369 571.7930928801022,1113.345119338428 565.702825903509,1111.0121784425187 559.6947873359198,1108.5012595271428 553.7758062893843,1105.8034308292856 547.9498046333687,1102.9395992228644 542.2183207243232,1099.9380664430348 536.5810348024922,1096.827015764495 531.0357773649819,1093.634432326697 525.5837162929505,1090.361395625989 520.248610217299,1086.9028711834212 515.0677458834289,1083.1290564278188 510.08760241987176,1078.9125786133018 505.3637450072197,1074.1288967782148 500.94958044526015,1068.6954941862325 496.8574477881084,1062.6870546828227 493.08248455073135,1056.216351109749 489.6124563590818,1049.3947692429679 486.4278341357571,1042.3319932847626 483.5090553368072,1035.117007542362 480.8607426493324,1027.7627520659823 478.4947826437072,1020.2638238724453 476.42378608972007,1012.6154390492716 474.6610636291304,1004.8134682908154 473.2175954379981,996.8606322021488 472.0921337146841,988.7845898850293 471.27871544319913,980.6186926775803 470.76947972404463,972.3956439203362 470.55469987238524,964.1474215291455 470.61852945747336,955.9123393169541 470.9251822584453,947.7557772146196 471.43013959681934,939.7475738601704 472.08431249999904,931.9545439261225 472.83417377909,924.4402827580758 473.6407784494445,917.2389873615391 474.54015941381846,910.2799735448395 475.59298507496055,903.4703398126086 476.8663929210681,896.7218858476134 478.43377632870425,889.9513922477521 480.38224617120056,883.0720526578103 482.83667681987737,875.9683016909632 485.9384902549314,868.5245589025716 489.8378883343659,860.6347356589545 494.6934422517935,852.2026253272256 500.58242583394264,843.2284596090632 507.2207269138974,834.0552460943878 514.2100042839551,825.0878882612109 521.1250905879201,816.7027562681423 527.5152553391524,809.2465435937314 533.0071856950909,802.9528306265801 537.622734146719,797.7083153591619 541.4943127332122,793.324501696978 544.7656519945722,789.6240163955596 547.591286860292,786.4410719743206 550.109826438476,783.6395836430107 552.3623722062312,781.1629326548331 554.3665166674471,778.974773891258 556.1418283379838,777.0405398725132 557.7097662678123,775.3275178510884 559.0987936280393,773.8020404975332 560.3602882624558,772.4216365774295 561.5534954397123,771.1450483263924 562.7402382923156,769.9354080146794 563.9847222383381,768.7603446573888 565.3281203598805,767.6033104579342 566.7111877672888,766.4938192793439 568.0472219265218,765.4675787635608 569.2471300118112,764.5542800087683 570.2196917015596,763.7774961413933 570.9058234603322,763.1428836212993 571.3824350825677,762.607740964704 571.763214430093,762.1244777996516 572.1647051200174,761.6536287823811 572.7059487809021,761.1639692332544 573.4732345624154,760.6413170004513 574.4138953530578,760.1098374611153 575.4388436251211,759.597415192838 576.4574075983292,759.1256710311509 577.3776056243196,758.7098997589486 578.1465718812983,758.3526583776891 578.8721213030784,758.0302593569025 579.7037182825395,757.7216842890815 580.7921170507897,757.4164071924446 582.2889028617429,757.1144454937267 584.2482874969292,756.8332299035463 586.3325803250915,756.6144727895215 588.1043014617588,756.4797272154448 588.956593774175,756.4230078349016 588.9563586701236,756.3960675790191 587.2812820891152,756.3398846488989 584.2622676256326,756.1782411646226 580.1832855071409,755.8553914829512 575.3295700387598,755.3352477760172 569.9867643931175,754.6013920111806 564.3961554815756,753.652442963416 558.6227873005395,752.4820380149073 552.6879226836667,751.0819266711503 546.6130391793461,749.445055851895 540.4197801531409,747.5655736202062 534.1268963129353,745.4382462572747 527.7412534968452,743.056284207588 521.2669865306794,740.4123669931854 514.7085332664368,737.4991325457844 508.0706402024399,734.3091871886485 501.3641072666038,730.8367616322256 494.6227744349039,727.0834580706365 487.8858467785906,723.0547080851219 481.1920016956661,718.7583054094171 474.5792904209929,714.2043797572434 468.0870324320308,709.4061319077189 461.7615855771593,704.3823718797565 455.65006778444354,699.1556673859432 449.79820985026487,693.7515945300951 444.2502275375935,688.1986786763729 439.0312606681403,682.5198272578835 434.0961527880969,676.7043270257162 429.3838921291487,670.7291134314993 424.8355270104274,664.5667506967461 420.3943567000968,658.1855286291456 416.0115826147716,651.5528490957914 411.66241848489767,644.6459439206457 407.3290202067967,637.4434424478851 402.9949886077055,629.9223404442802 398.6454452527318,622.0580621051143 394.28875082978675,613.8402505838026 390.0192887580426,605.3230156551535 385.94853587846694,596.5829487799607 382.18256348887985,587.7039336561993 378.8217268969921,578.7769066900416 375.92771622576896,569.8712269911402 373.42932370993213,560.9447527489749 371.2273694841487,551.9210316458982 369.22862294501533,542.7167825709167 367.34609705918064,533.2421646381998 365.5395213067552,523.4426724873267 363.93032179668137,513.4298340334187 362.6707428174936,503.3660433078886 361.9017773726953,493.42389432169284 361.75273071705175,483.7856876149506 362.2972477910297,474.589137762689 363.42981391159447,465.7594829746391 365.00961657867947,457.1602219345549 366.9063461997891,448.6458049563182 369.0005764374179,440.06210732359045 371.21126755908364,431.28715202748276 373.57188138101174,422.35605805142495 376.13918410397054,413.3470522271915 378.96455951204575,404.3419741849382 382.0938578126272,395.4260407010662 385.56085135576643,386.67605650015264 389.3695161744184,378.12464366033544 393.5159965701382,369.79319303111004 397.99539801324676,361.7031426038859 402.80178081825625,353.8759375764495 407.9237366027734,346.32306594682564 413.3325200003248,339.0156406747518 418.9977710381256,331.91315534389275 424.89235068359216,324.9733913151997 430.9924091025423,318.1525633566482 437.2808367434199,311.4153069808716 443.7561082732054,304.76480783043587 450.4197333542262,298.21416062273374 457.2725189098484,291.77662570868245 464.31456167419464,285.4656005717642 471.5467903964869,279.30080251835614 478.97473727075135,273.3270826940775 486.60235453337214,267.59607641280536 494.4302220772036,262.1599057529203 502.4555245807602,257.07103481610613 510.66933420724615,252.3650805125029 519.0508823586694,248.0091792228294 527.5798401494753,243.95248845280685 536.2396468103551,240.1432919178976 545.0175396227054,236.52916660827168 553.9052486763466,233.06674215208625 562.8996871607213,229.75072566868664 571.9986024463551,226.5853611449271 581.1995712469095,223.5748611648553 590.4999999999999,220.72340080378933" stroke="black" stroke-dasharray="8.0,8.0" stroke-width="7.0" /></g><rect fill="white" height="111.60000000000001" stroke="none" width="1181" x="0" y="0" /><line stroke="black" stroke-width="3.0" x1="0" x2="1181" y1="111.60000000000001" y2="111.60000000000001" /><text font-family="Arial" font-size="62.0" text-anchor="start" x="40.0" y="77.5">LED</text><text font-family="Arial" font-size="62.0" text-anchor="middle" x="590.5" y="77.5" /><text font-family="Arial" font-size="62.0" text-anchor="end" x="1141.0" y="77.5">cd / klm</text><rect fill="none" height="1178.0" stroke="black" stroke-width="3.0" width="1178.0" x="1.5" y="1.5" /></svg>