<?xml version="1.0" encoding="utf-8" ?>
<svg baseProfile="full" height="1181" version="1.1" width="1181" xmlns="http://www.w3.org/2000/svg" xmlns:ev="http://www.w3.org/2001/xml-events" xmlns:xlink="http://www.w3.org/1999/xlink"><defs><clipPath id="plot_clip"><rect height="1069.4" width="1181.0" x="0" y="111.60000000000001" /></clipPath></defs><g clip-path="url(#plot_clip)" id="grid"><circle cx="590.5" cy="459.6717556627575" fill="none" r="122.01454673978628" stroke="black" stroke-width="3.0" /><text font-family="Arial" font-size="42.0" text-anchor="start" x="598.5" y="621.6863024025438">100</text><circle cx="590.5" cy="459.6717556627575" fill="none" r="244.02909347957257" stroke="black" stroke-width="3.0" /><text font-family="Arial" font-size="42.0" text-anchor="start" x="598.5" y="743.7008491423301">200</text><circle cx="590.5" cy="459.6717556627575" fill="none" r="366.04364021935885" stroke="black" stroke-width="3.0" /><text font-family="Arial" font-size="42.0" text-anchor="start" x="598.5" y="865.7153958821164">300</text><circle cx="590.5" cy="459.6717556627575" fill="none" r="488.05818695914513" stroke="black" stroke-width="3.0" /><text font-family="Arial" font-size="42.0" text-anchor="start" x="598.5" y="987.7299426219026">400</text><circle cx="590.5" cy="459.6717556627575" fill="none" r="610.0727336989314" stroke="black" stroke-width="3.0" /><text font-family="Arial" font-size="42.0" text-anchor="start" x="598.5" y="1109.744489361689">500</text><line stroke="black" stroke-width="3.0" x1="-2455.3796339019696" x2="3636.3796339019696" y1="459.6717556627574" y2="459.6717556627576" /><line stroke="black" stroke-width="3.0" x1="-2047.3091398287513" x2="3228.3091398287515" y1="-1063.2680612882277" y2="1982.6115726137427" /><line stroke="black" stroke-width="3.0" x1="-932.4398169509847" x2="2113.4398169509846" y1="-2178.1373841659947" y2="3097.4808954915097" /><line stroke="black" stroke-width="3.0" x1="590.5" x2="590.5" y1="-2586.2078782392123" y2="3505.5513895647273" /><line stroke="black" stroke-width="3.0" x1="2113.4398169509846" x2="-932.4398169509846" y1="-2178.1373841659947" y2="3097.4808954915097" /><line stroke="black" stroke-width="3.0" x1="3228.3091398287515" x2="-2047.3091398287515" y1="-1063.2680612882277" y2="1982.6115726137427" /><line stroke="black" stroke-width="3.0" x1="3636.37963390197" x2="-2455.37963390197" y1="459.6717556627574" y2="459.6717556627576" /></g><g clip-path="url(#plot_clip)" id="curves"><polyline fill="none" points="590.5,767.685277452674 595.8908140761362,768.5112872431549 601.3126744845075,769.3062408668319 606.7705708163912,770.1327413976813 612.2739001072897,771.0530342040919 617.8364504701793,772.1288143087522 623.4737970182914,773.3964779343393 629.1921037085365,774.7936522921989 634.9898601043293,776.2335592022113 640.8596234560563,777.6299045368978 646.7880473436239,778.8971352244331 652.7612429583863,779.9780831636275 658.7846141066213,780.9256072028854 664.8735741856976,781.8190979323895 671.0491309568716,782.7366743174601 677.3378273707779,783.7549394293958 683.7652602551633,784.9263713851957 690.3336482702798,786.2129055204272 697.0355928842316,787.5545960057622 703.8597460999255,788.8923633767307 710.790854941533,790.168163381511 717.8140679825042,791.3362419456624 724.9293029608436,792.3959561350576 732.1412033948016,793.3575197785243 739.4552545532657,794.2307350556556 746.8777647169416,795.0249543120541 754.4311505276894,795.7804233441931 762.2041946021842,796.660211828305 770.3136108682854,797.8519724522288 778.8895200357125,799.5354463998456 788.0751051720674,801.8818761315428 797.9858057384524,804.9861250322291 808.5782615686791,808.6699276843605 819.7552148246887,812.6938287430811 831.4039350403627,816.8265269147279 843.3965995442483,820.8455302137345 855.5955149211696,824.5444295982517 867.868917759837,827.7527416544068 880.0785350655602,830.3153784826512 892.0753754605479,832.0863292999786 903.7001210870325,832.9291251691699 914.8185316984524,832.7575484049627 925.4324347878907,831.6519093604012 935.5846446773353,829.7297309247175 945.3251816984729,827.1039874077732 954.7110507998709,823.8828064626284 963.8117041331238,820.1746778482149 972.7266427144899,816.1038663177692 981.5693671839394,811.7921954761736 990.4615114963503,807.352993243467 999.5324629552479,802.8907444680405 1008.9273637130545,798.507553849469 1018.8328262997994,794.3220362117892 1029.4529117043826,790.4465000820094 1041.0003954769622,786.9794518600045 1053.6961706028117,784.005205988717 1067.5805557667131,781.4666537473237 1081.9309454839693,778.8107431922789 1095.7963857700001,775.415980760983 1108.1839812620617,770.7276731045321 1118.0618279657504,764.2597190529543 1123.2972706770381,755.0061053883707 1127.3181818181818,745.1030460228513 1126.3411797863296,732.6964736510121 1121.5095763027255,718.6624308661472 1112.743547978995,703.1979215074003 1099.9015666134037,686.471945460152 1082.5704148462478,668.5432545668026 1060.2643662919581,649.4688796075416 1032.4940291932528,629.3373671704409 998.7676872870555,608.2690414479478 959.0116782001928,586.5605022867991 914.8484688540702,565.0589616364302 868.3718368862375,544.6257017121566 821.7267641413514,525.9749633442302 777.1029910748848,509.6718764265049 736.4176056696233,496.05310086402346 700.3653328769065,485.0361663314567 669.3288868750205,476.42735281718694 643.6860240080105,470.0100714512407 623.8085936101844,465.54495940568665 609.8129527034059,462.7306268677007 600.807912810503,461.120438333185 595.6326684102742,460.30196809977326 593.1075369437506,459.94581883915737 592.0376105935859,459.8062791586135 591.411408574924,459.73548755877994 590.9911730946362,459.6974969538909 590.732935008704,459.6798899325031 590.5922635437543,459.67336612890415 590.5244029093479,459.6717556627575 590.5,459.6717556627575 590.5,459.6717556627575 590.5,459.6717556627575 590.5,459.6717556627575 590.5,459.6717556627575 590.5057841711061,459.67114772187665 590.5071738003606,459.67087483083014 590.5056755241667,459.67095801985374 590.5027885255021,459.67131400370647 590.5,459.6717556627575 590.5,459.6717556627575 590.5,459.6717556627575 590.5,459.6717556627575 590.5,459.6717556627575 590.5,459.6717556627575 590.5004013962628,459.6716405642312 590.5004962491745,459.6716039441593 590.5003913491837,459.6716285056997 590.5001916591967,459.6716896692036 590.5,459.6717556627575 590.5,459.6717556627575 590.5,459.6717556627575 590.5,459.6717556627575 590.5,459.6717556627575 590.5,459.6717556627575 590.5000269461534,459.6717425202403 590.5000331962686,459.67173874841376 590.5000260854263,459.6717417928903 590.5000127286914,459.6717486071285 590.5,459.6717556627575 590.5,459.6717556627575 590.5,459.6717556627575 590.5,459.6717556627575 590.5,459.6717556627575 590.5,459.6717556627575 590.5000017414025,459.67175439755454 590.5000021362983,459.6717540529413 590.5000016714757,459.6717543568576 590.5000008120298,459.67175500518874 590.5,459.6717556627575 590.5,459.6717556627575 590.5,459.6717556627575 590.5,459.6717556627575 590.5,459.6717556627575 590.5,459.6717556627575 590.5000001073538,459.6717555515894 590.500000130979,459.6717555222998 590.5000001019022,459.6717555495835 590.5000000492172,459.6717556061395 590.5,459.6717556627575 590.5,459.6717556627575 590.5,459.6717556627575 590.5,459.6717556627575 590.5,459.6717556627575 590.5,459.6717556627575 590.5000000062046,459.67175565355876 590.5000000075098,459.6717556511933 590.500000005794,459.671755653485 590.5000000027741,459.6717556581407 590.5,459.6717556627575 590.5,459.6717556627575 590.5,459.6717556627575 590.5,459.6717556627575 590.5,459.6717556627575 590.5,459.6717556627575 590.500000000324,459.6717556620298 590.5000000003868,459.6717556618461 590.500000000294,459.6717556620297 590.5000000001386,459.67175566239644 590.5,459.6717556627575 590.5,459.6717556627575 590.5,459.6717556627575 590.5,459.6717556627575 590.5,459.6717556627575 590.5,459.6717556627575 590.5000000000139,459.671755662702 590.500000000016,459.67175566268816 590.5000000000117,459.67175566270225 590.5000000000053,459.6717556627301 590.5,459.6717556627575 590.5,459.6717556627575 590.5,459.6717556627575 590.5,459.6717556627575 590.5,459.6717556627575 590.5,459.6717556627575 590.5000000000003,459.67175566275296 590.5000000000003,459.67175566275125 590.5000000000002,459.67175566275205 590.5,459.67175566275444 590.5,459.6717556627575" stroke="black" stroke-width="9.0" /><polyline fill="none" points="590.5,767.685277452674 585.1091859238637,768.5112872431549 579.6873255154926,769.3062408668319 574.2294291836088,770.1327413976813 568.7260998927103,771.0530342040919 563.1635495298207,772.1288143087522 557.5262029817086,773.3964779343393 551.8078962914636,774.7936522921989 546.0101398956707,776.2335592022113 540.1403765439437,777.6299045368979 534.211952656376,778.8971352244331 528.2387570416136,779.9780831636275 522.2153858933785,780.9256072028854 516.1264258143024,781.8190979323895 509.9508690431284,782.7366743174601 503.6621726292221,783.7549394293958 497.23473974483665,784.9263713851957 490.6663517297201,786.2129055204271 483.96440711576844,787.5545960057622 477.1402539000744,788.8923633767307 470.20914505846696,790.168163381511 463.1859320174957,791.3362419456624 456.07069703915647,792.3959561350576 448.85879660519845,793.3575197785243 441.54474544673434,794.2307350556556 434.12223528305856,795.0249543120541 426.5688494723105,795.7804233441931 418.79580539781574,796.660211828305 410.68638913171446,797.8519724522288 402.11047996428744,799.5354463998456 392.9248948279325,801.8818761315428 383.0141942615476,804.9861250322291 372.421738431321,808.6699276843606 361.2447851753114,812.6938287430811 349.5960649596373,816.8265269147279 337.6034004557516,820.8455302137344 325.4044850788303,824.5444295982517 313.13108224016275,827.7527416544068 300.9214649344398,830.3153784826513 288.924624539452,832.0863292999785 277.29987891296764,832.9291251691699 266.1814683015477,832.7575484049627 255.56756521210934,831.6519093604013 245.41535532266474,829.7297309247175 235.674818301527,827.103987407773 226.28894920012905,823.8828064626285 217.18829586687608,820.1746778482149 208.27335728551006,816.1038663177693 199.43063281606052,811.7921954761736 190.53848850364957,807.3529932434672 181.46753704475213,802.8907444680405 172.07263628694557,798.5075538494692 162.1671737002006,794.322036211789 151.54708829561721,790.4465000820093 139.99960452303768,786.9794518600046 127.30382939718848,784.0052059887171 113.41944423328684,781.4666537473236 99.06905451603063,778.8107431922789 85.20361422999987,775.4159807609831 72.81601873793821,770.7276731045321 62.93817203424969,764.2597190529548 57.70272932296172,755.0061053883707 53.681818181818166,745.1030460228512 54.658820213670495,732.6964736510121 59.4904236972744,718.6624308661472 68.25645202100489,703.1979215074001 81.09843338659611,686.4719454601519 98.42958515375213,668.5432545668026 120.73563370804179,649.4688796075417 148.50597080674714,629.3373671704411 182.23231271294443,608.2690414479476 221.9883217998071,586.5605022867991 266.1515311459298,565.0589616364302 312.62816311376247,544.6257017121567 359.2732358586484,525.9749633442302 403.8970089251151,509.6718764265049 444.5823943303766,496.05310086402346 480.6346671230935,485.0361663314568 511.6711131249794,476.42735281718694 537.3139759919894,470.0100714512407 557.1914063898156,465.54495940568665 571.187047296594,462.7306268677007 580.1920871894969,461.120438333185 585.3673315897257,460.30196809977326 587.8924630562494,459.94581883915737 588.9623894064141,459.8062791586135 589.588591425076,459.73548755877994 590.0088269053638,459.6974969538909 590.267064991296,459.6798899325031 590.4077364562457,459.67336612890415 590.4755970906521,459.6717556627575 590.5,459.6717556627575 590.5,459.6717556627575 590.5,459.6717556627575 590.5,459.6717556627575 590.5,459.6717556627575 590.4942158288937,459.67114772187665 590.4928261996392,459.67087483083014 590.4943244758333,459.67095801985374 590.4972114744979,459.67131400370647 590.5,459.6717556627575 590.5,459.6717556627575 590.5,459.6717556627575 590.5,459.6717556627575 590.5,459.6717556627575 590.5,459.6717556627575 590.4995986037372,459.6716405642312 590.4995037508255,459.6716039441593 590.4996086508162,459.6716285056997 590.4998083408032,459.6716896692036 590.5,459.6717556627575 590.5,459.6717556627575 590.5,459.6717556627575 590.5,459.6717556627575 590.5,459.6717556627575 590.5,459.6717556627575 590.4999730538465,459.6717425202403 590.4999668037314,459.67173874841376 590.4999739145736,459.6717417928903 590.4999872713084,459.6717486071285 590.5,459.6717556627575 590.5,459.6717556627575 590.5,459.6717556627575 590.5,459.6717556627575 590.5,459.6717556627575 590.5,459.6717556627575 590.4999982585975,459.67175439755454 590.4999978637017,459.6717540529413 590.4999983285243,459.6717543568576 590.4999991879702,459.67175500518874 590.5,459.6717556627575 590.5,459.6717556627575 590.5,459.6717556627575 590.5,459.6717556627575 590.5,459.6717556627575 590.5,459.6717556627575 590.4999998926461,459.6717555515894 590.499999869021,459.6717555222998 590.4999998980977,459.6717555495835 590.4999999507828,459.6717556061395 590.5,459.6717556627575 590.5,459.6717556627575 590.5,459.6717556627575 590.5,459.6717556627575 590.5,459.6717556627575 590.5,459.6717556627575 590.4999999937954,459.67175565355876 590.4999999924901,459.6717556511933 590.4999999942058,459.671755653485 590.4999999972259,459.6717556581407 590.5,459.6717556627575 590.5,459.6717556627575 590.5,459.6717556627575 590.5,459.6717556627575 590.5,459.6717556627575 590.5,459.6717556627575 590.4999999996759,459.6717556620298 590.4999999996131,459.6717556618461 590.4999999997059,459.6717556620297 590.4999999998614,459.67175566239644 590.5,459.6717556627575 590.5,459.6717556627575 590.5,459.6717556627575 590.5,459.6717556627575 590.5,459.6717556627575 590.5,459.6717556627575 590.4999999999861,459.671755662702 590.499999999984,459.67175566268816 590.4999999999883,459.67175566270225 590.4999999999947,459.6717556627301 590.5,459.6717556627575 590.5,459.6717556627575 590.5,459.6717556627575 590.5,459.6717556627575 590.5,459.6717556627575 590.5,459.6717556627575 590.4999999999997,459.67175566275296 590.4999999999997,459.67175566275125 590.4999999999998,459.67175566275205 590.4999999999999,459.67175566275444 590.5,459.6717556627575" stroke="black" stroke-width="9.0" /><polyline fill="none" points="590.5,767.685277452674 595.9480658536503,771.79123938024 601.5432587353052,775.9093098757272 607.2952972191416,780.1451176122201 613.2214518498423,784.6036554353008 619.3465165896711,789.3889490351706 625.6978337645713,794.5567740980292 632.2838881582002,799.9742159308853 639.0976343046409,805.4618913735004 646.1198352092024,810.8415744608354 653.3191261811344,815.936723898096 660.6533757034601,820.5795863718666 668.0745388730383,824.6312669737604 675.526532959181,827.9621318494767 682.944298079186,830.4455838128605 690.2539199573836,831.9584531978717 697.383341329869,832.4182640225207 704.2993730944694,831.8927331306564 710.7851144400262,829.8712721420674 717.2276668589657,827.7156242570435 723.6316168029414,825.4478666443247 729.5938930266137,822.0237353520782 735.3332576864499,818.1466476999441 740.8747941265286,813.9325701659997 746.2513067741291,809.4949182610882 751.5031968527688,804.9442255376829 756.6420956903014,800.3135327046178 761.5316973942843,795.3403617431576 765.9785292839749,789.6988697871808 769.7661083457402,783.076376020134 772.6555168278269,775.1743656875213 774.4544698167803,765.8234054654926 775.2391548351382,755.3162040112901 775.1766513814445,744.0488607596438 774.4598802590991,732.4034939071752 773.3069536389005,720.7471421207514 771.9176840290099,709.3717760140388 770.3362761834745,698.3225547115352 768.565033401237,687.5846051508519 766.605101838,677.1434451738193 764.4564953601038,666.985033963259 762.1013082283771,657.0764792864771 759.4506216154913,647.3104304170936 756.3904262405089,637.5674580557368 752.7981020448901,627.7363602009167 748.5427826918093,617.7145383545668 743.5310407830877,607.452113944029 737.8492546125807,597.0771585201285 731.6383026228735,586.7532541497253 725.0493692225592,576.6337379094668 718.2434884820989,566.8612697333858 711.3630442250919,557.544719079579 704.4440632961921,548.6946145418441 697.4945510413878,540.2979329389256 690.5217252736225,532.3417927985129 683.5320315895642,524.8134854767342 676.5433544752274,517.7087310739903 669.622752530748,511.05467195091285 662.8517747190635,504.88216224094833 656.3143513185971,499.2170075369471 650.0965811688549,494.0798578433771 644.2747089197335,489.47956355620363 638.8785869570472,485.39510663827457 633.9253948870448,481.7980995120521 629.4312035001452,478.65977232186765 625.4109690739243,475.9510078955408 621.8527100049747,473.6308815191321 618.638473624965,471.61582908313335 615.6192497226873,469.8205913240257 612.6408493915626,468.17083144931416 609.5443897041058,466.60334664481763 606.2285697036068,465.08753652926055 602.8384164370268,463.68075018347133 599.5849915084175,462.4493163076721 596.6837545523445,461.44491874730727 594.3539239614405,460.70441147591634 592.7540719961547,460.23375893182344 591.7880537456894,459.9691263010974 591.2924076778503,459.8401871142023 591.100035960112,459.78839083817786 591.0407239222432,459.7670998793635 590.973125525844,459.7466913843716 590.8803333595972,459.72520803058046 590.77691534594,459.70575659191604 590.677601687872,459.69042235234326 590.5972401956417,459.6802630775152 590.5469402851986,459.6750380472532 590.5225619881514,459.67293808645263 590.5160786843459,459.6723171427873 590.5194012756451,459.67209431328354 590.5244029093479,459.6717556627575 590.5246248053836,459.6713258351807 590.5203380756885,459.67104544150436 590.5135007466887,459.67104811860474 590.5060707538756,459.67133115429283 590.5,459.6717556627575 590.5,459.6717556627575 590.5,459.6717556627575 590.5,459.6717556627575 590.5,459.6717556627575 590.5,459.6717556627575 590.5008551947434,459.6715894297389 590.501058996767,459.67153056604593 590.500836505495,459.671562540247 590.5004103462563,459.671653351945 590.5,459.6717556627575 590.5,459.6717556627575 590.5,459.6717556627575 590.5,459.6717556627575 590.5,459.6717556627575 590.5,459.6717556627575 590.5000583949228,459.67173324704675 590.5000720710759,459.67172654415265 590.5000567382391,459.6717315788038 590.5000277384011,459.6717433128256 590.5,459.6717556627575 590.5,459.6717556627575 590.5,459.6717556627575 590.5,459.6717556627575 590.5,459.6717556627575 590.5,459.6717556627575 590.5000038494072,459.6717533498004 590.5000047328259,459.6717527053596 590.500003711471,459.6717532525 590.5000018073006,459.6717544437179 590.5,459.6717556627575 590.5,459.6717556627575 590.5,459.6717556627575 590.5,459.6717556627575 590.5,459.6717556627575 590.5,459.6717556627575 590.5000002433397,459.6717554512255 590.5000002977682,459.67175539464574 590.5000002323737,459.6717554460655 590.5000001125887,459.67175555403173 590.5,459.6717556627575 590.5,459.6717556627575 590.5,459.6717556627575 590.5,459.6717556627575 590.5,459.6717556627575 590.5,459.6717556627575 590.5000000145683,459.671755644767 590.5000000177113,459.6717556400879 590.5000000137286,459.67175564453896 590.5000000066051,459.6717556536663 590.5,459.6717556627575 590.5,459.6717556627575 590.5,459.6717556627575 590.5,459.6717556627575 590.5,459.6717556627575 590.5,459.6717556627575 590.5000000008058,459.6717556613039 590.5000000009696,459.67175566093385 590.5000000007435,459.6717556612982 590.5000000003536,459.6717556620323 590.5,459.6717556627575 590.5,459.6717556627575 590.5,459.6717556627575 590.5,459.6717556627575 590.5,459.6717556627575 590.5,459.6717556627575 590.5000000000388,459.6717556626447 590.5000000000458,459.6717556626164 590.5000000000343,459.67175566264496 590.5000000000159,459.6717556627019 590.5,459.6717556627575 590.5,459.6717556627575 590.5,459.6717556627575 590.5,459.6717556627575 590.5,459.6717556627575 590.5,459.6717556627575 590.5000000000014,459.67175566274886 590.5000000000015,459.6717556627468 590.500000000001,459.67175566274886 590.5000000000005,459.6717556627532 590.5,459.6717556627575 590.5,459.6717556627575 590.5,459.6717556627575 590.5,459.6717556627575 590.5,459.6717556627575 590.5,459.6717556627575" stroke="black" stroke-dasharray="8.0,8.0" stroke-width="7.0" /><polyline fill="none" points="590.5,767.685277452674 585.2107475522404,762.6928254503008 580.0926863044289,757.6982266438889 575.1381707746518,752.7929188851655 570.3333817188467,748.0678332280376 565.6583489075163,743.6131269367961 561.0955365066794,739.4365379190916 556.6668960687224,735.2202748127521 552.4280405811724,730.5678229833237 548.4623880341718,725.0867918853274 544.8809704945864,718.390128325413 541.7962523881853,710.2308160319232 539.2254031127245,700.8997680300037 537.1354962717854,690.8188161046656 535.4649839162273,680.4051488483914 534.1239401329868,670.0700754169951 533.0162613404193,660.1413761501552 532.1163801487893,650.6359715296725 531.4223299515821,641.4941281854449 530.936475753986,632.6567906907391 530.6654717033234,624.0657710615949 530.618263240742,615.6690132691733 530.7994787144277,607.4357310387774 531.2139941277338,599.3408328571767 531.8686739000049,591.3598701861166 532.7723380595476,583.469126198894 533.9327893661759,575.651724932712 535.3471262852302,567.9153650241637 537.0090718211809,560.2735599446025 538.9117110086595,552.7394926158787 541.0475042063646,545.3259909384202 543.4085653964205,538.0450640679461 545.987530744497,530.9065971852172 548.7768863038399,523.9197166247268 551.768730646907,517.0932238666069 554.9547866646768,510.4355812368224 558.3216870400869,503.9614038520451 561.8359040102531,497.71029581238145 565.4564031701018,491.72609786520275 569.1392444007829,486.0500920136708 572.8376903719137,480.72087661554065 576.4884410330641,475.79021043423484 579.967903509169,471.36883383286306 583.1301933875965,467.5749056728321 585.8208361731465,464.5171716486566 587.8771696725455,462.2945859902119 589.1846691826381,460.9419558682415 589.8525747418557,460.2754894831237 590.0592082654483,460.06864632324084 589.9973792972588,460.10867717380233 589.873760611085,460.19723290302466 589.8630092877759,460.18758057081004 589.9663410919243,460.0886956970943 590.1380711313212,459.9444886275994 590.3296881491272,459.7954944654398 590.4900051534605,459.6787541296477 590.5,459.6717556627575 590.5,459.6717556627575 590.5,459.6717556627575 590.5,459.6717556627575 590.4894332302891,459.67785639009446 590.4640584359568,459.69167839703005 590.4571592091506,459.69453451531194 590.4630230327945,459.6905963685939 590.4756840428652,459.6836153474742 590.4889417266157,459.6769122203226 590.4976775226712,459.67278969628524 590.5,459.6717556627575 590.5,459.6717556627575 590.5,459.6717556627575 590.5,459.6717556627575 590.4989084516923,459.6721315129811 590.4985051102292,459.67224138188783 590.4986497224055,459.67216848404667 590.4991975847641,459.6719857516239 590.5,459.6717556627575 590.5,459.6717556627575 590.5,459.6717556627575 590.5,459.6717556627575 590.5,459.6717556627575 590.5,459.6717556627575 590.4974371806686,459.67216157346286 590.4942616569425,459.6725621342806 590.4911489977299,459.6728424291848 590.4887812703432,459.6729347987588 590.4878449755447,459.67281908960217 590.4887998438934,459.67253885396724 590.4911874068418,459.6722175111946 590.4943147679804,459.6719541954344 590.4974851476005,459.67179955966935 590.5,459.6717556627575 590.5,459.6717556627575 590.5,459.6717556627575 590.5,459.6717556627575 590.5,459.6717556627575 590.5,459.6717556627575 590.4996443849983,459.6717182861147 590.4995589495918,459.6717015085767 590.4996510646904,459.67170662309775 590.4998285594456,459.67172850924123 590.5,459.6717556627575 590.5,459.6717556627575 590.5,459.6717556627575 590.5,459.6717556627575 590.5,459.6717556627575 590.5,459.6717556627575 590.4999753218689,459.67174858641727 590.4999694902436,459.6717463349888 590.4999759395705,459.67174784505005 590.4999882166546,459.6717516054264 590.5,459.6717556627575 590.5,459.6717556627575 590.5,459.6717556627575 590.5,459.6717556627575 590.5,459.6717556627575 590.5,459.6717556627575 590.4999983433311,459.67175485474604 590.4999979590694,459.6717546228515 590.4999983962492,459.6717548100281 590.4999992174309,459.6717552289723 590.5,459.6717556627575 590.5,459.6717556627575 590.5,459.6717556627575 590.5,459.6717556627575 590.5,459.6717556627575 590.5,459.6717556627575 590.4999998929372,459.67175558497195 590.4999998686587,459.6717555637848 590.4999998972364,459.6717555824698 590.4999999500758,459.67175562232967 590.5,459.6717556627575 590.5,459.6717556627575 590.5,459.6717556627575 590.5,459.6717556627575 590.5,459.6717556627575 590.5,459.6717556627575 590.4999999933998,459.67175565592277 590.4999999919473,459.6717556541221 590.499999993735,459.6717556557994 590.499999996974,459.6717556592765 590.5,459.6717556627575 590.5,459.6717556627575 590.5,459.6717556627575 590.5,459.6717556627575 590.5,459.6717556627575 590.5,459.6717556627575 590.4999999996185,459.6717556621919 590.4999999995382,459.6717556620466 590.4999999996437,459.67175566218737 590.4999999998295,459.67175566247363 590.5,459.6717556627575 590.5,459.6717556627575 590.5,459.6717556627575 590.5,459.6717556627575 590.5,459.6717556627575 590.5,459.6717556627575 590.4999999999801,459.6717556627127 590.4999999999761,459.67175566270146 590.4999999999819,459.6717556627127 590.4999999999915,459.67175566273534 590.5,459.6717556627575 590.5,459.6717556627575 590.5,459.6717556627575 590.5,459.6717556627575 590.5,459.6717556627575 590.5,459.6717556627575 590.4999999999991,459.671755662754 590.499999999999,459.6717556627532 590.4999999999993,459.6717556627542 590.4999999999997,459.6717556627558 590.5,459.6717556627575 590.5,459.6717556627575 590.5,459.6717556627575 590.5,459.6717556627575 590.5,459.6717556627575 590.5,459.6717556627575 590.5,459.67175566275716 590.5,459.67175566275705 590.5,459.67175566275716 590.5,459.6717556627574 590.5,459.6717556627575" stroke="black" stroke-dasharray="8.0,8.0" stroke-width="7.0" /></g><rect fill="white" height="111.60000000000001" stroke="none" width="1181" x="0" y="0" /><line stroke="black" stroke-width="3.0" x1="0" x2="1181" y1="111.60000000000001" y2="111.60000000000001" /><text font-family="Arial" font-size="62.0" text-anchor="start" x="40.0" y="77.5">LED</text><text font-family="Arial" font-size="62.0" text-anchor="middle" x="590.5" y="77.5" /><text font-family="Arial" font-size="62.0" text-anchor="end" x="1141.0" y="77.5">cd / klm</text><rect fill="none" height="1178.0" stroke="black" stroke-width="3.0" width="1178.0" x="1.5" y="1.5" /></svg>