<?xml version="1.0" encoding="utf-8" ?>
<svg baseProfile="full" height="1181" version="1.1" width="1181" xmlns="http://www.w3.org/2000/svg" xmlns:ev="http://www.w3.org/2001/xml-events" xmlns:xlink="http://www.w3.org/1999/xlink"><defs><clipPath id="plot_clip"><rect height="1069.4" width="1181.0" x="0" y="111.60000000000001" /></clipPath></defs><g clip-path="url(#plot_clip)" id="grid"><circle cx="590.5000000000001" cy="160.20957572715645" fill="none" r="208.1198897581167" stroke="black" stroke-width="3.0" /><text font-family="Arial" font-size="42.0" text-anchor="start" x="598.5000000000001" y="408.3294654852732">80</text><circle cx="590.5000000000001" cy="160.20957572715645" fill="none" r="416.2397795162334" stroke="black" stroke-width="3.0" /><text font-family="Arial" font-size="42.0" text-anchor="start" x="598.5000000000001" y="616.4493552433898">160</text><circle cx="590.5000000000001" cy="160.20957572715645" fill="none" r="624.35966927435" stroke="black" stroke-width="3.0" /><text font-family="Arial" font-size="42.0" text-anchor="start" x="598.5000000000001" y="824.5692450015066">240</text><circle cx="590.5000000000001" cy="160.20957572715645" fill="none" r="832.4795590324668" stroke="black" stroke-width="3.0" /><text font-family="Arial" font-size="42.0" text-anchor="start" x="598.5000000000001" y="1032.6891347596234">320</text><circle cx="590.5000000000001" cy="160.20957572715645" fill="none" r="1040.5994487905834" stroke="black" stroke-width="3.0" /><text font-family="Arial" font-size="42.0" text-anchor="start" x="598.5000000000002" y="1240.8090245177398">400</text><line stroke="black" stroke-width="3.0" x1="-4287.830215930256" x2="5468.830215930256" y1="160.20957572715622" y2="160.20957572715668" /><line stroke="black" stroke-width="3.0" x1="-3634.257895044827" x2="4815.257895044827" y1="-2278.9555322379724" y2="2599.3746836922855" /><line stroke="black" stroke-width="3.0" x1="-1848.6651079651274" x2="3029.6651079651274" y1="-4064.548319317672" y2="4384.967470771985" /><line stroke="black" stroke-width="3.0" x1="590.5000000000001" x2="590.5000000000001" y1="-4718.120640203098" y2="5038.539791657411" /><line stroke="black" stroke-width="3.0" x1="3029.6651079651274" x2="-1848.6651079651272" y1="-4064.548319317672" y2="4384.967470771985" /><line stroke="black" stroke-width="3.0" x1="4815.257895044827" x2="-3634.257895044827" y1="-2278.9555322379724" y2="2599.3746836922855" /><line stroke="black" stroke-width="3.0" x1="5468.830215930256" x2="-4287.830215930256" y1="160.20957572715622" y2="160.20957572715668" /></g><g clip-path="url(#plot_clip)" id="curves"><polyline fill="none" points="590.5000000000002,1125.2354895493238 607.2916876290344,1122.2047157102324 623.9854255053353,1119.1067017841362 640.5996355400858,1116.1675694728985 657.1684034079307,1113.6121627318043 673.7414205093253,1111.6633659048925 690.3735441804913,1110.442874395249 707.0798714353093,1109.6764352250545 723.8427262125882,1108.9923725203735 740.6186711510861,1108.0215630883297 757.3386461798815,1106.3985566167496 773.9190081636355,1103.8185707806772 790.3021222136568,1100.2046558312204 806.437563520299,1095.537922467032 822.2732714530704,1089.8013937743585 837.7556116530167,1082.9800808727327 852.8344331199436,1075.0784669064644 867.480537241474,1066.172091232576 881.6749707021052,1056.3539894945116 895.4046141804331,1045.7168728835204 908.66214422362,1034.3528827068164 921.4315451578317,1022.3157251800466 933.639494441987,1009.509627308432 945.1895869399006,995.8058782525706 955.9756711421431,981.081373079733 965.8820810642986,965.2190464048243 974.7884899507801,948.1177429479478 982.5853051836232,929.720314734728 989.1623840849506,909.9844722137876 994.4049609534916,888.8734138782949 998.1938565430407,866.3560491934002 1000.4770477006973,842.5259644500661 1001.5004418313669,817.9477742410204 1001.6223125644129,793.2824206875234 1001.2449971577634,769.1640765251326 1000.8136917443136,746.1982567307965 1000.574297083591,724.6284242829357 999.8034347187642,703.37357924214 997.4512373361521,681.0834066661838 992.3736695512703,656.4822275423269 983.3358271069566,628.3730839815897 969.375006630194,596.0554136401821 950.9404943632996,560.519299618258 928.9156913812004,523.1159741457253 904.2701530978447,485.1280808226828 878.0564733695251,447.7660490966815 851.3378145514008,412.0977252846535 824.9676068036476,378.8541562821513 799.7781538961057,348.64447187839585 776.6452055355123,322.02313420725284 756.4856061744925,299.48803664891034 739.9012887959655,281.19235393288534 726.0764808703044,266.13353152348805 713.769671304155,253.0999357932427 701.66103144327,240.97279252763315 688.3565722295701,228.72948526566427 672.8558681500276,215.75931020630208 655.989878685309,202.7392002229799 639.1066010664094,190.582351034039 623.6147224597976,180.10690836327626 610.9794418013853,172.03338696403955 602.3211751576804,166.76216011586723 597.1898778111591,163.76664685601258 594.7020702889781,162.35063747995525 593.9328322127475,161.8838798683919 593.9187497656405,161.80376492419032 593.8420300557926,161.6975433751586 593.5879274615762,161.52032316887767 593.2223329452671,161.30946963249949 592.8133812692437,161.09759959574365 592.4312411558643,160.91249002308086 592.1319345588844,160.77149585886207 591.9084692329014,160.6672151224642 591.7373467412544,160.5878705895608 591.5944032105245,160.5233907979341 591.4548847882886,160.46543633504314 591.2997846747581,160.40898444281845 591.1349126764012,160.35615686827987 590.9725071841787,160.3100102295898 590.8249957975686,160.2727485107564 590.70495808099,160.2457153667492 590.6216208101295,160.2288385711006 590.5703460425028,160.2194622186878 590.542896810401,160.21484279318565 590.5309087632554,160.21282436908143 590.5259159913431,160.21184308260308 590.5209272475046,160.21103910285717 590.5151160506255,160.21036792580117 590.5092064483387,160.20989722341676 590.5039252845347,160.2096442432529 590.5000000000001,160.20957572715645 590.5000000000001,160.20957572715645 590.5000000000001,160.20957572715645 590.5000000000001,160.20957572715645 590.5000000000001,160.20957572715645 590.5000000000001,160.20957572715645 590.5005468560164,160.20951825027316 590.5006782364864,160.2094924501872 590.50053658415,160.20950031517214 590.5002636370743,160.20953397114602 590.5000000000001,160.20957572715645 590.5000000000001,160.20957572715645 590.5000000000001,160.20957572715645 590.5000000000001,160.20957572715645 590.5000000000001,160.20957572715645 590.5000000000001,160.20957572715645 590.500037949424,160.20956484533428 590.5000469171541,160.20956138314295 590.5000369995375,160.20956370527801 590.5000181201392,160.20956948789228 590.5000000000001,160.20957572715645 590.5000000000001,160.20957572715645 590.5000000000001,160.20957572715645 590.5000000000001,160.20957572715645 590.5000000000001,160.20957572715645 590.5000000000001,160.20957572715645 590.5000025475848,160.20957448461638 590.5000031384928,160.20957412801454 590.5000024662087,160.20957441585017 590.5000012034156,160.20957506009233 590.5000000000001,160.20957572715645 590.5000000000001,160.20957572715645 590.5000000000001,160.20957572715645 590.5000000000001,160.20957572715645 590.5000000000001,160.20957572715645 590.5000000000001,160.20957572715645 590.5000001646384,160.2095756075397 590.5000002019733,160.20957557495876 590.5000001580273,160.20957560369197 590.5000000767723,160.2095756649876 590.5000000000001,160.20957572715645 590.5000000000001,160.20957572715645 590.5000000000001,160.20957572715645 590.5000000000001,160.20957572715645 590.5000000000001,160.20957572715645 590.5000000000001,160.20957572715645 590.5000000101497,160.2095757166462 590.5000000123833,160.20957571387714 590.5000000096343,160.20957571645658 590.5000000046533,160.20957572180362 590.5000000000001,160.20957572715645 590.5000000000001,160.20957572715645 590.5000000000001,160.20957572715645 590.5000000000001,160.20957572715645 590.5000000000001,160.20957572715645 590.5000000000001,160.20957572715645 590.5000000005867,160.20957572628674 590.5000000007101,160.20957572606324 590.5000000005479,160.2095757262798 590.5000000002624,160.2095757267199 590.5000000000001,160.20957572715645 590.5000000000001,160.20957572715645 590.5000000000001,160.20957572715645 590.5000000000001,160.20957572715645 590.5000000000001,160.20957572715645 590.5000000000001,160.20957572715645 590.5000000000307,160.20957572708767 590.5000000000367,160.20957572707027 590.5000000000279,160.20957572708767 590.5000000000132,160.20957572712234 590.5000000000001,160.20957572715645 590.5000000000001,160.20957572715645 590.5000000000001,160.20957572715645 590.5000000000001,160.20957572715645 590.5000000000001,160.20957572715645 590.5000000000001,160.20957572715645 590.5000000000014,160.2095757271511 590.5000000000016,160.20957572714997 590.5000000000011,160.20957572715133 590.5000000000006,160.20957572715395 590.5000000000001,160.20957572715645 590.5000000000001,160.20957572715645 590.5000000000001,160.20957572715645 590.5000000000001,160.20957572715645 590.5000000000001,160.20957572715645 590.5000000000001,160.20957572715645 590.5000000000001,160.209575727156 590.5000000000001,160.20957572715588 590.5000000000001,160.209575727156 590.5000000000001,160.20957572715622 590.5000000000001,160.20957572715645" stroke="black" stroke-width="9.0" /><polyline fill="none" points="590.5000000000002,1125.2354895493238 573.7083123709656,1122.2047157102324 557.014574494665,1119.1067017841362 540.4003644599146,1116.1675694728985 523.8315965920697,1113.6121627318043 507.25857949067523,1111.6633659048925 490.62645581950903,1110.442874395249 473.92012856469097,1109.6764352250548 457.15727378741184,1108.9923725203732 440.3813288489144,1108.0215630883297 423.6613538201185,1106.3985566167496 407.08099183636494,1103.8185707806772 390.6978777863431,1100.2046558312202 374.5624364797015,1095.5379224670323 358.72672854692996,1089.8013937743585 343.2443883469837,1082.9800808727327 328.1655668800567,1075.0784669064644 313.519462758526,1066.172091232576 299.3250292978953,1056.3539894945116 285.5953858195669,1045.7168728835202 272.3378557763805,1034.3528827068164 259.56845484216836,1022.3157251800466 247.36050555801327,1009.5096273084322 235.81041306009988,995.8058782525706 225.02432885785723,981.0813730797332 215.11791893570188,965.2190464048246 206.2115100492199,948.1177429479477 198.41469481637716,929.7203147347282 191.83761591504935,909.9844722137874 186.59503904650865,888.873413878295 182.8061434569593,866.3560491934002 180.52295229930303,842.5259644500662 179.49955816863343,817.9477742410205 179.37768743558738,793.2824206875235 179.75500284223705,769.1640765251326 180.18630825568638,746.1982567307965 180.42570291640936,724.6284242829357 181.19656528123596,703.37357924214 183.5487626638482,681.0834066661838 188.62633044872976,656.4822275423269 197.66417289304366,628.3730839815898 211.62499336980633,596.0554136401821 230.05950563670058,560.5192996182581 252.08430861879975,523.1159741457254 276.7298469021554,485.1280808226826 302.9435266304751,447.7660490966815 329.66218544859936,412.0977252846534 356.0323931963525,378.8541562821514 381.22184610389434,348.64447187839585 404.3547944644878,322.02313420725284 424.5143938255077,299.48803664891034 441.09871120403477,281.19235393288545 454.92351912969576,266.13353152348805 467.2303286958452,253.0999357932427 479.3389685567302,240.97279252763315 492.64342777043015,228.72948526566438 508.1441318499725,215.75931020630208 525.0101213146912,202.7392002229799 541.8933989335908,190.582351034039 557.3852775402027,180.10690836327626 570.0205581986149,172.03338696403955 578.6788248423198,166.76216011586723 583.810122188841,163.76664685601258 586.2979297110221,162.35063747995525 587.0671677872527,161.8838798683921 587.0812502343597,161.80376492419032 587.1579699442076,161.6975433751586 587.412072538424,161.52032316887767 587.777667054733,161.30946963249949 588.1866187307564,161.09759959574365 588.5687588441359,160.91249002308086 588.8680654411157,160.77149585886207 589.0915307670988,160.6672151224642 589.2626532587458,160.5878705895608 589.4055967894756,160.5233907979341 589.5451152117116,160.46543633504314 589.700215325242,160.40898444281845 589.8650873235989,160.35615686827987 590.0274928158215,160.3100102295898 590.1750042024315,160.2727485107564 590.2950419190103,160.2457153667492 590.3783791898707,160.2288385711006 590.4296539574973,160.2194622186878 590.4571031895991,160.21484279318565 590.4690912367448,160.21282436908143 590.474084008657,160.21184308260308 590.4790727524955,160.21103910285717 590.4848839493748,160.21036792580117 590.4907935516616,160.20989722341676 590.4960747154654,160.2096442432529 590.5000000000001,160.20957572715645 590.5000000000001,160.20957572715645 590.5000000000001,160.20957572715645 590.5000000000001,160.20957572715645 590.5000000000001,160.20957572715645 590.5000000000001,160.20957572715645 590.4994531439837,160.20951825027316 590.4993217635139,160.2094924501872 590.4994634158501,160.20950031517214 590.4997363629258,160.20953397114602 590.5000000000001,160.20957572715645 590.5000000000001,160.20957572715645 590.5000000000001,160.20957572715645 590.5000000000001,160.20957572715645 590.5000000000001,160.20957572715645 590.5000000000001,160.20957572715645 590.4999620505762,160.20956484533428 590.4999530828461,160.20956138314295 590.4999630004626,160.20956370527801 590.499981879861,160.20956948789228 590.5000000000001,160.20957572715645 590.5000000000001,160.20957572715645 590.5000000000001,160.20957572715645 590.5000000000001,160.20957572715645 590.5000000000001,160.20957572715645 590.5000000000001,160.20957572715645 590.4999974524153,160.20957448461638 590.4999968615073,160.20957412801454 590.4999975337915,160.20957441585017 590.4999987965845,160.20957506009233 590.5000000000001,160.20957572715645 590.5000000000001,160.20957572715645 590.5000000000001,160.20957572715645 590.5000000000001,160.20957572715645 590.5000000000001,160.20957572715645 590.5000000000001,160.20957572715645 590.4999998353617,160.2095756075397 590.4999997980269,160.20957557495876 590.4999998419728,160.20957560369197 590.499999923228,160.2095756649876 590.5000000000001,160.20957572715645 590.5000000000001,160.20957572715645 590.5000000000001,160.20957572715645 590.5000000000001,160.20957572715645 590.5000000000001,160.20957572715645 590.5000000000001,160.20957572715645 590.4999999898505,160.2095757166462 590.4999999876169,160.20957571387714 590.499999990366,160.20957571645658 590.4999999953469,160.20957572180362 590.5000000000001,160.20957572715645 590.5000000000001,160.20957572715645 590.5000000000001,160.20957572715645 590.5000000000001,160.20957572715645 590.5000000000001,160.20957572715645 590.5000000000001,160.20957572715645 590.4999999994135,160.20957572628674 590.49999999929,160.20957572606324 590.4999999994523,160.2095757262798 590.4999999997378,160.2095757267199 590.5000000000001,160.20957572715645 590.5000000000001,160.20957572715645 590.5000000000001,160.20957572715645 590.5000000000001,160.20957572715645 590.5000000000001,160.20957572715645 590.5000000000001,160.20957572715645 590.4999999999694,160.20957572708767 590.4999999999635,160.20957572707027 590.4999999999723,160.20957572708767 590.499999999987,160.20957572712234 590.5000000000001,160.20957572715645 590.5000000000001,160.20957572715645 590.5000000000001,160.20957572715645 590.5000000000001,160.20957572715645 590.5000000000001,160.20957572715645 590.5000000000001,160.20957572715645 590.4999999999987,160.2095757271511 590.4999999999986,160.20957572714997 590.499999999999,160.20957572715133 590.4999999999995,160.20957572715395 590.5000000000001,160.20957572715645 590.5000000000001,160.20957572715645 590.5000000000001,160.20957572715645 590.5000000000001,160.20957572715645 590.5000000000001,160.20957572715645 590.5000000000001,160.20957572715645 590.5000000000001,160.209575727156 590.5000000000001,160.20957572715588 590.5000000000001,160.209575727156 590.5000000000001,160.20957572715622 590.5000000000001,160.20957572715645" stroke="black" stroke-width="9.0" /><polyline fill="none" points="590.5000000000002,1125.2354895493238 607.3909996763379,1127.8942990897185 624.3688725684921,1130.0871890052813 641.4106581653913,1131.6428030431937 658.4815412731186,1132.3909090909092 675.5348986675491,1132.1629150572526 692.4848721566702,1130.5308182430115 709.3698125068951,1128.3265086116962 726.047783990148,1124.6821738669314 742.4974494538568,1119.8837024431866 758.6667779349148,1113.9307660931263 774.5090188500503,1106.8539126269384 790.0037678234579,1098.8010087837952 805.1471047413263,1089.9483313991543 819.9468921426325,1080.4707959918817 834.4226905765981,1070.5414500779214 848.5934906046598,1060.288542723164 862.4351869209602,1049.6694939255533 875.9067045372539,1038.6010916809037 888.9607716937423,1027.0025954396435 901.5440247712206,1014.7960102423684 913.6098725915924,1001.9395715101213 925.1614915993807,988.5258339294712 936.2216884776288,974.6788334437606 946.8212058612982,960.5201074135261 956.9985991939311,946.1683580556004 966.778597234377,931.6950291408682 976.1013117866421,916.9947611761871 984.8760506448375,901.9230514736676 993.0015228972352,886.3415446032428 1000.366107892391,870.1184988972851 1006.8708536276378,853.1670444684044 1012.5031674655514,835.5558159869712 1017.2779891373983,817.3900485270761 1021.2163040573944,798.7727566247146 1024.3450282735441,779.804488090995 1026.6923741394232,760.5768733400564 1028.2733244746314,741.1543990147676 1029.1015566448345,721.593968021571 1029.193673156967,701.9511452986121 1028.5691368432208,682.2800433647093 1027.1639924170422,662.5340371747161 1024.558423196211,642.2802926958942 1020.211980386469,621.0192578163458 1013.54783774174,598.2884358922826 1003.9544073345346,573.6639830616909 990.8063910020455,546.7809640013633 973.5272351123571,517.3882508710263 951.5371373585422,485.28887434650244 924.2357935801813,450.3216750209816 891.0038966868977,412.36228460446785 851.76584075352,371.77848198862625 808.737561285001,330.71544552300645 764.8497822630692,291.59156028603263 723.1941395230787,256.61751130774996 687.0140277934936,227.78942553114211 658.9053615005536,206.34957465696482 638.3639868576588,191.29281223322585 624.0234906621818,181.15737761097228 614.4307100673475,174.58859699199195 608.0505887384809,170.34241285975475 603.5066259788058,167.41926623606923 600.3103255415668,165.42581834527698 598.1893988599309,164.12752013760462 596.8578997657461,163.31053063774607 596.017154794206,162.78226725892137 595.4035328917311,162.39276922990894 594.9327281215137,162.0911571818432 594.5648838065683,161.8518953899827 594.2586561149297,161.65238862974388 593.9713448624397,161.4730419299574 593.6685336033601,161.3005893404295 593.3531916573204,161.13663389374733 593.0379894063219,160.98551695788603 592.7358731267846,160.85070202940403 592.4600266706976,160.73476329071343 592.2202950153498,160.6384934476347 592.0124131326637,160.55874381132912 591.8284011322828,160.49193610435293 591.6600946453399,160.43507528294674 591.4991706448255,160.38575647017103 591.3393856650289,160.3425213559285 591.1832847965586,160.30560514280432 591.0356541859305,160.27534579117173 590.9013083274896,160.2517549320229 590.7850759047737,160.2345166370685 590.6906378197958,160.22290642213056 590.6170598465866,160.21571057375922 590.5622139966939,160.21174828779408 590.523929574458,160.2099934194323 590.5000000000001,160.20957572715645 590.5000000000001,160.20957572715645 590.5000000000001,160.20957572715645 590.5000000000001,160.20957572715645 590.5000000000001,160.20957572715645 590.5000000000001,160.20957572715645 590.503183661446,160.20924111085492 590.5039485262814,160.20909090909083 590.5031238611624,160.20913669710114 590.50153483031,160.20933263391692 590.5000000000001,160.20957572715645 590.5000000000001,160.20957572715645 590.5000000000001,160.20957572715645 590.5000000000001,160.20957572715645 590.5000000000001,160.20957572715645 590.5000000000001,160.20957572715645 590.5002209322275,160.20951237585973 590.5002731401502,160.2094922198322 590.500215402222,160.20950573873188 590.5001054910003,160.20953940369213 590.5000000000001,160.20957572715645 590.5000000000001,160.20957572715645 590.5000000000001,160.20957572715645 590.5000000000001,160.20957572715645 590.5000000000001,160.20957572715645 590.5000000000001,160.20957572715645 590.500014831413,160.20956849339314 590.5000182715344,160.20956641734472 590.5000143576607,160.2095680930529 590.50000700599,160.20957184367285 590.5000000000001,160.20957572715645 590.5000000000001,160.20957572715645 590.5000000000001,160.20957572715645 590.5000000000001,160.20957572715645 590.5000000000001,160.20957572715645 590.5000000000001,160.20957572715645 590.5000009584841,160.20957503077705 590.5000011758385,160.20957484109874 590.5000009199958,160.209575008377 590.5000004469489,160.2095753652244 590.5000000000001,160.20957572715645 590.5000000000001,160.20957572715645 590.5000000000001,160.20957572715645 590.5000000000001,160.20957572715645 590.5000000000001,160.20957572715645 590.5000000000001,160.20957572715645 590.5000000590886,160.2095756659685 590.5000000720921,160.20957564984724 590.500000056088,160.20957566486447 590.5000000270898,160.2095756959934 590.5000000000001,160.20957572715645 590.5000000000001,160.20957572715645 590.5000000000001,160.20957572715645 590.5000000000001,160.20957572715645 590.5000000000001,160.20957572715645 590.5000000000001,160.20957572715645 590.5000000034152,160.2095757220934 590.5000000041335,160.20957572079146 590.5000000031893,160.2095757220527 590.5000000015269,160.20957572461532 590.5000000000001,160.20957572715645 590.5000000000001,160.20957572715645 590.5000000000001,160.20957572715645 590.5000000000001,160.20957572715645 590.5000000000001,160.20957572715645 590.5000000000001,160.20957572715645 590.5000000001784,160.20957572675582 590.500000000213,160.20957572665486 590.5000000001619,160.20957572675582 590.5000000000764,160.20957572695772 590.5000000000001,160.20957572715645 590.5000000000001,160.20957572715645 590.5000000000001,160.20957572715645 590.5000000000001,160.20957572715645 590.5000000000001,160.20957572715645 590.5000000000001,160.20957572715645 590.5000000000077,160.20957572712587 590.5000000000089,160.20957572711836 590.5000000000065,160.20957572712598 590.5000000000031,160.20957572714144 590.5000000000001,160.20957572715645 590.5000000000001,160.20957572715645 590.5000000000001,160.20957572715645 590.5000000000001,160.20957572715645 590.5000000000001,160.20957572715645 590.5000000000001,160.20957572715645 590.5000000000002,160.20957572715395 590.5000000000002,160.20957572715304 590.5000000000001,160.2095757271535 590.5000000000001,160.20957572715474 590.5000000000001,160.20957572715645" stroke="black" stroke-dasharray="8.0,8.0" stroke-width="7.0" /><polyline fill="none" points="590.5000000000002,1125.2354895493238 573.6090003236621,1127.8942990897185 556.6311274315083,1130.0871890052813 539.5893418346091,1131.6428030431937 522.5184587268818,1132.3909090909092 505.4651013324513,1132.1629150572526 488.5151278433301,1130.5308182430115 471.63018749310527,1128.3265086116965 454.95221600985184,1124.6821738669312 438.5025505461436,1119.8837024431868 422.3332220650853,1113.9307660931263 406.49098114995,1106.8539126269384 390.99623217654204,1098.801008783795 375.85289525867404,1089.9483313991545 361.053107857368,1080.4707959918817 346.57730942340237,1070.5414500779214 332.40650939534066,1060.288542723164 318.5648130790399,1049.6694939255533 305.09329546274654,1038.6010916809037 292.0392283062576,1027.0025954396433 279.4559752287798,1014.7960102423687 267.3901274084076,1001.9395715101213 255.83850840061965,988.5258339294712 244.77831152237152,974.6788334437606 234.1787941387021,960.5201074135261 224.00140080606926,946.1683580556006 214.22140276562314,931.6950291408682 204.89868821335816,916.9947611761872 196.12394935516258,901.9230514736674 187.9984771027652,886.3415446032428 180.63389210760892,870.1184988972851 174.12914637236258,853.1670444684045 168.4968325344488,835.5558159869714 163.72201086260208,817.3900485270763 159.78369594260604,798.7727566247147 156.6549717264558,779.804488090995 154.30762586057693,760.5768733400565 152.72667552536856,741.1543990147676 151.89844335516577,721.593968021571 151.80632684303308,701.951145298612 152.43086315677945,682.2800433647093 153.83600758295822,662.5340371747162 156.44157680378925,642.2802926958942 160.78801961353128,621.0192578163459 167.45216225826005,598.2884358922825 177.0455926654656,573.6639830616912 190.19360899795467,546.7809640013631 207.47276488764314,517.3882508710266 229.46286264145797,485.28887434650244 256.764206419819,450.3216750209816 289.9961033131025,412.36228460446785 329.2341592464802,371.7784819886265 372.26243871499923,330.71544552300645 416.150217736931,291.59156028603263 457.8058604769216,256.61751130774996 493.98597220650663,227.78942553114211 522.0946384994467,206.34957465696482 542.6360131423414,191.29281223322585 556.9765093378184,181.15737761097228 566.5692899326527,174.58859699199195 572.9494112615193,170.34241285975475 577.4933740211944,167.41926623606923 580.6896744584334,165.42581834527698 582.8106011400694,164.12752013760462 584.1421002342541,163.31053063774607 584.9828452057941,162.78226725892137 585.5964671082692,162.39276922990894 586.0672718784864,162.0911571818432 586.4351161934318,161.8518953899827 586.7413438850704,161.65238862974388 587.0286551375606,161.4730419299574 587.3314663966402,161.3005893404295 587.6468083426798,161.13663389374733 587.9620105936783,160.98551695788603 588.2641268732157,160.85070202940403 588.5399733293026,160.73476329071343 588.7797049846503,160.6384934476347 588.9875868673364,160.55874381132912 589.1715988677173,160.49193610435293 589.3399053546603,160.43507528294674 589.5008293551746,160.38575647017103 589.6606143349713,160.3425213559285 589.8167152034416,160.30560514280432 589.9643458140697,160.27534579117173 590.0986916725107,160.2517549320229 590.2149240952265,160.2345166370685 590.3093621802043,160.22290642213056 590.3829401534135,160.21571057375922 590.4377860033063,160.21174828779408 590.4760704255422,160.2099934194323 590.5000000000001,160.20957572715645 590.5000000000001,160.20957572715645 590.5000000000001,160.20957572715645 590.5000000000001,160.20957572715645 590.5000000000001,160.20957572715645 590.5000000000001,160.20957572715645 590.4968163385543,160.20924111085492 590.4960514737188,160.20909090909083 590.4968761388378,160.20913669710114 590.4984651696901,160.20933263391692 590.5000000000001,160.20957572715645 590.5000000000001,160.20957572715645 590.5000000000001,160.20957572715645 590.5000000000001,160.20957572715645 590.5000000000001,160.20957572715645 590.5000000000001,160.20957572715645 590.4997790677726,160.20951237585973 590.4997268598499,160.2094922198322 590.4997845977782,160.20950573873188 590.4998945089999,160.20953940369213 590.5000000000001,160.20957572715645 590.5000000000001,160.20957572715645 590.5000000000001,160.20957572715645 590.5000000000001,160.20957572715645 590.5000000000001,160.20957572715645 590.5000000000001,160.20957572715645 590.4999851685872,160.20956849339314 590.4999817284657,160.20956641734472 590.4999856423394,160.2095680930529 590.4999929940101,160.20957184367285 590.5000000000001,160.20957572715645 590.5000000000001,160.20957572715645 590.5000000000001,160.20957572715645 590.5000000000001,160.20957572715645 590.5000000000001,160.20957572715645 590.5000000000001,160.20957572715645 590.499999041516,160.20957503077705 590.4999988241616,160.20957484109874 590.4999990800044,160.209575008377 590.4999995530513,160.2095753652244 590.5000000000001,160.20957572715645 590.5000000000001,160.20957572715645 590.5000000000001,160.20957572715645 590.5000000000001,160.20957572715645 590.5000000000001,160.20957572715645 590.5000000000001,160.20957572715645 590.4999999409116,160.2095756659685 590.499999927908,160.20957564984724 590.4999999439121,160.20957566486447 590.4999999729105,160.2095756959934 590.5000000000001,160.20957572715645 590.5000000000001,160.20957572715645 590.5000000000001,160.20957572715645 590.5000000000001,160.20957572715645 590.5000000000001,160.20957572715645 590.5000000000001,160.20957572715645 590.499999996585,160.2095757220934 590.4999999958666,160.20957572079146 590.499999996811,160.2095757220527 590.4999999984733,160.20957572461532 590.5000000000001,160.20957572715645 590.5000000000001,160.20957572715645 590.5000000000001,160.20957572715645 590.5000000000001,160.20957572715645 590.5000000000001,160.20957572715645 590.5000000000001,160.20957572715645 590.4999999998217,160.20957572675582 590.4999999997872,160.20957572665486 590.4999999998382,160.20957572675582 590.4999999999238,160.20957572695772 590.5000000000001,160.20957572715645 590.5000000000001,160.20957572715645 590.5000000000001,160.20957572715645 590.5000000000001,160.20957572715645 590.5000000000001,160.20957572715645 590.5000000000001,160.20957572715645 590.4999999999925,160.20957572712587 590.4999999999912,160.20957572711836 590.4999999999936,160.20957572712598 590.4999999999972,160.20957572714144 590.5000000000001,160.20957572715645 590.5000000000001,160.20957572715645 590.5000000000001,160.20957572715645 590.5000000000001,160.20957572715645 590.5000000000001,160.20957572715645 590.5000000000001,160.20957572715645 590.4999999999999,160.20957572715395 590.4999999999999,160.20957572715304 590.5,160.2095757271535 590.5000000000001,160.20957572715474 590.5000000000001,160.20957572715645" stroke="black" stroke-dasharray="8.0,8.0" stroke-width="7.0" /></g><rect fill="white" height="111.60000000000001" stroke="none" width="1181" x="0" y="0" /><line stroke="black" stroke-width="3.0" x1="0" x2="1181" y1="111.60000000000001" y2="111.60000000000001" /><text font-family="Arial" font-size="62.0" text-anchor="start" x="40.0" y="77.5">LED</text><text font-family="Arial" font-size="62.0" text-anchor="middle" x="590.5" y="77.5" /><text font-family="Arial" font-size="62.0" text-anchor="end" x="1141.0" y="77.5">cd / klm</text><rect fill="none" height="1178.0" stroke="black" stroke-width="3.0" width="1178.0" x="1.5" y="1.5" /></svg>