<?xml version="1.0" encoding="utf-8" ?>
<svg baseProfile="full" height="1181" version="1.1" width="1181" xmlns="http://www.w3.org/2000/svg" xmlns:ev="http://www.w3.org/2001/xml-events" xmlns:xlink="http://www.w3.org/1999/xlink"><defs><clipPath id="plot_clip"><rect height="1069.4" width="1181.0" x="0" y="111.60000000000001" /></clipPath></defs><g clip-path="url(#plot_clip)" id="grid"><circle cx="590.5" cy="408.6821214866916" fill="none" r="122.70439205853997" stroke="black" stroke-width="3.0" /><text font-family="Arial" font-size="42.0" text-anchor="start" x="598.5" y="571.3865135452315">80</text><circle cx="590.5" cy="408.6821214866916" fill="none" r="245.40878411707993" stroke="black" stroke-width="3.0" /><text font-family="Arial" font-size="42.0" text-anchor="start" x="598.5" y="694.0909056037715">160</text><circle cx="590.5" cy="408.6821214866916" fill="none" r="368.1131761756199" stroke="black" stroke-width="3.0" /><text font-family="Arial" font-size="42.0" text-anchor="start" x="598.5000000000001" y="816.7952976623116">240</text><circle cx="590.5" cy="408.6821214866916" fill="none" r="490.81756823415986" stroke="black" stroke-width="3.0" /><text font-family="Arial" font-size="42.0" text-anchor="start" x="598.5000000000001" y="939.4996897208515">320</text><circle cx="590.5" cy="408.6821214866916" fill="none" r="613.5219602926999" stroke="black" stroke-width="3.0" /><text font-family="Arial" font-size="42.0" text-anchor="start" x="598.5000000000001" y="1062.2040817793913">400</text><circle cx="590.5" cy="408.6821214866916" fill="none" r="736.2263523512398" stroke="black" stroke-width="3.0" /><text font-family="Arial" font-size="42.0" text-anchor="start" x="598.5000000000001" y="1184.9084738379313">480</text><line stroke="black" stroke-width="3.0" x1="-2508.821217786128" x2="3689.821217786128" y1="408.68212148669136" y2="408.6821214866918" /><line stroke="black" stroke-width="3.0" x1="-2093.5909090909095" x2="3274.5909090909095" y1="-1140.9784874063726" y2="1958.3427303797557" /><line stroke="black" stroke-width="3.0" x1="-959.1606088930638" x2="2140.160608893064" y1="-2275.408787604218" y2="3092.7730305776013" /><line stroke="black" stroke-width="3.0" x1="590.5" x2="590.5" y1="-2690.639096299436" y2="3508.003339272819" /><line stroke="black" stroke-width="3.0" x1="2140.160608893064" x2="-959.1606088930639" y1="-2275.408787604218" y2="3092.7730305776013" /><line stroke="black" stroke-width="3.0" x1="3274.59090909091" x2="-2093.59090909091" y1="-1140.9784874063726" y2="1958.3427303797557" /><line stroke="black" stroke-width="3.0" x1="3689.821217786128" x2="-2508.821217786128" y1="408.68212148669136" y2="408.6821214866918" /></g><g clip-path="url(#plot_clip)" id="curves"><polyline fill="none" points="590.5000000000001,805.6768439430904 597.4522007218717,806.9734340920642 604.4536273577771,808.2617287194172 611.5140483954955,809.6540512836766 618.6511323414028,811.2620698496195 625.8904181432257,813.1964518803553 633.2636068939184,815.5506628525366 640.801296236035,818.3533038091355 648.534059814474,821.6159135576337 656.4935225429554,825.3488244010172 664.7123218430637,829.5611131468772 673.2137015214961,834.2072268248736 681.9729399494436,839.0284689753584 690.9354884826791,843.7160167713602 700.025647414747,847.9654998709286 709.146775774534,851.4779168314841 718.1970014158935,854.0144886596516 727.1234124917859,855.5571679816882 735.8889693179801,856.1433588435167 744.4589466584555,855.81136908769 752.8009491286159,854.6003143736169 760.8906542826159,852.5649516843564 768.7310918028252,849.8195536778969 776.3390426664141,846.4914698147846 783.7397209679841,842.7056409597731 790.9666495778141,838.5842388376785 798.0698791117846,834.263442025734 805.1432878596994,829.9432931763035 812.3034502739924,825.8337405221185 819.6815475470413,822.1365778885623 827.4230085037815,819.0448096973143 835.6423412054811,816.6674902103435 844.2780160106188,814.8118432200173 853.2086653273934,813.2179909148354 862.2956627998053,811.635762564733 871.3835697831965,809.8254317991735 880.3092555059088,807.5703411502353 888.9299901157146,804.7120944859809 897.100838001994,801.1132985107294 904.666809539119,796.6458212642389 911.4632563389566,791.1912353193794 917.4295917145673,784.7715951807935 922.9677066732708,777.9249172945872 928.6331375180531,771.2855179835249 935.0246761405339,765.4478674790931 942.7826057439183,760.9647272306098 952.4411348492667,758.204612551562 963.9698220927635,756.9483648053421 977.1759796018302,756.8467373530086 991.8461518174903,757.5670085352136 1007.7468866800643,758.793830209802 1024.6038793325727,760.2125117182208 1042.0354094360034,761.4602467378668 1059.6141050274268,762.1849552904567 1076.8892597809127,762.064603882572 1093.3881549420482,760.8081984534863 1104.3907477923497,755.3058075991547 1110.3618971931992,746.2843849380187 1116.1746916241484,737.1601253570086 1121.8273604517037,727.9358081939821 1127.3181818181818,718.6142432653043 1114.4860068811724,699.1323079355183 1094.1162716860174,676.4596430803368 1067.5163893893664,651.734111706518 1036.0588909020116,625.995712704864 1001.1770436816985,600.1839719839224 964.1600941242244,575.046313945884 925.5356417864526,550.8963139576631 885.6461822965293,527.9289195896135 844.8451809030028,506.31608891993096 803.49607461522,486.2063526621747 762.2091019856884,467.8063067535354 722.5649481053883,451.59262430810884 686.4177154319186,438.00710998964996 655.6546390449374,427.3649135936081 632.1905852982098,419.85308014932775 617.2840616050175,415.3601380746993 609.4735137374363,413.06250228254953 606.5727292979358,412.0984855629139 606.3497940884589,411.76300936137534 606.5339888975645,411.50934633771226 605.3077278070195,411.0274351678844 602.7786505792652,410.40777328812055 599.5454397845895,409.792761838816 596.213977166851,409.28268468713895 593.3954999474805,408.935444907336 591.5612703200724,408.75633273678454 590.609055350578,408.68783683543427 590.5,408.6821214866916 590.5,408.6821214866916 590.5536831715257,408.6821214866916 590.6782246994334,408.67901056299115 590.7119931706131,408.67471852204676 590.684222678561,408.6724667852146 590.6241886089781,408.67343737318606 590.5611187324007,408.6767742904775 590.5184398664179,408.6801833786334 590.5,408.6821214866916 590.5,408.6821214866916 590.5,408.6821214866916 590.5075525147893,408.6807897745621 590.5202814218579,408.678179177641 590.5325073276449,408.6752118408983 590.5427860644993,408.6722435453752 590.5496983128592,408.6697303056018 590.5518539618137,408.6682272594992 590.5484627253624,408.6682250238126 590.5410139435713,408.66958226577424 590.5315364064932,408.67187468707357 590.5220206701798,408.6745391618856 590.5144130514694,408.67687556497174 590.5101533319098,408.6782239877356 590.5088248332645,408.6785560226141 590.5095652117864,408.6780612951766 590.5115311784524,408.67698747526924 590.5139009932533,408.67563934708164 590.5160019858779,408.6743167966971 590.5176794924869,408.6731133353354 590.5189078659675,408.672067996024 590.5196634576587,408.6712218541286 590.5199247101272,408.67061794993606 590.5197193557569,408.6702729023847 590.5192618200047,408.6700853657087 590.5188045813819,408.66990964875527 590.5185893435439,408.6695828161487 590.5188462912996,408.6689251714563 590.5197014861883,408.66780751911085 590.52090995672,408.66636470411777 590.5221478930968,408.66481765615765 590.5231077635378,408.66340918873584 590.5234992544207,408.6624032709742 590.5231200320559,408.66202354944755 590.5220576101791,408.66226072527877 590.5204651171134,408.6630374562437 590.5184889656193,408.6642669001352 590.5162684576949,408.6658530289967 590.513927606964,408.66769902748183 590.5115525215771,408.66973292403054 590.5092164772921,408.6718855516684 590.5069877781376,408.67408296748545 590.5049295539293,408.67624667308644 590.503146786017,408.6782355295869 590.5019195828442,408.679664532693 590.5015466118256,408.6800690634774 590.5022948772087,408.67896285919187 590.5043987717451,408.6758393895917 590.5078633087077,408.6704636521183 590.5119164496126,408.6637717634401 590.5156688440932,408.65704609445913 590.518322354866,408.6516279674199 590.5191725612591,408.6489136364795 590.5178673248897,408.64988797933177 590.5151127737804,408.65369849307797 590.511791245056,408.6589798652717 590.5086866452604,408.6643112245439 590.50648213961,408.6682204934383 590.5055896741079,408.66956687309107 590.5056960011034,408.6687025490164 590.5063598564994,408.66638028948023 590.5071945204804,408.66337912006236 590.5078688825797,408.6605019094875 590.5081557035368,408.65843560376504 590.5080551250871,408.6573303608211 590.507619610683,408.65719886313707 590.5069018433294,408.6580518985753 590.5059546687967,408.6598983601999 590.5048499877659,408.66266924823253 590.503724911655,408.665987121724 590.5027061055541,408.6693902610218 590.5018878450887,408.67240936565906 590.5013317121295,408.6745689719023 590.5010425977919,408.675538783304 590.5009182289759,408.6755879480377 590.5008570913454,408.6751410378545 590.5007876224134,408.67462775999843 590.5006683995267,408.67448164514155 590.500495208419,408.67503967636344 590.5003080804779,408.67624296098165 590.5001463036069,408.6779318995475 590.5000379833142,408.67994542407666 590.5,408.6821214866916" stroke="black" stroke-width="9.0" /><polyline fill="none" points="590.5000000000001,805.6768439430904 583.5477992781282,806.9734340920642 576.5463726422229,808.2617287194172 569.4859516045046,809.6540512836766 562.3488676585974,811.2620698496195 555.1095818567744,813.1964518803553 547.7363931060817,815.5506628525366 540.198703763965,818.3533038091356 532.465940185526,821.6159135576337 524.5064774570448,825.3488244010172 516.2876781569363,829.5611131468772 507.78629847850397,834.2072268248736 499.0270600505563,839.0284689753584 490.06451151732097,843.7160167713602 480.97435258525303,847.9654998709286 471.85322422546614,851.4779168314841 462.80299858410655,854.0144886596516 453.8765875082142,855.5571679816882 445.11103068202,856.1433588435167 436.5410533415444,855.81136908769 428.1990508713842,854.6003143736169 420.10934571738403,852.5649516843564 412.26890819717494,849.8195536778969 404.66095733358594,846.4914698147846 397.26027903201606,842.7056409597732 390.033350422186,838.5842388376785 382.93012088821524,834.263442025734 375.8567121403008,829.9432931763035 368.6965497260074,825.8337405221185 361.3184524529588,822.1365778885626 353.57699149621845,819.0448096973143 345.357658794519,816.6674902103437 336.7219839893813,814.8118432200175 327.7913346726067,813.2179909148355 318.7043372001948,811.635762564733 309.6164302168033,809.8254317991735 300.69074449409123,807.5703411502353 292.07000988428524,804.7120944859809 283.8991619980061,801.1132985107295 276.33319046088087,796.6458212642387 269.53674366104343,791.1912353193794 263.5704082854328,784.7715951807935 258.03229332672925,777.9249172945872 252.36686248194687,771.285517983525 245.97532385946613,765.4478674790929 238.21739425608175,760.9647272306099 228.55886515073323,758.2046125515619 217.03017790723658,756.9483648053421 203.82402039816964,756.8467373530086 189.15384818250976,757.5670085352137 173.25311331993566,758.793830209802 156.3961206674277,760.212511718221 138.96459056399638,761.4602467378667 121.38589497257308,762.1849552904567 104.11074021908738,762.0646038825721 87.61184505795181,760.8081984534864 76.60925220765043,755.3058075991545 70.63810280680087,746.2843849380187 64.82530837585169,737.1601253570087 59.17263954829631,727.9358081939821 53.68181818181815,718.6142432653047 66.51399311882764,699.132307935518 86.8837283139826,676.4596430803366 113.48361061063368,651.734111706518 144.94110909798843,625.9957127048641 179.82295631830146,600.1839719839223 216.83990587577543,575.0463139458839 255.46435821354734,550.8963139576631 295.3538177034706,527.9289195896135 336.15481909699724,506.3160889199312 377.50392538478,486.2063526621747 418.7908980143116,467.8063067535354 458.43505189461166,451.59262430810884 494.5822845680815,438.00710998964996 525.3453609550626,427.3649135936081 548.8094147017902,419.85308014932775 563.7159383949825,415.3601380746993 571.5264862625637,413.06250228254953 574.4272707020642,412.0984855629139 574.6502059115411,411.76300936137534 574.4660111024355,411.50934633771226 575.6922721929805,411.0274351678844 578.2213494207348,410.40777328812055 581.4545602154105,409.792761838816 584.786022833149,409.28268468713895 587.6045000525195,408.935444907336 589.4387296799276,408.75633273678454 590.390944649422,408.68783683543427 590.5,408.6821214866916 590.5,408.6821214866916 590.4463168284743,408.6821214866916 590.3217753005666,408.67901056299115 590.2880068293869,408.67471852204676 590.315777321439,408.6724667852146 590.3758113910219,408.67343737318606 590.4388812675993,408.6767742904775 590.4815601335821,408.6801833786334 590.5,408.6821214866916 590.5,408.6821214866916 590.5,408.6821214866916 590.4924474852107,408.6807897745621 590.4797185781422,408.678179177641 590.4674926723551,408.6752118408983 590.4572139355007,408.6722435453752 590.4503016871408,408.6697303056018 590.4481460381863,408.6682272594992 590.4515372746376,408.6682250238126 590.4589860564287,408.66958226577424 590.4684635935068,408.67187468707357 590.4779793298203,408.6745391618856 590.4855869485306,408.67687556497174 590.4898466680902,408.6782239877356 590.4911751667355,408.6785560226141 590.4904347882136,408.6780612951766 590.4884688215476,408.67698747526924 590.4860990067467,408.67563934708164 590.4839980141221,408.6743167966971 590.4823205075131,408.6731133353354 590.4810921340325,408.672067996024 590.4803365423413,408.6712218541286 590.4800752898728,408.67061794993606 590.4802806442431,408.6702729023847 590.4807381799953,408.6700853657087 590.4811954186181,408.66990964875527 590.4814106564561,408.6695828161487 590.4811537087004,408.6689251714563 590.4802985138117,408.66780751911085 590.47909004328,408.66636470411777 590.4778521069032,408.66481765615765 590.4768922364622,408.66340918873584 590.4765007455793,408.6624032709742 590.4768799679441,408.66202354944755 590.4779423898209,408.66226072527877 590.4795348828866,408.6630374562437 590.4815110343807,408.6642669001352 590.4837315423051,408.6658530289967 590.486072393036,408.66769902748183 590.4884474784229,408.66973292403054 590.4907835227079,408.6718855516684 590.4930122218624,408.67408296748545 590.4950704460707,408.67624667308644 590.496853213983,408.6782355295869 590.4980804171558,408.679664532693 590.4984533881744,408.6800690634774 590.4977051227913,408.67896285919187 590.4956012282549,408.6758393895917 590.4921366912923,408.6704636521183 590.4880835503875,408.6637717634401 590.4843311559068,408.65704609445913 590.481677645134,408.6516279674199 590.4808274387409,408.6489136364795 590.4821326751103,408.64988797933177 590.4848872262196,408.65369849307797 590.488208754944,408.6589798652717 590.4913133547396,408.6643112245439 590.49351786039,408.6682204934383 590.4944103258921,408.66956687309107 590.4943039988966,408.6687025490164 590.4936401435006,408.66638028948023 590.4928054795197,408.66337912006236 590.4921311174203,408.6605019094875 590.4918442964632,408.65843560376504 590.4919448749129,408.6573303608211 590.492380389317,408.65719886313707 590.4930981566706,408.6580518985753 590.4940453312033,408.6598983601999 590.4951500122341,408.66266924823253 590.496275088345,408.665987121724 590.4972938944459,408.6693902610218 590.4981121549114,408.67240936565906 590.4986682878705,408.6745689719023 590.4989574022081,408.675538783304 590.4990817710241,408.6755879480377 590.4991429086547,408.6751410378545 590.4992123775866,408.67462775999843 590.4993316004733,408.67448164514155 590.499504791581,408.67503967636344 590.4996919195221,408.67624296098165 590.4998536963931,408.6779318995475 590.4999620166858,408.67994542407666 590.5,408.6821214866916" stroke="black" stroke-width="9.0" /><polyline fill="none" points="590.5000000000001,805.6768439430904 597.6270306712672,816.9894351848369 605.141905188342,827.9714270044885 613.0212828423573,838.4137977847 621.2277058124002,848.1087871442538 629.7096530391688,856.8505064975153 638.4044779193727,864.4627834008601 647.2508914960066,870.8810419265664 656.1871130897189,876.0702171161053 665.1490286415096,879.9975391410436 674.070262977365,882.632634570893 682.8845796022291,883.9595814930682 691.3062051701748,882.9380295525589 699.5677587597103,881.1064872166202 707.796089253364,879.1310398424026 715.9886902219588,877.012289170313 723.4897019361932,872.472328901069 730.6152844146249,866.9785664039175 737.3537320965496,860.6514351329873 743.7011250254286,853.6104952577153 749.6612649793043,845.9741030691636 755.2341955569027,837.8293729131091 760.3777674182423,829.144350311294 765.0346177863512,819.8599137168117 769.1426498120487,809.9200823522459 772.6351587608298,799.2722299173981 775.4512743097017,787.8884297088595 777.5699657635931,775.8276015588083 778.9843192391783,763.1695689826009 779.6919268736292,749.9933924785374 779.6948345052613,736.3771873793895 779.0086960257208,722.4132765269493 777.6924767634137,708.2527056278971 775.8243934057786,694.0566618324402 773.492987594544,679.9803824058985 770.7968562880536,666.1727174163449 767.8367396465763,652.7652037715427 764.6908828029032,639.8412304837719 761.4351199114018,627.4690978652108 758.1499487707712,615.712566516964 754.9203417590164,604.6306544735671 751.8205155076722,594.2601459633247 748.8662289358905,584.5656372691965 746.0556086377252,575.4950888586333 743.3836398584846,566.9977650427926 740.8422403775132,559.0243618642047 738.4200547789062,551.5268579555288 736.1016472006313,544.4578540677737 733.8683754052647,537.7715865260029 731.6987606843205,531.4243315456587 729.5685876616094,525.3745221018933 727.4857781105499,519.6110173754089 725.5986975424481,514.2327920363847 724.0984716220622,509.3557908650398 723.1846816874472,505.0831855474762 723.0648130015503,501.5050028517377 723.834337107149,498.6172674530028 725.106981366327,496.0969172833801 726.3537764834178,493.5729827523194 727.0211585059712,490.7123092969491 726.5326376087198,487.22060142866076 724.4398343412722,482.92618401214315 720.883588489287,478.00830522031447 716.1664007371533,472.71235080863664 710.605100873739,467.26129323580415 704.529847656669,461.8551127072442 698.1998674002434,456.6331918572056 691.547617242613,451.5742902441683 684.4192685384984,446.62796908749965 676.6570782747218,441.7547252000885 668.099869111405,436.9261640261964 658.6945360723099,432.16338333186604 648.8348020385785,427.63624764487315 639.0368373862506,423.5213218566382 629.8280898377886,419.9592697783853 621.7457158471658,417.05438581487203 615.1991414348271,414.8403090925782 610.0563355913023,413.19705730969997 606.0428996957352,411.98586680439917 602.8775391813322,411.0880713791231 600.2729541372814,410.40535698232065 597.9890147696674,409.8682648995675 595.9915900070399,409.4539141301243 594.2981087859581,409.14847060623697 592.9255603943113,408.9370581570264 591.8904511621147,408.803770200563 591.1943990935604,408.7306786015207 590.7808814216312,408.6968418582411 590.5781827910829,408.6848516899172 590.513934858236,408.68236472054684 590.5153380490073,408.6821214866916 590.5218960515639,408.68173928968986 590.5231293386399,408.68131379238844 590.521077891916,408.6810168411844 590.5177827255036,408.6808779973894 590.5152796831002,408.68078468763804 590.5151525391103,408.680528890656 590.5172117088415,408.6800081545791 590.5208260857797,408.6791945712125 590.5253669903623,408.6781037501204 590.530210059157,408.6767946381734 590.5347924335055,408.6753585227111 590.5387789845837,408.6738787590634 590.5418950529494,408.67244925160014 590.5438716420246,408.6711830578041 590.5444462529832,408.67021214909823 590.5434550875851,408.66966094083887 590.5411042247628,408.6695546640441 590.5376889545141,408.6698756030396 590.5335006868074,408.6705862751596 590.5288261029389,408.671629643252 590.5239969528138,408.6729099195559 590.5195383610528,408.6742274764164 590.5160108220858,408.67532529592927 590.5139571923518,408.6759073442902 590.5139009932533,408.67563934708164 590.5160643001207,408.6742864040102 590.5195442164451,408.6721632110224 590.5231888932424,408.66979173344475 590.5258860315358,408.66777262510504 590.5265662801696,408.6667834376842 590.524598819565,408.6673410247404 590.5209379934689,408.6690379762824 590.5168881388662,408.6711542010769 590.5136994553726,408.6728810873666 590.5125641941997,408.67332394320135 590.514178659237,408.6718200877658 590.5174813309452,408.66894835895664 590.5210336973689,408.66568816126494 590.5234695678777,408.6631162053583 590.5234992544207,408.6624032709742 590.520355310455,408.6644268852689 590.5150673522978,408.6685547817457 590.5090425359718,408.67368918548095 590.5036066272842,408.6786386072083 590.5,408.6821214866916 590.5,408.6821214866916 590.5003071141423,408.68179214709494 590.5029898157202,408.67880095993576 590.5063949675288,408.6747649180812 590.5098591078587,408.6703718594813 590.5128489915867,408.6662543035169 590.5151908255016,408.6626781167048 590.5168056460985,408.65981964106254 590.5176257697044,408.65786169593605 590.5175950869805,408.6569930982921 590.5167061087353,408.65735366194497 590.5151028750863,408.65886509849315 590.512957203882,408.66138562591937 590.5104296323298,408.66476366359666 590.5076690245037,408.6688383466068 590.5048606713605,408.67335260343475 590.5023590890523,408.6776846854767 590.500520404063,408.6811001362104 590.5,408.6821214866916 590.5,408.6821214866916 590.501631664834,408.6784567074718 590.5040369814728,408.6726109543381 590.5066357588713,408.6656974071469 590.5089272931206,408.65886509300583 590.5104918434396,408.6532953837527 590.5110865113587,408.6499239198081 590.5108916038599,408.6486005767987 590.5101601421654,408.64888915908557 590.5091132362958,408.6503398548035 590.5079395583956,408.6524906513695 590.506774991417,408.6549484802915 590.5056537327229,408.65763247980306 590.5045872127515,408.66054034746196 590.5035867270627,408.66366937557666 590.5026634242591,408.66701645711305 590.5018342805455,408.6705402951194 590.5011347629022,408.6740472290952 590.5005915667874,408.6773035618396 590.5002152178484,408.68007382564394 590.5,408.6821214866916 590.5,408.6821214866916 590.5,408.6821214866916 590.5,408.6821214866916 590.5,408.6821214866916 590.5,408.6821214866916" stroke="black" stroke-dasharray="8.0,8.0" stroke-width="7.0" /><polyline fill="none" points="590.5000000000001,805.6768439430904 583.7484248371226,795.4796035151222 577.3540143774648,785.1338954271777 571.3224106727803,774.6123247804898 565.661602928533,763.8877483574317 560.3819173239075,752.9333817333201 555.4935754966849,741.7460024504591 550.9961724246293,730.4149784914863 546.8803226901564,719.0522527173222 543.1293142424299,707.7688604397453 539.7191530762519,696.6746154301337 536.619205514427,685.8747791411171 533.7944454941884,675.460780589404 531.2045024911753,665.5191383998421 528.8032556384635,656.1342474331774 526.538917564892,647.3881308416157 524.3612302877759,639.3354222789699 522.2463266042012,631.9298278345016 520.1815048439929,625.1001963872726 518.1589665023598,618.7757378728493 516.1757810736063,612.8862347055599 514.2308463657064,607.3700595928415 512.3147606519822,602.197379528177 510.4168817638837,597.3461250457898 508.5280456457082,592.794145395229 506.64055986586754,588.5192712043957 504.7543600633477,584.4867364474849 502.89725173947977,580.6121955339119 501.1094249434106,576.8013417481468 499.43759846211907,572.9630425707307 497.9348742408389,569.0096223105612 496.64653352200645,564.8805200934885 495.5644791174993,560.6107135874554 494.66364255743633,556.2571705721062 493.91529580453226,551.8748340822408 493.2871444333467,547.5164673939165 492.7523382527436,543.2202358839471 492.31801316902914,538.9740186871347 492.0015666977408,534.7543669760463 491.8221225674678,530.5391517410399 491.8004712268686,526.3076394894266 491.952006297439,522.0486200371328 492.2645396251324,517.7836531790268 492.71734409005586,513.5411820676258 493.28793306708695,509.34816366196094 493.95212640018593,505.2299950865056 494.69085571035225,501.20393665107565 495.5113458966721,497.260474449957 496.4284968152776,493.38448340739274 497.4583259845001,489.5620147725863 498.6179152151246,485.78034494148017 499.925610814271,482.02781566568547 501.40176123654084,478.29329477964586 503.0679408565177,474.5669037630897 504.9466375034089,470.840277754324 507.0611863194678,467.1066078050758 509.4322402115272,463.3630159053524 512.0669932571741,459.61711162279425 514.9689616303154,455.8791524817949 518.141354905389,452.15958177023515 521.5870692399142,448.46902061167316 525.2777135463301,444.8354252244061 529.0583425729845,441.3512302375492 532.7364813170473,438.1141043080029 536.1130448235211,435.2084119191311 538.9829190033383,432.70493088122623 541.2125874878042,430.626291361756 542.9765351671848,428.8546354872444 544.5343247479651,427.2534597767358 546.153991130299,425.70495938913143 548.1112156284096,424.11037726467885 550.6074617326508,422.4182239763545 553.5222499287312,420.6969208072246 556.6494060166917,419.0312866529889 559.7776953897859,417.491600573547 562.6914610501991,416.13339704098007 565.2295273873681,414.98275795410234 567.4625850932609,414.0007277944195 569.5220141622591,413.1411300271243 571.5417549265509,412.3672310247772 573.6578920199864,411.65183953557323 575.9654640100812,410.98416583483163 578.3888343001086,410.3842348233734 580.8083689806182,409.87210414583933 583.103304917861,409.4595454667932 585.1521109149436,409.1500011554281 586.8571276009689,408.93685593987277 588.2179704796421,408.801717586112 589.2592250157462,408.7254503039078 590.0061630495069,408.69074144272645 590.4846619509927,408.6821214866916 590.5,408.6821214866916 590.5,408.6821214866916 590.5,408.6821214866916 590.5,408.6821214866916 590.4847203168998,408.68078468763804 590.4120124105003,408.6728736183843 590.384730127006,408.66796812595067 590.3877363504205,408.6663438596729 590.4059666503525,408.6672280672358 590.4244748521076,408.6688043653961 590.4317228414274,408.66884975150117 590.4292669868513,408.6670867206201 590.421882055908,408.66408653824465 590.41428236445,408.6607496798115 590.4111074940337,408.65830281150465 590.4157148550298,408.6579531102834 590.426635068752,408.6596915762659 590.4412337880609,408.66302718695954 590.4569240214785,408.66728923781716 590.4711738970611,408.671629643252 590.482033341807,408.67522473278143 590.4896702213906,408.6779479852263 590.4947667960015,408.6799001233861 590.49799210283,408.6812275132744 590.5,408.6821214866916 590.5,408.6821214866916 590.5,408.6821214866916 590.5,408.6821214866916 590.5,408.6821214866916 590.5,408.6821214866916 590.4979067155763,408.68086371451693 590.49533707274,408.6792077663565 590.4925630821418,408.6772918957645 590.4898460515996,408.67527256201583 590.4874358058003,408.67332394320135 590.4855734595601,408.67163999153 590.4845009185417,408.6704420910859 590.4844488815064,408.66997162133646 590.4856324481318,408.6704868725926 590.4882503727897,408.6722623788329 590.4922403218401,408.6753761013774 590.4965760293663,408.6790385296854 590.5,408.6821214866916 590.5,408.6821214866916 590.5,408.6821214866916 590.4949279591996,408.67686923469 590.4877281774163,408.6689615681379 590.4801689651817,408.6600968912404 590.4738950728082,408.6520912031773 590.4704226764239,408.6468726050606 590.4707188886919,408.645962325597 590.4740223041327,408.64887155224267 590.4792152415337,408.6545391806002 590.4852601328095,408.6618337999804 590.4912024565098,408.66955729249185 590.496244019698,408.6765530168973 590.4999423874194,408.6820327710974 590.5,408.6821214866916 590.5,408.6821214866916 590.5,408.6821214866916 590.4958445830008,408.674624915982 590.4906863235115,408.66460500882977 590.4857347835108,408.65412442294655 590.4820528809623,408.6453244395833 590.4805535811702,408.6404185069317 590.4816911355341,408.64099910381265 590.4846374220508,408.6459295210848 590.488367184006,408.6533292567567 590.49199024757,408.6612553682254 590.4947540782802,408.66770843522215 590.496214904073,408.67112876992724 590.4966775369262,408.6718959967866 590.4965695237504,408.6709009044681 590.4962542998746,408.6690586779722 590.4960302208021,408.6673060690305 590.4960770173542,408.6663872626931 590.4963265608986,408.66621007384856 590.4966723603573,408.6664661730349 590.4970298415466,408.6668413460918 590.4973365757409,408.66701645711305 590.4975692357672,408.6667742453344 590.4977792448562,408.6663199927806 590.4980166040999,408.665968023378 590.4983093018432,408.6660355682458 590.4986632009465,408.6668418035914 590.4990558114348,408.66861896113585 590.499430083753,408.6712468368813 590.4997343757159,408.67451500241316 590.4999317439544,408.6782111004576 590.5,408.6821214866916" stroke="black" stroke-dasharray="8.0,8.0" stroke-width="7.0" /></g><rect fill="white" height="111.60000000000001" stroke="none" width="1181" x="0" y="0" /><line stroke="black" stroke-width="3.0" x1="0" x2="1181" y1="111.60000000000001" y2="111.60000000000001" /><text font-family="Arial" font-size="62.0" text-anchor="start" x="40.0" y="77.5">LED</text><text font-family="Arial" font-size="62.0" text-anchor="middle" x="590.5" y="77.5" /><text font-family="Arial" font-size="62.0" text-anchor="end" x="1141.0" y="77.5">cd / klm</text><rect fill="none" height="1178.0" stroke="black" stroke-width="3.0" width="1178.0" x="1.5" y="1.5" /></svg>