<?xml version="1.0" encoding="utf-8" ?>
<svg baseProfile="full" height="1181" version="1.1" width="1181" xmlns="http://www.w3.org/2000/svg" xmlns:ev="http://www.w3.org/2001/xml-events" xmlns:xlink="http://www.w3.org/1999/xlink"><defs><clipPath id="plot_clip"><rect height="1069.4" width="1181.0" x="0" y="111.60000000000001" /></clipPath></defs><g clip-path="url(#plot_clip)" id="grid"><circle cx="590.4999999999999" cy="235.82440000198733" fill="none" r="324.5566441646729" stroke="black" stroke-width="3.0" /><text font-family="Arial" font-size="42.0" text-anchor="start" x="598.5" y="600.3810441666602">250</text><circle cx="590.4999999999999" cy="235.82440000198733" fill="none" r="649.1132883293458" stroke="black" stroke-width="3.0" /><text font-family="Arial" font-size="42.0" text-anchor="start" x="598.5" y="924.9376883313331">500</text><circle cx="590.4999999999999" cy="235.82440000198733" fill="none" r="973.6699324940187" stroke="black" stroke-width="3.0" /><text font-family="Arial" font-size="42.0" text-anchor="start" x="598.5000000000001" y="1249.4943324960059">750</text><line stroke="black" stroke-width="3.0" x1="-3891.6921672429658" x2="5072.692167242965" y1="235.824400001987" y2="235.82440000198767" /><line stroke="black" stroke-width="3.0" x1="-3291.1922814760374" x2="4472.192281476037" y1="-2005.2716836194963" y2="2476.9204836234712" /><line stroke="black" stroke-width="3.0" x1="-1650.5960836214826" x2="2831.5960836214826" y1="-3645.8678814740506" y2="4117.516681478025" /><line stroke="black" stroke-width="3.0" x1="590.4999999999999" x2="590.4999999999999" y1="-4246.367767240978" y2="4718.016567244952" /><line stroke="black" stroke-width="3.0" x1="2831.5960836214826" x2="-1650.5960836214829" y1="-3645.8678814740506" y2="4117.516681478025" /><line stroke="black" stroke-width="3.0" x1="4472.192281476037" x2="-3291.1922814760374" y1="-2005.2716836194963" y2="2476.9204836234712" /><line stroke="black" stroke-width="3.0" x1="5072.692167242966" x2="-3891.692167242966" y1="235.824400001987" y2="235.82440000198767" /></g><g clip-path="url(#plot_clip)" id="curves"><polyline fill="none" points="590.5,645.6226011900699 597.6524796538117,645.5896849336555 604.8008003816794,645.345741880176 611.9337584328259,644.8048743904878 619.0341494231742,643.8817478219506 626.0787919008262,642.4918522974938 633.040952641471,640.5745276627647 639.9007416259127,638.1611536022854 646.6435191012222,635.3062959229236 653.2583005756358,632.0647153198393 659.7377530336172,628.491210012722 666.0834854675759,624.6677237052388 672.3257337689367,620.7842108214949 678.5140442716363,617.0551093627574 684.7127890630946,613.6912580714819 691.0010037114619,610.8992520648311 697.4499412061084,608.8031697321061 704.0452687782972,607.2142397019666 710.7348959195272,605.8693597674962 717.4487180909398,604.5102479886962 724.0988493266383,602.8842217920464 730.6090837087346,600.8210418358805 737.0133730088513,598.4577233858731 743.3868079876553,596.0031483029471 749.8188463544038,593.6603876899737 756.4130479739379,591.6260795849315 763.2647202165207,590.044569551292 770.3881150809752,588.8747044754288 777.771485026259,588.0308380955822 785.397641302147,587.4290523008208 793.2440444767878,586.987385967788 801.3013715823387,586.656797577821 809.6332975728852,586.5109825705031 818.3285170502983,586.6495511655748 827.4831235995549,587.1663292469179 837.2003622136243,588.1490305599328 847.5530791375681,589.6276107283819 858.4644575351675,591.4252457523539 869.8074621820195,593.3216490309479 881.4407384979196,595.1062906932763 893.2090557797279,596.5790047382791 904.9685522760327,597.5790876048638 916.6655126077014,598.0679002097794 928.2692334655899,598.0375571795078 939.748305232865,597.481607110601 951.0706659022669,596.3950659042542 962.2295124039506,594.7994173949895 973.3243801510484,592.8139098341393 984.4894612552096,590.5741043269051 995.8682057257018,588.2056051716996 1007.612877514805,585.8236616839542 1019.9074182422452,583.5516710300478 1033.039548824448,581.5741886592963 1047.3346916943203,580.0740321557038 1063.132388776858,579.2119305611384 1080.7853444689406,579.1258940728839 1100.0250900075378,579.5034127569754 1110.361897193199,573.4266634533143 1116.1746916241482,564.3024038723042 1121.8273604517037,555.0780867092777 1127.3181818181818,545.7565217805999 1103.835314610019,520.3708113206757 1067.684951832668,489.5481395383455 1023.0054783240578,456.1969482538558 974.1129490245152,422.92493663709797 925.4877519644843,392.03175413115343 880.8515004358521,365.09721681840267 840.3692130614766,341.88758829269614 803.2743959884874,321.790836167571 768.7665224218066,304.25450661055345 736.013719670699,288.7870626394781 704.4815822514065,275.07140617759376 674.9294694921361,263.2571975824777 648.4591083764975,253.54427770267034 626.1894447694417,246.0581836099185 609.2534291054974,240.8493661861196 598.3748778648118,237.7878275726547 592.5914120266614,236.3072405134808 590.4999999999999,235.82440000198733 590.62560177417,235.8488145136787 591.5291953962773,236.00587491877195 591.9914878006676,236.0606284625469 591.923397804877,236.02444551759822 591.5200223920391,235.9496430035049 590.9790187996874,235.87474690660633 590.4999999999999,235.82440000198733 590.4999999999999,235.82440000198733 590.4999999999999,235.82440000198733 590.4999999999999,235.82440000198733 590.4999999999999,235.82440000198733 590.4999999999999,235.82440000198733 590.5699913552513,235.82317829833698 590.5869396136732,235.8213640037785 590.5688876513989,235.82078975315744 590.5338984041947,235.822029594652 590.4999999999999,235.82440000198733 590.4999999999999,235.82440000198733 590.4999999999999,235.82440000198733 590.4999999999999,235.82440000198733 590.4999999999999,235.82440000198733 590.4999999999999,235.82440000198733 590.5049335784054,235.8234410114917 590.5061093027309,235.82310142960455 590.5048257610075,235.82328588727262 590.5023672683263,235.82380977570324 590.4999999999999,235.82440000198733 590.4999999999999,235.82440000198733 590.4999999999999,235.82440000198733 590.4999999999999,235.82440000198733 590.4999999999999,235.82440000198733 590.4999999999999,235.82440000198733 590.5003368775738,235.8242706868025 590.5004157746603,235.82423201812048 590.5003273202428,235.8242610627873 590.5001600215365,235.824328755809 590.4999999999999,235.82440000198733 590.4999999999999,235.82440000198733 590.4999999999999,235.82440000198733 590.4999999999999,235.82440000198733 590.4999999999999,235.82440000198733 590.4999999999999,235.82440000198733 590.5000222070496,235.82438665864572 590.5000273034511,235.82438294089752 590.5000214113026,235.8243860973248 590.500010426232,235.82439296940493 590.4999999999999,235.82440000198733 590.4999999999999,235.82440000198733 590.4999999999999,235.82440000198733 590.4999999999999,235.82440000198733 590.4999999999999,235.82440000198733 590.4999999999999,235.82440000198733 590.5000014038154,235.82439878166917 590.5000017178111,235.82439845526324 590.5000013405531,235.82439875190119 590.5000006495194,235.82439937475363 590.4999999999999,235.82440000198733 590.4999999999999,235.82440000198733 590.4999999999999,235.82440000198733 590.4999999999999,235.82440000198733 590.4999999999999,235.82440000198733 590.4999999999999,235.82440000198733 590.5000000840439,235.8243998982016 590.5000001021759,235.82439987120802 590.5000000791998,235.82439989688544 590.5000000381049,235.8243999495403 590.4999999999999,235.82440000198733 590.4999999999999,235.82440000198733 590.4999999999999,235.82440000198733 590.4999999999999,235.82440000198733 590.4999999999999,235.82440000198733 590.4999999999999,235.82440000198733 590.5000000046484,235.8243999936011 590.500000005594,235.82439999146652 590.5000000042895,235.82439999356848 590.5000000020403,235.824399997804 590.4999999999999,235.82440000198733 590.4999999999999,235.82440000198733 590.4999999999999,235.82440000198733 590.4999999999999,235.82440000198733 590.4999999999999,235.82440000198733 590.4999999999999,235.82440000198733 590.5000000002241,235.82440000133636 590.5000000002643,235.82440000117356 590.5000000001983,235.82440000133852 590.5000000000921,235.82440000166594 590.4999999999999,235.82440000198733 590.4999999999999,235.82440000198733 590.4999999999999,235.82440000198733 590.4999999999999,235.82440000198733 590.4999999999999,235.82440000198733 590.4999999999999,235.82440000198733 590.5000000000077,235.824400001938 590.5000000000086,235.8244000019256 590.500000000006,235.82440000193787 590.5000000000025,235.82440000196243 590.4999999999999,235.82440000198733 590.4999999999999,235.82440000198733 590.4999999999999,235.82440000198733 590.4999999999999,235.82440000198733 590.4999999999999,235.82440000198733 590.4999999999999,235.82440000198733" stroke="black" stroke-width="9.0" /><polyline fill="none" points="590.5,645.6226011900699 583.347520346188,645.5896849336555 576.1991996183204,645.345741880176 569.066241567174,644.8048743904878 561.9658505768258,643.8817478219506 554.9212080991738,642.4918522974938 547.959047358529,640.5745276627647 541.0992583740873,638.1611536022854 534.3564808987777,635.3062959229236 527.7416994243642,632.0647153198394 521.2622469663826,628.491210012722 514.916514532424,624.6677237052388 508.6742662310632,620.7842108214949 502.48595572836365,617.0551093627575 496.28721093690524,613.6912580714819 489.99899628853814,610.8992520648311 483.5500587938915,608.8031697321061 476.9547312217027,607.2142397019664 470.2651040804728,605.8693597674962 463.55128190906015,604.5102479886962 456.90115067336166,602.8842217920464 450.39091629126517,600.8210418358805 443.98662699114857,598.4577233858732 437.61319201234465,596.0031483029471 431.1811536455962,593.6603876899737 424.58695202606214,591.6260795849315 417.7352797834792,590.044569551292 410.6118849190248,588.8747044754288 403.2285149737407,588.0308380955822 395.6023586978529,587.4290523008209 387.75595552321204,586.987385967788 379.6986284176613,586.656797577821 371.3667024271146,586.5109825705031 362.6714829497016,586.6495511655748 353.51687640044497,587.166329246918 343.7996377863754,588.1490305599327 333.44692086243174,589.6276107283819 322.53554246483213,591.4252457523539 311.19253781798045,593.3216490309479 299.5592615020802,595.1062906932762 287.790944220272,596.5790047382791 276.0314477239673,597.579087604864 264.33448739229846,598.0679002097794 252.73076653441012,598.0375571795079 241.25169476713467,597.4816071106009 229.92933409773292,596.3950659042545 218.77048759604915,594.7994173949894 207.67561984895138,592.8139098341393 196.51053874479032,590.5741043269051 185.13179427429807,588.2056051716996 173.3871224851949,585.8236616839542 161.0925817577549,583.551671030048 147.96045117555178,581.5741886592962 133.66530830567947,580.0740321557038 117.86761122314175,579.2119305611385 100.21465553105936,579.125894072884 80.97490999246202,579.5034127569753 70.63810280680087,573.4266634533143 64.82530837585169,564.3024038723045 59.17263954829635,555.0780867092778 53.6818181818182,545.7565217806003 77.16468538998083,520.3708113206757 113.31504816733168,489.5481395383455 157.99452167594208,456.1969482538558 206.88705097548473,422.92493663709797 255.51224803551554,392.03175413115343 300.1484995641477,365.09721681840256 340.6307869385233,341.88758829269614 377.7256040115124,321.7908361675711 412.2334775781933,304.25450661055345 444.98628032930094,288.7870626394781 476.5184177485933,275.07140617759376 506.0705305078637,263.2571975824777 532.5408916235024,253.54427770267034 554.8105552305581,246.0581836099185 571.7465708945024,240.8493661861196 582.6251221351881,237.7878275726547 588.4085879733384,236.3072405134808 590.4999999999999,235.82440000198733 590.3743982258299,235.8488145136787 589.4708046037226,236.00587491877195 589.0085121993322,236.0606284625469 589.0766021951229,236.02444551759822 589.4799776079608,235.9496430035049 590.0209812003125,235.87474690660633 590.4999999999999,235.82440000198733 590.4999999999999,235.82440000198733 590.4999999999999,235.82440000198733 590.4999999999999,235.82440000198733 590.4999999999999,235.82440000198733 590.4999999999999,235.82440000198733 590.4300086447486,235.82317829833698 590.4130603863267,235.8213640037785 590.431112348601,235.82078975315744 590.4661015958052,235.822029594652 590.4999999999999,235.82440000198733 590.4999999999999,235.82440000198733 590.4999999999999,235.82440000198733 590.4999999999999,235.82440000198733 590.4999999999999,235.82440000198733 590.4999999999999,235.82440000198733 590.4950664215945,235.8234410114917 590.493890697269,235.82310142960455 590.4951742389924,235.82328588727262 590.4976327316735,235.82380977570324 590.4999999999999,235.82440000198733 590.4999999999999,235.82440000198733 590.4999999999999,235.82440000198733 590.4999999999999,235.82440000198733 590.4999999999999,235.82440000198733 590.4999999999999,235.82440000198733 590.4996631224261,235.8242706868025 590.4995842253396,235.82423201812048 590.499672679757,235.8242610627873 590.4998399784633,235.824328755809 590.4999999999999,235.82440000198733 590.4999999999999,235.82440000198733 590.4999999999999,235.82440000198733 590.4999999999999,235.82440000198733 590.4999999999999,235.82440000198733 590.4999999999999,235.82440000198733 590.4999777929503,235.82438665864572 590.4999726965488,235.82438294089752 590.4999785886973,235.8243860973248 590.4999895737678,235.82439296940493 590.4999999999999,235.82440000198733 590.4999999999999,235.82440000198733 590.4999999999999,235.82440000198733 590.4999999999999,235.82440000198733 590.4999999999999,235.82440000198733 590.4999999999999,235.82440000198733 590.4999985961845,235.82439878166917 590.4999982821888,235.82439845526324 590.4999986594466,235.82439875190119 590.4999993504805,235.82439937475363 590.4999999999999,235.82440000198733 590.4999999999999,235.82440000198733 590.4999999999999,235.82440000198733 590.4999999999999,235.82440000198733 590.4999999999999,235.82440000198733 590.4999999999999,235.82440000198733 590.499999915956,235.8243998982016 590.499999897824,235.82439987120802 590.4999999208001,235.82439989688544 590.499999961895,235.8243999495403 590.4999999999999,235.82440000198733 590.4999999999999,235.82440000198733 590.4999999999999,235.82440000198733 590.4999999999999,235.82440000198733 590.4999999999999,235.82440000198733 590.4999999999999,235.82440000198733 590.4999999953515,235.8243999936011 590.4999999944059,235.82439999146652 590.4999999957104,235.82439999356848 590.4999999979595,235.824399997804 590.4999999999999,235.82440000198733 590.4999999999999,235.82440000198733 590.4999999999999,235.82440000198733 590.4999999999999,235.82440000198733 590.4999999999999,235.82440000198733 590.4999999999999,235.82440000198733 590.4999999997758,235.82440000133636 590.4999999997356,235.82440000117356 590.4999999998016,235.82440000133852 590.4999999999078,235.82440000166594 590.4999999999999,235.82440000198733 590.4999999999999,235.82440000198733 590.4999999999999,235.82440000198733 590.4999999999999,235.82440000198733 590.4999999999999,235.82440000198733 590.4999999999999,235.82440000198733 590.4999999999922,235.824400001938 590.4999999999912,235.8244000019256 590.4999999999939,235.82440000193787 590.4999999999974,235.82440000196243 590.4999999999999,235.82440000198733 590.4999999999999,235.82440000198733 590.4999999999999,235.82440000198733 590.4999999999999,235.82440000198733 590.4999999999999,235.82440000198733 590.4999999999999,235.82440000198733" stroke="black" stroke-width="9.0" /><polyline fill="none" points="590.5,645.6226011900699 597.9705147891982,663.8099056371796 606.0863865486151,682.1601129735562 614.876727718104,700.960073590665 624.3914586305274,720.4948388303177 634.7012277379439,741.0467448929527 645.8920821407856,762.8448573676548 658.042746231892,785.9159240112918 671.2280307208194,810.2341855406099 685.5222341411975,835.7711747387797 700.9990623741016,862.4957235290336 717.6950740802392,890.186329173123 735.4740238500361,917.8735576991152 754.0907613894809,944.4138362162997 773.2218405561621,968.681674245219 792.4663439624396,989.5730570887433 811.4359928033617,1006.3197724687624 830.0670160289832,1019.41280168282 848.4288348806984,1029.6477288771073 866.6452657845869,1037.808484712266 884.8939015921292,1044.6649970515077 903.2890424316071,1050.6677139966127 921.4896239907586,1055.0524669587164 938.974642195076,1056.7792102468427 955.1143591450101,1054.7616589351983 969.3512525016001,1048.2735328353829 980.9932403588143,1036.454190820412 990.0688352211096,1020.0223936793931 996.7716976284308,999.91033385296 1001.3558292229171,977.0279364517701 1004.1344607221089,952.2603017340334 1005.3742039306909,926.2910253603404 1004.955631804444,899.0920583341634 1002.6444063867034,870.4711314290308 998.1903527198688,840.2502041836566 991.3280526281579,808.2661844092147 981.8549935057771,774.4783375494525 969.8796053384443,739.2781406947648 955.6145952932121,703.1497710390964 939.3023973984313,666.5594887419192 921.2143374116167,629.9543997346952 901.5671957141251,593.6662744743516 880.2614496046997,557.6370922480153 857.1056578449795,521.7239653904899 831.8962267913885,485.7975104791335 804.4180016426423,449.7424016446297 774.7501158688501,413.7526686534387 744.2231198171938,379.17352831966787 714.5727308727191,347.5399886668612 687.6399704292302,320.2668880079775 665.3659039132957,298.6443523633875 649.224618047621,283.3786580524262 638.4700234875376,273.30268985599 631.709721888053,266.8781528343394 627.4550928439922,262.67384657953426 624.1261294524447,259.36966932540463 620.3945830170517,255.98855085444166 616.2350203726007,252.53691764304688 611.9677273987122,249.2389249085868 607.9277252499993,246.29603378394415 604.4637711650612,243.88638704303776 601.8425728096888,242.11169077715988 599.9562334645466,240.85236852307958 598.5936418253632,239.94831649110233 597.5340326674711,239.25512696294982 596.5476872786254,238.6444828941369 595.452381517453,238.0293423141493 594.2847118460699,237.43091486725416 593.139112075821,236.8906704935372 592.1127336820269,236.44347046060773 591.3051563965681,236.11745296426727 590.7896708566791,235.9241416767071 590.526377706394,235.83297063833618 590.4999999999999,235.82440000198733 590.4999999999999,235.82440000198733 590.5376197173631,235.83448017487422 590.5761850533095,235.84339506917536 590.5844543775132,235.84389783135646 590.5721392558695,235.8397336741764 590.5491509874922,235.8339539861305 590.5255700719571,235.82890869557195 590.5095568183685,235.82591365331587 590.5011014989475,235.8245548075688 590.4999999999999,235.82440000198733 590.4999999999999,235.82440000198733 590.4999999999999,235.82440000198733 590.5009670505599,235.8244676247499 590.5012030525312,235.82446305129884 590.5009547071364,235.8244333410952 590.5004705114012,235.8244082147944 590.4999999999999,235.82440000198733 590.4999999999999,235.82440000198733 590.4999999999999,235.82440000198733 590.4999999999999,235.82440000198733 590.4999999999999,235.82440000198733 590.4999999999999,235.82440000198733 590.5000692193704,235.82439272673832 590.5000858491104,235.82438946104196 590.5000679191887,235.8243904565678 590.5000333703786,235.8243947166385 590.4999999999999,235.82440000198733 590.4999999999999,235.82440000198733 590.4999999999999,235.82440000198733 590.4999999999999,235.82440000198733 590.4999999999999,235.82440000198733 590.4999999999999,235.82440000198733 590.5000048035225,235.82439862459944 590.5000059386306,235.82439818636578 590.5000046832888,235.82439848029458 590.500002293592,235.82439921224022 590.4999999999999,235.82440000198733 590.4999999999999,235.82440000198733 590.4999999999999,235.82440000198733 590.4999999999999,235.82440000198733 590.4999999999999,235.82440000198733 590.4999999999999,235.82440000198733 590.5000003224654,235.82439984471034 590.5000003972608,235.8243997995728 590.5000003121651,235.82439983600614 590.5000001523246,235.82439991755234 590.4999999999999,235.82440000198733 590.4999999999999,235.82440000198733 590.4999999999999,235.82440000198733 590.4999999999999,235.82440000198733 590.4999999999999,235.82440000198733 590.4999999999999,235.82440000198733 590.5000000208394,235.82439998684652 590.5000000255651,235.82439998272253 590.5000000200025,235.8243999863596 590.5000000097175,235.82439999411815 590.4999999999999,235.82440000198733 590.4999999999999,235.82440000198733 590.4999999999999,235.82440000198733 590.4999999999999,235.82440000198733 590.4999999999999,235.82440000198733 590.4999999999999,235.82440000198733 590.5000000012847,235.82440000065685 590.5000000015674,235.82440000030635 590.5000000012194,235.82440000063298 590.5000000005889,235.82440000130964 590.4999999999999,235.82440000198733 590.4999999999999,235.82440000198733 590.4999999999999,235.82440000198733 590.4999999999999,235.82440000198733 590.4999999999999,235.82440000198733 590.4999999999999,235.82440000198733 590.5000000000741,235.82440000187717 590.5000000000898,235.82440000184886 590.5000000000693,235.82440000187626 590.5000000000332,235.82440000193208 590.4999999999999,235.82440000198733 590.4999999999999,235.82440000198733 590.4999999999999,235.82440000198733 590.4999999999999,235.82440000198733 590.4999999999999,235.82440000198733 590.4999999999999,235.82440000198733 590.5000000000039,235.82440000197857 590.5000000000045,235.82440000197641 590.5000000000035,235.82440000197857 590.5000000000016,235.824400001983 590.4999999999999,235.82440000198733 590.4999999999999,235.82440000198733 590.4999999999999,235.82440000198733 590.4999999999999,235.82440000198733 590.4999999999999,235.82440000198733 590.4999999999999,235.82440000198733 590.5000000000001,235.82440000198653 590.5000000000001,235.82440000198642 590.5000000000001,235.82440000198665 590.5,235.824400001987 590.4999999999999,235.82440000198733 590.4999999999999,235.82440000198733 590.4999999999999,235.82440000198733 590.4999999999999,235.82440000198733 590.4999999999999,235.82440000198733 590.4999999999999,235.82440000198733 590.4999999999999,235.82440000198733 590.4999999999999,235.8244000019871 590.4999999999999,235.82440000198733 590.4999999999999,235.82440000198733 590.4999999999999,235.82440000198733" stroke="black" stroke-dasharray="8.0,8.0" stroke-width="7.0" /><polyline fill="none" points="590.5,645.6226011900699 583.9212747803294,612.7193154162159 578.5075699584035,579.2426641507906 574.3101263855939,544.7455913955145 571.4128079315168,508.78396355112363 569.9319744574339,470.91800771804935 569.9705706177059,431.1488731823588 571.4200003631653,391.21852688999786 573.9912702293975,353.29011596675446 577.2462948614394,319.50500089563013 580.5989088879742,291.9762780199975 583.4345679161387,272.17289700358094 585.552146602963,259.10222007097195 586.957825547269,251.16724318649722 587.7673225718555,246.78457052829265 588.2050806394099,244.3891556549828 588.5339069263765,242.680981384877 588.811980576723,241.3456627526648 589.0413343657425,240.31371121078462 589.2287102733534,239.51649345479166 589.3855107040567,238.886434176815 589.5241330315397,238.366620370119 589.6457693637232,237.93869501962138 589.7489070300977,237.59386415208485 589.8326033549672,237.32339740951102 589.8964803149096,237.11865214332727 589.9411122648936,236.9702896722872 589.9693129117541,236.86593205651468 589.9851389696096,236.79271276781787 589.993508389893,236.7381350542645 590.0001827679863,236.6901088423333 590.0103243775652,236.63935709341263 590.023874577438,236.58635995586735 590.0392407516867,236.53390702521835 590.0546417903423,236.48467070063248 590.0681133394186,236.44119807543507 590.0779920100298,236.4052441696765 590.0844486237509,236.37585530395575 590.0882141760351,236.3514618216268 590.090121614569,236.33055765468123 590.0911028605593,236.31170463691706 590.0913856329091,236.29445706062518 590.0879625051962,236.28201400029525 590.0767711868937,236.27825733834334 590.0534736172058,236.2867916072778 590.0134680475878,236.3109319543994 589.9527327448192,236.35288984713475 589.8704435610147,236.41147087891613 589.7666810249235,236.4846833729065 589.6416256419274,236.57057344754128 589.4955557524916,236.6672287996097 589.3331423022701,236.7693027346196 589.176818152888,236.85818296039042 589.054689687533,236.91351944160215 588.9962805184654,236.91691615551235 589.032445963176,236.85199240130157 589.1833103191289,236.71251840577338 589.4211387906399,236.52502066335182 589.7043227511832,236.32159432878439 589.9891960789802,236.13132196217293 590.2301686731388,235.98018719118636 590.3909522478843,235.88484615802554 590.4788123222103,235.83566569010304 590.4999999999999,235.82440000198733 590.4999999999999,235.82440000198733 590.4999999999999,235.82440000198733 590.491470291572,235.82819767285673 590.4893192463053,235.82893371294892 590.4914690714819,235.82784672083926 590.4957686039932,235.8260242827322 590.4999999999999,235.82440000198733 590.4999999999999,235.82440000198733 590.4999999999999,235.82440000198733 590.4999999999999,235.82440000198733 590.4999999999999,235.82440000198733 590.4999999999999,235.82440000198733 590.4993495513048,235.82456217706135 590.4991882829747,235.8245874016286 590.4993538404887,235.82453734743137 590.499680564326,235.82446209399234 590.4999999999999,235.82440000198733 590.4999999999999,235.82440000198733 590.4999999999999,235.82440000198733 590.4999999999999,235.82440000198733 590.4999999999999,235.82440000198733 590.4999999999999,235.82440000198733 590.4999519874664,235.82440335935064 590.4999402703412,235.82440313228608 590.4999526002979,235.8244016572213 590.4999766398516,235.82440040974018 590.4999999999999,235.82440000198733 590.4999999999999,235.82440000198733 590.4999999999999,235.82440000198733 590.4999999999999,235.82440000198733 590.4999999999999,235.82440000198733 590.4999999999999,235.82440000198733 590.4999965633674,235.82439964078276 590.4999957377272,235.824399478646 590.4999966279195,235.82439952807226 590.4999983432133,235.8243997395781 590.4999999999999,235.82440000198733 590.4999999999999,235.82440000198733 590.4999999999999,235.82440000198733 590.4999999999999,235.82440000198733 590.4999999999999,235.82440000198733 590.4999999999999,235.82440000198733 590.4999997615126,235.8243999336022 590.4999997051564,235.82439991184458 590.4999997674821,235.82439992643765 590.4999998861267,235.82439996277765 590.4999999999999,235.82440000198733 590.4999999999999,235.82440000198733 590.4999999999999,235.82440000198733 590.4999999999999,235.82440000198733 590.4999999999999,235.82440000198733 590.4999999999999,235.82440000198733 590.49999998399,235.82439999417863 590.4999999802766,235.82439999193775 590.4999999845014,235.8243999937465 590.4999999924373,235.82439999779524 590.4999999999999,235.82440000198733 590.4999999999999,235.82440000198733 590.4999999999999,235.82440000198733 590.4999999999999,235.82440000198733 590.4999999999999,235.82440000198733 590.4999999999999,235.82440000198733 590.4999999989653,235.82440000123563 590.4999999987307,235.82440000103088 590.4999999990068,235.82440000121142 590.4999999995175,235.8244000015966 590.4999999999999,235.82440000198733 590.4999999999999,235.82440000198733 590.4999999999999,235.82440000198733 590.4999999999999,235.82440000198733 590.4999999999999,235.82440000198733 590.4999999999999,235.82440000198733 590.4999999999362,235.82440000192116 590.4999999999221,235.82440000190388 590.4999999999394,235.82440000192003 590.4999999999707,235.82440000195368 590.4999999999999,235.82440000198733 590.4999999999999,235.82440000198733 590.4999999999999,235.82440000198733 590.4999999999999,235.82440000198733 590.4999999999999,235.82440000198733 590.4999999999999,235.82440000198733 590.4999999999962,235.82440000198187 590.4999999999955,235.8244000019804 590.4999999999965,235.82440000198187 590.4999999999983,235.8244000019845 590.4999999999999,235.82440000198733 590.4999999999999,235.82440000198733 590.4999999999999,235.82440000198733 590.4999999999999,235.82440000198733 590.4999999999999,235.82440000198733 590.4999999999999,235.82440000198733 590.4999999999997,235.82440000198687 590.4999999999997,235.82440000198665 590.4999999999998,235.82440000198687 590.4999999999999,235.8244000019871 590.4999999999999,235.82440000198733 590.4999999999999,235.82440000198733 590.4999999999999,235.82440000198733 590.4999999999999,235.82440000198733 590.4999999999999,235.82440000198733 590.4999999999999,235.82440000198733 590.4999999999999,235.82440000198733 590.4999999999999,235.82440000198733 590.4999999999999,235.82440000198733 590.4999999999999,235.82440000198733 590.4999999999999,235.82440000198733 590.4999999999999,235.82440000198733 590.4999999999999,235.82440000198733 590.4999999999999,235.82440000198733 590.4999999999999,235.82440000198733 590.4999999999999,235.82440000198733 590.4999999999999,235.82440000198733 590.4999999999999,235.82440000198733 590.4999999999999,235.82440000198733 590.4999999999999,235.82440000198733 590.4999999999999,235.82440000198733" stroke="black" stroke-dasharray="8.0,8.0" stroke-width="7.0" /></g><rect fill="white" height="111.60000000000001" stroke="none" width="1181" x="0" y="0" /><line stroke="black" stroke-width="3.0" x1="0" x2="1181" y1="111.60000000000001" y2="111.60000000000001" /><text font-family="Arial" font-size="62.0" text-anchor="start" x="40.0" y="77.5">LED</text><text font-family="Arial" font-size="62.0" text-anchor="middle" x="590.5" y="77.5" /><text font-family="Arial" font-size="62.0" text-anchor="end" x="1141.0" y="77.5">cd / klm</text><rect fill="none" height="1178.0" stroke="black" stroke-width="3.0" width="1178.0" x="1.5" y="1.5" /></svg>