<?xml version="1.0" encoding="utf-8" ?>
<svg baseProfile="full" height="1181" version="1.1" width="1181" xmlns="http://www.w3.org/2000/svg" xmlns:ev="http://www.w3.org/2001/xml-events" xmlns:xlink="http://www.w3.org/1999/xlink"><defs><clipPath id="plot_clip"><rect height="1069.4" width="1181.0" x="0" y="111.60000000000001" /></clipPath></defs><g clip-path="url(#plot_clip)" id="grid"><circle cx="590.4999999999999" cy="849.2477045871813" fill="none" r="117.01111091298705" stroke="black" stroke-width="3.0" /><text font-family="Arial" font-size="42.0" text-anchor="start" x="598.4999999999999" y="726.2365936741942">40</text><circle cx="590.4999999999999" cy="849.2477045871813" fill="none" r="234.0222218259741" stroke="black" stroke-width="3.0" /><text font-family="Arial" font-size="42.0" text-anchor="start" x="598.4999999999999" y="609.2254827612071">80</text><circle cx="590.4999999999999" cy="849.2477045871813" fill="none" r="351.0333327389611" stroke="black" stroke-width="3.0" /><text font-family="Arial" font-size="42.0" text-anchor="start" x="598.4999999999999" y="492.21437184822014">120</text><circle cx="590.4999999999999" cy="849.2477045871813" fill="none" r="468.0444436519482" stroke="black" stroke-width="3.0" /><text font-family="Arial" font-size="42.0" text-anchor="start" x="598.4999999999999" y="375.2032609352332">160</text><circle cx="590.4999999999999" cy="849.2477045871813" fill="none" r="585.0555545649353" stroke="black" stroke-width="3.0" /><text font-family="Arial" font-size="42.0" text-anchor="start" x="598.4999999999999" y="258.1921500222461">200</text><circle cx="590.4999999999999" cy="849.2477045871813" fill="none" r="702.0666654779222" stroke="black" stroke-width="3.0" /><text font-family="Arial" font-size="42.0" text-anchor="start" x="598.4999999999999" y="141.18103910925913">240</text><line stroke="black" stroke-width="3.0" x1="-2894.5296746546787" x2="4075.5296746546783" y1="849.247704587181" y2="849.2477045871815" /><line stroke="black" stroke-width="3.0" x1="-2427.6242311935684" x2="3608.6242311935684" y1="-893.267132740158" y2="2591.7625419145206" /><line stroke="black" stroke-width="3.0" x1="-1152.014837327339" x2="2333.0148373273387" y1="-2168.876526606388" y2="3867.3719357807504" /><line stroke="black" stroke-width="3.0" x1="590.4999999999999" x2="590.4999999999999" y1="-2635.7819700674977" y2="4334.27737924186" /><line stroke="black" stroke-width="3.0" x1="2333.0148373273387" x2="-1152.014837327339" y1="-2168.876526606388" y2="3867.3719357807504" /><line stroke="black" stroke-width="3.0" x1="3608.624231193568" x2="-2427.6242311935684" y1="-893.267132740158" y2="2591.7625419145206" /><line stroke="black" stroke-width="3.0" x1="4075.5296746546783" x2="-2894.5296746546783" y1="849.247704587181" y2="849.2477045871815" /></g><g clip-path="url(#plot_clip)" id="curves"><polyline fill="none" points="590.4999999999999,1132.3853402188815 595.4422830185961,1132.3909090909092 600.383314354307,1132.2687977117946 605.3172524929292,1131.9777247413485 610.2353730001465,1131.4766873140002 615.1260799818898,1130.7250867921668 619.9763168635301,1129.696125994953 624.7776227173234,1128.416538724475 629.5251984656592,1126.9264201597684 634.216970953001,1125.2657961586963 638.8535838092951,1123.474505358198 643.4361025174244,1121.5803433830135 647.9575158834624,1119.5640638283553 652.4067170093749,1117.3951557694252 656.7703976951351,1115.0437521206672 661.0330755994279,1112.4807263383427 665.1787288307587,1109.683382159248 669.196421063035,1106.6520994865402 673.0768759832737,1103.3931963522652 676.8110770752688,1099.9132734930934 680.390274973515,1096.2192053054805 683.8071795674869,1092.321217735862 687.0599514575883,1088.2419710063741 690.1493949427716,1084.0069674160154 693.0778640545259,1079.6413594421936 695.8492429326926,1075.1698851267836 698.4657040445865,1070.6102023486103 700.917106493242,1065.9534777782992 703.1890509475054,1061.184985058916 705.2659019734166,1056.2908724240235 707.1308248025197,1051.25821887381 708.7690082800397,1046.0803884655948 710.1779941613163,1040.772531009909 711.359428239881,1035.3549036804368 712.316045987741,1029.847419707159 713.0516540359911,1024.2696050216314 713.5702455955943,1018.6393655729045 713.8732201252917,1012.9694974810848 713.9616727608474,1007.2714395339882 713.8372092765696,1001.5564736177859 713.501937879618,995.8357059512659 712.9102089051237,990.0645416329596 711.816159868008,983.98294998761 709.9054053939487,977.2943251394644 706.8422283363893,969.7236088034567 702.2705194322555,961.0182240194367 695.9768435315352,951.1055083876669 688.3993829071534,940.5403560716694 680.1792342147747,929.9952497636978 672.0018790302587,920.0962071352877 664.5951198517688,911.4208923268369 658.5643095123304,904.3650956607095 653.8840440870188,898.7687471822372 650.3533600827119,894.3504464897698 647.7544260551823,890.8454800328094 645.8533118843893,888.0065108335037 644.4122713098723,885.6119907480097 643.2260950721057,883.4884310866606 642.0902501130083,881.4848707401369 640.7903086608035,879.4651705801988 639.102604923363,877.3084316230019 636.8665204859343,874.949086576905 634.2054672940185,872.4863137625832 631.3216935089857,870.047396321471 628.4254741017252,867.7451942434033 625.7344749090103,865.6778100683229 623.4284745713499,863.9084060297989 621.5120942329756,862.4115575869986 619.943632142594,861.1437041566322 618.679124694002,860.064657095987 617.6725002459834,859.1376858673103 616.8669194361453,858.32656302643 616.1680724531318,857.5877668915372 615.4701394434738,856.8818423353524 614.6648222666145,856.1768558698146 613.6416750551954,855.4484977297244 612.3255947258925,854.6894365310527 610.789875813197,853.9319915143363 609.1469579892946,853.2112378629911 607.5112729374678,852.5543610795924 605.998898919509,851.980578637964 604.6745835417571,851.4927380682758 603.3924061289866,851.0596141058712 601.9518231248924,850.6538116611089 600.1505876419409,850.2620222211518 597.7853655193338,849.8850914797656 594.8131178134956,849.5493071654158 591.8353870269214,849.3176892557456 590.5292349577263,849.2487254944011 590.5292483223884,849.2482151185476 590.5292527777282,849.2477045871813 595.0240309407183,849.1687373333738 602.3532055721469,848.8337815276581 612.290553476447,848.1057100701323 624.6055920176293,846.8628092679423 639.0642465518799,844.9988835612138 655.4080644357366,842.4255921120879 673.2908603325293,839.0822651544779 692.3445274820142,834.9343896849883 712.2016210892816,829.9720614443665 732.4964177960228,824.2099049657908 752.9037859579144,817.679606467546 773.2526079255501,810.4024386102966 793.4111941991266,802.401964223301 813.2495867061011,793.7099949996051 832.6399076746004,784.3665118704254 851.4576608639978,774.4192994560179 869.5849006484768,763.9228877270998 886.9076284877771,752.9390279778165 903.315146469916,741.5368118023379 918.7003709528782,729.7925386852075 932.985901248913,717.7796845910325 946.2001905808801,705.5354990579423 958.3978853940869,693.084317300624 969.6335660082295,680.446565437 979.9615774366905,667.6387884713264 989.4188531046352,654.6819797347329 997.9749020683408,641.6288719531115 1005.584872050477,628.5431631779444 1012.2069800568527,615.4917084808553 1017.8026516770211,602.5444036160121 1022.3667555573733,589.7559785055538 1026.0154701339745,577.1074350180786 1028.891386279219,564.5530095450735 1031.1323805285099,552.0374111241481 1032.8712080942475,539.496049992653 1034.2052231953814,526.8769900376259 1035.1094135472426,514.2104802948282 1035.5312739913595,501.5511668717593 1035.4215881971384,488.95730644137427 1034.7345851932453,476.4906279953369 1033.4470355013386,464.19972107085425 1031.6129087362158,452.06785756910836 1029.3024646823665,440.057786436486 1026.5825466865901,428.12768436265935 1023.5163882288956,416.23131635828554 1020.14664559144,404.3355788588117 1016.4473235591819,392.4751226835551 1012.3783559957294,380.7043226827585 1007.9031081749916,369.0803558668172 1002.9884982443142,357.6630549007291 997.6096955485732,346.5090991563975 991.763182056615,335.65425240664877 985.4516831935823,325.12911861487305 978.6794114914394,314.964580711224 971.4520850301426,305.19174368713027 963.7881030224484,295.82533303593664 955.7497140808237,286.8124668308268 947.4053965551162,278.0796748789396 938.8179465262713,269.5492928490429 930.044304286192,261.13971814286936 921.1179516987794,252.79713097256194 912.0008559918076,244.59253609188863 902.6435012570317,236.63158979497007 893.0035762178156,229.02346017631828 883.046125698266,221.8805134589902 872.754021336374,215.29479308333987 862.1558295596657,209.26667582922857 851.2891663699892,203.77186739142587 840.1894964993405,198.78432768784796 828.8900697639202,194.27637088859797 817.4229358811497,190.21564580701283 805.8277403787455,186.537062926369 794.1367159590166,183.18201897312065 782.3805276119733,180.08078110137058 770.5842067056882,177.1642955208165 758.7628805179827,174.3821515838357 746.9095104404314,171.7636836058565 735.0148076487795,169.35898925724518 723.0729709816686,167.21889431432157 711.0817178763575,165.39480021672227 699.0449081513605,163.92212633626468 686.9780652692597,162.77060009608272 674.8965639909618,161.8928501140615 662.8124337327786,161.2408554817058 650.7343361230085,160.76609227908625 638.6667887107667,160.4305345769451 626.6093921988054,160.239456330988 614.561758599166,160.20909090909095 602.5246536232702,160.35575988685616 590.4999999999999,160.69582241970886" stroke="black" stroke-width="9.0" /><polyline fill="none" points="590.4999999999999,1132.3853402188815 585.5577169814037,1132.3909090909092 580.6166856456929,1132.2687977117946 575.6827475070706,1131.9777247413485 570.7646269998534,1131.4766873140002 565.8739200181101,1130.7250867921668 561.0236831364698,1129.696125994953 556.2223772826765,1128.416538724475 551.4748015343405,1126.9264201597684 546.7830290469989,1125.2657961586963 542.1464161907047,1123.474505358198 537.5638974825755,1121.5803433830135 533.0424841165374,1119.5640638283553 528.593282990625,1117.3951557694252 524.2296023048648,1115.0437521206672 519.966924400572,1112.4807263383427 515.8212711692412,1109.683382159248 511.80357893696475,1106.6520994865402 507.9231240167262,1103.3931963522652 504.188922924731,1099.9132734930934 500.6097250264849,1096.2192053054807 497.192820432513,1092.321217735862 493.94004854241143,1088.2419710063741 490.8506050572282,1084.0069674160154 487.922135945474,1079.6413594421936 485.15075706730715,1075.1698851267836 482.53429595541337,1070.6102023486103 480.08289350675784,1065.9534777782992 477.81094905249427,1061.184985058916 475.73409802658335,1056.2908724240237 473.86917519748005,1051.25821887381 472.2309917199602,1046.0803884655948 470.82200583868365,1040.772531009909 469.64057176011886,1035.3549036804368 468.683954012259,1029.847419707159 467.94834596400864,1024.2696050216314 467.42975440440557,1018.6393655729045 467.1267798747081,1012.9694974810847 467.0383272391524,1007.2714395339882 467.1627907234301,1001.5564736177859 467.49806212038175,995.8357059512659 468.0897910948761,990.0645416329596 469.18384013199193,983.98294998761 471.09459460605103,977.2943251394644 474.15777166361045,969.7236088034567 478.72948056774436,961.0182240194368 485.0231564684646,951.1055083876669 492.6006170928464,940.5403560716694 500.82076578522503,929.9952497636978 508.9981209697411,920.0962071352877 516.4048801482311,911.4208923268369 522.4356904876695,904.3650956607095 527.1159559129809,898.7687471822372 530.6466399172879,894.3504464897698 533.2455739448176,890.8454800328094 535.1466881156106,888.0065108335037 536.5877286901275,885.6119907480097 537.7739049278941,883.4884310866606 538.9097498869916,881.4848707401369 540.2096913391963,879.4651705801988 541.8973950766368,877.3084316230019 544.1334795140655,874.949086576905 546.7945327059813,872.4863137625832 549.678306491014,870.0473963214711 552.5745258982747,867.7451942434033 555.2655250909896,865.6778100683229 557.5715254286499,863.9084060297989 559.4879057670241,862.4115575869986 561.0563678574058,861.1437041566322 562.3208753059978,860.064657095987 563.3274997540163,859.1376858673103 564.1330805638546,858.32656302643 564.831927546868,857.5877668915372 565.5298605565259,856.8818423353524 566.3351777333854,856.1768558698146 567.3583249448044,855.4484977297243 568.6744052741072,854.6894365310527 570.2101241868029,853.9319915143363 571.8530420107053,853.2112378629911 573.488727062532,852.5543610795924 575.0011010804908,851.980578637964 576.3254164582428,851.4927380682758 577.6075938710131,851.0596141058712 579.0481768751074,850.6538116611089 580.8494123580589,850.2620222211518 583.214634480666,849.8850914797656 586.1868821865041,849.5493071654158 589.1646129730785,849.3176892557456 590.4707650422735,849.2487254944011 590.4707516776115,849.2482151185476 590.4707472222717,849.2477045871813 585.9759690592815,849.1687373333738 578.6467944278529,848.8337815276581 568.7094465235529,848.1057100701323 556.3944079823705,846.8628092679423 541.93575344812,844.9988835612138 525.5919355642632,842.4255921120879 507.7091396674705,839.0822651544778 488.6554725179856,834.9343896849883 468.79837891071816,829.9720614443667 448.503582203977,824.2099049657908 428.09621404208536,817.6796064675459 407.74739207444964,810.4024386102966 387.58880580087316,802.401964223301 367.7504132938986,793.7099949996051 348.36009232539936,784.3665118704256 329.542339136002,774.4192994560179 311.41509935152294,763.9228877270998 294.0923715122227,752.9390279778165 277.6848535300838,741.5368118023381 262.2996290471215,729.7925386852074 248.01409875108678,717.7796845910325 234.79980941911964,705.5354990579423 222.60211460591285,693.084317300624 211.36643399177032,680.4465654370002 201.03842256330944,667.6387884713263 191.58114689536472,654.6819797347329 183.02509793165893,641.6288719531115 175.4151279495227,628.5431631779446 168.79301994314727,615.4917084808553 163.1973483229788,602.5444036160121 158.6332444426266,589.7559785055538 154.98452986602533,577.1074350180786 152.10861372078068,564.5530095450736 149.86761947148983,552.037411124148 148.1287919057524,539.496049992653 146.7947768046182,526.8769900376259 145.8905864527569,514.2104802948285 145.4687260086405,501.55116687175916 145.57841180286135,488.95730644137427 146.26541480675436,476.4906279953369 147.55296449866108,464.19972107085437 149.38709126378367,452.0678575691086 151.6975353176336,440.057786436486 154.41745331340977,428.12768436265935 157.48361177110408,416.23131635828554 160.85335440855965,404.3355788588118 164.55267644081806,392.475122683555 168.62164400427045,380.7043226827585 173.09689182500807,369.0803558668172 178.0115017556854,357.6630549007292 183.3903044514263,346.5090991563976 189.2368179433848,335.65425240664854 195.54831680641755,325.12911861487305 202.32058850856035,314.964580711224 209.5479149698568,305.1917436871304 217.21189697755173,295.82533303593664 225.2502859191762,286.8124668308268 233.59460344488343,278.07967487893984 242.18205347372833,269.5492928490431 250.95569571380736,261.1397181428696 259.88204830122055,252.79713097256194 268.99914400819216,244.59253609188863 278.3564987429678,236.63158979497007 287.99642378218397,229.0234601763184 297.9538743017339,221.8805134589902 308.24597866362586,215.29479308333964 318.84417044033404,209.26667582922857 329.71083363001054,203.7718673914261 340.810503500659,198.78432768784796 352.10993023607966,194.27637088859797 363.57706411885016,190.21564580701283 375.17225962125417,186.537062926369 386.86328404098305,183.18201897312088 398.6194723880266,180.08078110137058 410.41579329431164,177.1642955208165 422.23711948201696,174.3821515838357 434.0904895595682,171.7636836058565 445.98519235121984,169.3589892572454 457.92702901833115,167.21889431432157 469.91828212364214,165.39480021672227 481.9550918486392,163.92212633626468 494.02193473073976,162.77060009608272 506.1034360090382,161.8928501140615 518.1875662672213,161.2408554817058 530.2656638769912,160.76609227908625 542.3332112892328,160.4305345769451 554.3906078011942,160.239456330988 566.438241400834,160.20909090909095 578.4753463767296,160.35575988685616 590.4999999999998,160.69582241970886" stroke="black" stroke-width="9.0" /><polyline fill="none" points="590.4999999999999,1132.3853402188815 595.4387906326768,1132.1908304355986 600.3696635951576,1131.8778911152865 605.2877332435497,1131.4144639090182 610.1858666502322,1130.7687135262877 615.0546926499204,1129.9091258540016 619.8837457492831,1128.8153706760745 624.6663779406991,1127.5105227253453 629.3990006423609,1126.028475988841 634.0803247770162,1124.4030461580978 638.7113524460573,1122.6678712136884 643.2930649649976,1120.8444789682412 647.8178577168495,1118.907023812674 652.2735562811747,1116.818373287824 656.6453297555307,1114.5421320131054 660.9157223714554,1112.0427581291174 665.067062606116,1109.2939557545396 669.0897759384166,1106.3032790014333 672.9773048872621,1103.0867480292923 676.7240249274212,1099.6604556983893 680.3252422185116,1096.0405292795838 683.7764213603162,1092.2410898667126 687.0705958566607,1088.2683168185804 690.2001869881635,1084.126625976317 693.1577100465474,1079.8206964765232 695.9357822392149,1075.3554692685163 698.5289123225533,1070.7397985237455 700.9393615715487,1065.9971558287846 703.1726800172037,1061.1541958170353 705.2360262371341,1056.2369751690462 707.1381379969519,1051.270885698132 708.8837193666382,1046.2712997734188 710.4553730125176,1041.2164299631122 711.8280974189014,1036.07659092883 712.9746101675953,1030.8237812554717 713.8654211801239,1025.4317849464767 714.4717782383287,1019.8802188030786 714.7749012074719,1014.166068691945 714.758394028292,1008.2911962534439 714.4055476245943,1002.2583130277112 713.6993727718807,996.0709996934233 712.5872269053211,989.6929933442856 710.868984341938,982.931004994617 708.2937123572198,975.5659959567116 704.594343340314,967.3958557481058 699.4884087884805,958.2361133756617 692.8372249124933,948.073613930083 685.1431232903205,937.5038448545919 677.1106949700642,927.2323246176737 669.4916368066639,917.9140868616104 663.0825172236138,910.1516680194342 658.4980824326683,904.311466029034 655.4706186672859,900.0083150971808 653.4786413847226,896.7055148726105 651.9665257671805,893.9057496057752 650.3462755113688,891.152517834017 648.1392419452981,888.125864183626 645.4106979889314,884.9071288089687 642.3736357320882,881.6619497282718 639.25157893676,878.540608485694 636.2779030995657,875.6775892646522 633.6406798883575,873.1609739351242 631.3144375528036,870.9491259819654 629.2160126633307,868.9744983420968 627.258202721369,867.1758779515034 625.3500506154205,865.4985500762413 623.4244381310614,863.9066088907961 621.521955768447,862.4157435604553 619.7119776907018,861.0501096827363 618.0655970672353,859.8291459055707 616.6554213293406,858.7674994157527 615.529415788219,857.8660235875733 614.6316308814398,857.0885467627833 613.8779244982373,856.3950533751164 613.1818493988343,855.7516202427731 612.4549224882622,855.130508337799 611.6232180899607,854.514314367172 610.6771541854125,853.905967676029 609.6236315201963,853.3125579497586 608.469843417422,852.7406883058162 607.2232543174256,852.1964655285927 605.8819318533343,851.6839632548817 604.4053847497199,851.2019789667648 602.7432059257025,850.7509812508125 600.844814175796,850.3349883700938 598.6596093816539,849.9615779068757 596.2096278621883,849.6469606609679 593.8078169748894,849.4210599291099 591.8411786989792,849.2945395793755 590.7632349014965,849.2522993694782 590.7632749995541,849.2477045871813 592.3177621675129,849.2159754305233 595.2106580094428,849.083204784679 599.1831233243727,848.79264137651 603.9749588894712,848.3054436709707 609.3253845019588,847.6006968567432 615.0204582288935,846.6705005766694 621.0330342514412,845.4987193835847 627.3819371832275,844.0642863500092 634.0851031908696,842.3445024118082 641.1595051114437,840.3150670066954 648.6087652828573,837.9525048278882 656.3864921181365,835.2430983620511 664.4338599274289,832.1787280828049 672.6921509094011,828.754899751555 681.1029072826426,824.9707287488852 689.6149448510878,820.8269514913931 698.2048069528739,816.3190405611057 706.855775684278,811.4414212969015 715.5509692662437,806.1892028001762 724.2733661578945,800.5581811681138 733.0042085898848,794.5454640683394 741.718253710534,788.1515642631309 750.388828286284,781.3789235863917 758.9895233758357,774.2313356062959 767.494247172726,766.7139316811604 775.8766812938511,758.8334559599824 784.1085857642603,750.5992028996658 792.1617152625488,742.0222685770524 800.0084859741155,733.1152544555634 807.6220357027277,723.8922388272118 814.9768350306565,714.3684145333133 822.0503545401906,704.5589846112774 828.8213788240787,694.479991557524 835.2694890312746,684.1485995724175 841.3751076942052,673.583063030526 847.123011972245,662.8001727245164 852.5124285766783,651.8071778559561 857.5460153747136,640.6084911590256 862.2262846004998,629.2080979182941 866.5555818702376,617.6095676554354 870.5356147757105,605.8164585464422 874.1661354438496,593.8335690032001 877.4463742142594,581.6658817198814 880.3754930576913,569.3181948497026 882.9525749963809,556.7951295908001 885.173913133179,544.1039348544851 887.0252923402231,531.263259350604 888.490792770965,518.295400831875 889.5556249082304,505.22356169101647 890.2061664546712,492.0718039921883 890.4312503663523,478.86345635377006 890.2257391469326,465.61625281317924 889.5864083954006,452.3466351090176 888.5106496423506,439.0712343115805 886.9964784323658,425.80684990794134 885.0368610828094,412.5788505575489 882.6038622197542,399.44720136005947 879.6678083217778,386.4824762427162 876.2033626997411,373.7574600074536 872.189623134152,361.34696535390015 867.6160143442362,349.3171809596979 862.4983080688867,337.69328807260126 856.8586823852727,326.48935630533515 850.7195313720713,315.71859976105895 844.1034377632802,305.3933772388116 837.0415111082852,295.5064043440574 829.5958233229949,285.9732435531257 821.8296111660067,276.68682518429443 813.7980928772422,267.5362846656967 805.5483132373232,258.4073198758307 797.1018454898384,249.23237756769265 788.4101718102759,240.14282696716884 779.4183780596258,231.32353303107743 770.084215859193,222.96311631398783 760.3782614600862,215.25340171666937 750.2972067961931,208.33611433672513 739.8960534032996,202.14230355752102 729.2357421470584,196.5473548212907 718.3680433434289,191.42364869047788 707.3354453625058,186.64096741586332 696.1654009819727,182.10261908850498 684.858268298335,177.85373928060187 673.4129918095031,173.97557591076747 661.8340288346441,170.54975626635428 650.1313681226236,167.65804806037602 638.3224134321143,165.35533050401511 626.4338627677229,163.58875739819075 614.4895210019582,162.27770503927866 602.5074608992114,161.3407303885125 590.4999999999999,160.6958224197091" stroke="black" stroke-dasharray="8.0,8.0" stroke-width="7.0" /><polyline fill="none" points="590.4999999999999,1132.3853402188815 585.5612093673228,1132.1908304355986 580.6303364048423,1131.8778911152865 575.71226675645,1131.4144639090182 570.8141333497676,1130.7687135262877 565.9453073500795,1129.9091258540016 561.1162542507168,1128.8153706760745 556.3336220593008,1127.5105227253453 551.6009993576388,1126.028475988841 546.9196752229836,1124.4030461580978 542.2886475539425,1122.6678712136884 537.7069350350023,1120.8444789682412 533.1821422831501,1118.907023812674 528.7264437188251,1116.818373287824 524.354670244469,1114.5421320131054 520.0842776285444,1112.0427581291174 515.9329373938838,1109.2939557545396 511.9102240615833,1106.3032790014333 508.0226951127377,1103.0867480292923 504.27597507257866,1099.6604556983893 500.67475778148827,1096.040529279584 497.22357863968347,1092.2410898667126 493.9294041433391,1088.2683168185804 490.7998130118363,1084.126625976317 487.8422899534524,1079.8206964765232 485.06421776078497,1075.3554692685166 482.47108767744635,1070.7397985237455 480.0606384284511,1065.9971558287848 477.8273199827961,1061.154195817035 475.7639737628658,1056.2369751690462 473.861862003048,1051.270885698132 472.11628063336167,1046.2712997734188 470.5446269874822,1041.2164299631122 469.1719025810984,1036.07659092883 468.0253898324046,1030.8237812554717 467.1345788198759,1025.4317849464767 466.5282217616711,1019.8802188030786 466.2250987925279,1014.166068691945 466.241605971708,1008.2911962534439 466.5944523754055,1002.2583130277112 467.3006272281192,996.0709996934233 468.4127730946787,989.6929933442856 470.13101565806176,982.931004994617 472.70628764278007,975.5659959567116 476.40565665968575,967.3958557481058 481.5115912115194,958.2361133756618 488.1627750875065,948.073613930083 495.8568767096793,937.5038448545919 503.88930502993554,927.2323246176737 511.5083631933359,917.9140868616104 517.917482776386,910.1516680194342 522.5019175673315,904.311466029034 525.5293813327139,900.0083150971808 527.5213586152773,896.7055148726105 529.0334742328192,893.9057496057753 530.6537244886309,891.152517834017 532.8607580547017,888.125864183626 535.5893020110685,884.9071288089687 538.6263642679116,881.6619497282719 541.7484210632398,878.540608485694 544.722096900434,875.6775892646523 547.3593201116423,873.1609739351242 549.6855624471962,870.9491259819654 551.7839873366692,868.9744983420968 553.7417972786308,867.1758779515034 555.6499493845793,865.4985500762413 557.5755618689384,863.9066088907961 559.4780442315528,862.4157435604553 561.288022309298,861.0501096827363 562.9344029327644,859.8291459055707 564.3445786706592,858.7674994157527 565.4705842117808,857.8660235875733 566.36836911856,857.0885467627833 567.1220755017624,856.3950533751164 567.8181506011656,855.7516202427731 568.5450775117375,855.130508337799 569.3767819100391,854.514314367172 570.3228458145873,853.905967676029 571.3763684798035,853.3125579497586 572.5301565825778,852.7406883058162 573.7767456825742,852.1964655285927 575.1180681466655,851.6839632548817 576.5946152502798,851.2019789667648 578.2567940742973,850.7509812508125 580.1551858242037,850.3349883700938 582.3403906183459,849.9615779068757 584.7903721378115,849.6469606609679 587.1921830251104,849.4210599291099 589.1588213010207,849.2945395793755 590.2367650985033,849.2522993694782 590.2367250004456,849.2477045871813 588.6822378324869,849.2159754305233 585.789341990557,849.083204784679 581.8168766756271,848.79264137651 577.0250411105287,848.3054436709707 571.674615498041,847.6006968567432 565.9795417711064,846.6705005766694 559.9669657485586,845.4987193835847 553.6180628167724,844.0642863500092 546.9148968091301,842.3445024118082 539.8404948885561,840.3150670066954 532.3912347171424,837.9525048278882 524.6135078818633,835.2430983620511 516.5661400725709,832.1787280828049 508.30784909059867,828.754899751555 499.89709271735717,824.9707287488853 491.38505514891204,820.8269514913931 482.7951930471259,816.3190405611057 474.14422431572183,811.4414212969015 465.44903073375616,806.1892028001763 456.7266338421053,800.5581811681138 447.99579141011503,794.5454640683394 439.28174628946584,788.1515642631309 430.61117171371563,781.3789235863918 422.0104766241641,774.231335606296 413.50575282727385,766.7139316811603 405.1233187061488,758.8334559599825 396.89141423573955,750.5992028996658 388.838284737451,742.0222685770525 380.99151402588427,733.1152544555633 373.3779642972721,723.8922388272118 366.02316496934327,714.3684145333133 358.94964545980923,704.5589846112774 352.178621175921,694.4799915575242 345.7305109687252,684.1485995724174 339.6248923057946,673.583063030526 333.87698802775486,662.8001727245164 328.4875714233214,651.8071778559563 323.45398462528624,640.6084911590254 318.7737153995,629.2080979182941 314.4444181297622,617.6095676554354 310.4643852242892,605.8164585464423 306.83386455615005,593.8335690032003 303.5536257857405,581.6658817198813 300.62450694230847,569.3181948497026 298.0474250036188,556.7951295908002 295.8260868668207,544.1039348544854 293.97470765977664,531.2632593506039 292.509207229035,518.295400831875 291.44437509176936,505.22356169101647 290.79383354532837,492.0718039921884 290.56874963364737,478.8634563537703 290.77426085306723,465.61625281317924 291.41359160459916,452.3466351090176 292.48935035764913,439.0712343115806 294.0035215676337,425.80684990794146 295.9631389171906,412.5788505575489 298.3961377802457,399.44720136005947 301.33219167822205,386.4824762427162 304.79663730025845,373.7574600074537 308.81037686584745,361.3469653539004 313.3839856557636,349.3171809596978 318.50169193111316,337.69328807260126 324.141317614727,326.48935630533515 330.2804686279283,315.7185997610592 336.8965622367198,305.39337723881135 343.95848889171447,295.5064043440573 351.40417667700495,285.9732435531257 359.170388833993,276.68682518429443 367.2019071227574,267.5362846656967 375.4516867626766,258.4073198758307 383.8981545101614,249.23237756769265 392.58982818972373,240.14282696716884 401.5816219403739,231.32353303107743 410.915784140807,222.96311631398783 420.6217385399137,215.25340171666937 430.70279320380666,208.33611433672513 441.1039465966999,202.14230355752102 451.764257852941,196.5473548212907 462.631956656571,191.42364869047788 473.66455463749406,186.64096741586332 484.834599018027,182.10261908850498 496.14173170166447,177.85373928060199 507.5870081904969,173.97557591076725 519.1659711653558,170.54975626635428 530.8686318773761,167.65804806037602 542.6775865678852,165.35533050401511 554.5661372322764,163.58875739819075 566.5104789980417,162.27770503927866 578.4925391007885,161.3407303885125 590.4999999999998,160.6958224197091" stroke="black" stroke-dasharray="8.0,8.0" stroke-width="7.0" /></g><rect fill="white" height="111.60000000000001" stroke="none" width="1181" x="0" y="0" /><line stroke="black" stroke-width="3.0" x1="0" x2="1181" y1="111.60000000000001" y2="111.60000000000001" /><text font-family="Arial" font-size="62.0" text-anchor="start" x="40.0" y="77.5">LED</text><text font-family="Arial" font-size="62.0" text-anchor="middle" x="590.5" y="77.5" /><text font-family="Arial" font-size="62.0" text-anchor="end" x="1141.0" y="77.5">cd / klm</text><rect fill="none" height="1178.0" stroke="black" stroke-width="3.0" width="1178.0" x="1.5" y="1.5" /></svg>