<?xml version="1.0" encoding="utf-8" ?>
<svg baseProfile="full" height="1181" version="1.1" width="1181" xmlns="http://www.w3.org/2000/svg" xmlns:ev="http://www.w3.org/2001/xml-events" xmlns:xlink="http://www.w3.org/1999/xlink"><defs><clipPath id="plot_clip"><rect height="1069.4" width="1181.0" x="0" y="111.60000000000001" /></clipPath></defs><g clip-path="url(#plot_clip)" id="grid"><circle cx="590.5" cy="160.3051013404546" fill="none" r="232.7513007902441" stroke="black" stroke-width="3.0" /><text font-family="Arial" font-size="42.0" text-anchor="start" x="598.5" y="433.05640213069876">80</text><circle cx="590.5" cy="160.3051013404546" fill="none" r="465.5026015804882" stroke="black" stroke-width="3.0" /><text font-family="Arial" font-size="42.0" text-anchor="start" x="598.5000000000001" y="665.8077029209428">160</text><circle cx="590.5" cy="160.3051013404546" fill="none" r="698.2539023707324" stroke="black" stroke-width="3.0" /><text font-family="Arial" font-size="42.0" text-anchor="start" x="598.5000000000001" y="898.559003711187">240</text><circle cx="590.5" cy="160.3051013404546" fill="none" r="931.0052031609764" stroke="black" stroke-width="3.0" /><text font-family="Arial" font-size="42.0" text-anchor="start" x="598.5000000000001" y="1131.310304501431">320</text><circle cx="590.5" cy="160.3051013404546" fill="none" r="1163.7565039512206" stroke="black" stroke-width="3.0" /><text font-family="Arial" font-size="42.0" text-anchor="start" x="598.5000000000002" y="1364.061605291675">400</text><line stroke="black" stroke-width="3.0" x1="-4269.929038752272" x2="5450.929038752272" y1="160.30510134045426" y2="160.30510134045494" /><line stroke="black" stroke-width="3.0" x1="-3618.7550208510474" x2="4799.755020851047" y1="-2269.9094180356824" y2="2590.519620716592" /><line stroke="black" stroke-width="3.0" x1="-1839.7145193761357" x2="3020.7145193761357" y1="-4048.949919510593" y2="4369.560122191502" /><line stroke="black" stroke-width="3.0" x1="590.5" x2="590.5" y1="-4700.123937411818" y2="5020.734140092727" /><line stroke="black" stroke-width="3.0" x1="3020.714519376136" x2="-1839.7145193761362" y1="-4048.949919510593" y2="4369.560122191502" /><line stroke="black" stroke-width="3.0" x1="4799.755020851047" x2="-3618.7550208510474" y1="-2269.9094180356824" y2="2590.519620716592" /><line stroke="black" stroke-width="3.0" x1="5450.929038752272" x2="-4269.929038752272" y1="160.30510134045426" y2="160.30510134045494" /></g><g clip-path="url(#plot_clip)" id="curves"><polyline fill="none" points="590.5000000000001,1132.3909090909092 607.4614087032634,1132.0235551540504 624.4072645280728,1131.2821164971635 641.3242175565845,1130.0889435844788 658.1934790690402,1128.3669532625104 674.9908438960267,1126.039866176484 691.6880904622174,1123.0454724248316 708.2589453366799,1119.3747471552986 724.678189520398,1115.0325284582254 740.9207665730414,1110.0244441295752 756.9618044812099,1104.3569067554988 772.7789624558321,1098.0490696695058 788.3610949245749,1091.1683660169845 803.7041945355805,1083.7939262675065 818.8094570982756,1076.0043188161378 833.6832449773507,1067.8773271453954 848.3253216708597,1059.4488521233388 862.6879436648891,1050.5917495965712 876.7011039777432,1041.1415273741377 890.2829926328477,1030.9381294869822 903.3401879900175,1019.8264537409667 915.7942611639347,1007.7256239062707 927.6707565865977,994.8320083243678 939.0367693818638,981.4062740652862 949.9767025087297,967.7029945368866 960.5919771595621,953.969907584201 970.9665281161161,940.3770855292654 981.0541495191576,926.8107781553825 990.7639342861959,913.0920756761482 999.9922754536902,899.0487216736718 1008.6231649133741,884.5156667919192 1016.5571498708381,869.3832741792297 1023.8042048576883,853.73678195289 1030.4095139459034,837.7063491144537 1036.4263333376869,821.4180779789103 1041.9157998318715,804.9936760822396 1046.9247676681719,788.5198996141822 1051.4155205884783,771.9606561418703 1055.324273244293,755.2530403197164 1058.5822470898206,738.3385372962117 1061.1158624733876,721.1632461749365 1062.867960582711,703.7022797782246 1063.8644278472586,686.0295589825802 1064.1570324984464,668.2400822749327 1063.8030821670447,650.4247905349382 1062.865238853764,632.6703401942185 1061.3940541238067,615.0422035312098 1059.3736448716463,597.5368486756173 1056.7694082395253,580.1359622516837 1053.54481286649,562.8238161798906 1049.6615140027816,545.5873583909902 1045.0965611951522,528.4301381416458 1039.8956990691825,511.41150163714485 1034.1254260993858,494.6008379062248 1027.8562050075654,478.062984165482 1021.1622634975204,461.85806466387476 1014.1061940709478,446.03108702851466 1006.6917451176757,430.58318084599614 998.9068471308498,415.5060232224404 990.7385057475622,400.7926576626005 982.1728678267064,386.4375370144761 973.1875576780784,372.43227843976695 963.7279630780196,358.7539294688397 953.729533315832,345.37979257285554 943.1255719026278,332.29208431904044 931.8474559121721,319.47803412402607 919.8574263446117,306.9444752684691 907.2485016103074,294.7568633461575 894.1502075024229,282.9877486517207 880.6961632894192,271.70097153252743 867.0237036437221,260.95149853581813 853.2493566356324,250.77696020419694 839.394908639467,241.17595944950722 825.4576471314577,232.13886291187862 811.4342433149992,223.65697616714442 797.3208018520348,215.72256817466473 783.1182355150817,208.33022131260725 768.8484676834428,201.48008946454695 754.5387808861341,195.17262058615347 740.2164966790691,189.40704024794832 725.9089299338827,184.18134911666016 711.6367648640214,179.49128004616762 697.3941372235287,175.3280926106413 683.1681365860478,171.68331780086294 668.9454190779923,168.5500471227425 654.7122828737331,165.92294815102605 640.5657014601967,163.80603623128172 627.0472199847188,162.22045997882253 614.8109056097019,161.15405687138662 604.51077384539,160.54966030762046 596.798832077636,160.3051013404546 592.0922871683273,160.2773078645472 590.5,160.3051013404546 590.5,160.3051013404546 590.5,160.3051013404546 590.74635721256,160.28354787717774 591.1954952167705,160.23200184756502 591.281942213727,160.20909090909072 591.1309953436297,160.2164207281677 590.8673269663934,160.24692246446637 590.6146076427709,160.28489292083862 590.5,160.3051013404546 590.5,160.3051013404546 590.5,160.3051013404546 590.5,160.3051013404546 590.5421538423504,160.29380625243903 590.564409824551,160.28663212046706 590.562090788821,160.286118281276 590.5445130051386,160.29063818834652 590.520828984805,160.2979293458294 590.5,160.3051013404546 590.5,160.3051013404546 590.5,160.3051013404546 590.5,160.3051013404546 590.5,160.3051013404546 590.5,160.3051013404546 590.5028820215446,160.3036956846264 590.5035505016123,160.30329226952472 590.5027899626041,160.30361789102403 590.5013613951708,160.3043467067888 590.5,160.3051013404546 590.5,160.3051013404546 590.5,160.3051013404546 590.5,160.3051013404546 590.5,160.3051013404546 590.5,160.3051013404546 590.5001862514171,160.3049660208793 590.5002284874504,160.30492916281105 590.500178772414,160.30496166813725 590.5000868505247,160.3050310102866 590.5,160.3051013404546 590.5,160.3051013404546 590.5,160.3051013404546 590.5,160.3051013404546 590.5,160.3051013404546 590.5,160.3051013404546 590.5000114820153,160.30508945047973 590.5000140088334,160.30508631782004 590.5000108989375,160.30508923595823 590.5000052640218,160.30509528489029 590.5,160.3051013404546 590.5,160.3051013404546 590.5,160.3051013404546 590.5,160.3051013404546 590.5,160.3051013404546 590.5,160.3051013404546 590.5000006636108,160.3051003566112 590.5000008032159,160.30510010361058 590.5000006197092,160.30510034871259 590.500000296701,160.30510084666116 590.5,160.3051013404546 590.5,160.3051013404546 590.5,160.3051013404546 590.5,160.3051013404546 590.5,160.3051013404546 590.5,160.3051013404546 590.5000000346554,160.3051012626172 590.5000000413722,160.3051012429877 590.500000031453,160.3051012626056 590.5000000148225,160.30510130184075 590.5,160.3051013404546 590.5,160.3051013404546 590.5,160.3051013404546 590.5,160.3051013404546 590.5,160.3051013404546 590.5,160.3051013404546 590.5000000014809,160.30510133451503 590.500000001712,160.30510133303937 590.5000000012554,160.30510133454789 590.5000000005682,160.30510133753137 590.5,160.3051013404546 590.5,160.3051013404546 590.5,160.3051013404546 590.5,160.3051013404546 590.5,160.3051013404546 590.5,160.3051013404546 590.5000000000347,160.3051013399595 590.5000000000347,160.30510133979374 590.5000000000202,160.30510133987593 590.5000000000058,160.30510134012388 590.5,160.3051013404546" stroke="black" stroke-width="9.0" /><polyline fill="none" points="590.5000000000001,1132.3909090909092 573.5385912967364,1132.0235551540504 556.5927354719274,1131.2821164971635 539.6757824434158,1130.0889435844788 522.80652093096,1128.3669532625104 506.0091561039735,1126.039866176484 489.3119095377829,1123.0454724248316 472.74105466332037,1119.3747471552988 456.3218104796018,1115.0325284582252 440.0792334269588,1110.0244441295754 424.03819551878985,1104.3569067554988 408.22103754416827,1098.0490696695058 392.63890507542493,1091.1683660169842 377.2958054644197,1083.7939262675065 362.19054290172465,1076.0043188161378 347.31675502264955,1067.8773271453954 332.6746783291406,1059.4488521233388 318.3120563351108,1050.591749596571 304.29889602225694,1041.1415273741377 290.7170073671522,1030.938129486982 277.6598120099826,1019.8264537409668 265.20573883606505,1007.7256239062707 253.32924341340257,994.8320083243681 241.9632306181364,981.4062740652862 231.0232974912706,967.7029945368869 220.4080228404381,953.969907584201 210.03347188388364,940.3770855292652 199.94585048084264,926.8107781553825 190.23606571380418,913.0920756761482 181.00772454630993,899.0487216736719 172.37683508662576,884.5156667919192 164.44285012916222,869.3832741792297 157.1957951423118,853.7367819528902 150.59048605409671,837.7063491144537 144.57366666231346,821.4180779789104 139.0842001681283,804.9936760822394 134.07523233182823,788.5198996141822 129.58447941152158,771.9606561418703 125.67572675570715,755.2530403197167 122.4177529101791,738.3385372962115 119.88413752661273,721.1632461749366 118.1320394172891,703.7022797782247 117.13557215274156,686.0295589825804 116.84296750155364,668.2400822749328 117.1969178329553,650.4247905349381 118.13476114623614,632.6703401942186 119.60594587619313,615.0422035312097 121.62635512835371,597.5368486756173 124.23059176047468,580.1359622516837 127.45518713351012,562.8238161798907 131.33848599721853,545.5873583909902 135.90343880484804,528.4301381416461 141.10430093081763,511.41150163714474 146.87457390061402,494.6008379062248 153.14379499243472,478.062984165482 159.8377365024797,461.858064663875 166.89380592905223,446.03108702851466 174.3082548823243,430.583180845996 182.09315286915034,415.5060232224406 190.26149425243807,400.79265766260073 198.82713217329388,386.43753701447645 207.81244232192174,372.43227843976695 217.2720369219806,358.7539294688397 227.27046668416804,345.37979257285565 237.87442809737234,332.29208431904067 249.152544087828,319.47803412402607 261.1425736553884,306.944475268469 273.7514983896927,294.7568633461575 286.84979249757725,282.9877486517207 300.30383671058087,271.70097153252755 313.9762963562778,260.9514985358179 327.75064336436765,250.77696020419694 341.60509136053327,241.17595944950722 355.5423528685424,232.13886291187862 369.56575668500074,223.65697616714442 383.67919814796517,215.7225681746645 397.88176448491834,208.33022131260725 412.15153231655734,201.48008946454695 426.461219113866,195.17262058615347 440.7835033209309,189.40704024794832 455.0910700661173,184.18134911666016 469.3632351359787,179.49128004616762 483.6058627764714,175.3280926106413 497.8318634139522,171.68331780086294 512.0545809220077,168.5500471227425 526.2877171262669,165.92294815102605 540.4342985398033,163.80603623128172 553.9527800152813,162.22045997882253 566.1890943902981,161.15405687138662 576.48922615461,160.54966030762046 584.2011679223641,160.3051013404546 588.9077128316728,160.2773078645472 590.5,160.3051013404546 590.5,160.3051013404546 590.5,160.3051013404546 590.2536427874401,160.28354787717774 589.8045047832295,160.23200184756502 589.718057786273,160.20909090909072 589.8690046563704,160.2164207281677 590.1326730336066,160.24692246446637 590.3853923572291,160.28489292083862 590.5,160.3051013404546 590.5,160.3051013404546 590.5,160.3051013404546 590.5,160.3051013404546 590.4578461576496,160.29380625243903 590.435590175449,160.28663212046706 590.437909211179,160.286118281276 590.4554869948614,160.29063818834652 590.479171015195,160.2979293458294 590.5,160.3051013404546 590.5,160.3051013404546 590.5,160.3051013404546 590.5,160.3051013404546 590.5,160.3051013404546 590.5,160.3051013404546 590.4971179784555,160.3036956846264 590.4964494983878,160.30329226952472 590.4972100373959,160.30361789102403 590.4986386048292,160.3043467067888 590.5,160.3051013404546 590.5,160.3051013404546 590.5,160.3051013404546 590.5,160.3051013404546 590.5,160.3051013404546 590.5,160.3051013404546 590.4998137485829,160.3049660208793 590.4997715125496,160.30492916281105 590.4998212275862,160.30496166813725 590.4999131494753,160.3050310102866 590.5,160.3051013404546 590.5,160.3051013404546 590.5,160.3051013404546 590.5,160.3051013404546 590.5,160.3051013404546 590.5,160.3051013404546 590.4999885179848,160.30508945047973 590.4999859911666,160.30508631782004 590.4999891010625,160.30508923595823 590.4999947359782,160.30509528489029 590.5,160.3051013404546 590.5,160.3051013404546 590.5,160.3051013404546 590.5,160.3051013404546 590.5,160.3051013404546 590.5,160.3051013404546 590.4999993363894,160.3051003566112 590.4999991967841,160.30510010361058 590.4999993802909,160.30510034871259 590.499999703299,160.30510084666116 590.5,160.3051013404546 590.5,160.3051013404546 590.5,160.3051013404546 590.5,160.3051013404546 590.5,160.3051013404546 590.5,160.3051013404546 590.4999999653446,160.3051012626172 590.4999999586278,160.3051012429877 590.4999999685471,160.3051012626056 590.4999999851775,160.30510130184075 590.5,160.3051013404546 590.5,160.3051013404546 590.5,160.3051013404546 590.5,160.3051013404546 590.5,160.3051013404546 590.5,160.3051013404546 590.4999999985191,160.30510133451503 590.499999998288,160.30510133303937 590.4999999987446,160.30510133454789 590.4999999994318,160.30510133753137 590.5,160.3051013404546 590.5,160.3051013404546 590.5,160.3051013404546 590.5,160.3051013404546 590.5,160.3051013404546 590.5,160.3051013404546 590.4999999999653,160.3051013399595 590.4999999999653,160.30510133979374 590.4999999999799,160.30510133987593 590.4999999999942,160.30510134012388 590.5,160.3051013404546" stroke="black" stroke-width="9.0" /><polyline fill="none" points="590.5000000000001,1132.3909090909092 607.4652366087759,1132.2428557139854 624.4253054421351,1131.7987406817072 641.3750402988145,1131.0586992758151 658.3092781253816,1130.0229569200908 675.1467895420886,1127.8223330673598 691.8360397759204,1124.4531161161553 708.3619626871275,1120.2137561454358 724.7105221353073,1115.2625869673964 740.8784874707765,1109.757504383611 756.8733926453904,1103.855498318376 772.7039314195281,1097.6630684503664 788.3443948523088,1091.0897983541713 803.7513294223598,1083.9980898924284 818.8714648880361,1076.2530184770403 833.6418296546266,1067.7227630567772 848.0058758371184,1058.3348121087247 861.9693770588792,1048.2414241317485 875.5660597312976,1037.6482203828864 888.8434116947977,1026.7572828674022 901.8625084227122,1015.7665624966054 914.6697702837815,1004.7962250110356 927.2024349941889,993.672871707826 939.3549161464126,982.1557808732277 951.004588987571,970.0116653677632 962.0121211274662,957.0154161514911 972.265015497475,943.0393791955072 981.8198615437943,928.3135726191259 990.7943580412775,913.1492944375057 999.3268299260669,897.8482261633075 1007.5757840598179,882.7015499386852 1015.6593418736928,867.8890707504904 1023.4605664989314,853.1868456218684 1030.7834072493713,838.2820943126686 1037.4098637637433,822.8762217999266 1043.1006182041338,806.6857720789372 1047.6671004184311,789.5416329906126 1051.2000190997649,771.6746760072218 1053.879149655352,753.4033664745665 1055.9048010802267,735.0321668321877 1057.4971790087102,716.8506671554463 1058.8390975159941,699.0676029892537 1059.896393751608,681.6226106566818 1060.5717489603899,664.3953363921541 1060.7593261708355,647.2728889330821 1060.3451072497576,630.1502085902123 1059.2320758772876,612.954405407169 1057.4183971948667,595.7135507198846 1054.928891325869,578.4787533790293 1051.790969218754,561.2992231567106 1048.034546207315,544.2221703138769 1043.693221529663,527.2937360873835 1038.8081351103415,510.56180354819594 1033.4243016233045,494.07250271764724 1027.589255027761,477.869033652304 1021.3529222013735,461.9915653255381 1014.7458064402056,446.4625110190568 1007.7117782923609,431.2455981349501 1000.169652320861,416.2951114831104 992.0346165252879,401.5714395868333 983.2185046240564,387.04123570090076 973.6601092254889,372.6942180397748 963.4178587735217,358.58904408533965 952.5837543655107,344.7959890381717 941.2536675064972,331.3790955423681 929.5270684323318,318.3960196722895 917.48872177334,305.8898600463175 905.1532236102761,293.86747060218624 892.5170248208605,282.3279000167897 879.5762116628316,271.27106238210104 866.3265506017611,260.6977555798161 852.7734574802026,250.6130949838414 838.9622796430383,241.03538976740595 824.9493031810025,231.98344656949064 810.7918182649267,223.47276374834018 796.5479814089434,215.51549156104397 782.2683004611739,208.11830870307017 767.9700851353558,201.27729887455382 753.6620104247174,194.9862572715008 739.3524267695287,189.23908207181512 725.0493726131004,184.02978596954085 710.7614517951348,179.3526440756433 696.5004583201752,175.20249423160817 682.2788208940425,171.5741235641159 668.108741678387,168.4621087844929 654.0021944375308,165.86082346275748 640.0699602515023,163.77137062900874 626.8195844004646,162.2085301033659 614.8589285422538,161.15573386914468 604.7956209739016,160.55463233274327 597.2352407666177,160.3051013404546 592.5626238287998,160.26909810760037 590.5,160.3051013404546 590.5,160.3051013404546 590.5,160.3051013404546 590.7898320147765,160.27974432483472 591.1713779489991,160.23453667455078 591.233220786642,160.21507314812186 591.0870837709934,160.22259209723893 590.8441262790705,160.25059709234313 590.6146076427709,160.28489292083862 590.5,160.3051013404546 590.5,160.3051013404546 590.5,160.3051013404546 590.5116497516108,160.30219673115187 590.5562051231339,160.2900412231004 590.574136457583,160.28384305332634 590.5682693791175,160.2842292966543 590.547901303865,160.28953726335362 590.522164769905,160.29746939813424 590.5,160.3051013404546 590.5,160.3051013404546 590.5,160.3051013404546 590.5,160.3051013404546 590.5,160.3051013404546 590.5,160.3051013404546 590.5030543547368,160.3036116321125 590.5037628071996,160.30318409442498 590.5029567910452,160.30352918676851 590.501442801077,160.30430158275828 590.5,160.3051013404546 590.5,160.3051013404546 590.5,160.3051013404546 590.5,160.3051013404546 590.5,160.3051013404546 590.5,160.3051013404546 590.500197388496,160.30495792931777 590.5002421500726,160.30491886728657 590.5001894622787,160.30495331629947 590.5000920438335,160.30502680482778 590.5,160.3051013404546 590.5,160.3051013404546 590.5,160.3051013404546 590.5,160.3051013404546 590.5,160.3051013404546 590.5,160.3051013404546 590.5000121685932,160.3050887395076 590.5000148465048,160.30508541952736 590.5000115506497,160.3050885121586 590.5000055787889,160.30509492279225 590.5,160.3051013404546 590.5,160.3051013404546 590.5,160.3051013404546 590.5,160.3051013404546 590.5,160.3051013404546 590.5,160.3051013404546 590.500000703292,160.30510029778145 590.5000008512451,160.3051000296523 590.5000006567652,160.30510028941057 590.5000003144426,160.30510081713442 590.5,160.3051013404546 590.5,160.3051013404546 590.5,160.3051013404546 590.5,160.3051013404546 590.5,160.3051013404546 590.5,160.3051013404546 590.5000000367277,160.30510125796286 590.5000000438462,160.30510123715965 590.5000000333338,160.30510125795058 590.5000000157088,160.30510129953188 590.5,160.3051013404546 590.5,160.3051013404546 590.5,160.3051013404546 590.5,160.3051013404546 590.5,160.3051013404546 590.5,160.3051013404546 590.5000000015694,160.30510133415999 590.5000000018144,160.30510133259577 590.5000000013306,160.30510133419466 590.5000000006022,160.30510133735652 590.5,160.3051013404546 590.5,160.3051013404546 590.5,160.3051013404546 590.5,160.3051013404546 590.5,160.3051013404546 590.5,160.3051013404546 590.5000000000367,160.30510133992982 590.5000000000367,160.3051013397543 590.5000000000215,160.30510133984137 590.5000000000061,160.305101340104 590.5,160.3051013404546" stroke="black" stroke-dasharray="8.0,8.0" stroke-width="7.0" /><polyline fill="none" points="590.5000000000001,1132.3909090909092 573.5347633912239,1132.2428557139854 556.5746945578651,1131.7987406817072 539.6249597011857,1131.0586992758151 522.6907218746186,1130.0229569200908 505.8532104579116,1127.8223330673598 489.16396022407986,1124.4531161161553 472.6380373128727,1120.213756145436 456.28947786469257,1115.2625869673964 440.12151252922376,1109.757504383611 424.1266073546095,1103.855498318376 408.2960685804721,1097.6630684503664 392.6556051476909,1091.089798354171 377.2486705776403,1083.9980898924284 362.12853511196414,1076.2530184770403 347.35817034537365,1067.7227630567772 332.99412416288186,1058.3348121087247 319.03062294112067,1048.2414241317485 305.43394026870254,1037.6482203828866 292.15658830520226,1026.7572828674022 279.13749157728813,1015.7665624966054 266.3302297162183,1004.7962250110356 253.79756500581135,993.672871707826 241.64508385358755,982.1557808732277 229.99541101242934,970.0116653677632 218.98787887253403,957.0154161514912 208.73498450252492,943.0393791955072 199.18013845620592,928.3135726191261 190.2056419587224,913.1492944375057 181.6731700739334,897.8482261633075 173.4242159401819,882.701549938685 165.34065812630757,867.8890707504905 157.5394335010687,853.1868456218685 150.21659275062902,838.2820943126686 143.59013623625688,822.8762217999266 137.89938179586613,806.6857720789372 133.33289958156902,789.5416329906126 129.79998090023489,771.6746760072218 127.12085034464823,753.4033664745666 125.0951989197732,735.0321668321876 123.50282099128992,716.8506671554463 122.16090248400612,699.0676029892538 121.10360624839213,681.6226106566819 120.42825103961029,664.3953363921543 120.2406738291643,647.272888933082 120.65489275024235,630.1502085902124 121.7679241227124,612.9544054071689 123.58160280513341,595.7135507198847 126.07110867413074,578.4787533790293 129.2090307812461,561.2992231567106 132.96545379268517,544.2221703138769 137.30677847033712,527.2937360873838 142.19186488965826,510.5618035481958 147.57569837669558,494.07250271764724 153.4107449722391,477.869033652304 159.64707779862647,461.9915653255382 166.25419355979443,446.4625110190567 173.28822170763897,431.2455981349501 180.83034767913912,416.29511148311053 188.96538347471218,401.5714395868333 197.78149537594373,387.0412357009011 207.3398907745111,372.69421803977457 217.58214122647817,358.58904408533954 228.41624563448948,344.7959890381719 239.74633249350285,331.3790955423682 251.47293156766827,318.3960196722895 263.5112782266601,305.8898600463174 275.84677638972397,293.86747060218624 288.48297517913954,282.32790001678984 301.42378833716845,271.27106238210126 314.67344939823886,260.6977555798161 328.2265425197973,250.6130949838414 342.0377203569617,241.03538976740617 356.0506968189975,231.98344656949064 370.2081817350733,223.47276374834018 384.4520185910566,215.51549156104397 398.73169953882615,208.11830870307017 413.0299148646443,201.27729887455405 427.3379895752826,194.98625727150102 441.6475732304713,189.23908207181512 455.95062738689955,184.02978596954085 470.2385482048653,179.3526440756433 484.49954167982486,175.20249423160817 498.7211791059575,171.5741235641159 512.891258321613,168.4621087844929 526.9978055624694,165.86082346275748 540.9300397484977,163.77137062900874 554.1804155995354,162.208530103366 566.1410714577463,161.15573386914468 576.2043790260984,160.55463233274327 583.7647592333823,160.3051013404546 588.4373761712002,160.26909810760037 590.5,160.3051013404546 590.5,160.3051013404546 590.5,160.3051013404546 590.2101679852235,160.27974432483472 589.828622051001,160.23453667455078 589.766779213358,160.21507314812186 589.9129162290067,160.22259209723893 590.1558737209297,160.25059709234313 590.3853923572291,160.28489292083862 590.5,160.3051013404546 590.5,160.3051013404546 590.5,160.3051013404546 590.4883502483892,160.30219673115187 590.4437948768661,160.2900412231004 590.4258635424171,160.28384305332634 590.4317306208826,160.2842292966543 590.4520986961351,160.28953726335362 590.4778352300951,160.29746939813424 590.5,160.3051013404546 590.5,160.3051013404546 590.5,160.3051013404546 590.5,160.3051013404546 590.5,160.3051013404546 590.5,160.3051013404546 590.4969456452633,160.3036116321125 590.4962371928004,160.30318409442498 590.4970432089548,160.30352918676851 590.498557198923,160.30430158275828 590.5,160.3051013404546 590.5,160.3051013404546 590.5,160.3051013404546 590.5,160.3051013404546 590.5,160.3051013404546 590.5,160.3051013404546 590.4998026115042,160.30495792931777 590.4997578499274,160.30491886728657 590.4998105377213,160.30495331629947 590.4999079561665,160.30502680482778 590.5,160.3051013404546 590.5,160.3051013404546 590.5,160.3051013404546 590.5,160.3051013404546 590.5,160.3051013404546 590.5,160.3051013404546 590.4999878314069,160.3050887395076 590.4999851534952,160.30508541952736 590.4999884493503,160.3050885121586 590.4999944212111,160.30509492279225 590.5,160.3051013404546 590.5,160.3051013404546 590.5,160.3051013404546 590.5,160.3051013404546 590.5,160.3051013404546 590.5,160.3051013404546 590.499999296708,160.30510029778145 590.499999148755,160.3051000296523 590.4999993432348,160.30510028941057 590.4999996855574,160.30510081713442 590.5,160.3051013404546 590.5,160.3051013404546 590.5,160.3051013404546 590.5,160.3051013404546 590.5,160.3051013404546 590.5,160.3051013404546 590.4999999632723,160.30510125796286 590.4999999561538,160.30510123715965 590.4999999666662,160.30510125795058 590.4999999842912,160.30510129953188 590.5,160.3051013404546 590.5,160.3051013404546 590.5,160.3051013404546 590.5,160.3051013404546 590.5,160.3051013404546 590.5,160.3051013404546 590.4999999984306,160.30510133415999 590.4999999981857,160.30510133259577 590.4999999986694,160.30510133419466 590.4999999993978,160.30510133735652 590.5,160.3051013404546 590.5,160.3051013404546 590.5,160.3051013404546 590.5,160.3051013404546 590.5,160.3051013404546 590.5,160.3051013404546 590.4999999999633,160.30510133992982 590.4999999999633,160.3051013397543 590.4999999999786,160.30510133984137 590.4999999999939,160.305101340104 590.5,160.3051013404546" stroke="black" stroke-dasharray="8.0,8.0" stroke-width="7.0" /></g><rect fill="white" height="111.60000000000001" stroke="none" width="1181" x="0" y="0" /><line stroke="black" stroke-width="3.0" x1="0" x2="1181" y1="111.60000000000001" y2="111.60000000000001" /><text font-family="Arial" font-size="62.0" text-anchor="start" x="40.0" y="77.5">LED</text><text font-family="Arial" font-size="62.0" text-anchor="middle" x="590.5" y="77.5" /><text font-family="Arial" font-size="62.0" text-anchor="end" x="1141.0" y="77.5">cd / klm</text><rect fill="none" height="1178.0" stroke="black" stroke-width="3.0" width="1178.0" x="1.5" y="1.5" /></svg>