<?xml version="1.0" encoding="utf-8" ?>
<svg baseProfile="full" height="1181" version="1.1" width="1181" xmlns="http://www.w3.org/2000/svg" xmlns:ev="http://www.w3.org/2001/xml-events" xmlns:xlink="http://www.w3.org/1999/xlink"><defs><clipPath id="plot_clip"><rect height="1069.4" width="1181.0" x="0" y="111.60000000000001" /></clipPath></defs><g clip-path="url(#plot_clip)" id="grid"><circle cx="590.5" cy="160.26465315548114" fill="none" r="209.37459744463237" stroke="black" stroke-width="3.0" /><text font-family="Arial" font-size="42.0" text-anchor="start" x="598.5" y="409.63925060011354">80</text><circle cx="590.5" cy="160.26465315548114" fill="none" r="418.74919488926474" stroke="black" stroke-width="3.0" /><text font-family="Arial" font-size="42.0" text-anchor="start" x="598.5" y="619.0138480447458">160</text><circle cx="590.5" cy="160.26465315548114" fill="none" r="628.1237923338971" stroke="black" stroke-width="3.0" /><text font-family="Arial" font-size="42.0" text-anchor="start" x="598.5" y="828.3884454893782">240</text><circle cx="590.5" cy="160.26465315548114" fill="none" r="837.4983897785295" stroke="black" stroke-width="3.0" /><text font-family="Arial" font-size="42.0" text-anchor="start" x="598.5" y="1037.7630429340106">320</text><circle cx="590.5" cy="160.26465315548114" fill="none" r="1046.8729872231618" stroke="black" stroke-width="3.0" /><text font-family="Arial" font-size="42.0" text-anchor="start" x="598.5000000000001" y="1247.1376403786428">400</text><line stroke="black" stroke-width="3.0" x1="-4270.13127967714" x2="5451.13127967714" y1="160.2646531554808" y2="160.26465315548148" /><line stroke="black" stroke-width="3.0" x1="-3618.9301666296683" x2="4799.930166629669" y1="-2270.05098668309" y2="2590.580292994052" /><line stroke="black" stroke-width="3.0" x1="-1839.81563983857" x2="3020.81563983857" y1="-4049.1655134741873" y2="4369.69481978515" /><line stroke="black" stroke-width="3.0" x1="590.5" x2="590.5" y1="-4700.36662652166" y2="5020.895932832622" /><line stroke="black" stroke-width="3.0" x1="3020.8156398385695" x2="-1839.8156398385695" y1="-4049.1655134741873" y2="4369.69481978515" /><line stroke="black" stroke-width="3.0" x1="4799.930166629668" x2="-3618.930166629668" y1="-2270.05098668309" y2="2590.580292994052" /><line stroke="black" stroke-width="3.0" x1="5451.131279677141" x2="-4270.131279677141" y1="160.2646531554808" y2="160.26465315548148" /></g><g clip-path="url(#plot_clip)" id="curves"><polyline fill="none" points="590.5000000000001,1132.3909090909092 607.4078956534061,1128.9173463960053 624.1982832257324,1125.2572268069785 640.8772515905817,1121.5198767074455 657.4583773693382,1117.8140610053576 673.9626981307724,1114.2476581197902 690.4147378734915,1110.8898836319934 706.8254241518738,1107.6592058294234 723.1947319045195,1104.43673086879 739.5143343459337,1101.1041323404124 755.7676395586642,1097.5440127556662 771.9282995880252,1093.6323404117202 787.9545475597483,1089.2152628585188 803.7919733539601,1084.1336899166172 819.3749060205643,1078.2317623875686 834.6265508739468,1071.3573444935982 849.4736906403922,1063.413242469572 863.8975626712157,1054.5077869058096 877.902643885259,1044.7990387817845 891.5037900705245,1034.4431344999482 904.7261272798552,1023.5938424595573 917.5844665183203,1012.348820113563 930.0143631501479,1000.5921899344179 941.9205426829326,988.1595700341354 953.1957282559813,974.8925965563852 963.7208982043704,960.639452233547 973.3729719053382,945.2705782898785 982.0494455438521,928.7237084045622 989.6501079713239,910.9568248629963 996.0703503694002,891.9329333440422 1001.2013587999866,871.6202733346333 1004.9573568371821,850.0375284488306 1007.3631913327828,827.3852121315794 1008.4841299556304,803.9037703046777 1008.4001051876576,779.8270378440704 1007.2053925206698,755.3816288825662 1004.9618927641526,730.722509080323 1001.5507882963452,705.7474731871338 996.7961793191029,680.3000480669854 990.5096885222259,654.2354800980496 982.4909667468823,627.4212960405555 972.540379962952,599.7518365475715 960.4979770710542,571.1890369520785 946.2108588728953,541.7178480267798 929.5218625028535,511.33206881492447 910.269920673707,480.03457382918816 888.4991290608044,448.0390669917846 865.1131054504477,416.34551683913605 841.2963274783351,386.0826807120195 818.3090446504725,358.2960344247216 797.4836136279777,333.9445270104578 779.8941107221075,313.63297999941096 765.3360853126278,296.8615736049394 753.241203040984,282.8989458256159 742.9964745014811,271.0598272516921 733.9463663889162,260.7068802297922 725.5184540095962,251.33575031585133 717.6075704026324,242.80927452783772 710.2267171708104,235.07820932023685 703.3866029672914,228.0937672943263 697.0956820679481,221.80769889186274 691.3427579417751,216.1627066560676 686.043385972581,211.06597260997546 681.0900521977213,206.4225902212488 676.369635780493,202.1460728939088 671.7637898717201,198.15858070336276 667.1993517521881,194.41340470012483 662.8018521132095,190.95496854284977 658.7507723978762,187.8397551377294 655.229811378931,185.11209973847895 652.4263587815537,182.80400446845613 650.447052604403,180.90607870250528 649.0615791149197,179.29246365242022 647.9476721775225,177.82816911852876 646.7749660278297,176.40123999769492 645.2060095464951,174.92308423459383 642.9860513018898,173.35089550370606 640.2133358664944,171.74188108179635 637.0783524230346,170.16518759477594 633.7753169984376,168.6765226516702 630.501583008373,167.31801151090667 627.3915400665886,166.10769908163797 624.3181257569106,165.01748077742786 621.0868906256756,164.0202510903398 617.5017024869105,163.1026464462392 613.3653483288795,162.26511192182954 608.5896200303765,161.52960261347482 603.5253004213954,160.94728022506092 598.6350602498309,160.54873571926703 594.3829123098714,160.33242964196052 591.2328110910562,160.26465315548114 590.5,160.26465315548114 590.5,160.26465315548114 590.5,160.26465315548114 590.5,160.26465315548114 590.5,160.26465315548114 590.8648613659519,160.22630468063483 590.9525181829196,160.20909090909083 590.858007994912,160.2143384130461 590.675898189211,160.23679361922882 590.5,160.26465315548114 590.5,160.26465315548114 590.5,160.26465315548114 590.5,160.26465315548114 590.5,160.26465315548114 590.5,160.26465315548114 590.5253197884437,160.2573928229765 590.5313030420994,160.2550828550884 590.5246860259009,160.25663217944418 590.5120897247111,160.26049032942603 590.5,160.26465315548114 590.5,160.26465315548114 590.5,160.26465315548114 590.5,160.26465315548114 590.5,160.26465315548114 590.5,160.26465315548114 590.5016997440418,160.26382413491967 590.5020939968241,160.26358621080806 590.5016454499871,160.26377825420354 590.5008029167354,160.26420809146714 590.5,160.26465315548114 590.5,160.26465315548114 590.5,160.26465315548114 590.5,160.26465315548114 590.5,160.26465315548114 590.5,160.26465315548114 590.5001098464156,160.2645733473887 590.500134756169,160.2645516094242 590.5001054354871,160.26457078025055 590.5000512222616,160.26461167651144 590.5,160.26465315548114 590.5,160.26465315548114 590.5,160.26465315548114 590.5,160.26465315548114 590.5,160.26465315548114 590.5,160.26465315548114 590.5000067718047,160.26464614307213 590.5000082620586,160.264644295508 590.5000064279201,160.26464601655277 590.500003104588,160.2646495840612 590.5,160.26465315548114 590.5,160.26465315548114 590.5,160.26465315548114 590.5,160.26465315548114 590.5,160.26465315548114 590.5,160.26465315548114 590.5000003913809,160.2646525752349 590.5000004737166,160.2646524260216 590.5000003654889,160.2646525705767 590.5000001749868,160.26465286425423 590.5,160.26465315548114 590.5,160.26465315548114 590.5,160.26465315548114 590.5,160.26465315548114 590.5,160.26465315548114 590.5,160.26465315548114 590.5000000204388,160.2646531095745 590.5000000244003,160.26465309799755 590.5000000185502,160.2646531095677 590.500000008742,160.26465313270762 590.5,160.26465315548114 590.5,160.26465315548114 590.5,160.26465315548114 590.5,160.26465315548114 590.5,160.26465315548114 590.5,160.26465315548114 590.5000000008733,160.2646531519781 590.5000000010097,160.26465315110772 590.5000000007404,160.26465315199755 590.500000000335,160.26465315375708 590.5,160.26465315548114 590.5,160.26465315548114 590.5,160.26465315548114 590.5,160.26465315548114 590.5,160.26465315548114 590.5,160.26465315548114 590.5000000000205,160.26465315518908 590.5000000000205,160.2646531550913 590.5000000000118,160.26465315513985 590.5000000000034,160.26465315528594 590.5,160.26465315548114" stroke="black" stroke-width="9.0" /><polyline fill="none" points="590.5000000000001,1132.3909090909092 573.5921043465937,1128.9173463960053 556.8017167742677,1125.2572268069785 540.1227484094184,1121.5198767074455 523.5416226306619,1117.8140610053576 507.03730186922786,1114.2476581197902 490.58526212650867,1110.8898836319934 474.1745758481265,1107.6592058294234 457.8052680954803,1104.43673086879 441.48566565406657,1101.1041323404124 425.2323604413356,1097.5440127556662 409.0717004119749,1093.6323404117202 393.04545244025144,1089.2152628585186 377.20802664604014,1084.1336899166172 361.62509397943586,1078.2317623875686 346.3734491260533,1071.3573444935982 331.526309359608,1063.413242469572 317.10243732878405,1054.5077869058096 303.09735611474116,1044.7990387817845 289.49620992947536,1034.4431344999482 276.2738727201449,1023.5938424595573 263.41553348167963,1012.348820113563 250.9856368498522,1000.5921899344181 239.07945731706738,988.1595700341354 227.80427174401882,974.8925965563852 217.27910179562974,960.639452233547 207.6270280946615,945.2705782898784 198.95055445614798,928.7237084045622 191.34989202867584,910.9568248629961 184.92964963059995,891.9329333440422 179.79864120001318,871.6202733346333 176.04264316281782,850.0375284488306 173.63680866721728,827.3852121315796 172.51587004436965,803.9037703046778 172.5998948123427,779.8270378440706 173.79460747933007,755.3816288825661 176.03810723584746,730.722509080323 179.44921170365447,705.7474731871338 184.20382068089722,680.3000480669854 190.49031147777382,654.2354800980496 198.50903325311776,627.4212960405555 208.45962003704807,599.7518365475717 220.5020229289459,571.1890369520785 234.78914112710467,541.71784802678 251.4781374971464,511.33206881492447 270.7300793262929,480.0345738291884 292.5008709391954,448.0390669917846 315.88689454955227,416.3455168391363 339.70367252166477,386.0826807120195 362.69095534952737,358.2960344247216 383.5163863720223,333.9445270104578 401.1058892778926,313.6329799994111 415.6639146873721,296.8615736049394 427.7587969590158,282.8989458256159 438.00352549851897,271.05982725169235 447.05363361108374,260.7068802297922 455.4815459904037,251.33575031585133 463.3924295973675,242.80927452783772 470.7732828291895,235.07820932023685 477.6133970327086,228.0937672943263 483.90431793205187,221.80769889186286 489.65724205822494,216.1627066560676 494.95661402741905,211.06597260997546 499.90994780227857,206.4225902212488 504.63036421950693,202.1460728939088 509.23621012827977,198.15858070336276 513.8006482478119,194.41340470012483 518.1981478867904,190.95496854284977 522.2492276021238,187.8397551377294 525.7701886210689,185.11209973847895 528.5736412184461,182.80400446845613 530.552947395597,180.90607870250528 531.9384208850802,179.29246365242022 533.0523278224774,177.82816911852876 534.2250339721703,176.40123999769492 535.7939904535048,174.92308423459383 538.0139486981101,173.35089550370606 540.7866641335055,171.74188108179635 543.9216475769654,170.16518759477594 547.2246830015623,168.6765226516702 550.4984169916269,167.31801151090667 553.6084599334113,166.10769908163797 556.6818742430894,165.01748077742786 559.9131093743244,164.0202510903398 563.4982975130894,163.1026464462392 567.6346516711205,162.26511192182954 572.4103799696234,161.52960261347482 577.4746995786046,160.94728022506092 582.3649397501691,160.54873571926703 586.6170876901285,160.33242964196052 589.7671889089438,160.26465315548114 590.5,160.26465315548114 590.5,160.26465315548114 590.5,160.26465315548114 590.5,160.26465315548114 590.5,160.26465315548114 590.1351386340481,160.22630468063483 590.0474818170803,160.20909090909083 590.1419920050879,160.2143384130461 590.3241018107889,160.23679361922882 590.5,160.26465315548114 590.5,160.26465315548114 590.5,160.26465315548114 590.5,160.26465315548114 590.5,160.26465315548114 590.5,160.26465315548114 590.4746802115563,160.2573928229765 590.4686969579006,160.2550828550884 590.4753139740991,160.25663217944418 590.4879102752889,160.26049032942603 590.5,160.26465315548114 590.5,160.26465315548114 590.5,160.26465315548114 590.5,160.26465315548114 590.5,160.26465315548114 590.5,160.26465315548114 590.498300255958,160.26382413491967 590.4979060031759,160.26358621080806 590.4983545500128,160.26377825420354 590.4991970832644,160.26420809146714 590.5,160.26465315548114 590.5,160.26465315548114 590.5,160.26465315548114 590.5,160.26465315548114 590.5,160.26465315548114 590.5,160.26465315548114 590.4998901535844,160.2645733473887 590.4998652438309,160.2645516094242 590.4998945645128,160.26457078025055 590.4999487777383,160.26461167651144 590.5,160.26465315548114 590.5,160.26465315548114 590.5,160.26465315548114 590.5,160.26465315548114 590.5,160.26465315548114 590.5,160.26465315548114 590.4999932281953,160.26464614307213 590.4999917379413,160.264644295508 590.4999935720799,160.26464601655277 590.499996895412,160.2646495840612 590.5,160.26465315548114 590.5,160.26465315548114 590.5,160.26465315548114 590.5,160.26465315548114 590.5,160.26465315548114 590.5,160.26465315548114 590.499999608619,160.2646525752349 590.4999995262833,160.2646524260216 590.499999634511,160.2646525705767 590.4999998250131,160.26465286425423 590.5,160.26465315548114 590.5,160.26465315548114 590.5,160.26465315548114 590.5,160.26465315548114 590.5,160.26465315548114 590.5,160.26465315548114 590.499999979561,160.2646531095745 590.4999999755996,160.26465309799755 590.4999999814497,160.2646531095677 590.499999991258,160.26465313270762 590.5,160.26465315548114 590.5,160.26465315548114 590.5,160.26465315548114 590.5,160.26465315548114 590.5,160.26465315548114 590.5,160.26465315548114 590.4999999991265,160.2646531519781 590.4999999989902,160.26465315110772 590.4999999992594,160.26465315199755 590.4999999996649,160.26465315375708 590.5,160.26465315548114 590.5,160.26465315548114 590.5,160.26465315548114 590.5,160.26465315548114 590.5,160.26465315548114 590.5,160.26465315548114 590.4999999999795,160.26465315518908 590.4999999999795,160.2646531550913 590.4999999999881,160.26465315513985 590.4999999999966,160.26465315528594 590.5,160.26465315548114" stroke="black" stroke-width="9.0" /><polyline fill="none" points="590.5000000000001,1132.3909090909092 607.3930876359175,1128.0689956422534 624.137557568973,1123.5182715192395 640.7350201968466,1118.8059400422987 657.1915956274111,1113.9989043506716 673.5178982910483,1109.1635726874852 689.7260990799258,1104.3379231726938 705.8172796865967,1099.4485280547628 721.7834001966218,1094.3945839661737 737.6092735108507,1089.0760516073592 753.2726049342256,1083.3939682507714 768.7420011807651,1077.2402561445706 783.9694433836058,1070.4668217620306 798.8939402216232,1062.9179775724558 813.4433284782147,1054.4415042749233 827.5344171679251,1044.8891411686536 841.0917680460179,1034.182004546795 854.1127748026655,1022.50318788465 866.6276635982595,1010.0982175705108 878.6829815025463,997.2088027962271 890.3414022759034,984.0721353261353 901.6544655916064,970.8497488988187 912.571404680335,957.4193527410976 923.0030846485816,943.592831768538 932.846819067361,929.1881982099069 941.9866402850513,914.0301857134272 950.3059808192977,897.9762378524944 957.7286876695961,880.9915334987 964.1882579453904,863.0700496625437 969.6164515046099,844.2088364788402 973.9434033951635,824.4081096630331 977.1201076841029,803.7085658382811 979.1908107464305,782.2999787139541 980.2348888498152,760.4037536714821 980.3454865266181,738.2343552307044 979.6291899895818,715.9987302042763 978.1323700922383,693.7948391398287 975.6068856808791,671.3187515686553 971.7057508782068,648.1857641359212 966.0538800552597,624.0350717614272 958.2491323585618,598.5310028172006 948.000536252482,571.5219756249056 935.5626888378422,543.4955937794003 921.3626182548323,515.0713722888047 905.8668404943314,486.8365764517166 889.5799055505399,459.3445587060211 872.9679204055984,433.04075313426563 856.2220678226095,408.0544901197594 839.4649843643012,384.43373196564653 822.8228987325069,362.2198679146717 806.4253698928051,341.44755139435176 790.4368505642209,322.1703223896833 775.1554675839647,304.5333158347098 760.9232146889157,288.68775681585157 748.0941590478596,274.76351186899205 737.0335397202574,262.8685422681573 727.9863574163529,253.00037218245313 720.6728373725629,244.7998821732881 714.658799364481,237.84768164820457 709.484462254772,231.7577308005449 704.6659473902306,226.17839361351946 699.8069473680783,220.85448346827832 694.9390775216889,215.7958957077875 690.2068569136104,211.06783424206526 685.759360349445,206.72574756384415 681.7497955739951,202.8151316367132 678.2781052523912,199.34598355587764 675.2161538801033,196.22452700372264 672.3725875179815,193.3433256897298 669.5494917710408,190.60891003421182 666.5430108628135,187.94204563352673 663.1948440866627,185.29549531830605 659.5478708880275,182.699666389948 655.6979398687544,180.19766374125618 651.7433532153308,177.82590209837406 647.7845737672634,175.6140084351805 643.9028057782881,173.57946806640405 640.0956169977479,171.71470353950735 636.3389391035881,170.00802044194143 632.6080794820668,168.44963466240085 628.8778074094507,167.03169606220058 625.1207757430348,165.74804534514305 621.3025779936065,164.59367317768817 617.3867850231461,163.565935248639 613.3367192545335,162.66488906870575 609.1155743521322,161.89330487631662 604.7396255722504,161.26038477501788 600.4380746029444,160.78548557577062 596.4942557837392,160.47397717997978 593.1918559929508,160.3116396766154 590.8140618961669,160.26465315548114 590.5,160.26465315548114 590.5,160.26465315548114 590.5,160.26465315548114 590.5,160.26465315548114 590.5,160.26465315548114 590.7971529391265,160.23342112305727 590.8685430155421,160.21940176314388 590.7915713688714,160.2236754719247 590.643256230417,160.24196359760356 590.5,160.26465315548114 590.5,160.26465315548114 590.5,160.26465315548114 590.5,160.26465315548114 590.5,160.26465315548114 590.5,160.26465315548114 590.5206211187486,160.25874014483077 590.5254940419333,160.2568588446677 590.5201049654371,160.25812065621858 590.5098461979436,160.26126283764313 590.5,160.26465315548114 590.5,160.26465315548114 590.5,160.26465315548114 590.5,160.26465315548114 590.5,160.26465315548114 590.5,160.26465315548114 590.501384317401,160.26397797877178 590.5017054075023,160.26378420695698 590.501340098858,160.26394061227893 590.5006539170492,160.26429068334176 590.5,160.26465315548114 590.5,160.26465315548114 590.5,160.26465315548114 590.5,160.26465315548114 590.5,160.26465315548114 590.5,160.26465315548114 590.500089461884,160.2645881576177 590.5001097490593,160.26457045363304 590.5000858695049,160.26458606687106 590.5000417167917,160.26461937388922 590.5,160.26465315548114 590.5,160.26465315548114 590.5,160.26465315548114 590.5,160.26465315548114 590.5,160.26465315548114 590.5,160.26465315548114 590.5000055151404,160.26464744438613 590.5000067288435,160.26464593968 590.5000052350715,160.26464734134527 590.5000025284602,160.26465024682034 590.5,160.26465315548114 590.5,160.26465315548114 590.5,160.26465315548114 590.5,160.26465315548114 590.5,160.26465315548114 590.5,160.26465315548114 590.5000003187512,160.26465268291304 590.5000003858075,160.26465256138954 590.500000297664,160.26465267911908 590.500000142514,160.2646529182981 590.5,160.26465315548114 590.5,160.26465315548114 590.5,160.26465315548114 590.5,160.26465315548114 590.5,160.26465315548114 590.5,160.26465315548114 590.5000000166459,160.26465311809352 590.5000000198722,160.26465310866502 590.5000000151077,160.26465311808806 590.5000000071196,160.26465313693393 590.5,160.26465315548114 590.5,160.26465315548114 590.5,160.26465315548114 590.5,160.26465315548114 590.5,160.26465315548114 590.5,160.26465315548114 590.5000000007113,160.26465315262817 590.5000000008223,160.26465315191933 590.500000000603,160.26465315264397 590.5000000002728,160.264653154077 590.5,160.26465315548114 590.5,160.26465315548114 590.5,160.26465315548114 590.5,160.26465315548114 590.5,160.26465315548114 590.5,160.26465315548114 590.5000000000166,160.2646531552433 590.5000000000166,160.26465315516361 590.5000000000097,160.2646531552033 590.5000000000027,160.2646531553222 590.5,160.26465315548114" stroke="black" stroke-dasharray="8.0,8.0" stroke-width="7.0" /><polyline fill="none" points="590.5000000000001,1132.3909090909092 573.6069123640823,1128.0689956422534 556.8624424310274,1123.5182715192395 540.2649798031536,1118.8059400422987 523.8084043725892,1113.9989043506716 507.48210170895186,1109.1635726874852 491.2739009200743,1104.3379231726938 475.1827203134033,1099.448528054763 459.21659980337796,1094.3945839661737 443.39072648914953,1089.0760516073592 427.7273950657741,1083.3939682507714 412.25799881923507,1077.2402561445706 397.0305566163939,1070.4668217620303 382.10605977837696,1062.9179775724558 367.5566715217855,1054.4415042749233 353.465582832075,1044.8891411686536 339.9082319539822,1034.182004546795 326.8872251973344,1022.5031878846498 314.3723364017406,1010.0982175705108 302.3170184974534,997.2088027962271 290.65859772409675,984.0721353261353 279.3455344083934,970.8497488988187 268.4285953196651,957.4193527410977 257.99691535141847,943.592831768538 248.15318093263897,929.1881982099069 239.01335971494893,914.0301857134273 230.69401918070204,897.9762378524941 223.271312330404,880.9915334987003 216.81174205460945,863.0700496625437 211.38354849539007,844.2088364788405 207.05659660483633,824.408109663033 203.87989231589725,803.7085658382812 201.80918925356946,782.2999787139543 200.76511115018485,760.4037536714821 200.65451347338197,738.2343552307045 201.370810010418,715.9987302042762 202.86762990776177,693.7948391398287 205.3931143191206,671.3187515686553 209.2942491217933,648.1857641359213 214.94611994474013,624.035071761427 222.7508676414383,598.5310028172007 232.99946374751815,571.5219756249057 245.4373111621577,543.4955937794005 259.6373817451676,515.0713722888048 275.1331595056686,486.8365764517166 291.42009444946,459.3445587060211 308.03207959440147,433.04075313426563 324.7779321773904,408.0544901197595 341.5350156356987,384.43373196564653 358.17710126749296,362.2198679146717 374.5746301071949,341.44755139435176 390.5631494357792,322.1703223896834 405.84453241603524,304.5333158347098 420.07678531108417,288.68775681585157 432.9058409521404,274.76351186899205 443.9664602797426,262.8685422681574 453.01364258364697,253.00037218245313 460.3271626274371,244.7998821732881 466.34120063551904,237.84768164820457 471.5155377452279,231.7577308005449 476.33405260976934,226.17839361351946 481.19305263192155,220.85448346827832 486.060922478311,215.7958957077875 490.7931430863896,211.06783424206526 495.24063965055495,206.72574756384427 499.2502044260048,202.8151316367132 502.7218947476087,199.34598355587752 505.78384611989657,196.22452700372264 508.6274124820184,193.3433256897298 511.4505082289591,190.60891003421182 514.4569891371865,187.94204563352673 517.8051559133372,185.29549531830605 521.4521291119725,182.699666389948 525.3020601312455,180.19766374125618 529.2566467846691,177.82590209837406 533.2154262327366,175.6140084351805 537.0971942217118,173.57946806640405 540.9043830022521,171.71470353950735 544.6610608964119,170.00802044194143 548.3919205179332,168.44963466240085 552.1221925905493,167.03169606220058 555.8792242569651,165.74804534514305 559.6974220063934,164.59367317768817 563.6132149768539,163.565935248639 567.6632807454664,162.66488906870575 571.8844256478677,161.89330487631662 576.2603744277495,161.26038477501788 580.5619253970555,160.78548557577062 584.5057442162608,160.47397717997978 587.8081440070491,160.3116396766154 590.185938103833,160.26465315548114 590.5,160.26465315548114 590.5,160.26465315548114 590.5,160.26465315548114 590.5,160.26465315548114 590.5,160.26465315548114 590.2028470608734,160.23342112305727 590.1314569844578,160.21940176314388 590.2084286311286,160.2236754719247 590.3567437695829,160.24196359760356 590.5,160.26465315548114 590.5,160.26465315548114 590.5,160.26465315548114 590.5,160.26465315548114 590.5,160.26465315548114 590.5,160.26465315548114 590.4793788812513,160.25874014483077 590.4745059580667,160.2568588446677 590.4798950345629,160.25812065621858 590.4901538020563,160.26126283764313 590.5,160.26465315548114 590.5,160.26465315548114 590.5,160.26465315548114 590.5,160.26465315548114 590.5,160.26465315548114 590.5,160.26465315548114 590.498615682599,160.26397797877178 590.4982945924977,160.26378420695698 590.4986599011419,160.26394061227893 590.4993460829506,160.26429068334176 590.5,160.26465315548114 590.5,160.26465315548114 590.5,160.26465315548114 590.5,160.26465315548114 590.5,160.26465315548114 590.5,160.26465315548114 590.4999105381158,160.2645881576177 590.4998902509407,160.26457045363304 590.499914130495,160.26458606687106 590.4999582832082,160.26461937388922 590.5,160.26465315548114 590.5,160.26465315548114 590.5,160.26465315548114 590.5,160.26465315548114 590.5,160.26465315548114 590.5,160.26465315548114 590.4999944848596,160.26464744438613 590.4999932711565,160.26464593968 590.4999947649285,160.26464734134527 590.4999974715397,160.26465024682034 590.5,160.26465315548114 590.5,160.26465315548114 590.5,160.26465315548114 590.5,160.26465315548114 590.5,160.26465315548114 590.5,160.26465315548114 590.4999996812487,160.26465268291304 590.4999996141923,160.26465256138954 590.4999997023359,160.26465267911908 590.4999998574859,160.2646529182981 590.5,160.26465315548114 590.5,160.26465315548114 590.5,160.26465315548114 590.5,160.26465315548114 590.5,160.26465315548114 590.5,160.26465315548114 590.499999983354,160.26465311809352 590.4999999801277,160.26465310866502 590.4999999848922,160.26465311808806 590.4999999928802,160.26465313693393 590.5,160.26465315548114 590.5,160.26465315548114 590.5,160.26465315548114 590.5,160.26465315548114 590.5,160.26465315548114 590.5,160.26465315548114 590.4999999992887,160.26465315262817 590.4999999991776,160.26465315191933 590.4999999993969,160.26465315264397 590.499999999727,160.264653154077 590.5,160.26465315548114 590.5,160.26465315548114 590.5,160.26465315548114 590.5,160.26465315548114 590.5,160.26465315548114 590.5,160.26465315548114 590.4999999999833,160.2646531552433 590.4999999999833,160.26465315516361 590.4999999999903,160.2646531552033 590.4999999999973,160.2646531553222 590.5,160.26465315548114" stroke="black" stroke-dasharray="8.0,8.0" stroke-width="7.0" /></g><rect fill="white" height="111.60000000000001" stroke="none" width="1181" x="0" y="0" /><line stroke="black" stroke-width="3.0" x1="0" x2="1181" y1="111.60000000000001" y2="111.60000000000001" /><text font-family="Arial" font-size="62.0" text-anchor="start" x="40.0" y="77.5">LED</text><text font-family="Arial" font-size="62.0" text-anchor="middle" x="590.5" y="77.5" /><text font-family="Arial" font-size="62.0" text-anchor="end" x="1141.0" y="77.5">cd / klm</text><rect fill="none" height="1178.0" stroke="black" stroke-width="3.0" width="1178.0" x="1.5" y="1.5" /></svg>