<?xml version="1.0" encoding="utf-8" ?>
<svg baseProfile="full" height="1181" version="1.1" width="1181" xmlns="http://www.w3.org/2000/svg" xmlns:ev="http://www.w3.org/2001/xml-events" xmlns:xlink="http://www.w3.org/1999/xlink"><defs><clipPath id="plot_clip"><rect height="1069.4" width="1181.0" x="0" y="111.60000000000001" /></clipPath></defs><g clip-path="url(#plot_clip)" id="grid"><circle cx="305.47673628764306" cy="360.59340028934673" fill="none" r="354.35227888264285" stroke="black" stroke-width="3.0" /><text font-family="Arial" font-size="42.0" text-anchor="start" x="313.4767362876431" y="754.9456791719896">250</text><circle cx="305.47673628764306" cy="360.59340028934673" fill="none" r="708.7045577652857" stroke="black" stroke-width="3.0" /><text font-family="Arial" font-size="42.0" text-anchor="start" x="313.4767362876432" y="1109.2979580546325">500</text><circle cx="305.47673628764306" cy="360.59340028934673" fill="none" r="1063.0568366479285" stroke="black" stroke-width="3.0" /><text font-family="Arial" font-size="42.0" text-anchor="start" x="313.4767362876432" y="1463.6502369372752">750</text><line stroke="black" stroke-width="3.0" x1="-4407.621184218836" x2="5018.574656794122" y1="360.5934002893465" y2="360.59340028934696" /><line stroke="black" stroke-width="3.0" x1="-3776.185793394578" x2="4387.139265969864" y1="-1995.9555599638938" y2="2717.142360542587" /><line stroke="black" stroke-width="3.0" x1="-2051.072223965596" x2="2662.025696540882" y1="-3721.0691293928758" y2="4442.2559299715695" /><line stroke="black" stroke-width="3.0" x1="305.47673628764306" x2="305.47673628764306" y1="-4352.504520217131" y2="5073.691320795825" /><line stroke="black" stroke-width="3.0" x1="2662.0256965408826" x2="-2051.0722239655965" y1="-3721.0691293928758" y2="4442.2559299715695" /><line stroke="black" stroke-width="3.0" x1="4387.139265969865" x2="-3776.185793394579" y1="-1995.9555599638938" y2="2717.142360542587" /><line stroke="black" stroke-width="3.0" x1="5018.574656794122" x2="-4407.621184218836" y1="360.5934002893465" y2="360.59340028934696" /></g><g clip-path="url(#plot_clip)" id="curves"><polyline fill="none" points="305.4767362876431,801.1241533962484 313.22493762216146,804.4875574513065 321.0917733325576,807.7495561296261 329.07855174263915,810.9428670646627 337.18900932710255,814.1000332683792 345.42930196874397,817.2533156538378 353.8056600039879,820.4123942069717 362.3142790830355,823.498038929854 370.94290263200816,826.4093781366107 379.67241140104903,829.0464564189509 388.47686684299333,831.3105317338013 397.3349268843939,833.1628236236271 406.27214338759137,834.7985074289019 415.3411060763583,836.4682674725995 424.6119668879519,838.4187116934617 434.17225262185303,840.8916059549282 444.09771582282957,844.0222065397311 454.3512354991488,847.5399458608157 464.8450143890861,851.0785261501253 475.4662749258316,854.2788674934686 486.07759723111303,856.7901876655944 496.56292624472417,858.3899441605413 506.9814208471368,859.334995944347 517.4595634874129,859.9936452619322 528.1492810608028,860.724124388696 539.2274822090624,861.8734925921018 550.8765704922682,863.7376230820122 563.2215363372553,866.4460526060401 576.377029637902,870.0827514632637 590.4647344969923,874.7253587382197 605.6131165012415,880.4448600191097 621.9018439067713,887.2132146004162 639.1827825719237,894.6347087078519 657.2237463000414,902.2362971339759 675.7613368869571,909.5628963792188 694.5017627903364,916.1787164619669 713.1656607790467,921.729065135652 731.6292704386962,926.1169139549169 749.8078349203108,929.3112719073872 767.6139369817836,931.2853153556094 784.9576585125384,932.0165119312506 801.756570065722,931.4980422085429 817.9669419392317,929.7714364133875 833.5570982885766,926.8902568776554 848.4979817718927,922.9083610205979 862.7631401784176,917.8798041801211 876.3897369508485,911.917676421228 889.6697664425676,905.3622141252878 902.9807094141826,898.5883941765109 916.7254222655581,891.9437765175435 931.3309205474211,885.747415472484 947.1790261486439,880.2336686834593 964.3931642716258,875.395334542381 983.0285742293823,871.1653319249366 1003.1383628758605,867.4742421630823 1024.7734264761446,864.2503649686297 1047.7094643115813,861.2356968206815 1070.6028059439577,857.4720796775249 1091.7669415418318,851.9220512591836 1109.4438704857412,843.6655902214299 1121.8092422240875,831.9031923399945 1127.3181818181818,816.1475524059521 1125.7583166694997,796.7448531965636 1117.2760544967632,774.2258127991196 1102.0419901124255,749.1042334989305 1080.2500674076207,721.8761379248507 1052.0196176088184,692.9757058664203 1017.0972602417701,662.6583914057576 975.1377283097129,631.1540034850507 925.800259826161,598.7132910622289 868.7494623879683,565.6079063638446 804.2587487082302,532.3378201779437 735.0471460302851,500.1692873335711 664.5168783219046,470.3629875844957 596.1481311774357,443.9420815460711 533.4886606100569,421.6890112762037 479.4575695359594,403.971693976142 434.2545021089806,390.32409014171037 397.37149500263024,380.12623423730076 368.274201972729,372.799991082279 346.4038055419916,367.8099468402123 331.07006387241444,364.6469851549033 321.12432439360475,362.7925253828379 315.28509706679847,361.79771556079265 312.2502809222894,361.3053285182092 310.7011934375414,361.0504810630399 309.52986391492436,360.87682258272275 308.51473673849415,360.7526151464368 307.6565239525469,360.66952015193374 306.9556446249157,360.6192147303967 306.41222630389325,360.59340028934673 306.021573322973,360.58389012351984 305.7605851472687,360.58348806874926 305.6014248904629,360.586865636571 305.5161377805432,360.59064506856237 305.47673628764306,360.59340028934673 305.47673628764306,360.59340028934673 305.47673628764306,360.59340028934673 305.47673628764306,360.59340028934673 305.47673628764306,360.59340028934673 305.47673628764306,360.59340028934673 305.4813842288334,360.59249682110135 305.48249188276577,360.5921768998372 305.48128265369195,360.59235067804093 305.47896649927833,360.59284423513384 305.47673628764306,360.59340028934673 305.47673628764306,360.59340028934673 305.47673628764306,360.59340028934673 305.47673628764306,360.59340028934673 305.47673628764306,360.59340028934673 305.47673628764306,360.59340028934673 305.47705366116446,360.59327846106635 305.4771279903811,360.59324203116785 305.4770446571701,360.5932693942484 305.47688704448325,360.59333316807704 305.47673628764306,360.59340028934673 305.47673628764306,360.59340028934673 305.47673628764306,360.59340028934673 305.47673628764306,360.59340028934673 305.47673628764306,360.59340028934673 305.47673628764306,360.59340028934673 305.4767572089809,360.5933877185387 305.47676201031834,360.59338421603536 305.47675645930497,360.5933871897165 305.4767461102323,360.5933936639267 305.47673628764306,360.59340028934673 305.47673628764306,360.59340028934673 305.47673628764306,360.59340028934673 305.47673628764306,360.59340028934673 305.47673628764306,360.59340028934673 305.47673628764306,360.59340028934673 305.4767376101825,360.59339913968074 305.4767379059989,360.5933988321726 305.47673755058287,360.59339911163636 305.4767368995576,360.5933996984278 305.47673628764306,360.59340028934673 305.47673628764306,360.59340028934673 305.47673628764306,360.59340028934673 305.47673628764306,360.59340028934673 305.47673628764306,360.59340028934673 305.47673628764306,360.59340028934673 305.4767363668212,360.5934001915699 305.4767363839034,360.5934001661392 305.47673636225755,360.59340019032993 305.4767363235419,360.5934002399364 305.47673628764306,360.59340028934673 305.47673628764306,360.59340028934673 305.47673628764306,360.59340028934673 305.47673628764306,360.59340028934673 305.47673628764306,360.59340028934673 305.47673628764306,360.59340028934673 305.47673629202245,360.5934002814462 305.4767362929132,360.5934002794352 305.4767362916843,360.5934002814155 305.47673628956534,360.59340028540555 305.47673628764306,360.59340028934673 305.47673628764306,360.59340028934673 305.47673628764306,360.59340028934673 305.47673628764306,360.59340028934673 305.47673628764306,360.59340028934673 305.47673628764306,360.59340028934673 305.47673628785424,360.5934002887335 305.47673628789215,360.59340028858026 305.47673628782997,360.59340028873555 305.47673628772986,360.5934002890442 305.47673628764306,360.59340028934673 305.47673628764306,360.59340028934673 305.47673628764306,360.59340028934673 305.47673628764306,360.59340028934673 305.47673628764306,360.59340028934673 305.47673628764306,360.59340028934673 305.47673628765045,360.59340028930035 305.47673628765125,360.59340028928864 305.4767362876488,360.59340028930023 305.4767362876455,360.5934002893234 305.47673628764306,360.59340028934673 305.47673628764306,360.59340028934673 305.47673628764306,360.59340028934673 305.47673628764306,360.59340028934673 305.47673628764306,360.59340028934673 305.47673628764306,360.59340028934673" stroke="black" stroke-width="9.0" /><polyline fill="none" points="305.4767362876431,801.1241533962484 297.8112733131533,799.7474799798682 290.18529733412663,798.4829192224862 282.5754451297558,797.576067198458 274.9412592180203,797.2710668515014 267.22525229674596,797.8098629635405 259.3664944469328,799.303046234208 251.35913231754955,801.3459148737224 243.24325842030493,803.4076044252722 235.09574353162924,804.9614999069628 227.03002016581974,805.4868352397547 219.2775069326167,804.0499918412937 211.55125081970567,802.4780672691855 204.1594604082895,799.4467364089587 196.97323120495727,795.7771896967931 189.94021818868333,791.7815559642655 183.0049795173465,787.70317381265 176.15787042251046,783.5763513237151 169.40348378309827,779.3838093724759 162.74770007084572,775.1086198303559 156.19767065624063,770.7342623089097 149.76450763006392,766.2376244043068 143.47237049487052,761.5682762590828 137.35201301908236,756.6704273550495 131.43824416658475,751.4902536680829 125.76984331335744,745.9760759359731 120.3675405968843,740.1234953257632 115.16188323600413,734.1073302421624 110.04816646280752,728.1410836436986 104.90709978913159,722.4306027900919 99.60514930240517,717.1734487826144 94.0424956332687,712.4790688767839 88.30720220080765,708.1373043442671 82.55168977502728,703.8678689708601 76.94744357278111,699.4020098302241 71.68449188025431,694.4833281315242 66.94428842463847,688.9051489737192 62.8143580339535,682.6172527529986 59.358741234708226,675.6100685894884 56.6431470568118,667.8772920809112 54.73482699105879,659.4159715074827 53.710518553941185,650.2173031757235 53.68181818181819,640.2399875080677 54.77301152604424,629.4402302103257 57.113038076259805,617.7815386323668 60.835191180905774,605.2349453960842 66.01616800954258,591.8377830844313 72.48572543065185,577.8610328479548 79.99461034772148,563.618418402527 88.2739353544105,549.4049145571438 97.03602193589151,535.4959268242303 106.0064050484165,522.1212896229919 115.02161370392918,509.39325005857734 123.94252851116177,497.3892377915164 132.62451135403657,486.1778927639606 140.91777856231778,475.8188229685526 148.74658518372567,466.3092220549395 156.3533477959942,457.4352610991658 164.07479727173433,448.95113828093986 172.2640104736059,440.63568118431783 181.28931673425438,432.2930403984608 191.4233578632936,423.8142202987316 202.50411446448533,415.3449145156303 214.24948531788274,407.07600634585503 226.36578242365383,399.17839060134486 238.54861161701228,391.8024973692145 250.48202537853732,385.07862312633097 261.8340968228921,379.118601655049 272.2629052521319,374.01265908815105 281.4192229353721,369.82821443766784 288.9474988061935,366.6095507277116 294.59875311025024,364.33899027422353 298.57252458766357,362.8367146576319 301.1904371741286,361.9038534382571 302.7846684626529,361.3653383163123 303.696890595202,361.0703085052884 304.23110483530644,360.90397109163655 304.5127292784216,360.81595884379817 304.6234550501749,360.7747708153206 304.64665542976996,360.75475166310935 304.66712850566756,360.7361559851006 304.7518044508194,360.7082182125955 304.89198665843753,360.6755814903273 305.05965005259475,360.6446120395758 305.2264433169281,360.61970714062613 305.3637750519696,360.603283116886 305.4498817189878,360.59527814371904 305.47673628764306,360.59340028934673 305.47673628764306,360.59340028934673 305.47673628764306,360.59340028934673 305.47673628764306,360.59340028934673 305.46839444239583,360.5932546818964 305.4663744822385,360.59303844712883 305.46852598616584,360.59297000567904 305.4726961423865,360.59311777486914 305.47673628764306,360.59340028934673 305.47673628764306,360.59340028934673 305.47673628764306,360.59340028934673 305.47673628764306,360.59340028934673 305.47673628764306,360.59340028934673 305.47673628764306,360.59340028934673 305.4761482843472,360.59328599308435 305.47600815689367,360.5932455203782 305.47616113444906,360.5932675047692 305.4764541472849,360.59332994385477 305.47673628764306,360.59340028934673 305.47673628764306,360.59340028934673 305.47673628764306,360.59340028934673 305.47673628764306,360.59340028934673 305.47673628764306,360.59340028934673 305.47673628764306,360.59340028934673 305.47669613724764,360.59338487705395 305.4766867339823,360.59338026836826 305.476697276328,360.59338373002595 305.47671721564643,360.59339179794677 305.47673628764306,360.59340028934673 305.47673628764306,360.59340028934673 305.47673628764306,360.59340028934673 305.47673628764306,360.59340028934673 305.47673628764306,360.59340028934673 305.47673628764306,360.59340028934673 305.47673364091946,360.59339869903476 305.4767330335103,360.59339825593895 305.47673373575975,360.5933986321344 305.4767350450037,360.59339945117586 305.47673628764306,360.59340028934673 305.47673628764306,360.59340028934673 305.47673628764306,360.59340028934673 305.47673628764306,360.59340028934673 305.47673628764306,360.59340028934673 305.47673628764306,360.59340028934673 305.4767361203308,360.59340014390455 305.47673608290756,360.59340010500205 305.4767361278707,360.5934001403567 305.4767362102308,360.5934002145907 305.47673628764306,360.59340028934673 305.47673628764306,360.59340028934673 305.47673628764306,360.59340028934673 305.47673628764306,360.59340028934673 305.47673628764306,360.59340028934673 305.47673628764306,360.59340028934673 305.47673627762634,360.59340027697715 305.4767362754653,360.5934002737599 305.4767362782037,360.5934002768204 305.47673628310156,360.593400283096 305.47673628764306,360.59340028934673 305.47673628764306,360.59340028934673 305.47673628764306,360.59340028934673 305.47673628764306,360.59340028934673 305.47673628764306,360.59340028934673 305.47673628764306,360.59340028934673 305.476736287089,360.5934002883472 305.47673628697635,360.593400288093 305.4767362871318,360.59340028834333 305.4767362873999,360.5934002888482 305.47673628764306,360.59340028934673 305.47673628764306,360.59340028934673 305.47673628764306,360.59340028934673 305.47673628764306,360.59340028934673 305.47673628764306,360.59340028934673 305.47673628764306,360.59340028934673 305.47673628761635,360.5934002892693 305.4767362876116,360.59340028924976 305.4767362876194,360.5934002892694 305.4767362876321,360.5934002893084 305.47673628764306,360.59340028934673 305.47673628764306,360.59340028934673 305.47673628764306,360.59340028934673 305.47673628764306,360.59340028934673 305.47673628764306,360.59340028934673 305.47673628764306,360.59340028934673 305.47673628764215,360.59340028934093 305.47673628764204,360.59340028933934 305.4767362876423,360.5934002893408 305.4767362876428,360.5934002893439 305.47673628764306,360.59340028934673 305.47673628764306,360.59340028934673 305.47673628764306,360.59340028934673 305.47673628764306,360.59340028934673 305.47673628764306,360.59340028934673 305.47673628764306,360.59340028934673" stroke="black" stroke-width="9.0" /><polyline fill="none" points="305.4767362876431,801.1241533962484 313.2814687357609,807.72622278036 321.32160715678253,814.3311357331136 329.6095822975569,821.0755336684098 338.167649054569,828.0952333964356 347.02784932322726,835.5247955240227 356.223653040054,843.4180611998764 365.7539463448647,851.5118807071536 375.58865632695364,859.4656333152801 385.6743993587604,866.9415169780126 395.9346212935808,873.6055589645912 406.2818090479587,879.1905421886073 416.6624403319023,883.6810112795296 427.0361159136538,887.1249204323607 437.365712023851,889.5711895157011 447.6173957866682,891.0695633610557 457.7552485433947,891.6516834166597 467.7224932827167,891.2753593946251 477.4531253223033,889.8823016041671 486.75796721710367,887.0723230731492 495.91868134866394,883.8283440615193 504.518628510324,879.1152571346153 512.6931222323298,873.4719529534779 520.4916539540546,867.1368027611621 527.979604059779,860.343023604711 535.2379891850333,853.3179971927467 542.31097973289,846.1755594426629 549.0341005787319,838.6016421401827 555.1649303508142,830.1885949484839 560.4322172113132,820.54526334384 564.5366003331656,809.2982470180777 567.2327795093814,796.2286124045412 568.5933527914477,781.6680068448376 568.7976938595068,766.0721170923658 568.0546440829153,749.8811575803546 566.6017875141589,733.5186217089281 564.6640107872993,717.3340789268727 562.3229100802164,701.4397851737971 559.6247081913388,685.8879702663237 556.6188356890718,670.7280647264145 553.3578135098433,656.0065646050265 549.8618728908967,641.7263406321206 546.0074347787365,627.7298042341623 541.6232137820459,613.8294937368922 536.5245738514755,599.8504400224547 530.5140836710498,585.6307476727535 523.4459614666821,571.0838342981402 515.4268114789489,556.375012740976 506.639029917419,541.7207430338266 497.27855352311855,527.3241763011973 487.5542660560715,513.3745883637054 477.65485668350794,500.02049305144567 467.6469639683882,487.29466822363474 457.5660175585329,475.20089416824896 447.4477722121463,463.74139563347524 437.32825141702955,452.9168251073148 427.25379655627125,442.73306459657 417.31226728975895,433.2202433113964 407.604224762537,424.40973782478113 398.232821903978,416.32687931135126 389.3035513642559,408.99083453913806 380.9125951194603,402.40817964393625 373.1115139806421,396.5554494970419 365.9397416156489,391.40084025688304 359.4356959970405,386.91094338473215 353.63672465428317,383.05077168136665 348.5394843184276,379.7661709808657 343.9787774891487,376.9365471520505 339.74230622868635,374.4375891887171 335.6102812420123,372.16058444545206 331.35611455231395,370.01272365900275 326.83178958819775,367.9465348240003 322.2265423871229,366.0357421991498 317.8198228629971,364.367060559333 313.89686026505785,363.0078319873875 310.7478177614109,362.0057823134815 308.5821281850472,361.36766144917203 307.2703522300571,361.00748915754593 306.5934576064539,360.8307667332167 306.32752970029253,360.75877777590995 306.24446780503365,360.728772069803 306.15453353928183,360.7007528277012 306.03347147002415,360.6716443165868 305.89886644382824,360.6452313552178 305.76850036789597,360.62406592987975 305.6602982956125,360.6094598840982 305.58778083543666,360.60116528055767 305.5464910934442,360.5970559838131 305.5273904192269,360.59516917059955 305.52136596222573,360.59417930321433 305.519258561109,360.59340028934673 305.5137338180387,360.5927544950516 305.5048327230321,360.5924191402031 305.49444327050884,360.592472305697 305.4844516022187,360.59286078199545 305.47673628764306,360.59340028934673 305.47673628764306,360.59340028934673 305.47673628764306,360.59340028934673 305.47673628764306,360.59340028934673 305.47673628764306,360.59340028934673 305.47673628764306,360.59340028934673 305.47780978660944,360.5931916222859 305.47806561285654,360.59311773255 305.477786326586,360.5931578687554 305.4772513823457,360.59327186181326 305.47673628764306,360.59340028934673 305.47673628764306,360.59340028934673 305.47673628764306,360.59340028934673 305.47673628764306,360.59340028934673 305.47673628764306,360.59340028934673 305.47673628764306,360.59340028934673 305.4768095889464,360.5933721516128 305.4768267561897,360.59336373768133 305.4768075093636,360.59337005752013 305.47677110678245,360.5933847868672 305.47673628764306,360.59340028934673 305.47673628764306,360.59340028934673 305.47673628764306,360.59340028934673 305.47673628764306,360.59340028934673 305.47673628764306,360.59340028934673 305.47673628764306,360.59340028934673 305.4767411196824,360.59339738596464 305.4767422286101,360.59339657701855 305.47674094653553,360.59339726382666 305.4767385562904,360.59339875912474 305.47673628764306,360.59340028934673 305.47673628764306,360.59340028934673 305.47673628764306,360.59340028934673 305.47673628764306,360.59340028934673 305.47673628764306,360.59340028934673 305.47673628764306,360.59340028934673 305.47673659309976,360.59340002381725 305.4767366614222,360.5933999527946 305.4767365793345,360.5934000173402 305.47673642897223,360.5934001528668 305.47673628764306,360.59340028934673 305.47673628764306,360.59340028934673 305.47673628764306,360.59340028934673 305.47673628764306,360.59340028934673 305.47673628764306,360.59340028934673 305.47673628764306,360.59340028934673 305.4767363059303,360.593400266764 305.4767363098756,360.59340026089046 305.47673630487617,360.5934002664777 305.4767362959343,360.59340027793485 305.47673628764306,360.59340028934673 305.47673628764306,360.59340028934673 305.47673628764306,360.59340028934673 305.47673628764306,360.59340028934673 305.47673628764306,360.59340028934673 305.47673628764306,360.59340028934673 305.47673628865454,360.59340028752206 305.4767362888603,360.59340028705765 305.47673628857643,360.5934002875149 305.47673628808707,360.59340028843644 305.47673628764306,360.59340028934673 305.47673628764306,360.59340028934673 305.47673628764306,360.59340028934673 305.47673628764306,360.59340028934673 305.47673628764306,360.59340028934673 305.47673628764306,360.59340028934673 305.47673628769184,360.5934002892052 305.4767362877006,360.5934002891697 305.4767362876862,360.59340028920565 305.47673628766313,360.5934002892768 305.47673628764306,360.59340028934673 305.47673628764306,360.59340028934673 305.47673628764306,360.59340028934673 305.47673628764306,360.59340028934673 305.47673628764306,360.59340028934673 305.47673628764306,360.59340028934673 305.47673628764477,360.59340028933593 305.47673628764494,360.59340028933343 305.4767362876444,360.59340028933593 305.47673628764363,360.5934002893415 305.47673628764306,360.59340028934673 305.47673628764306,360.59340028934673 305.47673628764306,360.59340028934673 305.47673628764306,360.59340028934673 305.47673628764306,360.59340028934673 305.47673628764306,360.59340028934673" stroke="black" stroke-dasharray="8.0,8.0" stroke-width="7.0" /><polyline fill="none" points="305.4767362876431,801.1241533962484 297.9157684962919,793.7609549472608 290.60719386397517,786.4013833345601 283.5393905297644,779.1828932613867 276.6914498432474,772.2421748345035 270.0332106713522,765.7147518778139 263.533428191786,759.6573199290752 257.19497496187915,753.8167906791547 251.04933785637215,747.8644631553535 245.1510911609307,741.4745335818766 239.57775356156068,734.3251029550792 234.41759178734432,726.1610074997733 229.7247350961308,716.978545948183 225.54000862385809,706.8374076342544 221.90076306616984,695.7983201877342 218.84085607474435,683.922907002336 216.38172256119745,671.3046380331575 214.50128760059656,658.1606848451426 213.15320963649586,644.7359983575435 212.27488915248043,631.2712185587653 211.7876763586825,618.001976894097 211.61252483479342,605.118031111272 211.7221031587704,592.6442601934874 212.10445942906503,580.5646996289785 212.74900626249743,568.863291886486 213.64651397778312,557.5239475447728 214.79632060934009,546.5158049105788 216.23003545615978,535.7499129228912 217.9934085214355,525.125610095821 220.13947593809152,514.5458932639683 222.72839212296827,503.9177366247591 225.80316500017452,493.19249026867203 229.3116412989195,482.4830317074927 233.16902433210174,471.93751254328174 237.2808005512692,461.6980328232978 241.54300849894102,451.90022619437445 245.88087559431528,442.6200654825619 250.37149964037778,433.72051922626747 255.14159256033312,425.01944630835305 260.330582649147,416.3442570460202 266.0901851489078,407.53246410883014 272.4881847400936,398.5423877896295 279.20539630428755,389.77067925619394 285.7965761081443,381.69778827411506 291.78360426026,374.77305359443847 296.6568518313389,369.4132847456509 300.02064269603557,365.8622886250589 302.04610030229543,363.79252010073014 303.0729962786561,362.7577375148793 303.46948156256025,362.3382802012802 303.63087904745987,362.14225841879033 303.894763982801,361.8744562027647 304.2793036084468,361.5289372303122 304.7172687574455,361.1657001226488 305.13750032981926,360.8398696397345 305.46512555189724,360.60153021404017 305.47673628764306,360.59340028934673 305.47673628764306,360.59340028934673 305.47673628764306,360.59340028934673 305.47673628764306,360.59340028934673 305.46446116462704,360.6004873349244 305.4138871578088,360.62823813088994 305.40050235513183,360.63393459027566 305.41260219864694,360.62607823987037 305.4379649978526,360.61231031087834 305.46389019845486,360.5993905191127 305.47673628764306,360.59340028934673 305.47673628764306,360.59340028934673 305.47673628764306,360.59340028934673 305.47673628764306,360.59340028934673 305.47673628764306,360.59340028934673 305.4738307992686,360.59440072922416 305.4729528911684,360.59462958938 305.4735356885817,360.5943788106788 305.4749960312371,360.59389929984115 305.47673628764306,360.59340028934673 305.47673628764306,360.59340028934673 305.47673628764306,360.59340028934673 305.47673628764306,360.59340028934673 305.47673628764306,360.59340028934673 305.47673628764306,360.59340028934673 305.4736363233868,360.5938912754506 305.46991719954076,360.59435864968054 305.4663327097622,360.5946776880887 305.46364377344025,360.5947763680398 305.4626161331839,360.59463564278917 305.46375861261464,360.594307776788 305.4665402890713,360.5939346389895 305.470164722604,360.59362977345484 305.47383102386016,360.5934510009148 305.47673628764306,360.59340028934673 305.47673628764306,360.59340028934673 305.47673628764306,360.59340028934673 305.47673628764306,360.59340028934673 305.47673628764306,360.59340028934673 305.47673628764306,360.59340028934673 305.4763255584843,360.59335711997255 305.47622688207167,360.5933377422074 305.4763332734127,360.5933436493905 305.4765382767764,360.5933689275065 305.47673628764306,360.59340028934673 305.47673628764306,360.59340028934673 305.47673628764306,360.59340028934673 305.47673628764306,360.59340028934673 305.47673628764306,360.59340028934673 305.47673628764306,360.59340028934673 305.4767077848297,360.5933921162966 305.4767010494037,360.59338951593577 305.47670849826443,360.59339126003033 305.4767226780836,360.5933956031996 305.47673628764306,360.59340028934673 305.47673628764306,360.59340028934673 305.47673628764306,360.59340028934673 305.47673628764306,360.59340028934673 305.47673628764306,360.59340028934673 305.47673628764306,360.59340028934673 305.47673437421923,360.5933993561076 305.4767339304038,360.5933990882734 305.47673443533876,360.5933993044591 305.47673538378933,360.5933997883325 305.47673628764306,360.59340028934673 305.47673628764306,360.59340028934673 305.47673628764306,360.59340028934673 305.47673628764306,360.59340028934673 305.47673628764306,360.59340028934673 305.47673628764306,360.59340028934673 305.47673616398754,360.5934001995058 305.47673613594634,360.5934001750352 305.476736168953,360.5934001966159 305.4767362299815,360.5934002426534 305.47673628764306,360.59340028934673 305.47673628764306,360.59340028934673 305.47673628764306,360.59340028934673 305.47673628764306,360.59340028934673 305.47673628764306,360.59340028934673 305.47673628764306,360.59340028934673 305.47673628001996,360.5934002814528 305.47673627834234,360.593400279373 305.47673628040707,360.5934002813103 305.4767362841482,360.5934002853263 305.47673628764306,360.59340028934673 305.47673628764306,360.59340028934673 305.47673628764306,360.59340028934673 305.47673628764306,360.59340028934673 305.47673628764306,360.59340028934673 305.47673628764306,360.59340028934673 305.47673628720247,360.5934002886935 305.4767362871098,360.5934002885256 305.47673628723163,360.5934002886884 305.4767362874461,360.593400289019 305.47673628764306,360.59340028934673 305.47673628764306,360.59340028934673 305.47673628764306,360.59340028934673 305.47673628764306,360.59340028934673 305.47673628764306,360.59340028934673 305.47673628764306,360.59340028934673 305.4767362876201,360.593400289295 305.4767362876156,360.59340028928204 305.4767362876222,360.593400289295 305.47673628763323,360.59340028932115 305.47673628764306,360.59340028934673 305.47673628764306,360.59340028934673 305.47673628764306,360.59340028934673 305.47673628764306,360.59340028934673 305.47673628764306,360.59340028934673 305.47673628764306,360.59340028934673 305.4767362876421,360.59340028934287 305.4767362876419,360.59340028934173 305.4767362876422,360.59340028934287 305.4767362876427,360.5934002893448 305.47673628764306,360.59340028934673 305.47673628764306,360.59340028934673 305.47673628764306,360.59340028934673 305.47673628764306,360.59340028934673 305.47673628764306,360.59340028934673 305.47673628764306,360.59340028934673 305.476736287643,360.5934002893465 305.476736287643,360.5934002893463 305.47673628764306,360.5934002893465 305.47673628764306,360.5934002893466 305.47673628764306,360.59340028934673" stroke="black" stroke-dasharray="8.0,8.0" stroke-width="7.0" /></g><rect fill="white" height="111.60000000000001" stroke="none" width="1181" x="0" y="0" /><line stroke="black" stroke-width="3.0" x1="0" x2="1181" y1="111.60000000000001" y2="111.60000000000001" /><text font-family="Arial" font-size="62.0" text-anchor="start" x="40.0" y="77.5">LED</text><text font-family="Arial" font-size="62.0" text-anchor="middle" x="590.5" y="77.5" /><text font-family="Arial" font-size="62.0" text-anchor="end" x="1141.0" y="77.5">cd / klm</text><rect fill="none" height="1178.0" stroke="black" stroke-width="3.0" width="1178.0" x="1.5" y="1.5" /></svg>