<?xml version="1.0" encoding="utf-8" ?>
<svg baseProfile="full" height="1181" version="1.1" width="1181" xmlns="http://www.w3.org/2000/svg" xmlns:ev="http://www.w3.org/2001/xml-events" xmlns:xlink="http://www.w3.org/1999/xlink"><defs><clipPath id="plot_clip"><rect height="1069.4" width="1181.0" x="0" y="111.60000000000001" /></clipPath></defs><g clip-path="url(#plot_clip)" id="grid"><circle cx="590.5000000000001" cy="287.16725403126065" fill="none" r="149.09907593627722" stroke="black" stroke-width="3.0" /><text font-family="Arial" font-size="42.0" text-anchor="start" x="598.5000000000001" y="476.2663299675379">100</text><circle cx="590.5000000000001" cy="287.16725403126065" fill="none" r="298.19815187255443" stroke="black" stroke-width="3.0" /><text font-family="Arial" font-size="42.0" text-anchor="start" x="598.5000000000001" y="625.3654059038151">200</text><circle cx="590.5000000000001" cy="287.16725403126065" fill="none" r="447.2972278088316" stroke="black" stroke-width="3.0" /><text font-family="Arial" font-size="42.0" text-anchor="start" x="598.5000000000002" y="774.4644818400924">300</text><circle cx="590.5000000000001" cy="287.16725403126065" fill="none" r="596.3963037451089" stroke="black" stroke-width="3.0" /><text font-family="Arial" font-size="42.0" text-anchor="start" x="598.5000000000002" y="923.5635577763695">400</text><circle cx="590.5000000000001" cy="287.16725403126065" fill="none" r="745.495379681386" stroke="black" stroke-width="3.0" /><text font-family="Arial" font-size="42.0" text-anchor="start" x="598.5000000000002" y="1072.6626337126465">500</text><circle cx="590.5000000000001" cy="287.16725403126065" fill="none" r="894.5944556176632" stroke="black" stroke-width="3.0" /><text font-family="Arial" font-size="42.0" text-anchor="start" x="598.5000000000002" y="1221.761709648924">600</text><line stroke="black" stroke-width="3.0" x1="-3348.958509619332" x2="4529.958509619332" y1="287.16725403126054" y2="287.16725403126077" /><line stroke="black" stroke-width="3.0" x1="-2821.171146485124" x2="4002.171146485124" y1="-1682.5620007784055" y2="2256.896508840927" /><line stroke="black" stroke-width="3.0" x1="-1379.2292548096655" x2="2560.2292548096657" y1="-3124.503892453865" y2="3698.838400516386" /><line stroke="black" stroke-width="3.0" x1="590.5000000000001" x2="590.5000000000001" y1="-3652.291255588071" y2="4226.6257636505925" /><line stroke="black" stroke-width="3.0" x1="2560.2292548096657" x2="-1379.2292548096655" y1="-3124.503892453865" y2="3698.838400516386" /><line stroke="black" stroke-width="3.0" x1="4002.171146485124" x2="-2821.171146485124" y1="-1682.5620007784055" y2="2256.896508840927" /><line stroke="black" stroke-width="3.0" x1="4529.958509619331" x2="-3348.9585096193314" y1="287.16725403126054" y2="287.16725403126077" /></g><g clip-path="url(#plot_clip)" id="curves"><polyline fill="none" points="590.5000000000002,820.8226666223841 599.6993282670941,814.1964174818357 608.6852167897872,807.9237280283301 617.5084513891019,802.5192067105737 626.2554770666605,798.494398411088 635.0482631670135,796.356232027401 644.0258647519113,796.431839008368 653.2652102662033,798.3488700638867 662.793343150689,801.561119015605 672.5996945738133,805.5243250010316 682.6362343114238,809.6978046096757 692.8764286879381,813.8483213784897 703.5338831332589,818.9498640112587 714.9596083917822,826.2610451031181 727.5929646989885,837.0171029678658 741.9606368354741,852.4260460479874 758.5114087573191,873.0926676615942 777.0429874520488,897.3218729986485 797.05475785296,922.8774318005363 817.8935868047528,947.5661823433453 838.7558602026506,969.2446241853261 858.8146669654091,986.1508588398066 877.6423286526069,997.8694567386686 894.9165325799798,1004.3276625056697 910.3072946971313,1005.4661984838397 923.4774215069859,1001.2396388264199 934.0620074167788,991.573757658577 941.6000090869824,976.2398203483256 945.5873964842572,954.9895181101291 945.4975424181017,927.5997735575086 940.7821865739945,893.8737981637399 931.1707559192811,854.1386033445609 917.6353142777562,810.6931931386493 901.6148302371356,766.2420808365472 884.7297126974017,723.3807418531457 868.7768819567058,684.5878283201407 855.3361479966082,651.68294002102 844.5253074246244,624.2702228096413 836.0331706905145,601.4353812824194 829.4905571300603,582.2960134698998 824.4718450014415,566.004040877624 820.5904846398232,551.8560783630841 817.797317370144,539.6064992896454 816.1261267779162,529.1216525519601 815.603670828702,520.2689289199155 816.2497770088049,512.9170310400654 818.0149757309845,506.87591219517617 820.5848546874853,501.72485211913215 823.5535068271306,497.0095741162032 826.4851660867549,492.30602923183596 828.9155609155365,487.22166326241165 830.656720265243,481.64233156653404 832.7425738305574,476.4278950930674 836.5770585137053,472.59961811164567 843.6352883337433,471.0808063446244 855.4592630072055,472.6937273073951 873.2427549788443,477.8796503399825 896.5564859590908,485.9226599604415 924.5122806889237,495.88129139510477 956.1668531642458,506.88206578138943 990.5248738940804,518.1217226565541 1026.2515591741353,528.7082874661407 1060.7820940988543,537.2206790051325 1091.1602507658456,542.2663933467214 1114.3318970991186,542.6571411767798 1127.1539061522224,537.4130802488357 1127.318181818182,526.1741073718886 1116.1615241132786,510.29733286770545 1096.0200358844957,491.4106062137264 1069.3213892032022,470.9695645520652 1038.5771606819117,450.2540031739909 1005.93543174221,430.21314471901746 971.8334474370819,411.0700019359642 936.2760562668024,392.8816033457982 899.2698108946266,375.7055725669145 860.8230025262801,359.6000842537337 821.1760799325699,344.68126034454224 781.5005780012127,331.2632119783377 743.2196327408436,319.62881406616305 707.7755259703918,309.9633070236739 676.6254392653872,302.3534926991166 650.9123208332074,296.73562565513464 630.4792216908559,292.78596721844565 614.8303628655236,290.1546469523124 603.4556419861588,288.52894687459184 595.8322883508778,287.6337688126139 591.3928324355402,287.2296869570779 590.5000000000001,287.16725403126065 590.5000000000001,287.16725403126065 590.5000000000001,287.16725403126065 590.7907431980758,287.16725403126065 591.2784969811771,287.1536653159079 591.3448920363925,287.1377497512125 591.138312013177,287.1338015161605 590.8072785108732,287.1457670246165 590.5000000000001,287.16725403126065 590.5000000000001,287.16725403126065 590.5000000000001,287.16725403126065 590.5000000000001,287.16725403126065 590.5000000000001,287.16725403126065 590.5000000000001,287.16725403126065 590.5443836628779,287.15862672114986 590.5549607628685,287.15557176047855 590.5434137115274,287.1572311862103 590.5212965176004,287.1619442130599 590.5000000000001,287.16725403126065 590.5000000000001,287.16725403126065 590.5000000000001,287.16725403126065 590.5000000000001,287.16725403126065 590.5000000000001,287.16725403126065 590.5000000000001,287.16725403126065 590.5030306320158,287.16609068062644 590.5037404092611,287.1657428078239 590.5029446519587,287.1660041006619 590.5014395923911,287.16661308343305 590.5000000000001,287.16725403126065 590.5000000000001,287.16725403126065 590.5000000000001,287.16725403126065 590.5000000000001,287.16725403126065 590.5000000000001,287.16725403126065 590.5000000000001,287.16725403126065 590.5001997799819,287.1671339913372 590.500245628441,287.167100545576 590.5001926212495,287.16712894155864 590.500093796903,287.1671907644509 590.5000000000001,287.16725403126065 590.5000000000001,287.16725403126065 590.5000000000001,287.16725403126065 590.5000000000001,287.16725403126065 590.5000000000001,287.16725403126065 590.5000000000001,287.16725403126065 590.5000126290635,287.1672430529834 590.5000154538444,287.16724011655697 590.5000120599406,287.1672427851844 590.5000058432341,287.1672483885152 590.5000000000001,287.16725403126065 590.5000000000001,287.16725403126065 590.5000000000001,287.16725403126065 590.5000000000001,287.16725403126065 590.5000000000001,287.16725403126065 590.5000000000001,287.16725403126065 590.5000007560806,287.1672530975792 590.5000009192,287.16725285473854 590.5000007125014,287.1672530857396 590.5000003428016,287.1672535594349 590.5000000000001,287.16725403126065 590.5000000000001,287.16725403126065 590.5000000000001,287.16725403126065 590.5000000000001,287.16725403126065 590.5000000000001,287.16725403126065 590.5000000000001,287.16725403126065 590.500000041819,287.1672539558175 590.500000050325,287.1672539366134 590.5000000385901,287.1672539555235 590.5000000183559,287.167253993626 590.5000000000001,287.16725403126065 590.5000000000001,287.16725403126065 590.5000000000001,287.16725403126065 590.5000000000001,287.16725403126065 590.5000000000001,287.16725403126065 590.5000000000001,287.16725403126065 590.5000000020165,287.16725402540476 590.5000000023786,287.1672540239406 590.5000000017847,287.16725402542374 590.5000000008289,287.1672540283703 590.5000000000001,287.16725403126065 590.5000000000001,287.16725403126065 590.5000000000001,287.16725403126065 590.5000000000001,287.16725403126065 590.5000000000001,287.16725403126065 590.5000000000001,287.16725403126065 590.5000000000703,287.1672540308174 590.5000000000782,287.1672540307052 590.5000000000548,287.16725403081523 590.5000000000236,287.1672540310375 590.5000000000001,287.16725403126065 590.5000000000001,287.16725403126065 590.5000000000001,287.16725403126065 590.5000000000001,287.16725403126065 590.5000000000001,287.16725403126065 590.5000000000001,287.16725403126065" stroke="black" stroke-width="9.0" /><polyline fill="none" points="590.5000000000002,820.8226666223841 581.300671732906,814.1964174818357 572.3147832102132,807.9237280283301 563.4915486108985,802.5192067105737 554.7445229333397,798.494398411088 545.9517368329867,796.356232027401 536.9741352480892,796.431839008368 527.7347897337971,798.3488700638868 518.2066568493111,801.561119015605 508.40030542618706,805.5243250010318 498.3637656885762,809.6978046096757 488.12357131206227,813.8483213784897 477.4661168667413,818.9498640112585 466.04039160821816,826.2610451031181 453.4070353010119,837.0171029678658 439.03936316452626,852.4260460479874 422.48859124268114,873.0926676615942 403.95701254795136,897.3218729986485 383.94524214704035,922.8774318005363 363.1064131952472,947.5661823433452 342.2441397973498,969.2446241853262 322.18533303459105,986.1508588398066 303.3576713473935,997.8694567386688 286.0834674200205,1004.3276625056697 270.69270530286906,1005.4661984838398 257.5225784930146,1001.23963882642 246.93799258322127,991.5737576585769 239.39999091301814,976.2398203483257 235.412603515743,954.989518110129 235.50245758189877,927.5997735575087 240.2178134260056,893.8737981637399 249.8292440807193,854.1386033445611 263.3646857222442,810.6931931386495 279.3851697628648,766.2420808365472 296.27028730259855,723.3807418531458 312.22311804329433,684.5878283201407 325.6638520033921,651.6829400210202 336.4746925753757,624.2702228096412 344.9668293094858,601.4353812824195 351.50944286993985,582.2960134698998 356.5281549985588,566.004040877624 360.4095153601771,551.8560783630842 363.20268262985616,539.6064992896454 364.87387322208406,529.1216525519601 365.39632917129813,520.2689289199155 364.7502229911954,512.9170310400655 362.9850242690158,506.87591219517617 360.415145312515,501.72485211913227 357.44649317286957,497.0095741162032 354.51483391324547,492.3060292318361 352.08443908446384,487.22166326241165 350.34327973475746,481.64233156653415 348.25742616944285,476.4278950930674 344.42294148629486,472.59961811164555 337.364711666257,471.0808063446244 325.5407369927947,472.6937273073952 307.7572450211558,477.8796503399824 284.4435140409094,485.92265996044137 256.48771931107655,495.88129139510477 224.83314683575452,506.88206578138943 190.47512610591986,518.1217226565543 154.74844082586475,528.7082874661407 120.21790590114605,537.2206790051324 89.83974923415478,542.2663933467215 66.66810290088172,542.65714117678 53.846093847777816,537.4130802488357 53.681818181818215,526.1741073718885 64.83847588672158,510.29733286770545 84.97996411550476,491.4106062137265 111.678610796798,470.96956455206544 142.4228393180884,450.2540031739908 175.06456825779028,430.21314471901746 209.1665525629184,411.0700019359642 244.72394373319793,392.88160334579834 281.7301891053737,375.7055725669144 320.1769974737202,359.6000842537337 359.82392006743027,344.68126034454224 399.49942199878757,331.2632119783377 437.7803672591566,319.62881406616305 473.2244740296085,309.9633070236739 504.3745607346131,302.3534926991166 530.0876791667928,296.73562565513464 550.5207783091444,292.78596721844565 566.1696371344766,290.1546469523124 577.5443580138415,288.52894687459184 585.1677116491225,287.6337688126139 589.6071675644602,287.2296869570779 590.5000000000001,287.16725403126065 590.5000000000001,287.16725403126065 590.5000000000001,287.16725403126065 590.2092568019244,287.16725403126065 589.7215030188231,287.1536653159079 589.6551079636079,287.1377497512125 589.8616879868232,287.1338015161605 590.192721489127,287.1457670246165 590.5000000000001,287.16725403126065 590.5000000000001,287.16725403126065 590.5000000000001,287.16725403126065 590.5000000000001,287.16725403126065 590.5000000000001,287.16725403126065 590.5000000000001,287.16725403126065 590.4556163371224,287.15862672114986 590.4450392371317,287.15557176047855 590.4565862884729,287.1572311862103 590.4787034823999,287.1619442130599 590.5000000000001,287.16725403126065 590.5000000000001,287.16725403126065 590.5000000000001,287.16725403126065 590.5000000000001,287.16725403126065 590.5000000000001,287.16725403126065 590.5000000000001,287.16725403126065 590.4969693679844,287.16609068062644 590.4962595907391,287.1657428078239 590.4970553480416,287.1660041006619 590.4985604076091,287.16661308343305 590.5000000000001,287.16725403126065 590.5000000000001,287.16725403126065 590.5000000000001,287.16725403126065 590.5000000000001,287.16725403126065 590.5000000000001,287.16725403126065 590.5000000000001,287.16725403126065 590.4998002200183,287.1671339913372 590.4997543715592,287.167100545576 590.4998073787507,287.16712894155864 590.4999062030972,287.1671907644509 590.5000000000001,287.16725403126065 590.5000000000001,287.16725403126065 590.5000000000001,287.16725403126065 590.5000000000001,287.16725403126065 590.5000000000001,287.16725403126065 590.5000000000001,287.16725403126065 590.4999873709368,287.1672430529834 590.4999845461558,287.16724011655697 590.4999879400598,287.1672427851844 590.4999941567661,287.1672483885152 590.5000000000001,287.16725403126065 590.5000000000001,287.16725403126065 590.5000000000001,287.16725403126065 590.5000000000001,287.16725403126065 590.5000000000001,287.16725403126065 590.5000000000001,287.16725403126065 590.4999992439197,287.1672530975792 590.4999990808002,287.16725285473854 590.4999992874988,287.1672530857396 590.4999996571986,287.1672535594349 590.5000000000001,287.16725403126065 590.5000000000001,287.16725403126065 590.5000000000001,287.16725403126065 590.5000000000001,287.16725403126065 590.5000000000001,287.16725403126065 590.5000000000001,287.16725403126065 590.4999999581812,287.1672539558175 590.4999999496753,287.1672539366134 590.4999999614101,287.1672539555235 590.4999999816444,287.167253993626 590.5000000000001,287.16725403126065 590.5000000000001,287.16725403126065 590.5000000000001,287.16725403126065 590.5000000000001,287.16725403126065 590.5000000000001,287.16725403126065 590.5000000000001,287.16725403126065 590.4999999979838,287.16725402540476 590.4999999976217,287.1672540239406 590.4999999982156,287.16725402542374 590.4999999991713,287.1672540283703 590.5000000000001,287.16725403126065 590.5000000000001,287.16725403126065 590.5000000000001,287.16725403126065 590.5000000000001,287.16725403126065 590.5000000000001,287.16725403126065 590.5000000000001,287.16725403126065 590.49999999993,287.1672540308174 590.499999999922,287.1672540307052 590.4999999999454,287.16725403081523 590.4999999999767,287.1672540310375 590.5000000000001,287.16725403126065 590.5000000000001,287.16725403126065 590.5000000000001,287.16725403126065 590.5000000000001,287.16725403126065 590.5000000000001,287.16725403126065 590.5000000000001,287.16725403126065" stroke="black" stroke-width="9.0" /><polyline fill="none" points="590.5000000000002,820.8226666223841 599.7789325246728,818.7569423441657 608.9801412013267,816.36925817649 618.0839697244385,813.5007507334248 627.0595786201909,809.9935863646289 635.8649889053993,805.6914499341605 644.4520630017547,800.4868444871307 652.7878729703575,794.4612697635256 660.851414827448,787.7435810213752 668.6303169160883,780.4626608022533 676.120818812718,772.7470471446094 683.3211486423951,764.6906670464704 690.2069856518557,756.2517408543164 696.7429578685394,747.3560628514261 702.8881134562882,737.9313566378045 708.5959991101943,727.9075228811138 713.8173229161354,717.2258671447845 718.5090283843674,705.8659197118794 722.628838229972,693.8180042377371 726.1330535739497,681.0742435931129 728.9766165213985,667.6286310462793 731.1180961633977,653.489918644589 732.5363025483608,638.7194391765674 733.2186739149091,623.3913796209279 733.1567809561335,607.5796301055346 732.346295865031,591.3576171624657 730.8167177299142,574.8591594307013 728.7290997215438,558.4571373112813 726.3013082123686,542.5723684149164 723.7797730292842,527.6103293878255 721.4388084872387,513.9599230136889 719.5232585868316,501.89801604332945 718.064743430926,491.31351763203384 717.0283244435944,482.00378777211586 716.3660628838687,473.77136612325455 716.0172881107138,466.4245188582523 715.9150026398279,459.7861962205642 716.0057100579552,453.71895664746273 716.2333768266485,448.09863758790846 716.5338355322746,442.80607915727285 716.8350207188385,437.7274688434002 717.0670614239856,432.76600288821453 717.1936442759594,427.8748009134589 717.1854127933988,423.0207267274619 717.0106180824031,418.1728340719703 716.6352169122401,413.3024709435008 716.0250763939864,408.38541126173357 715.1526691191573,403.407748512201 713.9913469423484,398.3593622539388 712.5133823377104,393.2318691335329 710.6900425176867,388.018674379033 708.5106827274888,382.73042065042284 706.0420029095337,377.43856016227653 703.3746387792022,372.22439523721846 700.6044174407189,367.16279582319805 697.8320735367994,362.32198101340646 695.1242803846435,357.73722221921264 692.393723531974,353.33781179209245 689.5088581927205,349.0348550834284 686.3320640925358,344.7489673845904 682.7200661507917,340.4105340481053 678.5690524147776,335.9847269376402 673.9525811995256,331.5397785515438 668.9935482702004,327.16171449604724 663.8200118087163,322.9278131844054 658.5648064986842,318.90639455243513 653.3478994106592,315.1489416602716 648.2231856291827,311.66929264224086 643.2281388267836,308.47080495675823 638.4006921207082,305.5546069897048 633.7791454096629,302.9195747248567 629.3851433740866,300.5564826416862 625.1720025568799,298.43287056982865 621.0741537481609,296.51471089170775 617.0240740944754,294.77290988937614 612.9525072423266,293.183385214896 608.8326331089951,291.73809283118317 604.8136104331974,290.4718113804489 601.0911830592364,289.4184794863497 597.8635611563403,288.59858532518456 595.3308361637223,288.019060786307 593.6282094936831,287.6627137411356 592.6254700593431,287.46596936753576 592.1230740366287,287.36654246416106 591.9185412882387,287.31634872855386 591.8070790386554,287.2816086294755 591.6237793112367,287.2458363358236 591.3693153229082,287.2128129168311 591.086139854359,287.18772248600465 590.8169123046384,287.17278575611465 590.6043693531554,287.16725403126065 590.5000000000001,287.16725403126065 590.5000000000001,287.16725403126065 590.5000000000001,287.16725403126065 590.5000000000001,287.16725403126065 590.5000000000001,287.16725403126065 590.5195329498869,287.16520103550033 590.5242256808056,287.1642794916804 590.5191660528526,287.1645604181949 590.5094167561591,287.1657625636069 590.5000000000001,287.16725403126065 590.5000000000001,287.16725403126065 590.5000000000001,287.16725403126065 590.5000000000001,287.16725403126065 590.5000000000001,287.16725403126065 590.5000000000001,287.16725403126065 590.5013555015822,287.16686534743667 590.5016758166519,287.1667416826938 590.5013215729366,287.1668246261836 590.5006472266155,287.16703117326495 590.5000000000001,287.16725403126065 590.5000000000001,287.16725403126065 590.5000000000001,287.16725403126065 590.5000000000001,287.16725403126065 590.5000000000001,287.16725403126065 590.5000000000001,287.16725403126065 590.5000909962476,287.1672096494252 590.5001121026748,287.16719691209505 590.500088089601,287.16720719318903 590.5000429843602,287.16723020464076 590.5000000000001,287.16725403126065 590.5000000000001,287.16725403126065 590.5000000000001,287.16725403126065 590.5000000000001,287.16725403126065 590.5000000000001,287.16725403126065 590.5000000000001,287.16725403126065 590.5000058806571,287.1672497587134 590.5000072142072,287.1672485949657 590.5000056445168,287.1672496212809 590.5000027421975,287.1672518106732 590.5000000000001,287.16725403126065 590.5000000000001,287.16725403126065 590.5000000000001,287.16725403126065 590.5000000000001,287.16725403126065 590.5000000000001,287.16725403126065 590.5000000000001,287.16725403126065 590.5000003625305,287.16725365584955 590.5000004423116,287.1672535569396 590.5000003441205,287.1672536490763 590.5000001662052,287.16725384006384 590.5000000000001,287.16725403126065 590.5000000000001,287.16725403126065 590.5000000000001,287.16725403126065 590.5000000000001,287.16725403126065 590.5000000000001,287.16725403126065 590.5000000000001,287.16725403126065 590.5000000209528,287.167254000197 590.5000000253607,287.1672539922089 590.5000000195666,287.16725399994766 590.5000000093681,287.16725401566976 590.5000000000001,287.16725403126065 590.5000000000001,287.16725403126065 590.5000000000001,287.16725403126065 590.5000000000001,287.16725403126065 590.5000000000001,287.16725403126065 590.5000000000001,287.16725403126065 590.5000000010942,287.1672540288031 590.5000000013064,287.16725402818327 590.5000000009932,287.16725402880274 590.5000000004682,287.1672540300415 590.5000000000001,287.16725403126065 590.5000000000001,287.16725403126065 590.5000000000001,287.16725403126065 590.5000000000001,287.16725403126065 590.5000000000001,287.16725403126065 590.5000000000001,287.16725403126065 590.500000000047,287.1672540310732 590.5000000000542,287.1672540310266 590.5000000000398,287.1672540310742 590.5000000000181,287.16725403116834 590.5000000000001,287.16725403126065 590.5000000000001,287.16725403126065 590.5000000000001,287.16725403126065 590.5000000000001,287.16725403126065 590.5000000000001,287.16725403126065 590.5000000000001,287.16725403126065 590.5000000000013,287.1672540312451 590.5000000000013,287.16725403123985 590.5000000000008,287.16725403124235 590.5000000000003,287.1672540312502 590.5000000000001,287.16725403126065" stroke="black" stroke-dasharray="8.0,8.0" stroke-width="7.0" /><polyline fill="none" points="590.5000000000002,820.8226666223841 581.1640493462144,822.0235087733034 571.8007645369951,822.6432969467518 562.4582669827386,822.2353946944123 553.1243112120053,821.6645055031055 543.8017404381434,820.9308032712094 534.6858683032837,818.2032446897985 525.7521788744892,814.495939733954 517.0136914432298,810.0495089458874 508.46692690865314,805.103693515202 500.0919754423558,799.8966400525799 491.86043046588657,794.6238476115672 483.7646530666868,789.317580959355 475.80415921604987,783.9695212676779 467.9791884526504,778.5713889467096 460.29070019357044,773.1149765268248 452.755640538364,767.5389227753849 445.4601685445615,761.5711665317806 438.52668118547945,754.8930354365974 432.10008849431273,747.1940000489657 426.34745771225164,738.1726573129197 421.4216087811483,727.6315220715119 417.33959191922065,715.754303604199 414.0677360797107,702.8156203955156 411.5545941887029,689.0852160046474 409.73119649167074,674.8272041671058 408.5393876059177,660.241796638969 408.0243023973459,645.295975145611 408.2642799251407,629.9027957074945 409.34463647178615,613.9801809597141 411.357460262563,597.4512346534283 414.3658955689923,580.3036301779704 418.2892112940603,562.7621254707689 422.99500216371155,545.102331463199 428.33304243404206,527.5896557010119 434.1357500976842,510.47854585497896 440.2050631233395,494.0304878866526 446.2695136567487,478.56757405286567 452.021175814352,464.4120662836176 457.1294429586506,451.86617568711904 461.2418886030215,441.21107266055253 464.09366652249366,432.5811065364278 465.8512490327081,425.60371681336267 466.81723053021864,419.8007859798505 467.3251766617722,414.7185174937939 467.7385100529822,409.9287439782787 468.37315112472965,405.10378109266935 469.2575339137061,400.22768273726376 470.3427822218695,395.3572988702658 471.576448521701,390.5459201453514 472.9026724544238,385.8431282021876 474.25935898231813,381.2970691357323 475.56905667461797,376.9611480922398 476.74752788848497,372.8858901000981 477.7068819362724,369.1162511708885 478.3558148367218,365.69145784897376 478.65116866011687,362.6102433688841 478.75689415849257,359.7340754522088 478.8982849646667,356.903745377359 479.3112040129165,353.97622281698887 480.24136868361694,350.82510450225436 481.8992353321295,347.36564088135344 484.32271769395913,343.62271646156614 487.50403602221365,339.6463188731543 491.4332716153824,335.48532590704144 496.0984240222738,331.1874318515754 501.4622505851373,326.80941414607094 507.39125325554994,322.4448240310219 513.7231178766201,318.1871279469607 520.2900554957243,314.11832662828465 526.9193066140986,310.3087338977349 533.4683689276726,306.80481944041185 539.9312908375085,303.59802365122755 546.3376071124919,300.66905250360367 552.7179496781916,298.00108262554636 559.1039347092548,295.5798043714308 565.4767554119425,293.40624962905747 571.6114646482852,291.52801602092245 577.2281452256443,289.9882738490817 582.043552520048,288.8110209066207 585.7719475844423,288.0009372383274 588.2220609276351,287.52804413633066 589.5883203540297,287.29538224968655 590.1660414018078,287.20825899109946 590.2549736280758,287.1930073407017 590.1583770694425,287.1971421648849 590.1251525173586,287.1934659206869 590.1775985311073,287.184150376283 590.2809187923082,287.17490451561457 590.4000963068056,287.16899785671194 590.5000000000001,287.16725403126065 590.5000000000001,287.16725403126065 590.5000000000001,287.16725403126065 590.5000000000001,287.16725403126065 590.5000000000001,287.16725403126065 590.5000000000001,287.16725403126065 590.485706187701,287.1657516910499 590.4822721434163,287.1650773241744 590.4859746754292,287.16528290043846 590.4931090108877,287.1661626058069 590.5000000000001,287.16725403126065 590.5000000000001,287.16725403126065 590.5000000000001,287.16725403126065 590.5000000000001,287.16725403126065 590.5000000000001,287.16725403126065 590.5000000000001,287.16725403126065 590.4990080717303,287.16696960040633 590.4987736717288,287.16687910508256 590.4990329000176,287.16693980142816 590.4995263728314,287.167090948348 590.5000000000001,287.16725403126065 590.5000000000001,287.16725403126065 590.5000000000001,287.16725403126065 590.5000000000001,287.16725403126065 590.5000000000001,287.16725403126065 590.5000000000001,287.16725403126065 590.4999334108115,287.1672215535433 590.4999179655609,287.1672122326262 590.499935537836,287.16721975612006 590.4999685449266,287.1672365954288 590.5000000000001,287.16725403126065 590.5000000000001,287.16725403126065 590.5000000000001,287.16725403126065 590.5000000000001,287.16725403126065 590.5000000000001,287.16725403126065 590.5000000000001,287.16725403126065 590.4999956966559,287.1672509046982 590.4999947207912,287.1672500530914 590.4999958694585,287.1672508041279 590.4999979933164,287.1672524062802 590.5000000000001,287.16725403126065 590.5000000000001,287.16725403126065 590.5000000000001,287.16725403126065 590.5000000000001,287.16725403126065 590.5000000000001,287.16725403126065 590.5000000000001,287.16725403126065 590.4999997347079,287.16725375654244 590.4999996763256,287.16725368416235 590.4999997481799,287.1672537515859 590.4999998783748,287.1672538913467 590.5000000000001,287.16725403126065 590.5000000000001,287.16725403126065 590.5000000000001,287.16725403126065 590.5000000000001,287.16725403126065 590.5000000000001,287.16725403126065 590.5000000000001,287.16725403126065 590.4999999846674,287.16725400852897 590.4999999814418,287.1672540026833 590.4999999856817,287.1672540083465 590.4999999931449,287.1672540198516 590.5000000000001,287.16725403126065 590.5000000000001,287.16725403126065 590.5000000000001,287.16725403126065 590.5000000000001,287.16725403126065 590.5000000000001,287.16725403126065 590.5000000000001,287.16725403126065 590.4999999991994,287.16725402946224 590.4999999990442,287.16725402900863 590.4999999992733,287.167254029462 590.4999999996577,287.16725403036855 590.5000000000001,287.16725403126065 590.5000000000001,287.16725403126065 590.5000000000001,287.16725403126065 590.5000000000001,287.16725403126065 590.5000000000001,287.16725403126065 590.5000000000001,287.16725403126065 590.4999999999659,287.16725403112343 590.4999999999606,287.1672540310893 590.4999999999711,287.16725403112423 590.4999999999869,287.16725403119324 590.5000000000001,287.16725403126065 590.5000000000001,287.16725403126065 590.5000000000001,287.16725403126065 590.5000000000001,287.16725403126065 590.5000000000001,287.16725403126065 590.5000000000001,287.16725403126065 590.4999999999993,287.1672540312494 590.4999999999993,287.1672540312454 590.4999999999997,287.16725403124735 590.5,287.16725403125304 590.5000000000001,287.16725403126065" stroke="black" stroke-dasharray="8.0,8.0" stroke-width="7.0" /></g><rect fill="white" height="111.60000000000001" stroke="none" width="1181" x="0" y="0" /><line stroke="black" stroke-width="3.0" x1="0" x2="1181" y1="111.60000000000001" y2="111.60000000000001" /><text font-family="Arial" font-size="62.0" text-anchor="start" x="40.0" y="77.5">LED</text><text font-family="Arial" font-size="62.0" text-anchor="middle" x="590.5" y="77.5" /><text font-family="Arial" font-size="62.0" text-anchor="end" x="1141.0" y="77.5">cd / klm</text><rect fill="none" height="1178.0" stroke="black" stroke-width="3.0" width="1178.0" x="1.5" y="1.5" /></svg>