<?xml version="1.0" encoding="utf-8" ?>
<svg baseProfile="full" height="1181" version="1.1" width="1181" xmlns="http://www.w3.org/2000/svg" xmlns:ev="http://www.w3.org/2001/xml-events" xmlns:xlink="http://www.w3.org/1999/xlink"><defs><clipPath id="plot_clip"><rect height="1069.4" width="1181.0" x="0" y="111.60000000000001" /></clipPath></defs><g clip-path="url(#plot_clip)" id="grid"><circle cx="590.4999999999999" cy="315.08235388326295" fill="none" r="282.72803066776083" stroke="black" stroke-width="3.0" /><text font-family="Arial" font-size="42.0" text-anchor="start" x="598.4999999999999" y="637.8103845510237">250</text><circle cx="590.4999999999999" cy="315.08235388326295" fill="none" r="565.4560613355217" stroke="black" stroke-width="3.0" /><text font-family="Arial" font-size="42.0" text-anchor="start" x="598.5" y="920.5384152187845">500</text><circle cx="590.4999999999999" cy="315.08235388326295" fill="none" r="848.1840920032824" stroke="black" stroke-width="3.0" /><text font-family="Arial" font-size="42.0" text-anchor="start" x="598.5" y="1203.2664458865452">750</text><line stroke="black" stroke-width="3.0" x1="-2934.2703583349744" x2="4115.270358334974" y1="315.0823538832626" y2="315.0823538832633" /><line stroke="black" stroke-width="3.0" x1="-2462.0406728244666" x2="3643.040672824466" y1="-1447.3028252842246" y2="2077.4675330507507" /><line stroke="black" stroke-width="3.0" x1="-1171.8851791674867" x2="2352.8851791674865" y1="-2737.4583189412037" y2="3367.62302670773" /><line stroke="black" stroke-width="3.0" x1="590.4999999999999" x2="590.4999999999999" y1="-3209.688004451711" y2="3839.852712218237" /><line stroke="black" stroke-width="3.0" x1="2352.885179167487" x2="-1171.8851791674872" y1="-2737.4583189412037" y2="3367.62302670773" /><line stroke="black" stroke-width="3.0" x1="3643.040672824466" x2="-2462.040672824466" y1="-1447.3028252842246" y2="2077.4675330507507" /><line stroke="black" stroke-width="3.0" x1="4115.270358334974" x2="-2934.270358334974" y1="315.0823538832626" y2="315.0823538832633" /></g><g clip-path="url(#plot_clip)" id="curves"><polyline fill="none" points="590.4999999999999,707.7576611171025 597.3517210121474,707.6171877738644 604.1944576470081,707.2403116351481 611.0138869693844,706.5106351426958 617.7875506702535,705.3125089816748 624.4848867569982,703.5313870191757 631.0725855066717,701.1047192438461 637.5376312898886,698.1731182594541 643.8837218112275,694.9272717270532 650.1276749618276,691.5566769900528 656.2993606328464,688.2490715827946 662.4325452947601,685.1432186583878 668.5310801299963,682.18972293797 674.5846789084057,679.2931119719524 680.5764004407893,676.3590633327203 686.482707256889,673.2946940139822 692.2803750744139,670.0327040173194 697.9704161898218,666.6022460873224 703.5634006370487,663.0557206809581 709.0734105293025,659.4445425455843 714.5179930886591,655.818989500433 719.9231988320151,652.2413138782374 725.3406406427998,648.8246508444878 730.835345542553,645.6917096883805 736.4809611826544,642.9609609893885 742.359573527183,640.7462602579373 748.5506317746394,639.1341713748412 755.094999901156,638.118229842891 762.0220401335974,637.6683941527155 769.3596868508034,637.7537704550047 777.1344276044022,638.342664935623 785.3602082521871,639.384200403927 794.0026241287832,640.7546300270172 803.0077514438714,642.3155948706983 812.3127763989988,643.9333184898627 821.846210026982,645.47898260064 831.5480174944169,646.8564871279973 841.433363446444,648.0821744166589 851.5396427234531,649.1978602578178 861.907430675526,650.2426182869543 872.580361889737,651.2526385656317 883.585135856933,652.2382347991563 894.8686147288533,653.1179465223524 906.3519164968343,653.792066135797 917.9497105086725,654.1664553569399 929.570464243818,654.1528181270809 941.1839070683593,653.7338664446648 953.0318979673142,653.1488179439028 965.4422290110876,652.6818532628932 978.7627372580037,652.5940021698716 993.3602870399833,653.1222721544862 1009.514221599265,654.3933802159822 1027.086985241963,656.181490172709 1045.8197504023108,658.1903958907178 1065.4357219070957,660.1433539176954 1085.641012477239,661.7838232966137 1104.3907477923492,661.706039995726 1110.361897193199,652.6846173345899 1116.1746916241482,643.5603577535799 1121.8273604517035,634.3360405905534 1127.3181818181818,625.0144756618755 1102.8693964487834,599.0933480222158 1066.1580748301492,567.9942385163947 1020.8656352523814,534.364597632188 970.83398391307,500.5836323767513 920.0536085626355,468.75572532863464 871.9508751861783,440.39235702134215 827.2312682412684,415.56881546104205 785.8996788553753,394.02894866060194 747.9499535885878,375.5217283839172 713.3651908021055,359.80162616266693 682.2010115544668,346.65754432806057 654.8386553635821,335.9872502400317 631.742535447049,327.6914623505721 613.3771280996882,321.6422648052617 600.2057716579087,317.6830075609205 592.3995458947091,315.5559638674997 590.4999999999999,315.08235388326295 590.4999999999999,315.08235388326295 590.4999999999999,315.08235388326295 591.4633773378202,315.2522233005237 592.287556268747,315.36547498243704 592.3201024890756,315.3381526063215 591.8424359178327,315.2471842879744 591.1397222144423,315.1495913973944 590.4999999999999,315.08235388326295 590.4999999999999,315.08235388326295 590.4999999999999,315.08235388326295 590.4999999999999,315.08235388326295 590.4999999999999,315.08235388326295 590.4999999999999,315.08235388326295 590.5939662234937,315.08071369673075 590.6167199454782,315.0782779329518 590.5924844564599,315.0775069782816 590.5455099778137,315.07917151560275 590.4999999999999,315.08235388326295 590.4999999999999,315.08235388326295 590.4999999999999,315.08235388326295 590.4999999999999,315.08235388326295 590.4999999999999,315.08235388326295 590.4999999999999,315.08235388326295 590.5066235284256,315.08106639975995 590.5082019858559,315.08061049735056 590.5064787792111,315.0808581392257 590.5031781534138,315.0815614806195 590.4999999999999,315.08235388326295 590.4999999999999,315.08235388326295 590.4999999999999,315.08235388326295 590.4999999999999,315.08235388326295 590.4999999999999,315.08235388326295 590.4999999999999,315.08235388326295 590.5004522717594,315.08218027240025 590.500558194287,315.08212835813174 590.5004394406565,315.0821673517711 590.5002148353809,315.08225823238865 590.4999999999999,315.08235388326295 590.4999999999999,315.08235388326295 590.4999999999999,315.08235388326295 590.4999999999999,315.08235388326295 590.4999999999999,315.08235388326295 590.4999999999999,315.08235388326295 590.5000298138616,315.08233596928744 590.5000366559867,315.0823309780602 590.5000287455391,315.0823352156915 590.500013997638,315.08234444173684 590.4999999999999,315.08235388326295 590.4999999999999,315.08235388326295 590.4999999999999,315.08235388326295 590.4999999999999,315.08235388326295 590.4999999999999,315.08235388326295 590.4999999999999,315.08235388326295 590.5000018846789,315.0823522449364 590.5000023062308,315.0823518067232 590.5000017997468,315.0823522049718 590.5000008720061,315.08235304117636 590.4999999999999,315.08235388326295 590.4999999999999,315.08235388326295 590.4999999999999,315.08235388326295 590.4999999999999,315.08235388326295 590.4999999999999,315.08235388326295 590.4999999999999,315.08235388326295 590.5000001128324,315.08235374392643 590.5000001371753,315.08235370768637 590.5000001063289,315.0823537421594 590.5000000511574,315.0823538128508 590.4999999999999,315.08235388326295 590.4999999999999,315.08235388326295 590.4999999999999,315.08235388326295 590.4999999999999,315.08235388326295 590.4999999999999,315.08235388326295 590.4999999999999,315.08235388326295 590.5000000062407,315.0823538720043 590.50000000751,315.0823538691384 590.5000000057588,315.0823538719603 590.5000000027392,315.0823538776466 590.4999999999999,315.08235388326295 590.4999999999999,315.08235388326295 590.4999999999999,315.08235388326295 590.4999999999999,315.08235388326295 590.4999999999999,315.08235388326295 590.4999999999999,315.08235388326295 590.5000000003007,315.08235388238904 590.5000000003549,315.0823538821704 590.5000000002661,315.0823538823919 590.5000000001236,315.0823538828315 590.4999999999999,315.08235388326295 590.4999999999999,315.08235388326295 590.4999999999999,315.08235388326295 590.4999999999999,315.08235388326295 590.4999999999999,315.08235388326295 590.4999999999999,315.08235388326295 590.5000000000103,315.0823538831967 590.5000000000116,315.08235388317996 590.500000000008,315.08235388319645 590.5000000000034,315.08235388322964 590.4999999999999,315.08235388326295 590.4999999999999,315.08235388326295 590.4999999999999,315.08235388326295 590.4999999999999,315.08235388326295 590.4999999999999,315.08235388326295 590.4999999999999,315.08235388326295" stroke="black" stroke-width="9.0" /><polyline fill="none" points="590.4999999999999,707.7576611171025 583.6482789878523,707.6171877738644 576.8055423529918,707.2403116351481 569.9861130306155,706.5106351426958 563.2124493297464,705.3125089816748 556.5151132430016,703.5313870191757 549.9274144933282,701.1047192438461 543.4623687101111,698.1731182594542 537.1162781887723,694.927271727053 530.8723250381724,691.5566769900528 524.7006393671534,688.2490715827946 518.5674547052397,685.1432186583878 512.4689198700034,682.18972293797 506.4153210915941,679.2931119719525 500.42359955921074,676.3590633327203 494.517292743111,673.2946940139822 488.719624925586,670.0327040173194 483.029583810178,666.6022460873223 477.43659936295114,663.0557206809582 471.92658947069737,659.4445425455842 466.4820069113409,655.818989500433 461.07680116798457,652.2413138782374 455.65935935720006,648.8246508444878 450.1646544574469,645.6917096883805 444.5190388173456,642.9609609893886 438.64042647281684,640.7462602579373 432.44936822536033,639.1341713748411 425.9050000988439,638.1182298428911 418.9779598664024,637.6683941527153 411.6403131491965,637.7537704550047 403.8655723955976,638.342664935623 395.63979174781275,639.3842004039271 386.99737587121666,640.7546300270172 377.9922485561285,642.3155948706983 368.687223601001,643.9333184898627 359.1537899730177,645.47898260064 349.4519825055831,646.8564871279974 339.56663655355584,648.0821744166589 329.4603572765467,649.1978602578178 319.09256932447363,650.2426182869543 308.4196381102629,651.2526385656319 297.41486414306684,652.2382347991563 286.1313852711464,653.1179465223526 274.64808350316554,653.792066135797 263.05028949132725,654.1664553569398 251.4295357561819,654.152818127081 239.8160929316404,653.7338664446647 227.9681020326857,653.1488179439029 215.55777098891198,652.6818532628932 202.23726274199623,652.5940021698716 187.63971296001654,653.1222721544863 171.48577840073494,654.3933802159825 153.91301475803684,656.1814901727088 135.18024959768886,658.1903958907177 115.564278092904,660.1433539176955 95.35898752276093,661.7838232966138 76.6092522076504,661.7060399957259 70.63810280680082,652.6846173345899 64.82530837585165,643.56035775358 59.172639548296324,634.3360405905535 53.681818181818166,625.014475661876 78.1306035512164,599.0933480222157 114.84192516985057,567.9942385163946 160.13436474761846,534.3645976321881 210.16601608692986,500.58363237675144 260.94639143736424,468.7557253286345 309.04912481382144,440.39235702134204 353.76873175873146,415.56881546104205 395.1003211446245,394.02894866060194 433.0500464114119,375.5217283839173 467.63480919789424,359.80162616266693 498.798988445533,346.65754432806057 526.1613446364177,335.9872502400317 549.2574645529509,327.69146235057224 567.6228719003116,321.6422648052617 580.7942283420912,317.6830075609205 588.6004541052906,315.5559638674997 590.4999999999999,315.08235388326295 590.4999999999999,315.08235388326295 590.4999999999999,315.08235388326295 589.5366226621795,315.2522233005237 588.7124437312527,315.36547498243704 588.6798975109242,315.3381526063215 589.157564082167,315.2471842879744 589.8602777855575,315.1495913973944 590.4999999999999,315.08235388326295 590.4999999999999,315.08235388326295 590.4999999999999,315.08235388326295 590.4999999999999,315.08235388326295 590.4999999999999,315.08235388326295 590.4999999999999,315.08235388326295 590.4060337765061,315.08071369673075 590.3832800545216,315.0782779329518 590.40751554354,315.0775069782816 590.4544900221861,315.07917151560275 590.4999999999999,315.08235388326295 590.4999999999999,315.08235388326295 590.4999999999999,315.08235388326295 590.4999999999999,315.08235388326295 590.4999999999999,315.08235388326295 590.4999999999999,315.08235388326295 590.4933764715742,315.08106639975995 590.4917980141439,315.08061049735056 590.4935212207887,315.0808581392257 590.496821846586,315.0815614806195 590.4999999999999,315.08235388326295 590.4999999999999,315.08235388326295 590.4999999999999,315.08235388326295 590.4999999999999,315.08235388326295 590.4999999999999,315.08235388326295 590.4999999999999,315.08235388326295 590.4995477282404,315.08218027240025 590.4994418057128,315.08212835813174 590.4995605593434,315.0821673517711 590.499785164619,315.08225823238865 590.4999999999999,315.08235388326295 590.4999999999999,315.08235388326295 590.4999999999999,315.08235388326295 590.4999999999999,315.08235388326295 590.4999999999999,315.08235388326295 590.4999999999999,315.08235388326295 590.4999701861382,315.08233596928744 590.499963344013,315.0823309780602 590.4999712544607,315.0823352156915 590.4999860023618,315.08234444173684 590.4999999999999,315.08235388326295 590.4999999999999,315.08235388326295 590.4999999999999,315.08235388326295 590.4999999999999,315.08235388326295 590.4999999999999,315.08235388326295 590.4999999999999,315.08235388326295 590.4999981153209,315.0823522449364 590.4999976937689,315.0823518067232 590.499998200253,315.0823522049718 590.4999991279938,315.08235304117636 590.4999999999999,315.08235388326295 590.4999999999999,315.08235388326295 590.4999999999999,315.08235388326295 590.4999999999999,315.08235388326295 590.4999999999999,315.08235388326295 590.4999999999999,315.08235388326295 590.4999998871674,315.08235374392643 590.4999998628246,315.08235370768637 590.4999998936709,315.0823537421594 590.4999999488425,315.0823538128508 590.4999999999999,315.08235388326295 590.4999999999999,315.08235388326295 590.4999999999999,315.08235388326295 590.4999999999999,315.08235388326295 590.4999999999999,315.08235388326295 590.4999999999999,315.08235388326295 590.4999999937592,315.0823538720043 590.4999999924897,315.0823538691384 590.499999994241,315.0823538719603 590.4999999972606,315.0823538776466 590.4999999999999,315.08235388326295 590.4999999999999,315.08235388326295 590.4999999999999,315.08235388326295 590.4999999999999,315.08235388326295 590.4999999999999,315.08235388326295 590.4999999999999,315.08235388326295 590.4999999996991,315.08235388238904 590.499999999645,315.0823538821704 590.4999999997336,315.0823538823919 590.4999999998762,315.0823538828315 590.4999999999999,315.08235388326295 590.4999999999999,315.08235388326295 590.4999999999999,315.08235388326295 590.4999999999999,315.08235388326295 590.4999999999999,315.08235388326295 590.4999999999999,315.08235388326295 590.4999999999895,315.0823538831967 590.4999999999882,315.08235388317996 590.4999999999918,315.08235388319645 590.4999999999965,315.08235388322964 590.4999999999999,315.08235388326295 590.4999999999999,315.08235388326295 590.4999999999999,315.08235388326295 590.4999999999999,315.08235388326295 590.4999999999999,315.08235388326295 590.4999999999999,315.08235388326295" stroke="black" stroke-width="9.0" /><polyline fill="none" points="590.4999999999999,707.7576611171025 597.4888033687405,715.470630723331 604.7581316853822,723.3818241670326 612.3396723903948,731.8081279795894 620.287572953095,741.0644932829346 628.6783553603032,751.4629524849377 637.6057693190028,763.2638110807919 647.1588857555596,776.5319476995755 657.4253622819189,791.2810503236232 668.494698009144,807.521496575119 680.4581302414323,825.2602624483004 693.3859689006223,844.384778377956 707.2436337375499,864.3179682548654 721.9311119249929,884.3730443167101 737.3018227582218,903.8723056102477 753.1630577697941,922.1491499946454 769.2873548782451,938.5879576617657 785.4509468889554,952.7381689909663 801.4109562445791,964.1995317270943 816.8963531671793,972.5851054175229 831.6084926295594,977.5224930217183 843.1329451869115,973.2136767710748 854.5804433018496,968.7043873440184 865.9474999555532,963.9959983137911 877.2306526324506,959.0899439013024 887.1455741454882,951.240840576794 894.1320073444336,937.6202249679885 899.6122798461347,921.749361689935 903.5213029539468,903.7898025659428 905.8027452639467,883.9035637076036 906.408992346929,862.252779196032 905.310136859676,839.0144054947801 902.5231310752841,814.4237444025417 898.0881678290824,788.7265968071866 892.0599090407759,762.1633046953694 884.5072050882648,734.9681577978885 875.4671734658331,707.3060193694082 864.799305064369,679.0898262430113 852.3071259349892,650.180193972272 837.7821134919826,620.4503326964902 821.004231397837,589.7865997598022 801.8992100861976,558.2693264779016 781.034279716016,526.6921094398364 759.1909870078241,495.98129001363384 737.2124892601363,467.0075839238076 716.0010935082304,440.58344739149334 696.3889304404659,417.33810538594787 678.738052772624,397.36566926514604 663.2894522278768,380.6222710514677 650.2850709074776,367.0527231425359 639.967382886721,356.590416618816 632.4512425724278,349.05380029110563 627.32598600917,343.85396743416493 624.0142512529375,340.33715365107673 621.8979839504143,337.89432451686866 620.3204611759774,335.9628655915724 618.7106676039683,334.11068944795034 616.963685018952,332.26807187855763 615.0948719626087,330.4509355868312 613.120474431281,328.67410615273945 611.0575771950222,326.95127661069546 608.9313892215237,325.29903975960246 606.7977572924269,323.74802515057604 604.7220250455657,322.3288375873259 602.7716544410858,321.0676396697995 601.016032792749,319.98606050793103 599.5050946594581,319.09168033957246 598.2042858861022,318.35262921879246 597.0558242702738,317.7310788204202 595.9997281518528,317.19350172323107 594.9740081587756,316.71075968092146 593.9355145470129,316.26529640765773 592.923060313729,315.86965390435375 591.9971856623131,315.540089476072 591.2195864747475,315.2886919845513 590.6529328117172,315.12333210665884 590.4999999999999,315.08235388326295 590.4999999999999,315.08235388326295 590.4999999999999,315.08235388326295 590.4999999999999,315.08235388326295 590.4999999999999,315.08235388326295 590.5653043828501,315.0926970813914 590.5813667504593,315.0937892342895 590.5646695042158,315.0902942999418 590.5319201308023,315.08570882420054 590.4999999999999,315.08235388326295 590.4999999999999,315.08235388326295 590.4999999999999,315.08235388326295 590.4999999999999,315.08235388326295 590.4999999999999,315.08235388326295 590.4999999999999,315.08235388326295 590.5047463652668,315.082271035149 590.5058956875628,315.08214800131645 590.5046715191431,315.0821090593188 590.5022987725797,315.08219313742507 590.4999999999999,315.08235388326295 590.4999999999999,315.08235388326295 590.4999999999999,315.08235388326295 590.4999999999999,315.08235388326295 590.4999999999999,315.08235388326295 590.4999999999999,315.08235388326295 590.5003345636771,315.08228885067183 590.5004142937678,315.0822658224041 590.5003272521919,315.0822783311413 590.5001605329704,315.08231385789804 590.4999999999999,315.08235388326295 590.4999999999999,315.08235388326295 590.4999999999999,315.08235388326295 590.4999999999999,315.08235388326295 590.4999999999999,315.08235388326295 590.4999999999999,315.08235388326295 590.5000228448785,315.0823451139356 590.5000281951735,315.08234249167344 590.5000221967616,315.08234446129654 590.5000108516352,315.0823490518036 590.4999999999999,315.08235388326295 590.4999999999999,315.08235388326295 590.4999999999999,315.08235388326295 590.4999999999999,315.08235388326295 590.4999999999999,315.08235388326295 590.4999999999999,315.08235388326295 590.5000015059397,315.08235297840304 590.500001851545,315.0823527262892 590.5000014519773,315.0823529403377 590.5000007070402,315.08235340635827 590.4999999999999,315.08235388326295 590.4999999999999,315.08235388326295 590.4999999999999,315.08235388326295 590.4999999999999,315.08235388326295 590.4999999999999,315.08235388326295 590.4999999999999,315.08235388326295 590.5000000951976,315.0823538005087 590.5000001164908,315.082353778374 590.5000000909076,315.0823537984901 590.5000000440461,315.08235384072793 590.4999999999999,315.08235388326295 590.4999999999999,315.08235388326295 590.4999999999999,315.08235388326295 590.4999999999999,315.08235388326295 590.4999999999999,315.08235388326295 590.4999999999999,315.08235388326295 590.5000000056992,315.08235387622483 590.5000000069288,315.08235387439424 590.5000000053708,315.0823538761356 590.5000000025839,315.08235387970626 590.4999999999999,315.08235388326295 590.4999999999999,315.08235388326295 590.4999999999999,315.08235388326295 590.4999999999999,315.08235388326295 590.4999999999999,315.08235388326295 590.4999999999999,315.08235388326295 590.5000000003151,315.0823538826943 590.5000000003793,315.08235388254946 590.5000000002908,315.082353882692 590.5000000001382,315.0823538829792 590.4999999999999,315.08235388326295 590.4999999999999,315.08235388326295 590.4999999999999,315.08235388326295 590.4999999999999,315.08235388326295 590.4999999999999,315.08235388326295 590.4999999999999,315.08235388326295 590.5000000000151,315.08235388321884 590.5000000000177,315.0823538832077 590.5000000000134,315.08235388321896 590.5000000000063,315.0823538832411 590.4999999999999,315.08235388326295 590.4999999999999,315.08235388326295 590.4999999999999,315.08235388326295 590.4999999999999,315.08235388326295 590.4999999999999,315.08235388326295 590.4999999999999,315.08235388326295 590.5000000000005,315.08235388325954 590.5000000000006,315.08235388325863 590.5000000000003,315.08235388325954 590.5,315.08235388326125 590.4999999999999,315.08235388326295 590.4999999999999,315.08235388326295 590.4999999999999,315.08235388326295 590.4999999999999,315.08235388326295 590.4999999999999,315.08235388326295 590.4999999999999,315.08235388326295" stroke="black" stroke-dasharray="8.0,8.0" stroke-width="7.0" /><polyline fill="none" points="590.4999999999999,707.7576611171025 584.0000796069671,687.4625438030998 578.2178261849582,666.7977941155926 573.1827987677974,645.5142376438151 568.9428226094129,623.3643531827835 565.5639176883278,600.1030789316383 563.1194285376506,575.5910897409401 561.6432908967149,550.1013895917043 561.1372754405143,524.0089951805344 561.578253515602,497.68707455617766 562.9183125384011,471.5058765386059 565.0745943664366,445.8847265430852 567.8911464906148,421.44864684430354 571.1572403063112,398.8650508385514 574.6163120785047,378.7883465530293 577.966517672786,361.85794672419183 580.9151910295093,348.5085551284078 583.3671872440956,338.41273316306956 585.3094272451142,331.0572941994849 586.7633730696236,325.93430646027787 587.7847010214814,322.5425765138107 588.4508442273107,320.42058717855 588.8199469226242,319.24063116811703 588.9590641521218,318.7125712460693 588.9548471643487,318.55282397343774 588.913225536657,318.48520270118956 588.9331410020598,318.29489090595257 589.0210261275237,317.98500354275234 589.1554491787317,317.611086196825 589.311238005524,317.22693729094897 589.4595608471426,316.88444735819576 589.574426520227,316.6227668350567 589.6535002641132,316.43703663942665 589.7014996068235,316.3119366623075 589.7241354688078,316.2326203540615 589.7280891912739,316.1847567661275 589.7205064863346,316.1552346625963 589.7074347286444,316.1341235224113 589.6950837684728,316.11259967842227 589.6902647943023,316.08229358632525 589.700370069893,316.03531572521376 589.7316057301467,315.9662903755917 589.783453300513,315.87815961517265 589.8534125571299,315.7757340252915 589.9386858768997,315.66361167329194 590.0361881340971,315.54616574916565 590.141953312531,315.42811555020853 590.2492534572903,315.31617881713646 590.3502847975776,315.21715805701683 590.436773640147,315.1373157193634 590.4999999999999,315.08235388326295 590.4999999999999,315.08235388326295 590.4999999999999,315.08235388326295 590.4999999999999,315.08235388326295 590.4999999999999,315.08235388326295 590.4999999999999,315.08235388326295 590.4908504088257,315.0885253604355 590.4888878363469,315.0895702067161 590.4915662715531,315.08762386169167 590.4962056033137,315.0846337868046 590.4999999999999,315.08235388326295 590.4999999999999,315.08235388326295 590.498825446323,315.0829784045309 590.4955270932129,315.0846329431041 590.4920705360511,315.0862213412406 590.4897504553676,315.08713332441766 590.4895671389381,315.0869988922774 590.4911941741451,315.0860917345741 590.4939492289676,315.0847985534466 590.4971267223964,315.0834568311976 590.4999999999999,315.08235388326295 590.4999999999999,315.08235388326295 590.4999999999999,315.08235388326295 590.4999999999999,315.08235388326295 590.4999999999999,315.08235388326295 590.4999999999999,315.08235388326295 590.4973487760366,315.0830149076388 590.494370288071,315.08365360467246 590.4915997429858,315.0841394130109 590.4895805512976,315.0843792189228 590.488862689736,315.08431769155493 590.4898083624673,315.08396808006955 590.4920082461333,315.0834770510221 590.4948524383489,315.08298592435995 590.4977238333643,315.08259311801646 590.4999999999999,315.08235388326295 590.4999999999999,315.08235388326295 590.4999999999999,315.08235388326295 590.4999999999999,315.08235388326295 590.4999999999999,315.08235388326295 590.4999999999999,315.08235388326295 590.4996749244868,315.08234820904875 590.49959620814,315.08233978254054 590.4996800506499,315.082337115428 590.4998425585403,315.0823428738836 590.4999999999999,315.08235388326295 590.4999999999999,315.08235388326295 590.4999999999999,315.08235388326295 590.4999999999999,315.08235388326295 590.4999999999999,315.08235388326295 590.4999999999999,315.08235388326295 590.4999770859482,315.0823494292225 590.4999716252854,315.08234785203115 590.4999775867071,315.0823487087465 590.4999890051997,315.08235114195145 590.4999999999999,315.08235388326295 590.4999999999999,315.08235388326295 590.4999999999999,315.08235388326295 590.4999999999999,315.08235388326295 590.4999999999999,315.08235388326295 590.4999999999999,315.08235388326295 590.4999984353688,315.0823532826573 590.4999980689305,315.0823531030602 590.4999984797579,315.0823532379585 590.4999992567784,315.08235355235945 590.4999999999999,315.08235388326295 590.4999999999999,315.08235388326295 590.4999999999999,315.08235388326295 590.4999999999999,315.08235388326295 590.4999999999999,315.08235388326295 590.4999999999999,315.08235388326295 590.499999896859,315.08235382128964 590.4999998731888,315.08235380402255 590.4999999005548,315.0823538186826 590.4999999515751,315.08235385060004 590.4999999999999,315.08235388326295 590.4999999999999,315.08235388326295 590.4999999999999,315.08235388326295 590.4999999999999,315.08235388326295 590.4999999999999,315.08235388326295 590.4999999999999,315.08235388326295 590.4999999934798,315.0823538775952 590.4999999920215,315.0823538760791 590.4999999937736,315.08235387745685 590.4999999969831,315.08235388034973 590.4999999999999,315.08235388326295 590.4999999999999,315.08235388326295 590.4999999999999,315.08235388326295 590.4999999999999,315.08235388326295 590.4999999999999,315.08235388326295 590.4999999999999,315.08235388326295 590.4999999996096,315.0823538827809 590.4999999995254,315.0823538826555 590.4999999996321,315.08235388277467 590.4999999998229,315.0823538830192 590.4999999999999,315.08235388326295 590.4999999999999,315.08235388326295 590.4999999999999,315.08235388326295 590.4999999999999,315.08235388326295 590.4999999999999,315.08235388326295 590.4999999999999,315.08235388326295 590.4999999999783,315.08235388322396 590.499999999974,315.08235388321407 590.49999999998,315.08235388322385 590.4999999999903,315.0823538832435 590.4999999999999,315.08235388326295 590.4999999999999,315.08235388326295 590.4999999999999,315.08235388326295 590.4999999999999,315.08235388326295 590.4999999999999,315.08235388326295 590.4999999999999,315.08235388326295 590.4999999999989,315.08235388325977 590.4999999999986,315.0823538832592 590.499999999999,315.08235388326 590.4999999999995,315.08235388326136 590.4999999999999,315.08235388326295 590.4999999999999,315.08235388326295 590.4999999999999,315.08235388326295 590.4999999999999,315.08235388326295 590.4999999999999,315.08235388326295 590.4999999999999,315.08235388326295 590.4999999999999,315.0823538832626 590.4999999999999,315.0823538832626 590.4999999999999,315.0823538832626 590.4999999999999,315.0823538832627 590.4999999999999,315.08235388326295 590.4999999999999,315.08235388326295 590.4999999999999,315.08235388326295 590.4999999999999,315.08235388326295 590.4999999999999,315.08235388326295 590.4999999999999,315.08235388326295" stroke="black" stroke-dasharray="8.0,8.0" stroke-width="7.0" /></g><rect fill="white" height="111.60000000000001" stroke="none" width="1181" x="0" y="0" /><line stroke="black" stroke-width="3.0" x1="0" x2="1181" y1="111.60000000000001" y2="111.60000000000001" /><text font-family="Arial" font-size="62.0" text-anchor="start" x="40.0" y="77.5">LED</text><text font-family="Arial" font-size="62.0" text-anchor="middle" x="590.5" y="77.5" /><text font-family="Arial" font-size="62.0" text-anchor="end" x="1141.0" y="77.5">cd / klm</text><rect fill="none" height="1178.0" stroke="black" stroke-width="3.0" width="1178.0" x="1.5" y="1.5" /></svg>