<?xml version="1.0" encoding="utf-8" ?>
<svg baseProfile="full" height="1181" version="1.1" width="1181" xmlns="http://www.w3.org/2000/svg" xmlns:ev="http://www.w3.org/2001/xml-events" xmlns:xlink="http://www.w3.org/1999/xlink"><defs><clipPath id="plot_clip"><rect height="1069.4" width="1181.0" x="0" y="111.60000000000001" /></clipPath></defs><g clip-path="url(#plot_clip)" id="grid"><circle cx="53.92616792089536" cy="239.71561837309832" fill="none" r="260.96581258767407" stroke="black" stroke-width="3.0" /><text font-family="Arial" font-size="42.0" text-anchor="start" x="61.92616792089539" y="540.6814309607724">250</text><circle cx="53.92616792089536" cy="239.71561837309832" fill="none" r="521.9316251753481" stroke="black" stroke-width="3.0" /><text font-family="Arial" font-size="42.0" text-anchor="start" x="61.92616792089542" y="801.6472435484465">500</text><circle cx="53.92616792089536" cy="239.71561837309832" fill="none" r="782.8974377630221" stroke="black" stroke-width="3.0" /><text font-family="Arial" font-size="42.0" text-anchor="start" x="61.92616792089545" y="1062.6130561361206">750</text><circle cx="53.92616792089536" cy="239.71561837309832" fill="none" r="1043.8632503506963" stroke="black" stroke-width="3.0" /><text font-family="Arial" font-size="42.0" text-anchor="start" x="61.92616792089548" y="1323.5788687237944">1000</text><circle cx="53.92616792089536" cy="239.71561837309832" fill="none" r="1304.8290629383703" stroke="black" stroke-width="3.0" /><text font-family="Arial" font-size="42.0" text-anchor="start" x="61.92616792089552" y="1584.5446813114686">1250</text><line stroke="black" stroke-width="3.0" x1="-6458.214719391923" x2="6566.067055233713" y1="239.71561837309798" y2="239.71561837309866" /><line stroke="black" stroke-width="3.0" x1="-5585.753273515341" x2="5693.6056093571315" y1="-3016.3548252833116" y2="3495.7860620295082" /><line stroke="black" stroke-width="3.0" x1="-3202.144275735513" x2="3309.9966115773036" y1="-5399.963823063137" y2="5879.395059809334" /><line stroke="black" stroke-width="3.0" x1="53.92616792089536" x2="53.92616792089536" y1="-6272.42526893972" y2="6751.856505685917" /><line stroke="black" stroke-width="3.0" x1="3309.996611577304" x2="-3202.1442757355135" y1="-5399.963823063137" y2="5879.395059809334" /><line stroke="black" stroke-width="3.0" x1="5693.605609357131" x2="-5585.75327351534" y1="-3016.3548252833116" y2="3495.7860620295082" /><line stroke="black" stroke-width="3.0" x1="6566.067055233713" x2="-6458.214719391923" y1="239.71561837309798" y2="239.71561837309866" /></g><g clip-path="url(#plot_clip)" id="curves"><polyline fill="none" points="53.92616792089536,239.71561837309832 53.92616792089536,239.71561837309832 53.92616792089536,239.71561837309832 53.92616792089536,239.71561837309832 53.92616792089536,239.71561837309832 53.92616792089536,239.71561837309832 54.91340292538678,249.10853200779582 56.671574748782085,262.0751626651347 59.2797999342251,277.8086895055318 62.76214662300087,295.5037922871535 67.0878160243962,314.3590339786887 72.19252812233239,333.68789510456145 78.05737810758635,353.24403639555806 84.67221590941969,372.8913834649744 92.01838513127353,392.49515687658914 100.0687908002121,411.9222313531983 108.80193983442854,431.0901779612732 118.25069494974508,450.1116660381655 128.47224204998088,469.14484348123085 139.53566800692136,488.34365975532444 151.52177250372924,507.8573382024564 164.5104565099993,527.7975393035167 178.53878594637683,548.1426710177539 193.63020051061272,568.8376940647026 209.80576951103583,589.8269358460917 227.0841808782155,611.0541755017553 245.49419880203357,632.4882880124775 265.1156092740671,654.198234624597 286.04793143674084,676.2731622002117 308.39860692291893,698.7960507331433 332.282742259412,721.8433477482324 357.8007482122932,745.4478475599466 384.96668027900927,769.4911808112287 413.765464208266,793.819543329715 444.17380834707456,818.2815381231461 476.1603333848122,842.7285001588116 509.6871297463608,867.0167662862215 544.714429913906,891.0136399630045 581.1969808303471,914.5914832561932 619.0828405784721,937.6259864347508 658.3135318728359,959.9964306813675 698.7604944796636,981.5126555379411 740.0239716130274,1001.7044255504027 781.6070813093539,1020.0578607730625 822.9783271258481,1036.0924421159184 863.5730485435856,1049.3624989957884 902.8177856134294,1059.4807246065966 940.2034738882943,1066.1825766891418 975.2236100817184,1069.2555612959588 1007.3533882456113,1068.5172564743632 1036.0509458026788,1063.816157263771 1060.855435166018,1055.1108615449466 1080.2535775617996,1041.5704716154085 1094.0915597286757,1023.5364621466113 1107.6126974408992,1005.2636932557572 1120.8128720289399,986.7577310052636 1126.1929474324575,962.9686934808472 1127.3181818181815,936.7845426755639 1123.6461424649149,908.150845590882 1114.623482912568,877.0468636598662 1099.687356965287,843.4861223759408 1078.3831055014514,807.5813716975848 1050.7233214535045,769.7220663597021 1016.8551003194293,730.3524154846517 976.9454342225231,689.9021944225536 931.1805152462874,648.7860386806935 879.8929510570429,607.4597233373262 823.9526244603973,566.5724569892368 764.3947161371848,526.7635444835089 702.2906846892865,488.5994379536006 638.7450637442172,452.5722888892145 574.9418390943927,419.11570091478166 512.2923624777026,388.64782307192945 452.28679137620446,361.5066832483867 396.4407974965495,337.93010795880446 346.291233204049,318.0546015107918 303.0380658941426,301.82619037924235 266.46701003141527,288.784538131458 235.9883003147777,278.4141192450544 210.98914804376054,270.24556900347216 190.835823482836,263.85648456817137 174.87309636652483,258.8717299439312 162.41831064861313,254.96319467070282 152.77145442123478,251.8522934733644 145.2200232800468,249.31098922507726 139.04124917920427,247.1622230782882 133.6156663203178,245.28805094154745 128.7642872879675,243.63771801484575 124.41763764188528,242.17723473835952 120.50499780121454,240.87775617150407 116.9546309770704,239.71561837309832 113.70110711565826,238.67224292837352 110.70679176148846,237.7327952963634 107.94068702368855,236.88483737787953 105.37143710872785,236.11821470921757 102.96742915659296,235.42506396996146 100.70094409457475,234.7993912936406 98.5603429485613,234.23523079106303 96.53787204635215,233.7269339072153 94.62562762097706,233.26945722698997 92.81558277228606,232.8583652708337 91.09920210811995,232.4899124961987 89.46624338127617,232.16134213174666 87.90604533393045,231.87074554008257 86.40797697089664,231.61699379392803 84.9614717883787,231.39973376495175 83.55817759157691,231.2187763292701 82.1982503571426,231.0719753436091 80.88387040736525,230.95652987005747 79.61710175588475,230.86952044251382 78.3998872278257,230.80791302358966 77.23385678941706,230.76863487667754 76.1197724272864,230.74882010670308 75.0581038279917,230.74564376278056 74.0492166744949,230.75625983213365 73.09337173080233,230.77780445112114 72.19269298630431,230.80643881884328 71.35693735139853,230.8341977439875 70.59733220976344,230.8514030839292 69.92453823034077,230.84757690207948 69.34861422544006,230.811464847607 68.87450655063687,230.73375037059827 68.4889678022498,230.61577104925118 68.17465608149077,230.46254197002293 67.91475070748876,230.28020014498577 67.69299964017044,230.0759790259974 67.49490792387488,229.85735170948612 67.31109183615278,229.62935474643837 67.13368301106433,229.39677667127876 66.95518124212175,229.16493141728415 66.76847693635004,228.93964161476572 66.5698932775732,228.7245956039476 66.36789813022878,228.51303417455188 66.17339130982621,228.2948977996224 65.99656092171624,228.0593753446958 65.84685086560906,227.79493542838463 65.72958851239437,227.49281854418132 65.63641875748479,227.15791178939946 65.55617714428635,226.79918458202144 65.47838044032689,226.42631805724125 65.39325651366656,226.04967434606715 65.29274252831995,225.6790677108463 65.1732525185571,225.3200065557536 65.0324932868764,224.9770268089419 64.86846217953223,224.65484238703505 64.6794550434999,224.35833280302506 64.46425157204908,224.09226686897557 64.22261882441339,223.8604743751339 63.954718199686106,223.66658308572528 63.660921637253956,223.51426749722725 63.34181443905863,223.40724021753056 62.998170371661416,223.34929271597696 62.6308785583577,223.34443870404118 62.24104006651606,223.39676294817104 61.82999914910043,223.51036284271504 61.399345010643394,223.68933838594023 60.95128353381603,223.93695036554982 60.489632690820535,224.25306436686935 60.018505448073135,224.63655385300592 59.541904820947614,225.0861235845748 59.06371822067212,225.60031493314932 58.58793138407841,226.17687421417043 58.11919205285882,226.81081703117582 57.6619889003673,227.49629854020463 57.220401595662324,228.22726027432896 56.79809298212339,228.99744812906488 56.398177050135054,229.80093129001716 56.0229079319207,230.6336396006958 55.67417206832242,231.4919054296198 55.353627151387855,232.37197725623423 55.062699164648976,233.27002939297097 54.803202216283104,234.1782417621721 54.5786541570658,235.07293756397883 54.391441146096234,235.92627204340135 54.24204795466665,236.71022060798623 54.129050370407555,237.39666136386165 54.048496421652224,237.96623931009037 53.99328917506319,238.43486854767025 53.95718064748929,238.82753007936083 53.93570151035779,239.16943939859243 53.92616792089536,239.48596845802115" stroke="black" stroke-width="9.0" /><polyline fill="none" points="53.92616792089536,239.71561837309832 53.92616792089536,239.71561837309832 53.92616792089536,239.71561837309832 53.92616792089536,239.71561837309832 53.92616792089536,239.71561837309832 53.92616792089536,239.71561837309832 53.92616792089536,239.71561837309832 53.92616792089536,239.71561837309832 53.92616792089536,239.71561837309832 53.92616792089536,239.71561837309832 53.92616792089536,239.71561837309832 53.92616792089536,239.71561837309832 53.92616792089536,239.71561837309832 53.92616792089536,239.71561837309832 53.92616792089536,239.71561837309832 53.92616792089536,239.71561837309832 53.92616792089536,239.71561837309832 53.92616792089536,239.71561837309832 53.92616792089536,239.71561837309832 53.92616792089536,239.71561837309832 53.92616792089536,239.71561837309832 53.92616792089536,239.71561837309832 53.92616792089536,239.71561837309832 53.92616792089536,239.71561837309832 53.92616792089536,239.71561837309832 53.92616792089536,239.71561837309832 53.92616792089536,239.71561837309832 53.92616792089536,239.71561837309832 53.92616792089536,239.71561837309832 53.92616792089536,239.71561837309832 53.92616792089536,239.71561837309832 53.92616792089536,239.71561837309832 53.92616792089536,239.71561837309832 53.92616792089536,239.71561837309832 53.92616792089536,239.71561837309832 53.92616792089536,239.71561837309832 53.92616792089536,239.71561837309832 53.92616792089536,239.71561837309832 53.92616792089536,239.71561837309832 53.92616792089536,239.71561837309832 53.92616792089536,239.71561837309832 53.92616792089536,239.71561837309832 53.92616792089536,239.71561837309832 53.92616792089536,239.71561837309832 53.92616792089536,239.71561837309832 53.92616792089536,239.71561837309832 53.92616792089536,239.71561837309832 53.92616792089536,239.71561837309832 53.92616792089536,239.71561837309832 53.92616792089536,239.71561837309832 53.92616792089536,239.71561837309832 53.92616792089536,239.71561837309832 53.92616792089536,239.71561837309832 53.92616792089536,239.71561837309832 53.92616792089536,239.71561837309832 53.92616792089536,239.71561837309832 53.92616792089536,239.71561837309832 53.92616792089536,239.71561837309832 53.92616792089536,239.71561837309832 53.92616792089536,239.71561837309832 53.92616792089536,239.71561837309832 53.92616792089536,239.71561837309832 53.92616792089536,239.71561837309832 53.92616792089536,239.71561837309832 53.92616792089536,239.71561837309832 53.92616792089536,239.71561837309832 53.92616792089535,239.71561837309832 53.92616792089534,239.71561837309832 53.92616792089534,239.71561837309832 53.92616792089534,239.71561837309832 53.92616792089536,239.71561837309832 53.92616792089536,239.71561837309832 53.92616792089536,239.71561837309832 53.92616792089536,239.71561837309832 53.92616792089536,239.71561837309832 53.92616792089536,239.71561837309832 53.92616792089526,239.71561837309832 53.92616792089516,239.71561837309832 53.92616792089512,239.71561837309832 53.92616792089516,239.71561837309832 53.92616792089536,239.71561837309832 53.92616792089536,239.71561837309832 53.92616792089536,239.71561837309832 53.92616792089536,239.71561837309832 53.92616792089536,239.71561837309832 53.92616792089536,239.71561837309832 53.926167920894024,239.71561837309844 53.92616792089265,239.71561837309844 53.926167920891935,239.71561837309844 53.9261679208926,239.71561837309832 53.92616792089536,239.71561837309832 53.92616792089536,239.71561837309832 53.92616792089536,239.71561837309832 53.92616792089536,239.71561837309832 53.92616792089536,239.71561837309832 53.92616792089536,239.71561837309832 53.926167920876836,239.7156183730965 53.92616792085784,239.71561837309378 53.92616792084815,239.71561837309173 53.92616792085747,239.7156183730923 53.92616792089536,239.71561837309832 53.92616792089536,239.71561837309832 53.92616792089536,239.71561837309832 53.92616792089536,239.71561837309832 53.92616792089536,239.71561837309832 53.92616792089536,239.71561837309832 53.926167920646066,239.71561837302693 53.92616792039191,239.7156183729445 53.92616792026396,239.71561837289323 53.92616792039023,239.71561837292438 53.92616792089536,239.71561837309832 53.92616792089536,239.71561837309832 53.92616792089536,239.71561837309832 53.92616792089536,239.71561837309832 53.92616792089536,239.71561837309832 53.92616792089536,239.71561837309832 53.92616791764887,239.7156183715149 53.926167914362054,239.71561836976946 53.926167912730804,239.7156183687572 53.9261679143874,239.71561836949093 53.92616792089536,239.71561837309832 53.92616792089536,239.71561837309832 53.92616792089536,239.71561837309832 53.92616792089536,239.71561837309832 53.92616792089536,239.71561837309832 53.92616792089536,239.71561837309832 53.92616788019425,239.71561834352735 53.92616783933188,239.71561831163592 53.926167819405045,239.7156182938055 53.9261678403532,239.71561830787664 53.92616792089536,239.71561837309832 53.92616792089536,239.71561837309832 53.92616792089536,239.71561837309832 53.92616792089536,239.71561837309832 53.92616792089536,239.71561837309832 53.92616792089536,239.71561837309832 53.92616743413529,239.7156178690435 53.92616695077525,239.7156173327719 53.92616672057148,239.71561704000374 53.9261669738764,239.71561728367772 53.92616792089536,239.71561837309832 53.92616792089536,239.71561837309832 53.92616792089536,239.71561837309832 53.92616792089536,239.71561837309832 53.92616792089536,239.71561837309832 53.92616792089536,239.71561837309832 53.926162463311556,239.71561028189763 53.926157130284416,239.7156017570146 53.92615468076222,239.71559718445621 53.92615756589337,239.71560113948112 53.92616792089536,239.71561837309832 53.92616792089536,239.71561837309832 53.92616792089536,239.71561837309832 53.92616792089536,239.71561837309832 53.92616792089536,239.71561837309832 53.92616792089536,239.71561837309832 53.92611263082326,239.71549418956317 53.926060098152305,239.71536435863402 53.92603755825245,239.7152957142348 53.926067566798395,239.7153569417377 53.92616792089536,239.71561837309832 53.92616792089536,239.71561837309832 53.92616792089536,239.71561837309832 53.92616792089536,239.71561837309832 53.92616792089536,239.71561837309832 53.92616792089536,239.71561837309832 53.925709880133724,239.71378127194487 53.925303320374766,239.7118733768025 53.925160173359686,239.71087729369935 53.9254237033827,239.71178970590483 53.92616792089536,239.71561837309832 53.92616792089536,239.71561837309832 53.92616792089536,239.71561837309832 53.92616792089536,239.71561837309832 53.92616792089536,239.71561837309832 53.92616792089536,239.71561837309832 53.92420022719092,239.68747904213592 53.9225970012087,239.6474811664565 53.9220806888867,239.59857536207244 53.92316775962146,239.54373924883043 53.92616792089536,239.48596845802115" stroke="black" stroke-width="9.0" /><polyline fill="none" points="53.92616792089536,239.71561837309832 53.92616792089536,239.71561837309832 53.92616792089536,239.71561837309832 53.92616792089536,239.71561837309832 53.92616792089536,239.71561837309832 53.92616792089536,239.71561837309832 53.92620582424668,239.71597899939684 53.926256303645744,239.7163381928358 53.92629408574021,239.7165160826155 53.92628137115191,239.71633466982757 53.92616792089536,239.71561837309832 53.92616792089536,239.71561837309832 53.92616792089536,239.71561837309832 53.92616792089536,239.71561837309832 53.92616792089536,239.71561837309832 53.92751877934372,239.72065984546157 53.930062267751055,239.72919957457225 53.93382486904236,239.74066312199466 53.93870788300865,239.75421240805122 53.944556304320656,239.76902211626498 53.95115947899017,239.78428211464086 53.95830620094539,239.79934145501466 53.965968308525404,239.81412778928245 53.97417253599028,239.8287101591402 53.982951035489066,239.84315533661265 53.99234127174908,239.85752758195747 54.002376686636495,239.87186949825946 54.01305628352443,239.88614638640036 54.024367640247846,239.90030518417416 54.03629550715478,239.91429379788315 54.048821852811564,239.92806121492538 54.06186962621692,239.9414639369851 54.075120937593645,239.95399302892554 54.0881636846536,239.96506997399615 54.10054568449008,239.97414403918037 54.11177588347929,239.98069401489806 54.12144768655483,239.98439791198587 54.129629770791446,239.9856213674002 54.136541055561935,239.98488370645305 54.142433687949904,239.9826843538899 54.1475921008611,239.97950143505977 54.15216377133526,239.97559685960744 54.15649073936172,239.97141777773788 54.16021963474156,239.96660810755463 54.16342060131484,239.96130071570076 54.16605782535554,239.95550827755858 54.16809941932573,239.94924890540483 54.169529759609105,239.94255695908907 54.170338676859274,239.93547070926763 54.17051765997253,239.92802836066699 54.17005984179907,239.9202679939758 54.168952005986185,239.91222104871883 54.16714974571049,239.90389400907577 54.164599880591865,239.89528974200164 54.16124833204637,239.88641428930055 54.157040254075746,239.87727692115527 54.151949689625575,239.8679100990547 54.14607102023777,239.85842511557894 54.139535089315935,239.84894497734797 54.132479978017145,239.83958316345343 54.12505058132911,239.83044333063697 54.117392122952424,239.82161567915546 54.109631097172766,239.81316747428764 54.10189221427731,239.80515437267093 54.09430398320247,239.79762380999875 54.086998357602376,239.79061483739918 54.08006498125351,239.78413775895444 54.07341187158329,239.7781197220046 54.06689676978378,239.77247651878088 54.06037227067153,239.76713459632276 54.0536862980457,239.76203126670305 54.04675862509561,239.75714108246052 54.0398130402485,239.7525439107569 54.03315533382913,239.7483277077621 54.02709731479564,239.7445594110867 54.021955895794996,239.74128468361732 54.017909804826864,239.7384921937961 54.01456677740424,239.7360268571981 54.01138251914575,239.73373129510662 54.00780342406013,239.73148670744024 54.0032682675476,239.72921324443507 53.997380224863605,239.72689729400656 53.990423085295284,239.72464884753708 53.982856859307574,239.72257889950936 53.97514711287034,239.72076629361482 53.96776356231664,239.71925752017478 53.961095144474015,239.7180607224933 53.955197331367174,239.71713974003512 53.95004070554257,239.71645202910815 53.94559433235503,239.71595746237176 53.941825869650614,239.71561837309832 53.938697114862784,239.71539967520414 53.93615044235437,239.71526977576752 53.93412267407252,239.7152014821496 53.93254984011896,239.71517210583295 53.93136737607302,239.71516347971385 53.93057021634238,239.71515567320205 53.9303917271628,239.7150997549004 53.931122059340545,239.7149221143461 53.93304717645043,239.7145288060575 53.936447967115654,239.7138057235868 53.941449342023695,239.7126479657354 53.947573549554875,239.71106846627004 53.954198047462796,239.7091471084807 53.96070831422632,239.7070064858118 53.96649969980047,239.70481150551143 53.97114777106125,239.70272060861123 53.97490870797489,239.70071681904972 53.978202030752044,239.69871146592993 53.98143923891964,239.69658693207975 53.98502255650321,239.69419703758854 53.98918257233358,239.69142931473095 53.99350248922615,239.6884134415875 53.997417043798066,239.6853749147491 54.00037739891755,239.68257818476116 54.00185283228689,239.68032591930978 54.00153260077424,239.67886056269458 53.99991430372195,239.67804271424006 53.99767896383581,239.67759527709893 53.995485517565605,239.6771950018391 53.99396882786141,239.67647350121024 53.99358722341109,239.6751087692544 53.994181866256184,239.67311854313994 53.99545005305338,239.6706260304021 53.99709965260608,239.66777431594517 53.99884995171141,239.66472586722853 54.00048269874175,239.66162552653373 54.001988404765804,239.65848354039701 54.00340705668592,239.65527254650135 54.004776533651615,239.6519623736167 54.00613248512608,239.6485201367451 54.00748486503956,239.64493063199404 54.00875063694306,239.64126056158 54.00982890227621,239.6376032458396 54.01062524763163,239.63405888071895 54.01105204093511,239.63073425305868 54.01107155850144,239.62769808260623 54.01081853741601,239.62484170065727 54.01046064140524,239.62200182279105 54.01015359788831,239.61900390362655 54.010040716336924,239.61566266780994 54.010195479167486,239.6118529803175 54.01046014721446,239.60772924336231 54.0106339364794,239.60352818451463 54.01053297558918,239.59949983709816 54.00999087173971,239.5959067929307 54.00893377054362,239.592912954884 54.00758891339268,239.59024103943273 54.00623381194739,239.58748616304933 54.00511708413409,239.58422490057148 54.00445766467166,239.58001655916632 54.004350957564085,239.5745724412958 54.00451239268962,239.56827385158135 54.00459806048032,239.56169055720068 54.0043046077127,239.5554144239485 54.00337016355804,239.55005762942938 54.00166360737213,239.54605228500031 53.99942275134341,239.54304080747931 53.996940459882474,239.5404501922685 53.99446855065098,239.5376891494102 53.992217038717364,239.5341499133075 53.990282449777844,239.5294162609008 53.98846308229295,239.5238935804192 53.98652251127553,239.51820740311587 53.984268403276346,239.51299791164888 53.9815531172784,239.50891800620968 53.978321558550284,239.50644155757743 53.97472704917551,239.5052856804765 53.970942926140374,239.50496853527056 53.967108209039274,239.50499884931253 53.96332723588252,239.5048774255822 53.95965291836668,239.504202419595 53.956051689949035,239.50298430758312 53.95247810811371,239.50133909380713 53.948894982022026,239.49938483056587 53.94527344304673,239.4972412556366 53.941594106417476,239.49501364233242 53.93784822246101,239.49274494237034 53.93403053136894,239.49046266811195 53.93013761848955,239.48819455024125 53.92616792089536,239.48596845802115" stroke="black" stroke-dasharray="8.0,8.0" stroke-width="7.0" /><polyline fill="none" points="53.92616792089536,239.71561837309832 53.92616792089536,239.71561837309832 53.92616792089536,239.71561837309832 53.92616792089536,239.71561837309832 53.92616792089536,239.71561837309832 53.92616792089536,239.71561837309832 53.92613001754403,239.71597899939684 53.92607953814497,239.7163381928358 53.9260417560505,239.7165160826155 53.9260544706388,239.71633466982757 53.92616792089536,239.71561837309832 53.92616792089536,239.71561837309832 53.92616792089536,239.71561837309832 53.92616792089536,239.71561837309832 53.92616792089536,239.71561837309832 53.92481706244699,239.72065984546157 53.92227357403966,239.72919957457225 53.91851097274836,239.74066312199466 53.913627958782065,239.75421240805122 53.907779537470056,239.76902211626498 53.90117636280054,239.78428211464086 53.89402964084533,239.79934145501466 53.88636753326531,239.81412778928245 53.878163305800435,239.8287101591402 53.869384806301646,239.84315533661265 53.85999457004163,239.85752758195747 53.84995915515422,239.87186949825946 53.83927955826629,239.88614638640036 53.82796820154287,239.90030518417416 53.81604033463593,239.91429379788315 53.80351398897915,239.92806121492538 53.790466215573794,239.9414639369851 53.777214904197066,239.95399302892554 53.76417215713711,239.96506997399615 53.75179015730063,239.97414403918037 53.74055995831143,239.98069401489806 53.73088815523588,239.98439791198587 53.722706070999266,239.9856213674002 53.715794786228784,239.98488370645305 53.70990215384081,239.9826843538899 53.704743740929615,239.97950143505977 53.70017207045545,239.97559685960744 53.695845102429,239.97141777773788 53.69211620704915,239.96660810755463 53.68891524047587,239.96130071570076 53.686278016435175,239.95550827755858 53.684236422464984,239.94924890540483 53.682806082181614,239.94255695908907 53.68199716493144,239.93547070926763 53.68181818181818,239.92802836066699 53.68227599999164,239.9202679939758 53.68338383580453,239.91222104871883 53.68518609608022,239.90389400907577 53.68773596119885,239.89528974200164 53.69108750974434,239.88641428930055 53.695295587714966,239.87727692115527 53.70038615216514,239.8679100990547 53.70626482155294,239.85842511557894 53.71280075247478,239.84894497734797 53.71985586377357,239.83958316345343 53.7272852604616,239.83044333063697 53.73494371883829,239.82161567915546 53.742704744617946,239.81316747428764 53.7504436275134,239.80515437267093 53.75803185858824,239.79762380999875 53.76533748418834,239.79061483739918 53.772270860537205,239.78413775895444 53.77892397020742,239.7781197220046 53.78543907200693,239.77247651878088 53.79196357111918,239.76713459632276 53.798649543745015,239.76203126670305 53.8055772166951,239.75714108246052 53.81252280154222,239.7525439107569 53.81918050796158,239.7483277077621 53.82523852699508,239.7445594110867 53.83037994599572,239.74128468361732 53.83442603696385,239.7384921937961 53.83776906438647,239.7360268571981 53.840953322644964,239.73373129510662 53.84453241773058,239.73148670744024 53.849067574243115,239.72921324443507 53.85495561692711,239.72689729400656 53.86191275649543,239.72464884753708 53.86947898248314,239.72257889950936 53.87718872892037,239.72076629361482 53.88457227947407,239.71925752017478 53.8912406973167,239.7180607224933 53.89713851042354,239.71713974003512 53.90229513624814,239.71645202910815 53.90674150943568,239.71595746237176 53.9105099721401,239.71561837309832 53.91363872692793,239.71539967520414 53.916185399436344,239.71526977576752 53.91821316771819,239.7152014821496 53.91978600167175,239.71517210583295 53.92096846571769,239.71516347971385 53.92176562544833,239.71515567320205 53.92194411462791,239.7150997549004 53.921213782450174,239.7149221143461 53.91928866534028,239.7145288060575 53.91588787467506,239.7138057235868 53.91088649976702,239.7126479657354 53.90476229223584,239.71106846627004 53.898137794327916,239.7091471084807 53.89162752756439,239.7070064858118 53.88583614199024,239.70481150551143 53.881188070729465,239.70272060861123 53.87742713381582,239.70071681904972 53.87413381103867,239.69871146592993 53.87089660287107,239.69658693207975 53.86731328528751,239.69419703758854 53.863153269457136,239.69142931473095 53.85883335256456,239.6884134415875 53.854918797992646,239.6853749147491 53.85195844287316,239.68257818476116 53.85048300950382,239.68032591930978 53.85080324101647,239.67886056269458 53.85242153806876,239.67804271424006 53.8546568779549,239.67759527709893 53.85685032422511,239.6771950018391 53.8583670139293,239.67647350121024 53.85874861837963,239.6751087692544 53.858153975534535,239.67311854313994 53.85688578873732,239.6706260304021 53.85523618918463,239.66777431594517 53.853485890079305,239.66472586722853 53.85185314304896,239.66162552653373 53.850347437024915,239.65848354039701 53.84892878510479,239.65527254650135 53.8475593081391,239.6519623736167 53.84620335666463,239.6485201367451 53.84485097675116,239.64493063199404 53.843585204847656,239.64126056158 53.84250693951451,239.6376032458396 53.84171059415908,239.63405888071895 53.8412838008556,239.63073425305868 53.84126428328927,239.62769808260623 53.841517304374705,239.62484170065727 53.84187520038547,239.62200182279105 53.8421822439024,239.61900390362655 53.84229512545379,239.61566266780994 53.842140362623226,239.6118529803175 53.84187569457625,239.60772924336231 53.84170190531131,239.60352818451463 53.84180286620153,239.59949983709816 53.842344970051,239.5959067929307 53.84340207124709,239.592912954884 53.84474692839803,239.59024103943273 53.84610202984332,239.58748616304933 53.84721875765662,239.58422490057148 53.84787817711905,239.58001655916632 53.847984884226626,239.5745724412958 53.84782344910109,239.56827385158135 53.84773778131039,239.56169055720068 53.848031234078015,239.5554144239485 53.84896567823267,239.55005762942938 53.85067223441858,239.54605228500031 53.8529130904473,239.54304080747931 53.85539538190824,239.5404501922685 53.85786729113973,239.5376891494102 53.86011880307335,239.5341499133075 53.86205339201287,239.5294162609008 53.86387275949776,239.5238935804192 53.86581333051518,239.51820740311587 53.868067438514366,239.51299791164888 53.87078272451231,239.50891800620968 53.87401428324043,239.50644155757743 53.8776087926152,239.5052856804765 53.88139291565034,239.50496853527056 53.88522763275144,239.50499884931253 53.8890086059082,239.5048774255822 53.89268292342404,239.504202419595 53.89628415184168,239.50298430758312 53.899857733677,239.50133909380713 53.903440859768686,239.49938483056587 53.90706239874398,239.4972412556366 53.910741735373236,239.49501364233242 53.914487619329705,239.49274494237034 53.91830531042177,239.49046266811195 53.92219822330116,239.48819455024125 53.92616792089536,239.48596845802115" stroke="black" stroke-dasharray="8.0,8.0" stroke-width="7.0" /></g><rect fill="white" height="111.60000000000001" stroke="none" width="1181" x="0" y="0" /><line stroke="black" stroke-width="3.0" x1="0" x2="1181" y1="111.60000000000001" y2="111.60000000000001" /><text font-family="Arial" font-size="62.0" text-anchor="start" x="40.0" y="77.5">LED</text><text font-family="Arial" font-size="62.0" text-anchor="middle" x="590.5" y="77.5" /><text font-family="Arial" font-size="62.0" text-anchor="end" x="1141.0" y="77.5">cd / klm</text><rect fill="none" height="1178.0" stroke="black" stroke-width="3.0" width="1178.0" x="1.5" y="1.5" /></svg>