<?xml version="1.0" encoding="utf-8" ?>
<svg baseProfile="full" height="1181" version="1.1" width="1181" xmlns="http://www.w3.org/2000/svg" xmlns:ev="http://www.w3.org/2001/xml-events" xmlns:xlink="http://www.w3.org/1999/xlink"><defs><clipPath id="plot_clip"><rect height="1069.4" width="1181.0" x="0" y="111.60000000000001" /></clipPath></defs><g clip-path="url(#plot_clip)" id="grid"><circle cx="590.5" cy="478.8896667365133" fill="none" r="112.40808517539506" stroke="black" stroke-width="3.0" /><text font-family="Arial" font-size="42.0" text-anchor="start" x="598.5" y="631.2977519119083">80</text><circle cx="590.5" cy="478.8896667365133" fill="none" r="224.81617035079012" stroke="black" stroke-width="3.0" /><text font-family="Arial" font-size="42.0" text-anchor="start" x="598.5" y="743.7058370873034">160</text><circle cx="590.5" cy="478.8896667365133" fill="none" r="337.2242555261852" stroke="black" stroke-width="3.0" /><text font-family="Arial" font-size="42.0" text-anchor="start" x="598.5000000000001" y="856.1139222626985">240</text><circle cx="590.5" cy="478.8896667365133" fill="none" r="449.63234070158023" stroke="black" stroke-width="3.0" /><text font-family="Arial" font-size="42.0" text-anchor="start" x="598.5000000000001" y="968.5220074380935">320</text><circle cx="590.5" cy="478.8896667365133" fill="none" r="562.0404258769753" stroke="black" stroke-width="3.0" /><text font-family="Arial" font-size="42.0" text-anchor="start" x="598.5000000000001" y="1080.9300926134886">400</text><circle cx="590.5" cy="478.8896667365133" fill="none" r="674.4485110523703" stroke="black" stroke-width="3.0" /><text font-family="Arial" font-size="42.0" text-anchor="start" x="598.5000000000001" y="1193.3381777888835">480</text><line stroke="black" stroke-width="3.0" x1="-2377.1085761570466" x2="3558.1085761570466" y1="478.88966673651305" y2="478.8896667365135" /><line stroke="black" stroke-width="3.0" x1="-1979.5244154405689" x2="3160.524415440569" y1="-1004.9146213420103" y2="1962.6939548150367" /><line stroke="black" stroke-width="3.0" x1="-893.3042880785229" x2="2074.304288078523" y1="-2091.134748704056" y2="3048.9140821770825" /><line stroke="black" stroke-width="3.0" x1="590.5" x2="590.5" y1="-2488.7189094205332" y2="3446.49824289356" /><line stroke="black" stroke-width="3.0" x1="2074.304288078523" x2="-893.3042880785229" y1="-2091.134748704056" y2="3048.9140821770825" /><line stroke="black" stroke-width="3.0" x1="3160.524415440569" x2="-1979.524415440569" y1="-1004.9146213420103" y2="1962.6939548150367" /><line stroke="black" stroke-width="3.0" x1="3558.108576157046" x2="-2377.108576157046" y1="478.88966673651305" y2="478.8896667365135" /></g><g clip-path="url(#plot_clip)" id="curves"><polyline fill="none" points="590.5,756.1020557896844 595.3513980098091,756.8260725740205 600.2305227313138,757.535380245583 605.1432500646649,758.2995227729698 610.1003437784078,759.1876416283432 615.1174372652264,760.2682622379963 620.2123424146658,761.5837212582992 625.3934827212751,763.074278097123 630.6616840069256,764.6548971193541 636.0119701319013,766.2409370926501 641.433588708406,767.7484023863822 646.9145259526731,769.1172427853985 652.4582037695103,770.380097719753 658.0756724246532,771.5920615324276 663.7819011309609,772.8073185658303 669.5957358598014,774.0789716273392 675.534871471773,775.4415057373297 681.5984399259831,776.8592375082354 687.7777002601068,778.2796433613131 694.060445382905,779.6510387144989 700.4310434482098,780.9227263075546 706.8719741918454,782.049024140519 713.3688900926913,783.0008412987853 719.9071357509636,783.7537736498965 726.4704262629604,784.2842442865538 733.0408815420591,784.569573658992 739.6230746590521,784.6372795780842 746.3229501015979,784.709425604714 753.2876035918314,785.0486210419782 760.6825771044413,785.9071629480867 768.6914042716332,787.526232407028 777.4610187180733,790.0450541883536 786.9264095577437,793.2376323673296 796.9509820927868,796.7963008063074 807.377973534967,800.4244852295944 818.0309654302642,803.8375614878543 828.743806604731,806.8041348114957 839.4549374076389,809.264027240154 850.1294164797063,811.2001658308851 860.7310333538406,812.5972014326998 871.2223749370303,813.4415655892977 881.5607925317003,813.71680704569 891.685514103181,813.3900679847706 901.5289113580602,812.4273391899377 911.0205861165421,810.7984498541134 920.0875270089736,808.4771937454867 928.6977553906369,805.4834427821999 936.9967550620772,802.0031181296463 945.1869916110863,798.2512684429695 953.4852722970309,794.4279499669339 962.1220769217,790.7176144188464 971.3478993540704,787.2942147092983 981.4544185618221,784.3367345781559 992.753991232957,782.0097910001219 1005.571942280612,780.4570849851642 1020.2456625931857,779.8008191971884 1036.8979086559539,779.9888580256016 1054.737539987031,780.369050251424 1072.7010418376772,780.2023192396249 1089.6760930899877,778.8249230343224 1104.504883088114,775.6505243522178 1109.6057887565673,766.6347041058074 1114.5485697730744,757.5312339335655 1119.3317205186563,748.3428868406937 1123.9537839992602,739.0724616867263 1127.3181818181818,729.2120959551738 1120.63465298595,714.920821321945 1109.349684237332,699.1282910935664 1092.6805164291602,681.7837654773369 1069.8331181969838,662.8884116137153 1040.0044144278265,642.4958937595014 1002.8532256631127,620.8742687613875 959.9305660768797,598.9249340453636 913.310418458591,577.5827159538136 865.1206015860565,557.6358570756229 817.5363315117008,539.7238684175982 772.5448524760119,524.2785462322387 731.2445965081279,511.383117143042 694.5135698627233,500.99843351355844 663.2336196590563,493.02765021054586 638.287958973261,487.3159732564884 620.1997327454415,483.59364228518825 608.0451775442205,481.35548063357965 600.517807114788,480.1196987843125 596.2892526064328,479.49814170447223 594.0133831196335,479.19704793010453 592.5412159748507,479.0324024621227 591.5591805010688,478.9451760344342 590.9624071133782,478.9058143487309 590.6449274208516,478.8921964540541 590.5,478.8896667365133 590.5,478.8896667365133 590.5,478.8896667365133 590.5,478.8896667365133 590.5,478.8896667365133 590.5,478.8896667365133 590.5171708851598,478.88786200375966 590.5212961373187,478.88705189964367 590.5168483559526,478.88729885450437 590.5082780143051,478.8883556278505 590.5,478.8896667365133 590.5,478.8896667365133 590.5,478.8896667365133 590.5,478.8896667365133 590.5,478.8896667365133 590.5,478.8896667365133 590.5011915845859,478.8893250551315 590.5014731648544,478.88921634481846 590.501161758836,478.88928925818516 590.5005689593199,478.88947082810853 590.5,478.8896667365133 590.5,478.8896667365133 590.5,478.8896667365133 590.5,478.8896667365133 590.5,478.8896667365133 590.5,478.8896667365133 590.5000799923272,478.8896277216485 590.5000985464134,478.8896165246076 590.5000774371732,478.8896255624379 590.5000377863823,478.88964579117953 590.5,478.8896667365133 590.5,478.8896667365133 590.5,478.8896667365133 590.5,478.8896667365133 590.5,478.8896667365133 590.5,478.8896667365133 590.5000051695257,478.88966298063303 590.5000063418133,478.88966195761407 590.5000049619412,478.88966285981996 590.5000024105912,478.889664784455 590.5,478.8896667365133 590.5,478.8896667365133 590.5,478.8896667365133 590.5,478.8896667365133 590.5,478.8896667365133 590.5,478.8896667365133 590.5000003186906,478.8896664064995 590.500000388824,478.88966631955054 590.5000003025069,478.88966640054537 590.5000001461063,478.8896665684373 590.5,478.8896667365133 590.5,478.8896667365133 590.5,478.8896667365133 590.5,478.8896667365133 590.5,478.8896667365133 590.5,478.8896667365133 590.500000018419,478.88966670920604 590.5000000222938,478.88966670218383 590.5000000172004,478.88966670898685 590.5000000082351,478.88966672280765 590.5,478.8896667365133 590.5,478.8896667365133 590.5,478.8896667365133 590.5,478.8896667365133 590.5,478.8896667365133 590.5,478.8896667365133 590.5000000009619,478.8896667343528 590.5000000011484,478.889666733808 590.500000000873,478.88966673435255 590.5000000004114,478.88966673544144 590.5,478.8896667365133 590.5,478.8896667365133 590.5,478.8896667365133 590.5,478.8896667365133 590.5,478.8896667365133 590.5,478.8896667365133 590.5000000000412,478.88966673634843 590.5000000000475,478.8896667363074 590.5000000000348,478.8896667363492 590.5000000000157,478.8896667364321 590.5,478.8896667365133 590.5,478.8896667365133 590.5,478.8896667365133 590.5,478.8896667365133 590.5,478.8896667365133 590.5,478.8896667365133 590.5000000000009,478.8896667364995 590.5000000000009,478.88966673649486 590.5000000000006,478.88966673649725 590.5000000000001,478.88966673650407 590.5,478.8896667365133" stroke="black" stroke-width="9.0" /><polyline fill="none" points="590.5,756.1020557896844 585.6486019901909,756.8260725740205 580.7694772686863,757.535380245583 575.8567499353351,758.2995227729698 570.8996562215922,759.1876416283432 565.8825627347737,760.2682622379963 560.7876575853343,761.5837212582992 555.6065172787249,763.074278097123 550.3383159930744,764.6548971193541 544.9880298680988,766.2409370926501 539.566411291594,767.7484023863822 534.085474047327,769.1172427853985 528.5417962304896,770.380097719753 522.9243275753469,771.5920615324276 517.2180988690392,772.8073185658303 511.4042641401987,774.0789716273395 505.46512852822707,775.4415057373297 499.40156007401686,776.8592375082354 493.2222997398932,778.2796433613131 486.939554617095,779.6510387144988 480.5689565517902,780.9227263075546 474.1280258081546,782.049024140519 467.6311099073087,783.0008412987853 461.09286424903644,783.7537736498965 454.52957373703964,784.2842442865538 447.95911845794103,784.5695736589921 441.37692534094776,784.6372795780841 434.6770498984021,784.7094256047143 427.7123964081685,785.0486210419782 420.3174228955587,785.9071629480867 412.30859572836675,787.5262324070279 403.5389812819269,790.0450541883537 394.0735904422563,793.2376323673296 384.0490179072132,796.7963008063074 373.62202646503295,800.4244852295946 362.96903456973564,803.8375614878543 352.25619339526907,806.8041348114957 341.54506259236103,809.2640272401538 330.8705835202938,811.2001658308851 320.26896664615924,812.5972014326998 309.7776250629698,813.4415655892977 299.4392074682998,813.71680704569 289.31448589681895,813.3900679847706 279.47108864193984,812.4273391899377 269.97941388345794,810.7984498541133 260.91247299102656,808.4771937454868 252.30224460936316,805.4834427821999 244.00324493792286,802.0031181296464 235.81300838891354,798.2512684429695 227.51472770296917,794.4279499669339 218.8779230783002,790.7176144188464 209.65210064592986,787.2942147092987 199.5455814381778,784.3367345781558 188.24600876704295,782.0097910001219 175.42805771938814,780.4570849851644 160.75433740681447,779.8008191971885 144.10209134404607,779.9888580256015 126.26246001296906,780.3690502514239 108.2989581623228,780.2023192396251 91.32390691001237,778.8249230343225 76.49511691188624,775.6505243522182 71.39421124343285,766.6347041058074 66.45143022692558,757.5312339335654 61.66827948134377,748.3428868406937 57.04621600073981,739.0724616867266 53.68181818181817,729.2120959551736 60.3653470140498,714.9208213219448 71.65031576266787,699.1282910935664 88.31948357083976,681.7837654773369 111.16688180301615,662.8884116137157 140.9955855721735,642.4958937595012 178.14677433688738,620.8742687613875 221.0694339231203,598.9249340453637 267.689581541409,577.5827159538137 315.8793984139435,557.6358570756229 363.4636684882991,539.7238684175982 408.45514752398816,524.2785462322387 449.7554034918722,511.383117143042 486.48643013727667,500.99843351355844 517.7663803409437,493.02765021054586 542.712041026739,487.3159732564884 560.8002672545585,483.59364228518825 572.9548224557797,481.35548063357965 580.482192885212,480.1196987843125 584.7107473935672,479.49814170447223 586.9866168803666,479.19704793010453 588.4587840251493,479.0324024621227 589.4408194989312,478.9451760344342 590.0375928866218,478.9058143487309 590.3550725791486,478.8921964540541 590.5,478.8896667365133 590.5,478.8896667365133 590.5,478.8896667365133 590.5,478.8896667365133 590.5,478.8896667365133 590.5,478.8896667365133 590.4828291148403,478.88786200375966 590.4787038626813,478.88705189964367 590.4831516440474,478.88729885450437 590.4917219856949,478.8883556278505 590.5,478.8896667365133 590.5,478.8896667365133 590.5,478.8896667365133 590.5,478.8896667365133 590.5,478.8896667365133 590.5,478.8896667365133 590.4988084154141,478.8893250551315 590.4985268351456,478.88921634481846 590.498838241164,478.88928925818516 590.4994310406801,478.88947082810853 590.5,478.8896667365133 590.5,478.8896667365133 590.5,478.8896667365133 590.5,478.8896667365133 590.5,478.8896667365133 590.5,478.8896667365133 590.4999200076729,478.8896277216485 590.4999014535866,478.8896165246076 590.4999225628269,478.8896255624379 590.4999622136177,478.88964579117953 590.5,478.8896667365133 590.5,478.8896667365133 590.5,478.8896667365133 590.5,478.8896667365133 590.5,478.8896667365133 590.5,478.8896667365133 590.4999948304744,478.88966298063303 590.4999936581867,478.88966195761407 590.4999950380588,478.88966285981996 590.4999975894088,478.889664784455 590.5,478.8896667365133 590.5,478.8896667365133 590.5,478.8896667365133 590.5,478.8896667365133 590.5,478.8896667365133 590.5,478.8896667365133 590.4999996813094,478.8896664064995 590.499999611176,478.88966631955054 590.4999996974932,478.88966640054537 590.4999998538938,478.8896665684373 590.5,478.8896667365133 590.5,478.8896667365133 590.5,478.8896667365133 590.5,478.8896667365133 590.5,478.8896667365133 590.5,478.8896667365133 590.4999999815811,478.88966670920604 590.4999999777062,478.88966670218383 590.4999999827996,478.88966670898685 590.4999999917649,478.88966672280765 590.5,478.8896667365133 590.5,478.8896667365133 590.5,478.8896667365133 590.5,478.8896667365133 590.5,478.8896667365133 590.5,478.8896667365133 590.4999999990381,478.8896667343528 590.4999999988516,478.889666733808 590.499999999127,478.88966673435255 590.4999999995886,478.88966673544144 590.5,478.8896667365133 590.5,478.8896667365133 590.5,478.8896667365133 590.5,478.8896667365133 590.5,478.8896667365133 590.5,478.8896667365133 590.4999999999588,478.88966673634843 590.4999999999525,478.8896667363074 590.4999999999652,478.8896667363492 590.4999999999843,478.8896667364321 590.5,478.8896667365133 590.5,478.8896667365133 590.5,478.8896667365133 590.5,478.8896667365133 590.5,478.8896667365133 590.5,478.8896667365133 590.4999999999991,478.8896667364995 590.4999999999991,478.88966673649486 590.4999999999994,478.88966673649725 590.4999999999999,478.88966673650407 590.5,478.8896667365133" stroke="black" stroke-width="9.0" /><polyline fill="none" points="590.5,756.1020557896844 595.4173045363588,760.6018549512655 600.4932308489092,765.0583564405225 605.7309022273677,769.5125940143403 611.1364992729907,774.0053555464309 616.7192484254549,778.5770475785563 622.4879855864299,783.2350197622249 628.436335586856,787.8563259637687 634.5450362796598,792.2863843021191 640.7842737900331,796.3720765426689 647.1137513198153,799.96220533694 653.4907381286666,802.9489215452791 659.899773750585,805.3899319145081 666.3388140564305,807.383660156264 672.8126620118958,809.027722122405 679.3329175313165,810.4186283479621 685.9086774468254,811.6192665323307 692.5142585510775,812.5632714410237 699.1090626207075,813.1539907523006 705.6457840379546,813.2973052580525 712.0705182998629,812.9019206367813 718.3312394349144,811.9014307146639 724.2691617226294,809.9799603087114 730.0271104022349,807.5949398741704 735.7425577723827,805.1097926291922 741.4137628524367,802.5252755737018 746.645963758117,799.0363360768821 751.5890821603762,795.0447917066498 756.1629435013889,790.4563489067497 760.2803572131118,785.1815390560079 763.8473183511061,779.1360294764459 766.7910474376554,772.2872399090847 769.1501277997107,764.7896348719868 771.0022782588889,756.8388009160868 772.4378652272126,748.6236444169099 773.5595901382483,740.3258555074809 774.4483406450229,732.0728371009955 775.0549305501293,723.8023316275768 775.2901707329787,715.4102994777196 775.0573053875002,706.7989583773082 774.2522873121916,697.8771152882208 772.7928761789187,688.5936323541927 770.709963297022,679.0331072710952 768.0692414568089,669.3093651376129 764.943340092762,659.5310334414462 761.4115875984133,649.8012543349265 757.539557390548,640.1978922573076 753.3154916974971,630.7175690013505 748.7060992191911,621.3390783060582 743.6761747508694,612.0436839968648 738.1887088512157,602.815207862617 732.2221140830453,593.6539718716044 725.8235951869503,584.6160465832911 719.0611341737076,575.7674300789193 712.0066709168578,567.1694305939626 704.7358974003633,558.8785032303987 697.3366470249026,550.9518950656982 689.9352792448732,543.4636921098487 682.6719837382902,536.4851144792558 675.6920002755154,530.0781847582555 669.1452234087778,524.2955076420494 663.1589535750531,519.1651823722517 657.7549041328414,514.6497335894336 652.925966432171,510.6972853429894 648.6625965529329,507.257460510987 644.9528946009215,504.28146849762993 641.7568046770798,501.71066649600596 638.9269760259416,499.4456984847118 636.2839504205016,497.38758342873246 633.6421959276328,495.45040414558287 630.8106855025306,493.5615563823005 627.6462247002846,491.68013763028387 624.2147399127399,489.84424978753214 620.6375460257301,488.10363922045144 617.0389047395121,486.4995752136608 613.5456534497172,485.0647309674124 610.2638317677282,483.8173434396896 607.208535074466,482.7471360055133 604.3713660233187,481.8381166040962 601.7432581157385,481.0751347247657 599.3145156698906,480.44390367099254 597.0848709219335,479.932607832093 595.0937839950017,479.5352809736132 593.39071889132,479.24460238627773 592.0250467993766,479.0499556141061 591.0459041500626,478.93742716101553 590.5,478.8896667365133 590.5,478.8896667365133 590.5,478.8896667365133 590.5,478.8896667365133 590.5,478.8896667365133 590.5813326131484,478.8882470704699 590.6010271331476,478.8861387912841 590.5800500673521,478.8854714902519 590.5393912331718,478.886912233159 590.5,478.8896667365133 590.5,478.8896667365133 590.5,478.8896667365133 590.5,478.8896667365133 590.5,478.8896667365133 590.5,478.8896667365133 590.5057330054896,478.88855235313383 590.5070992418113,478.8881577460834 590.5056077175783,478.88837209289954 590.5027508557067,478.88898087115376 590.5,478.8896667365133 590.5,478.8896667365133 590.5,478.8896667365133 590.5,478.8896667365133 590.5,478.8896667365133 590.5,478.8896667365133 590.5003914645357,478.889516467357 590.5004831459469,478.88947153287984 590.5003803585543,478.8895052838858 590.5001859511034,478.889583945748 590.5,478.8896667365133 590.5,478.8896667365133 590.5,478.8896667365133 590.5,478.8896667365133 590.5,478.8896667365133 590.5,478.8896667365133 590.5000258054351,478.88965123104356 590.5000317276473,478.8896469108788 590.5000248807469,478.8896505787674 590.5000121156778,478.8896585643854 590.5,478.8896667365133 590.5,478.8896667365133 590.5,478.8896667365133 590.5,478.8896667365133 590.5,478.8896667365133 590.5,478.8896667365133 590.500001631287,478.8896653184571 590.5000019961618,478.889664939161 590.5000015577738,478.8896652838657 590.5000007547662,478.889666007644 590.5,478.8896667365133 590.5,478.8896667365133 590.5,478.8896667365133 590.5,478.8896667365133 590.5,478.8896667365133 590.5,478.8896667365133 590.5000000976623,478.8896666159103 590.5000001187324,478.88966658454274 590.5000000920334,478.889666614381 590.5000000442794,478.8896666755679 590.5,478.8896667365133 590.5,478.8896667365133 590.5,478.8896667365133 590.5,478.8896667365133 590.5,478.8896667365133 590.5,478.8896667365133 590.5000000054017,478.88966672676827 590.5000000065005,478.88966672428774 590.5000000049847,478.8896667267304 590.5000000023709,478.889666731652 590.5,478.8896667365133 590.5,478.8896667365133 590.5,478.8896667365133 590.5,478.8896667365133 590.5,478.8896667365133 590.5,478.8896667365133 590.5000000002605,478.8896667357569 590.5000000003073,478.88966673556774 590.5000000002306,478.8896667357593 590.500000000107,478.8896667361398 590.5,478.8896667365133 590.5,478.8896667365133 590.5,478.8896667365133 590.5,478.8896667365133 590.5,478.8896667365133 590.5,478.8896667365133 590.5000000000091,478.889666736456 590.5000000000101,478.88966673644154 590.500000000007,478.88966673645575 590.5000000000031,478.8896667364844 590.5,478.8896667365133 590.5,478.8896667365133 590.5,478.8896667365133 590.5,478.8896667365133 590.5,478.8896667365133 590.5,478.8896667365133" stroke="black" stroke-dasharray="8.0,8.0" stroke-width="7.0" /><polyline fill="none" points="590.5,756.1020557896844 585.75174707434,750.9168946607139 581.1814779300654,745.7372249535994 576.7815784572767,740.6527433330924 572.538390590177,735.7526483398095 568.4322346274313,731.1253791500404 564.4405965689359,726.828328439276 560.551824840649,722.7979801199314 556.7630115105819,718.9408131585427 553.0778678490283,715.1637102870803 549.5066958615603,711.3742472229059 546.0627168924228,707.4996700064092 542.7485195338568,703.5427195097028 539.5623734198557,699.5247673617039 536.5012173513638,695.4669546178098 533.5606709875211,691.390135559965 530.736222983697,687.310725921656 528.0273405279605,683.2285285543015 525.4349512877651,679.139296003665 522.9604078245791,675.0388850061596 520.6054821459776,670.9232762841078 518.3697711848623,666.7953370566901 516.2419865572498,662.684699569475 514.2060923660499,658.6268495338936 512.2437000158985,654.6561942904852 510.3341151134063,650.8059616645862 508.46198177224966,647.092530664422 506.6422827661333,643.4697035473804 504.9013384309744,639.8773349476037 503.26967272823777,636.2573428427277 501.78191877531947,632.5538909676825 500.46426040314196,628.7343008258182 499.2940726569727,624.8496615167692 498.2322478041403,620.9695456328437 497.2350434535699,617.1606510422874 496.2542111879601,613.4866021722663 495.2486686016858,609.9918771739611 494.22145406307783,606.6556125552485 493.1890238101672,603.4420364312297 492.17021094408517,600.3168436443539 491.18615624060664,597.2472968311104 490.25535009028494,594.20794498558 489.37812153042734,591.1968904878574 488.5498933570254,588.2177710841188 487.7658786722594,585.2739636320268 487.0210914523036,582.3685752842097 486.30731533231557,579.5073727371092 485.6035820568811,576.707158950273 484.884623331022,573.9861790293007 484.1238776857923,571.3610190845708 483.2935616822311,568.846549588783 482.38472466646385,566.439690446093 481.46950337747,564.0736265985851 480.644998375295,561.6713481348587 480.01357269096826,559.1627549438978 479.6825470860757,556.4848826320426 479.74801608949457,553.5928231413445 480.24543834468585,550.4898162601373 481.194474100379,547.1913398655176 482.61443627818454,543.7138533385406 484.5242533394637,540.0747925985455 486.9353057412451,536.2965141750797 489.82946675672736,532.4171387523518 493.17955388345194,528.4769107890457 496.95640882409623,524.5139246044835 501.1289957181321,520.5640504501514 505.6600096508946,516.6628641012344 510.49222948832517,512.8509504197966 515.5616572098625,509.1667225443538 520.8021277593882,505.64417320817745 526.1455024109615,502.3127883000793 531.528078600122,499.19532768323904 536.909720774807,496.3022039833995 542.2558789480275,493.63937474210684 547.531542193226,491.2106737457776 552.7013281169245,489.0177903425523 557.7233446057173,487.06180476584893 562.5303860759755,485.34696090963314 567.0483954697632,483.8744591611055 571.2028412675738,482.64065441640184 574.9189252051855,481.6370306112756 578.1406605710719,480.84719379474507 580.8880847842547,480.24053332402275 583.2013947715951,479.7858227746866 585.1220567434771,479.45491134979227 586.6926684918712,479.2227650817596 587.9540470562645,479.06769710922686 588.9367447444498,478.97159347290915 589.6692101315701,478.9186785580048 590.180462374363,478.8952442865158 590.5,478.8896667365133 590.5,478.8896667365133 590.5,478.8896667365133 590.5,478.8896667365133 590.5,478.8896667365133 590.5,478.8896667365133 590.4574885255539,478.88519860050155 590.4472752750366,478.88319295430983 590.4582870395514,478.88380436223395 590.4795053900643,478.8864207091889 590.5,478.8896667365133 590.5,478.8896667365133 590.5,478.8896667365133 590.5,478.8896667365133 590.5,478.8896667365133 590.5,478.8896667365133 590.497049888972,478.88882080578844 590.4963527558726,478.8885516620808 590.4971237312109,478.888732180132 590.4985913772433,478.8891817088014 590.5,478.8896667365133 590.5,478.8896667365133 590.5,478.8896667365133 590.5,478.8896667365133 590.5,478.8896667365133 590.5,478.8896667365133 590.4998019559423,478.8895701439724 590.499756019955,478.8895424224711 590.4998082819624,478.88956479822446 590.4999064489215,478.8896148803037 590.5,478.8896667365133 590.5,478.8896667365133 590.5,478.8896667365133 590.5,478.8896667365133 590.5,478.8896667365133 590.5,478.8896667365133 590.4999872013495,478.8896574377494 590.4999842990134,478.88965490497117 590.4999877152846,478.8896571386417 590.499994031887,478.88966190363055 590.5,478.8896667365133 590.5,478.8896667365133 590.5,478.8896667365133 590.5,478.8896667365133 590.5,478.8896667365133 590.5,478.8896667365133 590.4999992109896,478.88966591946917 590.4999990373541,478.8896657042019 590.499999251057,478.88966590472774 590.4999996382719,478.8896663203926 590.5,478.8896667365133 590.5,478.8896667365133 590.5,478.8896667365133 590.5,478.8896667365133 590.5,478.8896667365133 590.5,478.8896667365133 590.4999999543986,478.88966666890644 590.4999999448054,478.889666651521 590.4999999574154,478.8896666683637 590.4999999796115,478.88966670258117 590.5,478.8896667365133 590.5,478.8896667365133 590.5,478.8896667365133 590.5,478.8896667365133 590.5,478.8896667365133 590.5,478.8896667365133 590.4999999976186,478.8896667311644 590.499999997157,478.88966672981564 590.4999999978386,478.88966673116363 590.4999999989814,478.8896667338598 590.5,478.8896667365133 590.5,478.8896667365133 590.5,478.8896667365133 590.5,478.8896667365133 590.5,478.8896667365133 590.5,478.8896667365133 590.4999999998983,478.88966673610514 590.4999999998823,478.88966673600373 590.4999999999137,478.8896667361073 590.499999999961,478.8896667363124 590.5,478.8896667365133 590.5,478.8896667365133 590.5,478.8896667365133 590.5,478.8896667365133 590.5,478.8896667365133 590.5,478.8896667365133 590.4999999999976,478.88966673647917 590.4999999999976,478.8896667364678 590.4999999999986,478.8896667364735 590.4999999999997,478.88966673649054 590.5,478.8896667365133" stroke="black" stroke-dasharray="8.0,8.0" stroke-width="7.0" /></g><rect fill="white" height="111.60000000000001" stroke="none" width="1181" x="0" y="0" /><line stroke="black" stroke-width="3.0" x1="0" x2="1181" y1="111.60000000000001" y2="111.60000000000001" /><text font-family="Arial" font-size="62.0" text-anchor="start" x="40.0" y="77.5">LED</text><text font-family="Arial" font-size="62.0" text-anchor="middle" x="590.5" y="77.5" /><text font-family="Arial" font-size="62.0" text-anchor="end" x="1141.0" y="77.5">cd / klm</text><rect fill="none" height="1178.0" stroke="black" stroke-width="3.0" width="1178.0" x="1.5" y="1.5" /></svg>