<?xml version="1.0" encoding="utf-8" ?>
<svg baseProfile="full" height="1181" version="1.1" width="1181" xmlns="http://www.w3.org/2000/svg" xmlns:ev="http://www.w3.org/2001/xml-events" xmlns:xlink="http://www.w3.org/1999/xlink"><defs><clipPath id="plot_clip"><rect height="1069.4" width="1181.0" x="0" y="111.60000000000001" /></clipPath></defs><g clip-path="url(#plot_clip)" id="grid"><circle cx="203.44298541772423" cy="160.2153442842374" fill="none" r="245.9710117377889" stroke="black" stroke-width="3.0" /><text font-family="Arial" font-size="42.0" text-anchor="start" x="211.44298541772426" y="446.1863560220263">400</text><circle cx="203.44298541772423" cy="160.2153442842374" fill="none" r="491.9420234755778" stroke="black" stroke-width="3.0" /><text font-family="Arial" font-size="42.0" text-anchor="start" x="211.4429854177243" y="692.1573677598152">800</text><circle cx="203.44298541772423" cy="160.2153442842374" fill="none" r="737.9130352133667" stroke="black" stroke-width="3.0" /><text font-family="Arial" font-size="42.0" text-anchor="start" x="211.44298541772434" y="938.1283794976041">1200</text><circle cx="203.44298541772423" cy="160.2153442842374" fill="none" r="983.8840469511556" stroke="black" stroke-width="3.0" /><text font-family="Arial" font-size="42.0" text-anchor="start" x="211.44298541772434" y="1184.0993912353929">1600</text><circle cx="203.44298541772423" cy="160.2153442842374" fill="none" r="1229.8550586889446" stroke="black" stroke-width="3.0" /><text font-family="Arial" font-size="42.0" text-anchor="start" x="211.44298541772437" y="1430.070402973182">2000</text><circle cx="203.44298541772423" cy="160.2153442842374" fill="none" r="1475.8260704267334" stroke="black" stroke-width="3.0" /><text font-family="Arial" font-size="42.0" text-anchor="start" x="211.4429854177244" y="1676.0414147109707">2400</text><line stroke="black" stroke-width="3.0" x1="-6018.393756489646" x2="6425.279727325094" y1="160.21534428423695" y2="160.21534428423786" /><line stroke="black" stroke-width="3.0" x1="-5184.825691273461" x2="5591.71166210891" y1="-2950.7030266694483" y2="3271.133715237923" /><line stroke="black" stroke-width="3.0" x1="-2907.4753855359604" x2="3314.361356371409" y1="-5228.053332406949" y2="5548.484020975424" /><line stroke="black" stroke-width="3.0" x1="203.44298541772423" x2="203.44298541772423" y1="-6061.621397623132" y2="6382.052086191607" /><line stroke="black" stroke-width="3.0" x1="3314.361356371409" x2="-2907.4753855359604" y1="-5228.053332406949" y2="5548.484020975424" /><line stroke="black" stroke-width="3.0" x1="5591.711662108911" x2="-5184.825691273462" y1="-2950.7030266694483" y2="3271.133715237923" /><line stroke="black" stroke-width="3.0" x1="6425.279727325095" x2="-6018.393756489647" y1="160.21534428423695" y2="160.21534428423786" /></g><g clip-path="url(#plot_clip)" id="curves"><polyline fill="none" points="203.44298541772426,427.0016528903367 208.3093296434577,439.0080182585773 213.59795226720937,451.01554706570425 219.3168337520888,463.1064141125146 225.48020460271965,475.36226107486516 232.10852126500632,487.86391830535183 239.2272737668494,500.68010537280486 246.8619291599353,513.8342636575438 255.03867408544028,527.3377452360666 263.78515304051507,541.200796511408 273.1304309194101,555.4324870135488 283.1121915349749,570.0778785639055 293.80360122158226,585.3286181060824 305.3005664608461,601.4089991854623 317.715595741638,618.5377509967622 331.1775699658319,636.9273037014772 345.8191704549081,656.7401084418781 361.73366608402745,677.9608316232523 379.0011958103248,700.5279582254936 397.6994999765388,724.3772269253387 417.90384389292956,749.4417103017174 439.6722783691575,775.6136921123649 462.9962555256835,802.632230889656 487.835378708588,830.2018368407979 514.1309513655173,858.0319410124808 541.8062292373033,885.8376623013879 570.7827817301984,913.3735398286595 601.0336294623489,940.5309191767765 632.5432108892213,967.2354946145606 665.2925002801917,993.4139248450678 699.2590523281721,1018.9939633821033 734.3348770862598,1043.7678269344347 770.0609770243295,1066.9936810281797 805.8413812893051,1087.8275283449916 841.0221460102605,1105.4653221158476 874.8930925005935,1119.1454763414167 906.7427571186224,1128.2244347248575 936.0298196887628,1132.390909090909 962.2430284172158,1131.4351098291847 984.8517174577597,1125.1747655721374 1003.3068988558291,1113.4560367105628 1017.0996530430762,1096.220269045168 1025.9432102712763,1073.694387456417 1029.6178346317809,1046.179401590752 1027.916021473707,1013.982166023153 1020.6426145251617,977.4149733916748 1007.7325884170534,936.9087855947279 989.6198968993574,893.3371746139732 966.9110529499258,847.6450799824881 940.2693363758092,800.728719245625 910.4125600339672,753.4332535982855 878.042095328898,706.4949322978692 843.6268180707187,660.3817710580038 807.5937660675331,615.4756119156658 770.3935752150742,572.1290590497345 732.4992010502584,530.6644946068395 694.3571544872208,491.34113236023575 656.2393897448311,454.26476742679074 618.3769625347215,419.49486965049516 581.0058198698003,387.0779827149123 544.3662747480428,357.0474971521094 508.7064746822854,329.4256594616387 474.29417144829756,304.22947447339106 441.40466722261954,281.46287716832694 410.31626327237615,261.1141835973915 381.30962350925535,243.15591975660186 354.5956506481756,227.5128467056726 330.0960385243452,213.97637572405563 307.65002879467653,202.3177227252679 287.0854043048158,192.32266069835896 268.21917020791693,183.79194743719472 250.95770280868192,176.57597351959873 235.6004796189485,170.66394753171062 222.54976853463046,166.05687410705195 212.21132159148482,162.72962422284525 204.99325855445701,160.63073871927259 203.44298541772423,160.2153442842374 203.44298541772423,160.2153442842374 203.44298541772423,160.2153442842374 203.44298541772423,160.2153442842374 203.57015835139646,160.23776830365966 204.4381654355388,160.37296531438108 204.64462465519978,160.3842236656834 204.4121046027694,160.33433715783576 203.9662066340586,160.270337050055 203.5348735493908,160.2233834540708 203.44298541772423,160.2153442842374 203.44298541772423,160.2153442842374 203.44298541772423,160.2153442842374 203.44298541772423,160.2153442842374 203.54137382241936,160.2153442842374 203.59518705336254,160.21268759480517 203.59589591932553,160.2100045318581 203.56230692365642,160.20909090909083 203.51324351212494,160.21043135968273 203.467488919502,160.21320050561508 203.44298541772423,160.2153442842374 203.44298541772423,160.2153442842374 203.44298541772423,160.2153442842374 203.44298541772423,160.2153442842374 203.44298541772423,160.2153442842374 203.44715412832775,160.21453396898164 203.44814757650275,160.2142470335167 203.447063026192,160.21440289414636 203.44498568117666,160.21484556254563 203.44298541772423,160.2153442842374 203.44298541772423,160.2153442842374 203.44298541772423,160.2153442842374 203.44298541772423,160.2153442842374 203.44298541772423,160.2153442842374 203.44298541772423,160.2153442842374 203.44327006813387,160.21523501718264 203.44333673356292,160.21520234342506 203.44326199250528,160.21522688520804 203.4431206306309,160.21528408357267 203.44298541772423,160.2153442842374 203.44298541772423,160.2153442842374 203.44298541772423,160.2153442842374 203.44298541772423,160.2153442842374 203.44298541772423,160.2153442842374 203.44298541772423,160.2153442842374 203.44300418194678,160.21533300955502 203.44300848823755,160.21532986818067 203.4430035095669,160.21533253525752 203.44299422754565,160.21533834193792 203.44298541772423,160.2153442842374 203.44298541772423,160.2153442842374 203.44298541772423,160.2153442842374 203.44298541772423,160.2153442842374 203.44298541772423,160.2153442842374 203.44298541772423,160.2153442842374 203.44298660390191,160.21534325310893 203.44298686921786,160.2153429773067 203.44298655044736,160.21534322795605 203.4429859665467,160.21534375424562 203.44298541772423,160.2153442842374 203.44298541772423,160.2153442842374 203.44298541772423,160.2153442842374 203.44298541772423,160.2153442842374 203.44298541772423,160.2153442842374 203.44298541772423,160.2153442842374 203.44298548873866,160.215344196542 203.44298550405958,160.21534417373323 203.4429854846455,160.2153441954298 203.44298544992165,160.21534423992148 203.44298541772423,160.2153442842374 203.44298541772423,160.2153442842374 203.44298541772423,160.2153442842374 203.44298541772423,160.2153442842374 203.44298541772423,160.2153442842374 203.44298541772423,160.2153442842374 203.44298542165205,160.21534427715142 203.44298542245096,160.21534427534777 203.44298542134877,160.2153442771239 203.4429854194483,160.21534428070254 203.44298541772423,160.2153442842374 203.44298541772423,160.2153442842374 203.44298541772423,160.2153442842374 203.44298541772423,160.2153442842374 203.44298541772423,160.2153442842374 203.44298541772423,160.2153442842374 203.4429854179136,160.2153442836874 203.44298541794763,160.21534428354994 203.44298541789183,160.2153442836892 203.44298541780208,160.21534428396592 203.44298541772423,160.2153442842374 203.44298541772423,160.2153442842374 203.44298541772423,160.2153442842374 203.44298541772423,160.2153442842374 203.44298541772423,160.2153442842374 203.44298541772423,160.2153442842374 203.44298541773082,160.2153442841958 203.44298541773156,160.21534428418522 203.44298541772937,160.21534428419557 203.44298541772642,160.21534428421648 203.44298541772423,160.2153442842374 203.44298541772423,160.2153442842374 203.44298541772423,160.2153442842374 203.44298541772423,160.2153442842374 203.44298541772423,160.2153442842374 203.44298541772423,160.2153442842374" stroke="black" stroke-width="9.0" /><polyline fill="none" points="203.44298541772426,427.0016528903367 198.99389210558184,415.10372942854247 194.95964769941418,403.14635187027625 191.34014389667263,391.1513176573367 188.13425623112818,379.1403711961326 185.33984684221863,367.13516504640324 182.95366048411387,355.1582491235964 180.9708623495435,343.23609952358083 179.3851188851808,331.3959593950574 178.18868037145407,319.66475102219147 177.37239331322755,308.06901931313837 176.92279584104077,296.6498920752583 176.81128420425657,285.507647679751 176.9992508563517,274.7557425627966 177.4405602952249,264.50537519125123 178.08164318674295,254.86516203840165 178.8674168327186,245.920537133189 179.76167133845624,237.67343244955646 180.73464370317657,230.1044337356508 181.75793329581475,223.19330853965414 182.80451916081347,216.9190642972759 183.84989586022968,211.2570876340328 184.87585456525647,206.17060576284052 185.86783402841374,201.61980626445518 186.81388963854414,197.56490492105127 187.7046766268535,193.96625640337618 188.5344843172653,190.78230136269758 189.30467695717107,187.9633369989914 190.02101836151795,185.4583929438512 190.69264082016477,183.2175748344016 191.33198772728485,181.19220761442773 191.9496785313036,179.3434191196652 192.53805076573636,177.66688774474983 193.08429736613388,176.16632508596615 193.57526312745824,174.84484419990883 193.99746676054124,173.70494292713875 194.34154580190818,172.7424012217067 194.61639103321352,171.92863065474614 194.83734408528005,171.23006289735417 195.02193002236123,170.61448164699527 195.18979382225692,170.05111501850388 195.35748490246863,169.51664863355666 195.52212028100377,169.01235623335344 195.6753651422108,168.5450972190514 195.80839387827584,168.12119525674518 195.9119129604821,167.7464167414795 195.9795531830746,167.42269701477187 196.0184499593646,167.13883560672184 196.03992198609726,166.8810925382677 196.0561803293887,166.63659598236086 196.0802892215276,166.3933799469363 196.1243578032616,166.14185207132937 196.19399737463658,165.87887444902083 196.29325051129499,165.6030559801386 196.42629691159857,165.3132668897041 196.59744226772312,165.008645201008 196.8085686521628,164.69031489689075 197.05127223378716,164.36617135942674 197.31407445587703,164.04511290487687 197.58493445620726,163.73521641126956 197.85128536778774,163.44371381329586 198.10334940593216,163.175152857037 198.34425938817992,162.92638500360408 198.58067309383375,162.6928161566501 198.81953890442304,162.4703498202656 199.0680735925056,162.25539917208982 199.33326752057175,162.04510858057552 199.62041631458595,161.8379286017405 199.9344676072778,161.6328774934675 200.2804706624081,161.42931995907202 200.66356125322088,161.22697194851685 201.08410151139293,161.0275731497319 201.5229028923264,160.83921691513183 201.95538797043952,160.67014846553184 202.35644797144832,160.52690388341125 202.7005174403618,160.41428797917774 202.96786175639969,160.33380591781906 203.1634981990736,160.27986899284997 203.2989501787701,160.24595991938872 203.3860556779925,160.2264103046457 203.43692956373982,160.216412094686 203.44298541772423,160.2153442842374 203.44298541772423,160.2153442842374 203.44298541772423,160.2153442842374 203.44298541772423,160.2153442842374 203.44298541772423,160.2153442842374 203.43560318252108,160.21586050041014 203.43250805731836,160.21589337942908 203.43249380016522,160.21571065959586 203.43434406972574,160.21549511952787 203.4368361424308,160.2153442842374 203.43896010048059,160.21527402206357 203.44056816281864,160.2152598718361 203.44172887098318,160.21527843141314 203.44251141418212,160.21531113868093 203.44298541772423,160.2153442842374 203.44298541772423,160.2153442842374 203.44298541772423,160.2153442842374 203.44298541772423,160.2153442842374 203.44298541772423,160.2153442842374 203.44298541772423,160.2153442842374 203.4429235734738,160.21533226293286 203.44290883532966,160.21532800614705 203.4429249250052,160.21533031839283 203.4429557431304,160.21533688553018 203.44298541772423,160.2153442842374 203.44298541772423,160.2153442842374 203.44298541772423,160.2153442842374 203.44298541772423,160.2153442842374 203.44298541772423,160.2153442842374 203.44298541772423,160.2153442842374 203.44298119483787,160.21534266322328 203.44298020583338,160.21534217849683 203.44298131464257,160.21534254258256 203.44298341179442,160.21534339113998 203.44298541772423,160.2153442842374 203.44298541772423,160.2153442842374 203.44298541772423,160.2153442842374 203.44298541772423,160.2153442842374 203.44298541772423,160.2153442842374 203.44298541772423,160.2153442842374 203.44298513935055,160.2153441169736 203.44298507546523,160.2153440703703 203.44298514932552,160.21534410993718 203.4429852870275,160.21534419608145 203.44298541772423,160.2153442842374 203.44298541772423,160.2153442842374 203.44298541772423,160.2153442842374 203.44298541772423,160.2153442842374 203.44298541772423,160.2153442842374 203.44298541772423,160.2153442842374 203.44298540012687,160.21534426894027 203.4429853961908,160.21534426484868 203.4429854009199,160.21534426856715 203.44298540958226,160.21534427637482 203.44298541772423,160.2153442842374 203.44298541772423,160.2153442842374 203.44298541772423,160.2153442842374 203.44298541772423,160.2153442842374 203.44298541772423,160.2153442842374 203.44298541772423,160.2153442842374 203.4429854166707,160.21534428293637 203.44298541644343,160.21534428259804 203.4429854167314,160.2153442829199 203.44298541724658,160.21534428357995 203.44298541772423,160.2153442842374 203.44298541772423,160.2153442842374 203.44298541772423,160.2153442842374 203.44298541772423,160.2153442842374 203.44298541772423,160.2153442842374 203.44298541772423,160.2153442842374 203.44298541766597,160.21534428413224 203.4429854176541,160.21534428410553 203.44298541767046,160.2153442841319 203.44298541769865,160.215344284185 203.44298541772423,160.2153442842374 203.44298541772423,160.2153442842374 203.44298541772423,160.2153442842374 203.44298541772423,160.2153442842374 203.44298541772423,160.2153442842374 203.44298541772423,160.2153442842374 203.44298541772145,160.21534428422933 203.4429854177209,160.21534428422717 203.44298541772176,160.21534428422933 203.44298541772307,160.2153442842333 203.44298541772423,160.2153442842374 203.44298541772423,160.2153442842374 203.44298541772423,160.2153442842374 203.44298541772423,160.2153442842374 203.44298541772423,160.2153442842374 203.44298541772423,160.2153442842374 203.44298541772412,160.21534428423683 203.44298541772412,160.2153442842366 203.44298541772415,160.21534428423683 203.4429854177242,160.21534428423718 203.44298541772423,160.2153442842374 203.44298541772423,160.2153442842374 203.44298541772423,160.2153442842374 203.44298541772423,160.2153442842374 203.44298541772423,160.2153442842374 203.44298541772423,160.2153442842374" stroke="black" stroke-width="9.0" /><polyline fill="none" points="203.44298541772426,427.0016528903367 208.07992995785918,425.8657190725294 212.67034435149012,424.45233184393 217.19219693567504,422.5659286067439 221.6097493048733,420.012171598842 225.87360911454908,416.59854632250335 229.92665850590421,412.190662131668 233.7294830534693,406.87907311977847 237.25646457510274,400.8107500891182 240.4918674408381,394.1327792746895 243.42981719462938,386.99193636471125 246.07013641522988,379.51302513782764 248.4029498635546,371.73534673717177 250.41585987078076,363.6772167234302 252.0973394795048,355.35729988872924 253.43674018142576,346.79457712350995 254.42842768573854,338.02271207532715 255.08618030569377,329.13262351043954 255.4342796684538,320.2280946761422 255.50380546722937,311.4109441727338 255.33254411440237,302.78073510882564 254.95865916767923,294.41826263057885 254.39963772952905,286.3374845152906 253.66695632987503,278.53560497869114 252.7717322944682,271.00952378001693 251.72471756290125,263.7558530037584 250.53843030689853,256.77531586139753 249.23417075585354,250.08560568838334 247.83665305446522,243.70768990244517 246.3719766359009,237.66129452745565 244.8675784320146,231.964844067851 243.3482142942974,226.62879794201945 241.82308362999845,221.6363406813266 240.29610975015297,216.9641792508471 238.7696964347692,212.58934718403736 237.24475093344978,208.48926832988525 235.72342556855435,204.64555849269175 234.21781305055862,201.05491993065095 232.7427114327501,197.71728342271967 231.31301927916817,194.63196985227012 229.94371484866795,191.79768378993163 228.64690976208865,189.20914258798268 227.4225856457146,186.84738839804447 226.26655690062384,184.69062819351052 225.17331054507167,182.7177546821306 224.13604189810255,180.90840076461575 223.1480228481725,179.24427773797458 222.20681122136122,177.71289491978803 221.31059958394002,176.30341634145157 220.45694775774214,175.00535610411976 219.64280129662387,173.80860381336186 218.8640220469303,172.70305352188393 218.11388734526065,171.67750908811138 217.38448565080523,170.72101824938466 216.66722208794346,169.82331462555965 215.95285032797273,168.97484599637858 215.2347286543154,168.1689755257372 214.51882302393395,167.4080773267326 213.81456952481057,166.69622932350546 213.13170420187137,166.03691385046397 212.4802377841454,165.43300437072526 211.8681993049505,164.8855166023526 211.29474808267187,164.39020054835748 210.756560229041,163.94179677738475 210.2500293425115,163.5353614381554 209.77128144006275,163.16627718252573 209.31436307715347,162.82945004049498 208.86566411872255,162.5171348292073 208.40923544710387,162.22183954016145 207.92863675827405,161.93722450758298 207.40698744859597,161.65812303204552 206.8351568153315,161.38336256544494 206.23661347796414,161.1230490649583 205.64366237005382,160.88815874854345 205.0893117869386,160.68742077406273 204.60717520622856,160.52728799790373 204.22358077898326,160.4099685666887 203.93383551693373,160.32866595875578 203.72510485130306,160.27531062101934 203.58417351829735,160.2427884708734 203.49748810358375,160.22495457827551 203.45190165833617,160.21675647801658 203.44298541772423,160.2153442842374 203.44298541772423,160.2153442842374 203.45793456268623,160.21691550268656 203.47361479494643,160.21802400751528 203.481071300504,160.2180075086003 203.48069566593162,160.21732059460214 203.47505741032967,160.21646426289828 203.46674512981107,160.2157590115545 203.4583586059578,160.2153442842374 203.45199420061422,160.21518703534707 203.4477186973531,160.21517899447053 203.44508890308256,160.215234045241 203.4436597033122,160.21529713359587 203.44298541772423,160.2153442842374 203.44298541772423,160.2153442842374 203.44298541772423,160.2153442842374 203.44298541772423,160.2153442842374 203.44298541772423,160.2153442842374 203.44298541772423,160.2153442842374 203.44306569761582,160.2153286794072 203.44308482916978,160.21532315368245 203.44306394319574,160.2153261552038 203.44302393825214,160.2153346799912 203.44298541772423,160.2153442842374 203.44298541772423,160.2153442842374 203.44298541772423,160.2153442842374 203.44298541772423,160.2153442842374 203.44298541772423,160.2153442842374 203.44298541772423,160.2153442842374 203.44299089944414,160.21534218000227 203.4429921832688,160.21534155077995 203.44299074392592,160.21534202339888 203.44298802161748,160.2153431249094 203.44298541772423,160.2153442842374 203.44298541772423,160.2153442842374 203.44298541772423,160.2153442842374 203.44298541772423,160.2153442842374 203.44298541772423,160.2153442842374 203.44298541772423,160.2153442842374 203.44298577908052,160.2153440671127 203.4429858620099,160.21534400661687 203.442985766132,160.21534405797877 203.44298558738137,160.21534416980228 203.44298541772423,160.2153442842374 203.44298541772423,160.2153442842374 203.44298541772423,160.2153442842374 203.44298541772423,160.2153442842374 203.44298541772423,160.2153442842374 203.44298541772423,160.2153442842374 203.44298544056733,160.2153442643803 203.4429854456767,160.21534425906884 203.44298543953792,160.21534426389576 203.4429854282933,160.21534427403094 203.44298541772423,160.2153442842374 203.44298541772423,160.2153442842374 203.44298541772423,160.2153442842374 203.44298541772423,160.2153442842374 203.44298541772423,160.2153442842374 203.44298541772423,160.2153442842374 203.4429854190918,160.21534428254859 203.44298541938684,160.2153442821094 203.44298541901296,160.2153442825272 203.44298541834428,160.21534428338396 203.44298541772423,160.2153442842374 203.44298541772423,160.2153442842374 203.44298541772423,160.2153442842374 203.44298541772423,160.2153442842374 203.44298541772423,160.2153442842374 203.44298541772423,160.2153442842374 203.44298541779986,160.21534428410098 203.44298541781524,160.2153442840663 203.44298541779403,160.2153442841004 203.44298541775743,160.2153442841693 203.44298541772423,160.2153442842374 203.44298541772423,160.2153442842374 203.44298541772423,160.2153442842374 203.44298541772423,160.2153442842374 203.44298541772423,160.2153442842374 203.44298541772423,160.2153442842374 203.44298541772787,160.21534428422683 203.44298541772852,160.2153442842241 203.44298541772744,160.21534428422683 203.44298541772574,160.2153442842323 203.44298541772423,160.2153442842374 203.44298541772423,160.2153442842374 203.44298541772423,160.2153442842374 203.44298541772423,160.2153442842374 203.44298541772423,160.2153442842374 203.44298541772423,160.2153442842374 203.44298541772437,160.2153442842366 203.44298541772437,160.21534428423638 203.44298541772434,160.2153442842366 203.44298541772426,160.21534428423695 203.44298541772423,160.2153442842374 203.44298541772423,160.2153442842374 203.44298541772423,160.2153442842374 203.44298541772423,160.2153442842374 203.44298541772423,160.2153442842374 203.44298541772423,160.2153442842374" stroke="black" stroke-dasharray="8.0,8.0" stroke-width="7.0" /><polyline fill="none" points="203.44298541772426,427.0016528903367 198.8060408775892,425.8657190725294 194.2156264839584,424.45233184393 189.69377389977348,422.5659286067439 185.27622153057524,420.012171598842 181.01236172089946,416.59854632250335 176.95931232954428,412.190662131668 173.15648778197922,406.87907311977847 169.62950626034566,400.8107500891182 166.3941033946104,394.1327792746895 163.45615364081905,386.99193636471125 160.81583442021864,379.51302513782764 158.4830209718938,371.73534673717177 156.47011096466773,363.6772167234302 154.7886313559437,355.35729988872924 153.44923065402273,346.79457712351007 152.45754314970998,338.02271207532715 151.79979052975466,329.13262351043943 151.4516911669947,320.2280946761422 151.3821653682191,311.4109441727338 151.55342672104612,302.78073510882575 151.9273116677692,294.41826263057885 152.4863331059194,286.3374845152906 153.21901450557345,278.53560497869114 154.1142385409803,271.00952378001705 155.1612532725472,263.7558530037584 156.3475405285499,256.77531586139753 157.65180007959495,250.08560568838334 159.04931778098324,243.70768990244517 160.5139941995476,237.66129452745565 162.01839240343384,231.964844067851 163.53775654115108,226.62879794201945 165.06288720545,221.6363406813266 166.5898610852955,216.9641792508471 168.11627440067923,212.58934718403736 169.64121990199862,208.48926832988525 171.1625452668941,204.64555849269175 172.66815778488984,201.05491993065095 174.14325940269833,197.71728342271967 175.5729515562803,194.63196985227012 176.9422559867805,191.79768378993163 178.23906107335984,189.20914258798268 179.46338518973386,186.84738839804447 180.61941393482462,184.69062819351052 181.7126602903768,182.7177546821306 182.74992893734597,180.90840076461575 183.73794798727596,179.24427773797447 184.67915961408724,177.71289491978803 185.57537125150844,176.30341634145157 186.42902307770632,175.00535610411976 187.2431695388246,173.80860381336186 188.02194878851816,172.70305352188393 188.77208349018778,171.67750908811138 189.5014851846432,170.72101824938466 190.218748747505,169.82331462555965 190.93312050747573,168.97484599637858 191.65124218113306,168.1689755257372 192.3671478115145,167.4080773267326 193.0714013106379,166.69622932350546 193.7542666335771,166.03691385046397 194.40573305130303,165.43300437072526 195.01777153049795,164.8855166023526 195.5912227527766,164.39020054835748 196.12941060640745,163.94179677738475 196.63594149293695,163.5353614381554 197.1146893953857,163.16627718252573 197.571607758295,162.82945004049498 198.0203067167259,162.5171348292073 198.4767353883446,162.22183954016145 198.9573340771744,161.93722450758298 199.47898338685246,161.65812303204552 200.05081402011697,161.38336256544494 200.64935735748432,161.1230490649583 201.24230846539464,160.88815874854345 201.79665904850984,160.68742077406273 202.2787956292199,160.52728799790373 202.6623900564652,160.4099685666887 202.95213531851473,160.32866595875578 203.1608659841454,160.27531062101934 203.3017973171511,160.2427884708734 203.3884827318647,160.22495457827551 203.4340691771123,160.21675647801658 203.44298541772423,160.2153442842374 203.44298541772423,160.2153442842374 203.42803627276223,160.21691550268656 203.41235604050203,160.21802400751528 203.40489953494446,160.2180075086003 203.4052751695168,160.21732059460214 203.4109134251188,160.21646426289828 203.4192257056374,160.2157590115545 203.42761222949062,160.2153442842374 203.43397663483424,160.21518703534707 203.43825213809535,160.21517899447053 203.4408819323659,160.215234045241 203.44231113213627,160.21529713359587 203.44298541772423,160.2153442842374 203.44298541772423,160.2153442842374 203.44298541772423,160.2153442842374 203.44298541772423,160.2153442842374 203.44298541772423,160.2153442842374 203.44298541772423,160.2153442842374 203.44290513783264,160.2153286794072 203.44288600627868,160.21532315368245 203.44290689225272,160.2153261552038 203.44294689719632,160.2153346799912 203.44298541772423,160.2153442842374 203.44298541772423,160.2153442842374 203.44298541772423,160.2153442842374 203.44298541772423,160.2153442842374 203.44298541772423,160.2153442842374 203.44298541772423,160.2153442842374 203.44297993600432,160.21534218000227 203.44297865217965,160.21534155077995 203.44298009152251,160.21534202339888 203.44298281383098,160.2153431249094 203.44298541772423,160.2153442842374 203.44298541772423,160.2153442842374 203.44298541772423,160.2153442842374 203.44298541772423,160.2153442842374 203.44298541772423,160.2153442842374 203.44298541772423,160.2153442842374 203.44298505636795,160.2153440671127 203.44298497343857,160.21534400661687 203.44298506931645,160.21534405797877 203.4429852480671,160.21534416980228 203.44298541772423,160.2153442842374 203.44298541772423,160.2153442842374 203.44298541772423,160.2153442842374 203.44298541772423,160.2153442842374 203.44298541772423,160.2153442842374 203.44298541772423,160.2153442842374 203.44298539488113,160.2153442643803 203.44298538977174,160.21534425906884 203.44298539591054,160.21534426389576 203.44298540715516,160.21534427403094 203.44298541772423,160.2153442842374 203.44298541772423,160.2153442842374 203.44298541772423,160.2153442842374 203.44298541772423,160.2153442842374 203.44298541772423,160.2153442842374 203.44298541772423,160.2153442842374 203.44298541635666,160.21534428254859 203.44298541606162,160.2153442821094 203.44298541643548,160.2153442825272 203.44298541710418,160.21534428338396 203.44298541772423,160.2153442842374 203.44298541772423,160.2153442842374 203.44298541772423,160.2153442842374 203.44298541772423,160.2153442842374 203.44298541772423,160.2153442842374 203.44298541772423,160.2153442842374 203.4429854176486,160.21534428410098 203.4429854176332,160.2153442840663 203.44298541765443,160.2153442841004 203.44298541769103,160.2153442841693 203.44298541772423,160.2153442842374 203.44298541772423,160.2153442842374 203.44298541772423,160.2153442842374 203.44298541772423,160.2153442842374 203.44298541772423,160.2153442842374 203.44298541772423,160.2153442842374 203.4429854177206,160.21534428422683 203.44298541771994,160.2153442842241 203.44298541772102,160.21534428422683 203.44298541772272,160.2153442842323 203.44298541772423,160.2153442842374 203.44298541772423,160.2153442842374 203.44298541772423,160.2153442842374 203.44298541772423,160.2153442842374 203.44298541772423,160.2153442842374 203.44298541772423,160.2153442842374 203.4429854177241,160.2153442842366 203.4429854177241,160.21534428423638 203.44298541772412,160.2153442842366 203.4429854177242,160.21534428423695 203.44298541772423,160.2153442842374 203.44298541772423,160.2153442842374 203.44298541772423,160.2153442842374 203.44298541772423,160.2153442842374 203.44298541772423,160.2153442842374 203.44298541772423,160.2153442842374" stroke="black" stroke-dasharray="8.0,8.0" stroke-width="7.0" /></g><rect fill="white" height="111.60000000000001" stroke="none" width="1181" x="0" y="0" /><line stroke="black" stroke-width="3.0" x1="0" x2="1181" y1="111.60000000000001" y2="111.60000000000001" /><text font-family="Arial" font-size="62.0" text-anchor="start" x="40.0" y="77.5">LED</text><text font-family="Arial" font-size="62.0" text-anchor="middle" x="590.5" y="77.5" /><text font-family="Arial" font-size="62.0" text-anchor="end" x="1141.0" y="77.5">cd / klm</text><rect fill="none" height="1178.0" stroke="black" stroke-width="3.0" width="1178.0" x="1.5" y="1.5" /></svg>