<?xml version="1.0" encoding="utf-8" ?>
<svg baseProfile="full" height="1181" version="1.1" width="1181" xmlns="http://www.w3.org/2000/svg" xmlns:ev="http://www.w3.org/2001/xml-events" xmlns:xlink="http://www.w3.org/1999/xlink"><defs><clipPath id="plot_clip"><rect height="1069.4" width="1181.0" x="0" y="111.60000000000001" /></clipPath></defs><g clip-path="url(#plot_clip)" id="grid"><circle cx="590.5" cy="160.25873678623043" fill="none" r="198.54018713844434" stroke="black" stroke-width="3.0" /><text font-family="Arial" font-size="42.0" text-anchor="start" x="598.5" y="398.7989239246747">250</text><circle cx="590.5" cy="160.25873678623043" fill="none" r="397.0803742768887" stroke="black" stroke-width="3.0" /><text font-family="Arial" font-size="42.0" text-anchor="start" x="598.5" y="597.339111063119">500</text><circle cx="590.5" cy="160.25873678623043" fill="none" r="595.620561415333" stroke="black" stroke-width="3.0" /><text font-family="Arial" font-size="42.0" text-anchor="start" x="598.5" y="795.8792982015634">750</text><circle cx="590.5" cy="160.25873678623043" fill="none" r="794.1607485537774" stroke="black" stroke-width="3.0" /><text font-family="Arial" font-size="42.0" text-anchor="start" x="598.5" y="994.4194853400078">1000</text><circle cx="590.5" cy="160.25873678623043" fill="none" r="992.7009356922217" stroke="black" stroke-width="3.0" /><text font-family="Arial" font-size="42.0" text-anchor="start" x="598.5" y="1192.959672478452">1250</text><line stroke="black" stroke-width="3.0" x1="-4270.1608615233945" x2="5451.1608615233945" y1="160.25873678622997" y2="160.25873678623088" /><line stroke="black" stroke-width="3.0" x1="-3618.955785260015" x2="4799.955785260016" y1="-2270.0716939754675" y2="2590.5891675479284" /><line stroke="black" stroke-width="3.0" x1="-1839.8304307616968" x2="3020.830430761697" y1="-4049.1970484737853" y2="4369.714522046246" /><line stroke="black" stroke-width="3.0" x1="590.5" x2="590.5" y1="-4700.402124737164" y2="5020.919598309625" /><line stroke="black" stroke-width="3.0" x1="3020.830430761697" x2="-1839.8304307616968" y1="-4049.1970484737853" y2="4369.714522046246" /><line stroke="black" stroke-width="3.0" x1="4799.955785260015" x2="-3618.9557852600146" y1="-2270.0716939754675" y2="2590.5891675479284" /><line stroke="black" stroke-width="3.0" x1="5451.1608615233945" x2="-4270.1608615233945" y1="160.25873678622997" y2="160.25873678623088" /></g><g clip-path="url(#plot_clip)" id="curves"><polyline fill="none" points="590.5,1132.3909090909092 607.2376438805304,1119.1577124911394 623.4569092485121,1104.0211374486842 638.9834956531561,1085.3789444429792 653.5306365864467,1061.6388345570995 666.6995309942758,1031.2233614966874 678.047896995353,993.2213360007555 687.3847802357274,949.3219506241804 694.7248131187025,901.8568163721992 700.2423284596556,853.144529322347 704.2705780549653,805.4837477167531 707.2276040778429,760.7702011194889 709.3432362413258,719.3722043150332 710.7858280448945,681.2738989809831 711.7220311070383,646.4537478748292 712.3166358182884,614.8846108671974 712.7164306847624,586.4780824309522 712.9943332760652,560.9196475317175 713.1837444957271,537.8404774997448 713.2927565358762,516.8747960175211 713.3043700926457,497.6609706261231 713.1744390177528,479.8365763888248 712.8241942495173,463.02174182795204 712.14605862844,446.8388917991758 711.0061581208707,430.9199994076222 709.2447742571381,414.90772695500857 706.7155108552178,398.53584514378406 703.4128731465012,381.86272783032416 699.3757759181843,365.0242899906766 694.6515103594415,348.1530352583094 689.2955825219613,331.3777052776311 683.3816166601663,314.839705681291 677.0337297303297,298.74165240038315 670.4000948122181,283.2940933930282 663.6430526449392,268.69777175548984 656.9386870142752,255.14301521623076 650.4563833452083,242.78161883941425 644.2945571102745,231.6465252307837 638.5336407086476,221.73899327503273 633.2549828747335,213.05674356594375 628.540722884382,205.5939049485736 624.4527529433403,199.31691111042926 620.9665262550334,194.0952421284427 618.0279971729059,189.77889960410255 615.5739424068506,186.2235642347631 613.5322378235967,183.29097460982712 611.8315889345187,180.8584127690939 610.4314170526086,178.84508387588937 609.2959792679992,177.18271253567525 608.3853991790891,175.80627709316184 607.6558204801138,174.65417942363752 607.0652122379804,173.67298116303346 606.5911031234245,172.8304843711993 606.2148716495536,172.1007419645971 605.9163325224322,171.45935798964945 605.6738081956721,170.88355166818826 605.466521230542,170.35378282373392 605.281841570668,169.85817694366483 605.1087662242112,169.3873070689482 604.9356929169828,168.9325761684206 604.7504572944346,168.48624214124743 604.5430139585864,168.04290653315252 604.3136056143602,167.60356117663764 604.0652040980467,167.17055350177134 603.8009112584665,166.74602466460715 603.523949907021,166.33190436730138 603.2399601210485,165.9309324818081 602.9640469428987,165.54941082154528 602.7140810545128,165.19354585673 602.5083780399374,164.86832123487136 602.3656452226273,164.5774784576297 602.2974516021596,164.3209251393023 602.2853944029748,164.08804355562995 602.3029215997178,163.8672520501152 602.3227964711655,163.6488691211025 602.3171813115847,163.42514097548167 602.2662044642093,163.1923810463362 602.1837779466236,162.95614946628018 602.0926649720777,162.7228337932877 602.0160070314515,162.49722179303603 601.977253844454,162.2824863034475 601.9805495930261,162.07707720813994 601.9516239308809,161.86815757217425 601.7957968774808,161.64568624588026 601.4176894691559,161.4062321887542 600.7215123546727,161.15300324135444 599.6497415625327,160.89854904380536 598.2988953721466,160.66745957354544 596.804924003446,160.47890958401774 595.3045280656273,160.34260013556525 593.9347452374951,160.25873678623043 592.8059367819325,160.2184865099814 591.9216719122212,160.20909090909095 591.2585020750134,160.2189853768973 590.7926334483576,160.23827386211872 590.5,160.25873678623043 590.5,160.25873678623043 590.5,160.25873678623043 590.5,160.25873678623043 590.5,160.25873678623043 590.5,160.25873678623043 590.5386005076607,160.25123360761836 590.547799420115,160.24857670584095 590.5377569401832,160.25001990974783 590.5185215986576,160.25411883302752 590.5,160.25873678623043 590.5,160.25873678623043 590.5,160.25873678623043 590.5,160.25873678623043 590.5,160.25873678623043 590.5,160.25873678623043 590.502635743126,160.2577250192386 590.5032530369729,160.25742247397977 590.5025609662005,160.2576497205731 590.5012520146719,160.25817935338398 590.5,160.25873678623043 590.5,160.25873678623043 590.5,160.25873678623043 590.5,160.25873678623043 590.5,160.25873678623043 590.5,160.25873678623043 590.5001737488125,160.25863238741135 590.5002136232546,160.25860329960574 590.500167522857,160.25862799561492 590.5000815752426,160.25868176303447 590.5,160.25873678623043 590.5,160.25873678623043 590.5,160.25873678623043 590.5,160.25873678623043 590.5,160.25873678623043 590.5,160.25873678623043 590.5000109835066,160.2587272384137 590.5000134402209,160.25872468460125 590.5000104885399,160.2587270055085 590.5000050818653,160.25873187873003 590.5,160.25873678623043 590.5,160.25873678623043 590.5,160.25873678623043 590.5,160.25873678623043 590.5,160.25873678623043 590.5,160.25873678623043 590.5000006575636,160.25873597420673 590.5000007994289,160.25873576300808 590.5000006196628,160.25873596391 590.5000002981348,160.25873637588313 590.5,160.25873678623043 590.5,160.25873678623043 590.5,160.25873678623043 590.5,160.25873678623043 590.5,160.25873678623043 590.5,160.25873678623043 590.5000000363699,160.25873672061732 590.5000000437675,160.2587367039156 590.5000000335616,160.25873672036175 590.5000000159639,160.2587367534993 590.5,160.25873678623043 590.5,160.25873678623043 590.5,160.25873678623043 590.5,160.25873678623043 590.5,160.25873678623043 590.5,160.25873678623043 590.5000000017536,160.2587367811376 590.5000000020685,160.25873677986397 590.5000000015519,160.25873678115397 590.5000000007208,160.2587367837167 590.5,160.25873678623043 590.5,160.25873678623043 590.5,160.25873678623043 590.5,160.25873678623043 590.5,160.25873678623043 590.5,160.25873678623043 590.5000000000609,160.25873678584492 590.5000000000679,160.25873678574715 590.5000000000475,160.2587367858431 590.5000000000203,160.25873678603625 590.5,160.25873678623043 590.5,160.25873678623043 590.5,160.25873678623043 590.5,160.25873678623043 590.5,160.25873678623043 590.5,160.25873678623043" stroke="black" stroke-width="9.0" /><polyline fill="none" points="590.5,1132.3909090909092 573.7623561194694,1119.1577124911394 557.543090751488,1104.0211374486842 542.016504346844,1085.3789444429792 527.4693634135534,1061.6388345570995 514.3004690057243,1031.2233614966874 502.9521030046471,993.2213360007555 493.6152197642727,949.3219506241805 486.2751868812973,901.8568163721991 480.75767154034446,853.1445293223472 476.72942194503446,805.4837477167531 473.7723959221572,760.7702011194889 471.656763758674,719.3722043150332 470.21417195510554,681.2738989809831 469.2779688929616,646.4537478748292 468.68336418171157,614.8846108671975 468.28356931523757,586.4780824309522 468.00566672393467,560.9196475317174 467.8162555042729,537.8404774997448 467.7072434641237,516.8747960175211 467.6956299073542,497.6609706261231 467.8255609822471,479.8365763888248 468.17580575048254,463.02174182795204 468.85394137156,446.8388917991758 469.99384187912915,430.9199994076222 471.7552257428618,414.90772695500857 474.284489144782,398.53584514378406 477.58712685349866,381.8627278303243 481.6242240818155,365.0242899906766 486.34848964055834,348.1530352583094 491.70441747803864,331.3777052776311 497.6183833398337,314.8397056812912 503.96627026967025,298.74165240038315 510.5999051877819,283.2940933930282 517.3569473550607,268.69777175548984 524.0613129857247,255.14301521623076 530.5436166547915,242.78161883941425 536.7054428897254,231.6465252307837 542.4663592913523,221.73899327503273 547.7450171252664,213.05674356594375 552.4592771156179,205.5939049485736 556.5472470566597,199.31691111042926 560.0334737449665,194.0952421284427 562.972002827094,189.77889960410255 565.4260575931493,186.2235642347631 567.4677621764032,183.29097460982712 569.1684110654812,180.8584127690939 570.5685829473914,178.84508387588937 571.7040207320007,177.18271253567525 572.6146008209108,175.80627709316184 573.3441795198861,174.65417942363752 573.9347877620195,173.67298116303346 574.4088968765755,172.8304843711993 574.7851283504463,172.1007419645971 575.0836674775677,171.45935798964945 575.3261918043278,170.88355166818826 575.5334787694579,170.35378282373392 575.7181584293319,169.85817694366483 575.8912337757887,169.3873070689482 576.0643070830171,168.9325761684206 576.2495427055653,168.48624214124743 576.4569860414135,168.04290653315252 576.6863943856397,167.60356117663764 576.9347959019532,167.17055350177134 577.1990887415334,166.74602466460715 577.476050092979,166.33190436730138 577.7600398789514,165.930932481808 578.0359530571012,165.54941082154528 578.2859189454871,165.19354585673 578.4916219600626,164.86832123487136 578.6343547773726,164.5774784576297 578.7025483978402,164.3209251393023 578.7146055970251,164.08804355562995 578.6970784002821,163.8672520501152 578.6772035288344,163.6488691211025 578.6828186884152,163.42514097548167 578.7337955357906,163.1923810463362 578.8162220533762,162.95614946628018 578.9073350279222,162.7228337932877 578.9839929685484,162.49722179303603 579.0227461555459,162.2824863034475 579.0194504069738,162.07707720813994 579.0483760691191,161.86815757217425 579.2042031225191,161.64568624588026 579.582310530844,161.4062321887542 580.2784876453272,161.15300324135444 581.3502584374672,160.89854904380536 582.7011046278533,160.66745957354544 584.1950759965539,160.47890958401774 585.6954719343726,160.34260013556525 587.0652547625049,160.25873678623043 588.1940632180674,160.2184865099814 589.0783280877787,160.20909090909095 589.7414979249864,160.2189853768973 590.2073665516424,160.23827386211872 590.5,160.25873678623043 590.5,160.25873678623043 590.5,160.25873678623043 590.5,160.25873678623043 590.5,160.25873678623043 590.5,160.25873678623043 590.4613994923392,160.25123360761836 590.4522005798849,160.24857670584095 590.4622430598167,160.25001990974783 590.4814784013423,160.25411883302752 590.5,160.25873678623043 590.5,160.25873678623043 590.5,160.25873678623043 590.5,160.25873678623043 590.5,160.25873678623043 590.5,160.25873678623043 590.4973642568739,160.2577250192386 590.496746963027,160.25742247397977 590.4974390337994,160.2576497205731 590.498747985328,160.25817935338398 590.5,160.25873678623043 590.5,160.25873678623043 590.5,160.25873678623043 590.5,160.25873678623043 590.5,160.25873678623043 590.5,160.25873678623043 590.4998262511874,160.25863238741135 590.4997863767453,160.25860329960574 590.499832477143,160.25862799561492 590.4999184247573,160.25868176303447 590.5,160.25873678623043 590.5,160.25873678623043 590.5,160.25873678623043 590.5,160.25873678623043 590.5,160.25873678623043 590.5,160.25873678623043 590.4999890164933,160.2587272384137 590.499986559779,160.25872468460125 590.49998951146,160.2587270055085 590.4999949181346,160.25873187873003 590.5,160.25873678623043 590.5,160.25873678623043 590.5,160.25873678623043 590.5,160.25873678623043 590.5,160.25873678623043 590.5,160.25873678623043 590.4999993424362,160.25873597420673 590.499999200571,160.25873576300808 590.499999380337,160.25873596391 590.4999997018651,160.25873637588313 590.5,160.25873678623043 590.5,160.25873678623043 590.5,160.25873678623043 590.5,160.25873678623043 590.5,160.25873678623043 590.5,160.25873678623043 590.49999996363,160.25873672061732 590.4999999562324,160.2587367039156 590.4999999664383,160.25873672036175 590.499999984036,160.2587367534993 590.5,160.25873678623043 590.5,160.25873678623043 590.5,160.25873678623043 590.5,160.25873678623043 590.5,160.25873678623043 590.5,160.25873678623043 590.4999999982464,160.2587367811376 590.4999999979315,160.25873677986397 590.499999998448,160.25873678115397 590.4999999992791,160.2587367837167 590.5,160.25873678623043 590.5,160.25873678623043 590.5,160.25873678623043 590.5,160.25873678623043 590.5,160.25873678623043 590.5,160.25873678623043 590.499999999939,160.25873678584492 590.499999999932,160.25873678574715 590.4999999999524,160.2587367858431 590.4999999999795,160.25873678603625 590.5,160.25873678623043 590.5,160.25873678623043 590.5,160.25873678623043 590.5,160.25873678623043 590.5,160.25873678623043 590.5,160.25873678623043" stroke="black" stroke-width="9.0" /><polyline fill="none" points="590.5,1132.3909090909092 607.4660457818204,1132.2428486524393 624.4269235417424,1131.7987124376734 641.3774668320956,1131.058635734805 658.3005508890274,1129.8517870714209 675.1023133202864,1127.2676029717072 691.7504487581157,1123.5924074245302 708.1816238943667,1118.6986499885643 724.3241321450976,1112.4669147758016 740.0976153145074,1104.7809070699755 755.4131761611043,1095.5278345641148 770.1769511192458,1084.616517244047 784.3030614301832,1072.0304548997728 797.7077194076088,1057.7739743657278 810.3064936425968,1041.8544305553257 822.014401724324,1024.2822467053184 832.7519152684254,1005.0915651414614 842.4656586773211,984.4012712390281 851.1157466371486,962.3515297400191 858.67057400153,939.0826348740433 865.1067817474673,914.7346688664999 870.4029178149715,889.4307671619007 874.518217954704,863.2284941766421 877.4074793727243,836.1704008389926 879.0268237430942,808.3005931709996 879.3337417473374,779.6646948400661 878.3108280668548,750.3583832198216 876.0436513329187,720.6697066725163 872.6613374090002,690.9270315488533 868.3141643280638,661.4487563248804 863.173107614068,632.5424130314925 857.4254384331596,604.4972672879542 851.2615535926902,577.5644548470008 844.8846274660656,551.9767119542495 838.5137989507966,527.9543147632476 832.383647354464,505.70438561902085 826.6993576532975,485.35926228713345 821.4948326299524,466.79923324888216 816.7505314850962,449.8462113398158 812.4358325652419,434.3266653542869 808.5092796864344,420.07207907141446 804.8871807931725,406.88297648387504 801.3438485086781,394.42455361471866 797.5983150389425,382.34448973282645 793.3456129285934,370.3115179932173 788.2577196625101,358.0164564487404 782.0812204441025,345.2665708329399 774.9412885463272,332.2530208623499 767.0744831627677,319.2471155457873 758.7346390063883,306.5028773157842 750.1920956357258,294.2563153360949 741.6929380115214,282.6923639198029 733.3338154553788,271.85274378063104 725.173502421647,261.7424999775909 717.2715946085655,252.3636916124084 709.6883930791026,243.71534808732008 702.4770503469556,235.78821093614522 695.659523031958,228.55012954021242 689.2484662908325,221.96362691942306 683.254806125527,215.9914470125958 677.6877640548014,210.5966158333116 672.542460568053,205.73561528255914 667.7617279252698,201.3395262305594 663.2718566611462,197.33784976204504 658.9950339753864,193.6659970109522 654.8496126795918,190.26545397803204 650.7670232145373,187.0913442994978 646.7429800203992,184.13246539346983 642.7894896626514,181.3850619454779 638.9184622254429,178.84484306629872 635.1416916489037,176.50698375372144 631.4714632836929,174.3663429516895 627.9224452863479,172.41802634096314 624.5098336080108,170.6565863915032 621.2487015549065,169.0757850751744 618.1539685999761,167.66859534010962 615.2384938180537,166.4267360432341 612.5073556158483,165.33953516871816 609.963351917447,164.39579994837663 607.6088615539089,163.58436258407357 605.4458481068154,162.89409305703248 603.4705770654398,162.31307437542637 601.6576487832477,161.82684205954422 599.9757147230611,161.42220825774257 598.3928343495072,161.08830710461405 596.8765781407632,160.81661508563434 595.4092747751572,160.6020267202117 594.0336753547946,160.44392886428238 592.8077289151967,160.33932445572736 591.7893124960951,160.28124181956252 591.0360585052737,160.25873678623043 590.5832980328331,160.25728281365878 590.5,160.25873678623043 590.5,160.25873678623043 590.5,160.25873678623043 590.5,160.25873678623043 590.5509382365317,160.25338296183395 590.5631759906295,160.2509797499614 590.5499814385047,160.25171235314326 590.5245571178635,160.2548473208616 590.5,160.25873678623043 590.5,160.25873678623043 590.5,160.25873678623043 590.5,160.25873678623043 590.5,160.25873678623043 590.5,160.25873678623043 590.5035348915862,160.25772317237886 590.5043702126654,160.2574006781341 590.5034464120997,160.25761697905773 590.5016878445196,160.2581556147553 590.5,160.25873678623043 590.5,160.25873678623043 590.5,160.25873678623043 590.5,160.25873678623043 590.5,160.25873678623043 590.5,160.25873678623043 590.5002373009918,160.25862104680334 590.5002923425593,160.2585878302565 590.5002297210076,160.25861464140394 590.500112095076,160.25867465091505 590.5,160.25873678623043 590.5,160.25873678623043 590.5,160.25873678623043 590.5,160.25873678623043 590.5,160.25873678623043 590.5,160.25873678623043 590.5000153356403,160.25872564423548 590.500018813287,160.25872260940162 590.5000147198314,160.25872528583773 590.5000071511316,160.25873099535806 590.5,160.25873678623043 590.5,160.25873678623043 590.5,160.25873678623043 590.5,160.25873678623043 590.5,160.25873678623043 590.5,160.25873678623043 590.5000009454105,160.25873580722907 590.5000011534646,160.25873554929092 590.5000008974008,160.25873578956578 590.500000433431,160.25873628762497 590.5,160.25873678623043 590.5,160.25873678623043 590.5,160.25873678623043 590.5,160.25873678623043 590.5,160.25873678623043 590.5,160.25873678623043 590.5000000546406,160.2587367052223 590.5000000661354,160.25873668439078 590.5000000510257,160.2587367045719 590.5000000244298,160.25873674557226 590.5,160.25873678623043 590.5,160.25873678623043 590.5,160.25873678623043 590.5,160.25873678623043 590.5,160.25873678623043 590.5,160.25873678623043 590.5000000028534,160.25873677982133 590.5000000034065,160.25873677820505 590.5000000025897,160.25873677982042 590.5000000012204,160.25873678305106 590.5,160.25873678623043 590.5,160.25873678623043 590.5,160.25873678623043 590.5,160.25873678623043 590.5,160.25873678623043 590.5,160.25873678623043 590.5000000001219,160.25873678574135 590.5000000001409,160.25873678561982 590.5000000001033,160.25873678574408 590.5000000000467,160.25873678598964 590.5,160.25873678623043 590.5,160.25873678623043 590.5,160.25873678623043 590.5,160.25873678623043 590.5,160.25873678623043 590.5,160.25873678623043 590.5000000000028,160.25873678618962 590.5000000000028,160.2587367861761 590.5000000000016,160.25873678618268 590.5000000000005,160.25873678620314 590.5,160.25873678623043" stroke="black" stroke-dasharray="8.0,8.0" stroke-width="7.0" /><polyline fill="none" points="590.5,1132.3909090909092 573.5339542181792,1132.2428486524393 556.5730764582578,1131.7987124376734 539.6225331679046,1131.058635734805 522.6994491109729,1129.8517870714209 505.8976866797137,1127.2676029717072 489.2495512418844,1123.5924074245302 472.81837610563355,1118.6986499885643 456.6758678549022,1112.4669147758013 440.9023846854928,1104.7809070699755 425.5868238388954,1095.5278345641148 410.8230488807543,1084.616517244047 396.6969385698165,1072.0304548997728 383.29228059239136,1057.7739743657278 370.69350635740324,1041.8544305553257 358.98559827567607,1024.2822467053186 348.2480847315747,1005.0915651414614 338.5343413226786,984.4012712390281 329.88425336285155,962.3515297400193 322.3294259984698,939.0826348740432 315.8932182525329,914.7346688665001 310.5970821850282,889.4307671619007 306.48178204529603,863.2284941766422 303.5925206272758,836.1704008389926 301.9731762569059,808.3005931709997 301.6662582526626,779.6646948400663 302.68917193314496,750.3583832198215 304.9563486670814,720.6697066725163 308.3386625909996,690.9270315488533 312.68583567193616,661.4487563248805 317.8268923859318,632.5424130314924 323.57456156684043,604.4972672879543 329.7384464073098,577.5644548470008 336.11537253393436,551.9767119542496 342.4862010492033,527.9543147632477 348.6163526455358,505.70438561902085 354.3006423467025,485.35926228713356 359.50516737004745,466.79923324888205 364.2494685149039,449.8462113398158 368.56416743475796,434.3266653542869 372.49072031356553,420.07207907141446 376.11281920682734,406.88297648387515 379.6561514913218,394.42455361471866 383.40168496105747,382.34448973282656 387.65438707140646,370.3115179932172 392.7422803374899,358.01645644874066 398.9187795558973,345.2665708329398 406.0587114536727,332.2530208623501 413.92551683723224,319.2471155457872 422.26536099361164,306.5028773157842 430.80790436427424,294.2563153360949 439.30706198847855,282.69236391980303 447.66618454462093,271.85274378063104 455.826497578353,261.7424999775909 463.7284053914344,252.3636916124084 471.3116069208973,243.71534808732008 478.52294965304435,235.78821093614522 485.3404769680419,228.55012954021242 491.75153370916735,221.96362691942306 497.74519387447293,215.9914470125958 503.31223594519855,210.5966158333116 508.4575394319468,205.73561528255914 513.23827207473,201.3395262305594 517.7281433388537,197.33784976204504 522.0049660246136,193.6659970109522 526.1503873204081,190.26545397803204 530.2329767854626,187.0913442994978 534.2570199796007,184.13246539346983 538.2105103373485,181.3850619454779 542.081537774557,178.84484306629872 545.8583083510962,176.50698375372144 549.528536716307,174.3663429516895 553.077554713652,172.41802634096314 556.4901663919891,170.6565863915032 559.7512984450934,169.0757850751744 562.8460314000238,167.66859534010962 565.7615061819462,166.4267360432341 568.4926443841516,165.33953516871816 571.0366480825529,164.39579994837663 573.391138446091,163.58436258407357 575.5541518931844,162.89409305703248 577.5294229345601,162.31307437542637 579.3423512167521,161.82684205954422 581.0242852769388,161.42220825774257 582.6071656504927,161.08830710461405 584.1234218592367,160.81661508563434 585.5907252248427,160.6020267202117 586.9663246452053,160.44392886428238 588.1922710848032,160.33932445572736 589.2106875039048,160.28124181956252 589.9639414947262,160.25873678623043 590.4167019671668,160.25728281365878 590.5,160.25873678623043 590.5,160.25873678623043 590.5,160.25873678623043 590.5,160.25873678623043 590.4490617634682,160.25338296183395 590.4368240093704,160.2509797499614 590.4500185614952,160.25171235314326 590.4754428821363,160.2548473208616 590.5,160.25873678623043 590.5,160.25873678623043 590.5,160.25873678623043 590.5,160.25873678623043 590.5,160.25873678623043 590.5,160.25873678623043 590.4964651084136,160.25772317237886 590.4956297873346,160.2574006781341 590.4965535879002,160.25761697905773 590.4983121554803,160.2581556147553 590.5,160.25873678623043 590.5,160.25873678623043 590.5,160.25873678623043 590.5,160.25873678623043 590.5,160.25873678623043 590.5,160.25873678623043 590.4997626990081,160.25862104680334 590.4997076574406,160.2585878302565 590.4997702789923,160.25861464140394 590.4998879049239,160.25867465091505 590.5,160.25873678623043 590.5,160.25873678623043 590.5,160.25873678623043 590.5,160.25873678623043 590.5,160.25873678623043 590.5,160.25873678623043 590.4999846643595,160.25872564423548 590.4999811867128,160.25872260940162 590.4999852801685,160.25872528583773 590.4999928488683,160.25873099535806 590.5,160.25873678623043 590.5,160.25873678623043 590.5,160.25873678623043 590.5,160.25873678623043 590.5,160.25873678623043 590.5,160.25873678623043 590.4999990545894,160.25873580722907 590.4999988465353,160.25873554929092 590.4999991025991,160.25873578956578 590.4999995665689,160.25873628762497 590.5,160.25873678623043 590.5,160.25873678623043 590.5,160.25873678623043 590.5,160.25873678623043 590.5,160.25873678623043 590.5,160.25873678623043 590.4999999453593,160.2587367052223 590.4999999338645,160.25873668439078 590.4999999489742,160.2587367045719 590.4999999755701,160.25873674557226 590.5,160.25873678623043 590.5,160.25873678623043 590.5,160.25873678623043 590.5,160.25873678623043 590.5,160.25873678623043 590.5,160.25873678623043 590.4999999971465,160.25873677982133 590.4999999965934,160.25873677820505 590.4999999974102,160.25873677982042 590.4999999987795,160.25873678305106 590.5,160.25873678623043 590.5,160.25873678623043 590.5,160.25873678623043 590.5,160.25873678623043 590.5,160.25873678623043 590.5,160.25873678623043 590.499999999878,160.25873678574135 590.499999999859,160.25873678561982 590.4999999998965,160.25873678574408 590.4999999999532,160.25873678598964 590.5,160.25873678623043 590.5,160.25873678623043 590.5,160.25873678623043 590.5,160.25873678623043 590.5,160.25873678623043 590.5,160.25873678623043 590.499999999997,160.25873678618962 590.499999999997,160.2587367861761 590.4999999999983,160.25873678618268 590.4999999999995,160.25873678620314 590.5,160.25873678623043" stroke="black" stroke-dasharray="8.0,8.0" stroke-width="7.0" /></g><rect fill="white" height="111.60000000000001" stroke="none" width="1181" x="0" y="0" /><line stroke="black" stroke-width="3.0" x1="0" x2="1181" y1="111.60000000000001" y2="111.60000000000001" /><text font-family="Arial" font-size="62.0" text-anchor="start" x="40.0" y="77.5">LED</text><text font-family="Arial" font-size="62.0" text-anchor="middle" x="590.5" y="77.5" /><text font-family="Arial" font-size="62.0" text-anchor="end" x="1141.0" y="77.5">cd / klm</text><rect fill="none" height="1178.0" stroke="black" stroke-width="3.0" width="1178.0" x="1.5" y="1.5" /></svg>