<?xml version="1.0" encoding="utf-8" ?>
<svg baseProfile="full" height="1181" version="1.1" width="1181" xmlns="http://www.w3.org/2000/svg" xmlns:ev="http://www.w3.org/2001/xml-events" xmlns:xlink="http://www.w3.org/1999/xlink"><defs><clipPath id="plot_clip"><rect height="1069.4" width="1181.0" x="0" y="111.60000000000001" /></clipPath></defs><g clip-path="url(#plot_clip)" id="grid"><circle cx="590.5" cy="1132.3907523925518" fill="none" r="256.37756165442977" stroke="black" stroke-width="3.0" /><text font-family="Arial" font-size="42.0" text-anchor="start" x="598.5" y="870.0131907381223">800</text><circle cx="590.5" cy="1132.3907523925518" fill="none" r="512.7551233088595" stroke="black" stroke-width="3.0" /><text font-family="Arial" font-size="42.0" text-anchor="start" x="598.5" y="613.6356290836924">1600</text><circle cx="590.5" cy="1132.3907523925518" fill="none" r="769.1326849632893" stroke="black" stroke-width="3.0" /><text font-family="Arial" font-size="42.0" text-anchor="start" x="598.5" y="357.2580674292627">2400</text><circle cx="590.5" cy="1132.3907523925518" fill="none" r="1025.510246617719" stroke="black" stroke-width="3.0" /><text font-family="Arial" font-size="42.0" text-anchor="start" x="598.5" y="100.88050577483283">3200</text><line stroke="black" stroke-width="3.0" x1="-4345.395653288026" x2="5526.395653288026" y1="1132.3907523925516" y2="1132.390752392552" /><line stroke="black" stroke-width="3.0" x1="-3684.1110261766175" x2="4865.111026176617" y1="-1335.5570742514615" y2="3600.338579036565" /><line stroke="black" stroke-width="3.0" x1="-1877.4478266440124" x2="3058.4478266440124" y1="-3142.220273784066" y2="5407.00177856917" /><line stroke="black" stroke-width="3.0" x1="590.5" x2="590.5" y1="-3803.504900895474" y2="6068.286405680577" /><line stroke="black" stroke-width="3.0" x1="3058.4478266440124" x2="-1877.4478266440124" y1="-3142.220273784066" y2="5407.00177856917" /><line stroke="black" stroke-width="3.0" x1="4865.111026176618" x2="-3684.111026176618" y1="-1335.5570742514615" y2="3600.338579036565" /><line stroke="black" stroke-width="3.0" x1="5526.395653288026" x2="-4345.395653288026" y1="1132.3907523925516" y2="1132.390752392552" /></g><g clip-path="url(#plot_clip)" id="curves"><polyline fill="none" points="590.5,1132.3907523925518 590.5,1132.3907523925525 590.5,1132.390752392553 590.5000000000001,1132.390752392553 590.5000000000001,1132.3907523925527 590.5,1132.3907523925518 590.5,1132.3907523925518 590.5,1132.3907523925518 590.5,1132.3907523925518 590.5,1132.3907523925518 590.5,1132.3907523925518 590.500000000001,1132.3907523925568 590.5000000000022,1132.3907523925618 590.5000000000028,1132.3907523925643 590.5000000000025,1132.3907523925618 590.5,1132.3907523925518 590.5,1132.3907523925518 590.5,1132.3907523925518 590.5,1132.3907523925518 590.5,1132.3907523925518 590.5,1132.3907523925518 590.5000000000247,1132.3907523926162 590.5000000000523,1132.3907523926814 590.5000000000688,1132.390752392714 590.5000000000576,1132.3907523926814 590.5,1132.3907523925518 590.5,1132.3907523925518 590.5,1132.3907523925518 590.5,1132.3907523925518 590.5,1132.3907523925518 590.5,1132.3907523925518 590.5000000004935,1132.3907523933733 590.5000000010308,1132.3907523942014 590.500000001336,1132.390752394609 590.5000000011038,1132.3907523941882 590.5,1132.3907523925518 590.5,1132.3907523925518 590.5,1132.3907523925518 590.5,1132.3907523925518 590.5,1132.3907523925518 590.5,1132.3907523925518 590.5000000087557,1132.3907524026242 590.5000000181282,1132.3907524126853 590.5000000233009,1132.390752417539 590.500000019098,1132.3907524123285 590.5,1132.3907523925518 590.5,1132.3907523925518 590.5,1132.3907523925518 590.5,1132.3907523925518 590.5,1132.3907523925518 590.5,1132.3907523925518 590.5000001444586,1132.3907525095321 590.5000002973525,1132.390752624869 590.5000003800435,1132.3907526789353 590.5000003097923,1132.3907526176292 590.5,1132.3907523925518 590.5,1132.3907523925518 590.5,1132.3907523925518 590.5,1132.3907523925518 590.5,1132.3907523925518 590.5,1132.3907523925518 590.5000022644105,1132.3907536477352 590.5000046405487,1132.3907548599755 590.5000059055543,1132.390755401582 590.5000047936705,1132.3907547305812 590.5,1132.3907523925518 590.5,1132.3907523925518 590.5,1132.3907523925518 590.5,1132.3907523925518 590.5,1132.3907523925518 590.5,1132.3907523925518 590.5000340958137,1132.390764132682 590.50006962029,1132.3907750135554 590.5000882818027,1132.3907793830076 590.5000714076466,1132.390772868365 590.5,1132.3907523925518 590.5,1132.3907523925518 590.5,1132.3907523925518 590.5,1132.3907523925518 590.5,1132.3907523925518 590.5,1132.3907523925518 590.5004960734866,1132.3908309628735 590.5010096651653,1132.390894291737 590.5012762057061,1132.3909090909092 590.5010289932532,1132.3908605441009 590.5,1132.3907523925518 590.5,1132.3907523925518 590.5,1132.3907523925518 590.5,1132.3907523925518 590.5,1132.3907523925518 590.5,1132.3907523925518 590.5075466703153,1132.3906206649315 590.5186079294738,1132.390102589336 590.532775345371,1132.3890347094857 590.5496357410714,1132.3872815234204 590.5687724070762,1132.3847355865694 590.5897072229054,1132.3813237834906 590.6117255335791,1132.3770342219698 590.6340567682422,1132.3719119424456 590.6559359995267,1132.3660545565403 590.6766062207303,1132.3596119508761 590.6955219207147,1132.3527467811602 590.7129495547217,1132.3454885673912 590.7293542118799,1132.337801800528 590.7451956275,1132.3296182564416 590.7609267570652,1132.3208372787126 590.776882184513,1132.311357703744 590.7929507348562,1132.3011883647505 590.8089134709982,1132.2903803213928 590.8245555248275,1132.2789989633081 590.839666709933,1132.267123820565 590.8541889359359,1132.2547919984386 590.8686491852834,1132.2418084535645 590.8837043961407,1132.2278795395212 590.8999907122032,1132.212665053622 590.918121448912,1132.1957791588854 590.9385031164568,1132.1768801324683 590.9608001394998,1132.155962994346 590.984502413559,1132.1331378895998 591.0091116447785,1132.1085471996512 591.0341427066387,1132.0823649570884 591.0593822018321,1132.0546416564862 591.0856395623113,1132.0248041787981 591.1139362499904,1131.992057530069 591.1452399537146,1131.9555325483643 591.1804613288807,1131.9142882406095 591.2199952481387,1131.8676452248174 591.2623977637292,1131.8162444699044 591.3058353579581,1131.7611648100483 591.3485569854114,1131.7036044945096 591.3888991421336,1131.6448774502337 591.4267497663695,1131.5851411113726 591.467751079814,1131.5193854064137 591.5186025397268,1131.4408901574786 591.5855371652766,1131.3424613374084 591.6743008969606,1131.2164514955912 591.7856673288802,1131.0594049000463 591.9026735312424,1130.8865691872677 592.0051730357668,1130.7190883820458 592.0745208020579,1130.5794734053522 592.0936319135702,1130.4915358342819 592.0620370317553,1130.461797303635 592.0383292892146,1130.421780691264 592.0905402321512,1130.2800342138967 592.2802903037973,1129.9403930052151 592.6625853599606,1129.3022604213145 593.2391923052439,1128.329732795547 593.8288307688256,1127.2648025211693 594.2235821389171,1126.4317753239222 594.2383358039192,1126.1691168159527 593.7113960730939,1126.8284512307264 592.7280110995518,1128.3713139696856 592.2333502679045,1129.1307946699887 593.2636040743507,1126.9668740031746 596.705772270691,1119.667033665988 603.2945358927487,1104.9527816258444 613.5468947230239,1080.6265793203413 627.5917742403266,1045.0080082958782 645.3898872868265,996.5335139834256 666.7999114034702,933.622687558266 691.5774940320624,854.6826199244014 718.87718993927,759.5563209254686 745.9623336025244,653.9268876132157 770.0539201125684,545.0963426332659 788.8856909026744,440.53762848720737 800.7111287752736,347.87213948682734 804.6575068906402,273.451906982001 801.5796173009286,218.10448250044772 792.676586952603,181.2246939837471 778.8626581774685,163.34888280681355 761.9218570695176,160.20909090909095 742.2982845756133,173.97410322820087 721.627895578448,199.36729443370484 701.1064764967841,231.57329062511315 681.5910674851923,265.717137814249 663.5977950991047,296.87913119325265 647.2237668069495,321.20309446281374 632.0693228964819,339.20082018846995 617.7345862016658,352.4942438662523 603.9346464633343,362.7203719853118 590.5,371.52624379261806" stroke="black" stroke-width="9.0" /><polyline fill="none" points="590.5,1132.3907523925518 590.5,1132.3907523925525 590.5,1132.390752392553 590.5,1132.390752392553 590.5,1132.3907523925527 590.5,1132.3907523925518 590.5,1132.3907523925518 590.5,1132.3907523925518 590.5,1132.3907523925518 590.5,1132.3907523925518 590.5,1132.3907523925518 590.4999999999991,1132.3907523925568 590.499999999998,1132.3907523925618 590.4999999999972,1132.3907523925643 590.4999999999975,1132.3907523925618 590.5,1132.3907523925518 590.5,1132.3907523925518 590.5,1132.3907523925518 590.5,1132.3907523925518 590.5,1132.3907523925518 590.5,1132.3907523925518 590.4999999999754,1132.3907523926162 590.4999999999477,1132.3907523926814 590.4999999999312,1132.390752392714 590.4999999999424,1132.3907523926814 590.5,1132.3907523925518 590.5,1132.3907523925518 590.5,1132.3907523925518 590.5,1132.3907523925518 590.5,1132.3907523925518 590.5,1132.3907523925518 590.4999999995065,1132.3907523933733 590.4999999989692,1132.3907523942014 590.499999998664,1132.390752394609 590.4999999988962,1132.3907523941882 590.5,1132.3907523925518 590.5,1132.3907523925518 590.5,1132.3907523925518 590.5,1132.3907523925518 590.5,1132.3907523925518 590.5,1132.3907523925518 590.4999999912443,1132.3907524026242 590.4999999818718,1132.3907524126853 590.4999999766991,1132.390752417539 590.499999980902,1132.3907524123285 590.5,1132.3907523925518 590.5,1132.3907523925518 590.5,1132.3907523925518 590.5,1132.3907523925518 590.5,1132.3907523925518 590.5,1132.3907523925518 590.4999998555414,1132.3907525095321 590.4999997026476,1132.390752624869 590.4999996199565,1132.3907526789353 590.4999996902078,1132.3907526176292 590.5,1132.3907523925518 590.5,1132.3907523925518 590.5,1132.3907523925518 590.5,1132.3907523925518 590.5,1132.3907523925518 590.5,1132.3907523925518 590.4999977355895,1132.3907536477352 590.4999953594513,1132.3907548599755 590.4999940944457,1132.390755401582 590.4999952063296,1132.3907547305812 590.5,1132.3907523925518 590.5,1132.3907523925518 590.5,1132.3907523925518 590.5,1132.3907523925518 590.5,1132.3907523925518 590.5,1132.3907523925518 590.4999659041863,1132.390764132682 590.4999303797101,1132.3907750135554 590.4999117181974,1132.3907793830076 590.4999285923534,1132.390772868365 590.5,1132.3907523925518 590.5,1132.3907523925518 590.5,1132.3907523925518 590.5,1132.3907523925518 590.5,1132.3907523925518 590.5,1132.3907523925518 590.4995039265134,1132.3908309628735 590.4989903348348,1132.390894291737 590.4987237942939,1132.3909090909092 590.4989710067468,1132.3908605441009 590.5,1132.3907523925518 590.5,1132.3907523925518 590.5,1132.3907523925518 590.5,1132.3907523925518 590.5,1132.3907523925518 590.5,1132.3907523925518 590.4924533296848,1132.3906206649315 590.4813920705263,1132.390102589336 590.4672246546291,1132.3890347094857 590.4503642589287,1132.3872815234204 590.431227592924,1132.3847355865694 590.4102927770946,1132.3813237834906 590.388274466421,1132.3770342219698 590.3659432317578,1132.3719119424456 590.3440640004733,1132.3660545565403 590.3233937792697,1132.3596119508761 590.3044780792854,1132.3527467811602 590.2870504452783,1132.3454885673912 590.2706457881201,1132.337801800528 590.2548043725001,1132.3296182564416 590.2390732429348,1132.3208372787126 590.2231178154871,1132.311357703744 590.207049265144,1132.3011883647505 590.1910865290018,1132.2903803213928 590.1754444751726,1132.2789989633081 590.160333290067,1132.267123820565 590.1458110640641,1132.2547919984386 590.1313508147166,1132.2418084535645 590.1162956038594,1132.2278795395212 590.1000092877969,1132.212665053622 590.0818785510882,1132.1957791588854 590.0614968835432,1132.1768801324683 590.0391998605003,1132.155962994346 590.0154975864411,1132.1331378895998 589.9908883552215,1132.1085471996512 589.9658572933614,1132.0823649570884 589.940617798168,1132.0546416564862 589.9143604376889,1132.0248041787981 589.8860637500097,1131.992057530069 589.8547600462854,1131.9555325483643 589.8195386711194,1131.9142882406095 589.7800047518614,1131.8676452248174 589.7376022362708,1131.8162444699044 589.6941646420419,1131.7611648100483 589.6514430145886,1131.7036044945096 589.6111008578664,1131.6448774502337 589.5732502336305,1131.5851411113726 589.532248920186,1131.5193854064137 589.4813974602732,1131.4408901574786 589.4144628347235,1131.3424613374084 589.3256991030395,1131.2164514955912 589.2143326711198,1131.0594049000463 589.0973264687576,1130.8865691872677 588.9948269642333,1130.7190883820458 588.9254791979421,1130.5794734053522 588.9063680864298,1130.4915358342819 588.9379629682448,1130.461797303635 588.9616707107854,1130.421780691264 588.9094597678488,1130.2800342138967 588.7197096962027,1129.9403930052151 588.3374146400394,1129.3022604213145 587.7608076947562,1128.329732795547 587.1711692311744,1127.2648025211693 586.7764178610829,1126.4317753239222 586.7616641960808,1126.1691168159527 587.2886039269063,1126.8284512307264 588.2719889004482,1128.3713139696856 588.7666497320955,1129.1307946699887 587.7363959256494,1126.9668740031746 584.2942277293091,1119.667033665988 577.7054641072514,1104.9527816258444 567.4531052769762,1080.6265793203413 553.4082257596735,1045.0080082958782 535.6101127131735,996.5335139834256 514.2000885965298,933.6226875582661 489.4225059679377,854.6826199244014 462.12281006073005,759.5563209254686 435.03766639747556,653.9268876132157 410.9460798874315,545.0963426332659 392.1143090973258,440.53762848720737 380.2888712247266,347.87213948682734 376.34249310935974,273.451906982001 379.4203826990712,218.10448250044772 388.3234130473965,181.2246939837471 402.1373418225317,163.34888280681355 419.0781429304823,160.20909090909095 438.70171542438663,173.974103228201 459.37210442155157,199.36729443370507 479.8935235032163,231.57329062511303 499.40893251480793,265.717137814249 517.4022049008952,296.87913119325265 533.7762331930503,321.20309446281374 548.9306771035176,339.20082018846995 563.2654137983343,352.4942438662523 577.0653535366656,362.7203719853118 590.4999999999998,371.52624379261806" stroke="black" stroke-width="9.0" /><polyline fill="none" points="590.5,1132.3907523925518 590.5,1132.3907523925525 590.5,1132.390752392553 590.5000000000001,1132.390752392553 590.5000000000001,1132.3907523925527 590.5,1132.3907523925518 590.5,1132.3907523925518 590.5,1132.3907523925518 590.5,1132.3907523925518 590.5,1132.3907523925518 590.5,1132.3907523925518 590.500000000001,1132.3907523925568 590.5000000000022,1132.3907523925618 590.5000000000028,1132.3907523925643 590.5000000000025,1132.3907523925618 590.5,1132.3907523925518 590.5,1132.3907523925518 590.5,1132.3907523925518 590.5,1132.3907523925518 590.5,1132.3907523925518 590.5,1132.3907523925518 590.5000000000247,1132.3907523926162 590.5000000000523,1132.3907523926814 590.5000000000688,1132.390752392714 590.5000000000576,1132.3907523926814 590.5,1132.3907523925518 590.5,1132.3907523925518 590.5,1132.3907523925518 590.5,1132.3907523925518 590.5,1132.3907523925518 590.5,1132.3907523925518 590.5000000004935,1132.3907523933733 590.5000000010308,1132.3907523942014 590.500000001336,1132.390752394609 590.5000000011038,1132.3907523941882 590.5,1132.3907523925518 590.5,1132.3907523925518 590.5,1132.3907523925518 590.5,1132.3907523925518 590.5,1132.3907523925518 590.5,1132.3907523925518 590.5000000087557,1132.3907524026242 590.5000000181282,1132.3907524126853 590.5000000233009,1132.390752417539 590.500000019098,1132.3907524123285 590.5,1132.3907523925518 590.5,1132.3907523925518 590.5,1132.3907523925518 590.5,1132.3907523925518 590.5,1132.3907523925518 590.5,1132.3907523925518 590.5000001444586,1132.3907525095321 590.5000002973525,1132.390752624869 590.5000003800435,1132.3907526789353 590.5000003097923,1132.3907526176292 590.5,1132.3907523925518 590.5,1132.3907523925518 590.5,1132.3907523925518 590.5,1132.3907523925518 590.5,1132.3907523925518 590.5,1132.3907523925518 590.5000022644105,1132.3907536477352 590.5000046405487,1132.3907548599755 590.5000059055543,1132.390755401582 590.5000047936705,1132.3907547305812 590.5,1132.3907523925518 590.5,1132.3907523925518 590.5,1132.3907523925518 590.5,1132.3907523925518 590.5,1132.3907523925518 590.5,1132.3907523925518 590.5000340958137,1132.390764132682 590.50006962029,1132.3907750135554 590.5000882818027,1132.3907793830076 590.5000714076466,1132.390772868365 590.5,1132.3907523925518 590.5,1132.3907523925518 590.5,1132.3907523925518 590.5,1132.3907523925518 590.5,1132.3907523925518 590.5,1132.3907523925518 590.5004960734866,1132.3908309628735 590.5010096651653,1132.390894291737 590.5012762057061,1132.3909090909092 590.5010289932532,1132.3908605441009 590.5,1132.3907523925518 590.5,1132.3907523925518 590.5,1132.3907523925518 590.5,1132.3907523925518 590.5,1132.3907523925518 590.5,1132.3907523925518 590.5075466703153,1132.3906206649315 590.5186079294738,1132.390102589336 590.532775345371,1132.3890347094857 590.5496357410714,1132.3872815234204 590.5687724070762,1132.3847355865694 590.5897072229054,1132.3813237834906 590.6117255335791,1132.3770342219698 590.6340567682422,1132.3719119424456 590.6559359995267,1132.3660545565403 590.6766062207303,1132.3596119508761 590.6955219207147,1132.3527467811602 590.7129495547217,1132.3454885673912 590.7293542118799,1132.337801800528 590.7451956275,1132.3296182564416 590.7609267570652,1132.3208372787126 590.776882184513,1132.311357703744 590.7929507348562,1132.3011883647505 590.8089134709982,1132.2903803213928 590.8245555248275,1132.2789989633081 590.839666709933,1132.267123820565 590.8541889359359,1132.2547919984386 590.8686491852834,1132.2418084535645 590.8837043961407,1132.2278795395212 590.8999907122032,1132.212665053622 590.918121448912,1132.1957791588854 590.9385031164568,1132.1768801324683 590.9608001394998,1132.155962994346 590.984502413559,1132.1331378895998 591.0091116447785,1132.1085471996512 591.0341427066387,1132.0823649570884 591.0593822018321,1132.0546416564862 591.0856395623113,1132.0248041787981 591.1139362499904,1131.992057530069 591.1452399537146,1131.9555325483643 591.1804613288807,1131.9142882406095 591.2199952481387,1131.8676452248174 591.2623977637292,1131.8162444699044 591.3058353579581,1131.7611648100483 591.3485569854114,1131.7036044945096 591.3888991421336,1131.6448774502337 591.4267497663695,1131.5851411113726 591.467751079814,1131.5193854064137 591.5186025397268,1131.4408901574786 591.5855371652766,1131.3424613374084 591.6743008969606,1131.2164514955912 591.7856673288802,1131.0594049000463 591.9026735312424,1130.8865691872677 592.0051730357668,1130.7190883820458 592.0745208020579,1130.5794734053522 592.0936319135702,1130.4915358342819 592.0620370317553,1130.461797303635 592.0383292892146,1130.421780691264 592.0905402321512,1130.2800342138967 592.2802903037973,1129.9403930052151 592.6625853599606,1129.3022604213145 593.2391923052439,1128.329732795547 593.8288307688256,1127.2648025211693 594.2235821389171,1126.4317753239222 594.2383358039192,1126.1691168159527 593.7113960730939,1126.8284512307264 592.7280110995518,1128.3713139696856 592.2333502679045,1129.1307946699887 593.2636040743507,1126.9668740031746 596.705772270691,1119.667033665988 603.2945358927487,1104.9527816258444 613.5468947230239,1080.6265793203413 627.5917742403266,1045.0080082958782 645.3898872868265,996.5335139834256 666.7999114034702,933.622687558266 691.5774940320624,854.6826199244014 718.87718993927,759.5563209254686 745.9623336025244,653.9268876132157 770.0539201125684,545.0963426332659 788.8856909026744,440.53762848720737 800.7111287752736,347.87213948682734 804.6575068906402,273.451906982001 801.5796173009286,218.10448250044772 792.676586952603,181.2246939837471 778.8626581774685,163.34888280681355 761.9218570695176,160.20909090909095 742.2982845756133,173.97410322820087 721.627895578448,199.36729443370484 701.1064764967841,231.57329062511315 681.5910674851923,265.717137814249 663.5977950991047,296.87913119325265 647.2237668069495,321.20309446281374 632.0693228964819,339.20082018846995 617.7345862016658,352.4942438662523 603.9346464633343,362.7203719853118 590.5,371.52624379261806" stroke="black" stroke-dasharray="8.0,8.0" stroke-width="7.0" /><polyline fill="none" points="590.5,1132.3907523925518 590.5,1132.3907523925525 590.5,1132.390752392553 590.5,1132.390752392553 590.5,1132.3907523925527 590.5,1132.3907523925518 590.5,1132.3907523925518 590.5,1132.3907523925518 590.5,1132.3907523925518 590.5,1132.3907523925518 590.5,1132.3907523925518 590.4999999999991,1132.3907523925568 590.499999999998,1132.3907523925618 590.4999999999972,1132.3907523925643 590.4999999999975,1132.3907523925618 590.5,1132.3907523925518 590.5,1132.3907523925518 590.5,1132.3907523925518 590.5,1132.3907523925518 590.5,1132.3907523925518 590.5,1132.3907523925518 590.4999999999754,1132.3907523926162 590.4999999999477,1132.3907523926814 590.4999999999312,1132.390752392714 590.4999999999424,1132.3907523926814 590.5,1132.3907523925518 590.5,1132.3907523925518 590.5,1132.3907523925518 590.5,1132.3907523925518 590.5,1132.3907523925518 590.5,1132.3907523925518 590.4999999995065,1132.3907523933733 590.4999999989692,1132.3907523942014 590.499999998664,1132.390752394609 590.4999999988962,1132.3907523941882 590.5,1132.3907523925518 590.5,1132.3907523925518 590.5,1132.3907523925518 590.5,1132.3907523925518 590.5,1132.3907523925518 590.5,1132.3907523925518 590.4999999912443,1132.3907524026242 590.4999999818718,1132.3907524126853 590.4999999766991,1132.390752417539 590.499999980902,1132.3907524123285 590.5,1132.3907523925518 590.5,1132.3907523925518 590.5,1132.3907523925518 590.5,1132.3907523925518 590.5,1132.3907523925518 590.5,1132.3907523925518 590.4999998555414,1132.3907525095321 590.4999997026476,1132.390752624869 590.4999996199565,1132.3907526789353 590.4999996902078,1132.3907526176292 590.5,1132.3907523925518 590.5,1132.3907523925518 590.5,1132.3907523925518 590.5,1132.3907523925518 590.5,1132.3907523925518 590.5,1132.3907523925518 590.4999977355895,1132.3907536477352 590.4999953594513,1132.3907548599755 590.4999940944457,1132.390755401582 590.4999952063296,1132.3907547305812 590.5,1132.3907523925518 590.5,1132.3907523925518 590.5,1132.3907523925518 590.5,1132.3907523925518 590.5,1132.3907523925518 590.5,1132.3907523925518 590.4999659041863,1132.390764132682 590.4999303797101,1132.3907750135554 590.4999117181974,1132.3907793830076 590.4999285923534,1132.390772868365 590.5,1132.3907523925518 590.5,1132.3907523925518 590.5,1132.3907523925518 590.5,1132.3907523925518 590.5,1132.3907523925518 590.5,1132.3907523925518 590.4995039265134,1132.3908309628735 590.4989903348348,1132.390894291737 590.4987237942939,1132.3909090909092 590.4989710067468,1132.3908605441009 590.5,1132.3907523925518 590.5,1132.3907523925518 590.5,1132.3907523925518 590.5,1132.3907523925518 590.5,1132.3907523925518 590.5,1132.3907523925518 590.4924533296848,1132.3906206649315 590.4813920705263,1132.390102589336 590.4672246546291,1132.3890347094857 590.4503642589287,1132.3872815234204 590.431227592924,1132.3847355865694 590.4102927770946,1132.3813237834906 590.388274466421,1132.3770342219698 590.3659432317578,1132.3719119424456 590.3440640004733,1132.3660545565403 590.3233937792697,1132.3596119508761 590.3044780792854,1132.3527467811602 590.2870504452783,1132.3454885673912 590.2706457881201,1132.337801800528 590.2548043725001,1132.3296182564416 590.2390732429348,1132.3208372787126 590.2231178154871,1132.311357703744 590.207049265144,1132.3011883647505 590.1910865290018,1132.2903803213928 590.1754444751726,1132.2789989633081 590.160333290067,1132.267123820565 590.1458110640641,1132.2547919984386 590.1313508147166,1132.2418084535645 590.1162956038594,1132.2278795395212 590.1000092877969,1132.212665053622 590.0818785510882,1132.1957791588854 590.0614968835432,1132.1768801324683 590.0391998605003,1132.155962994346 590.0154975864411,1132.1331378895998 589.9908883552215,1132.1085471996512 589.9658572933614,1132.0823649570884 589.940617798168,1132.0546416564862 589.9143604376889,1132.0248041787981 589.8860637500097,1131.992057530069 589.8547600462854,1131.9555325483643 589.8195386711194,1131.9142882406095 589.7800047518614,1131.8676452248174 589.7376022362708,1131.8162444699044 589.6941646420419,1131.7611648100483 589.6514430145886,1131.7036044945096 589.6111008578664,1131.6448774502337 589.5732502336305,1131.5851411113726 589.532248920186,1131.5193854064137 589.4813974602732,1131.4408901574786 589.4144628347235,1131.3424613374084 589.3256991030395,1131.2164514955912 589.2143326711198,1131.0594049000463 589.0973264687576,1130.8865691872677 588.9948269642333,1130.7190883820458 588.9254791979421,1130.5794734053522 588.9063680864298,1130.4915358342819 588.9379629682448,1130.461797303635 588.9616707107854,1130.421780691264 588.9094597678488,1130.2800342138967 588.7197096962027,1129.9403930052151 588.3374146400394,1129.3022604213145 587.7608076947562,1128.329732795547 587.1711692311744,1127.2648025211693 586.7764178610829,1126.4317753239222 586.7616641960808,1126.1691168159527 587.2886039269063,1126.8284512307264 588.2719889004482,1128.3713139696856 588.7666497320955,1129.1307946699887 587.7363959256494,1126.9668740031746 584.2942277293091,1119.667033665988 577.7054641072514,1104.9527816258444 567.4531052769762,1080.6265793203413 553.4082257596735,1045.0080082958782 535.6101127131735,996.5335139834256 514.2000885965298,933.6226875582661 489.4225059679377,854.6826199244014 462.12281006073005,759.5563209254686 435.03766639747556,653.9268876132157 410.9460798874315,545.0963426332659 392.1143090973258,440.53762848720737 380.2888712247266,347.87213948682734 376.34249310935974,273.451906982001 379.4203826990712,218.10448250044772 388.3234130473965,181.2246939837471 402.1373418225317,163.34888280681355 419.0781429304823,160.20909090909095 438.70171542438663,173.974103228201 459.37210442155157,199.36729443370507 479.8935235032163,231.57329062511303 499.40893251480793,265.717137814249 517.4022049008952,296.87913119325265 533.7762331930503,321.20309446281374 548.9306771035176,339.20082018846995 563.2654137983343,352.4942438662523 577.0653535366656,362.7203719853118 590.4999999999998,371.52624379261806" stroke="black" stroke-dasharray="8.0,8.0" stroke-width="7.0" /></g><rect fill="white" height="111.60000000000001" stroke="none" width="1181" x="0" y="0" /><line stroke="black" stroke-width="3.0" x1="0" x2="1181" y1="111.60000000000001" y2="111.60000000000001" /><text font-family="Arial" font-size="62.0" text-anchor="start" x="40.0" y="77.5">LED</text><text font-family="Arial" font-size="62.0" text-anchor="middle" x="590.5" y="77.5" /><text font-family="Arial" font-size="62.0" text-anchor="end" x="1141.0" y="77.5">cd / klm</text><rect fill="none" height="1178.0" stroke="black" stroke-width="3.0" width="1178.0" x="1.5" y="1.5" /></svg>