<?xml version="1.0" encoding="utf-8" ?>
<svg baseProfile="full" height="1181" version="1.1" width="1181" xmlns="http://www.w3.org/2000/svg" xmlns:ev="http://www.w3.org/2001/xml-events" xmlns:xlink="http://www.w3.org/1999/xlink"><defs><clipPath id="plot_clip"><rect height="1069.4" width="1181.0" x="0" y="111.60000000000001" /></clipPath></defs><g clip-path="url(#plot_clip)" id="grid"><circle cx="590.5" cy="390.47163795862593" fill="none" r="222.29441723031502" stroke="black" stroke-width="3.0" /><text font-family="Arial" font-size="42.0" text-anchor="start" x="598.5" y="652.766055188941">250</text><circle cx="590.5" cy="390.47163795862593" fill="none" r="444.58883446063004" stroke="black" stroke-width="3.0" /><text font-family="Arial" font-size="42.0" text-anchor="start" x="598.5000000000001" y="875.0604724192559">500</text><circle cx="590.5" cy="390.47163795862593" fill="none" r="666.883251690945" stroke="black" stroke-width="3.0" /><text font-family="Arial" font-size="42.0" text-anchor="start" x="598.5000000000001" y="1097.3548896495709">750</text><line stroke="black" stroke-width="3.0" x1="-2265.8498847592105" x2="3446.8498847592105" y1="390.4716379586258" y2="390.47163795862605" /><line stroke="black" stroke-width="3.0" x1="-1883.1715622982297" x2="3064.1715622982297" y1="-1037.7033044209797" y2="1818.6465803382316" /><line stroke="black" stroke-width="3.0" x1="-837.6749423796049" x2="2018.674942379605" y1="-2083.199924339604" y2="2864.143200256856" /><line stroke="black" stroke-width="3.0" x1="590.5" x2="590.5" y1="-2465.8782468005843" y2="3246.821522717836" /><line stroke="black" stroke-width="3.0" x1="2018.6749423796048" x2="-837.6749423796048" y1="-2083.199924339604" y2="2864.143200256856" /><line stroke="black" stroke-width="3.0" x1="3064.171562298229" x2="-1883.1715622982292" y1="-1037.7033044209797" y2="1818.6465803382316" /><line stroke="black" stroke-width="3.0" x1="3446.84988475921" x2="-2265.84988475921" y1="390.4716379586258" y2="390.47163795862605" /></g><g clip-path="url(#plot_clip)" id="curves"><polyline fill="none" points="590.5,685.118442109064 595.678525991201,687.1491932984225 600.924567236907,688.992185719478 606.2264266283221,690.5497340631688 611.5656709533913,691.7247677367842 616.9171569649667,692.4211237584524 622.26206587794,692.667508540374 627.6441953401753,692.9868325973738 633.1610856998049,694.0210354710565 638.9550960934407,696.4050743123122 645.2130863965688,700.7649701346602 652.1498794799239,707.6327730211539 659.947770906688,717.1977120023927 668.7843392979588,729.558364962009 678.8454481458846,744.8058769468192 690.3249920082905,763.023579998723 703.349136905484,784.0233479777911 717.7128969498433,806.5662750519743 733.0428103427557,829.1732986932196 748.8644375814035,850.3953602195523 764.6037545645455,868.8177722669842 779.6775977840567,883.2961292309145 793.7942871258185,893.6426553983771 806.7443995575093,899.9115182523211 818.3202230797257,902.1642368347515 828.3159737833704,900.4696395447835 836.4737934699032,894.792651637801 842.3058544923606,884.6684533330341 845.230645573026,869.5503046225725 844.6245516091534,848.9244648484762 839.8231954213489,822.3120799338266 830.4510566072182,789.8172582383469 817.4834415505021,753.7210769924658 802.3933753189737,716.758822676727 786.8379107836663,681.5545611258264 772.6531067889213,650.6132343411076 761.4300218168078,625.7366296530234 753.1730637363535,606.3460848070808 747.4139085151362,591.3122821372848 743.6117802695225,579.548940045479 741.1554940563911,570.0158642443857 739.4784678309193,561.8517607075071 738.4175563248795,554.7507271759891 737.9073403298588,548.546657356326 737.8721625271796,543.0799796643912 738.2264429926876,538.1980809513135 738.8871577810205,533.7674505532837 739.8122521803746,529.7075656620161 740.9672908112207,525.9529951395884 742.3138668750614,522.441419049715 743.8097489710057,519.1137917760782 745.428567852071,515.9303184910023 747.2207621996275,512.9153168403723 749.2587985081867,510.10497356392364 751.6180014466091,507.5307180368168 754.3763499603659,505.21909353516673 757.8169075072889,503.32831708402887 763.0543617802297,502.5297507380575 771.4581696964942,503.5468521795724 784.4508031765679,507.0090376161911 803.5036549091205,513.4493554587808 829.6870974077382,523.0552110424503 862.2949781767154,534.9875913334115 900.1218726037728,548.23186177037 941.9038635053265,561.8627539381237 986.3225319055406,575.0467158564808 1031.455222574306,586.7975519853171 1073.0840258170172,595.3164036229956 1106.3069234004433,598.871162479751 1123.8264687277472,595.1964882356485 1127.3181818181818,585.8574773533464 1106.398194835195,568.1096320866753 1066.4034247382344,545.102034160773 1012.1955802168142,519.3969150664177 948.7775671214971,493.2060771516068 881.2780082242344,468.38537043904 814.5059918159299,446.3226045229977 751.6320428805967,427.67190123083606 695.4392245829621,412.77715872029876 648.7405487066496,401.7924538205749 614.3707386344537,394.6806932293201 594.1166520958636,391.044459376678 590.5,390.47163795862593 590.5,390.47163795862593 590.5,390.47163795862593 593.3389700246082,390.7200156518692 595.6625468191529,390.83263839919846 595.7768811448237,390.7481875809667 594.4670313418819,390.61016974568247 592.5235508404771,390.5069591699321 590.7400779706087,390.47163795862593 590.5,390.47163795862593 590.5,390.47163795862593 590.5,390.47163795862593 590.5,390.47163795862593 590.5,390.47163795862593 590.7355794980457,390.4468775556396 590.7921767452978,390.43576316524855 590.7311544921114,390.4391513133594 590.6135719234438,390.45364993309477 590.5,390.47163795862593 590.5,390.47163795862593 590.5,390.47163795862593 590.5,390.47163795862593 590.5,390.47163795862593 590.5,390.47163795862593 590.5163481903232,390.46695019048525 590.5202113888539,390.46545871693843 590.5159389898005,390.46645906690173 590.5078059546577,390.4689501528892 590.5,390.47163795862593 590.5,390.47163795862593 590.5,390.47163795862593 590.5,390.47163795862593 590.5,390.47163795862593 590.5,390.47163795862593 590.5010974712194,390.47110268614733 590.5013520278296,390.4709490660383 590.5010624152574,390.4710730624132 590.5005184180601,390.47135059480286 590.5,390.47163795862593 590.5,390.47163795862593 590.5,390.47163795862593 590.5,390.47163795862593 590.5,390.47163795862593 590.5,390.47163795862593 590.5000709243725,390.471586429053 590.5000870078161,390.47157239353373 590.5000680763749,390.4715847715328 590.5000330726019,390.471611176961 590.5,390.47163795862593 590.5,390.47163795862593 590.5,390.47163795862593 590.5,390.47163795862593 590.5,390.47163795862593 590.5,390.47163795862593 590.5000043723411,390.4716334309343 590.5000053345511,390.4716322380202 590.5000041503056,390.4716333492446 590.5000020045347,390.4716356526725 590.5,390.47163795862593 590.5,390.47163795862593 590.5,390.47163795862593 590.5,390.47163795862593 590.5,390.47163795862593 590.5,390.47163795862593 590.5000002527024,390.4716375839794 590.5000003058639,390.47163748763694 590.5000002359847,390.47163758097156 590.5000001129835,390.47163777058995 590.5,390.47163795862593 590.5,390.47163795862593 590.5,390.47163795862593 590.5,390.47163795862593 590.5,390.47163795862593 590.5,390.47163795862593 590.5000000131968,390.4716379289855 590.5000000157545,390.4716379215107 590.5000000119772,390.4716379289812 590.5000000056443,390.4716379439218 590.5,390.47163795862593 590.5,390.47163795862593 590.5,390.47163795862593 590.5,390.47163795862593 590.5,390.47163795862593 590.5,390.47163795862593 590.500000000564,390.47163795636413 590.5000000006519,390.4716379558022 590.5000000004782,390.47163795637664 590.5000000002165,390.4716379575128 590.5,390.47163795862593 590.5,390.47163795862593 590.5,390.47163795862593 590.5,390.47163795862593 590.5,390.47163795862593 590.5,390.47163795862593 590.5000000000131,390.47163795843744 590.5000000000131,390.47163795837423 590.5000000000076,390.4716379584056 590.5000000000022,390.47163795849997 590.5,390.47163795862593" stroke="black" stroke-width="9.0" /><polyline fill="none" points="590.5,685.118442109064 585.321474008799,687.1491932984225 580.075432763093,688.992185719478 574.773573371678,690.5497340631688 569.4343290466088,691.7247677367842 564.0828430350332,692.4211237584524 558.7379341220601,692.667508540374 553.3558046598246,692.986832597374 547.8389143001949,694.0210354710563 542.0449039065593,696.4050743123122 535.786913603431,700.7649701346602 528.8501205200762,707.6327730211539 521.0522290933118,717.1977120023927 512.2156607020413,729.558364962009 502.15455185411554,744.8058769468192 490.6750079917095,763.023579998723 477.65086309451607,784.0233479777911 463.2871030501566,806.5662750519742 447.9571896572443,829.1732986932196 432.13556241859624,850.3953602195523 416.39624543545455,868.8177722669842 401.32240221594316,883.2961292309145 387.2057128741815,893.6426553983771 374.2556004424908,899.9115182523211 362.67977692027443,902.1642368347515 352.68402621662966,900.4696395447835 344.5262065300967,894.792651637801 338.69414550763946,884.6684533330341 335.7693544269739,869.5503046225724 336.3754483908467,848.9244648484762 341.17680457865094,822.3120799338266 350.54894339278184,789.8172582383469 363.5165584494978,753.7210769924658 378.6066246810264,716.758822676727 394.16208921633364,681.5545611258264 408.3468932110786,650.6132343411075 419.5699781831922,625.7366296530234 427.8269362636465,606.3460848070807 433.5860914848638,591.3122821372849 437.38821973047743,579.548940045479 439.84450594360885,570.0158642443857 441.5215321690807,561.8517607075072 442.5824436751205,554.7507271759891 443.09265967014113,548.5466573563261 443.12783747282026,543.0799796643912 442.77355700731243,538.1980809513136 442.11284221897944,533.7674505532837 441.1877478196255,529.7075656620162 440.03270918877917,525.9529951395883 438.6861331249385,522.4414190497151 437.1902510289943,519.1137917760782 435.5714321479291,515.9303184910024 433.7792378003724,512.9153168403722 431.74120149181323,510.10497356392364 429.38199855339076,507.5307180368169 426.62365003963396,505.21909353516673 423.18309249271107,503.32831708402887 417.94563821977016,502.5297507380574 409.5418303035058,503.5468521795724 396.54919682343217,507.0090376161911 377.4963450908795,513.4493554587809 351.31290259226176,523.0552110424503 318.7050218232844,534.9875913334114 280.8781273962273,548.2318617703701 239.09613649467343,561.8627539381237 194.6774680944593,575.0467158564808 149.5447774256941,586.7975519853171 107.91597418298268,595.3164036229956 74.69307659955679,598.871162479751 57.17353127225284,595.1964882356488 53.681818181818144,585.8574773533463 74.601805164805,568.1096320866753 114.59657526176545,545.1020341607731 168.8044197831859,519.3969150664179 232.22243287850284,493.2060771516067 299.72199177576545,468.38537043904 366.49400818407,446.3226045229977 429.3679571194032,427.67190123083606 485.56077541703786,412.77715872029876 532.2594512933504,401.7924538205749 566.6292613655462,394.6806932293201 586.8833479041364,391.044459376678 590.5,390.47163795862593 590.5,390.47163795862593 590.5,390.47163795862593 587.6610299753917,390.7200156518692 585.337453180847,390.83263839919846 585.2231188551763,390.7481875809667 586.532968658118,390.61016974568247 588.4764491595229,390.5069591699321 590.2599220293913,390.47163795862593 590.5,390.47163795862593 590.5,390.47163795862593 590.5,390.47163795862593 590.5,390.47163795862593 590.5,390.47163795862593 590.2644205019542,390.4468775556396 590.2078232547021,390.43576316524855 590.2688455078886,390.4391513133594 590.3864280765562,390.45364993309477 590.5,390.47163795862593 590.5,390.47163795862593 590.5,390.47163795862593 590.5,390.47163795862593 590.5,390.47163795862593 590.5,390.47163795862593 590.4836518096768,390.46695019048525 590.479788611146,390.46545871693843 590.4840610101995,390.46645906690173 590.4921940453422,390.4689501528892 590.5,390.47163795862593 590.5,390.47163795862593 590.5,390.47163795862593 590.5,390.47163795862593 590.5,390.47163795862593 590.5,390.47163795862593 590.4989025287806,390.47110268614733 590.4986479721703,390.4709490660383 590.4989375847425,390.4710730624132 590.4994815819399,390.47135059480286 590.5,390.47163795862593 590.5,390.47163795862593 590.5,390.47163795862593 590.5,390.47163795862593 590.5,390.47163795862593 590.5,390.47163795862593 590.4999290756274,390.471586429053 590.4999129921838,390.47157239353373 590.4999319236251,390.4715847715328 590.4999669273981,390.471611176961 590.5,390.47163795862593 590.5,390.47163795862593 590.5,390.47163795862593 590.5,390.47163795862593 590.5,390.47163795862593 590.5,390.47163795862593 590.4999956276589,390.4716334309343 590.4999946654489,390.4716322380202 590.4999958496944,390.4716333492446 590.4999979954653,390.4716356526725 590.5,390.47163795862593 590.5,390.47163795862593 590.5,390.47163795862593 590.5,390.47163795862593 590.5,390.47163795862593 590.5,390.47163795862593 590.4999997472976,390.4716375839794 590.4999996941361,390.47163748763694 590.4999997640152,390.47163758097156 590.4999998870164,390.47163777058995 590.5,390.47163795862593 590.5,390.47163795862593 590.5,390.47163795862593 590.5,390.47163795862593 590.5,390.47163795862593 590.5,390.47163795862593 590.4999999868031,390.4716379289855 590.4999999842454,390.4716379215107 590.4999999880226,390.4716379289812 590.4999999943557,390.4716379439218 590.5,390.47163795862593 590.5,390.47163795862593 590.5,390.47163795862593 590.5,390.47163795862593 590.5,390.47163795862593 590.5,390.47163795862593 590.499999999436,390.47163795636413 590.499999999348,390.4716379558022 590.4999999995218,390.47163795637664 590.4999999997835,390.4716379575128 590.5,390.47163795862593 590.5,390.47163795862593 590.5,390.47163795862593 590.5,390.47163795862593 590.5,390.47163795862593 590.5,390.47163795862593 590.4999999999868,390.47163795843744 590.4999999999868,390.47163795837423 590.4999999999923,390.4716379584056 590.4999999999977,390.47163795849997 590.5,390.47163795862593" stroke="black" stroke-width="9.0" /><polyline fill="none" points="590.5,685.118442109064 595.6422957814801,685.073565973638 600.7830251698507,684.9389512370657 605.9206222491406,684.7146389042999 611.0322566447121,684.0965877318088 616.0964643685722,683.040564457173 621.0927389266004,681.5421057591833 626.0091954020636,679.6708266916745 630.8427217925622,677.5250191199931 635.5969432749399,675.202531867992 640.2821920433181,672.8004786346133 644.9110701497236,670.392327410629 649.4820557518036,667.960393367498 653.9871551448186,665.4647187953427 658.4155317501363,662.8659577930213 662.7535347271515,660.1255005867977 666.9764384761456,657.1766741138468 671.0195714952057,653.8392892229409 674.7962614800473,649.9088541611877 678.2053299970527,645.1864113662144 681.1313305325036,639.479172091808 683.4637711597359,632.650541619551 685.1611579787408,624.7662256009701 686.2062777450565,615.9414988085024 686.5889180840953,606.2908815401739 686.3058046725873,595.9278491039767 685.3709613575442,584.9859344843198 683.849899920567,573.6811322305853 681.8333448093273,562.24467671013 679.4272473025761,550.9006388373052 676.7524568295345,539.865275465021 673.942240741976,529.3428471868491 671.1350316557105,519.5146633675776 668.4795767306902,510.5496560593066 666.136566871462,502.60745979455953 664.2782431383722,495.8378888376276 663.0369701709359,490.31021226765904 662.342020969205,485.80921986055444 662.0555564009707,482.0585736109683 662.0216709795754,478.7935460819392 662.0669323125726,475.761786653081 662.033266876718,472.76124823891155 661.8806632327826,469.74789586176223 661.5995725129417,466.7165948176356 661.1799323156692,463.6628504481672 660.6111943057801,460.5828322644062 659.8868254833405,457.4777164473853 659.0183535095892,454.3660362836313 658.0229868181234,451.26960837273407 656.919241704407,448.20900390807753 655.7268868664379,445.2034946710962 654.4653827678512,442.26978360123894 653.1491443943256,439.4185139868565 651.791708842642,436.6582533947201 650.4071611079353,433.99673823560966 649.0100990813645,431.4408503967944 647.6142334789781,428.99567487312356 646.2281316582544,426.6619098122069 644.8590625246686,424.4389501288142 643.51431535505,422.3258523001838 642.2011871971308,420.3213323043126 640.9158167784547,418.4175815353077 639.6088619436849,416.5832830322447 638.2175528071081,414.7849455014418 636.6768173452343,412.99357661415013 634.9194797345822,411.18478153012245 632.884664162853,409.3425062610969 630.5431058696188,407.4689279630942 627.8735594533513,405.57153613058927 624.8547876051717,403.6592053515319 621.4656199016013,401.74220188841 617.7187021256406,399.8437886983902 613.7632048415481,398.0303114091456 609.7862962995284,396.36805046909444 605.9793146549232,394.9102600106338 602.5371986391064,393.69699561310756 599.6175465042456,392.74489761935945 597.2175818880763,392.022513937864 595.2926273379201,391.49034234694 593.7962494657852,391.1123639487803 592.6804159647759,390.8561041223834 591.8937527103903,390.6923867016119 591.3759592950705,390.5947460091205 591.0636223817115,390.54084208527945 590.8923039955694,390.512870770072 590.7967410166127,390.49759943358265 590.7221585993143,390.48717280122185 590.6579051296515,390.47991341580837 590.6043903272388,390.4752833491807 590.5620052379865,390.472720264081 590.5311212184122,390.47163795862593 590.5116014608554,390.4714354543735 590.5013393690888,390.4715911868268 590.5,390.47163795862593 590.5,390.47163795862593 590.5,390.47163795862593 590.5011540869067,390.4715166592042 590.5014313527238,390.4714622106103 590.501132409123,390.4714788089026 590.5005563806312,390.47154983659107 590.5,390.47163795862593 590.5,390.47163795862593 590.5,390.47163795862593 590.5,390.47163795862593 590.5,390.47163795862593 590.5,390.47163795862593 590.500080088601,390.47161499358924 590.5000990141308,390.47160768696824 590.5000780839571,390.47161258761025 590.5000382408067,390.4716247912603 590.5,390.47163795862593 590.5,390.47163795862593 590.5,390.47163795862593 590.5,390.47163795862593 590.5,390.47163795862593 590.5,390.47163795862593 590.500005376432,390.4716353363649 590.5000066234865,390.4716345837911 590.5000052046954,390.47163519124035 590.5000025396924,390.4716365508515 590.5,390.47163795862593 590.5,390.47163795862593 590.5,390.47163795862593 590.5,390.47163795862593 590.5,390.47163795862593 590.5,390.47163795862593 590.5000003474534,390.47163770618624 590.5000004262449,390.4716376374274 590.5000003335012,390.47163769806616 590.5000001620202,390.4716378274245 590.5,390.47163795862593 590.5,390.47163795862593 590.5,390.47163795862593 590.5,390.47163795862593 590.5,390.47163795862593 590.5,390.47163795862593 590.5000000214197,390.4716379364452 590.5000000261336,390.4716379306011 590.5000000203321,390.471637936045 590.50000000982,390.4716379473293 590.5,390.47163795862593 590.5,390.47163795862593 590.5,390.47163795862593 590.5,390.47163795862593 590.5,390.47163795862593 590.5,390.47163795862593 590.5000000012379,390.4716379567906 590.5000000014984,390.47163795631866 590.500000001156,390.4716379567759 590.5000000005534,390.47163795770473 590.5,390.47163795862593 590.5,390.47163795862593 590.5,390.47163795862593 590.5,390.47163795862593 590.5,390.47163795862593 590.5,390.47163795862593 590.5000000000647,390.47163795848087 590.5000000000771,390.47163795844415 590.5000000000587,390.47163795848076 590.5000000000276,390.47163795855386 590.5,390.47163795862593 590.5,390.47163795862593 590.5,390.47163795862593 590.5,390.47163795862593 590.5,390.47163795862593 590.5,390.47163795862593 590.5000000000027,390.4716379586149 590.5000000000032,390.4716379586122 590.5000000000023,390.4716379586149 590.500000000001,390.4716379586205 590.5,390.47163795862593 590.5,390.47163795862593 590.5,390.47163795862593 590.5,390.47163795862593 590.5,390.47163795862593 590.5,390.47163795862593 590.5000000000001,390.471637958625 590.5000000000001,390.4716379586248 590.5,390.4716379586249 590.5,390.47163795862537 590.5,390.47163795862593" stroke="black" stroke-dasharray="8.0,8.0" stroke-width="7.0" /><polyline fill="none" points="590.5,685.118442109064 585.3577042185199,685.073565973638 580.2169748301493,684.9389512370657 575.0793777508595,684.7146389042999 569.967743355288,684.0965877318088 564.9035356314279,683.040564457173 559.9072610733997,681.5421057591833 554.9908045979364,679.6708266916745 550.1572782074377,677.5250191199931 545.4030567250602,675.202531867992 540.7178079566819,672.8004786346133 536.0889298502764,670.392327410629 531.5179442481964,667.960393367498 527.0128448551815,665.4647187953427 522.5844682498637,662.8659577930213 518.2464652728485,660.1255005867977 514.0235615238544,657.1766741138468 509.98042850479413,653.8392892229409 506.2037385199528,649.9088541611877 502.79467000294716,645.1864113662143 499.8686694674963,639.4791720918081 497.53622884026396,632.650541619551 495.8388420212593,624.7662256009702 494.7937222549436,615.9414988085024 494.4110819159047,606.2908815401739 494.6941953274127,595.9278491039767 495.62903864245584,584.9859344843198 497.15010007943295,573.6811322305853 499.1666551906726,562.24467671013 501.5727526974239,550.9006388373053 504.2475431704654,539.8652754650209 507.05775925802396,529.3428471868492 509.8649683442896,519.5146633675776 512.5204232693098,510.5496560593066 514.8634331285378,502.60745979455953 516.7217568616276,495.8378888376275 517.963029829064,490.31021226765904 518.6579790307949,485.80921986055444 518.9444435990292,482.0585736109683 518.9783290204246,478.7935460819392 518.9330676874273,475.761786653081 518.966733123282,472.76124823891155 519.1193367672174,469.74789586176223 519.4004274870584,466.7165948176356 519.8200676843308,463.6628504481672 520.3888056942197,460.5828322644063 521.1131745166595,457.4777164473853 521.9816464904109,454.3660362836313 522.9770131818766,451.26960837273407 524.0807582955929,448.20900390807753 525.2731131335622,445.2034946710962 526.5346172321488,442.26978360123894 527.8508556056744,439.4185139868564 529.208291157358,436.6582533947201 530.5928388920647,433.99673823560966 531.9899009186354,431.4408503967944 533.3857665210219,428.99567487312356 534.7718683417456,426.6619098122069 536.1409374753315,424.4389501288142 537.4856846449499,422.3258523001838 538.7988128028692,420.3213323043127 540.0841832215453,418.4175815353077 541.3911380563151,416.5832830322447 542.7824471928919,414.7849455014418 544.3231826547656,412.99357661415024 546.0805202654178,411.18478153012245 548.1153358371469,409.3425062610969 550.4568941303812,407.4689279630942 553.1264405466486,405.57153613058927 556.1452123948281,403.6592053515319 559.5343800983986,401.74220188841 563.2812978743593,399.8437886983902 567.2367951584519,398.0303114091456 571.2137037004716,396.36805046909444 575.0206853450768,394.9102600106338 578.4628013608936,393.69699561310756 581.3824534957542,392.74489761935945 583.7824181119237,392.022513937864 585.7073726620798,391.49034234694 587.2037505342148,391.1123639487803 588.3195840352241,390.8561041223834 589.1062472896097,390.6923867016119 589.6240407049295,390.5947460091205 589.9363776182885,390.54084208527945 590.1076960044306,390.512870770072 590.2032589833873,390.49759943358265 590.2778414006856,390.48717280122185 590.3420948703485,390.47991341580837 590.3956096727612,390.4752833491807 590.4379947620134,390.472720264081 590.4688787815877,390.47163795862593 590.4883985391444,390.4714354543735 590.4986606309112,390.4715911868268 590.5,390.47163795862593 590.5,390.47163795862593 590.5,390.47163795862593 590.4988459130933,390.4715166592042 590.4985686472761,390.4714622106103 590.498867590877,390.4714788089026 590.4994436193688,390.47154983659107 590.5,390.47163795862593 590.5,390.47163795862593 590.5,390.47163795862593 590.5,390.47163795862593 590.5,390.47163795862593 590.5,390.47163795862593 590.499919911399,390.47161499358924 590.4999009858692,390.47160768696824 590.4999219160428,390.47161258761025 590.4999617591933,390.4716247912603 590.5,390.47163795862593 590.5,390.47163795862593 590.5,390.47163795862593 590.5,390.47163795862593 590.5,390.47163795862593 590.5,390.47163795862593 590.4999946235679,390.4716353363649 590.4999933765135,390.4716345837911 590.4999947953046,390.47163519124035 590.4999974603074,390.4716365508515 590.5,390.47163795862593 590.5,390.47163795862593 590.5,390.47163795862593 590.5,390.47163795862593 590.5,390.47163795862593 590.5,390.47163795862593 590.4999996525465,390.47163770618624 590.499999573755,390.4716376374274 590.4999996664988,390.47163769806616 590.4999998379797,390.4716378274245 590.5,390.47163795862593 590.5,390.47163795862593 590.5,390.47163795862593 590.5,390.47163795862593 590.5,390.47163795862593 590.5,390.47163795862593 590.4999999785801,390.4716379364452 590.4999999738664,390.4716379306011 590.4999999796679,390.471637936045 590.49999999018,390.4716379473293 590.5,390.47163795862593 590.5,390.47163795862593 590.5,390.47163795862593 590.5,390.47163795862593 590.5,390.47163795862593 590.5,390.47163795862593 590.4999999987621,390.4716379567906 590.4999999985016,390.47163795631866 590.4999999988439,390.4716379567759 590.4999999994466,390.47163795770473 590.5,390.47163795862593 590.5,390.47163795862593 590.5,390.47163795862593 590.5,390.47163795862593 590.5,390.47163795862593 590.5,390.47163795862593 590.4999999999353,390.47163795848087 590.4999999999228,390.47163795844415 590.4999999999413,390.47163795848076 590.4999999999723,390.47163795855386 590.5,390.47163795862593 590.5,390.47163795862593 590.5,390.47163795862593 590.5,390.47163795862593 590.5,390.47163795862593 590.5,390.47163795862593 590.4999999999973,390.4716379586149 590.4999999999967,390.4716379586122 590.4999999999976,390.4716379586149 590.499999999999,390.4716379586205 590.5,390.47163795862593 590.5,390.47163795862593 590.5,390.47163795862593 590.5,390.47163795862593 590.5,390.47163795862593 590.5,390.47163795862593 590.4999999999999,390.471637958625 590.4999999999999,390.4716379586248 590.5,390.4716379586249 590.5,390.47163795862537 590.5,390.47163795862593" stroke="black" stroke-dasharray="8.0,8.0" stroke-width="7.0" /></g><rect fill="white" height="111.60000000000001" stroke="none" width="1181" x="0" y="0" /><line stroke="black" stroke-width="3.0" x1="0" x2="1181" y1="111.60000000000001" y2="111.60000000000001" /><text font-family="Arial" font-size="62.0" text-anchor="start" x="40.0" y="77.5">LED</text><text font-family="Arial" font-size="62.0" text-anchor="middle" x="590.5" y="77.5" /><text font-family="Arial" font-size="62.0" text-anchor="end" x="1141.0" y="77.5">cd / klm</text><rect fill="none" height="1178.0" stroke="black" stroke-width="3.0" width="1178.0" x="1.5" y="1.5" /></svg>