<?xml version="1.0" encoding="utf-8" ?>
<svg baseProfile="full" height="1181" version="1.1" width="1181" xmlns="http://www.w3.org/2000/svg" xmlns:ev="http://www.w3.org/2001/xml-events" xmlns:xlink="http://www.w3.org/1999/xlink"><defs><clipPath id="plot_clip"><rect height="1069.4" width="1181.0" x="0" y="111.60000000000001" /></clipPath></defs><g clip-path="url(#plot_clip)" id="grid"><circle cx="590.5" cy="596.4583090030624" fill="none" r="94.34697372931574" stroke="black" stroke-width="3.0" /><text font-family="Arial" font-size="42.0" text-anchor="start" x="598.5" y="730.805282732378">40</text><circle cx="590.5" cy="596.4583090030624" fill="none" r="188.69394745863147" stroke="black" stroke-width="3.0" /><text font-family="Arial" font-size="42.0" text-anchor="start" x="598.5" y="825.1522564616938">80</text><circle cx="590.5" cy="596.4583090030624" fill="none" r="283.0409211879472" stroke="black" stroke-width="3.0" /><text font-family="Arial" font-size="42.0" text-anchor="start" x="598.5000000000001" y="919.4992301910096">120</text><circle cx="590.5" cy="596.4583090030624" fill="none" r="377.38789491726294" stroke="black" stroke-width="3.0" /><text font-family="Arial" font-size="42.0" text-anchor="start" x="598.5000000000001" y="1013.8462039203253">160</text><circle cx="590.5" cy="596.4583090030624" fill="none" r="471.73486864657866" stroke="black" stroke-width="3.0" /><text font-family="Arial" font-size="42.0" text-anchor="start" x="598.5000000000001" y="1108.193177649641">200</text><circle cx="590.5" cy="596.4583090030624" fill="none" r="566.0818423758944" stroke="black" stroke-width="3.0" /><text font-family="Arial" font-size="42.0" text-anchor="start" x="598.5000000000001" y="1202.5401513789566">240</text><line stroke="black" stroke-width="3.0" x1="-2110.34428186276" x2="3291.34428186276" y1="596.4583090030623" y2="596.4583090030625" /><line stroke="black" stroke-width="3.0" x1="-1748.4997597590886" x2="2929.4997597590886" y1="-753.963831928318" y2="1946.8804499344428" /><line stroke="black" stroke-width="3.0" x1="-759.9221409313797" x2="1940.9221409313795" y1="-1742.5414507560267" y2="2935.4580687621515" /><line stroke="black" stroke-width="3.0" x1="590.5" x2="590.5" y1="-2104.3859728596976" y2="3297.3025908658224" /><line stroke="black" stroke-width="3.0" x1="1940.9221409313798" x2="-759.9221409313798" y1="-1742.5414507560267" y2="2935.4580687621515" /><line stroke="black" stroke-width="3.0" x1="2929.499759759089" x2="-1748.499759759089" y1="-753.963831928318" y2="1946.8804499344428" /><line stroke="black" stroke-width="3.0" x1="3291.3442818627605" x2="-2110.3442818627605" y1="596.4583090030623" y2="596.4583090030625" /></g><g clip-path="url(#plot_clip)" id="curves"><polyline fill="none" points="590.5000000000001,1130.8631549493389 599.8394932604165,1131.517519543056 609.2014495548236,1131.9977552126575 618.5818852778579,1132.2926004389697 627.9760581407396,1132.3909090909092 637.3784708959056,1132.2816832167389 646.7830194528065,1131.95546866116 656.1836187514281,1131.4084547576997 665.5741114748163,1130.6383687258674 674.9481772233277,1129.643115858393 684.2993375415235,1128.4207866944894 693.5690768181439,1126.702742070196 702.8074202555126,1124.8231798549978 712.0115537647254,1122.7826725817522 721.1786736775524,1120.581841808742 730.229424304388,1117.9356198193873 739.0933910681285,1114.6650472733545 747.7845305117818,1110.9128274745729 756.2703425960168,1106.646963362725 764.5158420090296,1101.8370102536035 772.4836169722716,1096.454187345057 780.1343591171452,1090.4727042293546 787.4285008482158,1083.8734525154607 794.3251767029308,1076.6403337531062 800.781863858617,1068.7591081146359 806.7544499457723,1060.2174735027586 812.2034463148846,1051.0177366738394 817.1142401858631,1041.2137974889044 821.481754872461,1030.871808403839 825.3047091348892,1020.0572174450185 828.5855705937921,1008.8346138205371 831.3255528131898,997.259335375775 833.5085605386435,985.353299285616 835.1140202674824,973.1308684707885 836.1215695286211,960.607261011034 836.5110858195305,947.7985508526882 836.2389231821294,934.6889200269995 835.1620206430842,921.1357765446531 833.101558981765,906.9741443787681 829.8660808761678,892.050801647981 825.2519961699243,876.2248438072315 819.1495923272628,859.489576340309 811.8768488155785,842.3222077910938 803.8920832228207,825.2933020181982 795.6913420228727,808.9401637951158 787.8069206599549,793.7652296630171 780.6593060400797,780.0930162710705 774.096443882676,767.6647626848842 767.7986302583125,756.0987127361143 761.4210817282511,745.0377385626342 754.5950481070555,734.1504033477107 747.0599863708909,723.2380862034377 739.0724734884113,712.5358470341085 731.0389022962697,702.3619680254172 723.3870292291184,693.0063871583083 716.5647314087884,684.7297842378783 710.9076250651163,677.674277602253 706.23225217338,671.6157123423044 702.207832356937,666.2611098111373 698.485294689017,661.3424200157785 694.6983951899056,656.6172805150812 690.5564645306747,651.9205129487783 686.1273671748835,647.3042820549032 681.5753289724398,642.8635069355977 677.0706674789728,638.6816447464562 672.7892897484527,634.8304349969014 668.868321915891,631.3501339395107 665.271338600823,628.1968592133928 661.9151006468904,625.3118825850634 658.7129863338793,622.6428211790009 655.5752760259203,620.1437724631543 652.4271061183832,617.7815216507411 649.262584539453,615.5514301214819 646.0933955765411,613.4549157172792 642.9313320661367,611.4927515422148 639.7882691966335,609.665060930628 636.6737916016253,607.9707282467929 633.588048414984,606.4059687997603 630.5286476367049,604.9666607130212 627.4929972905223,603.6490192523248 624.4783221347388,602.4496039546204 621.4689615936993,601.3633106525124 618.397964130889,600.3791121685149 615.1849013284734,599.4892337736104 611.7487598859176,598.6916436612157 608.0081937442337,597.9900774744982 603.9559662634215,597.3992418254828 599.8824053615294,596.9500200323935 596.1535880110367,596.6557366467971 593.1362725538644,596.5043253116585 591.1967924984548,596.4583090030624 591.1966863735823,596.4461482971768 591.2014939013235,596.4338122962344 592.7595157034758,596.3398928027881 595.0275567677409,596.141711392401 597.7595897001028,595.8231772024538 600.7694079736048,595.3789507313653 604.108911599916,594.7873447679002 607.8882093256914,594.0145555504498 612.2155911964239,593.0188972451003 617.1971825910568,591.7508754033587 622.882840216074,590.1637225111045 629.1060543985652,588.2523388204575 635.6480019331913,586.0350714638131 642.2922801550111,583.5450432293189 648.8255443296733,580.8300265018207 655.0850734106399,577.9388372136675 661.098260547956,574.8742546959396 666.9386619399867,571.6218821850721 672.6783878375732,568.1620208549582 678.3878702236383,564.4697402886071 684.1177143941572,560.5218354049281 689.8456981518659,556.3200415258053 695.5321694235163,551.8747981909193 701.1382966437428,547.1989656435929 706.6261699948451,542.3077866222569 711.9653311871975,537.2157086021208 717.151715919093,531.9260365201458 722.187628423362,526.4387549372285 727.0751855954834,520.753447423644 731.8162969617619,514.8693069113081 736.4106338668397,508.78635521512933 740.8497478980572,502.5093594742726 745.1234015558476,496.04469794666704 749.2216380308066,489.3992123441026 753.1347985141615,482.5801971082293 756.8541866561983,475.59491768559235 760.373961190458,468.44909754098785 763.6890880228823,461.14816386297775 766.7946809581929,453.6976912259099 769.6860058520538,446.10339758047417 772.356201542208,438.37312481278605 774.7897143227568,430.52310490435855 776.9696593933605,422.57253851180224 778.880215990784,414.5416490250301 780.5066700860764,406.451638916986 781.8390836323557,398.320887688849 782.8826893986756,390.15313254152557 783.6460899568899,381.94784430661525 784.1374733379404,373.7038772209952 784.3645864720827,365.4194915981669 784.3312095403031,357.0966994939922 784.027239021306,348.75473881631194 783.4402553209011,340.4179422973408 782.5592096614971,332.1114851649952 781.3744604290141,323.86132880338914 779.8796285008128,315.6914635563146 778.0767132851462,307.6155001877722 775.9699824064667,299.6442920573577 773.5640545957388,291.7885589834792 770.8638962962264,284.0588767669142 767.874290768737,276.4666178988617 764.598385924846,269.0268670201252 761.039509397851,261.75567625514566 757.2017330935718,254.6691052433855 753.0898767548045,247.78319309758774 748.7106461387027,241.11137975238887 744.0756838534516,234.65667086390783 739.1975290396902,228.41900974143743 734.0883742926118,222.39780531621875 728.7600471504015,216.59195144460307 723.2229888000571,211.00276121229035 717.4836346284767,205.64286721632243 711.5481306123424,200.52771402707197 705.423438949402,195.6726480750492 699.1173379782873,191.09288508521354 692.6393760306182,186.79964705621103 686.0031982763556,182.78850975205205 679.2227330539826,179.050667682077 672.3110842873917,175.57676678147573 665.280513393451,172.3569429331052 658.1404148899081,169.3935370386571 650.893050296056,166.73942748407887 643.5426734399667,164.460401042046 636.0979954188857,162.62236220581144 628.5721940104715,161.2911401824946 620.9846786993685,160.50709298029983 613.3628527342681,160.20909090909095 605.7306428972354,160.30976133619265 598.1058250701327,160.7208825648927 590.5,161.3536529068906" stroke="black" stroke-width="9.0" /><polyline fill="none" points="590.5000000000001,1130.8631549493389 581.1605067395835,1131.517519543056 571.7985504451765,1131.9977552126575 562.4181147221424,1132.2926004389697 553.0239418592606,1132.3909090909092 543.6215291040945,1132.2816832167389 534.2169805471938,1131.95546866116 524.8163812485722,1131.4084547576997 515.4258885251836,1130.6383687258672 506.05182277667257,1129.6431158583932 496.7006624584765,1128.4207866944894 487.43092318185626,1126.702742070196 478.19257974448726,1124.8231798549978 468.9884462352747,1122.7826725817522 459.8213263224477,1120.581841808742 450.77057569561214,1117.9356198193875 441.90660893187163,1114.6650472733545 433.21546948821816,1110.9128274745729 424.7296574039832,1106.646963362725 416.48415799097035,1101.8370102536035 408.5163830277285,1096.454187345057 400.8656408828547,1090.4727042293546 393.5714991517844,1083.8734525154607 386.6748232970694,1076.6403337531062 380.218136141383,1068.7591081146359 374.2455500542279,1060.2174735027588 368.7965536851154,1051.0177366738394 363.8857598141371,1041.2137974889044 359.5182451275389,1030.871808403839 355.695290865111,1020.0572174450186 352.4144294062078,1008.8346138205371 349.67444718681037,997.2593353757751 347.49143946135655,985.3532992856161 345.8859797325178,973.1308684707885 344.8784304713791,960.6072610110341 344.4889141804695,947.7985508526881 344.7610768178708,934.6889200269997 345.8379793569158,921.1357765446531 347.8984410182351,906.9741443787681 351.13391912383236,892.0508016479808 355.74800383007596,876.2248438072317 361.8504076727372,859.489576340309 369.12315118442166,842.3222077910938 377.10791677717935,825.2933020181982 385.3086579771273,808.9401637951158 393.19307934004524,793.7652296630173 400.3406939599202,780.0930162710705 406.9035561173242,767.6647626848842 413.2013697416875,756.0987127361143 419.578918271749,745.0377385626343 426.4049518929445,734.1504033477107 433.9400136291092,723.2380862034378 441.92752651158867,712.5358470341083 449.96109770373033,702.3619680254172 457.61297077088176,693.0063871583083 464.4352685912117,684.7297842378784 470.0923749348837,677.6742776022529 474.7677478266201,671.6157123423044 478.79216764306307,666.2611098111373 482.5147053109831,661.3424200157785 486.30160481009466,656.6172805150813 490.44353546932535,651.9205129487782 494.8726328251166,647.3042820549032 499.42467102756024,642.8635069355978 503.9293325210271,638.6816447464563 508.2107102515474,634.8304349969014 512.131678084109,631.3501339395107 515.728661399177,628.1968592133928 519.0848993531096,625.3118825850634 522.2870136661207,622.6428211790009 525.4247239740798,620.1437724631543 528.5728938816169,617.7815216507411 531.7374154605471,615.5514301214819 534.906604423459,613.4549157172792 538.0686679338633,611.4927515422148 541.2117308033665,609.665060930628 544.3262083983748,607.9707282467929 547.4119515850161,606.4059687997603 550.4713523632951,604.9666607130212 553.5070027094777,603.6490192523248 556.5216778652612,602.4496039546204 559.5310384063008,601.3633106525124 562.602035869111,600.3791121685149 565.8150986715266,599.4892337736104 569.2512401140825,598.6916436612157 572.9918062557664,597.9900774744982 577.0440337365785,597.3992418254828 581.1175946384706,596.9500200323935 584.8464119889634,596.6557366467971 587.8637274461356,596.5043253116585 589.8032075015452,596.4583090030624 589.8033136264177,596.4461482971768 589.7985060986766,596.4338122962344 588.2404842965243,596.3398928027881 585.9724432322591,596.141711392401 583.2404102998972,595.8231772024538 580.2305920263954,595.3789507313653 576.891088400084,594.7873447679002 573.1117906743087,594.0145555504498 568.7844088035762,593.0188972451003 563.8028174089432,591.7508754033587 558.1171597839261,590.1637225111045 551.8939456014349,588.2523388204575 545.3519980668087,586.0350714638131 538.707719844989,583.5450432293189 532.1744556703267,580.8300265018207 525.9149265893601,577.9388372136675 519.901739452044,574.8742546959396 514.0613380600133,571.6218821850721 508.3216121624268,568.1620208549584 502.6121297763617,564.4697402886071 496.8822856058429,560.5218354049281 491.1543018481341,556.3200415258053 485.46783057648366,551.8747981909193 479.86170335625724,547.198965643593 474.37383000515496,542.3077866222569 469.0346688128024,537.2157086021208 463.8482840809069,531.9260365201458 458.81237157663804,526.4387549372285 453.92481440451667,520.753447423644 449.1837030382382,514.8693069113081 444.58936613316035,508.78635521512933 440.1502521019429,502.5093594742726 435.87659844415225,496.04469794666704 431.77836196919355,489.39921234410247 427.8652014858386,482.5801971082293 424.1458133438017,475.59491768559246 420.6260388095421,468.4490975409881 417.3109119771178,461.14816386297775 414.2053190418072,453.6976912259099 411.31399414794635,446.1033975804743 408.643798457792,438.37312481278616 406.21028567724306,430.52310490435855 404.0303406066396,422.57253851180224 402.11978400921606,414.5416490250301 400.4933299139237,406.451638916986 399.16091636764423,398.3208876888491 398.1173106013247,390.15313254152557 397.3539100431101,381.94784430661525 396.8625266620596,373.7038772209952 396.6354135279172,365.4194915981669 396.6687904596967,357.09669949399233 396.9727609786942,348.75473881631194 397.559744679099,340.4179422973408 398.44079033850295,332.1114851649952 399.6255395709857,323.86132880338914 401.1203714991874,315.6914635563146 402.9232867148539,307.6155001877722 405.0300175935333,299.6442920573577 407.43594540426113,291.7885589834792 410.1361037037735,284.0588767669143 413.12570923126316,276.4666178988616 416.4016140751541,269.0268670201252 419.960490602149,261.75567625514566 423.79826690642807,254.6691052433855 427.9101232451955,247.78319309758763 432.28935386129734,241.11137975238887 436.9243161465485,234.65667086390783 441.80247096030973,228.41900974143743 446.911625707388,222.39780531621886 452.23995284959864,216.59195144460307 457.777011199943,211.00276121229035 463.5163653715233,205.64286721632243 469.45186938765744,200.52771402707208 475.5765610505982,195.6726480750492 481.88266202171275,191.09288508521354 488.36062396938183,186.79964705621103 494.9968017236443,182.78850975205216 501.7772669460173,179.050667682077 508.6889157126084,175.57676678147573 515.719486606549,172.3569429331052 522.8595851100919,169.3935370386571 530.1069497039438,166.739427484079 537.4573265600334,164.46040104204587 544.9020045811143,162.62236220581144 552.4278059895283,161.2911401824946 560.0153213006315,160.50709298029983 567.6371472657316,160.20909090909095 575.2693571027648,160.30976133619265 582.8941749298673,160.7208825648927 590.4999999999999,161.3536529068906" stroke="black" stroke-width="9.0" /><polyline fill="none" points="590.5000000000001,1130.8631549493389 599.8394932604165,1131.517519543056 609.2014495548236,1131.9977552126575 618.5818852778579,1132.2926004389697 627.9760581407396,1132.3909090909092 637.3784708959056,1132.2816832167389 646.7830194528065,1131.95546866116 656.1836187514281,1131.4084547576997 665.5741114748163,1130.6383687258674 674.9481772233277,1129.643115858393 684.2993375415235,1128.4207866944894 693.5690768181439,1126.702742070196 702.8074202555126,1124.8231798549978 712.0115537647254,1122.7826725817522 721.1786736775524,1120.581841808742 730.229424304388,1117.9356198193873 739.0933910681285,1114.6650472733545 747.7845305117818,1110.9128274745729 756.2703425960168,1106.646963362725 764.5158420090296,1101.8370102536035 772.4836169722716,1096.454187345057 780.1343591171452,1090.4727042293546 787.4285008482158,1083.8734525154607 794.3251767029308,1076.6403337531062 800.781863858617,1068.7591081146359 806.7544499457723,1060.2174735027586 812.2034463148846,1051.0177366738394 817.1142401858631,1041.2137974889044 821.481754872461,1030.871808403839 825.3047091348892,1020.0572174450185 828.5855705937921,1008.8346138205371 831.3255528131898,997.259335375775 833.5085605386435,985.353299285616 835.1140202674824,973.1308684707885 836.1215695286211,960.607261011034 836.5110858195305,947.7985508526882 836.2389231821294,934.6889200269995 835.1620206430842,921.1357765446531 833.101558981765,906.9741443787681 829.8660808761678,892.050801647981 825.2519961699243,876.2248438072315 819.1495923272628,859.489576340309 811.8768488155785,842.3222077910938 803.8920832228207,825.2933020181982 795.6913420228727,808.9401637951158 787.8069206599549,793.7652296630171 780.6593060400797,780.0930162710705 774.096443882676,767.6647626848842 767.7986302583125,756.0987127361143 761.4210817282511,745.0377385626342 754.5950481070555,734.1504033477107 747.0599863708909,723.2380862034377 739.0724734884113,712.5358470341085 731.0389022962697,702.3619680254172 723.3870292291184,693.0063871583083 716.5647314087884,684.7297842378783 710.9076250651163,677.674277602253 706.23225217338,671.6157123423044 702.207832356937,666.2611098111373 698.485294689017,661.3424200157785 694.6983951899056,656.6172805150812 690.5564645306747,651.9205129487783 686.1273671748835,647.3042820549032 681.5753289724398,642.8635069355977 677.0706674789728,638.6816447464562 672.7892897484527,634.8304349969014 668.868321915891,631.3501339395107 665.271338600823,628.1968592133928 661.9151006468904,625.3118825850634 658.7129863338793,622.6428211790009 655.5752760259203,620.1437724631543 652.4271061183832,617.7815216507411 649.262584539453,615.5514301214819 646.0933955765411,613.4549157172792 642.9313320661367,611.4927515422148 639.7882691966335,609.665060930628 636.6737916016253,607.9707282467929 633.588048414984,606.4059687997603 630.5286476367049,604.9666607130212 627.4929972905223,603.6490192523248 624.4783221347388,602.4496039546204 621.4689615936993,601.3633106525124 618.397964130889,600.3791121685149 615.1849013284734,599.4892337736104 611.7487598859176,598.6916436612157 608.0081937442337,597.9900774744982 603.9559662634215,597.3992418254828 599.8824053615294,596.9500200323935 596.1535880110367,596.6557366467971 593.1362725538644,596.5043253116585 591.1967924984548,596.4583090030624 591.1966863735823,596.4461482971768 591.2014939013235,596.4338122962344 592.7595157034758,596.3398928027881 595.0275567677409,596.141711392401 597.7595897001028,595.8231772024538 600.7694079736048,595.3789507313653 604.108911599916,594.7873447679002 607.8882093256914,594.0145555504498 612.2155911964239,593.0188972451003 617.1971825910568,591.7508754033587 622.882840216074,590.1637225111045 629.1060543985652,588.2523388204575 635.6480019331913,586.0350714638131 642.2922801550111,583.5450432293189 648.8255443296733,580.8300265018207 655.0850734106399,577.9388372136675 661.098260547956,574.8742546959396 666.9386619399867,571.6218821850721 672.6783878375732,568.1620208549582 678.3878702236383,564.4697402886071 684.1177143941572,560.5218354049281 689.8456981518659,556.3200415258053 695.5321694235163,551.8747981909193 701.1382966437428,547.1989656435929 706.6261699948451,542.3077866222569 711.9653311871975,537.2157086021208 717.151715919093,531.9260365201458 722.187628423362,526.4387549372285 727.0751855954834,520.753447423644 731.8162969617619,514.8693069113081 736.4106338668397,508.78635521512933 740.8497478980572,502.5093594742726 745.1234015558476,496.04469794666704 749.2216380308066,489.3992123441026 753.1347985141615,482.5801971082293 756.8541866561983,475.59491768559235 760.373961190458,468.44909754098785 763.6890880228823,461.14816386297775 766.7946809581929,453.6976912259099 769.6860058520538,446.10339758047417 772.356201542208,438.37312481278605 774.7897143227568,430.52310490435855 776.9696593933605,422.57253851180224 778.880215990784,414.5416490250301 780.5066700860764,406.451638916986 781.8390836323557,398.320887688849 782.8826893986756,390.15313254152557 783.6460899568899,381.94784430661525 784.1374733379404,373.7038772209952 784.3645864720827,365.4194915981669 784.3312095403031,357.0966994939922 784.027239021306,348.75473881631194 783.4402553209011,340.4179422973408 782.5592096614971,332.1114851649952 781.3744604290141,323.86132880338914 779.8796285008128,315.6914635563146 778.0767132851462,307.6155001877722 775.9699824064667,299.6442920573577 773.5640545957388,291.7885589834792 770.8638962962264,284.0588767669142 767.874290768737,276.4666178988617 764.598385924846,269.0268670201252 761.039509397851,261.75567625514566 757.2017330935718,254.6691052433855 753.0898767548045,247.78319309758774 748.7106461387027,241.11137975238887 744.0756838534516,234.65667086390783 739.1975290396902,228.41900974143743 734.0883742926118,222.39780531621875 728.7600471504015,216.59195144460307 723.2229888000571,211.00276121229035 717.4836346284767,205.64286721632243 711.5481306123424,200.52771402707197 705.423438949402,195.6726480750492 699.1173379782873,191.09288508521354 692.6393760306182,186.79964705621103 686.0031982763556,182.78850975205205 679.2227330539826,179.050667682077 672.3110842873917,175.57676678147573 665.280513393451,172.3569429331052 658.1404148899081,169.3935370386571 650.893050296056,166.73942748407887 643.5426734399667,164.460401042046 636.0979954188857,162.62236220581144 628.5721940104715,161.2911401824946 620.9846786993685,160.50709298029983 613.3628527342681,160.20909090909095 605.7306428972354,160.30976133619265 598.1058250701327,160.7208825648927 590.5,161.3536529068906" stroke="black" stroke-dasharray="8.0,8.0" stroke-width="7.0" /><polyline fill="none" points="590.5000000000001,1130.8631549493389 581.1605067395835,1131.517519543056 571.7985504451765,1131.9977552126575 562.4181147221424,1132.2926004389697 553.0239418592606,1132.3909090909092 543.6215291040945,1132.2816832167389 534.2169805471938,1131.95546866116 524.8163812485722,1131.4084547576997 515.4258885251836,1130.6383687258672 506.05182277667257,1129.6431158583932 496.7006624584765,1128.4207866944894 487.43092318185626,1126.702742070196 478.19257974448726,1124.8231798549978 468.9884462352747,1122.7826725817522 459.8213263224477,1120.581841808742 450.77057569561214,1117.9356198193875 441.90660893187163,1114.6650472733545 433.21546948821816,1110.9128274745729 424.7296574039832,1106.646963362725 416.48415799097035,1101.8370102536035 408.5163830277285,1096.454187345057 400.8656408828547,1090.4727042293546 393.5714991517844,1083.8734525154607 386.6748232970694,1076.6403337531062 380.218136141383,1068.7591081146359 374.2455500542279,1060.2174735027588 368.7965536851154,1051.0177366738394 363.8857598141371,1041.2137974889044 359.5182451275389,1030.871808403839 355.695290865111,1020.0572174450186 352.4144294062078,1008.8346138205371 349.67444718681037,997.2593353757751 347.49143946135655,985.3532992856161 345.8859797325178,973.1308684707885 344.8784304713791,960.6072610110341 344.4889141804695,947.7985508526881 344.7610768178708,934.6889200269997 345.8379793569158,921.1357765446531 347.8984410182351,906.9741443787681 351.13391912383236,892.0508016479808 355.74800383007596,876.2248438072317 361.8504076727372,859.489576340309 369.12315118442166,842.3222077910938 377.10791677717935,825.2933020181982 385.3086579771273,808.9401637951158 393.19307934004524,793.7652296630173 400.3406939599202,780.0930162710705 406.9035561173242,767.6647626848842 413.2013697416875,756.0987127361143 419.578918271749,745.0377385626343 426.4049518929445,734.1504033477107 433.9400136291092,723.2380862034378 441.92752651158867,712.5358470341083 449.96109770373033,702.3619680254172 457.61297077088176,693.0063871583083 464.4352685912117,684.7297842378784 470.0923749348837,677.6742776022529 474.7677478266201,671.6157123423044 478.79216764306307,666.2611098111373 482.5147053109831,661.3424200157785 486.30160481009466,656.6172805150813 490.44353546932535,651.9205129487782 494.8726328251166,647.3042820549032 499.42467102756024,642.8635069355978 503.9293325210271,638.6816447464563 508.2107102515474,634.8304349969014 512.131678084109,631.3501339395107 515.728661399177,628.1968592133928 519.0848993531096,625.3118825850634 522.2870136661207,622.6428211790009 525.4247239740798,620.1437724631543 528.5728938816169,617.7815216507411 531.7374154605471,615.5514301214819 534.906604423459,613.4549157172792 538.0686679338633,611.4927515422148 541.2117308033665,609.665060930628 544.3262083983748,607.9707282467929 547.4119515850161,606.4059687997603 550.4713523632951,604.9666607130212 553.5070027094777,603.6490192523248 556.5216778652612,602.4496039546204 559.5310384063008,601.3633106525124 562.602035869111,600.3791121685149 565.8150986715266,599.4892337736104 569.2512401140825,598.6916436612157 572.9918062557664,597.9900774744982 577.0440337365785,597.3992418254828 581.1175946384706,596.9500200323935 584.8464119889634,596.6557366467971 587.8637274461356,596.5043253116585 589.8032075015452,596.4583090030624 589.8033136264177,596.4461482971768 589.7985060986766,596.4338122962344 588.2404842965243,596.3398928027881 585.9724432322591,596.141711392401 583.2404102998972,595.8231772024538 580.2305920263954,595.3789507313653 576.891088400084,594.7873447679002 573.1117906743087,594.0145555504498 568.7844088035762,593.0188972451003 563.8028174089432,591.7508754033587 558.1171597839261,590.1637225111045 551.8939456014349,588.2523388204575 545.3519980668087,586.0350714638131 538.707719844989,583.5450432293189 532.1744556703267,580.8300265018207 525.9149265893601,577.9388372136675 519.901739452044,574.8742546959396 514.0613380600133,571.6218821850721 508.3216121624268,568.1620208549584 502.6121297763617,564.4697402886071 496.8822856058429,560.5218354049281 491.1543018481341,556.3200415258053 485.46783057648366,551.8747981909193 479.86170335625724,547.198965643593 474.37383000515496,542.3077866222569 469.0346688128024,537.2157086021208 463.8482840809069,531.9260365201458 458.81237157663804,526.4387549372285 453.92481440451667,520.753447423644 449.1837030382382,514.8693069113081 444.58936613316035,508.78635521512933 440.1502521019429,502.5093594742726 435.87659844415225,496.04469794666704 431.77836196919355,489.39921234410247 427.8652014858386,482.5801971082293 424.1458133438017,475.59491768559246 420.6260388095421,468.4490975409881 417.3109119771178,461.14816386297775 414.2053190418072,453.6976912259099 411.31399414794635,446.1033975804743 408.643798457792,438.37312481278616 406.21028567724306,430.52310490435855 404.0303406066396,422.57253851180224 402.11978400921606,414.5416490250301 400.4933299139237,406.451638916986 399.16091636764423,398.3208876888491 398.1173106013247,390.15313254152557 397.3539100431101,381.94784430661525 396.8625266620596,373.7038772209952 396.6354135279172,365.4194915981669 396.6687904596967,357.09669949399233 396.9727609786942,348.75473881631194 397.559744679099,340.4179422973408 398.44079033850295,332.1114851649952 399.6255395709857,323.86132880338914 401.1203714991874,315.6914635563146 402.9232867148539,307.6155001877722 405.0300175935333,299.6442920573577 407.43594540426113,291.7885589834792 410.1361037037735,284.0588767669143 413.12570923126316,276.4666178988616 416.4016140751541,269.0268670201252 419.960490602149,261.75567625514566 423.79826690642807,254.6691052433855 427.9101232451955,247.78319309758763 432.28935386129734,241.11137975238887 436.9243161465485,234.65667086390783 441.80247096030973,228.41900974143743 446.911625707388,222.39780531621886 452.23995284959864,216.59195144460307 457.777011199943,211.00276121229035 463.5163653715233,205.64286721632243 469.45186938765744,200.52771402707208 475.5765610505982,195.6726480750492 481.88266202171275,191.09288508521354 488.36062396938183,186.79964705621103 494.9968017236443,182.78850975205216 501.7772669460173,179.050667682077 508.6889157126084,175.57676678147573 515.719486606549,172.3569429331052 522.8595851100919,169.3935370386571 530.1069497039438,166.739427484079 537.4573265600334,164.46040104204587 544.9020045811143,162.62236220581144 552.4278059895283,161.2911401824946 560.0153213006315,160.50709298029983 567.6371472657316,160.20909090909095 575.2693571027648,160.30976133619265 582.8941749298673,160.7208825648927 590.4999999999999,161.3536529068906" stroke="black" stroke-dasharray="8.0,8.0" stroke-width="7.0" /></g><rect fill="white" height="111.60000000000001" stroke="none" width="1181" x="0" y="0" /><line stroke="black" stroke-width="3.0" x1="0" x2="1181" y1="111.60000000000001" y2="111.60000000000001" /><text font-family="Arial" font-size="62.0" text-anchor="start" x="40.0" y="77.5">LED</text><text font-family="Arial" font-size="62.0" text-anchor="middle" x="590.5" y="77.5" /><text font-family="Arial" font-size="62.0" text-anchor="end" x="1141.0" y="77.5">cd / klm</text><rect fill="none" height="1178.0" stroke="black" stroke-width="3.0" width="1178.0" x="1.5" y="1.5" /></svg>