<?xml version="1.0" encoding="utf-8" ?>
<svg baseProfile="full" height="1181" version="1.1" width="1181" xmlns="http://www.w3.org/2000/svg" xmlns:ev="http://www.w3.org/2001/xml-events" xmlns:xlink="http://www.w3.org/1999/xlink"><defs><clipPath id="plot_clip"><rect height="1069.4" width="1181.0" x="0" y="111.60000000000001" /></clipPath></defs><g clip-path="url(#plot_clip)" id="grid"><circle cx="590.5000000000001" cy="439.373350169114" fill="none" r="116.39090750948596" stroke="black" stroke-width="3.0" /><text font-family="Arial" font-size="42.0" text-anchor="start" x="598.5000000000001" y="595.7642576786">100</text><circle cx="590.5000000000001" cy="439.373350169114" fill="none" r="232.7818150189719" stroke="black" stroke-width="3.0" /><text font-family="Arial" font-size="42.0" text-anchor="start" x="598.5000000000001" y="712.1551651880859">200</text><circle cx="590.5000000000001" cy="439.373350169114" fill="none" r="349.1727225284579" stroke="black" stroke-width="3.0" /><text font-family="Arial" font-size="42.0" text-anchor="start" x="598.5000000000001" y="828.5460726975718">300</text><circle cx="590.5000000000001" cy="439.373350169114" fill="none" r="465.5636300379438" stroke="black" stroke-width="3.0" /><text font-family="Arial" font-size="42.0" text-anchor="start" x="598.5000000000001" y="944.9369802070578">400</text><circle cx="590.5000000000001" cy="439.373350169114" fill="none" r="581.9545375474297" stroke="black" stroke-width="3.0" /><text font-family="Arial" font-size="42.0" text-anchor="start" x="598.5000000000001" y="1061.3278877165437">500</text><circle cx="590.5000000000001" cy="439.373350169114" fill="none" r="698.3454450569158" stroke="black" stroke-width="3.0" /><text font-family="Arial" font-size="42.0" text-anchor="start" x="598.5000000000001" y="1177.7187952260297">600</text><line stroke="black" stroke-width="3.0" x1="-2377.875509668175" x2="3558.8755096681753" y1="439.3733501691139" y2="439.37335016911413" /><line stroke="black" stroke-width="3.0" x1="-1980.1885993442197" x2="3161.18859934422" y1="-1044.8144046649736" y2="1923.5611050032016" /><line stroke="black" stroke-width="3.0" x1="-893.6877548340872" x2="2074.687754834087" y1="-2131.315249175106" y2="3010.061949513334" /><line stroke="black" stroke-width="3.0" x1="590.5000000000001" x2="590.5000000000001" y1="-2529.0021594990612" y2="3407.7488598372893" /><line stroke="black" stroke-width="3.0" x1="2074.687754834087" x2="-893.687754834087" y1="-2131.315249175106" y2="3010.061949513334" /><line stroke="black" stroke-width="3.0" x1="3161.1885993442197" x2="-1980.1885993442195" y1="-1044.8144046649736" y2="1923.5611050032016" /><line stroke="black" stroke-width="3.0" x1="3558.875509668175" x2="-2377.8755096681743" y1="439.3733501691139" y2="439.37335016911413" /></g><g clip-path="url(#plot_clip)" id="curves"><polyline fill="none" points="590.5000000000001,643.0108819477107 594.0633420531831,643.5170796732363 597.645155993127,643.9838469342398 601.2467592329938,644.4337320439728 604.8710655334075,644.8891621157089 608.5225792120759,645.3723731937996 612.207162729888,645.9032076483844 615.9310559496638,646.4926798523801 619.7010170694602,647.1493828879751 623.5244621822612,647.8815982936943 627.4094541822743,648.6972666450587 631.3648262589644,649.6046562115972 635.4006728653236,650.6144076671574 639.5280976412901,651.7373722644094 643.7590841185748,652.9838692894754 648.1064761839647,654.3636461326762 652.582455672114,655.880602789157 657.1932864085563,657.5172606538532 661.9425317601955,659.2508540215873 666.8323781060342,661.0586729835221 671.8636424671122,662.9181206120834 677.0373294238387,664.8108007389613 682.3598455633559,666.7344462798269 687.8393391790543,668.6904626618095 693.4842790439504,670.6798280358395 699.3034382609976,672.7030764950576 705.3142050189225,674.7773557872835 711.5699215121665,676.9864500295757 718.138966407967,679.4273323020287 725.0968466923149,682.1924893109964 732.5260048884504,685.3696066319355 740.4963876608344,689.009260579735 749.0031040140982,693.0313404830604 758.0162678715841,697.3257819335444 767.4992331896094,701.7855047527136 777.4087396977862,706.3066942111882 787.6895258319989,710.7814484305608 798.2568080033716,715.0759463863739 809.0112761917161,719.0550296705316 819.8446557091232,722.5904133708206 830.64000973289,725.5610694938939 841.2959099960055,727.8810416887624 851.8021326137809,729.5787688015363 862.1748884449204,730.7089998368928 872.4338405322807,731.3243885236869 882.6019992478944,731.4753494170081 892.7319856312239,731.2353860808397 902.9885598308792,730.7736464568401 913.5753287450892,730.2716827840464 924.7086562822276,729.8965027386361 936.6170219430587,729.8000156257131 949.5132610143227,730.0965566437839 963.5095570026566,730.8003556049274 978.6929643992524,731.8977307135804 995.1515205899399,733.3698888997423 1012.9740378433921,735.1928561649513 1032.0887291534755,737.2287089247565 1051.7645237825454,738.9220343861326 1071.0694651042631,739.666480376227 1089.0307766910425,738.9208612559843 1104.6377198688442,736.2109011359313 1109.739943789147,727.192750887265 1114.6840021925811,718.0869280609708 1119.4683890710633,708.8962063788913 1124.0916470540021,699.6233854238841 1127.318181818182,689.6957793877745 1118.8454967331477,674.6079210682989 1105.183530179222,657.8435470480499 1085.7901653589042,639.4835663723428 1060.1199931434912,619.6435756704788 1027.625781119143,598.474123126845 988.1956699690969,576.3109510252075 943.4822279697423,554.0642284566571 895.6289235336715,532.6606238938108 846.8333604432521,512.8757584922658 799.34064936564,495.3320335134284 755.1680805329635,480.42971382041776 715.2834535367064,468.18188036953404 680.3905643620087,458.4801794564804 651.1934091248627,451.1709537974268 628.3942540723621,446.05512957589303 612.3560753285893,442.8350124277234 602.0867327519384,441.001759261545 596.2343987407874,440.0774458005437 593.4253476199182,439.68081659359177 592.2682070757473,439.52804824300824 591.5869644478547,439.44935812764834 591.1134099896037,439.40549762445914 590.8067828550701,439.3840632624799 590.6258629141989,439.3755471144534 590.5290977268775,439.373350169114 590.5000000000001,439.373350169114 590.5000000000001,439.373350169114 590.5000000000001,439.373350169114 590.5000000000001,439.373350169114 590.5000000000001,439.373350169114 590.5093056447615,439.37237210643764 590.5115412971921,439.37193307600603 590.5091308522451,439.372066911518 590.5044862137123,439.37263962266604 590.5000000000001,439.373350169114 590.5000000000001,439.373350169114 590.5000000000001,439.373350169114 590.5000000000001,439.373350169114 590.5000000000001,439.373350169114 590.5000000000001,439.373350169114 590.5006457711852,439.37316499720646 590.5007983717021,439.3731060823894 590.5006296073224,439.3731455972942 590.5003083436449,439.3732439978827 590.5000000000001,439.373350169114 590.5000000000001,439.373350169114 590.5000000000001,439.373350169114 590.5000000000001,439.373350169114 590.5000000000001,439.373350169114 590.5000000000001,439.373350169114 590.5000433512993,439.3733290252726 590.5000534065605,439.37332295711235 590.500041966551,439.37332785510307 590.5000204780737,439.37333881793234 590.5000000000001,439.373350169114 590.5000000000001,439.373350169114 590.5000000000001,439.373350169114 590.5000000000001,439.373350169114 590.5000000000001,439.373350169114 590.5000000000001,439.373350169114 590.5000028015894,439.3733481336402 590.5000034369028,439.373347579222 590.5000026890905,439.37334806816625 590.5000013064036,439.3733491112092 590.5000000000001,439.373350169114 590.5000000000001,439.373350169114 590.5000000000001,439.373350169114 590.5000000000001,439.373350169114 590.5000000000001,439.373350169114 590.5000000000001,439.373350169114 590.5000001727122,439.3733499902653 590.5000002107206,439.3733499431439 590.5000001639416,439.3733499870385 590.5000000791814,439.3733500780264 590.5000000000001,439.373350169114 590.5000000000001,439.373350169114 590.5000000000001,439.373350169114 590.5000000000001,439.373350169114 590.5000000000001,439.373350169114 590.5000000000001,439.373350169114 590.5000000099822,439.37335015431506 590.5000000120821,439.3733501505094 590.5000000093218,439.37335015419626 590.5000000044631,439.3733501616864 590.5000000000001,439.373350169114 590.5000000000001,439.373350169114 590.5000000000001,439.373350169114 590.5000000000001,439.373350169114 590.5000000000001,439.373350169114 590.5000000000001,439.373350169114 590.5000000005214,439.37335016794316 590.5000000006224,439.3733501676479 590.5000000004732,439.37335016794293 590.500000000223,439.3733501685331 590.5000000000001,439.373350169114 590.5000000000001,439.373350169114 590.5000000000001,439.373350169114 590.5000000000001,439.373350169114 590.5000000000001,439.373350169114 590.5000000000001,439.373350169114 590.5000000000224,439.37335016902466 590.5000000000258,439.3733501690025 590.500000000019,439.37335016902523 590.5000000000086,439.37335016907 590.5000000000001,439.373350169114 590.5000000000001,439.373350169114 590.5000000000001,439.373350169114 590.5000000000001,439.373350169114 590.5000000000001,439.373350169114 590.5000000000001,439.373350169114 590.5000000000006,439.37335016910663 590.5000000000006,439.373350169104 590.5000000000005,439.37335016910527 590.5000000000001,439.373350169109 590.5000000000001,439.373350169114" stroke="black" stroke-width="9.0" /><polyline fill="none" points="590.5000000000001,643.0108819477107 586.9366579468171,643.5170796732363 583.3548440068731,643.9838469342398 579.7532407670064,644.4337320439728 576.1289344665927,644.8891621157089 572.4774207879243,645.3723731937996 568.7928372701122,645.9032076483844 565.0689440503364,646.4926798523801 561.29898293054,647.1493828879751 557.4755378177389,647.8815982936943 553.5905458177258,648.6972666450587 549.6351737410359,649.6046562115972 545.5993271346765,650.6144076671574 541.4719023587102,651.7373722644094 537.2409158814253,652.9838692894754 532.8935238160356,654.3636461326762 528.4175443278862,655.880602789157 523.8067135914438,657.5172606538532 519.0574682398047,659.2508540215874 514.167621893966,661.0586729835221 509.13635753288816,662.9181206120834 503.9626705761613,664.8108007389613 498.6401544366444,666.7344462798269 493.16066082094596,668.6904626618095 487.51572095604985,670.6798280358397 481.6965617390026,672.7030764950576 475.6857949810777,674.7773557872835 469.4300784878338,676.9864500295757 462.86103359203315,679.4273323020287 455.9031533076854,682.1924893109964 448.4739951115498,685.3696066319355 440.5036123391657,689.009260579735 431.996895985902,693.0313404830604 422.98373212841625,697.3257819335446 413.5007668103908,701.7855047527136 403.5912603022138,706.3066942111881 393.31047416800124,710.7814484305608 382.7431919966286,715.0759463863739 371.9887238082842,719.0550296705316 361.1553442908768,722.5904133708206 350.35999026711033,725.561069493894 339.7040900039948,727.8810416887624 329.19786738621934,729.5787688015363 318.8251115550798,730.7089998368928 308.5661594677195,731.3243885236869 298.39800075210593,731.4753494170083 288.2680143687763,731.2353860808397 278.01144016912093,730.7736464568401 267.42467125491083,730.2716827840464 256.2913437177726,729.8965027386362 244.3829780569415,729.8000156257132 231.48673898567773,730.0965566437841 217.49044299734362,730.8003556049274 202.30703560074775,731.8977307135804 185.84847941006026,733.3698888997423 168.0259621566082,735.1928561649514 148.91127084652473,737.2287089247565 129.23547621745465,738.9220343861326 109.93053489573705,739.666480376227 91.9692233089578,738.9208612559843 76.36228013115617,736.2109011359317 71.26005621085326,727.1927508872649 66.31599780741895,718.0869280609705 61.53161092893705,708.8962063788914 56.90835294599796,699.6233854238843 53.68181818181818,689.6957793877745 62.15450326685236,674.6079210682989 75.8164698207781,657.8435470480499 95.20983464109592,639.4835663723429 120.88000685650914,619.643575670479 153.37421888085726,598.474123126845 192.80433003090337,576.3109510252075 237.51777203025787,554.0642284566572 285.37107646632876,532.6606238938109 334.1666395567481,512.8757584922658 381.6593506343602,495.3320335134284 425.8319194670367,480.42971382041776 465.7165464632938,468.18188036953427 500.6094356379915,458.4801794564804 529.8065908751374,451.1709537974268 552.6057459276382,446.05512957589303 568.6439246714109,442.8350124277234 578.9132672480617,441.001759261545 584.7656012592129,440.0774458005437 587.5746523800821,439.68081659359177 588.7317929242528,439.52804824300824 589.4130355521455,439.44935812764834 589.8865900103965,439.40549762445914 590.1932171449301,439.3840632624799 590.3741370858013,439.3755471144534 590.4709022731228,439.373350169114 590.5000000000001,439.373350169114 590.5000000000001,439.373350169114 590.5000000000001,439.373350169114 590.5000000000001,439.373350169114 590.5000000000001,439.373350169114 590.4906943552386,439.37237210643764 590.488458702808,439.37193307600603 590.4908691477551,439.372066911518 590.4955137862879,439.37263962266604 590.5000000000001,439.373350169114 590.5000000000001,439.373350169114 590.5000000000001,439.373350169114 590.5000000000001,439.373350169114 590.5000000000001,439.373350169114 590.5000000000001,439.373350169114 590.4993542288149,439.37316499720646 590.499201628298,439.3731060823894 590.4993703926779,439.3731455972942 590.4996916563553,439.3732439978827 590.5000000000001,439.373350169114 590.5000000000001,439.373350169114 590.5000000000001,439.373350169114 590.5000000000001,439.373350169114 590.5000000000001,439.373350169114 590.5000000000001,439.373350169114 590.499956648701,439.3733290252726 590.4999465934397,439.37332295711235 590.4999580334493,439.37332785510307 590.4999795219264,439.37333881793234 590.5000000000001,439.373350169114 590.5000000000001,439.373350169114 590.5000000000001,439.373350169114 590.5000000000001,439.373350169114 590.5000000000001,439.373350169114 590.5000000000001,439.373350169114 590.4999971984107,439.3733481336402 590.4999965630973,439.373347579222 590.4999973109097,439.37334806816625 590.4999986935966,439.3733491112092 590.5000000000001,439.373350169114 590.5000000000001,439.373350169114 590.5000000000001,439.373350169114 590.5000000000001,439.373350169114 590.5000000000001,439.373350169114 590.5000000000001,439.373350169114 590.4999998272879,439.3733499902653 590.4999997892795,439.3733499431439 590.4999998360586,439.3733499870385 590.4999999208188,439.3733500780264 590.5000000000001,439.373350169114 590.5000000000001,439.373350169114 590.5000000000001,439.373350169114 590.5000000000001,439.373350169114 590.5000000000001,439.373350169114 590.5000000000001,439.373350169114 590.4999999900181,439.37335015431506 590.4999999879182,439.3733501505094 590.4999999906785,439.37335015419626 590.4999999955371,439.3733501616864 590.5000000000001,439.373350169114 590.5000000000001,439.373350169114 590.5000000000001,439.373350169114 590.5000000000001,439.373350169114 590.5000000000001,439.373350169114 590.5000000000001,439.373350169114 590.4999999994789,439.37335016794316 590.4999999993778,439.3733501676479 590.499999999527,439.37335016794293 590.4999999997772,439.3733501685331 590.5000000000001,439.373350169114 590.5000000000001,439.373350169114 590.5000000000001,439.373350169114 590.5000000000001,439.373350169114 590.5000000000001,439.373350169114 590.5000000000001,439.373350169114 590.4999999999778,439.37335016902466 590.4999999999743,439.3733501690025 590.4999999999812,439.37335016902523 590.4999999999916,439.37335016907 590.5000000000001,439.373350169114 590.5000000000001,439.373350169114 590.5000000000001,439.373350169114 590.5000000000001,439.373350169114 590.5000000000001,439.373350169114 590.5000000000001,439.373350169114 590.4999999999995,439.37335016910663 590.4999999999995,439.373350169104 590.4999999999998,439.37335016910527 590.5,439.373350169109 590.5000000000001,439.373350169114" stroke="black" stroke-width="9.0" /><polyline fill="none" points="590.5000000000001,643.0108819477107 594.248682240178,654.1352118748167 598.3847464475205,665.1629465118746 602.9042017303688,676.0596188884336 607.8011232589382,686.790939761424 613.0676593437679,697.3228768192804 618.6976910024603,707.6564591340732 624.7026377045581,717.9314803855402 631.1089649365831,728.3211497362394 637.9556775053892,738.9967058986948 645.2942291280057,750.126865642739 653.1768114205447,761.8175920708908 661.613102250092,773.9341921933166 670.5904676943617,786.2832787473757 680.083556432,798.6733702649118 690.0544017637225,810.9154356684501 700.4288512941099,822.7408139670317 711.0141263700816,833.5572959710238 721.5501237992539,842.7041587308561 731.7308710586987,849.5375821614178 741.2052584040281,853.4326446272546 748.408636359234,850.7394119692646 755.56391381411,847.9208732238575 762.6689112018278,844.9778869452393 769.721464271356,841.9113495955397 775.6766195788113,836.4858923724402 781.3604870129557,830.6953398974723 786.8494835569235,824.7309093484425 791.9200351697964,818.1893409639388 796.3202987572884,810.6829981314936 799.7708517020559,801.8410978602864 802.0408676430176,791.4364758660143 803.1926597429655,779.7527576293609 803.3860449024538,767.1891119994604 802.8067261352006,754.1310156898859 801.6656521253925,740.9491553443921 800.1609293139717,727.9468627060492 798.3577340156219,715.2098797282976 796.287604551506,702.7694726238723 793.9839607614251,690.6551147138877 791.482030701737,678.8944073047887 788.7915271043001,667.4816583695093 785.8104830284989,656.2876168978994 782.3995412924514,645.1604137192282 778.408525435846,633.9583244776187 773.6768904896987,622.5502406588125 768.0896288406503,610.8696612626845 761.7514766440188,599.0679356630128 754.8335948560558,587.3399835915092 747.5194990242923,575.8683182494791 740.004507372357,564.8225271645996 732.45560796342,554.3267349203813 724.8877574577853,544.3685734493524 717.274553986261,534.9048287754364 709.5867821803488,525.8949619464482 701.7925412984422,517.3012265327986 693.8844925169232,509.1070708812107 685.9638609500627,501.368306346036 678.1634149806866,494.15153147425406 670.6206420766706,487.5146887641879 663.4773774550638,481.50685868754795 656.8528520221072,476.15333663467413 650.7615621967786,471.414991155796 645.189277315307,467.2389287757212 640.1191801710587,463.5742413564602 635.5319673448972,460.37210140382547 631.3894463940954,457.578504630151 627.5841176948982,455.1146242119513 623.9871781773301,452.90304838197005 620.4651786865422,450.8759045702874 616.8804484714734,448.9750481793236 613.1490591008442,447.1720466325643 609.4165562895009,445.51971189247126 605.8900440551689,444.0785588257795 602.7807613092214,442.8948018081385 600.3034585619531,442.0001789738212 598.6103652941423,441.39549135023105 597.5921482222773,441.01070160038546 597.0701775428873,440.7698845171917 596.8618832306424,440.6099749981844 596.7813222116317,440.4809167495481 596.6779315262457,440.35183839626166 596.5524459648954,440.2239659770115 596.4440149277401,440.10318343201686 596.3921364831315,439.9926386682545 596.4365378543124,439.8927299319589 596.5946003510087,439.79952614172987 596.7936818762565,439.7031880597625 596.9382109847854,439.59817745085286 596.932364207696,439.4856275040013 596.6803571887538,439.373350169114 596.1201427294104,439.27525021286624 595.323800074558,439.2048993586361 594.3971169437481,439.16911092448595 593.4458628334861,439.1673553727454 592.5754692889101,439.1917701348382 591.8700066718975,439.2293566655553 591.3300827628725,439.2714288215616 590.9353836351212,439.3121609896184 590.6655023152499,439.34713717754073 590.5000000000001,439.373350169114 590.5000000000001,439.373350169114 590.5000000000001,439.373350169114 590.5000000000001,439.373350169114 590.5000000000001,439.373350169114 590.5000000000001,439.373350169114 590.5214537161664,439.36719841499587 590.5265233882914,439.3652411555371 590.5209167226707,439.36655391393765 590.5102437476152,439.3698229639465 590.5000000000001,439.373350169114 590.5000000000001,439.373350169114 590.5000000000001,439.373350169114 590.5000000000001,439.373350169114 590.5000000000001,439.373350169114 590.5000000000001,439.373350169114 590.5014402105418,439.37264773149843 590.5017742649636,439.372446135961 590.5013942066329,439.3726088562977 590.5006803195764,439.37297306181495 590.5000000000001,439.373350169114 590.5000000000001,439.373350169114 590.5000000000001,439.373350169114 590.5000000000001,439.373350169114 590.5000000000001,439.373350169114 590.5000000000001,439.373350169114 590.5000930739935,439.37328254689953 590.5001141802828,439.37326412809955 590.5000893365686,439.3732803717371 590.5000434011473,439.373315023558 590.5000000000001,439.373350169114 590.5000000000001,439.373350169114 590.5000000000001,439.373350169114 590.5000000000001,439.373350169114 590.5000000000001,439.373350169114 590.5000000000001,439.373350169114 590.5000057378196,439.373344227428 590.500007000527,439.37334266196797 590.5000054464425,439.3733441202269 590.5000026305494,439.37334714301323 590.5000000000001,439.373350169114 590.5000000000001,439.373350169114 590.5000000000001,439.373350169114 590.5000000000001,439.373350169114 590.5000000000001,439.373350169114 590.5000000000001,439.373350169114 590.5000003316212,439.3733496774655 590.500000401385,439.3733495510353 590.5000003096826,439.3733496735184 590.5000001482682,439.37334992235435 590.5000000000001,439.373350169114 590.5000000000001,439.373350169114 590.5000000000001,439.373350169114 590.5000000000001,439.373350169114 590.5000000000001,439.373350169114 590.5000000000001,439.373350169114 590.5000000173183,439.37335013021686 590.5000000206747,439.3733501204076 590.5000000157179,439.3733501302112 590.5000000074073,439.37335014981784 590.5000000000001,439.373350169114 590.5000000000001,439.373350169114 590.5000000000001,439.373350169114 590.5000000000001,439.373350169114 590.5000000000001,439.373350169114 590.5000000000001,439.373350169114 590.5000000007402,439.3733501661459 590.5000000008556,439.3733501654083 590.5000000006274,439.37335016616225 590.5000000002841,439.37335016765314 590.5000000000001,439.373350169114 590.5000000000001,439.373350169114 590.5000000000001,439.373350169114 590.5000000000001,439.373350169114 590.5000000000001,439.373350169114 590.5000000000001,439.373350169114 590.5000000000174,439.3733501688665 590.5000000000174,439.37335016878376 590.5000000000102,439.3733501688247 590.500000000003,439.3733501689487 590.5000000000001,439.373350169114" stroke="black" stroke-dasharray="8.0,8.0" stroke-width="7.0" /><polyline fill="none" points="590.5000000000001,643.0108819477107 587.1232657320685,632.8263268161829 584.0966362881982,622.7416952829055 581.4048846203998,612.9184899179259 579.0219373848191,603.517292902459 576.9109154236926,594.6972976229563 575.0314665864477,586.5466146379713 573.371323476755,578.8752256271376 571.9413936479866,571.4246958958779 570.7708321524581,563.9384135498103 569.9069418101418,556.162386691587 569.3990149684083,547.9285074543186 569.2385912092832,539.4004141358508 569.3873941510972,530.8220930469074 569.7906095100195,522.4341786914764 570.3770453951324,514.473239152882 571.0791201518341,507.1020070637071 571.9020983317271,500.20434553909513 572.8815753879275,493.5972855486531 574.0659497194374,487.10129775819564 575.51625567561,480.5408493592572 577.2742431882743,473.82762461164043 579.2554665750298,467.204547022058 581.3244035311744,460.989700818041 583.3236738254554,455.4916426586725 585.0744617915469,451.0084544046308 586.4217277361341,447.7350474587247 587.3817212283174,445.49331684551225 588.0301770454012,444.01841156454816 588.4604640775536,443.05277037179906 588.7832341142351,442.34687590795977 589.1002006446947,441.7030075155561 589.4202303229246,441.1013428667495 589.7262116432053,440.56487974915 589.9994289666724,440.11547724509353 590.2196118557977,439.7737859383708 590.370740966674,439.5512599656415 590.4594633344407,439.42714414123043 590.4997608017133,439.3736563289598 590.5000000000001,439.373350169114 590.5000000000001,439.373350169114 590.4932108907674,439.38116014588843 590.4897733916174,439.38470796836805 590.4889459790448,439.38520415530627 590.489909498295,439.3837991895109 590.4917699200032,439.3815802491109 590.4937237456863,439.3794110774526 590.4955703129484,439.3774809191166 590.4972639106004,439.3758137550751 590.4987569333371,439.3744307504784 590.5000000000001,439.373350169114 590.5000000000001,439.373350169114 590.5000000000001,439.373350169114 590.5000000000001,439.373350169114 590.5000000000001,439.373350169114 590.5000000000001,439.373350169114 590.4982162129755,439.3745533486542 590.4959953672616,439.37595080802237 590.4936511648083,439.3773173616456 590.4915120562888,439.3784502402266 590.4899202517328,439.3791697144894 590.4891262474765,439.37937758856094 590.488966450792,439.3792168112926 590.4891624592137,439.37887217195464 590.4894243154421,439.3785082751192 590.4894514014185,439.3782690614155 590.4890433949358,439.3782283639821 590.4884380408727,439.3782579295896 590.4879927763693,439.3782014023602 590.4880753729851,439.37792760455625 590.4890628323088,439.3773309726008 590.4911736852404,439.3763893130093 590.4939593091975,439.3753129085346 590.4967902461591,439.37433148934315 590.4990226037497,439.37363043297876 590.5000000000001,439.373350169114 590.499261045009,439.3735344112861 590.4971647782902,439.37400473162154 590.4942865001632,439.3745646109944 590.4912123934466,439.3750583067923 590.4885377331906,439.37537127601263 590.486754088222,439.3754481154376 590.4859122025889,439.37533007992124 590.4859500106703,439.3750752908845 590.4868031561001,439.3747372133 590.4884051995034,439.37436458271327 590.4906462955014,439.3740042438495 590.4932484511006,439.3737040027985 590.4958900581076,439.3734936914475 590.4982482742487,439.3733807456008 590.5000000000001,439.373350169114 590.5000000000001,439.373350169114 590.5000000000001,439.373350169114 590.5000000000001,439.373350169114 590.5000000000001,439.373350169114 590.5000000000001,439.373350169114 590.4997559907567,439.37332452270914 590.4996973682893,439.37331301061226 590.4997605741028,439.3733165199985 590.4998823641306,439.3733315374227 590.5000000000001,439.373350169114 590.5000000000001,439.373350169114 590.5000000000001,439.373350169114 590.5000000000001,439.373350169114 590.5000000000001,439.373350169114 590.5000000000001,439.373350169114 590.4999830668222,439.3733453136033 590.4999790653868,439.3733437687604 590.4999834906652,439.37334480490597 590.4999919147249,439.3733473851305 590.5000000000001,439.373350169114 590.5000000000001,439.373350169114 590.5000000000001,439.373350169114 590.5000000000001,439.373350169114 590.5000000000001,439.373350169114 590.5000000000001,439.373350169114 590.499998863258,439.37334961468787 590.4999985995927,439.37334945557075 590.4999988995684,439.373349584004 590.4999994630315,439.3733498714673 590.5000000000001,439.373350169114 590.5000000000001,439.373350169114 590.5000000000001,439.373350169114 590.5000000000001,439.373350169114 590.5000000000001,439.373350169114 590.5000000000001,439.373350169114 590.4999999265378,439.37335011574055 590.4999999098789,439.37335010120285 590.4999999294878,439.37335011402365 590.4999999657441,439.3733501413741 590.5000000000001,439.373350169114 590.5000000000001,439.373350169114 590.5000000000001,439.373350169114 590.5000000000001,439.373350169114 590.5000000000001,439.373350169114 590.5000000000001,439.373350169114 590.4999999954713,439.3733501644242 590.4999999944746,439.37335016318866 590.4999999957013,439.37335016433974 590.4999999979239,439.37335016672546 590.5000000000001,439.373350169114 590.5000000000001,439.373350169114 590.5000000000001,439.373350169114 590.5000000000001,439.373350169114 590.5000000000001,439.373350169114 590.5000000000001,439.373350169114 590.4999999997384,439.3733501687259 590.4999999996833,439.3733501686261 590.4999999997557,439.3733501687228 590.499999999883,439.37335016891916 590.5000000000001,439.373350169114 590.5000000000001,439.373350169114 590.5000000000001,439.373350169114 590.5000000000001,439.373350169114 590.5000000000001,439.373350169114 590.5000000000001,439.373350169114 590.4999999999864,439.3733501690833 590.4999999999837,439.3733501690755 590.4999999999876,439.3733501690833 590.4999999999943,439.3733501690988 590.5000000000001,439.373350169114 590.5000000000001,439.373350169114 590.5000000000001,439.373350169114 590.5000000000001,439.373350169114 590.5000000000001,439.373350169114 590.5000000000001,439.373350169114 590.4999999999995,439.37335016911163 590.4999999999994,439.37335016911106 590.4999999999997,439.37335016911163 590.4999999999999,439.37335016911277 590.5000000000001,439.373350169114 590.5000000000001,439.373350169114 590.5000000000001,439.373350169114 590.5000000000001,439.373350169114 590.5000000000001,439.373350169114 590.5000000000001,439.373350169114 590.5000000000001,439.3733501691139 590.5000000000001,439.3733501691137 590.5000000000001,439.3733501691137 590.5000000000001,439.3733501691139 590.5000000000001,439.373350169114" stroke="black" stroke-dasharray="8.0,8.0" stroke-width="7.0" /></g><rect fill="white" height="111.60000000000001" stroke="none" width="1181" x="0" y="0" /><line stroke="black" stroke-width="3.0" x1="0" x2="1181" y1="111.60000000000001" y2="111.60000000000001" /><text font-family="Arial" font-size="62.0" text-anchor="start" x="40.0" y="77.5">LED</text><text font-family="Arial" font-size="62.0" text-anchor="middle" x="590.5" y="77.5" /><text font-family="Arial" font-size="62.0" text-anchor="end" x="1141.0" y="77.5">cd / klm</text><rect fill="none" height="1178.0" stroke="black" stroke-width="3.0" width="1178.0" x="1.5" y="1.5" /></svg>