<?xml version="1.0" encoding="utf-8" ?>
<svg baseProfile="full" height="1500" version="1.1" width="1500" xmlns="http://www.w3.org/2000/svg" xmlns:ev="http://www.w3.org/2001/xml-events" xmlns:xlink="http://www.w3.org/1999/xlink"><defs><clipPath id="plot_clip"><rect height="1358.25" width="1500.0" x="0" y="141.75" /></clipPath></defs><g clip-path="url(#plot_clip)" id="grid"><circle cx="619.4423357194897" cy="203.4968598202165" fill="none" r="320.66987314917947" stroke="black" stroke-width="3.81" /><text font-family="Arial" font-size="53.34" text-anchor="start" x="629.6023357194897" y="574.9667329693959">200</text><circle cx="619.4423357194897" cy="203.4968598202165" fill="none" r="641.3397462983589" stroke="black" stroke-width="3.81" /><text font-family="Arial" font-size="53.34" text-anchor="start" x="629.6023357194898" y="895.6366061185754">400</text><circle cx="619.4423357194897" cy="203.4968598202165" fill="none" r="962.0096194475384" stroke="black" stroke-width="3.81" /><text font-family="Arial" font-size="53.34" text-anchor="start" x="629.6023357194898" y="1216.3064792677549">600</text><circle cx="619.4423357194897" cy="203.4968598202165" fill="none" r="1282.6794925967179" stroke="black" stroke-width="3.81" /><text font-family="Arial" font-size="53.34" text-anchor="start" x="629.6023357194899" y="1536.9763524169343">800</text><circle cx="619.4423357194897" cy="203.4968598202165" fill="none" r="1603.3493657458973" stroke="black" stroke-width="3.81" /><text font-family="Arial" font-size="53.34" text-anchor="start" x="629.6023357194899" y="1857.6462255661138">1000</text><line stroke="black" stroke-width="3.81" x1="-5950.602360297474" x2="7189.487031736453" y1="203.49685982021606" y2="203.49685982021697" /><line stroke="black" stroke-width="3.81" x1="-5070.383275030409" x2="6309.267946469388" y1="-3081.5254881882656" y2="3488.5192078286987" /><line stroke="black" stroke-width="3.81" x1="-2665.580012288991" x2="3904.4646837279706" y1="-5486.328750929683" y2="5893.322470570116" /><line stroke="black" stroke-width="3.81" x1="619.4423357194897" x2="619.4423357194897" y1="-6366.547836196746" y2="6773.541555837179" /><line stroke="black" stroke-width="3.81" x1="3904.46468372797" x2="-2665.5800122889905" y1="-5486.328750929683" y2="5893.322470570116" /><line stroke="black" stroke-width="3.81" x1="6309.267946469389" x2="-5070.38327503041" y1="-3081.5254881882656" y2="3488.5192078286987" /><line stroke="black" stroke-width="3.81" x1="7189.487031736452" x2="-5950.602360297473" y1="203.49685982021606" y2="203.49685982021697" /></g><g clip-path="url(#plot_clip)" id="curves"><polyline fill="none" points="619.4423357194898,979.3415844109987 633.4516766135836,1006.0914621150815 648.3945741264607,1032.5804919495904 664.2660479796125,1058.7842403070192 681.0605495014413,1084.6783704506308 698.7719635349484,1110.2386549095008 718.2074550583893,1143.184200575292 738.8159657374874,1175.7170570516564 760.5888279018152,1207.8063367150753 783.5166534591332,1239.4213319681635 807.5893375945565,1270.5315309698624 831.8391028683955,1296.1835012352294 857.0398338612958,1321.3052035149094 883.1802539537457,1345.8712897858225 910.2484920034512,1369.8566467987744 938.2320871519793,1393.23640909852 963.4843387260894,1403.3139103933895 989.1840680335342,1412.8675731224719 1015.3205987637899,1421.8848727171935 1041.8829541911928,1430.3534991578385 1068.8598614370442,1438.2613636363637 1089.3998481236981,1427.7780362551216 1109.711099853324,1416.9546325685237 1129.7880159958281,1405.7959380871607 1149.625093192301,1394.3068299940899 1169.2169268448874,1382.4922752089449 1178.4679242587758,1349.6691715434422 1186.7441283405806,1316.8893178102735 1194.0499886735638,1284.176679921484 1200.3904933549331,1251.5550795315075 1205.7711652791068,1219.0481825598663 1203.7156383144181,1175.890929414131 1200.3383147230104,1133.1247528006556 1195.6523921206733,1090.7825374700233 1189.671811447435,1048.8968236299509 1182.4112489092663,1007.4997910499708 1173.6674649661145,966.3223075860701 1163.6647859936695,925.7044442661382 1152.4202469577353,885.6774774533542 1139.9515888925225,846.272256513778 1126.277249135819,807.5191887363021 1118.318865429025,777.388658702119 1109.4687798075656,747.7263612216811 1099.7410234515162,718.5541440099577 1089.1501167668544,689.8935057180664 1077.711061441957,661.7655855426837 1070.8877719226375,639.4526499994796 1063.429740071485,617.521812433554 1055.348299552624,595.9883525891187 1046.6551226265328,574.8672697040188 1037.3622137889258,554.1732753699342 1026.7193289355505,533.3032660142535 1015.4803695474772,512.9156832000041 1003.6590038223119,493.02488618609925 991.2692180236801,473.64490286985483 978.3253090573921,454.7894230865302 957.0791336128725,431.23575559870824 935.1279320979505,408.50548317147354 912.4940637003879,386.6159031595487 889.2002742102983,365.5837817294023 865.2696842631026,345.42534567604343 832.7549851201424,321.73799217236933 799.4990121311811,299.2346929019318 765.5332915769466,277.93391977055785 730.889765423204,257.853403198621 695.6007750126718,239.01012329575997 689.8315221855577,234.83614477044148 683.9417186491065,230.87522353489862 677.937058556832,227.13026191946142 671.8233000503791,223.60402814731788 665.6062623087065,220.29915499554158 662.8604785865898,218.44692532711474 660.0650286882403,216.6959728797856 657.2226166932018,215.04745086800926 654.3359715219765,213.5024488789279 651.4078455372534,212.06199236153543 649.6078054129417,211.01795613371132 647.7816527637958,210.03950668396942 645.9311310617342,209.12722708094475 644.0579959952529,208.2816594742485 642.1640145715303,207.5033048488242 639.6428581755463,206.69630826368234 637.1012431717292,205.97865741348642 634.5415222462999,205.35080680790202 631.9660574774396,204.813156018266 629.3772191337746,204.36604949241814 627.4043663947447,204.05361924193357 625.424239707918,203.8103581241346 623.4386531051813,203.63641429845802 621.4494233896648,203.53189366581614 619.4583692131472,203.4968598202165 619.4551605608327,203.4966359617781 619.4519499553816,203.49652408370093 619.4487403276144,203.49652416892764 619.4455346068643,203.4966361322206 619.4423357194897,203.4968598202165 619.4423357194897,203.4968598202165 619.4423357194897,203.4968598202165 619.4423357194897,203.4968598202165 619.4423357194897,203.4968598202165 619.4423357194897,203.4968598202165 619.4454835021337,203.49624795325303 619.4486089688307,203.4955263999061 619.451709253242,203.49469576943466 619.4547815037882,203.49375673767372 619.4578228850992,203.49271004669845 619.4546656261338,203.49332427637955 619.4515354632333,203.4940471762925 619.4484352229385,203.49487797140887 619.4453677127067,203.4958158212287 619.4423357194897,203.4968598202165 619.4423357194897,203.4968598202165 619.4423357194897,203.4968598202165 619.4423357194897,203.4968598202165 619.4423357194897,203.4968598202165 619.4423357194897,203.4968598202165 619.4423357194897,203.4968598202165 619.4423357194897,203.4968598202165 619.4423357194897,203.4968598202165 619.4423357194897,203.4968598202165 619.4423357194897,203.4968598202165 619.4423357194897,203.4968598202165 619.4423357194897,203.4968598202165 619.4423357194897,203.4968598202165 619.4423357194897,203.4968598202165 619.4423357194897,203.4968598202165 619.4423357194897,203.4968598202165 619.4423357194897,203.4968598202165 619.4423357194897,203.4968598202165 619.4423357194897,203.4968598202165 619.4423357194897,203.4968598202165 619.4423357194897,203.4968598202165 619.4423357194897,203.4968598202165 619.4423357194897,203.4968598202165 619.4423357194897,203.4968598202165 619.4423357194897,203.4968598202165 619.4423357194897,203.4968598202165 619.4423357194897,203.4968598202165 619.4423357194897,203.4968598202165 619.4423357194897,203.4968598202165 619.4423357194897,203.4968598202165 619.4423357194897,203.4968598202165 619.4423357194897,203.4968598202165 619.4423357194897,203.4968598202165 619.4423357194897,203.4968598202165 619.4423357194897,203.4968598202165 619.4423357194897,203.4968598202165 619.4423357194897,203.4968598202165 619.4423357194897,203.4968598202165 619.4423357194897,203.4968598202165 619.4423357194897,203.4968598202165 619.4423357194897,203.4968598202165 619.4423357194897,203.4968598202165 619.4423357194897,203.4968598202165 619.4423357194897,203.4968598202165 619.4423357194897,203.4968598202165 619.4423357194897,203.4968598202165 619.4423357194897,203.4968598202165 619.4423357194897,203.4968598202165 619.4423357194897,203.4968598202165 619.4423357194897,203.4968598202165 619.4423357194897,203.4968598202165 619.4423357194897,203.4968598202165 619.4423357194897,203.4968598202165 619.4423357194897,203.4968598202165 619.4423357194897,203.4968598202165 619.4423357194897,203.4968598202165 619.4423357194897,203.4968598202165 619.4423357194897,203.4968598202165 619.4423357194897,203.4968598202165 619.4423357194897,203.4968598202165 619.4423357194897,203.4968598202165 619.4423357194897,203.4968598202165 619.4423357194897,203.4968598202165 619.4423357194897,203.4968598202165 619.4423357194897,203.4968598202165 619.4423357194897,203.4968598202165 619.4423357194897,203.4968598202165 619.4423357194897,203.4968598202165 619.4423357194897,203.4968598202165 619.4423357194897,203.4968598202165" stroke="black" stroke-width="11.43" /><polyline fill="none" points="619.4423357194898,979.3415844109987 606.2872945906943,957.1486613399647 593.9067759177443,934.7396180240389 582.3041988490457,912.1347257727206 571.4825109652767,889.3543073606082 561.444187560234,866.4187267438131 552.1563712427278,843.6800485060031 543.6438850792091,820.8257005383953 535.9078224816727,797.8758060866827 528.9488108829507,774.8504893251987 522.7670120722732,751.7698652263333 516.3586609223835,733.8163929786472 510.54656593896294,715.8111771245163 505.3304952927225,697.7695435989225 500.7098641489168,679.7067929870577 496.6837355076219,661.638192876943 496.38773247268756,632.6392605642269 497.0641985873165,603.7777101041963 498.70810635178,575.0786099187579 501.31385023725943,546.5668923210801 504.8752499483115,518.2673409892499 505.50937638624333,500.30236628746025 506.7338074403519,482.4602564318094 508.54436336020234,464.7561103679009 510.93651777462935,447.2049171069291 513.9054002812933,429.8215482367996 512.7253773271511,422.2990495736865 511.7749393699679,414.806022996175 511.0526683575164,407.34817579796527 510.5570172239873,399.9311742340417 510.286310899509,392.5606407606724 511.31887542635366,383.4445163468238 512.6350720268116,374.42421186000206 514.231832671322,365.5068272893973 516.1059283156055,356.6993840635462 518.2539707197003,348.00882160015954 519.0231703932017,341.7119834441253 519.9803392063872,335.4873872409564 521.1231660552511,329.33965831613045 522.449235958101,323.27336291907613 523.9560314207731,317.293006011756 524.9466852407998,312.20167075070026 526.0850628194122,307.18061545336695 527.3689948327448,302.2334296145982 528.7962319446967,297.3636481060205 530.3644460581398,292.5747494815664 532.0596980706846,287.8812921107017 533.8906545354503,283.27509316877286 535.8547696391757,278.75944237194403 537.9494243838667,274.3375668703072 540.1719280000946,270.0126297008337 542.4646937865961,265.8321251704765 544.878184437037,261.75275946986926 547.4095534621089,257.77745463043857 550.0558894773015,253.90906388232406 552.8142177416973,250.15037028499273 556.013810941229,246.27993999390424 559.326985661579,242.53622461555028 562.7502793989149,238.92198831166115 566.2801681406926,235.43991274045948 569.9130681949152,232.0925957582947 574.2343128459986,228.55607609727645 578.6624459443916,225.17991183575168 583.1931726488759,221.96673092756782 587.8221394000667,218.9190600220495 592.5449361522926,216.0393232228555 594.1405459946924,214.76194239534107 595.7719978991338,213.5443221161313 597.4376877719869,212.3873146812773 599.1359928574892,211.2917345280366 600.8652725718056,210.25835784605715 601.7233673594804,209.59798990557374 602.5985569457353,208.9697353027991 603.4899800680896,208.37398438439004 604.3967671371631,207.81110718731634 605.3180406837337,207.28145326870617 606.0911206132904,206.82569161817491 606.8755514689717,206.39813056839876 607.6705833311602,205.99902303271074 608.4754609879349,205.62860432081084 609.2894243213924,205.28709203244352 610.5044438457061,204.91248282232687 611.7290672063646,204.58088901533483 612.9621620751842,204.2925250957071 614.2025916786669,204.04757911061506 615.4492153761277,203.84621258235552 616.2434483449397,203.72054781608517 617.0406076727439,203.62272905358827 617.8399630708564,203.55281590611935 618.640783135554,203.51085097261262 619.4423357194897,203.4968598202165 619.4423357194897,203.4968598202165 619.4423357194897,203.4968598202165 619.4423357194897,203.4968598202165 619.4423357194897,203.4968598202165 619.4423357194897,203.4968598202165 619.4423357194897,203.4968598202165 619.4423357194897,203.4968598202165 619.4423357194897,203.4968598202165 619.4423357194897,203.4968598202165 619.4423357194897,203.4968598202165 619.4423357194897,203.4968598202165 619.4423357194897,203.4968598202165 619.4423357194897,203.4968598202165 619.4423357194897,203.4968598202165 619.4423357194897,203.4968598202165 619.4423357194897,203.4968598202165 619.4423357194897,203.4968598202165 619.4423357194897,203.4968598202165 619.4423357194897,203.4968598202165 619.4423357194897,203.4968598202165 619.4423357194897,203.4968598202165 619.4423357194897,203.4968598202165 619.4423357194897,203.4968598202165 619.4423357194897,203.4968598202165 619.4423357194897,203.4968598202165 619.4423357194897,203.4968598202165 619.4423357194897,203.4968598202165 619.4423357194897,203.4968598202165 619.4423357194897,203.4968598202165 619.4423357194897,203.4968598202165 619.4423357194897,203.4968598202165 619.4423357194897,203.4968598202165 619.4423357194897,203.4968598202165 619.4423357194897,203.4968598202165 619.4423357194897,203.4968598202165 619.4423357194897,203.4968598202165 619.4423357194897,203.4968598202165 619.4423357194897,203.4968598202165 619.4423357194897,203.4968598202165 619.4423357194897,203.4968598202165 619.4423357194897,203.4968598202165 619.4423357194897,203.4968598202165 619.4423357194897,203.4968598202165 619.4423357194897,203.4968598202165 619.4423357194897,203.4968598202165 619.4423357194897,203.4968598202165 619.4423357194897,203.4968598202165 619.4423357194897,203.4968598202165 619.4423357194897,203.4968598202165 619.4423357194897,203.4968598202165 619.4423357194897,203.4968598202165 619.4423357194897,203.4968598202165 619.4423357194897,203.4968598202165 619.4423357194897,203.4968598202165 619.4423357194897,203.4968598202165 619.4423357194897,203.4968598202165 619.4423357194897,203.4968598202165 619.4423357194897,203.4968598202165 619.4423357194897,203.4968598202165 619.4423357194897,203.4968598202165 619.4423357194897,203.4968598202165 619.4423357194897,203.4968598202165 619.4423357194897,203.4968598202165 619.4423357194897,203.4968598202165 619.4423357194897,203.4968598202165 619.4423357194897,203.4968598202165 619.4423357194897,203.4968598202165 619.4423357194897,203.4968598202165 619.4423357194897,203.4968598202165 619.4423357194897,203.4968598202165 619.4423357194897,203.4968598202165 619.4423357194897,203.4968598202165 619.4423357194897,203.4968598202165 619.4423357194897,203.4968598202165 619.4423357194897,203.4968598202165 619.4423357194897,203.4968598202165 619.4423357194897,203.4968598202165 619.4423357194897,203.4968598202165 619.4423357194897,203.4968598202165 619.4423357194897,203.4968598202165 619.4423357194897,203.4968598202165 619.4423357194897,203.4968598202165 619.4423357194897,203.4968598202165 619.4423357194897,203.4968598202165 619.4423357194897,203.4968598202165 619.4423357194897,203.4968598202165 619.4423357194897,203.4968598202165 619.4423357194897,203.4968598202165 619.4423357194897,203.4968598202165 619.4423357194897,203.4968598202165" stroke="black" stroke-width="11.43" /><polyline fill="none" points="619.4423357194898,979.3415844109987 632.9490304726055,977.2948839846059 646.3842957843165,975.0136521747891 659.7440699014993,972.4997584996295 673.024334561865,969.7551426325477 686.2211162023453,966.7818134538752 699.3041746313212,963.3315012117937 712.2872114502732,959.6576918339674 725.166422277965,955.76282424512 737.9380573711627,951.649401880978 750.598422714025,947.3199915245233 762.4910190335495,939.4185380428271 774.1480936194098,931.3302265458648 785.5667760125706,923.060865078654 796.7443266324449,914.6163044518424 807.6781373863965,906.0024354445703 818.390481028365,897.311495345748 828.8572703050967,888.4622469592344 839.0762706778016,879.4606056464331 849.0453791344937,870.3125160535456 858.7626245229974,861.0239493252119 867.9773707791495,850.9527618474272 876.9141609225406,840.7619895053858 885.5716584672894,830.4582544306935 893.9486731879247,820.0481884440815 902.0441610411863,809.538429971228 909.0081666078008,797.1947952806219 915.6284905757789,784.7949189263446 921.9053298887042,772.3470177421515 927.8390632654258,759.8592838825152 933.4302503869231,747.3398809868124 936.5920440707298,731.322612262636 939.2923152305186,715.3638261447885 941.5341235906936,699.474719095482 943.3207785021384,683.6663976324583 944.655836718086,667.9498730369867 942.9646249565478,648.787089595549 940.7065721914662,629.8289012021881 937.8883754862923,611.0892037247598 934.5170433458524,592.5817203641244 930.599891708125,574.3199950325065 920.9829065999322,550.379606056465 910.6299546509124,526.8934735687683 899.5540595295303,503.8799077451798 887.7686583167947,481.3569008576735 875.2875943478278,459.34211844855463 853.3169529143238,429.3469523575693 830.3853094835464,400.2043651699403 806.5158649827126,371.9386221498928 781.7323720928416,344.57343611928445 756.0591229929377,318.13195563399154 747.9410942091075,307.5531027304903 739.4985032530607,297.2950178876779 730.7401166461266,287.3657534049373 721.6748821588045,277.7731525546617 712.3119241722732,268.52484572528897 706.2813801841314,262.0705349060754 700.0560170144333,255.84799656875703 693.6421129875323,249.86202655351462 687.0460538106182,244.11727172101655 680.2743292785481,238.61822767688045 676.4957636805291,235.12209135542912 672.6150309896656,231.7692834022307 668.6359957784708,228.56228157404485 664.5625775735201,225.50347217640046 660.3987488368019,222.5951489073791 664.6937825041306,223.6441019804513 669.0366967231946,224.5484170922971 673.4237420341582,225.3067636788062 677.8511374899542,225.9178981494108 682.3150725526496,226.38066457433888 675.032415356141,222.63805926408713 667.640611971602,219.15742909900246 660.1466019130422,215.94140286184597 652.5573824885811,212.9924466804407 644.8800052328991,210.31286282366432 647.9540718242806,210.60563404081586 651.0452047652045,210.79295703117873 654.1506560107397,210.8743410426664 657.267665860629,210.8493591862873 660.3934643524063,210.71764868866285 655.3205919725798,209.1794173566825 650.2080837595944,207.82070373001625 645.0606646305974,206.6423950866331 639.8830779164796,205.64526839709401 634.6800829497594,204.82998996053857 631.7228643503872,204.35559803635624 628.7546359327388,203.9848967944099 625.778117172186,203.7181101838762 622.796031730677,203.55539880184142 619.8111060736113,203.4968598202165 619.7405132807139,203.49165511152523 619.6698726355957,203.4889140560183 619.5992486185438,203.48863636363626 619.5287056786026,203.490820244328 619.4583082008631,203.4954624091681 619.455092247891,203.49551905505427 619.4518841089459,203.49568742540987 619.4486867022096,203.49596724780395 619.4455029384386,203.4963581820159 619.4423357194897,203.4968598202165 619.4423357194897,203.4968598202165 619.4423357194897,203.4968598202165 619.4423357194897,203.4968598202165 619.4423357194897,203.4968598202165 619.4423357194897,203.4968598202165 619.4423357194897,203.4968598202165 619.4423357194897,203.4968598202165 619.4423357194897,203.4968598202165 619.4423357194897,203.4968598202165 619.4423357194897,203.4968598202165 619.4423357194897,203.4968598202165 619.4423357194897,203.4968598202165 619.4423357194897,203.4968598202165 619.4423357194897,203.4968598202165 619.4423357194897,203.4968598202165 619.4423357194897,203.4968598202165 619.4423357194897,203.4968598202165 619.4423357194897,203.4968598202165 619.4423357194897,203.4968598202165 619.4423357194897,203.4968598202165 619.4423357194897,203.4968598202165 619.4423357194897,203.4968598202165 619.4423357194897,203.4968598202165 619.4423357194897,203.4968598202165 619.4423357194897,203.4968598202165 619.4423357194897,203.4968598202165 619.4423357194897,203.4968598202165 619.4423357194897,203.4968598202165 619.4423357194897,203.4968598202165 619.4423357194897,203.4968598202165 619.4423357194897,203.4968598202165 619.4423357194897,203.4968598202165 619.4423357194897,203.4968598202165 619.4423357194897,203.4968598202165 619.4423357194897,203.4968598202165 619.4423357194897,203.4968598202165 619.4423357194897,203.4968598202165 619.4423357194897,203.4968598202165 619.4423357194897,203.4968598202165 619.4423357194897,203.4968598202165 619.4423357194897,203.4968598202165 619.4423357194897,203.4968598202165 619.4423357194897,203.4968598202165 619.4423357194897,203.4968598202165 619.4423357194897,203.4968598202165 619.4423357194897,203.4968598202165 619.4423357194897,203.4968598202165 619.4423357194897,203.4968598202165 619.4423357194897,203.4968598202165 619.4423357194897,203.4968598202165 619.4423357194897,203.4968598202165 619.4423357194897,203.4968598202165 619.4423357194897,203.4968598202165 619.4423357194897,203.4968598202165 619.4423357194897,203.4968598202165 619.4423357194897,203.4968598202165 619.4423357194897,203.4968598202165 619.4423357194897,203.4968598202165 619.4423357194897,203.4968598202165 619.4423357194897,203.4968598202165 619.4423357194897,203.4968598202165 619.4423357194897,203.4968598202165 619.4423357194897,203.4968598202165 619.4423357194897,203.4968598202165 619.4423357194897,203.4968598202165 619.4423357194897,203.4968598202165 619.4423357194897,203.4968598202165 619.4423357194897,203.4968598202165 619.4423357194897,203.4968598202165 619.4423357194897,203.4968598202165 619.4423357194897,203.4968598202165 619.4423357194897,203.4968598202165 619.4423357194897,203.4968598202165 619.4423357194897,203.4968598202165 619.4423357194897,203.4968598202165 619.4423357194897,203.4968598202165 619.4423357194897,203.4968598202165 619.4423357194897,203.4968598202165 619.4423357194897,203.4968598202165 619.4423357194897,203.4968598202165" stroke="black" stroke-dasharray="10.16,10.16" stroke-width="8.89" /><polyline fill="none" points="619.4423357194898,979.3415844109987 605.9356409663737,977.2948839846059 592.5003756546632,975.0136521747891 579.1406015374804,972.4997584996295 565.8603368771147,969.7551426325477 552.6635552366342,966.7818134538752 539.5804968076585,963.3315012117937 526.5974599887064,959.6576918339675 513.7182491610142,955.76282424512 500.946614067817,951.6494018809781 488.2862487249543,947.3199915245233 476.39365240543015,939.4185380428271 464.7365778195695,931.3302265458648 453.31789542640905,923.060865078654 442.14034480653476,914.6163044518424 431.2065340525831,906.0024354445703 420.49419041061464,897.311495345748 410.0274011338827,888.4622469592344 399.80840076117795,879.4606056464332 389.83929230448564,870.3125160535454 380.12204691598237,861.023949325212 370.9073006598297,850.9527618474272 361.970510516439,840.7619895053859 353.31301297169017,830.4582544306935 344.9359982510551,820.0481884440816 336.8405103977934,809.538429971228 329.87650483117847,797.1947952806219 323.2561808632009,784.7949189263446 316.97934155027525,772.3470177421514 311.0456081735538,759.8592838825152 305.4544210520562,747.3398809868123 302.2926273682498,731.322612262636 299.59235620846096,715.3638261447885 297.35054784828594,699.4747190954821 295.5638929368411,683.6663976324584 294.2288347208933,667.9498730369867 295.92004648243176,648.787089595549 298.1780992475131,629.8289012021879 300.9962959526873,611.0892037247598 304.367628093127,592.5817203641244 308.28477973085455,574.3199950325065 317.9017648390474,550.379606056465 328.2547167880672,526.8934735687684 339.33061190944926,503.8799077451798 351.11601312218465,481.3569008576734 363.5970770911516,459.34211844855463 385.56771852465573,429.3469523575693 408.4993619554331,400.2043651699403 432.36880645626684,371.9386221498928 457.1522993461378,344.57343611928445 482.8255484460418,318.13195563399177 490.94357722987206,307.5531027304903 499.38616818591873,297.2950178876779 508.1445547928529,287.3657534049373 517.209789280175,277.7731525546617 526.5727472667063,268.52484572528897 532.603291254848,262.0705349060754 538.8286544245461,255.84799656875703 545.2425584514472,249.86202655351462 551.8386176283612,244.11727172101655 558.6103421604314,238.61822767688045 562.3889077584503,235.12209135542912 566.2696404493139,231.7692834022307 570.2486756605086,228.56228157404485 574.3220938654594,225.50347217640046 578.4859226021774,222.5951489073791 574.1908889348489,223.6441019804513 569.8479747157849,224.5484170922971 565.4609294048213,225.3067636788062 561.0335339490252,225.9178981494108 556.5695988863299,226.38066457433888 563.8522560828385,222.63805926408713 571.2440594673775,219.15742909900246 578.7380695259372,215.94140286184597 586.3272889503984,212.9924466804407 594.0046662060804,210.31286282366432 590.9305996146988,210.60563404081586 587.839466673775,210.79295703117873 584.7340154282398,210.8743410426664 581.6170055783505,210.8493591862873 578.4912070865731,210.71764868866285 583.5640794663997,209.1794173566825 588.6765876793851,207.82070373001625 593.824006808382,206.6423950866331 599.0015935224999,205.64526839709401 604.2045884892201,204.82998996053857 607.1618070885922,204.35559803635624 610.1300355062407,203.9848967944099 613.1065542667935,203.7181101838762 616.0886397083025,203.55539880184142 619.0735653653682,203.4968598202165 619.1441581582656,203.49165511152523 619.2147988033838,203.4889140560183 619.2854228204357,203.48863636363626 619.3559657603769,203.490820244328 619.4263632381163,203.4954624091681 619.4295791910885,203.49551905505427 619.4327873300335,203.49568742540987 619.4359847367699,203.49596724780395 619.4391685005409,203.4963581820159 619.4423357194897,203.4968598202165 619.4423357194897,203.4968598202165 619.4423357194897,203.4968598202165 619.4423357194897,203.4968598202165 619.4423357194897,203.4968598202165 619.4423357194897,203.4968598202165 619.4423357194897,203.4968598202165 619.4423357194897,203.4968598202165 619.4423357194897,203.4968598202165 619.4423357194897,203.4968598202165 619.4423357194897,203.4968598202165 619.4423357194897,203.4968598202165 619.4423357194897,203.4968598202165 619.4423357194897,203.4968598202165 619.4423357194897,203.4968598202165 619.4423357194897,203.4968598202165 619.4423357194897,203.4968598202165 619.4423357194897,203.4968598202165 619.4423357194897,203.4968598202165 619.4423357194897,203.4968598202165 619.4423357194897,203.4968598202165 619.4423357194897,203.4968598202165 619.4423357194897,203.4968598202165 619.4423357194897,203.4968598202165 619.4423357194897,203.4968598202165 619.4423357194897,203.4968598202165 619.4423357194897,203.4968598202165 619.4423357194897,203.4968598202165 619.4423357194897,203.4968598202165 619.4423357194897,203.4968598202165 619.4423357194897,203.4968598202165 619.4423357194897,203.4968598202165 619.4423357194897,203.4968598202165 619.4423357194897,203.4968598202165 619.4423357194897,203.4968598202165 619.4423357194897,203.4968598202165 619.4423357194897,203.4968598202165 619.4423357194897,203.4968598202165 619.4423357194897,203.4968598202165 619.4423357194897,203.4968598202165 619.4423357194897,203.4968598202165 619.4423357194897,203.4968598202165 619.4423357194897,203.4968598202165 619.4423357194897,203.4968598202165 619.4423357194897,203.4968598202165 619.4423357194897,203.4968598202165 619.4423357194897,203.4968598202165 619.4423357194897,203.4968598202165 619.4423357194897,203.4968598202165 619.4423357194897,203.4968598202165 619.4423357194897,203.4968598202165 619.4423357194897,203.4968598202165 619.4423357194897,203.4968598202165 619.4423357194897,203.4968598202165 619.4423357194897,203.4968598202165 619.4423357194897,203.4968598202165 619.4423357194897,203.4968598202165 619.4423357194897,203.4968598202165 619.4423357194897,203.4968598202165 619.4423357194897,203.4968598202165 619.4423357194897,203.4968598202165 619.4423357194897,203.4968598202165 619.4423357194897,203.4968598202165 619.4423357194897,203.4968598202165 619.4423357194897,203.4968598202165 619.4423357194897,203.4968598202165 619.4423357194897,203.4968598202165 619.4423357194897,203.4968598202165 619.4423357194897,203.4968598202165 619.4423357194897,203.4968598202165 619.4423357194897,203.4968598202165 619.4423357194897,203.4968598202165 619.4423357194897,203.4968598202165 619.4423357194897,203.4968598202165 619.4423357194897,203.4968598202165 619.4423357194897,203.4968598202165 619.4423357194897,203.4968598202165 619.4423357194897,203.4968598202165 619.4423357194897,203.4968598202165 619.4423357194897,203.4968598202165 619.4423357194897,203.4968598202165" stroke="black" stroke-dasharray="10.16,10.16" stroke-width="8.89" /></g><rect fill="white" height="141.75" stroke="none" width="1500" x="0" y="0" /><line stroke="black" stroke-width="3.81" x1="0" x2="1500" y1="141.75" y2="141.75" /><text font-family="Arial" font-size="78.75" text-anchor="start" x="50.8" y="98.4375">LED</text><text font-family="Arial" font-size="78.75" text-anchor="middle" x="750.0" y="98.4375">TEST</text><text font-family="Arial" font-size="78.75" text-anchor="end" x="1449.2" y="98.4375">cd / klm</text><rect fill="none" height="1496.19" stroke="black" stroke-width="3.81" width="1496.19" x="1.905" y="1.905" /></svg>