<?xml version="1.0" encoding="utf-8" ?>
<svg baseProfile="full" height="300" version="1.1" width="300" xmlns="http://www.w3.org/2000/svg" xmlns:ev="http://www.w3.org/2001/xml-events" xmlns:xlink="http://www.w3.org/1999/xlink"><defs><clipPath id="plot_clip"><rect height="271.65" width="300.0" x="0" y="28.35" /></clipPath></defs><g clip-path="url(#plot_clip)" id="grid"><circle cx="123.88846714389794" cy="40.699371964043316" fill="none" r="64.13397462983589" stroke="black" stroke-width="0.76" /><text font-family="Arial" font-size="10.67" text-anchor="start" x="125.91846714389794" y="114.99334659387918">200</text><circle cx="123.88846714389794" cy="40.699371964043316" fill="none" r="128.26794925967178" stroke="black" stroke-width="0.76" /><text font-family="Arial" font-size="10.67" text-anchor="start" x="125.91846714389796" y="179.12732122371506">400</text><circle cx="123.88846714389794" cy="40.699371964043316" fill="none" r="192.40192388950766" stroke="black" stroke-width="0.76" /><text font-family="Arial" font-size="10.67" text-anchor="start" x="125.91846714389796" y="243.26129585355096">600</text><circle cx="123.88846714389794" cy="40.699371964043316" fill="none" r="256.53589851934356" stroke="black" stroke-width="0.76" /><text font-family="Arial" font-size="10.67" text-anchor="start" x="125.91846714389798" y="307.39527048338687">800</text><circle cx="123.88846714389794" cy="40.699371964043316" fill="none" r="320.66987314917947" stroke="black" stroke-width="0.76" /><text font-family="Arial" font-size="10.67" text-anchor="start" x="125.91846714389798" y="371.52924511322277">1000</text><line stroke="black" stroke-width="0.76" x1="-1190.1204720594947" x2="1437.8974063472906" y1="40.6993719640432" y2="40.69937196404343" /><line stroke="black" stroke-width="0.76" x1="-1014.0766550060819" x2="1261.8535892938778" y1="-616.305097637653" y2="697.7038415657397" /><line stroke="black" stroke-width="0.76" x1="-533.1160024577982" x2="780.8929367455942" y1="-1097.2657501859367" y2="1178.6644941140232" /><line stroke="black" stroke-width="0.76" x1="123.88846714389794" x2="123.88846714389794" y1="-1273.3095672393492" y2="1354.7083111674358" /><line stroke="black" stroke-width="0.76" x1="780.8929367455939" x2="-533.116002457798" y1="-1097.2657501859367" y2="1178.6644941140232" /><line stroke="black" stroke-width="0.76" x1="1261.8535892938778" x2="-1014.0766550060819" y1="-616.305097637653" y2="697.7038415657397" /><line stroke="black" stroke-width="0.76" x1="1437.8974063472904" x2="-1190.1204720594944" y1="40.6993719640432" y2="40.69937196404343" /></g><g clip-path="url(#plot_clip)" id="curves"><polyline fill="none" points="123.88846714389796,195.8683168821997 126.6903353227167,201.21829242301627 129.67891482529214,206.51609838991806 132.8532095959225,211.75684806140382 136.21210990028825,216.93567409012616 139.7543927069897,222.04773098190012 143.64149101167786,228.63684011505836 147.76319314749747,235.14341141033123 152.11776558036303,241.56126734301503 156.7033306918266,247.88426639363266 161.5178675189113,254.10630619397244 166.36782057367907,259.23670024704586 171.40796677225916,264.26104070298186 176.63605079074912,269.17425795716446 182.04969840069026,273.97132935975486 187.64641743039584,278.647281819704 192.69686774521787,280.6627820786779 197.83681360670684,282.57351462449435 203.06411975275796,284.3769745434387 208.37659083823854,286.0706998315677 213.77197228740883,287.65227272727276 217.8799696247396,285.5556072510243 221.9422199706648,283.39092651370476 225.95760319916562,281.1591876174321 229.92501863846016,278.861365998818 233.8433853689775,276.498455041789 235.69358485175513,269.9338343086884 237.3488256681161,263.3778635620547 238.80999773471274,256.8353359842968 240.07809867098663,250.31101590630146 241.15423305582135,243.8096365119732 240.74312766288364,235.1781858828262 240.06766294460206,226.6249505601311 239.13047842413465,218.15650749400461 237.93436228948698,209.77936472599012 236.48224978185326,201.49995820999416 234.73349299322288,193.26446151721402 232.7329571987339,185.1408888532276 230.48404939154705,177.13549549067082 227.9903177785045,169.25445130275557 225.25544982716377,161.50383774726038 223.66377308580496,155.47773174042376 221.8937559615131,149.5452722443362 219.94820469030324,143.7108288019915 217.83002335337088,137.97870114361328 215.5422122883914,132.3531171085367 214.1775543845275,127.8905299998959 212.685948014297,123.50436248671079 211.06965991052482,119.19767051782372 209.33102452530656,114.97345394080375 207.47244275778516,110.83465507398682 205.34386578711008,106.66065320285068 203.0960739094954,102.58313664000079 200.73180076446238,98.60497723721983 198.253843604736,94.72898057397094 195.6650618114784,90.95788461730601 191.4158267225745,86.24715111974163 187.0255864195901,81.70109663429469 182.49881274007757,77.32318063190974 177.84005484205966,73.11675634588045 173.05393685262052,69.08506913520864 166.55099702402848,64.34759843447384 159.8998024262362,59.846938580386315 153.1066583153893,55.58678395411156 146.1779530846408,51.57068063972418 139.12015500253435,47.80202465915196 137.96630443711152,46.96722895408826 136.7883437298213,46.1750447069797 135.5874117113664,45.42605238389226 134.36466001007582,44.72080562946358 133.1212524617413,44.05983099910828 132.57209571731795,43.68938506542296 132.01300573764806,43.33919457595713 131.44452333864035,43.0094901736018 130.8671943043953,42.70048977578555 130.28156910745065,42.41239847230711 129.92156108258834,42.203591226742255 129.55633055275914,42.007901336793886 129.18622621234684,41.82544541618896 128.8115991990506,41.65633189484968 128.43280291430605,41.50066096976483 127.92857163510925,41.33926165273645 127.42024863434582,41.19573148269726 126.90830444925997,41.07016136158038 126.3932114954879,40.96263120365317 125.8754438267549,40.87320989848363 125.48087327894892,40.810723848386694 125.08484794158359,40.762071624826866 124.68773062103625,40.727282859691606 124.28988467793296,40.70637873316324 123.89167384262943,40.699371964043316 123.89103211216653,40.699327192355646 123.8903899910763,40.69930481674019 123.88974806552287,40.69930483378548 123.88910692137286,40.69932722644413 123.88846714389794,40.699371964043316 123.88846714389794,40.699371964043316 123.88846714389794,40.699371964043316 123.88846714389794,40.699371964043316 123.88846714389794,40.699371964043316 123.88846714389794,40.699371964043316 123.88909670042673,40.699249590650574 123.88972179376614,40.69910527998125 123.8903418506484,40.69893915388693 123.89095630075764,40.698751347534746 123.89156457701982,40.69854200933967 123.89093312522675,40.6986648552759 123.89030709264665,40.69880943525849 123.8896870445877,40.69897559428174 123.88907354254134,40.69916316424574 123.88846714389794,40.699371964043316 123.88846714389794,40.699371964043316 123.88846714389794,40.699371964043316 123.88846714389794,40.699371964043316 123.88846714389794,40.699371964043316 123.88846714389794,40.699371964043316 123.88846714389794,40.699371964043316 123.88846714389794,40.699371964043316 123.88846714389794,40.699371964043316 123.88846714389794,40.699371964043316 123.88846714389794,40.699371964043316 123.88846714389794,40.699371964043316 123.88846714389794,40.699371964043316 123.88846714389794,40.699371964043316 123.88846714389794,40.699371964043316 123.88846714389794,40.699371964043316 123.88846714389794,40.699371964043316 123.88846714389794,40.699371964043316 123.88846714389794,40.699371964043316 123.88846714389794,40.699371964043316 123.88846714389794,40.699371964043316 123.88846714389794,40.699371964043316 123.88846714389794,40.699371964043316 123.88846714389794,40.699371964043316 123.88846714389794,40.699371964043316 123.88846714389794,40.699371964043316 123.88846714389794,40.699371964043316 123.88846714389794,40.699371964043316 123.88846714389794,40.699371964043316 123.88846714389794,40.699371964043316 123.88846714389794,40.699371964043316 123.88846714389794,40.699371964043316 123.88846714389794,40.699371964043316 123.88846714389794,40.699371964043316 123.88846714389794,40.699371964043316 123.88846714389794,40.699371964043316 123.88846714389794,40.699371964043316 123.88846714389794,40.699371964043316 123.88846714389794,40.699371964043316 123.88846714389794,40.699371964043316 123.88846714389794,40.699371964043316 123.88846714389794,40.699371964043316 123.88846714389794,40.699371964043316 123.88846714389794,40.699371964043316 123.88846714389794,40.699371964043316 123.88846714389794,40.699371964043316 123.88846714389794,40.699371964043316 123.88846714389794,40.699371964043316 123.88846714389794,40.699371964043316 123.88846714389794,40.699371964043316 123.88846714389794,40.699371964043316 123.88846714389794,40.699371964043316 123.88846714389794,40.699371964043316 123.88846714389794,40.699371964043316 123.88846714389794,40.699371964043316 123.88846714389794,40.699371964043316 123.88846714389794,40.699371964043316 123.88846714389794,40.699371964043316 123.88846714389794,40.699371964043316 123.88846714389794,40.699371964043316 123.88846714389794,40.699371964043316 123.88846714389794,40.699371964043316 123.88846714389794,40.699371964043316 123.88846714389794,40.699371964043316 123.88846714389794,40.699371964043316 123.88846714389794,40.699371964043316 123.88846714389794,40.699371964043316 123.88846714389794,40.699371964043316 123.88846714389794,40.699371964043316 123.88846714389794,40.699371964043316 123.88846714389794,40.699371964043316" stroke="black" stroke-width="2.29" /><polyline fill="none" points="123.88846714389796,195.8683168821997 121.25745891813885,191.42973226799293 118.78135518354885,186.94792360480776 116.46083976980916,182.4269451545441 114.29650219305535,177.87086147212162 112.28883751204678,173.2837453487626 110.43127424854556,168.7360097012006 108.72877701584181,164.16514010767904 107.18156449633453,159.5751612173365 105.78976217659014,154.97009786503972 104.55340241445464,150.35397304526663 103.27173218447669,146.76327859572942 102.10931318779258,143.16223542490323 101.0660990585445,139.55390871978446 100.14197282978336,135.94135859741152 99.33674710152438,132.32763857538856 99.2775464945375,126.52785211284538 99.4128397174633,120.75554202083924 99.74162127035599,115.01572198375155 100.26277004745188,109.31337846421599 100.97504998966228,103.65346819784995 101.10187527724865,100.06047325749202 101.34676148807037,96.49205128636186 101.70887267204047,92.95122207358014 102.18730355492586,89.4409834213858 102.78108005625865,85.96430964735987 102.54507546543022,84.45980991473726 102.35498787399358,82.96120459923495 102.21053367150327,81.46963515959303 102.11140344479746,79.98623484680832 102.0572621799018,78.51212815213447 102.26377508527074,76.68890326936474 102.52701440536231,74.88484237200038 102.8463665342644,73.10136545787944 103.22118566312109,71.33987681270924 103.65079414394005,69.60176432003186 103.80463407864032,68.34239668882506 103.99606784127744,67.09747744819128 104.22463321105022,65.86793166322607 104.4898471916202,64.6546725838152 104.79120628415461,63.4586012023512 104.98933704815995,62.44033415014005 105.21701256388245,61.43612309067337 105.47379896654896,60.44668592291962 105.75924638893933,59.47272962120409 106.07288921162797,58.51494989631326 106.41193961413691,57.57625842214032 106.77813090709006,56.65501863375457 107.17095392783514,55.751888474388814 107.58988487677333,54.86751337406145 108.03438560001891,54.00252594016673 108.49293875731921,53.16642503409529 108.9756368874074,52.35055189397381 109.48191069242176,51.55549092608769 110.01117789546029,50.781812776464825 110.56284354833946,50.03007405699851 111.20276218824581,49.25598799878083 111.86539713231579,48.50724492311003 112.55005587978299,47.78439766233223 113.25603362813851,47.08798254809191 113.98261363898304,46.418519151658934 114.84686256919971,45.71121521945529 115.7324891888783,45.03598236715033 116.63863452977519,44.39334618551354 117.56442788001334,43.783812004409846 118.50898723045853,43.20786464457107 118.82810919893848,42.952388479068226 119.15439957982676,42.70886442322624 119.48753755439739,42.477462936255485 119.82719857149785,42.25834690560729 120.1730545143611,42.051671569211386 120.34467347189609,41.91959798111473 120.51971138914705,41.79394706055982 120.69799601361792,41.674796876878 120.8793534274326,41.56222143746326 121.06360813674674,41.45629065374121 121.21822412265807,41.36513832363497 121.37511029379432,41.279626113679775 121.53411666623202,41.19980460654214 121.69509219758696,41.12572086416211 121.85788486427847,41.05741840648867 122.10088876914122,40.982496564465386 122.3458134412729,40.91617780306692 122.59243241503684,40.85850501914141 122.84051833573336,40.809515822123025 123.08984307522553,40.76924251647106 123.24868966898794,40.744109563217 123.40812153454877,40.72454581071768 123.56799261417127,40.710563181223826 123.72815662711079,40.7021701945225 123.88846714389794,40.699371964043316 123.88846714389794,40.699371964043316 123.88846714389794,40.699371964043316 123.88846714389794,40.699371964043316 123.88846714389794,40.699371964043316 123.88846714389794,40.699371964043316 123.88846714389794,40.699371964043316 123.88846714389794,40.699371964043316 123.88846714389794,40.699371964043316 123.88846714389794,40.699371964043316 123.88846714389794,40.699371964043316 123.88846714389794,40.699371964043316 123.88846714389794,40.699371964043316 123.88846714389794,40.699371964043316 123.88846714389794,40.699371964043316 123.88846714389794,40.699371964043316 123.88846714389794,40.699371964043316 123.88846714389794,40.699371964043316 123.88846714389794,40.699371964043316 123.88846714389794,40.699371964043316 123.88846714389794,40.699371964043316 123.88846714389794,40.699371964043316 123.88846714389794,40.699371964043316 123.88846714389794,40.699371964043316 123.88846714389794,40.699371964043316 123.88846714389794,40.699371964043316 123.88846714389794,40.699371964043316 123.88846714389794,40.699371964043316 123.88846714389794,40.699371964043316 123.88846714389794,40.699371964043316 123.88846714389794,40.699371964043316 123.88846714389794,40.699371964043316 123.88846714389794,40.699371964043316 123.88846714389794,40.699371964043316 123.88846714389794,40.699371964043316 123.88846714389794,40.699371964043316 123.88846714389794,40.699371964043316 123.88846714389794,40.699371964043316 123.88846714389794,40.699371964043316 123.88846714389794,40.699371964043316 123.88846714389794,40.699371964043316 123.88846714389794,40.699371964043316 123.88846714389794,40.699371964043316 123.88846714389794,40.699371964043316 123.88846714389794,40.699371964043316 123.88846714389794,40.699371964043316 123.88846714389794,40.699371964043316 123.88846714389794,40.699371964043316 123.88846714389794,40.699371964043316 123.88846714389794,40.699371964043316 123.88846714389794,40.699371964043316 123.88846714389794,40.699371964043316 123.88846714389794,40.699371964043316 123.88846714389794,40.699371964043316 123.88846714389794,40.699371964043316 123.88846714389794,40.699371964043316 123.88846714389794,40.699371964043316 123.88846714389794,40.699371964043316 123.88846714389794,40.699371964043316 123.88846714389794,40.699371964043316 123.88846714389794,40.699371964043316 123.88846714389794,40.699371964043316 123.88846714389794,40.699371964043316 123.88846714389794,40.699371964043316 123.88846714389794,40.699371964043316 123.88846714389794,40.699371964043316 123.88846714389794,40.699371964043316 123.88846714389794,40.699371964043316 123.88846714389794,40.699371964043316 123.88846714389794,40.699371964043316 123.88846714389794,40.699371964043316 123.88846714389794,40.699371964043316 123.88846714389794,40.699371964043316 123.88846714389794,40.699371964043316 123.88846714389794,40.699371964043316 123.88846714389794,40.699371964043316 123.88846714389794,40.699371964043316 123.88846714389794,40.699371964043316 123.88846714389794,40.699371964043316 123.88846714389794,40.699371964043316 123.88846714389794,40.699371964043316 123.88846714389794,40.699371964043316 123.88846714389794,40.699371964043316 123.88846714389794,40.699371964043316 123.88846714389794,40.699371964043316 123.88846714389794,40.699371964043316 123.88846714389794,40.699371964043316 123.88846714389794,40.699371964043316 123.88846714389794,40.699371964043316 123.88846714389794,40.699371964043316 123.88846714389794,40.699371964043316" stroke="black" stroke-width="2.29" /><polyline fill="none" points="123.88846714389796,195.8683168821997 126.58980609452111,195.45897679692118 129.27685915686328,195.00273043495778 131.94881398029986,194.49995169992584 134.60486691237298,193.95102852650953 137.24422324046907,193.356362690775 139.86083492626423,192.6663002423587 142.45744229005464,191.93153836679346 145.033284455593,191.15256484902397 147.58761147423252,190.32988037619558 150.119684542805,189.46399830490464 152.49820380670988,187.8837076085654 154.82961872388194,186.26604530917294 157.1133552025141,184.61217301573078 159.34886532648898,182.92326089036848 161.5356274772793,181.20048708891406 163.678096205673,179.46229906914957 165.77145406101934,177.69244939184685 167.81525413556034,175.8921211292866 169.80907582689875,174.06250321070908 171.75252490459945,172.2047898650424 173.5954741558299,170.1905523694854 175.38283218450812,168.15239790107714 177.11433169345787,166.0916508861387 178.78973463758493,164.00963768881627 180.40883220823724,161.90768599424555 181.80163332156016,159.43895905612436 183.12569811515576,156.95898378526888 184.38106597774083,154.46940354843025 185.56781265308516,151.97185677650302 186.6860500773846,149.46797619736247 187.31840881414595,146.26452245252716 187.8584630461037,143.07276522895768 188.3068247181387,139.89494381909637 188.6641557004277,136.73327952649163 188.9311673436172,133.58997460739732 188.59292499130956,129.75741791910977 188.14131443829325,125.9657802404376 187.57767509725844,122.21784074495196 186.90340866917046,118.51634407282486 186.119978341625,114.86399900650127 184.19658131998642,110.07592121129298 182.12599093018247,105.37869471375362 179.91081190590606,100.77598154903595 177.55373166335895,96.2713801715347 175.05751886956557,91.86842368971091 170.66339058286474,85.86939047151381 166.07706189670927,80.04087303398805 161.30317299654251,74.38772442997853 156.34647441856833,68.91468722385684 151.21182459858753,63.626391126798275 149.5882188418215,61.510620546098046 147.89970065061212,59.45900357753556 146.1480233292253,57.47315068098744 144.3349764317609,55.554630510932334 142.4623848344546,53.70496914505777 141.25627603682628,52.41410698121508 140.01120340288665,51.169599313751384 138.72842259750644,49.97240531070293 137.40921076212362,48.823454344203306 136.0548658557096,47.72364553537606 135.2991527361058,47.024418271085814 134.5230061979331,46.35385668044612 133.72719915569417,45.71245631480898 132.912515514704,45.10069443528008 132.0797497673604,44.519029781475815 132.93875650082612,44.72882039609025 133.80733934463893,44.9096834184594 134.68474840683163,45.06135273576121 135.57022749799083,45.18357962988214 136.46301451052992,45.276132914867794 135.0064830712282,44.527611852817394 133.52812239432038,43.83148581980047 132.02932038260843,43.18828057236917 130.51147649771622,42.59848933608814 128.9760010465798,42.062572564732854 129.5908143648561,42.12112680816316 130.2090409530409,42.158591406235736 130.83013120214795,42.174868208533304 131.4535331721258,42.169871837257496 132.07869287048126,42.143529737732514 131.06411839451596,41.83588347133648 130.04161675191887,41.56414074600324 129.01213292611948,41.32847901732661 127.97661558329591,41.12905367941878 126.93601658995186,40.96599799210768 126.34457287007743,40.871119607271204 125.75092718654776,40.79697935888195 125.15562343443719,40.74362203677524 124.55920634613538,40.71107976036823 123.96222121472226,40.699371964043316 123.94810265614277,40.69833102230505 123.93397452711912,40.69778281120367 123.91984972370875,40.69772727272724 123.9057411357205,40.698164048865614 123.89166164017263,40.69909248183357 123.89101844957821,40.69910381101082 123.89037682178919,40.69913748508194 123.8897373404419,40.699193449560745 123.88910058768772,40.69927163640316 123.88846714389794,40.699371964043316 123.88846714389794,40.699371964043316 123.88846714389794,40.699371964043316 123.88846714389794,40.699371964043316 123.88846714389794,40.699371964043316 123.88846714389794,40.699371964043316 123.88846714389794,40.699371964043316 123.88846714389794,40.699371964043316 123.88846714389794,40.699371964043316 123.88846714389794,40.699371964043316 123.88846714389794,40.699371964043316 123.88846714389794,40.699371964043316 123.88846714389794,40.699371964043316 123.88846714389794,40.699371964043316 123.88846714389794,40.699371964043316 123.88846714389794,40.699371964043316 123.88846714389794,40.699371964043316 123.88846714389794,40.699371964043316 123.88846714389794,40.699371964043316 123.88846714389794,40.699371964043316 123.88846714389794,40.699371964043316 123.88846714389794,40.699371964043316 123.88846714389794,40.699371964043316 123.88846714389794,40.699371964043316 123.88846714389794,40.699371964043316 123.88846714389794,40.699371964043316 123.88846714389794,40.699371964043316 123.88846714389794,40.699371964043316 123.88846714389794,40.699371964043316 123.88846714389794,40.699371964043316 123.88846714389794,40.699371964043316 123.88846714389794,40.699371964043316 123.88846714389794,40.699371964043316 123.88846714389794,40.699371964043316 123.88846714389794,40.699371964043316 123.88846714389794,40.699371964043316 123.88846714389794,40.699371964043316 123.88846714389794,40.699371964043316 123.88846714389794,40.699371964043316 123.88846714389794,40.699371964043316 123.88846714389794,40.699371964043316 123.88846714389794,40.699371964043316 123.88846714389794,40.699371964043316 123.88846714389794,40.699371964043316 123.88846714389794,40.699371964043316 123.88846714389794,40.699371964043316 123.88846714389794,40.699371964043316 123.88846714389794,40.699371964043316 123.88846714389794,40.699371964043316 123.88846714389794,40.699371964043316 123.88846714389794,40.699371964043316 123.88846714389794,40.699371964043316 123.88846714389794,40.699371964043316 123.88846714389794,40.699371964043316 123.88846714389794,40.699371964043316 123.88846714389794,40.699371964043316 123.88846714389794,40.699371964043316 123.88846714389794,40.699371964043316 123.88846714389794,40.699371964043316 123.88846714389794,40.699371964043316 123.88846714389794,40.699371964043316 123.88846714389794,40.699371964043316 123.88846714389794,40.699371964043316 123.88846714389794,40.699371964043316 123.88846714389794,40.699371964043316 123.88846714389794,40.699371964043316 123.88846714389794,40.699371964043316 123.88846714389794,40.699371964043316 123.88846714389794,40.699371964043316 123.88846714389794,40.699371964043316 123.88846714389794,40.699371964043316 123.88846714389794,40.699371964043316 123.88846714389794,40.699371964043316 123.88846714389794,40.699371964043316 123.88846714389794,40.699371964043316 123.88846714389794,40.699371964043316 123.88846714389794,40.699371964043316 123.88846714389794,40.699371964043316 123.88846714389794,40.699371964043316 123.88846714389794,40.699371964043316 123.88846714389794,40.699371964043316" stroke="black" stroke-dasharray="2.03,2.03" stroke-width="1.78" /><polyline fill="none" points="123.88846714389796,195.8683168821997 121.18712819327475,195.45897679692118 118.50007513093264,195.00273043495778 115.82812030749608,194.49995169992584 113.17206737542293,193.95102852650953 110.53271104732684,193.356362690775 107.91609936153169,192.6663002423587 105.31949199774128,191.9315383667935 102.74364983220285,191.15256484902395 100.1893228135634,190.32988037619558 97.65724974499085,189.46399830490464 95.27873048108603,187.8837076085654 92.9473155639139,186.26604530917294 90.66357908528181,184.6121730157308 88.42806896130695,182.92326089036848 86.24130681051662,181.20048708891406 84.09883808212292,179.46229906914957 82.00548022677653,177.69244939184685 79.96168015223559,175.89212112928664 77.96785846089712,174.06250321070908 76.02440938319647,172.2047898650424 74.18146013196593,170.1905523694854 72.3941021032878,168.15239790107717 70.66260259433804,166.0916508861387 68.98719965021101,164.00963768881627 67.36810207955868,161.90768599424555 65.9753009662357,159.43895905612436 64.65123617264017,156.9589837852689 63.39586831005504,154.46940354843025 62.209121634710755,151.97185677650302 61.09088421041124,149.46797619736245 60.458525473649956,146.2645224525272 59.91847124169219,143.07276522895768 59.47010956965719,139.8949438190964 59.11277858736822,136.73327952649166 58.84576694417866,133.58997460739732 59.184009296486344,129.75741791910977 59.63561984950262,125.96578024043757 60.199259190537454,122.21784074495196 60.8735256186254,118.51634407282486 61.6569559461709,114.86399900650127 63.58035296780948,110.07592121129298 65.65094335761344,105.37869471375367 67.86612238188985,100.77598154903595 70.22320262443692,96.27138017153464 72.71941541823033,91.86842368971091 77.11354370493115,85.86939047151381 81.69987239108661,80.04087303398805 86.47376129125337,74.38772442997853 91.43045986922756,68.91468722385684 96.56510968920836,63.62639112679833 98.18871544597441,61.510620546098046 99.87723363718375,59.45900357753556 101.62891095857057,57.47315068098744 103.44195785603499,55.554630510932334 105.31454945334126,53.70496914505777 106.5206582509696,52.41410698121508 107.76573088490923,51.169599313751384 109.04851169028943,49.97240531070293 110.36772352567225,48.823454344203306 111.72206843208629,47.72364553537606 112.47778155169006,47.024418271085814 113.25392808986278,46.35385668044612 114.04973513210173,45.71245631480898 114.86441877309186,45.10069443528008 115.69718452043548,44.519029781475815 114.83817778696977,44.72882039609025 113.96959494315696,44.9096834184594 113.09218588096427,45.06135273576121 112.20670678980505,45.18357962988214 111.31391977726597,45.276132914867794 112.77045121656771,44.527611852817394 114.2488118934755,43.83148581980047 115.74761390518745,43.18828057236917 117.26545779007967,42.59848933608814 118.80093324121609,42.062572564732854 118.18611992293977,42.12112680816316 117.56789333475498,42.158591406235736 116.94680308564794,42.174868208533304 116.3234011156701,42.169871837257496 115.69824141731462,42.143529737732514 116.71281589327994,41.83588347133648 117.73531753587702,41.56414074600324 118.7648013616764,41.32847901732661 119.80031870449997,41.12905367941878 120.84091769784402,40.96599799210768 121.43236141771845,40.871119607271204 122.02600710124813,40.79697935888195 122.6213108533587,40.74362203677524 123.2177279416605,40.71107976036823 123.81471307307362,40.699371964043316 123.82883163165312,40.69833102230505 123.84295976067676,40.69778281120367 123.85708456408713,40.69772727272724 123.87119315207538,40.698164048865614 123.88527264762325,40.69909248183357 123.88591583821768,40.69910381101082 123.88655746600669,40.69913748508194 123.88719694735398,40.699193449560745 123.88783370010817,40.69927163640316 123.88846714389794,40.699371964043316 123.88846714389794,40.699371964043316 123.88846714389794,40.699371964043316 123.88846714389794,40.699371964043316 123.88846714389794,40.699371964043316 123.88846714389794,40.699371964043316 123.88846714389794,40.699371964043316 123.88846714389794,40.699371964043316 123.88846714389794,40.699371964043316 123.88846714389794,40.699371964043316 123.88846714389794,40.699371964043316 123.88846714389794,40.699371964043316 123.88846714389794,40.699371964043316 123.88846714389794,40.699371964043316 123.88846714389794,40.699371964043316 123.88846714389794,40.699371964043316 123.88846714389794,40.699371964043316 123.88846714389794,40.699371964043316 123.88846714389794,40.699371964043316 123.88846714389794,40.699371964043316 123.88846714389794,40.699371964043316 123.88846714389794,40.699371964043316 123.88846714389794,40.699371964043316 123.88846714389794,40.699371964043316 123.88846714389794,40.699371964043316 123.88846714389794,40.699371964043316 123.88846714389794,40.699371964043316 123.88846714389794,40.699371964043316 123.88846714389794,40.699371964043316 123.88846714389794,40.699371964043316 123.88846714389794,40.699371964043316 123.88846714389794,40.699371964043316 123.88846714389794,40.699371964043316 123.88846714389794,40.699371964043316 123.88846714389794,40.699371964043316 123.88846714389794,40.699371964043316 123.88846714389794,40.699371964043316 123.88846714389794,40.699371964043316 123.88846714389794,40.699371964043316 123.88846714389794,40.699371964043316 123.88846714389794,40.699371964043316 123.88846714389794,40.699371964043316 123.88846714389794,40.699371964043316 123.88846714389794,40.699371964043316 123.88846714389794,40.699371964043316 123.88846714389794,40.699371964043316 123.88846714389794,40.699371964043316 123.88846714389794,40.699371964043316 123.88846714389794,40.699371964043316 123.88846714389794,40.699371964043316 123.88846714389794,40.699371964043316 123.88846714389794,40.699371964043316 123.88846714389794,40.699371964043316 123.88846714389794,40.699371964043316 123.88846714389794,40.699371964043316 123.88846714389794,40.699371964043316 123.88846714389794,40.699371964043316 123.88846714389794,40.699371964043316 123.88846714389794,40.699371964043316 123.88846714389794,40.699371964043316 123.88846714389794,40.699371964043316 123.88846714389794,40.699371964043316 123.88846714389794,40.699371964043316 123.88846714389794,40.699371964043316 123.88846714389794,40.699371964043316 123.88846714389794,40.699371964043316 123.88846714389794,40.699371964043316 123.88846714389794,40.699371964043316 123.88846714389794,40.699371964043316 123.88846714389794,40.699371964043316 123.88846714389794,40.699371964043316 123.88846714389794,40.699371964043316 123.88846714389794,40.699371964043316 123.88846714389794,40.699371964043316 123.88846714389794,40.699371964043316 123.88846714389794,40.699371964043316 123.88846714389794,40.699371964043316 123.88846714389794,40.699371964043316 123.88846714389794,40.699371964043316 123.88846714389794,40.699371964043316 123.88846714389794,40.699371964043316" stroke="black" stroke-dasharray="2.03,2.03" stroke-width="1.78" /></g><rect fill="white" height="28.35" stroke="none" width="300" x="0" y="0" /><line stroke="black" stroke-width="0.76" x1="0" x2="300" y1="28.35" y2="28.35" /><text font-family="Arial" font-size="15.75" text-anchor="start" x="10.16" y="19.6875">LED</text><text font-family="Arial" font-size="15.75" text-anchor="middle" x="150.0" y="19.6875">TEST</text><text font-family="Arial" font-size="15.75" text-anchor="end" x="289.84" y="19.6875">cd / klm</text><rect fill="none" height="299.24" stroke="black" stroke-width="0.76" width="299.24" x="0.38" y="0.38" /></svg>