<?xml version="1.0" encoding="utf-8" ?>
<svg baseProfile="full" height="400" version="1.1" width="400" xmlns="http://www.w3.org/2000/svg" xmlns:ev="http://www.w3.org/2001/xml-events" xmlns:xlink="http://www.w3.org/1999/xlink"><defs><clipPath id="plot_clip"><rect height="362.2" width="400.0" x="0" y="37.800000000000004" /></clipPath></defs><g clip-path="url(#plot_clip)" id="grid"><circle cx="165.1846228585306" cy="54.26582928539107" fill="none" r="85.51196617311452" stroke="black" stroke-width="1.02" /><text font-family="Arial" font-size="14.23" text-anchor="start" x="167.8946228585306" y="153.3277954585056">200</text><circle cx="165.1846228585306" cy="54.26582928539107" fill="none" r="171.02393234622903" stroke="black" stroke-width="1.02" /><text font-family="Arial" font-size="14.23" text-anchor="start" x="167.89462285853062" y="238.83976163162012">400</text><circle cx="165.1846228585306" cy="54.26582928539107" fill="none" r="256.53589851934356" stroke="black" stroke-width="1.02" /><text font-family="Arial" font-size="14.23" text-anchor="start" x="167.89462285853062" y="324.35172780473465">600</text><circle cx="165.1846228585306" cy="54.26582928539107" fill="none" r="342.04786469245806" stroke="black" stroke-width="1.02" /><text font-family="Arial" font-size="14.23" text-anchor="start" x="167.89462285853065" y="409.86369397784915">800</text><circle cx="165.1846228585306" cy="54.26582928539107" fill="none" r="427.55983086557256" stroke="black" stroke-width="1.02" /><text font-family="Arial" font-size="14.23" text-anchor="start" x="167.89462285853065" y="495.37566015096365">1000</text><line stroke="black" stroke-width="1.02" x1="-1586.8272960793263" x2="1917.1965417963875" y1="54.26582928539096" y2="54.265829285391185" /><line stroke="black" stroke-width="1.02" x1="-1352.1022066747757" x2="1682.471452391837" y1="-821.7401301835373" y2="930.2717887543195" /><line stroke="black" stroke-width="1.02" x1="-710.8213366103976" x2="1041.1905823274587" y1="-1463.0210002479155" y2="1571.5526588186976" /><line stroke="black" stroke-width="1.02" x1="165.1846228585306" x2="165.1846228585306" y1="-1697.7460896524653" y2="1806.2777482232475" /><line stroke="black" stroke-width="1.02" x1="1041.1905823274587" x2="-710.8213366103976" y1="-1463.0210002479155" y2="1571.5526588186976" /><line stroke="black" stroke-width="1.02" x1="1682.4714523918371" x2="-1352.102206674776" y1="-821.7401301835373" y2="930.2717887543195" /><line stroke="black" stroke-width="1.02" x1="1917.1965417963872" x2="-1586.827296079326" y1="54.26582928539096" y2="54.265829285391185" /></g><g clip-path="url(#plot_clip)" id="curves"><polyline fill="none" points="165.18462285853062,261.157755842933 168.9204470969556,268.29105656402174 172.9052197670562,275.3547978532241 177.13761279456332,282.34246408187175 181.61614653371768,289.2475654535016 186.33919027598625,296.0636413092002 191.52198801557049,304.8491201534112 197.01759086332999,313.52454854710834 202.82368744048404,322.08168979068677 208.93777425576883,330.51235519151027 215.35715669188173,338.80840825863 221.82376076490544,345.6489336627278 228.54395569634556,352.3480542706425 235.5147343876655,358.89901060955265 242.73293120092035,365.2951058130065 250.1952232405278,371.5297090929387 256.9291569936238,374.2170427715705 263.7824181422758,376.7646861659925 270.752159670344,379.16929939125157 277.83545445098474,381.4275997754236 285.0292963832118,383.53636363636366 290.5066261663195,380.74080966803245 295.92295996088643,377.8545686849397 301.2768042655541,374.87891682324283 306.5666915179469,371.81515466509063 311.79118049197,368.6646067223853 314.2581131356735,359.91177907825124 316.4651008908215,351.1704847494063 318.41333031295034,342.4471146457291 320.1041315613155,333.748021208402 321.5389774077618,325.07951534929765 320.99083688384485,313.570914510435 320.0902172594694,302.1666007468415 318.8406378988462,290.87534332533954 317.2458163859826,279.70581963465355 315.30966637580434,268.66661094665886 312.9779906576305,257.68594868961867 310.3106095983119,246.8545184709702 307.31206585539604,236.18066065422778 303.9870903713393,225.67260173700745 300.3405997695517,215.33845032968057 298.21836411440665,207.30364232056507 295.8583412820175,199.39369632578163 293.2642729204043,191.61443840265537 290.4400311378278,183.97160152481771 287.38961638452184,176.4708228113823 285.57007251270335,170.5207066665279 283.58126401906264,164.67248331561441 281.42621321403306,158.93022735709835 279.1080327004088,153.29793858773837 276.62992367704686,147.77954009864914 273.7918210494801,142.21420427046758 270.79476521266054,136.7775155200011 267.64240101928317,131.4733029829598 264.338458139648,126.3053074319613 260.88674908197123,121.27717948974134 255.22110229676602,114.99620149298886 249.36744855945346,108.93479551239295 243.33175032010342,103.09757417587969 237.1200731227462,97.48900846117397 230.73858247016068,92.11342551361156 222.06799603203794,85.79679791263186 213.19973656831493,79.79591810718182 204.14221108718573,74.11571193881542 194.90393744618774,68.76090751963227 185.49354000337914,63.7360328788693 183.95507258281538,62.62297193878435 182.3844583064284,61.56672627597293 180.7832156151552,60.568069845189704 179.1528800134344,59.62774083928479 177.49500328232173,58.74644133214439 176.76279428975727,58.25251342056395 176.01734098353074,57.78559276794282 175.25936445152047,57.34598689813577 174.48959240586038,56.933986367714105 173.7087588099342,56.54986462974278 173.22874811011778,56.271454968989694 172.74177407034554,56.01053511572518 172.24830161646244,55.7672605549186 171.74879893206744,55.54177585979959 171.24373721907475,55.33421462635311 170.57142884681235,55.11901553698197 169.89366484579443,54.92764197692974 169.2110725990133,54.7602151487739 168.52428199398386,54.61684160487095 167.8339251023399,54.497613197978175 167.30783103859858,54.41429846451563 166.77979725544478,54.34942883310253 166.250307494715,54.30304381292216 165.71984623724396,54.27517164421766 165.18889845683924,54.26582928539107 165.18804281622204,54.26576958980751 165.1871866547684,54.265739755653605 165.18633075403048,54.265739778380684 165.18547589516382,54.26576963525883 165.1846228585306,54.26582928539107 165.1846228585306,54.26582928539107 165.1846228585306,54.26582928539107 165.1846228585306,54.26582928539107 165.1846228585306,54.26582928539107 165.1846228585306,54.26582928539107 165.18546226723564,54.26566612086747 165.18629572502152,54.265473706641664 165.1871224675312,54.2652522051826 165.18794173434353,54.26500179671296 165.18875276935975,54.264722679119636 165.18791083363567,54.2648864737012 165.18707612352887,54.26507924701132 165.1862493927836,54.265300792375676 165.18543139005513,54.26555088566101 165.1846228585306,54.26582928539107 165.1846228585306,54.26582928539107 165.1846228585306,54.26582928539107 165.1846228585306,54.26582928539107 165.1846228585306,54.26582928539107 165.1846228585306,54.26582928539107 165.1846228585306,54.26582928539107 165.1846228585306,54.26582928539107 165.1846228585306,54.26582928539107 165.1846228585306,54.26582928539107 165.1846228585306,54.26582928539107 165.1846228585306,54.26582928539107 165.1846228585306,54.26582928539107 165.1846228585306,54.26582928539107 165.1846228585306,54.26582928539107 165.1846228585306,54.26582928539107 165.1846228585306,54.26582928539107 165.1846228585306,54.26582928539107 165.1846228585306,54.26582928539107 165.1846228585306,54.26582928539107 165.1846228585306,54.26582928539107 165.1846228585306,54.26582928539107 165.1846228585306,54.26582928539107 165.1846228585306,54.26582928539107 165.1846228585306,54.26582928539107 165.1846228585306,54.26582928539107 165.1846228585306,54.26582928539107 165.1846228585306,54.26582928539107 165.1846228585306,54.26582928539107 165.1846228585306,54.26582928539107 165.1846228585306,54.26582928539107 165.1846228585306,54.26582928539107 165.1846228585306,54.26582928539107 165.1846228585306,54.26582928539107 165.1846228585306,54.26582928539107 165.1846228585306,54.26582928539107 165.1846228585306,54.26582928539107 165.1846228585306,54.26582928539107 165.1846228585306,54.26582928539107 165.1846228585306,54.26582928539107 165.1846228585306,54.26582928539107 165.1846228585306,54.26582928539107 165.1846228585306,54.26582928539107 165.1846228585306,54.26582928539107 165.1846228585306,54.26582928539107 165.1846228585306,54.26582928539107 165.1846228585306,54.26582928539107 165.1846228585306,54.26582928539107 165.1846228585306,54.26582928539107 165.1846228585306,54.26582928539107 165.1846228585306,54.26582928539107 165.1846228585306,54.26582928539107 165.1846228585306,54.26582928539107 165.1846228585306,54.26582928539107 165.1846228585306,54.26582928539107 165.1846228585306,54.26582928539107 165.1846228585306,54.26582928539107 165.1846228585306,54.26582928539107 165.1846228585306,54.26582928539107 165.1846228585306,54.26582928539107 165.1846228585306,54.26582928539107 165.1846228585306,54.26582928539107 165.1846228585306,54.26582928539107 165.1846228585306,54.26582928539107 165.1846228585306,54.26582928539107 165.1846228585306,54.26582928539107 165.1846228585306,54.26582928539107 165.1846228585306,54.26582928539107 165.1846228585306,54.26582928539107 165.1846228585306,54.26582928539107 165.1846228585306,54.26582928539107" stroke="black" stroke-width="3.05" /><polyline fill="none" points="165.18462285853062,261.157755842933 161.6766118908518,255.2396430239906 158.3751402447318,249.26389813974373 155.28111969307886,243.23592687272549 152.3953362574071,237.16114862949553 149.71845001606238,231.04499379835016 147.24169899806074,224.98134626826752 144.97170268778908,218.88685347690543 142.90875266177937,212.76688162311538 141.05301623545353,206.62679715338632 139.40453655260617,200.47196406035556 137.69564291263558,195.6843714609726 136.14575091705677,190.8829805665377 134.754798744726,186.071878293046 133.52263043971115,181.25514479654873 132.44899613536583,176.43685143385144 132.37006199271667,168.70380281712718 132.55045295661773,161.00738936111904 132.98882836047466,153.35429597833544 133.6836933966025,145.75117128562138 134.63339998621638,138.20462426379999 134.80250036966487,133.41396434332273 135.12901531742716,128.65606838181589 135.6118302293873,123.93496276477356 136.24973807323448,119.25464456184778 137.04144007501154,114.61907952981318 136.72676728724028,112.61307988631637 136.47331716532477,110.61493946564667 136.28071156200437,108.62618021279076 136.1485379263966,106.64831312907779 136.07634957320238,104.68283753617936 136.3517001136943,102.2518710258197 136.70268587381642,99.84645649600054 137.12848871235252,97.46848727717264 137.62824755082812,95.11983575027904 138.20105885858672,92.8023524267092 138.40617877152042,91.12319558510012 138.66142378836992,89.46330326425505 138.96617761473362,87.82390888430149 139.3197962554936,86.20623011175365 139.72160837887282,84.6114682698016 139.98578273087995,83.25377886685345 140.28935008517658,81.91483078756448 140.6317319553986,80.59558123055956 141.01232851858578,79.29697282827215 141.4305189488373,78.01993319508438 141.88258615218254,76.76834456285377 142.3708412094534,75.54002484500614 142.89460523711352,74.3358512991851 143.45317983569777,73.15668449874863 144.04584746669187,72.00336792022233 144.6572516764256,70.88856671212704 145.30084918320986,69.80073585863181 145.97588092322903,68.74065456811695 146.6815705272804,67.70908370195309 147.4171247311193,66.70676540933135 148.27034958432776,65.67465066504116 149.15386284308772,64.67632656414673 150.066741173044,63.71253021644298 151.008044837518,62.78397673078921 151.97681818531072,61.89135886887856 153.1291500922663,60.94828695927372 154.30998558517106,60.047976489533816 155.51817937303358,59.19112824735145 156.75257050668446,58.378416005879835 158.0119829739447,57.61048619276146 158.43747893191798,57.269851305424304 158.87253277310234,56.94515256430167 159.31671673919652,56.63661724834065 159.76959809533045,56.34446254080978 160.23073935248146,56.06889542561526 160.45956462919477,55.89279730815297 160.69294851886272,55.72526274741306 160.93066135149056,55.56639583583739 161.17247123657683,55.41629524995101 161.41814418232897,55.27505420498834 161.62429883021076,55.15351776484663 161.83348039172577,55.03950148490633 162.04548888830936,54.93307280872289 162.26012293011595,54.83429448554954 162.47717981903799,54.74322454198494 162.80118502552162,54.6433287526205 163.12775125503052,54.55490373742264 163.45657655338243,54.47800669218861 163.78735778097783,54.412687762830664 164.11979076696738,54.35899002196145 164.33158622531727,54.32547941762271 164.54416204606503,54.29939441429024 164.7573234855617,54.280750908298494 164.97087550281438,54.26956025936334 165.1846228585306,54.26582928539107 165.1846228585306,54.26582928539107 165.1846228585306,54.26582928539107 165.1846228585306,54.26582928539107 165.1846228585306,54.26582928539107 165.1846228585306,54.26582928539107 165.1846228585306,54.26582928539107 165.1846228585306,54.26582928539107 165.1846228585306,54.26582928539107 165.1846228585306,54.26582928539107 165.1846228585306,54.26582928539107 165.1846228585306,54.26582928539107 165.1846228585306,54.26582928539107 165.1846228585306,54.26582928539107 165.1846228585306,54.26582928539107 165.1846228585306,54.26582928539107 165.1846228585306,54.26582928539107 165.1846228585306,54.26582928539107 165.1846228585306,54.26582928539107 165.1846228585306,54.26582928539107 165.1846228585306,54.26582928539107 165.1846228585306,54.26582928539107 165.1846228585306,54.26582928539107 165.1846228585306,54.26582928539107 165.1846228585306,54.26582928539107 165.1846228585306,54.26582928539107 165.1846228585306,54.26582928539107 165.1846228585306,54.26582928539107 165.1846228585306,54.26582928539107 165.1846228585306,54.26582928539107 165.1846228585306,54.26582928539107 165.1846228585306,54.26582928539107 165.1846228585306,54.26582928539107 165.1846228585306,54.26582928539107 165.1846228585306,54.26582928539107 165.1846228585306,54.26582928539107 165.1846228585306,54.26582928539107 165.1846228585306,54.26582928539107 165.1846228585306,54.26582928539107 165.1846228585306,54.26582928539107 165.1846228585306,54.26582928539107 165.1846228585306,54.26582928539107 165.1846228585306,54.26582928539107 165.1846228585306,54.26582928539107 165.1846228585306,54.26582928539107 165.1846228585306,54.26582928539107 165.1846228585306,54.26582928539107 165.1846228585306,54.26582928539107 165.1846228585306,54.26582928539107 165.1846228585306,54.26582928539107 165.1846228585306,54.26582928539107 165.1846228585306,54.26582928539107 165.1846228585306,54.26582928539107 165.1846228585306,54.26582928539107 165.1846228585306,54.26582928539107 165.1846228585306,54.26582928539107 165.1846228585306,54.26582928539107 165.1846228585306,54.26582928539107 165.1846228585306,54.26582928539107 165.1846228585306,54.26582928539107 165.1846228585306,54.26582928539107 165.1846228585306,54.26582928539107 165.1846228585306,54.26582928539107 165.1846228585306,54.26582928539107 165.1846228585306,54.26582928539107 165.1846228585306,54.26582928539107 165.1846228585306,54.26582928539107 165.1846228585306,54.26582928539107 165.1846228585306,54.26582928539107 165.1846228585306,54.26582928539107 165.1846228585306,54.26582928539107 165.1846228585306,54.26582928539107 165.1846228585306,54.26582928539107 165.1846228585306,54.26582928539107 165.1846228585306,54.26582928539107 165.1846228585306,54.26582928539107 165.1846228585306,54.26582928539107 165.1846228585306,54.26582928539107 165.1846228585306,54.26582928539107 165.1846228585306,54.26582928539107 165.1846228585306,54.26582928539107 165.1846228585306,54.26582928539107 165.1846228585306,54.26582928539107 165.1846228585306,54.26582928539107 165.1846228585306,54.26582928539107 165.1846228585306,54.26582928539107 165.1846228585306,54.26582928539107 165.1846228585306,54.26582928539107 165.1846228585306,54.26582928539107 165.1846228585306,54.26582928539107 165.1846228585306,54.26582928539107" stroke="black" stroke-width="3.05" /><polyline fill="none" points="165.18462285853062,261.157755842933 168.78640812602814,260.61196906256157 172.36914554248438,260.00364057994375 175.93175197373313,259.3332689332345 179.473155883164,258.6013713686794 182.99229765395876,257.80848358770004 186.48111323501897,256.88840032314494 189.9432563867395,255.90871782239134 193.37771260745734,254.87008646536535 196.78348196564338,253.77317383492746 200.15957939040666,252.61866440653955 203.3309384089465,250.5116101447539 206.4394916318426,248.3547270788973 209.48447360335214,246.1495640209744 212.46515376865196,243.89768118715799 215.3808366363724,241.60064945188543 218.237461607564,239.28306542553278 221.02860541469244,236.92326585579588 223.75367218074712,234.5228281723822 226.41210110253166,232.0833376142788 229.00336653946596,229.60638648672318 231.46063220777322,226.92073649264725 233.84377624601083,224.20319720143624 236.15244225794382,221.45553451485162 238.38631285011323,218.6795169184217 240.54510961098302,215.87691465899414 242.4021777620802,212.58527874149917 244.16759748687434,209.27864504702524 245.84142130365444,205.9592047312404 247.42375020411353,202.62914236867073 248.91473343651282,199.29063492981666 249.75787841886125,195.01936327003625 250.4779507281383,190.76368697194363 251.07576629085162,186.5265917587952 251.55220760057026,182.31103936865554 251.90822312482294,178.11996614319645 251.4572333217461,173.00989055881308 250.85508591772432,167.95437365391683 250.10356679634458,162.9571209932693 249.2045448922273,158.02179209709985 248.15997112216664,153.15199867533508 245.5954417599819,146.7678949483907 242.83465457357664,140.5049262850049 239.88108254120806,134.36797539871463 236.73830888447858,128.36184022871294 233.41002515942074,122.49123158628123 227.55118744381966,114.49252062868516 221.43608252894572,106.72116404531744 215.07089732872336,99.18363257330475 208.46196589142443,91.88624963180916 201.61576613145004,84.8351881690644 199.450958455762,82.01416072813078 197.19960086748281,79.27867143671409 194.86403110563376,76.63086757464998 192.44663524234787,74.07284068124312 189.9498464459395,71.60662552674376 188.34170138243505,69.88547597495347 186.6816045371822,68.22613241833523 184.9712301300086,66.62987374760394 183.21228101616484,65.09793912560446 181.4064878076128,63.63152738050143 180.39887031480777,62.699224361447754 179.36400826391082,61.80514224059487 178.30293220759222,60.949941753078626 177.2166873529387,60.13425924704011 176.1063330231472,59.35870637530109 177.25167533443482,59.63842719478702 178.4097857928519,59.879577891279204 179.57966454244217,60.08180364768162 180.76030333065444,60.244772839842874 181.9506860140399,60.36817721982373 180.00864409497092,59.37014913708986 178.0374965257605,58.441981093067334 176.0390938434779,57.58437409649229 174.01530199695495,56.79798578145084 171.96800139543973,56.08343008631049 172.78775248647483,56.16150241088422 173.61205460405452,56.211455208314355 174.44017493619725,56.23315761137774 175.27137756283437,56.22649578300996 176.10492382730837,56.19137298364341 174.7521578593546,55.781177961782014 173.38882233589183,55.41885432800438 172.01617723482596,55.10463868976881 170.63548744439456,54.838738239225044 169.24802211993583,54.621330656143634 168.45943049343657,54.49482614302831 167.667902915397,54.395972478509286 166.8741645792496,54.32482938236699 166.07894179484717,54.28143968049101 165.28296161962967,54.26582928539107 165.26413687485703,54.26444136307338 165.24529936949216,54.26371041493825 165.22646629827832,54.263636363636344 165.20765484762734,54.26421873182078 165.18888218689685,54.265456642444796 165.1880245994376,54.26547174801447 165.18716909571893,54.26551664677594 165.18631645392253,54.26559126608105 165.1854674502503,54.265695515204236 165.1846228585306,54.26582928539107 165.1846228585306,54.26582928539107 165.1846228585306,54.26582928539107 165.1846228585306,54.26582928539107 165.1846228585306,54.26582928539107 165.1846228585306,54.26582928539107 165.1846228585306,54.26582928539107 165.1846228585306,54.26582928539107 165.1846228585306,54.26582928539107 165.1846228585306,54.26582928539107 165.1846228585306,54.26582928539107 165.1846228585306,54.26582928539107 165.1846228585306,54.26582928539107 165.1846228585306,54.26582928539107 165.1846228585306,54.26582928539107 165.1846228585306,54.26582928539107 165.1846228585306,54.26582928539107 165.1846228585306,54.26582928539107 165.1846228585306,54.26582928539107 165.1846228585306,54.26582928539107 165.1846228585306,54.26582928539107 165.1846228585306,54.26582928539107 165.1846228585306,54.26582928539107 165.1846228585306,54.26582928539107 165.1846228585306,54.26582928539107 165.1846228585306,54.26582928539107 165.1846228585306,54.26582928539107 165.1846228585306,54.26582928539107 165.1846228585306,54.26582928539107 165.1846228585306,54.26582928539107 165.1846228585306,54.26582928539107 165.1846228585306,54.26582928539107 165.1846228585306,54.26582928539107 165.1846228585306,54.26582928539107 165.1846228585306,54.26582928539107 165.1846228585306,54.26582928539107 165.1846228585306,54.26582928539107 165.1846228585306,54.26582928539107 165.1846228585306,54.26582928539107 165.1846228585306,54.26582928539107 165.1846228585306,54.26582928539107 165.1846228585306,54.26582928539107 165.1846228585306,54.26582928539107 165.1846228585306,54.26582928539107 165.1846228585306,54.26582928539107 165.1846228585306,54.26582928539107 165.1846228585306,54.26582928539107 165.1846228585306,54.26582928539107 165.1846228585306,54.26582928539107 165.1846228585306,54.26582928539107 165.1846228585306,54.26582928539107 165.1846228585306,54.26582928539107 165.1846228585306,54.26582928539107 165.1846228585306,54.26582928539107 165.1846228585306,54.26582928539107 165.1846228585306,54.26582928539107 165.1846228585306,54.26582928539107 165.1846228585306,54.26582928539107 165.1846228585306,54.26582928539107 165.1846228585306,54.26582928539107 165.1846228585306,54.26582928539107 165.1846228585306,54.26582928539107 165.1846228585306,54.26582928539107 165.1846228585306,54.26582928539107 165.1846228585306,54.26582928539107 165.1846228585306,54.26582928539107 165.1846228585306,54.26582928539107 165.1846228585306,54.26582928539107 165.1846228585306,54.26582928539107 165.1846228585306,54.26582928539107 165.1846228585306,54.26582928539107 165.1846228585306,54.26582928539107 165.1846228585306,54.26582928539107 165.1846228585306,54.26582928539107 165.1846228585306,54.26582928539107 165.1846228585306,54.26582928539107 165.1846228585306,54.26582928539107 165.1846228585306,54.26582928539107 165.1846228585306,54.26582928539107 165.1846228585306,54.26582928539107 165.1846228585306,54.26582928539107" stroke="black" stroke-dasharray="2.71,2.71" stroke-width="2.37" /><polyline fill="none" points="165.18462285853062,261.157755842933 161.58283759103298,260.61196906256157 158.00010017457686,260.00364057994375 154.4374937433281,259.3332689332345 150.89608983389724,258.6013713686794 147.37694806310247,257.80848358770004 143.88813248204227,256.88840032314494 140.42598933032173,255.90871782239134 136.99153310960378,254.87008646536532 133.58576375141786,253.7731738349275 130.20966632665449,252.61866440653955 127.03830730811471,250.5116101447539 123.92975408521853,248.35472707889727 120.88477211370908,246.14956402097442 117.90409194840927,243.89768118715799 114.98840908068883,241.60064945188543 112.13178410949723,239.28306542553278 109.34064030236871,236.92326585579588 106.61557353631412,234.52282817238222 103.9571446145295,232.08333761427878 101.3658791775953,229.6063864867232 98.90861350928792,226.92073649264725 96.5254694710504,224.20319720143624 94.21680345911737,221.45553451485162 91.98293286694802,218.67951691842174 89.82413610607824,215.87691465899414 87.96706795498092,212.58527874149917 86.20164823018689,209.27864504702526 84.52782441340672,205.95920473124036 82.94549551294767,202.62914236867073 81.45451228054831,199.29063492981663 80.61136729819994,195.01936327003628 79.89129498892292,190.76368697194363 79.29347942620959,186.52659175879523 78.81703811649096,182.31103936865557 78.46102259223822,178.11996614319645 78.91201239531513,173.00989055881308 79.51415979933682,167.9543736539168 80.26567892071661,162.9571209932693 81.16470082483387,158.02179209709985 82.20927459489454,153.15199867533508 84.77380395707931,146.7678949483907 87.53459114348458,140.5049262850049 90.48816317585313,134.36797539871463 93.63093683258256,128.36184022871294 96.95922055764042,122.49123158628123 102.81805827324152,114.49252062868516 108.93316318811549,106.72116404531744 115.29834838833781,99.18363257330475 121.90727982563673,91.88624963180916 128.75347958561113,84.83518816906445 130.9182872612992,82.01416072813078 133.16964484957833,79.27867143671409 135.50521461142742,76.63086757464998 137.9226104747133,74.07284068124312 140.41939927112168,71.60662552674376 142.02754433462616,69.88547597495347 143.68764117987897,68.22613241833523 145.39801558705258,66.62987374760394 147.15696470089634,65.09793912560446 148.96275790944838,63.63152738050143 149.9703754022534,62.699224361447754 151.0052374531504,61.80514224059487 152.06631350946898,60.949941753078626 153.15255836412248,60.13425924704011 154.262912693914,59.35870637530109 153.11757038262635,59.63842719478702 151.95945992420928,59.879577891279204 150.789581174619,60.08180364768162 149.60894238640674,60.244772839842874 148.4185597030213,60.36817721982373 150.3606016220903,59.37014913708986 152.33174919130067,58.441981093067334 154.33015187358328,57.58437409649229 156.35394372010623,56.79798578145084 158.40124432162145,56.08343008631049 157.58149323058635,56.16150241088422 156.75719111300666,56.211455208314355 155.92907078086392,56.23315761137774 155.0978681542268,56.22649578300996 154.2643218897528,56.19137298364341 155.6170878577066,55.781177961782014 156.98042338116935,55.41885432800438 158.35306848223522,55.10463868976881 159.73375827266665,54.838738239225044 161.12122359712535,54.621330656143634 161.9098152236246,54.49482614302831 162.70134280166417,54.395972478509286 163.49508113781158,54.32482938236699 164.290303922214,54.28143968049101 165.0862840974315,54.26582928539107 165.10510884220415,54.26444136307338 165.12394634756902,54.26371041493825 165.14277941878285,54.263636363636344 165.16159086943384,54.26421873182078 165.18036353016433,54.265456642444796 165.18122111762358,54.26547174801447 165.18207662134225,54.26551664677594 165.18292926313865,54.26559126608105 165.1837782668109,54.265695515204236 165.1846228585306,54.26582928539107 165.1846228585306,54.26582928539107 165.1846228585306,54.26582928539107 165.1846228585306,54.26582928539107 165.1846228585306,54.26582928539107 165.1846228585306,54.26582928539107 165.1846228585306,54.26582928539107 165.1846228585306,54.26582928539107 165.1846228585306,54.26582928539107 165.1846228585306,54.26582928539107 165.1846228585306,54.26582928539107 165.1846228585306,54.26582928539107 165.1846228585306,54.26582928539107 165.1846228585306,54.26582928539107 165.1846228585306,54.26582928539107 165.1846228585306,54.26582928539107 165.1846228585306,54.26582928539107 165.1846228585306,54.26582928539107 165.1846228585306,54.26582928539107 165.1846228585306,54.26582928539107 165.1846228585306,54.26582928539107 165.1846228585306,54.26582928539107 165.1846228585306,54.26582928539107 165.1846228585306,54.26582928539107 165.1846228585306,54.26582928539107 165.1846228585306,54.26582928539107 165.1846228585306,54.26582928539107 165.1846228585306,54.26582928539107 165.1846228585306,54.26582928539107 165.1846228585306,54.26582928539107 165.1846228585306,54.26582928539107 165.1846228585306,54.26582928539107 165.1846228585306,54.26582928539107 165.1846228585306,54.26582928539107 165.1846228585306,54.26582928539107 165.1846228585306,54.26582928539107 165.1846228585306,54.26582928539107 165.1846228585306,54.26582928539107 165.1846228585306,54.26582928539107 165.1846228585306,54.26582928539107 165.1846228585306,54.26582928539107 165.1846228585306,54.26582928539107 165.1846228585306,54.26582928539107 165.1846228585306,54.26582928539107 165.1846228585306,54.26582928539107 165.1846228585306,54.26582928539107 165.1846228585306,54.26582928539107 165.1846228585306,54.26582928539107 165.1846228585306,54.26582928539107 165.1846228585306,54.26582928539107 165.1846228585306,54.26582928539107 165.1846228585306,54.26582928539107 165.1846228585306,54.26582928539107 165.1846228585306,54.26582928539107 165.1846228585306,54.26582928539107 165.1846228585306,54.26582928539107 165.1846228585306,54.26582928539107 165.1846228585306,54.26582928539107 165.1846228585306,54.26582928539107 165.1846228585306,54.26582928539107 165.1846228585306,54.26582928539107 165.1846228585306,54.26582928539107 165.1846228585306,54.26582928539107 165.1846228585306,54.26582928539107 165.1846228585306,54.26582928539107 165.1846228585306,54.26582928539107 165.1846228585306,54.26582928539107 165.1846228585306,54.26582928539107 165.1846228585306,54.26582928539107 165.1846228585306,54.26582928539107 165.1846228585306,54.26582928539107 165.1846228585306,54.26582928539107 165.1846228585306,54.26582928539107 165.1846228585306,54.26582928539107 165.1846228585306,54.26582928539107 165.1846228585306,54.26582928539107 165.1846228585306,54.26582928539107 165.1846228585306,54.26582928539107 165.1846228585306,54.26582928539107 165.1846228585306,54.26582928539107 165.1846228585306,54.26582928539107" stroke="black" stroke-dasharray="2.71,2.71" stroke-width="2.37" /></g><rect fill="white" height="37.800000000000004" stroke="none" width="400" x="0" y="0" /><line stroke="black" stroke-width="1.02" x1="0" x2="400" y1="37.800000000000004" y2="37.800000000000004" /><text font-family="Arial" font-size="21.0" text-anchor="start" x="13.55" y="26.25">LED</text><text font-family="Arial" font-size="21.0" text-anchor="middle" x="200.0" y="26.25">TEST</text><text font-family="Arial" font-size="21.0" text-anchor="end" x="386.45" y="26.25">cd / klm</text><rect fill="none" height="398.98" stroke="black" stroke-width="1.02" width="398.98" x="0.51" y="0.51" /></svg>