<?xml version="1.0" encoding="utf-8" ?>
<svg baseProfile="full" height="1181" version="1.1" width="1181" xmlns="http://www.w3.org/2000/svg" xmlns:ev="http://www.w3.org/2001/xml-events" xmlns:xlink="http://www.w3.org/1999/xlink"><defs><clipPath id="plot_clip"><rect height="1069.4" width="1181.0" x="0" y="111.60000000000001" /></clipPath></defs><g clip-path="url(#plot_clip)" id="grid"><circle cx="487.70716644095137" cy="160.2155655378167" fill="none" r="252.47514253321003" stroke="black" stroke-width="3.0" /><text font-family="Arial" font-size="42.0" text-anchor="start" x="495.70716644095137" y="452.69070807102673">200</text><circle cx="487.70716644095137" cy="160.2155655378167" fill="none" r="504.95028506642007" stroke="black" stroke-width="3.0" /><text font-family="Arial" font-size="42.0" text-anchor="start" x="495.7071664409515" y="705.1658506042368">400</text><circle cx="487.70716644095137" cy="160.2155655378167" fill="none" r="757.4254275996301" stroke="black" stroke-width="3.0" /><text font-family="Arial" font-size="42.0" text-anchor="start" x="495.7071664409515" y="957.6409931374468">600</text><circle cx="487.70716644095137" cy="160.2155655378167" fill="none" r="1009.9005701328401" stroke="black" stroke-width="3.0" /><text font-family="Arial" font-size="42.0" text-anchor="start" x="495.70716644095154" y="1210.1161356706568">800</text><circle cx="487.70716644095137" cy="160.2155655378167" fill="none" r="1262.3757126660503" stroke="black" stroke-width="3.0" /><text font-family="Arial" font-size="42.0" text-anchor="start" x="495.70716644095154" y="1462.5912782038668">1000</text><line stroke="black" stroke-width="3.0" x1="-4685.129791350722" x2="5660.544124232625" y1="160.21556553781647" y2="160.21556553781693" /><line stroke="black" stroke-width="3.0" x1="-3992.1010486416494" x2="4967.515381523552" y1="-2426.2029133580204" y2="2746.634044433654" /><line stroke="black" stroke-width="3.0" x1="-2098.7113124548846" x2="3074.1256453367873" y1="-4319.592649544784" y2="4640.023780620417" /><line stroke="black" stroke-width="3.0" x1="487.70716644095137" x2="487.70716644095137" y1="-5012.621392253855" y2="5333.052523329488" /><line stroke="black" stroke-width="3.0" x1="3074.125645336788" x2="-2098.711312454885" y1="-4319.592649544784" y2="4640.023780620417" /><line stroke="black" stroke-width="3.0" x1="4967.515381523553" x2="-3992.10104864165" y1="-2426.2029133580204" y2="2746.634044433654" /><line stroke="black" stroke-width="3.0" x1="5660.544124232625" x2="-4685.129791350722" y1="160.21556553781647" y2="160.21556553781693" /></g><g clip-path="url(#plot_clip)" id="curves"><polyline fill="none" points="487.7071664409515,771.0665491397917 498.73723391906213,792.1277081434702 510.502324734649,812.9834920602924 522.9985177319327,833.6146634156645 536.2214442384254,854.0020610048995 550.1662895669235,874.126609652288 565.4685642845143,900.0658450912699 581.6943999703067,925.6801552078346 598.8369722497339,950.9452210440653 616.888889533736,975.8368653832167 635.8421959312487,1000.331065134674 654.9349247984259,1020.5278013774742 674.7763838257093,1040.3070382027197 695.3576945173095,1059.6488181829254 716.6695102878637,1078.5333687366901 738.7020202468815,1096.941112379869 758.5840433157961,1104.8754984536652 778.8183820026221,1112.397447227809 799.3966304568355,1119.4970976504817 820.3101463000635,1126.164757592043 841.5500539817965,1132.3909090909092 857.7219382171785,1124.137001267239 873.713731038575,1115.6153389057827 889.5210228646704,1106.8296898144006 905.1394806993166,1097.7838939780452 920.564849304563,1088.4818620345634 927.8484985844541,1062.6390296694697 934.3646573513101,1036.8302495610576 940.116828925094,1011.0743909501456 945.108940617534,985.3902094982471 949.3453408057992,959.7963382510738 947.7269490987952,925.8170512906107 945.067858468461,892.1456732155503 941.3784598813531,858.8080953951356 936.6697295504413,825.8299379273841 930.9532225905168,793.2365371241222 924.0689210636943,760.8159953856385 916.1934453463134,728.8360630945764 907.3402076912218,697.3213652778333 897.5231762647993,666.2961907718271 886.7568674587483,635.7844803494213 880.490940320117,612.0616098774498 873.5229435863872,588.7073960540886 865.8639245198242,565.7390403859737 857.5253155681753,543.1734695489787 848.5189281104573,521.0273272073226 843.1467022227636,503.45953536495017 837.2747204361833,486.19258326261206 830.9119061598207,469.238501202874 824.0674493920959,452.60909863536006 816.7508017124073,436.3159585353268 808.3712684437161,419.8842353584706 799.5224238498597,403.832344276889 790.2150294037035,388.1715908613397 780.4600970031463,372.9130197894517 770.268883126063,358.06740957020827 753.5409906023235,339.5227439994542 736.2580052166745,321.62636753438164 718.4375311770253,304.39189901625 700.0974770774842,287.8325390623397 681.2560466416064,271.96106362301543 655.656032459032,253.3111421528672 629.4723862124682,235.5934699718946 602.7299296980574,218.82259068848487 575.4538119960054,203.01246411235434 547.6694966306285,188.17645930608182 543.1271524573792,184.8901330517284 538.4898942929169,181.7715546094022 533.7622053529734,178.82300909013225 528.9486192334808,176.04667601747974 524.0537175872856,173.44462827331654 521.8918614397195,171.98629997777778 519.6909012915179,170.6077109498566 517.4529661636002,169.3097691575549 515.180204635083,168.09333247275936 512.8747837419758,166.95920826904182 511.4575461870788,166.1372002866858 510.0197492844492,165.3668311782344 508.5627657334205,164.64856001499163 507.08797785188546,163.98281365121386 505.5967768693498,163.3699865307069 503.6117780474354,162.73460854568884 501.61067141383916,162.16957573199522 499.59530932464054,161.67524594174154 497.5675515305531,161.2519337720845 495.52926423092833,160.89991041943085 493.9759649715,160.6539226337742 492.4169386664071,160.46239424108194 490.85361356943184,160.32544189270834 489.28742011625803,160.24314896832232 487.71979019807804,160.2155655378167 487.71726390852524,160.2153892858646 487.71473608119635,160.2153012001545 487.7122090236339,160.21530126725656 487.7096850422092,160.2153894200602 487.70716644095137,160.2155655378167 487.70716644095137,160.2155655378167 487.70716644095137,160.2155655378167 487.70716644095137,160.2155655378167 487.70716644095137,160.2155655378167 487.70716644095137,160.2155655378167 487.70964480558195,160.21508379253362 487.71210560004965,160.21451568714133 487.714546567581,160.21386170133144 487.71696546302303,160.21312236721383 487.7193600539849,160.21229826905164 487.71687422829916,160.21278187458893 487.7144097363384,160.21335104018203 487.7119688035416,160.21400515562277 487.70955364032284,160.21474355915473 487.70716644095137,160.2155655378167 487.70716644095137,160.2155655378167 487.70716644095137,160.2155655378167 487.70716644095137,160.2155655378167 487.70716644095137,160.2155655378167 487.70716644095137,160.2155655378167 487.70716644095137,160.2155655378167 487.70716644095137,160.2155655378167 487.70716644095137,160.2155655378167 487.70716644095137,160.2155655378167 487.70716644095137,160.2155655378167 487.70716644095137,160.2155655378167 487.70716644095137,160.2155655378167 487.70716644095137,160.2155655378167 487.70716644095137,160.2155655378167 487.70716644095137,160.2155655378167 487.70716644095137,160.2155655378167 487.70716644095137,160.2155655378167 487.70716644095137,160.2155655378167 487.70716644095137,160.2155655378167 487.70716644095137,160.2155655378167 487.70716644095137,160.2155655378167 487.70716644095137,160.2155655378167 487.70716644095137,160.2155655378167 487.70716644095137,160.2155655378167 487.70716644095137,160.2155655378167 487.70716644095137,160.2155655378167 487.70716644095137,160.2155655378167 487.70716644095137,160.2155655378167 487.70716644095137,160.2155655378167 487.70716644095137,160.2155655378167 487.70716644095137,160.2155655378167 487.70716644095137,160.2155655378167 487.70716644095137,160.2155655378167 487.70716644095137,160.2155655378167 487.70716644095137,160.2155655378167 487.70716644095137,160.2155655378167 487.70716644095137,160.2155655378167 487.70716644095137,160.2155655378167 487.70716644095137,160.2155655378167 487.70716644095137,160.2155655378167 487.70716644095137,160.2155655378167 487.70716644095137,160.2155655378167 487.70716644095137,160.2155655378167 487.70716644095137,160.2155655378167 487.70716644095137,160.2155655378167 487.70716644095137,160.2155655378167 487.70716644095137,160.2155655378167 487.70716644095137,160.2155655378167 487.70716644095137,160.2155655378167 487.70716644095137,160.2155655378167 487.70716644095137,160.2155655378167 487.70716644095137,160.2155655378167 487.70716644095137,160.2155655378167 487.70716644095137,160.2155655378167 487.70716644095137,160.2155655378167 487.70716644095137,160.2155655378167 487.70716644095137,160.2155655378167 487.70716644095137,160.2155655378167 487.70716644095137,160.2155655378167 487.70716644095137,160.2155655378167 487.70716644095137,160.2155655378167 487.70716644095137,160.2155655378167 487.70716644095137,160.2155655378167 487.70716644095137,160.2155655378167 487.70716644095137,160.2155655378167 487.70716644095137,160.2155655378167 487.70716644095137,160.2155655378167 487.70716644095137,160.2155655378167 487.70716644095137,160.2155655378167 487.70716644095137,160.2155655378167" stroke="black" stroke-width="9.0" /><polyline fill="none" points="487.7071664409515,771.0665491397917 477.3497204750881,753.5932475147862 467.6020844221871,735.9497865009441 458.46695030308814,718.1521264431051 449.9466388560772,700.2162682064676 442.04309897067117,682.1582450799439 434.7304608186807,664.2552504121626 428.028268509999,646.2611847272299 421.9373829279593,628.1918917939249 416.45829807342346,610.0632161121794 411.5911413289813,591.8909949368974 406.54561162554523,577.7555683058092 401.9695362526242,563.5794020371492 397.86273268252336,549.374562801169 394.22474045341545,535.1530973093021 391.0548218309227,520.9270262930999 390.82176779406734,498.0951041762447 391.3543743561761,475.3713478265619 392.6486831824726,452.7754945312864 394.7002808346955,430.327174414256 397.5043013397564,408.04590057346127 398.00357232280396,393.90141763873373 398.9676117627183,379.8536706999279 400.39312878880935,365.91454771023984 402.2765596231831,352.0958500674765 404.614069619595,338.4092867177865 403.68499430418206,332.4865478476719 402.93667967034315,326.58701343059784 402.36800923359317,320.71517702804647 401.9777649323261,314.87549989021477 401.76462792264664,309.0724087829658 402.57760381442483,301.8949499586183 403.6138936318588,294.7929336742766 404.8710818028431,287.77195001161897 406.34662598248366,280.83752719864265 408.0378584852916,273.9951288932159 408.6434775766536,269.0373974563944 409.3970916600849,264.13654475647263 410.2968811187082,259.29621248170065 411.3409445489366,254.5199958075907 412.5272998353577,249.81144165578644 413.30727789178076,245.8028468255468 414.20356427688523,241.84958598625474 415.2144510024938,237.95448527874203 416.3381670838642,234.1203278369802 417.57287952481107,230.34985245395706 418.90761355920483,226.6545214674651 420.34919268191453,223.02789223978345 421.89561248086466,219.47255488500434 423.5448109229574,215.9910502566587 425.29466946681464,212.58586872966805 427.09984799218535,209.29440431239289 429.0000776270696,206.0825702021558 430.9931172261212,202.95266702138122 433.07667454962353,199.9069412227185 435.2484074750385,196.94758401087518 437.7675644546661,193.90025240528712 440.37614832799005,190.9526880941428 443.07143293885485,188.1070674032693 445.85064370304184,185.36550170045825 448.7109590485126,182.73003637321574 452.113233320457,179.94560484331134 455.5996647840473,177.28742699587917 459.1668719534017,174.75757191528885 462.81142711167405,172.35802892514607 466.52985806829497,170.09070661109638 467.7861401706048,169.08497787416002 469.07064204184326,168.12630080691395 470.38210072031126,167.215346453273 471.7192385509287,166.35275604953608 473.08076384192066,165.53914071825773 473.75637331435917,165.01920883859418 474.44544214818274,164.5245609665477 475.1472922398785,164.05550443634593 475.86123892985984,163.61233059165556 476.58659135445225,163.19531465161378 477.195265513604,162.83647680211766 477.8128766728645,162.49984231904716 478.43883439303704,162.18561033033757 479.07254406810046,161.89396610393896 479.7134072293738,161.62508096410465 480.6700366269818,161.33013740489332 481.6342274768902,161.06906144892253 482.6050882556244,160.84202196749436 483.5817239397506,160.64916701703794 484.5632364610571,160.49062376997676 485.18856518319785,160.39168329432835 485.81619793501363,160.31466699790712 486.4455597334612,160.25962181483817 487.0760747175861,160.22658128482374 487.70716644095137,160.2155655378167 487.70716644095137,160.2155655378167 487.70716644095137,160.2155655378167 487.70716644095137,160.2155655378167 487.70716644095137,160.2155655378167 487.70716644095137,160.2155655378167 487.70716644095137,160.2155655378167 487.70716644095137,160.2155655378167 487.70716644095137,160.2155655378167 487.70716644095137,160.2155655378167 487.70716644095137,160.2155655378167 487.70716644095137,160.2155655378167 487.70716644095137,160.2155655378167 487.70716644095137,160.2155655378167 487.70716644095137,160.2155655378167 487.70716644095137,160.2155655378167 487.70716644095137,160.2155655378167 487.70716644095137,160.2155655378167 487.70716644095137,160.2155655378167 487.70716644095137,160.2155655378167 487.70716644095137,160.2155655378167 487.70716644095137,160.2155655378167 487.70716644095137,160.2155655378167 487.70716644095137,160.2155655378167 487.70716644095137,160.2155655378167 487.70716644095137,160.2155655378167 487.70716644095137,160.2155655378167 487.70716644095137,160.2155655378167 487.70716644095137,160.2155655378167 487.70716644095137,160.2155655378167 487.70716644095137,160.2155655378167 487.70716644095137,160.2155655378167 487.70716644095137,160.2155655378167 487.70716644095137,160.2155655378167 487.70716644095137,160.2155655378167 487.70716644095137,160.2155655378167 487.70716644095137,160.2155655378167 487.70716644095137,160.2155655378167 487.70716644095137,160.2155655378167 487.70716644095137,160.2155655378167 487.70716644095137,160.2155655378167 487.70716644095137,160.2155655378167 487.70716644095137,160.2155655378167 487.70716644095137,160.2155655378167 487.70716644095137,160.2155655378167 487.70716644095137,160.2155655378167 487.70716644095137,160.2155655378167 487.70716644095137,160.2155655378167 487.70716644095137,160.2155655378167 487.70716644095137,160.2155655378167 487.70716644095137,160.2155655378167 487.70716644095137,160.2155655378167 487.70716644095137,160.2155655378167 487.70716644095137,160.2155655378167 487.70716644095137,160.2155655378167 487.70716644095137,160.2155655378167 487.70716644095137,160.2155655378167 487.70716644095137,160.2155655378167 487.70716644095137,160.2155655378167 487.70716644095137,160.2155655378167 487.70716644095137,160.2155655378167 487.70716644095137,160.2155655378167 487.70716644095137,160.2155655378167 487.70716644095137,160.2155655378167 487.70716644095137,160.2155655378167 487.70716644095137,160.2155655378167 487.70716644095137,160.2155655378167 487.70716644095137,160.2155655378167 487.70716644095137,160.2155655378167 487.70716644095137,160.2155655378167 487.70716644095137,160.2155655378167 487.70716644095137,160.2155655378167 487.70716644095137,160.2155655378167 487.70716644095137,160.2155655378167 487.70716644095137,160.2155655378167 487.70716644095137,160.2155655378167 487.70716644095137,160.2155655378167 487.70716644095137,160.2155655378167 487.70716644095137,160.2155655378167 487.70716644095137,160.2155655378167 487.70716644095137,160.2155655378167 487.70716644095137,160.2155655378167 487.70716644095137,160.2155655378167 487.70716644095137,160.2155655378167 487.70716644095137,160.2155655378167 487.70716644095137,160.2155655378167 487.70716644095137,160.2155655378167 487.70716644095137,160.2155655378167 487.70716644095137,160.2155655378167 487.70716644095137,160.2155655378167 487.70716644095137,160.2155655378167" stroke="black" stroke-width="9.0" /><polyline fill="none" points="487.7071664409515,771.0665491397917 498.34148219208856,769.4551068898492 508.9195589263743,767.6590094870013 519.4381986767261,765.6797288713445 529.8942377179889,763.5187922188453 540.284547518342,761.1777811946064 550.585318866729,758.461223924824 560.8073395361105,755.5686991696999 570.9476141977219,752.5021271840468 581.0031905413003,749.2634790145539 590.971160132802,745.8547755835268 600.3346370362435,739.6336716974043 609.5126790477428,733.2654476481855 618.5030261497095,726.7546763225567 627.3035213699513,720.1059642781523 635.912111261559,713.3239495412653 644.3463319799253,706.4812539096212 652.5872187478523,699.5139163616458 660.6330122310628,692.4265942781489 668.4820566511522,685.2239680969348 676.132800047777,677.910739119 683.3879074627076,669.9813241447736 690.4241698439646,661.9577556245608 697.2405349272367,653.8452474052522 703.8360656043926,645.6490209623419 710.2099398619138,637.3743029716409 715.6929566503827,627.6557070297052 720.9053803215445,617.8928299649056 725.8473659363005,608.092141191575 730.5192116738791,598.2600906931433 734.9213581916257,588.4031060020595 737.410754227306,575.7921233599579 739.5367766666789,563.2271862169976 741.3018345428954,550.7171099581877 742.7085334291822,538.270639151961 743.7596736877019,525.8964433835845 742.4281206909864,510.8088817327298 740.6502729994876,495.8824052609019 738.4314034566839,481.12795469409775 735.7770301152618,466.5563348112606 732.6929130812949,452.1782092308209 725.1211082775391,433.32906366043346 716.96984980945,414.8375708701939 708.2493916884813,396.7181471324833 698.9703134209315,378.9849584223789 689.1435143718513,361.65191346871666 671.8452232258993,338.03561998982855 653.7902999902113,315.09059312551756 634.9970116050159,292.835937807543 615.4840594265303,271.2903240095437 595.270569577506,250.47197743787262 588.8789480193038,242.1428588698593 582.2317867688739,234.06629275102716 575.3359880297204,226.24861895176878 568.1985967094611,218.69601276786693 560.8267967677739,211.41448188376512 556.0787284880619,206.33276644841317 551.177271927285,201.4335339816888 546.1273702402849,196.7205604243171 540.9340511283453,192.1975044199928 535.602424244785,187.86790552376658 532.6274210785627,185.11526927700788 529.5719780160856,182.47548070704624 526.4391377769164,179.95049064257955 523.2319863479642,177.54217790940015 519.9536513941292,175.25234842006353 523.3352887980249,176.07822761486818 526.7546243149525,176.79022804233568 530.2087058577793,177.3873021005819 533.694556548321,177.86847066517942 537.2091762104203,178.23282363025817 531.4752733162945,175.28613331641066 525.6554356285154,172.54570563480456 519.7551268807711,170.01361032244301 513.7798563101701,167.69178905213562 507.73517584838,165.5820544845401 510.1555011293102,165.81256399282051 512.5892633726558,165.9600502478503 515.0342989419363,166.02412686252717 517.4884350240063,166.00445773150432 519.949490725907,165.9007572300062 515.9554323986576,164.6896513316667 511.9301673274509,163.61988630140218 507.8774156127081,162.69216072567303 503.80091185266565,161.90708634187536 499.7044032442279,161.2651877517394 497.3760766694673,160.89168160506483 495.0390816613074,160.59981493240707 492.6955593623675,160.3897640571597 490.3476542115118,160.2616554232941 487.9975128548646,160.2155655378167 487.9419325620433,160.21146767993014 487.88631459341497,160.20930954647974 487.83070971667263,160.20909090909083 487.77516867491073,160.21081035839086 487.71974216087096,160.2144653048881 487.71721012324286,160.21450990427024 487.71468423788457,160.2146424684213 487.71216680238746,160.2148627828467 487.7096601084971,160.2151705796781 487.70716644095137,160.2155655378167 487.70716644095137,160.2155655378167 487.70716644095137,160.2155655378167 487.70716644095137,160.2155655378167 487.70716644095137,160.2155655378167 487.70716644095137,160.2155655378167 487.70716644095137,160.2155655378167 487.70716644095137,160.2155655378167 487.70716644095137,160.2155655378167 487.70716644095137,160.2155655378167 487.70716644095137,160.2155655378167 487.70716644095137,160.2155655378167 487.70716644095137,160.2155655378167 487.70716644095137,160.2155655378167 487.70716644095137,160.2155655378167 487.70716644095137,160.2155655378167 487.70716644095137,160.2155655378167 487.70716644095137,160.2155655378167 487.70716644095137,160.2155655378167 487.70716644095137,160.2155655378167 487.70716644095137,160.2155655378167 487.70716644095137,160.2155655378167 487.70716644095137,160.2155655378167 487.70716644095137,160.2155655378167 487.70716644095137,160.2155655378167 487.70716644095137,160.2155655378167 487.70716644095137,160.2155655378167 487.70716644095137,160.2155655378167 487.70716644095137,160.2155655378167 487.70716644095137,160.2155655378167 487.70716644095137,160.2155655378167 487.70716644095137,160.2155655378167 487.70716644095137,160.2155655378167 487.70716644095137,160.2155655378167 487.70716644095137,160.2155655378167 487.70716644095137,160.2155655378167 487.70716644095137,160.2155655378167 487.70716644095137,160.2155655378167 487.70716644095137,160.2155655378167 487.70716644095137,160.2155655378167 487.70716644095137,160.2155655378167 487.70716644095137,160.2155655378167 487.70716644095137,160.2155655378167 487.70716644095137,160.2155655378167 487.70716644095137,160.2155655378167 487.70716644095137,160.2155655378167 487.70716644095137,160.2155655378167 487.70716644095137,160.2155655378167 487.70716644095137,160.2155655378167 487.70716644095137,160.2155655378167 487.70716644095137,160.2155655378167 487.70716644095137,160.2155655378167 487.70716644095137,160.2155655378167 487.70716644095137,160.2155655378167 487.70716644095137,160.2155655378167 487.70716644095137,160.2155655378167 487.70716644095137,160.2155655378167 487.70716644095137,160.2155655378167 487.70716644095137,160.2155655378167 487.70716644095137,160.2155655378167 487.70716644095137,160.2155655378167 487.70716644095137,160.2155655378167 487.70716644095137,160.2155655378167 487.70716644095137,160.2155655378167 487.70716644095137,160.2155655378167 487.70716644095137,160.2155655378167 487.70716644095137,160.2155655378167 487.70716644095137,160.2155655378167 487.70716644095137,160.2155655378167 487.70716644095137,160.2155655378167 487.70716644095137,160.2155655378167 487.70716644095137,160.2155655378167 487.70716644095137,160.2155655378167 487.70716644095137,160.2155655378167 487.70716644095137,160.2155655378167 487.70716644095137,160.2155655378167 487.70716644095137,160.2155655378167 487.70716644095137,160.2155655378167 487.70716644095137,160.2155655378167 487.70716644095137,160.2155655378167 487.70716644095137,160.2155655378167" stroke="black" stroke-dasharray="8.0,8.0" stroke-width="7.0" /><polyline fill="none" points="487.7071664409515,771.0665491397917 477.0728506898141,769.4551068898492 466.4947739555286,767.6590094870013 455.97613420517683,765.6797288713445 445.5200951639141,763.5187922188453 435.12978536356087,761.1777811946064 424.8290140151738,758.461223924824 414.60699334579243,755.5686991696999 404.46671868418076,752.5021271840466 394.4111423406025,749.263479014554 384.4431727491007,745.8547755835268 375.07969584565944,739.6336716974043 365.9016538341598,733.2654476481854 356.91130673219345,726.7546763225567 348.11081151195157,720.1059642781523 339.502221620344,713.3239495412653 331.06800090197765,706.4812539096212 322.8271141340504,699.5139163616458 314.78132065084014,692.426594278149 306.93227623075046,685.2239680969348 299.28153283412587,677.9107391190001 292.0264254191951,669.9813241447736 284.9901630379384,661.9577556245608 278.1737979546662,653.8452474052522 271.5782672775102,645.6490209623419 265.2043930199891,637.3743029716409 259.7213762315201,627.6557070297052 254.50895256035847,617.8928299649057 249.56696694560222,608.092141191575 244.8951212080238,598.2600906931433 240.49297469027704,588.4031060020594 238.00357865459688,575.792123359958 235.87755621522402,563.2271862169976 234.11249833900746,550.7171099581878 232.70579945272058,538.2706391519611 231.65465919420078,525.8964433835845 232.98621219091655,510.8088817327298 234.76405988241515,495.8824052609018 236.98292942521897,481.12795469409775 239.63730276664083,466.5563348112606 242.72141980060792,452.1782092308209 250.29322460436387,433.32906366043346 258.4444830724527,414.837570870194 267.1649411934216,396.7181471324833 276.4440194609712,378.9849584223788 286.27081851005147,361.65191346871666 303.5691096560035,338.03561998982855 321.6240328916915,315.09059312551756 340.4173212768869,292.835937807543 359.93027345537246,271.2903240095437 380.1437633043968,250.47197743787285 386.535384862599,242.1428588698593 393.1825461130288,234.06629275102716 400.0783448521824,226.24861895176878 407.2157361724418,218.69601276786693 414.58753611412897,211.41448188376512 419.3356043938409,206.33276644841317 424.2370609546178,201.4335339816888 429.28696264161795,196.7205604243171 434.4802817535575,192.1975044199928 439.8119086371178,187.86790552376658 442.7869118033401,185.11526927700788 445.8423548658172,182.47548070704624 448.9751951049865,179.95049064257955 452.1823465339386,177.54217790940015 455.4606814877736,175.25234842006353 452.079044083878,176.07822761486818 448.65970856695026,176.79022804233568 445.20562702412354,177.3873021005819 441.7197763335818,177.86847066517942 438.2051566714825,178.23282363025817 443.93905956560826,175.28613331641066 449.75889725338743,172.54570563480456 455.6592060011318,170.01361032244301 461.63447657173265,167.69178905213562 467.6791570335228,165.5820544845401 465.2588317525926,165.81256399282051 462.82506950924704,165.9600502478503 460.3800339399665,166.02412686252717 457.92589785789653,166.00445773150432 455.4648421559957,165.9007572300062 459.45890048324515,164.6896513316667 463.4841655544519,163.61988630140218 467.5369172691947,162.69216072567303 471.6134210292371,161.90708634187536 475.70992963767486,161.2651877517394 478.0382562124355,160.89168160506483 480.3752512205954,160.59981493240707 482.7187735195353,160.3897640571597 485.066678670391,160.2616554232941 487.41682002703817,160.2155655378167 487.4724003198595,160.21146767993014 487.52801828848783,160.20930954647974 487.58362316523016,160.20909090909083 487.63916420699206,160.21081035839086 487.69459072103183,160.2144653048881 487.69712275865993,160.21450990427024 487.6996486440182,160.2146424684213 487.70216607951534,160.2148627828467 487.7046727734057,160.2151705796781 487.70716644095137,160.2155655378167 487.70716644095137,160.2155655378167 487.70716644095137,160.2155655378167 487.70716644095137,160.2155655378167 487.70716644095137,160.2155655378167 487.70716644095137,160.2155655378167 487.70716644095137,160.2155655378167 487.70716644095137,160.2155655378167 487.70716644095137,160.2155655378167 487.70716644095137,160.2155655378167 487.70716644095137,160.2155655378167 487.70716644095137,160.2155655378167 487.70716644095137,160.2155655378167 487.70716644095137,160.2155655378167 487.70716644095137,160.2155655378167 487.70716644095137,160.2155655378167 487.70716644095137,160.2155655378167 487.70716644095137,160.2155655378167 487.70716644095137,160.2155655378167 487.70716644095137,160.2155655378167 487.70716644095137,160.2155655378167 487.70716644095137,160.2155655378167 487.70716644095137,160.2155655378167 487.70716644095137,160.2155655378167 487.70716644095137,160.2155655378167 487.70716644095137,160.2155655378167 487.70716644095137,160.2155655378167 487.70716644095137,160.2155655378167 487.70716644095137,160.2155655378167 487.70716644095137,160.2155655378167 487.70716644095137,160.2155655378167 487.70716644095137,160.2155655378167 487.70716644095137,160.2155655378167 487.70716644095137,160.2155655378167 487.70716644095137,160.2155655378167 487.70716644095137,160.2155655378167 487.70716644095137,160.2155655378167 487.70716644095137,160.2155655378167 487.70716644095137,160.2155655378167 487.70716644095137,160.2155655378167 487.70716644095137,160.2155655378167 487.70716644095137,160.2155655378167 487.70716644095137,160.2155655378167 487.70716644095137,160.2155655378167 487.70716644095137,160.2155655378167 487.70716644095137,160.2155655378167 487.70716644095137,160.2155655378167 487.70716644095137,160.2155655378167 487.70716644095137,160.2155655378167 487.70716644095137,160.2155655378167 487.70716644095137,160.2155655378167 487.70716644095137,160.2155655378167 487.70716644095137,160.2155655378167 487.70716644095137,160.2155655378167 487.70716644095137,160.2155655378167 487.70716644095137,160.2155655378167 487.70716644095137,160.2155655378167 487.70716644095137,160.2155655378167 487.70716644095137,160.2155655378167 487.70716644095137,160.2155655378167 487.70716644095137,160.2155655378167 487.70716644095137,160.2155655378167 487.70716644095137,160.2155655378167 487.70716644095137,160.2155655378167 487.70716644095137,160.2155655378167 487.70716644095137,160.2155655378167 487.70716644095137,160.2155655378167 487.70716644095137,160.2155655378167 487.70716644095137,160.2155655378167 487.70716644095137,160.2155655378167 487.70716644095137,160.2155655378167 487.70716644095137,160.2155655378167 487.70716644095137,160.2155655378167 487.70716644095137,160.2155655378167 487.70716644095137,160.2155655378167 487.70716644095137,160.2155655378167 487.70716644095137,160.2155655378167 487.70716644095137,160.2155655378167 487.70716644095137,160.2155655378167 487.70716644095137,160.2155655378167 487.70716644095137,160.2155655378167" stroke="black" stroke-dasharray="8.0,8.0" stroke-width="7.0" /></g><rect fill="white" height="111.60000000000001" stroke="none" width="1181" x="0" y="0" /><line stroke="black" stroke-width="3.0" x1="0" x2="1181" y1="111.60000000000001" y2="111.60000000000001" /><text font-family="Arial" font-size="62.0" text-anchor="start" x="40.0" y="77.5">LED</text><text font-family="Arial" font-size="62.0" text-anchor="middle" x="590.5" y="77.5" /><text font-family="Arial" font-size="62.0" text-anchor="end" x="1141.0" y="77.5">cd / klm</text><rect fill="none" height="1178.0" stroke="black" stroke-width="3.0" width="1178.0" x="1.5" y="1.5" /></svg>