<?xml version="1.0" encoding="utf-8" ?>
<svg baseProfile="full" height="2362" version="1.1" width="2362" xmlns="http://www.w3.org/2000/svg" xmlns:ev="http://www.w3.org/2001/xml-events" xmlns:xlink="http://www.w3.org/1999/xlink"><defs><clipPath id="plot_clip"><rect height="2138.8" width="2362.0" x="0" y="223.20000000000002" /></clipPath></defs><g clip-path="url(#plot_clip)" id="grid"><circle cx="975.4143328819027" cy="320.4311310756334" fill="none" r="504.95028506642007" stroke="black" stroke-width="6.0" /><text font-family="Arial" font-size="84.0" text-anchor="start" x="991.4143328819027" y="905.3814161420535">200</text><circle cx="975.4143328819027" cy="320.4311310756334" fill="none" r="1009.9005701328401" stroke="black" stroke-width="6.0" /><text font-family="Arial" font-size="84.0" text-anchor="start" x="991.414332881903" y="1410.3317012084735">400</text><circle cx="975.4143328819027" cy="320.4311310756334" fill="none" r="1514.8508551992602" stroke="black" stroke-width="6.0" /><text font-family="Arial" font-size="84.0" text-anchor="start" x="991.414332881903" y="1915.2819862748936">600</text><circle cx="975.4143328819027" cy="320.4311310756334" fill="none" r="2019.8011402656803" stroke="black" stroke-width="6.0" /><text font-family="Arial" font-size="84.0" text-anchor="start" x="991.4143328819031" y="2420.2322713413137">800</text><circle cx="975.4143328819027" cy="320.4311310756334" fill="none" r="2524.7514253321006" stroke="black" stroke-width="6.0" /><text font-family="Arial" font-size="84.0" text-anchor="start" x="991.4143328819031" y="2925.1825564077335">1000</text><line stroke="black" stroke-width="6.0" x1="-9370.259582701445" x2="11321.08824846525" y1="320.43113107563295" y2="320.43113107563386" /><line stroke="black" stroke-width="6.0" x1="-7984.202097283299" x2="9935.030763047103" y1="-4852.405826716041" y2="5493.268088867308" /><line stroke="black" stroke-width="6.0" x1="-4197.422624909769" x2="6148.251290673575" y1="-8639.185299089568" y2="9280.047561240834" /><line stroke="black" stroke-width="6.0" x1="975.4143328819027" x2="975.4143328819027" y1="-10025.24278450771" y2="10666.105046658977" /><line stroke="black" stroke-width="6.0" x1="6148.251290673576" x2="-4197.42262490977" y1="-8639.185299089568" y2="9280.047561240834" /><line stroke="black" stroke-width="6.0" x1="9935.030763047105" x2="-7984.2020972833" y1="-4852.405826716041" y2="5493.268088867308" /><line stroke="black" stroke-width="6.0" x1="11321.08824846525" x2="-9370.259582701445" y1="320.43113107563295" y2="320.43113107563386" /></g><g clip-path="url(#plot_clip)" id="curves"><polyline fill="none" points="975.414332881903,1542.1330982795835 997.4744678381243,1584.2554162869403 1021.004649469298,1625.9669841205848 1045.9970354638654,1667.229326831329 1072.4428884768508,1708.004122009799 1100.332579133847,1748.253219304576 1130.9371285690286,1800.1316901825398 1163.3887999406134,1851.3603104156691 1197.6739444994678,1901.8904420881306 1233.777779067472,1951.6737307664334 1271.6843918624975,2000.662130269348 1309.8698495968517,2041.0556027549485 1349.5527676514187,2080.6140764054394 1390.715389034619,2119.297636365851 1433.3390205757273,2157.0667374733803 1477.404040493763,2193.882224759738 1517.1680866315921,2209.7509969073303 1557.6367640052442,2224.794894455618 1598.793260913671,2238.9941953009634 1640.620292600127,2252.329515184086 1683.100107963593,2264.7818181818184 1715.443876434357,2248.274002534478 1747.42746207715,2231.2306778115653 1779.0420457293408,2213.659379628801 1810.278961398633,2195.5677879560903 1841.129698609126,2176.963724069127 1855.6969971689082,2125.2780593389393 1868.7293147026203,2073.660499122115 1880.233657850188,2022.1487819002912 1890.217881235068,1970.7804189964943 1898.6906816115984,1919.5926765021477 1895.4538981975904,1851.6341025812214 1890.135716936922,1784.2913464311007 1882.7569197627063,1717.6161907902713 1873.3394591008826,1651.6598758547682 1861.9064451810336,1586.4730742482443 1848.1378421273887,1521.631990771277 1832.3868906926268,1457.6721261891528 1814.6804153824437,1394.6427305556665 1795.0463525295986,1332.5923815436543 1773.5137349174965,1271.5689606988426 1760.981880640234,1224.1232197548995 1747.0458871727744,1177.4147921081772 1731.7278490396484,1131.4780807719474 1715.0506311363506,1086.3469390979574 1697.0378562209146,1042.0546544146453 1686.2934044455271,1006.9190707299003 1674.5494408723666,972.3851665252241 1661.8238123196413,938.477002405748 1648.1348987841918,905.2181972707201 1633.5016034248147,872.6319170706536 1616.7425368874322,839.7684707169412 1599.0448476997194,807.664688553778 1580.430058807407,776.3431817226794 1560.9201940062926,745.8260395789034 1540.537766252126,716.1348191404165 1507.081981204647,679.0454879989084 1472.516010433349,643.2527350687633 1436.8750623540507,608.7837980325 1400.1949541549684,575.6650781246794 1362.5120932832128,543.9221272460309 1311.312064918064,506.6222843057344 1258.9447724249364,471.1869399437892 1205.4598593961148,437.64518137696973 1150.9076239920107,406.0249282247087 1095.338993261257,376.35291861216365 1086.2543049147584,369.7802661034568 1076.9797885858338,363.5431092188044 1067.5244107059468,357.6460181802645 1057.8972384669617,352.0933520349595 1048.1074351745713,346.8892565466331 1043.783722879439,343.97259995555555 1039.3818025830358,341.2154218997132 1034.9059323272004,338.6195383151098 1030.360409270166,336.1866649455187 1025.7495674839515,333.91841653808365 1022.9150923741576,332.2744005733716 1020.0394985688984,330.7336623564688 1017.125531466841,329.29712002998326 1014.1759557037709,327.9656273024277 1011.1935537386996,326.7399730614138 1007.2235560948708,325.4692170913777 1003.2213428276783,324.33915146399045 999.1906186492811,323.3504918834831 995.1351030611062,322.503867544169 991.0585284618567,321.7998208388617 987.951929943,321.3078452675484 984.8338773328142,320.9247884821639 981.7072271388637,320.6508837854167 978.5748402325161,320.48629793664463 975.4395803961561,320.4311310756334 975.4345278170505,320.4307785717292 975.4294721623927,320.430602400309 975.4244180472677,320.4306025345131 975.4193700844183,320.4307788401204 975.4143328819027,320.4311310756334 975.4143328819027,320.4311310756334 975.4143328819027,320.4311310756334 975.4143328819027,320.4311310756334 975.4143328819027,320.4311310756334 975.4143328819027,320.4311310756334 975.4192896111639,320.43016758506724 975.4242112000993,320.42903137428266 975.429093135162,320.4277234026629 975.4339309260461,320.42624473442766 975.4387201079697,320.4245965381033 975.4337484565983,320.42556374917785 975.4288194726768,320.42670208036407 975.4239376070832,320.42801031124554 975.4191072806457,320.42948711830945 975.4143328819027,320.4311310756334 975.4143328819027,320.4311310756334 975.4143328819027,320.4311310756334 975.4143328819027,320.4311310756334 975.4143328819027,320.4311310756334 975.4143328819027,320.4311310756334 975.4143328819027,320.4311310756334 975.4143328819027,320.4311310756334 975.4143328819027,320.4311310756334 975.4143328819027,320.4311310756334 975.4143328819027,320.4311310756334 975.4143328819027,320.4311310756334 975.4143328819027,320.4311310756334 975.4143328819027,320.4311310756334 975.4143328819027,320.4311310756334 975.4143328819027,320.4311310756334 975.4143328819027,320.4311310756334 975.4143328819027,320.4311310756334 975.4143328819027,320.4311310756334 975.4143328819027,320.4311310756334 975.4143328819027,320.4311310756334 975.4143328819027,320.4311310756334 975.4143328819027,320.4311310756334 975.4143328819027,320.4311310756334 975.4143328819027,320.4311310756334 975.4143328819027,320.4311310756334 975.4143328819027,320.4311310756334 975.4143328819027,320.4311310756334 975.4143328819027,320.4311310756334 975.4143328819027,320.4311310756334 975.4143328819027,320.4311310756334 975.4143328819027,320.4311310756334 975.4143328819027,320.4311310756334 975.4143328819027,320.4311310756334 975.4143328819027,320.4311310756334 975.4143328819027,320.4311310756334 975.4143328819027,320.4311310756334 975.4143328819027,320.4311310756334 975.4143328819027,320.4311310756334 975.4143328819027,320.4311310756334 975.4143328819027,320.4311310756334 975.4143328819027,320.4311310756334 975.4143328819027,320.4311310756334 975.4143328819027,320.4311310756334 975.4143328819027,320.4311310756334 975.4143328819027,320.4311310756334 975.4143328819027,320.4311310756334 975.4143328819027,320.4311310756334 975.4143328819027,320.4311310756334 975.4143328819027,320.4311310756334 975.4143328819027,320.4311310756334 975.4143328819027,320.4311310756334 975.4143328819027,320.4311310756334 975.4143328819027,320.4311310756334 975.4143328819027,320.4311310756334 975.4143328819027,320.4311310756334 975.4143328819027,320.4311310756334 975.4143328819027,320.4311310756334 975.4143328819027,320.4311310756334 975.4143328819027,320.4311310756334 975.4143328819027,320.4311310756334 975.4143328819027,320.4311310756334 975.4143328819027,320.4311310756334 975.4143328819027,320.4311310756334 975.4143328819027,320.4311310756334 975.4143328819027,320.4311310756334 975.4143328819027,320.4311310756334 975.4143328819027,320.4311310756334 975.4143328819027,320.4311310756334 975.4143328819027,320.4311310756334 975.4143328819027,320.4311310756334" stroke="black" stroke-width="18.0" /><polyline fill="none" points="975.414332881903,1542.1330982795835 954.6994409501762,1507.1864950295724 935.2041688443742,1471.8995730018883 916.9339006061763,1436.3042528862102 899.8932777121544,1400.4325364129352 884.0861979413423,1364.3164901598877 869.4609216373614,1328.5105008243252 856.056537019998,1292.5223694544597 843.8747658559186,1256.3837835878498 832.9165961468469,1220.1264322243587 823.1822826579626,1183.7819898737948 813.0912232510905,1155.5111366116184 803.9390725052484,1127.1588040742984 795.7254653650467,1098.749125602338 788.4494809068309,1070.3061946186042 782.1096436618454,1041.8540525861997 781.6435355881347,996.1902083524894 782.7087487123522,950.7426956531237 785.2973663649452,905.5509890625729 789.400561669391,860.654348828512 795.0086026795128,816.0918011469225 796.0071446456079,787.8028352774675 797.9352235254366,759.7073413998557 800.7862575776187,731.8290954204797 804.5531192463662,704.191700134953 809.22813923919,676.818573435573 807.3699886083641,664.9730956953438 805.8733593406863,653.1740268611957 804.7360184671863,641.4303540560929 803.9555298646522,629.7509997804295 803.5292558452933,618.1448175659316 805.1552076288497,603.7898999172367 807.2277872637176,589.5858673485532 809.7421636056862,575.5439000232379 812.6932519649673,561.6750543972853 816.0757169705832,547.9902577864318 817.2869551533072,538.0747949127888 818.7941833201699,528.2730895129453 820.5937622374164,518.5924249634013 822.6818890978732,509.0399916151814 825.0545996707154,499.6228833115729 826.6145557835615,491.6056936510936 828.4071285537705,483.6991719725095 830.4289020049875,475.90897055748405 832.6763341677284,468.2406556739604 835.1457590496221,460.6997049079141 837.8152271184097,453.3090429349302 840.6983853638291,446.0557844795669 843.7912249617293,438.9451097700087 847.0896218459148,431.9821005133174 850.5893389336293,425.1717374593361 854.1996959843707,418.58880862478577 858.0001552541391,412.1651404043116 861.9862344522425,405.90533404276243 866.1533490992471,399.813882445437 870.496814950077,393.89516802175035 875.5351289093322,387.80050481057424 880.7522966559801,381.9053761882856 886.1428658777097,376.2141348065386 891.7012874060837,370.7310034009165 897.4219180970252,365.4600727464315 904.226466640914,359.8912096866227 911.1993295680946,354.57485399175835 918.3337439068034,349.5151438305777 925.6228542233481,344.71605785029215 933.0597161365899,340.18141322219276 935.5722803412096,338.16995574832004 938.1412840836865,336.2526016138279 940.7642014406225,334.430692906546 943.4384771018574,332.70551209907217 946.1615276838413,331.07828143651545 947.5127466287183,330.03841767718836 948.8908842963655,329.0491219330954 950.294584479757,328.11100887269185 951.7224778597197,327.2246611833111 953.1731827089045,326.39062930322757 954.390531027208,325.6729536042353 955.625753345729,324.9996846380943 956.8776687860741,324.37122066067514 958.1450881362009,323.78793220787793 959.4268144587476,323.2501619282093 961.3400732539636,322.66027480978664 963.2684549537804,322.13812289784505 965.2101765112488,321.6840439349887 967.1634478795012,321.2983340340759 969.1264729221142,320.98124753995353 970.3771303663957,320.7833665886567 971.6323958700273,320.62933399581425 972.8911194669224,320.51924362967634 974.1521494351722,320.4531625696475 975.4143328819027,320.4311310756334 975.4143328819027,320.4311310756334 975.4143328819027,320.4311310756334 975.4143328819027,320.4311310756334 975.4143328819027,320.4311310756334 975.4143328819027,320.4311310756334 975.4143328819027,320.4311310756334 975.4143328819027,320.4311310756334 975.4143328819027,320.4311310756334 975.4143328819027,320.4311310756334 975.4143328819027,320.4311310756334 975.4143328819027,320.4311310756334 975.4143328819027,320.4311310756334 975.4143328819027,320.4311310756334 975.4143328819027,320.4311310756334 975.4143328819027,320.4311310756334 975.4143328819027,320.4311310756334 975.4143328819027,320.4311310756334 975.4143328819027,320.4311310756334 975.4143328819027,320.4311310756334 975.4143328819027,320.4311310756334 975.4143328819027,320.4311310756334 975.4143328819027,320.4311310756334 975.4143328819027,320.4311310756334 975.4143328819027,320.4311310756334 975.4143328819027,320.4311310756334 975.4143328819027,320.4311310756334 975.4143328819027,320.4311310756334 975.4143328819027,320.4311310756334 975.4143328819027,320.4311310756334 975.4143328819027,320.4311310756334 975.4143328819027,320.4311310756334 975.4143328819027,320.4311310756334 975.4143328819027,320.4311310756334 975.4143328819027,320.4311310756334 975.4143328819027,320.4311310756334 975.4143328819027,320.4311310756334 975.4143328819027,320.4311310756334 975.4143328819027,320.4311310756334 975.4143328819027,320.4311310756334 975.4143328819027,320.4311310756334 975.4143328819027,320.4311310756334 975.4143328819027,320.4311310756334 975.4143328819027,320.4311310756334 975.4143328819027,320.4311310756334 975.4143328819027,320.4311310756334 975.4143328819027,320.4311310756334 975.4143328819027,320.4311310756334 975.4143328819027,320.4311310756334 975.4143328819027,320.4311310756334 975.4143328819027,320.4311310756334 975.4143328819027,320.4311310756334 975.4143328819027,320.4311310756334 975.4143328819027,320.4311310756334 975.4143328819027,320.4311310756334 975.4143328819027,320.4311310756334 975.4143328819027,320.4311310756334 975.4143328819027,320.4311310756334 975.4143328819027,320.4311310756334 975.4143328819027,320.4311310756334 975.4143328819027,320.4311310756334 975.4143328819027,320.4311310756334 975.4143328819027,320.4311310756334 975.4143328819027,320.4311310756334 975.4143328819027,320.4311310756334 975.4143328819027,320.4311310756334 975.4143328819027,320.4311310756334 975.4143328819027,320.4311310756334 975.4143328819027,320.4311310756334 975.4143328819027,320.4311310756334 975.4143328819027,320.4311310756334 975.4143328819027,320.4311310756334 975.4143328819027,320.4311310756334 975.4143328819027,320.4311310756334 975.4143328819027,320.4311310756334 975.4143328819027,320.4311310756334 975.4143328819027,320.4311310756334 975.4143328819027,320.4311310756334 975.4143328819027,320.4311310756334 975.4143328819027,320.4311310756334 975.4143328819027,320.4311310756334 975.4143328819027,320.4311310756334 975.4143328819027,320.4311310756334 975.4143328819027,320.4311310756334 975.4143328819027,320.4311310756334 975.4143328819027,320.4311310756334 975.4143328819027,320.4311310756334 975.4143328819027,320.4311310756334 975.4143328819027,320.4311310756334 975.4143328819027,320.4311310756334 975.4143328819027,320.4311310756334" stroke="black" stroke-width="18.0" /><polyline fill="none" points="975.414332881903,1542.1330982795835 996.6829643841771,1538.9102137796983 1017.8391178527486,1535.3180189740026 1038.8763973534521,1531.359457742689 1059.7884754359777,1527.0375844376906 1080.569095036684,1522.3555623892128 1101.170637733458,1516.922447849648 1121.614679072221,1511.1373983393999 1141.8952283954438,1505.0042543680936 1162.0063810826007,1498.5269580291078 1181.942320265604,1491.7095511670536 1200.669274072487,1479.2673433948087 1219.0253580954857,1466.530895296371 1237.006052299419,1453.5093526451135 1254.6070427399027,1440.2119285563047 1271.824222523118,1426.6478990825306 1288.6926639598505,1412.9625078192423 1305.1744374957045,1399.0278327232916 1321.2660244621256,1384.8531885562977 1336.9641133023044,1370.4479361938695 1352.265600095554,1355.821478238 1366.7758149254153,1339.9626482895471 1380.8483396879292,1323.9155112491217 1394.4810698544734,1307.6904948105043 1407.6721312087852,1291.2980419246837 1420.4198797238275,1274.7486059432817 1431.3859133007654,1255.3114140594105 1441.810760643089,1235.7856599298111 1451.694731872601,1216.18428238315 1461.0384233477582,1196.5201813862866 1469.8427163832514,1176.806212004119 1474.821508454612,1151.5842467199159 1479.0735533333577,1126.454372433995 1482.603669085791,1101.4342199163755 1485.4170668583645,1076.541278303922 1487.5193473754039,1051.792886767169 1484.8562413819727,1021.6177634654596 1481.3005459989752,991.7648105218038 1476.8628069133679,962.2559093881955 1471.5540602305236,933.1126696225213 1465.3858261625899,904.3564184616419 1450.2422165550781,866.6581273208669 1433.9396996189,829.6751417403877 1416.4987833769626,793.4362942649666 1397.940626841863,757.9699168447578 1378.2870287437026,723.3038269374333 1343.6904464517986,676.0712399796571 1307.5805999804227,630.1811862510351 1269.9940232100319,585.671875615086 1230.9681188530606,542.5806480190874 1190.541139155012,500.94395487574525 1177.7578960386077,484.2857177397186 1164.4635735377478,468.1325855020543 1150.6719760594408,452.49723790353755 1136.3971934189221,437.39202553573386 1121.6535935355478,422.82896376753024 1112.1574569761237,412.66553289682633 1102.35454385457,402.8670679633776 1092.2547404805698,393.4411208486342 1081.8681022566907,384.3950088399856 1071.20484848957,375.73581104753316 1065.2548421571255,370.23053855401577 1059.1439560321712,364.9509614140925 1052.8782755538327,359.9009812851591 1046.4639726959283,355.0843558188003 1039.9073027882584,350.50469684012705 1046.6705775960497,352.15645522973637 1053.509248629905,353.58045608467137 1060.4174117155585,354.7746042011638 1067.389113096642,355.73694133035883 1074.4183524208406,356.46564726051633 1062.950546632589,350.5722666328213 1051.3108712570308,345.0914112696091 1039.5102537615421,340.02722064488603 1027.5597126203402,335.38357810427124 1015.47035169676,331.1641089690802 1020.3110022586204,331.62512798564103 1025.1785267453115,331.9201004957006 1030.0685978838726,332.04825372505434 1034.9768700480126,332.00891546300863 1039.898981451814,331.8015144600124 1031.9108647973153,329.3793026633334 1023.8603346549017,327.23977260280435 1015.7548312254162,325.38432145134607 1007.6018237053313,323.8141726837507 999.4088064884558,322.5303755034788 994.7521533389346,321.78336321012966 990.0781633226148,321.19962986481414 985.391118724735,320.7795281143194 980.6953084230236,320.5233108465882 975.9950257097292,320.4311310756334 975.8838651240866,320.4229353598603 975.7726291868299,320.4186190929595 975.6614194333453,320.41818181818167 975.5503373498215,320.4216207167817 975.4394843217419,320.4289306097762 975.4344202464857,320.4290198085405 975.4293684757691,320.4292849368426 975.4243336047749,320.4297255656934 975.4193202169942,320.4303411593562 975.4143328819027,320.4311310756334 975.4143328819027,320.4311310756334 975.4143328819027,320.4311310756334 975.4143328819027,320.4311310756334 975.4143328819027,320.4311310756334 975.4143328819027,320.4311310756334 975.4143328819027,320.4311310756334 975.4143328819027,320.4311310756334 975.4143328819027,320.4311310756334 975.4143328819027,320.4311310756334 975.4143328819027,320.4311310756334 975.4143328819027,320.4311310756334 975.4143328819027,320.4311310756334 975.4143328819027,320.4311310756334 975.4143328819027,320.4311310756334 975.4143328819027,320.4311310756334 975.4143328819027,320.4311310756334 975.4143328819027,320.4311310756334 975.4143328819027,320.4311310756334 975.4143328819027,320.4311310756334 975.4143328819027,320.4311310756334 975.4143328819027,320.4311310756334 975.4143328819027,320.4311310756334 975.4143328819027,320.4311310756334 975.4143328819027,320.4311310756334 975.4143328819027,320.4311310756334 975.4143328819027,320.4311310756334 975.4143328819027,320.4311310756334 975.4143328819027,320.4311310756334 975.4143328819027,320.4311310756334 975.4143328819027,320.4311310756334 975.4143328819027,320.4311310756334 975.4143328819027,320.4311310756334 975.4143328819027,320.4311310756334 975.4143328819027,320.4311310756334 975.4143328819027,320.4311310756334 975.4143328819027,320.4311310756334 975.4143328819027,320.4311310756334 975.4143328819027,320.4311310756334 975.4143328819027,320.4311310756334 975.4143328819027,320.4311310756334 975.4143328819027,320.4311310756334 975.4143328819027,320.4311310756334 975.4143328819027,320.4311310756334 975.4143328819027,320.4311310756334 975.4143328819027,320.4311310756334 975.4143328819027,320.4311310756334 975.4143328819027,320.4311310756334 975.4143328819027,320.4311310756334 975.4143328819027,320.4311310756334 975.4143328819027,320.4311310756334 975.4143328819027,320.4311310756334 975.4143328819027,320.4311310756334 975.4143328819027,320.4311310756334 975.4143328819027,320.4311310756334 975.4143328819027,320.4311310756334 975.4143328819027,320.4311310756334 975.4143328819027,320.4311310756334 975.4143328819027,320.4311310756334 975.4143328819027,320.4311310756334 975.4143328819027,320.4311310756334 975.4143328819027,320.4311310756334 975.4143328819027,320.4311310756334 975.4143328819027,320.4311310756334 975.4143328819027,320.4311310756334 975.4143328819027,320.4311310756334 975.4143328819027,320.4311310756334 975.4143328819027,320.4311310756334 975.4143328819027,320.4311310756334 975.4143328819027,320.4311310756334 975.4143328819027,320.4311310756334 975.4143328819027,320.4311310756334 975.4143328819027,320.4311310756334 975.4143328819027,320.4311310756334 975.4143328819027,320.4311310756334 975.4143328819027,320.4311310756334 975.4143328819027,320.4311310756334 975.4143328819027,320.4311310756334 975.4143328819027,320.4311310756334 975.4143328819027,320.4311310756334 975.4143328819027,320.4311310756334" stroke="black" stroke-dasharray="16.0,16.0" stroke-width="14.0" /><polyline fill="none" points="975.414332881903,1542.1330982795835 954.1457013796282,1538.9102137796983 932.9895479110572,1535.3180189740026 911.9522684103537,1531.359457742689 891.0401903278282,1527.0375844376906 870.2595707271217,1522.3555623892128 849.6580280303476,1516.922447849648 829.2139866915849,1511.1373983393999 808.9334373683615,1505.0042543680931 788.822284681205,1498.526958029108 768.8863454982014,1491.7095511670536 750.1593916913189,1479.2673433948087 731.8033076683196,1466.5308952963708 713.8226134643869,1453.5093526451135 696.2216230239031,1440.2119285563047 679.004443240688,1426.6478990825306 662.1360018039553,1412.9625078192423 645.6542282681008,1399.0278327232916 629.5626413016803,1384.853188556298 613.8645524615009,1370.4479361938695 598.5630656682517,1355.8214782380003 584.0528508383902,1339.9626482895471 569.9803260758767,1323.9155112491217 556.3475959093324,1307.6904948105043 543.1565345550204,1291.2980419246837 530.4087860399782,1274.7486059432817 519.4427524630402,1255.3114140594105 509.01790512071693,1235.7856599298113 499.13393389120444,1216.18428238315 489.7902424160476,1196.5201813862866 480.9859493805541,1176.8062120041188 476.00715730919376,1151.584246719916 471.75511243044804,1126.454372433995 468.2249966780149,1101.4342199163757 465.41159890544117,1076.5412783039221 463.30931838840155,1051.792886767169 465.9724243818331,1021.6177634654596 469.5281197648303,991.7648105218036 473.96585885043794,962.2559093881955 479.27460553328166,933.1126696225213 485.44283960121584,904.3564184616419 500.58644920872774,866.6581273208669 516.8889661449055,829.675141740388 534.3298823868432,793.4362942649666 552.8880389219424,757.9699168447576 572.5416370201029,723.3038269374333 607.138219312007,676.0712399796571 643.248065783383,630.1811862510351 680.8346425537738,585.671875615086 719.8605469107449,542.5806480190874 760.2875266087937,500.9439548757457 773.070769725198,484.2857177397186 786.3650922260576,468.1325855020543 800.1566897043648,452.49723790353755 814.4314723448836,437.39202553573386 829.1750722282579,422.82896376753024 838.6712087876818,412.66553289682633 848.4741219092356,402.8670679633776 858.5739252832359,393.4411208486342 868.960563507115,384.3950088399856 879.6238172742356,375.73581104753316 885.5738236066802,370.23053855401577 891.6847097316344,364.9509614140925 897.950390209973,359.9009812851591 904.3646930678772,355.0843558188003 910.9213629755473,350.50469684012705 904.158088167756,352.15645522973637 897.3194171339005,353.58045608467137 890.4112540482471,354.7746042011638 883.4395526671636,355.73694133035883 876.410313342965,356.46564726051633 887.8781191312165,350.5722666328213 899.5177945067749,345.0914112696091 911.3184120022636,340.02722064488603 923.2689531434653,335.38357810427124 935.3583140670456,331.1641089690802 930.5176635051852,331.62512798564103 925.6501390184941,331.9201004957006 920.760067879933,332.04825372505434 915.8517957157931,332.00891546300863 910.9296843119914,331.8015144600124 918.9178009664903,329.3793026633334 926.9683311089038,327.23977260280435 935.0738345383894,325.38432145134607 943.2268420584742,323.8141726837507 951.4198592753497,322.5303755034788 956.076512424871,321.78336321012966 960.7505024411907,321.19962986481414 965.4375470390706,320.7795281143194 970.133357340782,320.5233108465882 974.8336400540763,320.4311310756334 974.944800639719,320.4229353598603 975.0560365769757,320.4186190929595 975.1672463304603,320.41818181818167 975.2783284139841,320.4216207167817 975.3891814420637,320.4289306097762 975.3942455173199,320.4290198085405 975.3992972880365,320.4292849368426 975.4043321590307,320.4297255656934 975.4093455468114,320.4303411593562 975.4143328819027,320.4311310756334 975.4143328819027,320.4311310756334 975.4143328819027,320.4311310756334 975.4143328819027,320.4311310756334 975.4143328819027,320.4311310756334 975.4143328819027,320.4311310756334 975.4143328819027,320.4311310756334 975.4143328819027,320.4311310756334 975.4143328819027,320.4311310756334 975.4143328819027,320.4311310756334 975.4143328819027,320.4311310756334 975.4143328819027,320.4311310756334 975.4143328819027,320.4311310756334 975.4143328819027,320.4311310756334 975.4143328819027,320.4311310756334 975.4143328819027,320.4311310756334 975.4143328819027,320.4311310756334 975.4143328819027,320.4311310756334 975.4143328819027,320.4311310756334 975.4143328819027,320.4311310756334 975.4143328819027,320.4311310756334 975.4143328819027,320.4311310756334 975.4143328819027,320.4311310756334 975.4143328819027,320.4311310756334 975.4143328819027,320.4311310756334 975.4143328819027,320.4311310756334 975.4143328819027,320.4311310756334 975.4143328819027,320.4311310756334 975.4143328819027,320.4311310756334 975.4143328819027,320.4311310756334 975.4143328819027,320.4311310756334 975.4143328819027,320.4311310756334 975.4143328819027,320.4311310756334 975.4143328819027,320.4311310756334 975.4143328819027,320.4311310756334 975.4143328819027,320.4311310756334 975.4143328819027,320.4311310756334 975.4143328819027,320.4311310756334 975.4143328819027,320.4311310756334 975.4143328819027,320.4311310756334 975.4143328819027,320.4311310756334 975.4143328819027,320.4311310756334 975.4143328819027,320.4311310756334 975.4143328819027,320.4311310756334 975.4143328819027,320.4311310756334 975.4143328819027,320.4311310756334 975.4143328819027,320.4311310756334 975.4143328819027,320.4311310756334 975.4143328819027,320.4311310756334 975.4143328819027,320.4311310756334 975.4143328819027,320.4311310756334 975.4143328819027,320.4311310756334 975.4143328819027,320.4311310756334 975.4143328819027,320.4311310756334 975.4143328819027,320.4311310756334 975.4143328819027,320.4311310756334 975.4143328819027,320.4311310756334 975.4143328819027,320.4311310756334 975.4143328819027,320.4311310756334 975.4143328819027,320.4311310756334 975.4143328819027,320.4311310756334 975.4143328819027,320.4311310756334 975.4143328819027,320.4311310756334 975.4143328819027,320.4311310756334 975.4143328819027,320.4311310756334 975.4143328819027,320.4311310756334 975.4143328819027,320.4311310756334 975.4143328819027,320.4311310756334 975.4143328819027,320.4311310756334 975.4143328819027,320.4311310756334 975.4143328819027,320.4311310756334 975.4143328819027,320.4311310756334 975.4143328819027,320.4311310756334 975.4143328819027,320.4311310756334 975.4143328819027,320.4311310756334 975.4143328819027,320.4311310756334 975.4143328819027,320.4311310756334 975.4143328819027,320.4311310756334 975.4143328819027,320.4311310756334 975.4143328819027,320.4311310756334 975.4143328819027,320.4311310756334" stroke="black" stroke-dasharray="16.0,16.0" stroke-width="14.0" /></g><rect fill="white" height="223.20000000000002" stroke="none" width="2362" x="0" y="0" /><line stroke="black" stroke-width="6.0" x1="0" x2="2362" y1="223.20000000000002" y2="223.20000000000002" /><text font-family="Arial" font-size="124.0" text-anchor="start" x="80.0" y="155.0">LED</text><text font-family="Arial" font-size="124.0" text-anchor="middle" x="1181.0" y="155.0">TEST</text><text font-family="Arial" font-size="124.0" text-anchor="end" x="2282.0" y="155.0">cd / klm</text><rect fill="none" height="2356.0" stroke="black" stroke-width="6.0" width="2356.0" x="3.0" y="3.0" /></svg>