<?xml version="1.0" encoding="utf-8" ?>
<svg baseProfile="full" height="600" version="1.1" width="600" xmlns="http://www.w3.org/2000/svg" xmlns:ev="http://www.w3.org/2001/xml-events" xmlns:xlink="http://www.w3.org/1999/xlink"><defs><clipPath id="plot_clip"><rect height="543.3" width="600.0" x="0" y="56.7" /></clipPath></defs><g clip-path="url(#plot_clip)" id="grid"><circle cx="247.77693428779588" cy="81.39874392808663" fill="none" r="128.26794925967178" stroke="black" stroke-width="1.52" /><text font-family="Arial" font-size="21.34" text-anchor="start" x="251.83693428779588" y="229.98669318775836">200</text><circle cx="247.77693428779588" cy="81.39874392808663" fill="none" r="256.53589851934356" stroke="black" stroke-width="1.52" /><text font-family="Arial" font-size="21.34" text-anchor="start" x="251.8369342877959" y="358.2546424474301">400</text><circle cx="247.77693428779588" cy="81.39874392808663" fill="none" r="384.8038477790153" stroke="black" stroke-width="1.52" /><text font-family="Arial" font-size="21.34" text-anchor="start" x="251.8369342877959" y="486.5225917071019">600</text><circle cx="247.77693428779588" cy="81.39874392808663" fill="none" r="513.0717970386871" stroke="black" stroke-width="1.52" /><text font-family="Arial" font-size="21.34" text-anchor="start" x="251.83693428779597" y="614.7905409667737">800</text><circle cx="247.77693428779588" cy="81.39874392808663" fill="none" r="641.3397462983589" stroke="black" stroke-width="1.52" /><text font-family="Arial" font-size="21.34" text-anchor="start" x="251.83693428779597" y="743.0584902264455">1000</text><line stroke="black" stroke-width="1.52" x1="-2380.2409441189893" x2="2875.794812694581" y1="81.3987439280864" y2="81.39874392808686" /><line stroke="black" stroke-width="1.52" x1="-2028.1533100121637" x2="2523.7071785877556" y1="-1232.610195275306" y2="1395.4076831314794" /><line stroke="black" stroke-width="1.52" x1="-1066.2320049155965" x2="1561.7858734911883" y1="-2194.5315003718733" y2="2357.3289882280465" /><line stroke="black" stroke-width="1.52" x1="247.77693428779588" x2="247.77693428779588" y1="-2546.6191344786985" y2="2709.4166223348716" /><line stroke="black" stroke-width="1.52" x1="1561.7858734911879" x2="-1066.232004915596" y1="-2194.5315003718733" y2="2357.3289882280465" /><line stroke="black" stroke-width="1.52" x1="2523.7071785877556" x2="-2028.1533100121637" y1="-1232.610195275306" y2="1395.4076831314794" /><line stroke="black" stroke-width="1.52" x1="2875.7948126945807" x2="-2380.240944118989" y1="81.3987439280864" y2="81.39874392808686" /></g><g clip-path="url(#plot_clip)" id="curves"><polyline fill="none" points="247.7769342877959,391.7366337643994 253.3806706454334,402.43658484603253 259.3578296505843,413.0321967798361 265.706419191845,423.51369612280763 272.4242198005765,433.8713481802523 279.5087854139794,444.09546196380023 287.2829820233557,457.2736802301167 295.52638629499495,470.28682282066245 304.23553116072605,483.12253468603006 313.4066613836532,495.7685327872653 323.0357350378226,508.2126123879449 332.73564114735814,518.4734004940917 342.8159335445183,528.5220814059637 353.27210158149825,538.3485159143289 364.0993968013805,547.9426587195097 375.2928348607917,557.294563639408 385.39373549043574,561.3255641573558 395.6736272134137,565.1470292489887 406.1282395055159,568.7539490868774 416.7531816764771,572.1413996631354 427.54394457481766,575.3045454545455 435.7599392494792,571.1112145020486 443.8844399413296,566.7818530274095 451.91520639833124,562.3183752348642 459.8500372769203,557.722731997636 467.686770737955,552.996910083578 471.38716970351027,539.8676686173768 474.6976513362322,526.7557271241094 477.6199954694255,513.6706719685936 480.15619734197327,500.6220318126029 482.3084661116427,487.6192730239464 481.4862553257673,470.3563717656524 480.1353258892041,453.2499011202622 478.2609568482693,436.31301498800923 475.86872457897397,419.55872945198024 472.9644995637065,402.9999164199883 469.46698598644576,386.52892303442803 465.4659143974678,370.2817777064552 460.9680987830941,354.27099098134164 455.980635557009,338.50890260551114 450.51089965432755,323.00767549452075 447.3275461716099,310.9554634808475 443.7875119230262,299.0905444886724 439.8964093806065,287.421657603983 435.66004670674175,275.95740228722656 431.0844245767828,264.7062342170734 428.355108769055,255.7810599997918 425.371896028594,247.00872497342158 422.13931982104964,238.39534103564745 418.6620490506131,229.9469078816075 414.9448855155703,221.66931014797365 410.68773157422015,213.32130640570136 406.1921478189908,205.16627328000158 401.46360152892476,197.20995447443966 396.507687209472,189.4579611479419 391.3301236229568,181.91576923461201 382.831653445149,172.49430223948326 374.0511728391802,163.40219326858937 364.99762548015514,154.64636126381947 355.6801096841193,146.2335126917609 346.10787370524105,138.17013827041728 333.10199404805695,128.69519686894768 319.7996048524724,119.69387716077263 306.2133166307786,111.17356790822312 292.3559061692816,103.14136127944836 278.2403100050687,95.60404931830392 275.93260887422304,93.93445790817653 273.5766874596426,92.3500894139594 271.1748234227328,90.85210476778452 268.72932002015165,89.44161125892715 266.2425049234826,88.11966199821656 265.1441914346359,87.37877013084592 264.0260114752961,86.67838915191426 262.8890466772807,86.0189803472036 261.7343886087906,85.4009795515711 260.5631382149013,84.82479694461422 259.8431221651767,84.40718245348451 259.11266110551827,84.01580267358777 258.3724524246937,83.65089083237793 257.6231983981012,83.31266378969936 256.8656058286121,83.00132193952966 255.8571432702185,82.6785233054729 254.84049726869165,82.39146296539452 253.81660889851995,82.14032272316076 252.7864229909758,81.92526240730633 251.7508876535098,81.74641979696726 250.96174655789784,81.62144769677339 250.16969588316718,81.52414324965373 249.3754612420725,81.45456571938321 248.57976935586592,81.41275746632648 247.78334768525886,81.39874392808663 247.78206422433306,81.39865438471129 247.7807799821526,81.39860963348038 247.77949613104573,81.39860966757097 247.7782138427457,81.39865445288827 247.77693428779588,81.39874392808663 247.77693428779588,81.39874392808663 247.77693428779588,81.39874392808663 247.77693428779588,81.39874392808663 247.77693428779588,81.39874392808663 247.77693428779588,81.39874392808663 247.77819340085347,81.39849918130115 247.77944358753228,81.3982105599625 247.7806837012968,81.39787830777387 247.78191260151527,81.39750269506949 247.78312915403964,81.39708401867934 247.7818662504535,81.3973297105518 247.7806141852933,81.39761887051698 247.7793740891754,81.39795118856348 247.77814708508268,81.39832632849148 247.77693428779588,81.39874392808663 247.77693428779588,81.39874392808663 247.77693428779588,81.39874392808663 247.77693428779588,81.39874392808663 247.77693428779588,81.39874392808663 247.77693428779588,81.39874392808663 247.77693428779588,81.39874392808663 247.77693428779588,81.39874392808663 247.77693428779588,81.39874392808663 247.77693428779588,81.39874392808663 247.77693428779588,81.39874392808663 247.77693428779588,81.39874392808663 247.77693428779588,81.39874392808663 247.77693428779588,81.39874392808663 247.77693428779588,81.39874392808663 247.77693428779588,81.39874392808663 247.77693428779588,81.39874392808663 247.77693428779588,81.39874392808663 247.77693428779588,81.39874392808663 247.77693428779588,81.39874392808663 247.77693428779588,81.39874392808663 247.77693428779588,81.39874392808663 247.77693428779588,81.39874392808663 247.77693428779588,81.39874392808663 247.77693428779588,81.39874392808663 247.77693428779588,81.39874392808663 247.77693428779588,81.39874392808663 247.77693428779588,81.39874392808663 247.77693428779588,81.39874392808663 247.77693428779588,81.39874392808663 247.77693428779588,81.39874392808663 247.77693428779588,81.39874392808663 247.77693428779588,81.39874392808663 247.77693428779588,81.39874392808663 247.77693428779588,81.39874392808663 247.77693428779588,81.39874392808663 247.77693428779588,81.39874392808663 247.77693428779588,81.39874392808663 247.77693428779588,81.39874392808663 247.77693428779588,81.39874392808663 247.77693428779588,81.39874392808663 247.77693428779588,81.39874392808663 247.77693428779588,81.39874392808663 247.77693428779588,81.39874392808663 247.77693428779588,81.39874392808663 247.77693428779588,81.39874392808663 247.77693428779588,81.39874392808663 247.77693428779588,81.39874392808663 247.77693428779588,81.39874392808663 247.77693428779588,81.39874392808663 247.77693428779588,81.39874392808663 247.77693428779588,81.39874392808663 247.77693428779588,81.39874392808663 247.77693428779588,81.39874392808663 247.77693428779588,81.39874392808663 247.77693428779588,81.39874392808663 247.77693428779588,81.39874392808663 247.77693428779588,81.39874392808663 247.77693428779588,81.39874392808663 247.77693428779588,81.39874392808663 247.77693428779588,81.39874392808663 247.77693428779588,81.39874392808663 247.77693428779588,81.39874392808663 247.77693428779588,81.39874392808663 247.77693428779588,81.39874392808663 247.77693428779588,81.39874392808663 247.77693428779588,81.39874392808663 247.77693428779588,81.39874392808663 247.77693428779588,81.39874392808663 247.77693428779588,81.39874392808663 247.77693428779588,81.39874392808663" stroke="black" stroke-width="4.57" /><polyline fill="none" points="247.7769342877959,391.7366337643994 242.5149178362777,382.85946453598586 237.5627103670977,373.8958472096155 232.9216795396183,364.8538903090882 228.5930043861107,355.74172294424324 224.57767502409357,346.5674906975252 220.86254849709113,337.4720194024012 217.45755403168363,328.3302802153581 214.36312899266906,319.150322434673 211.5795243531803,309.94019573007944 209.10680482890928,300.70794609053326 206.54346436895338,293.52655719145883 204.21862637558516,286.32447084980646 202.132198117089,279.1078174395689 200.2839456595667,271.88271719482304 198.67349420304876,264.6552771507771 198.555092989075,253.05570422569076 198.8256794349266,241.5110840416785 199.48324254071198,230.0314439675031 200.52554009490376,218.62675692843197 201.95009997932456,207.3069363956999 202.2037505544973,200.12094651498404 202.69352297614074,192.9841025727237 203.41774534408094,185.90244414716028 204.37460710985172,178.8819668427716 205.5621601125173,171.92861929471974 205.09015093086043,168.91961982947453 204.70997574798716,165.9224091984699 204.42106734300654,162.93927031918605 204.22280688959492,159.97246969361663 204.1145243598036,157.02425630426893 204.52755017054147,153.3778065387295 205.05402881072462,149.76968474400076 205.6927330685288,146.20273091575888 206.44237132624218,142.67975362541847 207.3015882878801,139.20352864006372 207.60926815728064,136.68479337765012 207.99213568255487,134.19495489638257 208.44926642210044,131.73586332645215 208.9796943832404,129.3093451676304 209.58241256830922,126.9172024047024 209.9786740963199,124.8806683002801 210.4340251277649,122.87224618134674 210.9475979330979,120.89337184583924 211.51849277787866,118.94545924240818 212.14577842325593,117.02989979262652 212.82387922827382,115.15251684428064 213.55626181418012,113.31003726750914 214.34190785567029,111.50377694877763 215.17976975354665,109.7350267481229 216.06877120003782,108.00505188033345 216.98587751463842,106.33285006819058 217.9512737748148,104.70110378794762 218.96382138484353,103.11098185217539 220.02235579092059,101.56362555292965 221.12568709667892,100.06014811399702 222.40552437649163,98.51197599756166 223.73079426463158,97.01448984622006 225.10011175956598,95.56879532466446 226.51206725627702,94.17596509618382 227.96522727796608,92.83703830331787 229.69372513839943,91.42243043891058 231.4649783777566,90.07196473430066 233.27726905955038,88.78669237102709 235.12885576002668,87.56762400881969 237.01797446091706,86.41572928914213 237.65621839787696,85.90477695813645 238.30879915965352,85.41772884645248 238.97507510879478,84.95492587251097 239.6543971429957,84.51669381121458 240.3461090287222,84.10334313842277 240.68934694379217,83.83919596222945 241.0394227782941,83.58789412111965 241.39599202723585,83.349593753756 241.7587068548652,83.12444287492652 242.12721627349347,82.91258130748243 242.43644824531614,82.73027664726995 242.75022058758864,82.55925222735955 243.06823333246405,82.39960921308428 243.39018439517392,82.25144172832422 243.71576972855695,82.11483681297734 244.20177753828244,81.96499312893077 244.6916268825458,81.83235560613385 245.18486483007368,81.71701003828282 245.68103667146673,81.61903164424605 246.17968615045106,81.53848503294212 246.49737933797587,81.488219126434 246.81624306909754,81.44909162143536 247.13598522834255,81.42112636244765 247.45631325422158,81.404340389045 247.77693428779588,81.39874392808663 247.77693428779588,81.39874392808663 247.77693428779588,81.39874392808663 247.77693428779588,81.39874392808663 247.77693428779588,81.39874392808663 247.77693428779588,81.39874392808663 247.77693428779588,81.39874392808663 247.77693428779588,81.39874392808663 247.77693428779588,81.39874392808663 247.77693428779588,81.39874392808663 247.77693428779588,81.39874392808663 247.77693428779588,81.39874392808663 247.77693428779588,81.39874392808663 247.77693428779588,81.39874392808663 247.77693428779588,81.39874392808663 247.77693428779588,81.39874392808663 247.77693428779588,81.39874392808663 247.77693428779588,81.39874392808663 247.77693428779588,81.39874392808663 247.77693428779588,81.39874392808663 247.77693428779588,81.39874392808663 247.77693428779588,81.39874392808663 247.77693428779588,81.39874392808663 247.77693428779588,81.39874392808663 247.77693428779588,81.39874392808663 247.77693428779588,81.39874392808663 247.77693428779588,81.39874392808663 247.77693428779588,81.39874392808663 247.77693428779588,81.39874392808663 247.77693428779588,81.39874392808663 247.77693428779588,81.39874392808663 247.77693428779588,81.39874392808663 247.77693428779588,81.39874392808663 247.77693428779588,81.39874392808663 247.77693428779588,81.39874392808663 247.77693428779588,81.39874392808663 247.77693428779588,81.39874392808663 247.77693428779588,81.39874392808663 247.77693428779588,81.39874392808663 247.77693428779588,81.39874392808663 247.77693428779588,81.39874392808663 247.77693428779588,81.39874392808663 247.77693428779588,81.39874392808663 247.77693428779588,81.39874392808663 247.77693428779588,81.39874392808663 247.77693428779588,81.39874392808663 247.77693428779588,81.39874392808663 247.77693428779588,81.39874392808663 247.77693428779588,81.39874392808663 247.77693428779588,81.39874392808663 247.77693428779588,81.39874392808663 247.77693428779588,81.39874392808663 247.77693428779588,81.39874392808663 247.77693428779588,81.39874392808663 247.77693428779588,81.39874392808663 247.77693428779588,81.39874392808663 247.77693428779588,81.39874392808663 247.77693428779588,81.39874392808663 247.77693428779588,81.39874392808663 247.77693428779588,81.39874392808663 247.77693428779588,81.39874392808663 247.77693428779588,81.39874392808663 247.77693428779588,81.39874392808663 247.77693428779588,81.39874392808663 247.77693428779588,81.39874392808663 247.77693428779588,81.39874392808663 247.77693428779588,81.39874392808663 247.77693428779588,81.39874392808663 247.77693428779588,81.39874392808663 247.77693428779588,81.39874392808663 247.77693428779588,81.39874392808663 247.77693428779588,81.39874392808663 247.77693428779588,81.39874392808663 247.77693428779588,81.39874392808663 247.77693428779588,81.39874392808663 247.77693428779588,81.39874392808663 247.77693428779588,81.39874392808663 247.77693428779588,81.39874392808663 247.77693428779588,81.39874392808663 247.77693428779588,81.39874392808663 247.77693428779588,81.39874392808663 247.77693428779588,81.39874392808663 247.77693428779588,81.39874392808663 247.77693428779588,81.39874392808663 247.77693428779588,81.39874392808663 247.77693428779588,81.39874392808663 247.77693428779588,81.39874392808663 247.77693428779588,81.39874392808663 247.77693428779588,81.39874392808663 247.77693428779588,81.39874392808663 247.77693428779588,81.39874392808663" stroke="black" stroke-width="4.57" /><polyline fill="none" points="247.7769342877959,391.7366337643994 253.17961218904222,390.91795359384236 258.55371831372656,390.00546086991557 263.8976279605997,388.9999033998517 269.20973382474597,387.90205705301906 274.48844648093814,386.71272538155 279.72166985252846,385.3326004847174 284.9148845801093,383.8630767335869 290.066568911186,382.30512969804795 295.17522294846503,380.65976075239115 300.23936908561,378.92799660980927 304.99640761341976,375.7674152171308 309.65923744776387,372.5320906183459 314.2267104050282,369.22434603146155 318.69773065297795,365.84652178073696 323.0712549545586,362.4009741778281 327.356192411346,358.92459813829913 331.5429081220387,355.3848987836937 335.6305082711207,351.7842422585732 339.6181516537975,348.12500642141816 343.5050498091989,344.4095797300848 347.1909483116598,340.3811047389708 350.76566436901624,336.3047958021543 354.22866338691574,332.1833017722774 357.57946927516986,328.01927537763254 360.8176644164745,323.8153719884911 363.6032666431203,318.8779181122487 366.2513962303115,313.91796757053777 368.76213195548166,308.9388070968605 371.1356253061703,303.94371355300603 373.3721001547692,298.93595239472495 374.6368176282919,292.5290449050543 375.7169260922074,286.14553045791536 376.6136494362774,279.78988763819274 377.3283114008554,273.46655905298326 377.8623346872344,267.17994921479465 377.1858499826191,259.51483583821954 376.2826288765865,251.9315604808752 375.15535019451687,244.4356814899039 373.8068173383409,237.03268814564973 372.23995668325,229.72799801300255 368.39316263997284,220.15184242258596 364.25198186036494,210.75738942750723 359.8216238118121,201.5519630980719 355.1074633267179,192.5427603430694 350.11503773913114,183.73684737942182 341.32678116572947,171.73878094302762 332.15412379341853,160.0817460679761 322.60634599308503,148.77544885995707 312.69294883713667,137.8293744477137 302.42364919717505,127.25278225359655 299.176437683643,123.02124109219609 295.79940130122424,118.91800715507112 292.2960466584506,114.94630136197488 288.6699528635218,111.10926102186467 284.9247696689092,107.40993829011553 282.51255207365256,104.82821396243015 280.0224068057733,102.33919862750277 277.4568451950129,99.94481062140586 274.81842152424724,97.64690868840661 272.1097317114192,95.44729107075212 270.5983054722116,94.04883654217163 269.0460123958662,92.70771336089224 267.45439831138833,91.42491262961796 265.825031029408,90.20138887056017 264.1594995347208,89.03805956295163 265.87751300165223,89.4576407921805 267.61467868927787,89.8193668369188 269.36949681366326,90.12270547152242 271.14045499598166,90.36715925976428 272.92602902105983,90.55226582973559 270.0129661424564,89.05522370563479 267.05624478864075,87.66297163960094 264.05864076521686,86.37656114473835 261.02295299543243,85.19697867217629 257.9520020931596,84.12514512946571 259.1816287297122,84.24225361632632 260.4180819060818,84.31718281247147 261.6602624042959,84.34973641706661 262.9070663442516,84.33974367451499 264.1573857409625,84.28705947546503 262.1282367890319,83.67176694267296 260.08323350383773,83.12828149200648 258.02426585223895,82.65695803465321 255.95323116659182,82.25810735883756 253.87203317990372,81.93199598421536 252.68914574015486,81.74223921454241 251.5018543730955,81.5939587177639 250.31124686887438,81.48724407355049 249.11841269227077,81.42215952073646 247.92444242944453,81.39874392808663 247.89620531228553,81.3966620446101 247.86794905423824,81.39556562240735 247.8396994474175,81.39545454545448 247.811482271441,81.39632809773123 247.78332328034526,81.39818496366713 247.78203689915642,81.39820762202164 247.78075364357838,81.39827497016388 247.7794746808838,81.39838689912149 247.77820117537544,81.39854327280632 247.77693428779588,81.39874392808663 247.77693428779588,81.39874392808663 247.77693428779588,81.39874392808663 247.77693428779588,81.39874392808663 247.77693428779588,81.39874392808663 247.77693428779588,81.39874392808663 247.77693428779588,81.39874392808663 247.77693428779588,81.39874392808663 247.77693428779588,81.39874392808663 247.77693428779588,81.39874392808663 247.77693428779588,81.39874392808663 247.77693428779588,81.39874392808663 247.77693428779588,81.39874392808663 247.77693428779588,81.39874392808663 247.77693428779588,81.39874392808663 247.77693428779588,81.39874392808663 247.77693428779588,81.39874392808663 247.77693428779588,81.39874392808663 247.77693428779588,81.39874392808663 247.77693428779588,81.39874392808663 247.77693428779588,81.39874392808663 247.77693428779588,81.39874392808663 247.77693428779588,81.39874392808663 247.77693428779588,81.39874392808663 247.77693428779588,81.39874392808663 247.77693428779588,81.39874392808663 247.77693428779588,81.39874392808663 247.77693428779588,81.39874392808663 247.77693428779588,81.39874392808663 247.77693428779588,81.39874392808663 247.77693428779588,81.39874392808663 247.77693428779588,81.39874392808663 247.77693428779588,81.39874392808663 247.77693428779588,81.39874392808663 247.77693428779588,81.39874392808663 247.77693428779588,81.39874392808663 247.77693428779588,81.39874392808663 247.77693428779588,81.39874392808663 247.77693428779588,81.39874392808663 247.77693428779588,81.39874392808663 247.77693428779588,81.39874392808663 247.77693428779588,81.39874392808663 247.77693428779588,81.39874392808663 247.77693428779588,81.39874392808663 247.77693428779588,81.39874392808663 247.77693428779588,81.39874392808663 247.77693428779588,81.39874392808663 247.77693428779588,81.39874392808663 247.77693428779588,81.39874392808663 247.77693428779588,81.39874392808663 247.77693428779588,81.39874392808663 247.77693428779588,81.39874392808663 247.77693428779588,81.39874392808663 247.77693428779588,81.39874392808663 247.77693428779588,81.39874392808663 247.77693428779588,81.39874392808663 247.77693428779588,81.39874392808663 247.77693428779588,81.39874392808663 247.77693428779588,81.39874392808663 247.77693428779588,81.39874392808663 247.77693428779588,81.39874392808663 247.77693428779588,81.39874392808663 247.77693428779588,81.39874392808663 247.77693428779588,81.39874392808663 247.77693428779588,81.39874392808663 247.77693428779588,81.39874392808663 247.77693428779588,81.39874392808663 247.77693428779588,81.39874392808663 247.77693428779588,81.39874392808663 247.77693428779588,81.39874392808663 247.77693428779588,81.39874392808663 247.77693428779588,81.39874392808663 247.77693428779588,81.39874392808663 247.77693428779588,81.39874392808663 247.77693428779588,81.39874392808663 247.77693428779588,81.39874392808663 247.77693428779588,81.39874392808663 247.77693428779588,81.39874392808663 247.77693428779588,81.39874392808663 247.77693428779588,81.39874392808663 247.77693428779588,81.39874392808663" stroke="black" stroke-dasharray="4.06,4.06" stroke-width="3.56" /><polyline fill="none" points="247.7769342877959,391.7366337643994 242.3742563865495,390.91795359384236 237.0001502618653,390.00546086991557 231.65624061499216,388.9999033998517 226.34413475084585,387.90205705301906 221.06542209465368,386.71272538155 215.83219872306339,385.3326004847174 210.63898399548256,383.863076733587 205.4872996644057,382.3051296980479 200.3786456271268,380.65976075239115 195.3144994899817,378.92799660980927 190.55746096217206,375.7674152171308 185.8946311278278,372.5320906183459 181.32715817056362,369.2243460314616 176.8561379226139,365.84652178073696 172.48261362103324,362.4009741778281 168.19767616424585,358.92459813829913 164.01096045355305,355.3848987836937 159.92336030447117,351.7842422585733 155.93571692179424,348.12500642141816 152.04881876639294,344.4095797300848 148.36292026393187,340.3811047389708 144.7882042065756,336.30479580215433 141.32520518867608,332.1833017722774 137.97439930042202,328.01927537763254 134.73620415911736,323.8153719884911 131.9506019324714,318.8779181122487 129.30247234528034,313.9179675705378 126.79173662011009,308.9388070968605 124.41824326942151,303.94371355300603 122.18176842082248,298.9359523947249 120.91705094729991,292.5290449050544 119.83694248338438,286.14553045791536 118.94021913931438,279.7898876381928 118.22555717473644,273.4665590529833 117.69153388835733,267.17994921479465 118.36801859297269,259.51483583821954 119.27123969900524,251.93156048087513 120.39851838107491,244.4356814899039 121.7470512372508,237.03268814564973 123.3139118923418,229.72799801300255 127.16070593561896,220.15184242258596 131.30188671522689,210.75738942750735 135.7322447637797,201.5519630980719 140.44640524887384,192.5427603430693 145.43883083646065,183.73684737942182 154.2270874098623,171.73878094302762 163.39974478217323,160.0817460679761 172.94752258250674,148.77544885995707 182.86091973845512,137.8293744477137 193.1302193784167,127.25278225359666 196.37743089194882,123.02124109219609 199.7544672743675,118.91800715507112 203.25782191714114,114.94630136197488 206.88391571206998,111.10926102186467 210.62909890668251,107.40993829011553 213.0413165019392,104.82821396243015 215.53146176981846,102.33919862750277 218.09702338057886,99.94481062140586 220.7354470513445,97.64690868840661 223.44413686417258,95.44729107075212 224.95556310338011,94.04883654217163 226.50785617972556,92.70771336089224 228.09947026420346,91.42491262961796 229.7288375461837,90.20138887056017 231.39436904087097,89.03805956295163 229.67635557393953,89.4576407921805 227.93918988631393,89.8193668369188 226.18437176192853,90.12270547152242 224.4134135796101,90.36715925976428 222.62783955453193,90.55226582973559 225.54090243313541,89.05522370563479 228.497623786951,87.66297163960094 231.4952278103749,86.37656114473835 234.53091558015933,85.19697867217629 237.60186648243217,84.12514512946571 236.37223984587953,84.24225361632632 235.13578666950997,84.31718281247147 233.8936061712959,84.34973641706661 232.6468022313402,84.33974367451499 231.39648283462924,84.28705947546503 233.42563178655988,83.67176694267296 235.47063507175403,83.12828149200648 237.5296027233528,82.65695803465321 239.60063740899994,82.25810735883756 241.68183539568804,81.93199598421536 242.8647228354369,81.74223921454241 244.05201420249625,81.5939587177639 245.2426217067174,81.48724407355049 246.435455883321,81.42215952073646 247.62942614614724,81.39874392808663 247.65766326330623,81.3966620446101 247.68591952135353,81.39556562240735 247.71416912817426,81.39545454545448 247.74238630415076,81.39632809773123 247.7705452952465,81.39818496366713 247.77183167643537,81.39820762202164 247.77311493201339,81.39827497016388 247.77439389470797,81.39838689912149 247.77566740021635,81.39854327280632 247.77693428779588,81.39874392808663 247.77693428779588,81.39874392808663 247.77693428779588,81.39874392808663 247.77693428779588,81.39874392808663 247.77693428779588,81.39874392808663 247.77693428779588,81.39874392808663 247.77693428779588,81.39874392808663 247.77693428779588,81.39874392808663 247.77693428779588,81.39874392808663 247.77693428779588,81.39874392808663 247.77693428779588,81.39874392808663 247.77693428779588,81.39874392808663 247.77693428779588,81.39874392808663 247.77693428779588,81.39874392808663 247.77693428779588,81.39874392808663 247.77693428779588,81.39874392808663 247.77693428779588,81.39874392808663 247.77693428779588,81.39874392808663 247.77693428779588,81.39874392808663 247.77693428779588,81.39874392808663 247.77693428779588,81.39874392808663 247.77693428779588,81.39874392808663 247.77693428779588,81.39874392808663 247.77693428779588,81.39874392808663 247.77693428779588,81.39874392808663 247.77693428779588,81.39874392808663 247.77693428779588,81.39874392808663 247.77693428779588,81.39874392808663 247.77693428779588,81.39874392808663 247.77693428779588,81.39874392808663 247.77693428779588,81.39874392808663 247.77693428779588,81.39874392808663 247.77693428779588,81.39874392808663 247.77693428779588,81.39874392808663 247.77693428779588,81.39874392808663 247.77693428779588,81.39874392808663 247.77693428779588,81.39874392808663 247.77693428779588,81.39874392808663 247.77693428779588,81.39874392808663 247.77693428779588,81.39874392808663 247.77693428779588,81.39874392808663 247.77693428779588,81.39874392808663 247.77693428779588,81.39874392808663 247.77693428779588,81.39874392808663 247.77693428779588,81.39874392808663 247.77693428779588,81.39874392808663 247.77693428779588,81.39874392808663 247.77693428779588,81.39874392808663 247.77693428779588,81.39874392808663 247.77693428779588,81.39874392808663 247.77693428779588,81.39874392808663 247.77693428779588,81.39874392808663 247.77693428779588,81.39874392808663 247.77693428779588,81.39874392808663 247.77693428779588,81.39874392808663 247.77693428779588,81.39874392808663 247.77693428779588,81.39874392808663 247.77693428779588,81.39874392808663 247.77693428779588,81.39874392808663 247.77693428779588,81.39874392808663 247.77693428779588,81.39874392808663 247.77693428779588,81.39874392808663 247.77693428779588,81.39874392808663 247.77693428779588,81.39874392808663 247.77693428779588,81.39874392808663 247.77693428779588,81.39874392808663 247.77693428779588,81.39874392808663 247.77693428779588,81.39874392808663 247.77693428779588,81.39874392808663 247.77693428779588,81.39874392808663 247.77693428779588,81.39874392808663 247.77693428779588,81.39874392808663 247.77693428779588,81.39874392808663 247.77693428779588,81.39874392808663 247.77693428779588,81.39874392808663 247.77693428779588,81.39874392808663 247.77693428779588,81.39874392808663 247.77693428779588,81.39874392808663 247.77693428779588,81.39874392808663 247.77693428779588,81.39874392808663 247.77693428779588,81.39874392808663" stroke="black" stroke-dasharray="4.06,4.06" stroke-width="3.56" /></g><rect fill="white" height="56.7" stroke="none" width="600" x="0" y="0" /><line stroke="black" stroke-width="1.52" x1="0" x2="600" y1="56.7" y2="56.7" /><text font-family="Arial" font-size="31.5" text-anchor="start" x="20.32" y="39.375">LED</text><text font-family="Arial" font-size="31.5" text-anchor="middle" x="300.0" y="39.375">TEST</text><text font-family="Arial" font-size="31.5" text-anchor="end" x="579.68" y="39.375">cd / klm</text><rect fill="none" height="598.48" stroke="black" stroke-width="1.52" width="598.48" x="0.76" y="0.76" /></svg>