<?xml version="1.0" encoding="utf-8" ?>
<svg baseProfile="full" height="800" version="1.1" width="800" xmlns="http://www.w3.org/2000/svg" xmlns:ev="http://www.w3.org/2001/xml-events" xmlns:xlink="http://www.w3.org/1999/xlink"><defs><clipPath id="plot_clip"><rect height="724.4" width="800.0" x="0" y="75.60000000000001" /></clipPath></defs><g clip-path="url(#plot_clip)" id="grid"><circle cx="330.3692457170612" cy="108.53165857078214" fill="none" r="171.02393234622903" stroke="black" stroke-width="2.03" /><text font-family="Arial" font-size="28.45" text-anchor="start" x="335.7892457170612" y="306.6555909170112">200</text><circle cx="330.3692457170612" cy="108.53165857078214" fill="none" r="342.04786469245806" stroke="black" stroke-width="2.03" /><text font-family="Arial" font-size="28.45" text-anchor="start" x="335.78924571706125" y="477.67952326324024">400</text><circle cx="330.3692457170612" cy="108.53165857078214" fill="none" r="513.0717970386871" stroke="black" stroke-width="2.03" /><text font-family="Arial" font-size="28.45" text-anchor="start" x="335.78924571706125" y="648.7034556094693">600</text><circle cx="330.3692457170612" cy="108.53165857078214" fill="none" r="684.0957293849161" stroke="black" stroke-width="2.03" /><text font-family="Arial" font-size="28.45" text-anchor="start" x="335.7892457170613" y="819.7273879556983">800</text><circle cx="330.3692457170612" cy="108.53165857078214" fill="none" r="855.1196617311451" stroke="black" stroke-width="2.03" /><text font-family="Arial" font-size="28.45" text-anchor="start" x="335.7892457170613" y="990.7513203019273">1000</text><line stroke="black" stroke-width="2.03" x1="-3173.6545921586526" x2="3834.393083592775" y1="108.53165857078191" y2="108.53165857078237" /><line stroke="black" stroke-width="2.03" x1="-2704.2044133495515" x2="3364.942904783674" y1="-1643.4802603670746" y2="1860.543577508639" /><line stroke="black" stroke-width="2.03" x1="-1421.6426732207951" x2="2082.3811646549175" y1="-2926.042000495831" y2="3143.1053176373953" /><line stroke="black" stroke-width="2.03" x1="330.3692457170612" x2="330.3692457170612" y1="-3395.4921793049307" y2="3612.555496446495" /><line stroke="black" stroke-width="2.03" x1="2082.3811646549175" x2="-1421.6426732207951" y1="-2926.042000495831" y2="3143.1053176373953" /><line stroke="black" stroke-width="2.03" x1="3364.9429047836743" x2="-2704.204413349552" y1="-1643.4802603670746" y2="1860.543577508639" /><line stroke="black" stroke-width="2.03" x1="3834.3930835927745" x2="-3173.654592158652" y1="108.53165857078191" y2="108.53165857078237" /></g><g clip-path="url(#plot_clip)" id="curves"><polyline fill="none" points="330.36924571706123,522.315511685866 337.8408941939112,536.5821131280435 345.8104395341124,550.7095957064482 354.27522558912665,564.6849281637435 363.23229306743536,578.4951309070032 372.6783805519725,592.1272826184004 383.04397603114097,609.6982403068224 394.03518172665997,627.0490970942167 405.6473748809681,644.1633795813735 417.87554851153766,661.0247103830205 430.71431338376345,677.61681651726 443.6475215298109,691.2978673254556 457.0879113926911,704.696108541285 471.029468775331,717.7980212191053 485.4658624018407,730.590211626013 500.3904464810556,743.0594181858773 513.8583139872476,748.434085543141 527.5648362845516,753.529372331985 541.504319340688,758.3385987825031 555.6709089019695,762.8551995508471 570.0585927664235,767.0727272727273 581.013252332639,761.4816193360649 591.8459199217729,755.7091373698794 602.5536085311082,749.7578336464857 613.1333830358938,743.6303093301813 623.58236098394,737.3292134447706 628.516226271347,719.8235581565025 632.930201781643,702.3409694988126 636.8266606259007,684.8942292914581 640.208263122631,667.496042416804 643.0779548155236,650.1590306985953 641.9816737676897,627.14182902087 640.1804345189388,604.333201493683 637.6812757976924,581.7506866506791 634.4916327719652,559.4116392693071 630.6193327516087,537.3332218933177 625.955981315261,515.3718973792373 620.6212191966238,493.7090369419404 614.6241317107921,472.36132130845556 607.9741807426786,451.3452034740149 600.6811995391034,430.67690065936114 596.4367282288133,414.60728464113015 591.716682564035,398.78739265156327 586.5285458408086,383.22887680531073 580.8800622756556,367.94320304963543 574.7792327690437,352.9416456227646 571.1401450254067,341.0414133330558 567.1625280381253,329.34496663122883 562.8524264280661,317.8604547141967 558.2160654008176,306.59587717547674 553.2598473540937,295.5590801972983 547.5836420989602,284.42840854093515 541.5895304253211,273.5550310400022 535.2848020385663,262.9466059659196 528.676916279296,252.6106148639226 521.7734981639425,242.55435897948269 510.44220459353204,229.99240298597772 498.73489711890693,217.8695910247859 486.66350064020685,206.19514835175937 474.2401462454924,194.97801692234793 461.47716494032136,184.22685102722312 444.1359920640759,171.59359582526372 426.39947313662987,159.59183621436364 408.28442217437146,148.23142387763085 389.8078748923755,137.52181503926454 370.9870800067583,127.4720657577386 367.91014516563075,125.2459438775687 364.7689166128568,123.13345255194587 361.5664312303104,121.13613969037941 358.3057600268688,119.25548167856958 354.99000656464347,117.49288266428879 353.52558857951453,116.5050268411279 352.0346819670615,115.57118553588565 350.51872890304094,114.69197379627154 348.97918481172076,113.86797273542821 347.4175176198684,113.09972925948556 346.45749622023556,112.54290993797939 345.4835481406911,112.02107023145037 344.4966032329249,111.5345211098372 343.4975978641349,111.08355171959919 342.4874744381495,110.66842925270622 341.1428576936247,110.23803107396394 339.78732969158887,109.85528395385948 338.4221451980266,109.5204302975478 337.0485639879677,109.2336832097419 335.6678502046798,108.99522639595635 334.61566207719716,108.82859692903126 333.55959451088955,108.69885766620506 332.50061498943,108.60608762584432 331.4396924744879,108.55034328843531 330.3777969136785,108.53165857078214 330.3760856324441,108.53153917961502 330.3743733095368,108.53147951130721 330.37266150806096,108.53147955676137 330.37095179032764,108.53153927051765 330.3692457170612,108.53165857078214 330.3692457170612,108.53165857078214 330.3692457170612,108.53165857078214 330.3692457170612,108.53165857078214 330.3692457170612,108.53165857078214 330.3692457170612,108.53165857078214 330.37092453447127,108.53133224173494 330.37259145004305,108.53094741328333 330.3742449350624,108.5305044103652 330.37588346868705,108.53000359342592 330.3775055387195,108.52944535823927 330.37582166727134,108.5297729474024 330.37415224705774,108.53015849402264 330.3724987855672,108.53060158475135 330.37086278011026,108.53110177132201 330.3692457170612,108.53165857078214 330.3692457170612,108.53165857078214 330.3692457170612,108.53165857078214 330.3692457170612,108.53165857078214 330.3692457170612,108.53165857078214 330.3692457170612,108.53165857078214 330.3692457170612,108.53165857078214 330.3692457170612,108.53165857078214 330.3692457170612,108.53165857078214 330.3692457170612,108.53165857078214 330.3692457170612,108.53165857078214 330.3692457170612,108.53165857078214 330.3692457170612,108.53165857078214 330.3692457170612,108.53165857078214 330.3692457170612,108.53165857078214 330.3692457170612,108.53165857078214 330.3692457170612,108.53165857078214 330.3692457170612,108.53165857078214 330.3692457170612,108.53165857078214 330.3692457170612,108.53165857078214 330.3692457170612,108.53165857078214 330.3692457170612,108.53165857078214 330.3692457170612,108.53165857078214 330.3692457170612,108.53165857078214 330.3692457170612,108.53165857078214 330.3692457170612,108.53165857078214 330.3692457170612,108.53165857078214 330.3692457170612,108.53165857078214 330.3692457170612,108.53165857078214 330.3692457170612,108.53165857078214 330.3692457170612,108.53165857078214 330.3692457170612,108.53165857078214 330.3692457170612,108.53165857078214 330.3692457170612,108.53165857078214 330.3692457170612,108.53165857078214 330.3692457170612,108.53165857078214 330.3692457170612,108.53165857078214 330.3692457170612,108.53165857078214 330.3692457170612,108.53165857078214 330.3692457170612,108.53165857078214 330.3692457170612,108.53165857078214 330.3692457170612,108.53165857078214 330.3692457170612,108.53165857078214 330.3692457170612,108.53165857078214 330.3692457170612,108.53165857078214 330.3692457170612,108.53165857078214 330.3692457170612,108.53165857078214 330.3692457170612,108.53165857078214 330.3692457170612,108.53165857078214 330.3692457170612,108.53165857078214 330.3692457170612,108.53165857078214 330.3692457170612,108.53165857078214 330.3692457170612,108.53165857078214 330.3692457170612,108.53165857078214 330.3692457170612,108.53165857078214 330.3692457170612,108.53165857078214 330.3692457170612,108.53165857078214 330.3692457170612,108.53165857078214 330.3692457170612,108.53165857078214 330.3692457170612,108.53165857078214 330.3692457170612,108.53165857078214 330.3692457170612,108.53165857078214 330.3692457170612,108.53165857078214 330.3692457170612,108.53165857078214 330.3692457170612,108.53165857078214 330.3692457170612,108.53165857078214 330.3692457170612,108.53165857078214 330.3692457170612,108.53165857078214 330.3692457170612,108.53165857078214 330.3692457170612,108.53165857078214 330.3692457170612,108.53165857078214" stroke="black" stroke-width="6.1" /><polyline fill="none" points="330.36924571706123,522.315511685866 323.3532237817036,510.4792860479812 316.7502804894636,498.52779627948746 310.5622393861577,486.47185374545097 304.7906725148142,474.32229725899106 299.43690003212475,462.0899875967003 294.4833979961215,449.96269253653503 289.94340537557815,437.77370695381086 285.81750532355875,425.53376324623076 282.10603247090705,413.25359430677264 278.80907310521235,400.9439281207111 275.39128582527115,391.3687429219452 272.29150183411355,381.7659611330754 269.509597489452,372.143756586092 267.0452608794223,362.51028959309747 264.89799227073166,352.8737028677029 264.74012398543334,337.40760563425437 265.10090591323547,322.0147787222381 265.9776567209493,306.7085919566709 267.367386793205,291.50234257124276 269.26679997243275,276.40924852759997 269.60500073932974,266.82792868664546 270.2580306348543,257.31213676363177 271.2236604587746,247.86992552954712 272.49947614646896,238.50928912369557 274.0828801500231,229.23815905962635 273.45353457448056,225.22615977263274 272.94663433064954,221.22987893129334 272.56142312400874,217.25236042558151 272.2970758527932,213.29662625815558 272.15269914640476,209.36567507235873 272.7034002273886,204.5037420516394 273.40537174763284,199.69291299200108 274.25697742470504,194.93697455434528 275.25649510165624,190.23967150055807 276.40211771717344,185.6047048534184 276.81235754304083,182.24639117020024 277.32284757673983,178.9266065285101 277.93235522946725,175.64781776860298 278.6395925109872,172.4124602235073 279.44321675774563,169.2229365396032 279.9715654617599,166.5075577337069 280.57870017035316,163.82966157512897 281.2634639107972,161.19116246111912 282.02465703717155,158.5939456565443 282.8610378976746,156.03986639016875 283.7651723043651,153.53668912570754 284.7416824189068,151.0800496900123 285.78921047422705,148.6717025983702 286.90635967139553,146.31336899749726 288.09169493338374,144.00673584044466 289.3145033528512,141.7771334242541 290.6016983664197,139.60147171726362 291.95176184645806,137.4813091362339 293.3631410545608,135.41816740390618 294.8342494622386,133.4135308186627 296.5406991686555,131.3493013300823 298.30772568617544,129.35265312829347 300.133482346088,127.42506043288596 302.016089675036,125.56795346157843 303.95363637062144,123.78271773775712 306.2583001845326,121.89657391854745 308.6199711703421,120.09595297906763 311.03635874606715,118.3822564947029 313.5051410133689,116.75683201175967 316.0239659478894,115.22097238552293 316.87495786383596,114.53970261084861 317.74506554620467,113.89030512860334 318.63343347839304,113.2732344966813 319.5391961906609,112.68892508161956 320.46147870496293,112.13779085123052 320.91912925838955,111.78559461630594 321.38589703772544,111.45052549482612 321.8613227029811,111.13279167167478 322.34494247315365,110.83259049990203 322.83628836465795,110.55010840997669 323.2485976604215,110.30703552969327 323.66696078345154,110.07900296981266 324.09097777661873,109.86614561744578 324.5202458602319,109.66858897109908 324.95435963807597,109.48644908396987 325.60237005104324,109.286657505241 326.25550251006104,109.10980747484528 326.91315310676487,108.95601338437721 327.57471556195566,108.82537552566133 328.23958153393477,108.7179800439229 328.66317245063453,108.65095883524542 329.08832409213005,108.59878882858048 329.5146469711234,108.56150181659699 329.94175100562876,108.53912051872668 330.3692457170612,108.53165857078214 330.3692457170612,108.53165857078214 330.3692457170612,108.53165857078214 330.3692457170612,108.53165857078214 330.3692457170612,108.53165857078214 330.3692457170612,108.53165857078214 330.3692457170612,108.53165857078214 330.3692457170612,108.53165857078214 330.3692457170612,108.53165857078214 330.3692457170612,108.53165857078214 330.3692457170612,108.53165857078214 330.3692457170612,108.53165857078214 330.3692457170612,108.53165857078214 330.3692457170612,108.53165857078214 330.3692457170612,108.53165857078214 330.3692457170612,108.53165857078214 330.3692457170612,108.53165857078214 330.3692457170612,108.53165857078214 330.3692457170612,108.53165857078214 330.3692457170612,108.53165857078214 330.3692457170612,108.53165857078214 330.3692457170612,108.53165857078214 330.3692457170612,108.53165857078214 330.3692457170612,108.53165857078214 330.3692457170612,108.53165857078214 330.3692457170612,108.53165857078214 330.3692457170612,108.53165857078214 330.3692457170612,108.53165857078214 330.3692457170612,108.53165857078214 330.3692457170612,108.53165857078214 330.3692457170612,108.53165857078214 330.3692457170612,108.53165857078214 330.3692457170612,108.53165857078214 330.3692457170612,108.53165857078214 330.3692457170612,108.53165857078214 330.3692457170612,108.53165857078214 330.3692457170612,108.53165857078214 330.3692457170612,108.53165857078214 330.3692457170612,108.53165857078214 330.3692457170612,108.53165857078214 330.3692457170612,108.53165857078214 330.3692457170612,108.53165857078214 330.3692457170612,108.53165857078214 330.3692457170612,108.53165857078214 330.3692457170612,108.53165857078214 330.3692457170612,108.53165857078214 330.3692457170612,108.53165857078214 330.3692457170612,108.53165857078214 330.3692457170612,108.53165857078214 330.3692457170612,108.53165857078214 330.3692457170612,108.53165857078214 330.3692457170612,108.53165857078214 330.3692457170612,108.53165857078214 330.3692457170612,108.53165857078214 330.3692457170612,108.53165857078214 330.3692457170612,108.53165857078214 330.3692457170612,108.53165857078214 330.3692457170612,108.53165857078214 330.3692457170612,108.53165857078214 330.3692457170612,108.53165857078214 330.3692457170612,108.53165857078214 330.3692457170612,108.53165857078214 330.3692457170612,108.53165857078214 330.3692457170612,108.53165857078214 330.3692457170612,108.53165857078214 330.3692457170612,108.53165857078214 330.3692457170612,108.53165857078214 330.3692457170612,108.53165857078214 330.3692457170612,108.53165857078214 330.3692457170612,108.53165857078214 330.3692457170612,108.53165857078214 330.3692457170612,108.53165857078214 330.3692457170612,108.53165857078214 330.3692457170612,108.53165857078214 330.3692457170612,108.53165857078214 330.3692457170612,108.53165857078214 330.3692457170612,108.53165857078214 330.3692457170612,108.53165857078214 330.3692457170612,108.53165857078214 330.3692457170612,108.53165857078214 330.3692457170612,108.53165857078214 330.3692457170612,108.53165857078214 330.3692457170612,108.53165857078214 330.3692457170612,108.53165857078214 330.3692457170612,108.53165857078214 330.3692457170612,108.53165857078214 330.3692457170612,108.53165857078214 330.3692457170612,108.53165857078214 330.3692457170612,108.53165857078214 330.3692457170612,108.53165857078214 330.3692457170612,108.53165857078214" stroke="black" stroke-width="6.1" /><polyline fill="none" points="330.36924571706123,522.315511685866 337.57281625205627,521.2239381251231 344.73829108496875,520.0072811598875 351.86350394746626,518.666537866469 358.946311766328,517.2027427373588 365.9845953079175,515.6169671754001 372.96222647003793,513.7768006462899 379.886512773479,511.8174356447827 386.7554252149147,509.7401729307307 393.56696393128675,507.5463476698549 400.3191587808133,505.2373288130791 406.661876817893,501.0232202895078 412.8789832636852,496.7094541577946 418.9689472067043,492.2991280419488 424.9303075373039,487.79536237431597 430.7616732727448,483.20129890377086 436.474923215128,478.56613085106557 442.05721082938487,473.84653171159175 447.50734436149423,469.0456563447644 452.82420220506333,464.1666752285576 458.0067330789319,459.21277297344636 462.92126441554643,453.8414729852945 467.68755249202167,448.4063944028725 472.30488451588764,442.91106902970324 476.77262570022646,437.3590338368434 481.09021922196604,431.7538293179883 484.8043555241604,425.17055748299833 488.3351949737487,418.5572900940505 491.6828426073089,411.9184094624808 494.84750040822706,405.25828473734146 497.82946687302564,398.5812698596333 499.5157568377225,390.0387265400725 500.9559014562766,381.52737394388726 502.15153258170324,373.0531835175904 503.1044152011405,364.6220787373111 503.8164462496459,356.2399322863929 502.9144666434922,346.01978111762617 501.71017183544865,335.90874730783366 500.20713359268916,325.9142419865386 498.4090897844546,316.0435841941997 496.3199422443333,306.30399735067016 491.1908835199638,293.5357898967814 485.6693091471533,281.0098525700098 479.7621650824161,268.73595079742927 473.47661776895717,256.72368045742587 466.8200503188415,244.98246317256246 455.1023748876393,228.9850412573703 442.87216505789144,213.44232809063487 430.1417946574467,198.3672651466095 416.92393178284885,183.77249926361833 403.2315322629001,169.6703763381288 398.901916911524,164.02832145626155 394.39920173496563,158.55734287342818 389.7280622112675,153.26173514929997 384.89327048469573,148.14568136248624 379.899692891879,143.2132510534875 376.6834027648701,139.77095194990693 373.3632090743644,136.45226483667045 369.9424602600172,133.25974749520788 366.4245620323297,130.1958782512089 362.8129756152256,127.26305476100286 360.79774062961553,125.39844872289551 358.72801652782164,123.61028448118974 356.60586441518444,121.89988350615725 354.4333747058774,120.26851849408023 352.2126660462944,118.71741275060218 354.50335066886964,119.27685438957404 356.8195715857038,119.75915578255841 359.15932908488435,120.16360729536324 361.5206066613089,120.48954567968575 363.9013720280798,120.73635443964746 360.01728818994184,118.74029827417972 356.074993051521,116.88396218613467 352.0781876869558,115.16874819298458 348.0306039939099,113.59597156290168 343.93600279087946,112.16686017262099 345.57550497294966,112.32300482176844 347.22410920810904,112.42291041662871 348.8803498723945,112.46631522275548 350.54275512566875,112.45299156601992 352.20984765461674,112.38274596728682 349.5043157187092,111.56235592356403 346.77764467178366,110.83770865600876 344.0323544696519,110.20927737953762 341.2709748887891,109.67747647845009 338.49604423987165,109.24266131228727 336.91886098687314,108.98965228605663 335.335805830794,108.79194495701857 333.7483291584992,108.64965876473399 332.15788358969434,108.56287936098202 330.56592323925935,108.53165857078214 330.52827374971406,108.52888272614676 330.4905987389843,108.5274208298765 330.45293259655665,108.52727272727269 330.4153096952547,108.52843746364157 330.3777643737937,108.53091328488959 330.3760491988752,108.53094349602894 330.37433819143786,108.53103329355189 330.37263290784506,108.5311825321621 330.3709349005006,108.53139103040847 330.3692457170612,108.53165857078214 330.3692457170612,108.53165857078214 330.3692457170612,108.53165857078214 330.3692457170612,108.53165857078214 330.3692457170612,108.53165857078214 330.3692457170612,108.53165857078214 330.3692457170612,108.53165857078214 330.3692457170612,108.53165857078214 330.3692457170612,108.53165857078214 330.3692457170612,108.53165857078214 330.3692457170612,108.53165857078214 330.3692457170612,108.53165857078214 330.3692457170612,108.53165857078214 330.3692457170612,108.53165857078214 330.3692457170612,108.53165857078214 330.3692457170612,108.53165857078214 330.3692457170612,108.53165857078214 330.3692457170612,108.53165857078214 330.3692457170612,108.53165857078214 330.3692457170612,108.53165857078214 330.3692457170612,108.53165857078214 330.3692457170612,108.53165857078214 330.3692457170612,108.53165857078214 330.3692457170612,108.53165857078214 330.3692457170612,108.53165857078214 330.3692457170612,108.53165857078214 330.3692457170612,108.53165857078214 330.3692457170612,108.53165857078214 330.3692457170612,108.53165857078214 330.3692457170612,108.53165857078214 330.3692457170612,108.53165857078214 330.3692457170612,108.53165857078214 330.3692457170612,108.53165857078214 330.3692457170612,108.53165857078214 330.3692457170612,108.53165857078214 330.3692457170612,108.53165857078214 330.3692457170612,108.53165857078214 330.3692457170612,108.53165857078214 330.3692457170612,108.53165857078214 330.3692457170612,108.53165857078214 330.3692457170612,108.53165857078214 330.3692457170612,108.53165857078214 330.3692457170612,108.53165857078214 330.3692457170612,108.53165857078214 330.3692457170612,108.53165857078214 330.3692457170612,108.53165857078214 330.3692457170612,108.53165857078214 330.3692457170612,108.53165857078214 330.3692457170612,108.53165857078214 330.3692457170612,108.53165857078214 330.3692457170612,108.53165857078214 330.3692457170612,108.53165857078214 330.3692457170612,108.53165857078214 330.3692457170612,108.53165857078214 330.3692457170612,108.53165857078214 330.3692457170612,108.53165857078214 330.3692457170612,108.53165857078214 330.3692457170612,108.53165857078214 330.3692457170612,108.53165857078214 330.3692457170612,108.53165857078214 330.3692457170612,108.53165857078214 330.3692457170612,108.53165857078214 330.3692457170612,108.53165857078214 330.3692457170612,108.53165857078214 330.3692457170612,108.53165857078214 330.3692457170612,108.53165857078214 330.3692457170612,108.53165857078214 330.3692457170612,108.53165857078214 330.3692457170612,108.53165857078214 330.3692457170612,108.53165857078214 330.3692457170612,108.53165857078214 330.3692457170612,108.53165857078214 330.3692457170612,108.53165857078214 330.3692457170612,108.53165857078214 330.3692457170612,108.53165857078214 330.3692457170612,108.53165857078214 330.3692457170612,108.53165857078214 330.3692457170612,108.53165857078214 330.3692457170612,108.53165857078214 330.3692457170612,108.53165857078214 330.3692457170612,108.53165857078214" stroke="black" stroke-dasharray="5.42,5.42" stroke-width="4.74" /><polyline fill="none" points="330.36924571706123,522.315511685866 323.16567518206597,521.2239381251231 316.0002003491537,520.0072811598875 308.8749874866562,518.666537866469 301.79217966779447,517.2027427373588 294.75389612620495,515.6169671754001 287.77626496408453,513.7768006462899 280.85197866064345,511.8174356447827 273.98306621920756,509.74017293073064 267.1715275028357,507.546347669855 260.41933265330897,505.2373288130791 254.07661461622942,501.0232202895078 247.85950817043707,496.70945415779454 241.76954422741815,492.29912804194885 235.80818389681855,487.79536237431597 229.97681816137765,483.20129890377086 224.26356821899446,478.56613085106557 218.68128060473742,473.84653171159175 213.23114707262823,469.04565634476444 207.914289229059,464.16667522855755 202.7317583551906,459.2127729734464 197.81722701857584,453.8414729852945 193.0509389421008,448.4063944028725 188.43360691823474,442.91106902970324 183.96586573389604,437.3590338368435 179.64827221215648,431.7538293179883 175.93413590996184,425.17055748299833 172.40329646037378,418.55729009405053 169.05564882681344,411.9184094624807 165.89099102589535,405.25828473734146 162.90902456109663,398.58126985963327 161.22273459639987,390.03872654007256 159.78258997784584,381.52737394388726 158.58695885241917,373.05318351759047 157.63407623298193,364.62207873731114 156.92204518447645,356.2399322863929 157.82402479063026,346.01978111762617 159.02831959867365,335.9087473078336 160.53135784143322,325.9142419865386 162.32940164966774,316.0435841941997 164.41854918978908,306.30399735067016 169.54760791415862,293.5357898967814 175.06918228696915,281.0098525700098 180.97632635170626,268.73595079742927 187.26187366516513,256.72368045742587 193.91844111528084,244.98246317256246 205.63611654648304,228.9850412573703 217.86632637623097,213.44232809063487 230.59669677667563,198.3672651466095 243.81455965127347,183.77249926361833 257.50695917122226,169.6703763381289 261.8365745225984,164.02832145626155 266.33928969915667,158.55734287342818 271.01042922285484,153.26173514929997 275.8452209494266,148.14568136248624 280.83879854224335,143.2132510534875 284.0550886692523,139.77095194990693 287.37528235975793,136.45226483667045 290.79603117410517,133.25974749520788 294.3139294017927,130.1958782512089 297.92551581889677,127.26305476100286 299.9407508045068,125.39844872289551 302.0104749063008,123.61028448118974 304.13262701893797,121.89988350615725 306.30511672824497,120.26851849408023 308.525825387828,118.71741275060218 306.2351407652527,119.27685438957404 303.91891984841857,119.75915578255841 301.579162349238,120.16360729536324 299.2178847728135,120.48954567968575 296.8371194060426,120.73635443964746 300.7212032441806,118.74029827417972 304.66349838260135,116.88396218613467 308.66030374716655,115.16874819298458 312.70788744021246,113.59597156290168 316.8024886432429,112.16686017262099 315.1629864611727,112.32300482176844 313.5143822260133,112.42291041662871 311.85814156172785,112.46631522275548 310.1957363084536,112.45299156601992 308.5286437795056,112.38274596728682 311.2341757154132,111.56235592356403 313.9608467623387,110.83770865600876 316.70613696447043,110.20927737953762 319.4675165453333,109.67747647845009 322.2424471942507,109.24266131228727 323.8196304472492,108.98965228605663 325.40268560332834,108.79194495701857 326.99016227562316,108.64965876473399 328.580607844428,108.56287936098202 330.172568194863,108.53165857078214 330.2102176844083,108.52888272614676 330.24789269513803,108.5274208298765 330.2855588375657,108.52727272727269 330.3231817388677,108.52843746364157 330.36072706032866,108.53091328488959 330.36244223524716,108.53094349602894 330.3641532426845,108.53103329355189 330.3658585262773,108.5311825321621 330.3675565336218,108.53139103040847 330.3692457170612,108.53165857078214 330.3692457170612,108.53165857078214 330.3692457170612,108.53165857078214 330.3692457170612,108.53165857078214 330.3692457170612,108.53165857078214 330.3692457170612,108.53165857078214 330.3692457170612,108.53165857078214 330.3692457170612,108.53165857078214 330.3692457170612,108.53165857078214 330.3692457170612,108.53165857078214 330.3692457170612,108.53165857078214 330.3692457170612,108.53165857078214 330.3692457170612,108.53165857078214 330.3692457170612,108.53165857078214 330.3692457170612,108.53165857078214 330.3692457170612,108.53165857078214 330.3692457170612,108.53165857078214 330.3692457170612,108.53165857078214 330.3692457170612,108.53165857078214 330.3692457170612,108.53165857078214 330.3692457170612,108.53165857078214 330.3692457170612,108.53165857078214 330.3692457170612,108.53165857078214 330.3692457170612,108.53165857078214 330.3692457170612,108.53165857078214 330.3692457170612,108.53165857078214 330.3692457170612,108.53165857078214 330.3692457170612,108.53165857078214 330.3692457170612,108.53165857078214 330.3692457170612,108.53165857078214 330.3692457170612,108.53165857078214 330.3692457170612,108.53165857078214 330.3692457170612,108.53165857078214 330.3692457170612,108.53165857078214 330.3692457170612,108.53165857078214 330.3692457170612,108.53165857078214 330.3692457170612,108.53165857078214 330.3692457170612,108.53165857078214 330.3692457170612,108.53165857078214 330.3692457170612,108.53165857078214 330.3692457170612,108.53165857078214 330.3692457170612,108.53165857078214 330.3692457170612,108.53165857078214 330.3692457170612,108.53165857078214 330.3692457170612,108.53165857078214 330.3692457170612,108.53165857078214 330.3692457170612,108.53165857078214 330.3692457170612,108.53165857078214 330.3692457170612,108.53165857078214 330.3692457170612,108.53165857078214 330.3692457170612,108.53165857078214 330.3692457170612,108.53165857078214 330.3692457170612,108.53165857078214 330.3692457170612,108.53165857078214 330.3692457170612,108.53165857078214 330.3692457170612,108.53165857078214 330.3692457170612,108.53165857078214 330.3692457170612,108.53165857078214 330.3692457170612,108.53165857078214 330.3692457170612,108.53165857078214 330.3692457170612,108.53165857078214 330.3692457170612,108.53165857078214 330.3692457170612,108.53165857078214 330.3692457170612,108.53165857078214 330.3692457170612,108.53165857078214 330.3692457170612,108.53165857078214 330.3692457170612,108.53165857078214 330.3692457170612,108.53165857078214 330.3692457170612,108.53165857078214 330.3692457170612,108.53165857078214 330.3692457170612,108.53165857078214 330.3692457170612,108.53165857078214 330.3692457170612,108.53165857078214 330.3692457170612,108.53165857078214 330.3692457170612,108.53165857078214 330.3692457170612,108.53165857078214 330.3692457170612,108.53165857078214 330.3692457170612,108.53165857078214 330.3692457170612,108.53165857078214 330.3692457170612,108.53165857078214 330.3692457170612,108.53165857078214" stroke="black" stroke-dasharray="5.42,5.42" stroke-width="4.74" /></g><rect fill="white" height="75.60000000000001" stroke="none" width="800" x="0" y="0" /><line stroke="black" stroke-width="2.03" x1="0" x2="800" y1="75.60000000000001" y2="75.60000000000001" /><text font-family="Arial" font-size="42.0" text-anchor="start" x="27.1" y="52.5">LED</text><text font-family="Arial" font-size="42.0" text-anchor="middle" x="400.0" y="52.5" /><text font-family="Arial" font-size="42.0" text-anchor="end" x="772.9" y="52.5">cd / klm</text><rect fill="none" height="797.97" stroke="black" stroke-width="2.03" width="797.97" x="1.015" y="1.015" /></svg>