<?xml version="1.0" encoding="utf-8" ?>
<svg baseProfile="full" height="300" version="1.1" width="300" xmlns="http://www.w3.org/2000/svg" xmlns:ev="http://www.w3.org/2001/xml-events" xmlns:xlink="http://www.w3.org/1999/xlink"><defs><clipPath id="plot_clip"><rect height="271.65" width="300.0" x="0" y="28.35" /></clipPath></defs><g clip-path="url(#plot_clip)" id="grid"><circle cx="149.99999999999997" cy="215.73762872882807" fill="none" r="29.71986527469558" stroke="black" stroke-width="0.76" /><text font-family="Arial" font-size="10.67" text-anchor="start" x="152.02999999999997" y="184.49776345413247">40</text><circle cx="149.99999999999997" cy="215.73762872882807" fill="none" r="59.43973054939116" stroke="black" stroke-width="0.76" /><text font-family="Arial" font-size="10.67" text-anchor="start" x="152.02999999999997" y="154.77789817943687">80</text><circle cx="149.99999999999997" cy="215.73762872882807" fill="none" r="89.15959582408674" stroke="black" stroke-width="0.76" /><text font-family="Arial" font-size="10.67" text-anchor="start" x="152.02999999999997" y="125.05803290474132">120</text><circle cx="149.99999999999997" cy="215.73762872882807" fill="none" r="118.87946109878231" stroke="black" stroke-width="0.76" /><text font-family="Arial" font-size="10.67" text-anchor="start" x="152.02999999999997" y="95.33816763004573">160</text><circle cx="149.99999999999997" cy="215.73762872882807" fill="none" r="148.5993263734779" stroke="black" stroke-width="0.76" /><text font-family="Arial" font-size="10.67" text-anchor="start" x="152.02999999999997" y="65.61830235535017">200</text><circle cx="149.99999999999997" cy="215.73762872882807" fill="none" r="178.31919164817347" stroke="black" stroke-width="0.76" /><text font-family="Arial" font-size="10.67" text-anchor="start" x="152.02999999999997" y="35.898437080654574">240</text><line stroke="black" stroke-width="0.76" x1="-735.1690373752145" x2="1035.1690373752144" y1="215.737628728828" y2="215.73762872882813" /><line stroke="black" stroke-width="0.76" x1="-616.5788730103529" x2="916.5788730103529" y1="-226.84688995877937" y2="658.3221474164355" /><line stroke="black" stroke-width="0.76" x1="-292.5845186876072" x2="592.5845186876072" y1="-550.8412442815251" y2="982.3165017391811" /><line stroke="black" stroke-width="0.76" x1="149.99999999999997" x2="149.99999999999997" y1="-669.4314086463866" y2="1100.9066661040426" /><line stroke="black" stroke-width="0.76" x1="592.5845186876072" x2="-292.5845186876073" y1="-550.8412442815251" y2="982.3165017391811" /><line stroke="black" stroke-width="0.76" x1="916.5788730103529" x2="-616.5788730103529" y1="-226.84688995877937" y2="658.3221474164355" /><line stroke="black" stroke-width="0.76" x1="1035.1690373752147" x2="-735.1690373752147" y1="215.737628728828" y2="215.73762872882813" /></g><g clip-path="url(#plot_clip)" id="curves"><polyline fill="none" points="149.99999999999997,287.6522727272727 151.25456491268534,287.6116044398701 152.50771046440494,287.54906074774595 153.7590554088238,287.46467880133895 155.00821936388877,287.3585023922035 156.25482292745596,287.23058193416074 157.47984836144957,286.9036321019789 158.69537357643014,286.55576345593175 159.9010426586324,286.1872078820958 161.09650489201994,285.79820329841806 162.28141486007763,285.38899354396926 163.43756946977018,284.8679307094143 164.57929504963352,284.3278191943042 165.70628045645597,283.76900360070783 166.81822217425474,283.1918335612989 167.9148243946144,282.5966635782035 168.9431661035889,281.80029981056157 169.94920927348429,280.9885521176924 170.93273268515142,280.161955502009 171.89352698788554,279.32104795773455 172.83139473570876,278.46637021984304 173.67612241330485,277.41603632208046 174.49121815207357,276.35552080117594 175.2765872798279,275.28553667196127 176.03215096194026,274.2067970931719 176.75784617649757,273.12001503225736 177.39858098232753,271.91304457071567 178.00544604842608,270.7014113548268 178.57847766711626,269.48592801668275 179.11773014416977,268.2674044340166 179.62327571255278,267.0466473495907 180.00144990742413,265.6684262505209 180.34069728720178,264.2928942327192 180.641231422367,262.92098744426556 180.9032866530357,261.55363531937957 181.12711791830796,260.1917601394864 181.23220692103683,258.72507367135785 181.29578599928956,257.2685394777259 181.31824636972803,255.8231561047227 181.3000013954834,254.3899114516537 181.2414863322436,252.9697823032623 180.77708337849623,251.14261311385698 180.2587578302528,249.34338385829267 179.6873501973814,247.57341416404495 179.06373052076324,245.8340027149186 178.3887978952663,244.12642662409436 176.63837218022655,241.4620057224059 174.804275654349,238.86798997722562 172.88844400344536,236.34647627721492 170.8928604064333,233.8995151951863 168.8195545049097,231.52910997281853 167.94149579867997,230.2663655582344 167.02544439587584,229.03936372021522 166.0723853199692,227.84903978150356 165.0833245604824,226.6963054857263 164.05928854855156,225.58204855238932 163.74664989353775,225.0098611600703 163.41846865528564,224.45168416265338 163.07514033832396,223.90788319816008 162.71706843001482,223.37881433790264 162.34466418659807,222.864823920016 161.70100997522883,222.22360446923656 161.03896780320673,221.6071520256005 160.359208317153,221.01590900303188 159.66241193314636,220.4503019127712 158.9492684852734,219.91074115839623 158.55849994666895,219.54811840829666 158.1579409643802,219.20046922033217 157.74799622853743,218.8680224028291 157.32907539030245,218.55099718122833 156.90159285033872,218.24960309537582 156.70622839924803,218.04676834771652 156.50595887508828,217.85154291022556 156.30099079439475,217.66403493826311 156.09153293248542,217.48434768941607 155.87779621528964,217.31257947798966 155.4992270104748,217.10874001653102 155.1154566769325,216.91862495861264 154.72684946478475,216.7423515985945 154.33377209622554,216.58002868862482 153.9365935781643,216.43175638874212 153.5254111263466,216.29599899698835 153.11081797033958,216.17482568298678 152.69319825079018,216.0683118934758 152.27293766354282,215.9765241037613 151.85042326341576,215.89951978710158 151.4838558322889,215.8413900365638 151.11593548473212,215.796112429406 150.7469992825047,215.76371451858293 150.37738480269982,215.7442160050621 150.00742996631865,215.73762872882807 152.48197367287432,215.69430571721793 154.9542536907271,215.56462237769054 157.42200974320187,215.34865768036977 159.88298385002014,215.04654317570694 162.33492147392968,214.65846293437673 167.1357036468006,213.93659370129183 171.91357777169515,213.04697970431883 176.66415403148218,211.9902262646104 181.3830572061225,210.76704077756344 186.06592889734537,209.378232379913 191.25981508845098,207.71753311696986 196.40510332494412,205.87391952213582 201.49699685822821,203.84861021577012 206.53072716300113,201.64293542600424 211.50155636987145,199.25833636626382 216.01838980118308,196.80716007811247 220.4669330214367,194.19372527588243 224.84290586021277,191.41969449153973 229.14206581995464,188.48683009422948 233.36021025454644,185.39699347400088 236.6337497583964,182.48204797632152 239.8297736474258,179.4440443144322 242.944991715069,176.28482045297093 245.97615464819134,173.0062915738451 248.9200557175821,169.61044920260034 251.0075647616365,166.47294770290117 253.01480622543102,163.24896328223383 254.93940498820712,159.9403573436547 256.7790267182998,156.54904771355743 258.53137911667955,153.07700778029178 259.45161990412106,149.97246063966864 260.29593829994974,146.8170772451073 261.0628467681891,143.61257271543442 261.7508946984543,140.36069848995945 262.3586692185327,137.06324155880017 262.60708922259334,133.92378945371988 262.7796536470497,130.75206395390336 262.8753180711893,127.54976513243389 262.89307445877694,124.31861957381543 262.83195176329343,121.0603796192359 262.40727869974023,118.02347212113145 261.91059345809254,114.97287777939016 261.3412947526915,111.91019166184313 260.6988151515525,108.83702555253058 259.98262147487833,105.75500725394974 259.08176360997373,102.78015582896319 258.1102555056875,99.80357349175509 257.06776808253915,96.82682556153043 255.95400547179167,93.85148821555688 254.76870529242956,90.87914780513114 253.291407353888,88.18336349300804 251.75170850043526,85.5013808723466 250.1496452234731,82.83456064789678 248.48528256677648,80.18426637142201 246.758714235518,77.55186385844314 244.7560912950335,75.2559462459815 242.70267433165546,72.98802847359832 240.5988340159819,70.74918636219337 238.44496313588525,68.54049126452625 236.24147655242757,66.36300962026345 233.94486529334765,64.2970829298022 231.6023147067356,62.265995826350185 229.21434440910969,60.270724204806164 226.7814941159171,58.31223638076512 224.30432353430152,56.39149268573721 221.61085378905847,54.897017707924654 218.88782338937926,53.44808702051001 216.13600277775632,52.045277716099726 213.35617354433816,50.689153847629974 210.54912820610298,49.38026621489707 207.61649260467027,48.407184172815995 204.6683417234131,47.485773402008455 201.70558551826133,46.61627894616729 198.7291377704762,45.79892983215573 195.73991580486273,45.03393901115752 192.73668324125018,44.33015442226097 189.72282323121362,43.679178244371975 186.69926386383943,43.081166959314466 183.66693545148624,42.53626074647136 180.62677024356793,42.04458345287245 177.56459220348788,41.70164295265639 174.4997810664207,41.41262832377627 171.43328545672082,41.177526879623976 168.36605275169342,40.99630926373923 165.2990287889648,40.868929489508595 162.23574901611153,40.75826564852529 159.1732695377943,40.70121880480125 156.11252805060673,40.69772727272724 153.05446034116383,40.74771298087453 149.99999999999997,40.851081519881895" stroke="black" stroke-width="2.29" /><polyline fill="none" points="149.99999999999997,287.6522727272727 148.7454350873146,287.6116044398701 147.49228953559506,287.54906074774595 146.2409445911762,287.46467880133895 144.99178063611123,287.3585023922035 143.74517707254404,287.23058193416074 142.5201516385504,286.9036321019789 141.30462642356983,286.55576345593175 140.09895734136754,286.1872078820958 138.90349510798004,285.79820329841806 137.7185851399223,285.38899354396926 136.56243053022982,284.8679307094143 135.42070495036646,284.3278191943042 134.293719543544,283.76900360070783 133.1817778257452,283.1918335612989 132.08517560538556,282.5966635782035 131.0568338964111,281.80029981056157 130.05079072651566,280.9885521176924 129.06726731484855,280.161955502009 128.1064730121144,279.3210479577345 127.16860526429123,278.46637021984304 126.32387758669508,277.41603632208046 125.5087818479264,276.35552080117594 124.72341272017206,275.28553667196127 123.96784903805973,274.20679709317193 123.2421538235024,273.12001503225736 122.60141901767244,271.91304457071567 121.99455395157392,270.7014113548268 121.4215223328837,269.48592801668275 120.88226985583022,268.2674044340166 120.37672428744716,267.04664734959067 119.99855009257584,265.66842625052095 119.6593027127982,264.2928942327192 119.35876857763294,262.92098744426556 119.09671334696425,261.55363531937957 118.87288208169198,260.1917601394864 118.76779307896312,258.72507367135785 118.70421400071038,257.2685394777259 118.68175363027196,255.82315610472273 118.69999860451655,254.3899114516537 118.75851366775638,252.9697823032623 119.22291662150376,251.142613113857 119.74124216974718,249.34338385829267 120.31264980261861,247.57341416404495 120.93626947923673,245.8340027149186 121.61120210473368,244.12642662409436 123.36162781977342,241.4620057224059 125.19572434565097,238.86798997722565 127.1115559965546,236.34647627721492 129.10713959356667,233.8995151951863 131.1804454950903,231.52910997281853 132.05850420132003,230.2663655582344 132.97455560412413,229.03936372021522 133.92761468003076,227.84903978150356 134.91667543951758,226.6963054857263 135.9407114514484,225.58204855238935 136.25335010646222,225.0098611600703 136.58153134471434,224.45168416265338 136.924859661676,223.90788319816008 137.28293156998515,223.37881433790264 137.6553358134019,222.864823920016 138.29899002477111,222.22360446923656 138.9610321967932,221.6071520256005 139.64079168284698,221.01590900303188 140.3375880668536,220.4503019127712 141.05073151472655,219.91074115839623 141.441500053331,219.54811840829666 141.84205903561977,219.20046922033217 142.25200377146254,218.8680224028291 142.67092460969752,218.55099718122833 143.09840714966126,218.24960309537582 143.29377160075194,218.04676834771652 143.49404112491166,217.85154291022556 143.69900920560522,217.66403493826314 143.90846706751455,217.48434768941607 144.12220378471034,217.31257947798963 144.50077298952516,217.10874001653102 144.88454332306745,216.91862495861267 145.27315053521522,216.7423515985945 145.66622790377443,216.58002868862482 146.06340642183568,216.43175638874212 146.47458887365337,216.29599899698835 146.8891820296604,216.17482568298678 147.3068017492098,216.0683118934758 147.72706233645712,215.9765241037613 148.14957673658418,215.89951978710158 148.51614416771108,215.8413900365638 148.88406451526785,215.796112429406 149.25300071749527,215.76371451858293 149.62261519730015,215.7442160050621 149.99257003368132,215.73762872882807 147.51802632712565,215.69430571721793 145.04574630927286,215.56462237769054 142.5779902567981,215.34865768036977 140.11701614997983,215.04654317570694 137.6650785260703,214.65846293437673 132.86429635319936,213.93659370129186 128.08642222830483,213.04697970431883 123.33584596851779,211.9902262646104 118.61694279387747,210.76704077756344 113.93407110265458,209.378232379913 108.74018491154898,207.71753311696986 103.59489667505584,205.87391952213582 98.50300314177174,203.84861021577012 93.46927283699884,201.64293542600424 88.49844363012852,199.25833636626388 83.98161019881688,196.80716007811245 79.53306697856328,194.19372527588246 75.15709413978722,191.41969449153973 70.85793418004532,188.48683009422953 66.6397897454535,185.39699347400088 63.366250241603574,182.48204797632152 60.170226352574154,179.4440443144322 57.055008284930956,176.28482045297093 54.02384535180861,173.00629157384512 51.079944282417856,169.61044920260034 48.99243523836344,166.4729477029012 46.98519377456892,163.24896328223383 45.060595011792834,159.94035734365474 43.220973281700225,156.54904771355743 41.4686208833204,153.07700778029178 40.548380095878926,149.97246063966864 39.704061700050204,146.8170772451073 38.937153231810775,143.61257271543448 38.24910530154566,140.3606984899594 37.64133078146723,137.06324155880017 37.39291077740664,133.92378945371993 37.220346352950216,130.75206395390342 37.12468192881067,127.54976513243386 37.10692554122308,124.31861957381543 37.16804823670654,121.0603796192359 37.592721300259704,118.02347212113148 38.089406541907394,114.97287777939025 38.65870524730843,111.91019166184307 39.30118484844751,108.83702555253058 40.017378525121636,105.75500725394977 40.91823639002617,102.78015582896327 41.889744494312495,99.80357349175509 42.93223191746079,96.82682556153043 44.04599452820825,93.85148821555694 45.23129470757039,90.87914780513117 46.7085926461119,88.1833634930081 48.24829149956472,85.50138087234654 49.850354776526835,82.83456064789678 51.514717433223446,80.18426637142201 53.24128576448188,77.55186385844317 55.24390870496649,75.25594624598148 57.29732566834452,72.98802847359832 59.401165984018064,70.74918636219337 61.55503686411466,68.54049126452628 63.75852344757234,66.36300962026354 66.05513470665235,64.29708292980217 68.39768529326436,62.265995826350185 70.78565559089024,60.27072420480619 73.21850588408282,58.31223638076518 75.6956764656985,56.39149268573721 78.38914621094152,54.897017707924654 81.11217661062066,53.44808702051004 83.86399722224358,52.045277716099726 86.64382645566172,50.68915384763 89.45087179389698,49.38026621489707 92.38350739532967,48.407184172815995 95.33165827658681,47.485773402008455 98.29441448173856,46.61627894616729 101.2708622295238,45.79892983215573 104.26008419513722,45.03393901115752 107.26331675874977,44.33015442226097 110.27717676878628,43.67917824437203 113.30073613616045,43.081166959314466 116.33306454851378,42.53626074647136 119.37322975643201,42.04458345287245 122.43540779651204,41.70164295265639 125.5002189335792,41.41262832377627 128.5667145432792,41.177526879623976 131.63394724830658,40.99630926373923 134.70097121103512,40.868929489508595 137.76425098388836,40.75826564852529 140.82673046220557,40.70121880480125 143.88747194939327,40.69772727272724 146.9455396588361,40.74771298087453 149.99999999999994,40.851081519881895" stroke="black" stroke-width="2.29" /><polyline fill="none" points="149.99999999999997,287.6522727272727 151.2538387562501,287.57000296555674 152.5048062810525,287.4658958176858 153.75252265503582,287.34002643336356 154.9966097070792,287.1924765648145 156.23669112892932,287.02333452865815 157.45810235852977,286.69673270477733 158.67001999316034,286.34927509059185 159.87208921795965,285.9811934469739 161.06396041344274,285.5927255475069 162.2452892569594,285.1841150677823 163.40141800734202,284.6819475581962 164.5437651818527,284.1606643085569 165.6720171919349,283.62059309706063 166.78586768660577,283.06206679912196 167.88501763440442,282.4854232346907 168.91510882869144,281.7024524648293 169.92335876165268,280.9039989033788 170.90954322796438,280.0905856913884 171.87344961638254,279.26273903702037 172.81487694776484,278.42098797044775 173.66600429848458,277.3896777318068 174.48815650626454,276.3479429618842 175.28123227042684,275.296479584053 176.04514573204233,274.2359838246896 176.7798264526503,273.1671518865816 177.41714635460514,271.95110922481683 178.02028783856315,270.73054000807036 178.58929095660338,269.5062648563987 179.12421395863868,268.27910154495487 179.62513320413248,267.0498646193813 180.04009973447324,265.73275036467516 180.4182617482137,264.41702331790304 180.75979825816674,263.1035643605839 181.0649077676906,261.7932484756544 181.3338081180667,260.486944336285 181.41082640828714,258.970922304253 181.44468579551423,257.46613618124616 181.43580701118015,255.97362686402462 181.3846339059791,254.49442389821525 181.29163318028893,253.02954498957757 180.6869051934597,251.03887497877042 180.02260598152088,249.08111065969095 179.29970749676525,247.15771826123475 178.5192146055885,245.27013997841374 177.6821645433808,243.41979327220886 175.9911325841058,240.83697370982142 174.21904103039267,238.32224986145627 172.3677626849582,235.87765271225874 170.43921634543315,233.50516842926976 168.43536580716844,231.20673737824134 167.8462220214277,230.18921437463334 167.2274382167286,229.19717858909064 166.57972820738607,228.2313500691074 165.90382183163607,227.29243164733177 165.2004645671028,226.38110860300307 164.53324629601332,225.5404271328577 163.84157352279468,224.72645167633254 163.12617818553153,223.93977518466752 162.3878053902353,223.18097314399782 161.62721302329044,222.45060329774992 161.1025077988884,221.89184929557686 160.56203611051455,221.3535629463378 160.00635440399844,220.83612095432593 159.43602741138696,220.33988680396226 158.8516278584589,219.86521058636558 158.42953531903257,219.4906996566828 157.997216943033,219.13224592091035 157.55510577383924,218.79008960041776 157.10364007875143,218.46446067289688 156.6432631230119,218.15557876400274 156.43927189477344,217.95484785167864 156.2303724776424,217.76199946168148 156.01677830930703,217.5771424615182 155.79870510949104,217.40038066235064 155.5763707683517,217.23181277290442 155.31827446988368,217.06362348097602 155.0560924754736,216.90491965280424 154.7900776172196,216.7557911572768 154.52048459313463,216.61632192149386 154.2475698366624,216.4865898934751 153.81895077050532,216.34249110924154 153.38673016023486,216.21360261245925 152.95130870746505,216.10000387256306 152.51308874958036,216.00176500000748 152.07247405502568,215.9189467140944 151.67359963501914,215.85465821577478 151.27323490146298,215.80435614251942 150.87174667759496,215.76807079361154 150.46950235296515,215.74582392288303 150.06686969686805,215.73762872882807 151.01329305291844,215.71994163279808 151.95883112052428,215.66922483879497 152.90261942571286,215.58550889062263 153.8437943787464,215.46884444215593 154.7814937126664,215.31930223424925 156.41757594534124,215.06311431683358 158.04567166377902,214.74974446642202 159.66428430473286,214.3794021458397 161.27192233569602,213.9523316183072 162.86710001338645,213.4688118329938 164.9377290984173,212.83402832886222 166.9894772352819,212.12640386312543 169.02043493816132,211.3464153202333 171.0287038107682,210.49458400530844 173.0123975144399,209.57147539892992 175.27246955281942,208.4908646978271 177.50111058830052,207.32969544779695 179.69620090426702,206.08874815174227 181.85563867210368,204.76885269504461 183.97734102799532,203.37088795512594 186.26664562810655,201.81616780082354 188.51126817497368,200.17806639596787 190.70900084522464,198.4576830769747 192.85766080836106,196.65616875172228 194.9550913526602,194.77472535802505 197.11268916107142,192.75923488999987 199.21285965494118,190.6624242922379 201.25342827367533,188.48569751072975 203.23225220098007,186.23050950460822 205.14722148096888,183.89836556173074 207.00199197173563,181.48737654688696 208.78866891744806,179.00239128277028 210.5052423126025,176.44506494276868 212.14973940530885,173.81710018040988 213.7202257398531,171.12024632935854 215.15529758932493,168.39953410533832 216.5141359990884,165.61563215762692 217.79498117154156,162.7703843902091 218.9961146524224,159.86567673080432 220.1158602588787,156.9034362459252 221.11894018861292,153.91487721532138 222.0384414214052,150.87392472808173 222.87285024596974,147.78259650461064 223.62069810672915,144.64294697369928 224.28056242106464,141.45706630776343 224.83145448106734,138.2473891886437 225.29237379927815,134.99644296299996 225.66205801012953,131.7064002050458 225.93929334409083,128.3794647990973 226.12291533281825,125.01787090219702 226.14775063131242,121.70298799768014 226.07957496122725,118.36021337639917 225.91743304088277,114.99179234121036 225.66041977545902,111.5999948546266 225.30768082344198,108.18711446845799 224.7387553491259,104.9328672129912 224.07877848179285,101.6663131825336 223.3271578169463,98.38964615792642 222.48334990771474,95.10507666538507 221.54686066567024,91.8148309338359 220.2769843928667,88.95459278763204 218.9287906120287,86.10142800046984 217.50214811048338,83.25720370302875 215.9969670723383,80.4237936078305 214.4131992655733,77.60307713164488 212.58523044327296,75.16889964996727 210.69173747756304,72.75685540635695 208.73294321155387,70.36849312346516 206.70910463976497,68.0053603631998 204.62051293331,65.66900280552957 202.44959314317254,63.41294979275501 200.21642514067204,61.18736377758817 197.9214181560197,58.9937326717375 195.56501443349825,56.8335392596267 193.14768917498512,54.70826049859398 190.5331628852,53.167991852965066 187.87795535909893,51.6701789236787 185.18275642034357,50.21577353923332 182.44827674155476,48.80571630674647 179.67524766143669,47.44093617386904 176.82385662501463,46.37846333321571 173.94439203122994,45.364426648916755 171.0376790092,44.3994828373738 168.10455706658283,43.48427451508801 165.14587984783805,42.61942989669999 162.1376888791305,42.16059094057855 159.11809109954956,41.75408612716493 156.08799807336212,41.40017391412827 153.04832691270184,41.09909686212857 149.99999999999997,40.851081519881895" stroke="black" stroke-dasharray="2.03,2.03" stroke-width="1.78" /><polyline fill="none" points="149.99999999999997,287.6522727272727 148.74616124374984,287.57000296555674 147.49519371894746,287.4658958176858 146.24747734496418,287.34002643336356 145.0033902929208,287.1924765648145 143.76330887107065,287.02333452865815 142.5418976414702,286.69673270477733 141.32998000683966,286.3492750905919 140.1279107820403,285.9811934469739 138.93603958655726,285.5927255475069 137.75471074304053,285.1841150677823 136.59858199265798,284.6819475581962 135.45623481814724,284.1606643085569 134.3279828080651,283.62059309706063 133.21413231339423,283.06206679912196 132.11498236559558,282.4854232346907 131.08489117130856,281.7024524648293 130.07664123834726,280.9039989033788 129.0904567720356,280.0905856913884 128.12655038361743,279.2627390370203 127.18512305223514,278.4209879704478 126.33399570151538,277.3896777318068 125.51184349373543,276.3479429618842 124.71876772957313,275.296479584053 123.95485426795766,274.2359838246896 123.22017354734969,273.1671518865816 122.58285364539483,271.9511092248168 121.97971216143684,270.73054000807036 121.41070904339658,269.5062648563987 120.8757860413613,268.27910154495487 120.37486679586749,267.0498646193813 119.95990026552673,265.73275036467516 119.58173825178629,264.4170233179031 119.24020174183323,263.1035643605839 118.93509223230936,261.7932484756544 118.66619188193324,260.486944336285 118.58917359171285,258.970922304253 118.55531420448573,257.4661361812461 118.56419298881983,255.97362686402462 118.61536609402086,254.49442389821525 118.70836681971105,253.0295449895776 119.3130948065403,251.03887497877042 119.97739401847909,249.08111065969095 120.70029250323472,247.15771826123475 121.48078539441147,245.2701399784137 122.31783545661918,243.41979327220886 124.00886741589416,240.83697370982142 125.78095896960728,238.32224986145627 127.63223731504178,235.87765271225874 129.56078365456682,233.50516842926976 131.56463419283153,231.20673737824134 132.15377797857226,230.18921437463337 132.77256178327139,229.19717858909064 133.42027179261387,228.2313500691074 134.0961781683639,227.29243164733177 134.79953543289716,226.38110860300307 135.46675370398663,225.5404271328577 136.1584264772053,224.72645167633254 136.87382181446844,223.93977518466752 137.61219460976469,223.18097314399782 138.37278697670953,222.45060329774995 138.89749220111153,221.89184929557686 139.4379638894854,221.3535629463378 139.99364559600153,220.83612095432593 140.563972588613,220.33988680396226 141.14837214154105,219.86521058636558 141.5704646809674,219.4906996566828 142.00278305696696,219.13224592091035 142.44489422616073,218.79008960041776 142.89635992124855,218.46446067289688 143.35673687698807,218.15557876400274 143.56072810522653,217.95484785167864 143.76962752235758,217.76199946168148 143.98322169069294,217.5771424615182 144.2012948905089,217.40038066235064 144.42362923164825,217.23181277290442 144.6817255301163,217.06362348097602 144.94390752452637,216.90491965280424 145.20992238278035,216.7557911572768 145.47951540686535,216.61632192149386 145.75243016333758,216.4865898934751 146.18104922949462,216.34249110924154 146.61326983976508,216.21360261245925 147.04869129253493,216.10000387256306 147.4869112504196,216.00176500000748 147.9275259449743,215.9189467140944 148.32640036498083,215.85465821577478 148.726765098537,215.80435614251942 149.12825332240502,215.76807079361154 149.53049764703482,215.74582392288303 149.93313030313192,215.73762872882807 148.98670694708153,215.71994163279808 148.0411688794757,215.66922483879497 147.09738057428711,215.58550889062263 146.15620562125358,215.46884444215593 145.21850628733358,215.31930223424925 143.58242405465873,215.06311431683358 141.95432833622095,214.74974446642202 140.3357156952671,214.3794021458397 138.72807766430395,213.9523316183072 137.13289998661352,213.4688118329938 135.06227090158268,212.83402832886222 133.01052276471808,212.12640386312543 130.97956506183863,211.3464153202333 128.97129618923177,210.49458400530844 126.98760248556006,209.57147539892995 124.72753044718054,208.4908646978271 122.49888941169944,207.32969544779695 120.30379909573296,206.0887481517423 118.14436132789626,204.76885269504467 116.02265897200463,203.37088795512594 113.73335437189341,201.81616780082354 111.48873182502628,200.17806639596787 109.29099915477534,198.4576830769747 107.14233919163887,196.6561687517223 105.04490864733978,194.77472535802505 102.88731083892854,192.75923488999987 100.78714034505875,190.66242429223792 98.7465717263246,188.4856975107298 96.7677477990199,186.2305095046082 94.85277851903108,183.89836556173074 92.99800802826432,181.48737654688696 91.21133108255191,179.00239128277028 89.49475768739744,176.4450649427687 87.85026059469112,173.81710018040982 86.27977426014687,171.12024632935854 84.84470241067503,168.39953410533835 83.48586400091155,165.61563215762695 82.20501882845844,162.77038439020907 81.0038853475776,159.86567673080432 79.88413974112125,156.90343624592523 78.881059811387,153.91487721532138 77.9615585785947,150.8739247280818 77.12714975403021,147.78259650461064 76.37930189327082,144.64294697369928 75.71943757893534,141.45706630776345 75.16854551893263,138.24738918864372 74.70762620072186,134.9964429629999 74.33794198987046,131.7064002050458 74.06070665590914,128.3794647990973 73.87708466718168,125.01787090219705 73.85224936868748,121.70298799768017 73.92042503877273,118.36021337639912 74.0825669591172,114.99179234121036 74.33958022454094,111.59999485462666 74.69231917655792,108.18711446845802 75.2612446508741,104.9328672129912 75.92122151820715,101.6663131825336 76.67284218305362,98.38964615792648 77.51665009228518,95.10507666538507 78.45313933432965,91.81483093383596 79.72301560713332,88.95459278763201 81.07120938797127,86.10142800046984 82.49785188951658,83.25720370302875 84.00303292766161,80.4237936078305 85.5868007344267,77.60307713164485 87.41476955672701,75.16889964996727 89.30826252243688,72.75685540635695 91.26705678844604,70.36849312346516 93.29089536023494,68.00536036319986 95.37948706668996,65.66900280552957 97.55040685682742,63.41294979275501 99.78357485932789,61.18736377758817 102.07858184398017,58.9937326717375 104.43498556650174,56.8335392596267 106.85231082501488,54.70826049859398 109.46683711479993,53.167991852965066 112.12204464090097,51.6701789236787 114.81724357965632,50.21577353923332 117.55172325844524,48.80571630674647 120.32475233856327,47.44093617386904 123.1761433749853,46.37846333321571 126.05560796876995,45.364426648916755 128.9623209908,44.3994828373738 131.89544293341717,43.48427451508801 134.8541201521619,42.61942989669999 137.8623111208694,42.16059094057855 140.88190890045033,41.75408612716493 143.9120019266379,41.40017391412827 146.95167308729813,41.09909686212857 149.99999999999994,40.851081519881895" stroke="black" stroke-dasharray="2.03,2.03" stroke-width="1.78" /></g><rect fill="white" height="28.35" stroke="none" width="300" x="0" y="0" /><line stroke="black" stroke-width="0.76" x1="0" x2="300" y1="28.35" y2="28.35" /><text font-family="Arial" font-size="15.75" text-anchor="start" x="10.16" y="19.6875">LED</text><text font-family="Arial" font-size="15.75" text-anchor="middle" x="150.0" y="19.6875">TEST</text><text font-family="Arial" font-size="15.75" text-anchor="end" x="289.84" y="19.6875">cd / klm</text><rect fill="none" height="299.24" stroke="black" stroke-width="0.76" width="299.24" x="0.38" y="0.38" /></svg>